<svg xmlns="http://www.w3.org/2000/svg" width="900" height="320" viewBox="0 0 900 320" role="img" aria-labelledby="title desc">
<title id="title">unsorry proofs over time</title>
<desc id="desc">Cumulative kernel-verified proofs over time, by the hour each proof was merged.</desc>
<rect width="900" height="100%" rx="18" fill="#ffffff"/>
<rect x="0.5" y="0.5" width="899" height="319" rx="18" fill="none" stroke="#e2e8f0"/>
<text x="32" y="44" font-family="Inter, system-ui, sans-serif" font-size="28" font-weight="700" fill="#334155">unsorry — Proofs Over Time</text>
<text x="32" y="72" font-family="Inter, system-ui, sans-serif" font-size="13" fill="#64748b">4608 cumulative kernel-verified proofs · merged, hourly</text>
<line x1="52" y1="272.0" x2="872" y2="272.0" stroke="#f1f5f9"/>
<text x="44" y="276.0" text-anchor="end" font-family="Inter, system-ui, sans-serif" font-size="11" fill="#94a3b8">0</text>
<line x1="52" y1="226.5" x2="872" y2="226.5" stroke="#f1f5f9"/>
<text x="44" y="230.5" text-anchor="end" font-family="Inter, system-ui, sans-serif" font-size="11" fill="#94a3b8">1152</text>
<line x1="52" y1="181.0" x2="872" y2="181.0" stroke="#f1f5f9"/>
<text x="44" y="185.0" text-anchor="end" font-family="Inter, system-ui, sans-serif" font-size="11" fill="#94a3b8">2304</text>
<line x1="52" y1="135.5" x2="872" y2="135.5" stroke="#f1f5f9"/>
<text x="44" y="139.5" text-anchor="end" font-family="Inter, system-ui, sans-serif" font-size="11" fill="#94a3b8">3456</text>
<line x1="52" y1="90.0" x2="872" y2="90.0" stroke="#f1f5f9"/>
<text x="44" y="94.0" text-anchor="end" font-family="Inter, system-ui, sans-serif" font-size="11" fill="#94a3b8">4608</text>
<polygon points="52.0,272.0 52.0,272.0 54.1,271.9 79.1,271.5 81.1,271.4 83.2,271.3 89.5,271.3 101.9,271.2 129.0,271.2 131.1,270.9 133.2,270.8 139.4,270.7 141.5,270.7 143.6,270.7 145.7,270.5 149.8,270.5 151.9,270.3 158.1,270.1 166.5,270.1 168.5,269.9 170.6,269.9 187.3,269.8 191.4,269.8 201.8,269.7 203.9,269.7 206.0,269.6 214.3,269.6 216.4,269.4 218.5,269.2 220.6,268.6 222.7,268.6 237.2,268.5 243.5,268.5 247.6,268.4 249.7,268.4 251.8,268.2 253.9,268.2 256.0,268.1 258.0,268.0 260.1,267.9 268.4,267.7 272.6,267.7 280.9,267.6 283.0,267.4 285.1,267.4 287.2,267.3 291.3,267.3 293.4,266.5 295.5,265.7 297.6,265.4 299.7,265.2 301.7,265.1 303.8,264.9 305.9,264.7 308.0,264.5 310.1,264.3 312.2,264.3 316.3,264.1 318.4,263.8 320.5,263.5 322.6,263.2 324.6,263.0 328.8,262.9 333.0,262.9 335.0,262.6 337.1,262.4 339.2,261.8 341.3,261.5 343.4,261.2 345.5,260.9 347.5,260.5 349.6,260.2 351.7,259.8 353.8,259.4 355.9,259.0 357.9,258.6 360.0,258.4 362.1,258.1 364.2,257.8 366.3,257.6 368.3,257.4 370.4,257.2 372.5,257.1 374.6,257.1 378.8,257.0 380.8,256.2 382.9,255.7 385.0,255.6 387.1,255.5 391.2,255.5 393.3,255.3 401.6,255.3 405.8,255.2 412.1,255.2 414.1,254.3 416.2,253.4 418.3,253.2 420.4,252.4 422.5,251.9 424.5,251.5 426.6,251.3 428.7,251.0 430.8,250.8 432.9,250.8 434.9,250.6 437.0,250.5 449.5,249.9 451.6,249.1 453.7,249.0 455.8,248.9 457.8,248.8 472.4,248.8 491.1,247.9 493.2,247.3 495.3,246.6 497.4,245.5 499.5,245.3 501.5,244.9 503.6,244.3 505.7,243.8 507.8,242.7 509.9,241.2 511.9,239.6 514.0,237.8 516.1,235.9 518.2,234.2 520.3,233.2 522.4,232.0 524.4,230.2 526.5,228.6 528.6,227.6 530.7,226.5 532.8,225.0 534.8,224.1 536.9,223.1 539.0,222.3 541.1,221.7 543.2,220.9 545.2,220.3 547.3,219.8 549.4,219.3 551.5,217.9 553.6,216.7 555.7,216.1 557.7,215.9 559.8,215.6 561.9,215.0 564.0,214.5 566.1,213.5 568.1,212.9 570.2,212.4 572.3,212.3 574.4,212.0 576.5,211.6 578.5,210.5 580.6,208.6 582.7,206.7 584.8,204.7 586.9,203.2 589.0,201.3 591.0,199.3 593.1,197.3 595.2,195.5 597.3,194.1 599.4,193.0 601.4,191.8 603.5,190.6 605.6,189.8 607.7,188.9 609.8,188.2 611.8,187.2 613.9,185.8 616.0,184.1 618.1,182.7 620.2,181.5 622.3,180.7 624.3,180.0 626.4,179.3 628.5,178.5 630.6,177.2 632.7,176.0 634.7,174.6 636.8,173.2 638.9,172.0 641.0,171.1 643.1,170.7 645.1,170.1 647.2,169.6 649.3,169.5 651.4,169.4 653.5,169.2 655.6,169.0 657.6,169.0 659.7,168.8 661.8,168.7 668.0,168.7 670.1,168.6 672.2,168.4 674.3,166.8 676.4,165.4 678.4,164.2 680.5,162.8 682.6,161.6 684.7,160.3 686.8,159.0 688.9,157.9 690.9,156.6 693.0,155.4 695.1,154.1 697.2,153.0 699.3,151.8 701.3,150.6 703.4,149.5 705.5,148.5 707.6,147.4 709.7,146.3 711.7,145.2 713.8,144.1 715.9,143.1 718.0,142.4 720.1,141.7 722.2,141.0 724.2,139.9 726.3,139.0 728.4,138.1 730.5,137.1 732.6,136.2 734.6,135.3 736.7,134.4 738.8,133.4 740.9,132.5 743.0,131.7 745.0,130.6 747.1,129.9 749.2,128.9 751.3,128.2 753.4,127.4 755.5,126.5 757.5,125.7 759.6,124.9 761.7,124.3 763.8,123.7 765.9,123.3 767.9,123.2 770.0,122.4 772.1,121.6 774.2,120.8 776.3,120.0 778.3,119.3 780.4,118.6 782.5,117.8 784.6,117.1 786.7,116.3 788.8,115.7 790.8,115.0 792.9,114.3 795.0,113.5 797.1,112.9 799.2,112.2 801.2,111.5 803.3,110.8 805.4,110.2 807.5,109.4 809.6,108.9 811.6,108.3 813.7,107.5 815.8,106.7 817.9,106.1 820.0,105.3 822.1,104.6 824.1,104.1 826.2,103.4 828.3,102.6 830.4,102.1 832.5,101.7 834.5,101.1 836.6,100.4 838.7,99.7 840.8,98.8 842.9,98.2 844.9,97.5 847.0,96.9 849.1,96.3 851.2,95.6 853.3,95.0 855.4,94.3 857.4,93.8 859.5,93.0 861.6,92.6 863.7,91.9 865.8,91.2 867.8,90.9 869.9,90.3 872.0,90.0 872.0,272.0" fill="#e0f2fe" opacity="0.55"/>
<polyline points="52.0,272.0 54.1,271.9 79.1,271.5 81.1,271.4 83.2,271.3 89.5,271.3 101.9,271.2 129.0,271.2 131.1,270.9 133.2,270.8 139.4,270.7 141.5,270.7 143.6,270.7 145.7,270.5 149.8,270.5 151.9,270.3 158.1,270.1 166.5,270.1 168.5,269.9 170.6,269.9 187.3,269.8 191.4,269.8 201.8,269.7 203.9,269.7 206.0,269.6 214.3,269.6 216.4,269.4 218.5,269.2 220.6,268.6 222.7,268.6 237.2,268.5 243.5,268.5 247.6,268.4 249.7,268.4 251.8,268.2 253.9,268.2 256.0,268.1 258.0,268.0 260.1,267.9 268.4,267.7 272.6,267.7 280.9,267.6 283.0,267.4 285.1,267.4 287.2,267.3 291.3,267.3 293.4,266.5 295.5,265.7 297.6,265.4 299.7,265.2 301.7,265.1 303.8,264.9 305.9,264.7 308.0,264.5 310.1,264.3 312.2,264.3 316.3,264.1 318.4,263.8 320.5,263.5 322.6,263.2 324.6,263.0 328.8,262.9 333.0,262.9 335.0,262.6 337.1,262.4 339.2,261.8 341.3,261.5 343.4,261.2 345.5,260.9 347.5,260.5 349.6,260.2 351.7,259.8 353.8,259.4 355.9,259.0 357.9,258.6 360.0,258.4 362.1,258.1 364.2,257.8 366.3,257.6 368.3,257.4 370.4,257.2 372.5,257.1 374.6,257.1 378.8,257.0 380.8,256.2 382.9,255.7 385.0,255.6 387.1,255.5 391.2,255.5 393.3,255.3 401.6,255.3 405.8,255.2 412.1,255.2 414.1,254.3 416.2,253.4 418.3,253.2 420.4,252.4 422.5,251.9 424.5,251.5 426.6,251.3 428.7,251.0 430.8,250.8 432.9,250.8 434.9,250.6 437.0,250.5 449.5,249.9 451.6,249.1 453.7,249.0 455.8,248.9 457.8,248.8 472.4,248.8 491.1,247.9 493.2,247.3 495.3,246.6 497.4,245.5 499.5,245.3 501.5,244.9 503.6,244.3 505.7,243.8 507.8,242.7 509.9,241.2 511.9,239.6 514.0,237.8 516.1,235.9 518.2,234.2 520.3,233.2 522.4,232.0 524.4,230.2 526.5,228.6 528.6,227.6 530.7,226.5 532.8,225.0 534.8,224.1 536.9,223.1 539.0,222.3 541.1,221.7 543.2,220.9 545.2,220.3 547.3,219.8 549.4,219.3 551.5,217.9 553.6,216.7 555.7,216.1 557.7,215.9 559.8,215.6 561.9,215.0 564.0,214.5 566.1,213.5 568.1,212.9 570.2,212.4 572.3,212.3 574.4,212.0 576.5,211.6 578.5,210.5 580.6,208.6 582.7,206.7 584.8,204.7 586.9,203.2 589.0,201.3 591.0,199.3 593.1,197.3 595.2,195.5 597.3,194.1 599.4,193.0 601.4,191.8 603.5,190.6 605.6,189.8 607.7,188.9 609.8,188.2 611.8,187.2 613.9,185.8 616.0,184.1 618.1,182.7 620.2,181.5 622.3,180.7 624.3,180.0 626.4,179.3 628.5,178.5 630.6,177.2 632.7,176.0 634.7,174.6 636.8,173.2 638.9,172.0 641.0,171.1 643.1,170.7 645.1,170.1 647.2,169.6 649.3,169.5 651.4,169.4 653.5,169.2 655.6,169.0 657.6,169.0 659.7,168.8 661.8,168.7 668.0,168.7 670.1,168.6 672.2,168.4 674.3,166.8 676.4,165.4 678.4,164.2 680.5,162.8 682.6,161.6 684.7,160.3 686.8,159.0 688.9,157.9 690.9,156.6 693.0,155.4 695.1,154.1 697.2,153.0 699.3,151.8 701.3,150.6 703.4,149.5 705.5,148.5 707.6,147.4 709.7,146.3 711.7,145.2 713.8,144.1 715.9,143.1 718.0,142.4 720.1,141.7 722.2,141.0 724.2,139.9 726.3,139.0 728.4,138.1 730.5,137.1 732.6,136.2 734.6,135.3 736.7,134.4 738.8,133.4 740.9,132.5 743.0,131.7 745.0,130.6 747.1,129.9 749.2,128.9 751.3,128.2 753.4,127.4 755.5,126.5 757.5,125.7 759.6,124.9 761.7,124.3 763.8,123.7 765.9,123.3 767.9,123.2 770.0,122.4 772.1,121.6 774.2,120.8 776.3,120.0 778.3,119.3 780.4,118.6 782.5,117.8 784.6,117.1 786.7,116.3 788.8,115.7 790.8,115.0 792.9,114.3 795.0,113.5 797.1,112.9 799.2,112.2 801.2,111.5 803.3,110.8 805.4,110.2 807.5,109.4 809.6,108.9 811.6,108.3 813.7,107.5 815.8,106.7 817.9,106.1 820.0,105.3 822.1,104.6 824.1,104.1 826.2,103.4 828.3,102.6 830.4,102.1 832.5,101.7 834.5,101.1 836.6,100.4 838.7,99.7 840.8,98.8 842.9,98.2 844.9,97.5 847.0,96.9 849.1,96.3 851.2,95.6 853.3,95.0 855.4,94.3 857.4,93.8 859.5,93.0 861.6,92.6 863.7,91.9 865.8,91.2 867.8,90.9 869.9,90.3 872.0,90.0" fill="none" stroke="#38bdf8" stroke-width="2.5" stroke-linejoin="round" stroke-linecap="round"/>
<circle cx="872.0" cy="90.0" r="4" fill="#0ea5e9"/>
<text x="866.0" y="80.0" text-anchor="end" font-family="Inter, system-ui, sans-serif" font-size="13" font-weight="700" fill="#334155">4608</text>
<text x="52.0" y="294" text-anchor="middle" font-family="Inter, system-ui, sans-serif" font-size="11" fill="#94a3b8">Jun 10 05:00</text>
<text x="564.0" y="294" text-anchor="middle" font-family="Inter, system-ui, sans-serif" font-size="11" fill="#94a3b8">Jun 20 11:00</text>
<text x="872.0" y="294" text-anchor="middle" font-family="Inter, system-ui, sans-serif" font-size="11" fill="#94a3b8">Jun 26 15:00</text>
</svg>
