<svg xmlns="http://www.w3.org/2000/svg" width="900" height="320" viewBox="0 0 900 320" role="img" aria-labelledby="title desc">
<title id="title">unsorry proofs over time</title>
<desc id="desc">Cumulative kernel-verified proofs over time, by the hour each proof was merged.</desc>
<rect width="900" height="100%" rx="18" fill="#ffffff"/>
<rect x="0.5" y="0.5" width="899" height="319" rx="18" fill="none" stroke="#e2e8f0"/>
<text x="32" y="44" font-family="Inter, system-ui, sans-serif" font-size="28" font-weight="700" fill="#334155">unsorry — Proofs Over Time</text>
<text x="32" y="72" font-family="Inter, system-ui, sans-serif" font-size="13" fill="#64748b">4448 cumulative kernel-verified proofs · merged, hourly</text>
<line x1="52" y1="272.0" x2="872" y2="272.0" stroke="#f1f5f9"/>
<text x="44" y="276.0" text-anchor="end" font-family="Inter, system-ui, sans-serif" font-size="11" fill="#94a3b8">0</text>
<line x1="52" y1="226.5" x2="872" y2="226.5" stroke="#f1f5f9"/>
<text x="44" y="230.5" text-anchor="end" font-family="Inter, system-ui, sans-serif" font-size="11" fill="#94a3b8">1112</text>
<line x1="52" y1="181.0" x2="872" y2="181.0" stroke="#f1f5f9"/>
<text x="44" y="185.0" text-anchor="end" font-family="Inter, system-ui, sans-serif" font-size="11" fill="#94a3b8">2224</text>
<line x1="52" y1="135.5" x2="872" y2="135.5" stroke="#f1f5f9"/>
<text x="44" y="139.5" text-anchor="end" font-family="Inter, system-ui, sans-serif" font-size="11" fill="#94a3b8">3336</text>
<line x1="52" y1="90.0" x2="872" y2="90.0" stroke="#f1f5f9"/>
<text x="44" y="94.0" text-anchor="end" font-family="Inter, system-ui, sans-serif" font-size="11" fill="#94a3b8">4448</text>
<polygon points="52.0,272.0 52.0,272.0 54.1,271.9 79.8,271.5 82.0,271.3 84.1,271.3 90.5,271.3 103.4,271.2 131.2,271.2 133.4,270.8 135.5,270.8 141.9,270.7 144.1,270.6 146.2,270.6 148.3,270.5 152.6,270.4 154.8,270.2 161.2,270.1 169.8,270.0 171.9,269.9 174.0,269.8 191.2,269.7 195.4,269.7 206.2,269.7 208.3,269.6 210.4,269.5 219.0,269.5 221.1,269.3 223.3,269.1 225.4,268.5 227.6,268.4 242.5,268.4 249.0,268.4 253.3,268.3 255.4,268.3 257.5,268.1 259.7,268.0 261.8,268.0 264.0,267.9 266.1,267.7 274.7,267.5 278.9,267.5 287.5,267.5 289.7,267.3 291.8,267.2 293.9,267.1 298.2,267.1 300.4,266.3 302.5,265.5 304.6,265.2 306.8,265.0 308.9,264.9 311.1,264.7 313.2,264.4 315.3,264.2 317.5,264.1 319.6,264.0 323.9,263.9 326.0,263.5 328.2,263.2 330.3,262.9 332.5,262.7 336.8,262.6 341.0,262.5 343.2,262.3 345.3,262.1 347.5,261.5 349.6,261.2 351.7,260.8 353.9,260.5 356.0,260.1 358.2,259.8 360.3,259.4 362.4,258.9 364.6,258.5 366.7,258.1 368.9,257.9 371.0,257.6 373.1,257.3 375.3,257.1 377.4,256.9 379.6,256.7 381.7,256.6 383.9,256.5 388.1,256.5 390.3,255.7 392.4,255.1 394.6,255.0 396.7,254.9 401.0,254.9 403.1,254.7 411.7,254.7 416.0,254.6 422.4,254.6 424.5,253.6 426.7,252.7 428.8,252.5 431.0,251.7 433.1,251.2 435.2,250.8 437.4,250.6 439.5,250.2 441.7,250.1 443.8,250.0 445.9,249.8 448.1,249.7 460.9,249.1 463.1,248.3 465.2,248.1 467.4,248.0 469.5,248.0 484.5,247.9 503.7,247.1 505.9,246.4 508.0,245.6 510.2,244.5 512.3,244.3 514.5,243.9 516.6,243.3 518.7,242.8 520.9,241.7 523.0,240.0 525.2,238.4 527.3,236.6 529.4,234.6 531.6,232.9 533.7,231.8 535.9,230.6 538.0,228.7 540.1,227.1 542.3,226.0 544.4,224.9 546.6,223.3 548.7,222.4 550.9,221.4 553.0,220.5 555.1,219.9 557.3,219.0 559.4,218.5 561.6,217.9 563.7,217.4 565.8,215.9 568.0,214.8 570.1,214.1 572.3,213.9 574.4,213.5 576.5,212.9 578.7,212.4 580.8,211.4 583.0,210.8 585.1,210.2 587.2,210.1 589.4,209.9 591.5,209.4 593.7,208.3 595.8,206.3 598.0,204.3 600.1,202.3 602.2,200.7 604.4,198.8 606.5,196.7 608.7,194.6 610.8,192.7 612.9,191.3 615.1,190.2 617.2,188.9 619.4,187.7 621.5,186.9 623.6,185.9 625.8,185.2 627.9,184.1 630.1,182.7 632.2,181.0 634.3,179.5 636.5,178.3 638.6,177.4 640.8,176.7 642.9,176.0 645.1,175.1 647.2,173.8 649.3,172.6 651.5,171.1 653.6,169.7 655.8,168.4 657.9,167.5 660.0,167.0 662.2,166.5 664.3,165.9 666.5,165.8 668.6,165.7 670.7,165.5 672.9,165.3 675.0,165.3 677.2,165.1 679.3,165.0 685.7,165.0 687.9,164.9 690.0,164.7 692.2,163.0 694.3,161.6 696.4,160.3 698.6,158.9 700.7,157.6 702.9,156.3 705.0,155.0 707.1,153.7 709.3,152.4 711.4,151.2 713.6,149.9 715.7,148.7 717.8,147.5 720.0,146.3 722.1,145.1 724.3,144.1 726.4,142.9 728.6,141.8 730.7,140.6 732.8,139.6 735.0,138.4 737.1,137.7 739.3,137.0 741.4,136.2 743.5,135.2 745.7,134.2 747.8,133.3 750.0,132.2 752.1,131.3 754.2,130.4 756.4,129.4 758.5,128.5 760.7,127.5 762.8,126.6 765.0,125.6 767.1,124.7 769.2,123.8 771.4,123.0 773.5,122.2 775.7,121.3 777.8,120.4 779.9,119.6 782.1,119.0 784.2,118.4 786.4,118.0 788.5,117.9 790.6,117.0 792.8,116.2 794.9,115.4 797.1,114.6 799.2,113.9 801.3,113.0 803.5,112.3 805.6,111.5 807.8,110.7 809.9,110.0 812.1,109.4 814.2,108.7 816.3,107.8 818.5,107.2 820.6,106.4 822.8,105.7 824.9,105.0 827.0,104.4 829.2,103.6 831.3,103.0 833.5,102.4 835.6,101.6 837.7,100.8 839.9,100.1 842.0,99.3 844.2,98.6 846.3,98.0 848.4,97.4 850.6,96.5 852.7,96.0 854.9,95.6 857.0,94.9 859.2,94.2 861.3,93.5 863.4,92.6 865.6,91.9 867.7,91.2 869.9,90.6 872.0,90.0 872.0,272.0" fill="#e0f2fe" opacity="0.55"/>
<polyline points="52.0,272.0 54.1,271.9 79.8,271.5 82.0,271.3 84.1,271.3 90.5,271.3 103.4,271.2 131.2,271.2 133.4,270.8 135.5,270.8 141.9,270.7 144.1,270.6 146.2,270.6 148.3,270.5 152.6,270.4 154.8,270.2 161.2,270.1 169.8,270.0 171.9,269.9 174.0,269.8 191.2,269.7 195.4,269.7 206.2,269.7 208.3,269.6 210.4,269.5 219.0,269.5 221.1,269.3 223.3,269.1 225.4,268.5 227.6,268.4 242.5,268.4 249.0,268.4 253.3,268.3 255.4,268.3 257.5,268.1 259.7,268.0 261.8,268.0 264.0,267.9 266.1,267.7 274.7,267.5 278.9,267.5 287.5,267.5 289.7,267.3 291.8,267.2 293.9,267.1 298.2,267.1 300.4,266.3 302.5,265.5 304.6,265.2 306.8,265.0 308.9,264.9 311.1,264.7 313.2,264.4 315.3,264.2 317.5,264.1 319.6,264.0 323.9,263.9 326.0,263.5 328.2,263.2 330.3,262.9 332.5,262.7 336.8,262.6 341.0,262.5 343.2,262.3 345.3,262.1 347.5,261.5 349.6,261.2 351.7,260.8 353.9,260.5 356.0,260.1 358.2,259.8 360.3,259.4 362.4,258.9 364.6,258.5 366.7,258.1 368.9,257.9 371.0,257.6 373.1,257.3 375.3,257.1 377.4,256.9 379.6,256.7 381.7,256.6 383.9,256.5 388.1,256.5 390.3,255.7 392.4,255.1 394.6,255.0 396.7,254.9 401.0,254.9 403.1,254.7 411.7,254.7 416.0,254.6 422.4,254.6 424.5,253.6 426.7,252.7 428.8,252.5 431.0,251.7 433.1,251.2 435.2,250.8 437.4,250.6 439.5,250.2 441.7,250.1 443.8,250.0 445.9,249.8 448.1,249.7 460.9,249.1 463.1,248.3 465.2,248.1 467.4,248.0 469.5,248.0 484.5,247.9 503.7,247.1 505.9,246.4 508.0,245.6 510.2,244.5 512.3,244.3 514.5,243.9 516.6,243.3 518.7,242.8 520.9,241.7 523.0,240.0 525.2,238.4 527.3,236.6 529.4,234.6 531.6,232.9 533.7,231.8 535.9,230.6 538.0,228.7 540.1,227.1 542.3,226.0 544.4,224.9 546.6,223.3 548.7,222.4 550.9,221.4 553.0,220.5 555.1,219.9 557.3,219.0 559.4,218.5 561.6,217.9 563.7,217.4 565.8,215.9 568.0,214.8 570.1,214.1 572.3,213.9 574.4,213.5 576.5,212.9 578.7,212.4 580.8,211.4 583.0,210.8 585.1,210.2 587.2,210.1 589.4,209.9 591.5,209.4 593.7,208.3 595.8,206.3 598.0,204.3 600.1,202.3 602.2,200.7 604.4,198.8 606.5,196.7 608.7,194.6 610.8,192.7 612.9,191.3 615.1,190.2 617.2,188.9 619.4,187.7 621.5,186.9 623.6,185.9 625.8,185.2 627.9,184.1 630.1,182.7 632.2,181.0 634.3,179.5 636.5,178.3 638.6,177.4 640.8,176.7 642.9,176.0 645.1,175.1 647.2,173.8 649.3,172.6 651.5,171.1 653.6,169.7 655.8,168.4 657.9,167.5 660.0,167.0 662.2,166.5 664.3,165.9 666.5,165.8 668.6,165.7 670.7,165.5 672.9,165.3 675.0,165.3 677.2,165.1 679.3,165.0 685.7,165.0 687.9,164.9 690.0,164.7 692.2,163.0 694.3,161.6 696.4,160.3 698.6,158.9 700.7,157.6 702.9,156.3 705.0,155.0 707.1,153.7 709.3,152.4 711.4,151.2 713.6,149.9 715.7,148.7 717.8,147.5 720.0,146.3 722.1,145.1 724.3,144.1 726.4,142.9 728.6,141.8 730.7,140.6 732.8,139.6 735.0,138.4 737.1,137.7 739.3,137.0 741.4,136.2 743.5,135.2 745.7,134.2 747.8,133.3 750.0,132.2 752.1,131.3 754.2,130.4 756.4,129.4 758.5,128.5 760.7,127.5 762.8,126.6 765.0,125.6 767.1,124.7 769.2,123.8 771.4,123.0 773.5,122.2 775.7,121.3 777.8,120.4 779.9,119.6 782.1,119.0 784.2,118.4 786.4,118.0 788.5,117.9 790.6,117.0 792.8,116.2 794.9,115.4 797.1,114.6 799.2,113.9 801.3,113.0 803.5,112.3 805.6,111.5 807.8,110.7 809.9,110.0 812.1,109.4 814.2,108.7 816.3,107.8 818.5,107.2 820.6,106.4 822.8,105.7 824.9,105.0 827.0,104.4 829.2,103.6 831.3,103.0 833.5,102.4 835.6,101.6 837.7,100.8 839.9,100.1 842.0,99.3 844.2,98.6 846.3,98.0 848.4,97.4 850.6,96.5 852.7,96.0 854.9,95.6 857.0,94.9 859.2,94.2 861.3,93.5 863.4,92.6 865.6,91.9 867.7,91.2 869.9,90.6 872.0,90.0" fill="none" stroke="#38bdf8" stroke-width="2.5" stroke-linejoin="round" stroke-linecap="round"/>
<circle cx="872.0" cy="90.0" r="4" fill="#0ea5e9"/>
<text x="866.0" y="80.0" text-anchor="end" font-family="Inter, system-ui, sans-serif" font-size="13" font-weight="700" fill="#334155">4448</text>
<text x="52.0" y="294" text-anchor="middle" font-family="Inter, system-ui, sans-serif" font-size="11" fill="#94a3b8">Jun 10 05:00</text>
<text x="568.0" y="294" text-anchor="middle" font-family="Inter, system-ui, sans-serif" font-size="11" fill="#94a3b8">Jun 20 06:00</text>
<text x="872.0" y="294" text-anchor="middle" font-family="Inter, system-ui, sans-serif" font-size="11" fill="#94a3b8">Jun 26 04:00</text>
</svg>
