<svg xmlns="http://www.w3.org/2000/svg" width="900" height="320" viewBox="0 0 900 320" role="img" aria-labelledby="title desc">
<title id="title">unsorry proofs over time</title>
<desc id="desc">Cumulative kernel-verified proofs over time, by the hour each proof was merged.</desc>
<rect width="900" height="100%" rx="18" fill="#ffffff"/>
<rect x="0.5" y="0.5" width="899" height="319" rx="18" fill="none" stroke="#e2e8f0"/>
<text x="32" y="44" font-family="Inter, system-ui, sans-serif" font-size="28" font-weight="700" fill="#334155">unsorry — Proofs Over Time</text>
<text x="32" y="72" font-family="Inter, system-ui, sans-serif" font-size="13" fill="#64748b">3917 cumulative kernel-verified proofs · merged, hourly</text>
<line x1="52" y1="272.0" x2="872" y2="272.0" stroke="#f1f5f9"/>
<text x="44" y="276.0" text-anchor="end" font-family="Inter, system-ui, sans-serif" font-size="11" fill="#94a3b8">0</text>
<line x1="52" y1="226.5" x2="872" y2="226.5" stroke="#f1f5f9"/>
<text x="44" y="230.5" text-anchor="end" font-family="Inter, system-ui, sans-serif" font-size="11" fill="#94a3b8">979</text>
<line x1="52" y1="181.0" x2="872" y2="181.0" stroke="#f1f5f9"/>
<text x="44" y="185.0" text-anchor="end" font-family="Inter, system-ui, sans-serif" font-size="11" fill="#94a3b8">1958</text>
<line x1="52" y1="135.5" x2="872" y2="135.5" stroke="#f1f5f9"/>
<text x="44" y="139.5" text-anchor="end" font-family="Inter, system-ui, sans-serif" font-size="11" fill="#94a3b8">2938</text>
<line x1="52" y1="90.0" x2="872" y2="90.0" stroke="#f1f5f9"/>
<text x="44" y="94.0" text-anchor="end" font-family="Inter, system-ui, sans-serif" font-size="11" fill="#94a3b8">3917</text>
<polygon points="52.0,272.0 52.0,272.0 54.3,271.9 82.3,271.4 84.6,271.3 86.9,271.2 93.9,271.2 107.9,271.1 138.2,271.1 140.5,270.7 142.9,270.6 149.8,270.5 152.2,270.5 154.5,270.4 156.8,270.3 161.5,270.2 163.8,270.0 170.8,269.8 180.1,269.7 182.5,269.6 184.8,269.5 203.4,269.4 208.1,269.4 219.7,269.4 222.1,269.3 224.4,269.2 233.7,269.2 236.0,268.9 238.4,268.7 240.7,268.1 243.0,268.0 259.3,267.9 266.3,267.9 271.0,267.8 273.3,267.8 275.6,267.5 278.0,267.5 280.3,267.4 282.6,267.3 285.0,267.2 294.3,266.9 298.9,266.9 308.2,266.8 310.6,266.6 312.9,266.6 315.2,266.5 319.9,266.4 322.2,265.5 324.6,264.6 326.9,264.2 329.2,264.0 331.5,263.9 333.9,263.7 336.2,263.4 338.5,263.1 340.9,263.0 343.2,262.9 347.9,262.8 350.2,262.4 352.5,262.0 354.8,261.6 357.2,261.4 361.8,261.3 366.5,261.3 368.8,260.9 371.1,260.7 373.5,260.1 375.8,259.7 378.1,259.3 380.5,258.9 382.8,258.5 385.1,258.1 387.5,257.6 389.8,257.1 392.1,256.7 394.4,256.2 396.8,256.0 399.1,255.6 401.4,255.3 403.8,255.1 406.1,254.9 408.4,254.6 410.8,254.5 413.1,254.4 417.7,254.4 420.1,253.5 422.4,252.8 424.7,252.7 427.1,252.6 431.7,252.5 434.0,252.4 443.4,252.3 448.0,252.3 455.0,252.2 457.3,251.1 459.7,250.1 462.0,249.8 464.3,249.0 466.7,248.3 469.0,247.9 471.3,247.7 473.6,247.3 476.0,247.1 478.3,247.0 480.6,246.8 483.0,246.7 496.9,246.0 499.3,245.1 501.6,244.9 503.9,244.8 506.3,244.7 522.6,244.7 543.5,243.7 545.9,243.0 548.2,242.1 550.5,240.8 552.9,240.5 555.2,240.1 557.5,239.4 559.8,238.8 562.2,237.6 564.5,235.7 566.8,233.9 569.2,231.8 571.5,229.5 573.8,227.6 576.1,226.4 578.5,224.9 580.8,222.8 583.1,221.0 585.5,219.8 587.8,218.5 590.1,216.8 592.5,215.6 594.8,214.5 597.1,213.5 599.4,212.8 601.8,211.8 604.1,211.2 606.4,210.6 608.8,210.0 611.1,208.3 613.4,207.0 615.8,206.3 618.1,206.0 620.4,205.6 622.7,204.9 625.1,204.3 627.4,203.2 629.7,202.5 632.1,201.8 634.4,201.7 636.7,201.5 639.0,201.0 641.4,199.6 643.7,197.4 646.0,195.1 648.4,192.9 650.7,191.0 653.0,188.8 655.4,186.5 657.7,184.1 660.0,182.0 662.3,180.4 664.7,179.1 667.0,177.7 669.3,176.3 671.7,175.4 674.0,174.2 676.3,173.4 678.6,172.2 681.0,170.6 683.3,168.6 685.6,167.0 688.0,165.6 690.3,164.6 692.6,163.8 695.0,162.9 697.3,162.0 699.6,160.4 701.9,159.1 704.3,157.5 706.6,155.8 708.9,154.4 711.3,153.3 713.6,152.8 715.9,152.2 718.2,151.5 720.6,151.4 722.9,151.3 725.2,151.0 727.6,150.9 729.9,150.8 732.2,150.6 734.6,150.5 741.5,150.4 743.9,150.4 746.2,150.1 748.5,148.2 750.9,146.6 753.2,145.2 755.5,143.5 757.9,142.1 760.2,140.6 762.5,139.1 764.8,137.7 767.2,136.2 769.5,134.8 771.8,133.4 774.2,132.0 776.5,130.6 778.8,129.2 781.1,127.9 783.5,126.7 785.8,125.4 788.1,124.1 790.5,122.8 792.8,121.6 795.1,120.3 797.5,119.5 799.8,118.7 802.1,117.8 804.4,116.6 806.8,115.6 809.1,114.5 811.4,113.3 813.8,112.2 816.1,111.2 818.4,110.1 820.8,109.0 823.1,107.9 825.4,106.9 827.7,105.7 830.1,104.8 832.4,103.7 834.7,102.8 837.1,101.9 839.4,100.8 841.7,99.9 844.0,99.0 846.4,98.2 848.7,97.5 851.0,97.1 853.4,97.0 855.7,96.0 858.0,95.1 860.4,94.2 862.7,93.2 865.0,92.4 867.3,91.5 869.7,90.6 872.0,90.0 872.0,272.0" fill="#e0f2fe" opacity="0.55"/>
<polyline points="52.0,272.0 54.3,271.9 82.3,271.4 84.6,271.3 86.9,271.2 93.9,271.2 107.9,271.1 138.2,271.1 140.5,270.7 142.9,270.6 149.8,270.5 152.2,270.5 154.5,270.4 156.8,270.3 161.5,270.2 163.8,270.0 170.8,269.8 180.1,269.7 182.5,269.6 184.8,269.5 203.4,269.4 208.1,269.4 219.7,269.4 222.1,269.3 224.4,269.2 233.7,269.2 236.0,268.9 238.4,268.7 240.7,268.1 243.0,268.0 259.3,267.9 266.3,267.9 271.0,267.8 273.3,267.8 275.6,267.5 278.0,267.5 280.3,267.4 282.6,267.3 285.0,267.2 294.3,266.9 298.9,266.9 308.2,266.8 310.6,266.6 312.9,266.6 315.2,266.5 319.9,266.4 322.2,265.5 324.6,264.6 326.9,264.2 329.2,264.0 331.5,263.9 333.9,263.7 336.2,263.4 338.5,263.1 340.9,263.0 343.2,262.9 347.9,262.8 350.2,262.4 352.5,262.0 354.8,261.6 357.2,261.4 361.8,261.3 366.5,261.3 368.8,260.9 371.1,260.7 373.5,260.1 375.8,259.7 378.1,259.3 380.5,258.9 382.8,258.5 385.1,258.1 387.5,257.6 389.8,257.1 392.1,256.7 394.4,256.2 396.8,256.0 399.1,255.6 401.4,255.3 403.8,255.1 406.1,254.9 408.4,254.6 410.8,254.5 413.1,254.4 417.7,254.4 420.1,253.5 422.4,252.8 424.7,252.7 427.1,252.6 431.7,252.5 434.0,252.4 443.4,252.3 448.0,252.3 455.0,252.2 457.3,251.1 459.7,250.1 462.0,249.8 464.3,249.0 466.7,248.3 469.0,247.9 471.3,247.7 473.6,247.3 476.0,247.1 478.3,247.0 480.6,246.8 483.0,246.7 496.9,246.0 499.3,245.1 501.6,244.9 503.9,244.8 506.3,244.7 522.6,244.7 543.5,243.7 545.9,243.0 548.2,242.1 550.5,240.8 552.9,240.5 555.2,240.1 557.5,239.4 559.8,238.8 562.2,237.6 564.5,235.7 566.8,233.9 569.2,231.8 571.5,229.5 573.8,227.6 576.1,226.4 578.5,224.9 580.8,222.8 583.1,221.0 585.5,219.8 587.8,218.5 590.1,216.8 592.5,215.6 594.8,214.5 597.1,213.5 599.4,212.8 601.8,211.8 604.1,211.2 606.4,210.6 608.8,210.0 611.1,208.3 613.4,207.0 615.8,206.3 618.1,206.0 620.4,205.6 622.7,204.9 625.1,204.3 627.4,203.2 629.7,202.5 632.1,201.8 634.4,201.7 636.7,201.5 639.0,201.0 641.4,199.6 643.7,197.4 646.0,195.1 648.4,192.9 650.7,191.0 653.0,188.8 655.4,186.5 657.7,184.1 660.0,182.0 662.3,180.4 664.7,179.1 667.0,177.7 669.3,176.3 671.7,175.4 674.0,174.2 676.3,173.4 678.6,172.2 681.0,170.6 683.3,168.6 685.6,167.0 688.0,165.6 690.3,164.6 692.6,163.8 695.0,162.9 697.3,162.0 699.6,160.4 701.9,159.1 704.3,157.5 706.6,155.8 708.9,154.4 711.3,153.3 713.6,152.8 715.9,152.2 718.2,151.5 720.6,151.4 722.9,151.3 725.2,151.0 727.6,150.9 729.9,150.8 732.2,150.6 734.6,150.5 741.5,150.4 743.9,150.4 746.2,150.1 748.5,148.2 750.9,146.6 753.2,145.2 755.5,143.5 757.9,142.1 760.2,140.6 762.5,139.1 764.8,137.7 767.2,136.2 769.5,134.8 771.8,133.4 774.2,132.0 776.5,130.6 778.8,129.2 781.1,127.9 783.5,126.7 785.8,125.4 788.1,124.1 790.5,122.8 792.8,121.6 795.1,120.3 797.5,119.5 799.8,118.7 802.1,117.8 804.4,116.6 806.8,115.6 809.1,114.5 811.4,113.3 813.8,112.2 816.1,111.2 818.4,110.1 820.8,109.0 823.1,107.9 825.4,106.9 827.7,105.7 830.1,104.8 832.4,103.7 834.7,102.8 837.1,101.9 839.4,100.8 841.7,99.9 844.0,99.0 846.4,98.2 848.7,97.5 851.0,97.1 853.4,97.0 855.7,96.0 858.0,95.1 860.4,94.2 862.7,93.2 865.0,92.4 867.3,91.5 869.7,90.6 872.0,90.0" fill="none" stroke="#38bdf8" stroke-width="2.5" stroke-linejoin="round" stroke-linecap="round"/>
<circle cx="872.0" cy="90.0" r="4" fill="#0ea5e9"/>
<text x="866.0" y="80.0" text-anchor="end" font-family="Inter, system-ui, sans-serif" font-size="13" font-weight="700" fill="#334155">3917</text>
<text x="52.0" y="294" text-anchor="middle" font-family="Inter, system-ui, sans-serif" font-size="11" fill="#94a3b8">Jun 10 05:00</text>
<text x="576.1" y="294" text-anchor="middle" font-family="Inter, system-ui, sans-serif" font-size="11" fill="#94a3b8">Jun 19 14:00</text>
<text x="872.0" y="294" text-anchor="middle" font-family="Inter, system-ui, sans-serif" font-size="11" fill="#94a3b8">Jun 24 21:00</text>
</svg>
