<svg xmlns="http://www.w3.org/2000/svg" width="900" height="320" viewBox="0 0 900 320" role="img" aria-labelledby="title desc">
<title id="title">unsorry proofs over time</title>
<desc id="desc">Cumulative kernel-verified proofs over time, by the hour each proof was merged.</desc>
<rect width="900" height="100%" rx="18" fill="#ffffff"/>
<rect x="0.5" y="0.5" width="899" height="319" rx="18" fill="none" stroke="#e2e8f0"/>
<text x="32" y="44" font-family="Inter, system-ui, sans-serif" font-size="28" font-weight="700" fill="#334155">unsorry — Proofs Over Time</text>
<text x="32" y="72" font-family="Inter, system-ui, sans-serif" font-size="13" fill="#64748b">4403 cumulative kernel-verified proofs · merged, hourly</text>
<line x1="52" y1="272.0" x2="872" y2="272.0" stroke="#f1f5f9"/>
<text x="44" y="276.0" text-anchor="end" font-family="Inter, system-ui, sans-serif" font-size="11" fill="#94a3b8">0</text>
<line x1="52" y1="226.5" x2="872" y2="226.5" stroke="#f1f5f9"/>
<text x="44" y="230.5" text-anchor="end" font-family="Inter, system-ui, sans-serif" font-size="11" fill="#94a3b8">1101</text>
<line x1="52" y1="181.0" x2="872" y2="181.0" stroke="#f1f5f9"/>
<text x="44" y="185.0" text-anchor="end" font-family="Inter, system-ui, sans-serif" font-size="11" fill="#94a3b8">2202</text>
<line x1="52" y1="135.5" x2="872" y2="135.5" stroke="#f1f5f9"/>
<text x="44" y="139.5" text-anchor="end" font-family="Inter, system-ui, sans-serif" font-size="11" fill="#94a3b8">3302</text>
<line x1="52" y1="90.0" x2="872" y2="90.0" stroke="#f1f5f9"/>
<text x="44" y="94.0" text-anchor="end" font-family="Inter, system-ui, sans-serif" font-size="11" fill="#94a3b8">4403</text>
<polygon points="52.0,272.0 52.0,272.0 54.2,271.9 80.0,271.5 82.1,271.3 84.3,271.3 90.7,271.3 103.7,271.2 131.6,271.2 133.8,270.8 135.9,270.8 142.4,270.7 144.5,270.6 146.7,270.6 148.9,270.5 153.2,270.4 155.3,270.2 161.8,270.1 170.4,270.0 172.5,269.9 174.7,269.8 191.9,269.7 196.2,269.7 207.0,269.6 209.1,269.6 211.3,269.5 219.9,269.5 222.0,269.2 224.2,269.0 226.3,268.5 228.5,268.4 243.5,268.4 250.0,268.3 254.3,268.3 256.5,268.2 258.6,268.0 260.8,268.0 262.9,267.9 265.1,267.8 267.2,267.7 275.8,267.5 280.1,267.5 288.7,267.4 290.9,267.2 293.0,267.2 295.2,267.1 299.5,267.0 301.7,266.2 303.8,265.4 306.0,265.1 308.1,264.9 310.3,264.8 312.4,264.6 314.6,264.3 316.7,264.1 318.9,264.0 321.0,263.9 325.3,263.8 327.5,263.4 329.6,263.1 331.8,262.8 333.9,262.6 338.2,262.5 342.6,262.5 344.7,262.2 346.9,262.0 349.0,261.4 351.2,261.0 353.3,260.7 355.5,260.4 357.6,260.0 359.8,259.6 361.9,259.2 364.1,258.8 366.2,258.4 368.4,258.0 370.5,257.7 372.7,257.4 374.8,257.1 377.0,257.0 379.1,256.7 381.3,256.5 383.4,256.5 385.6,256.4 389.9,256.3 392.1,255.5 394.2,254.9 396.4,254.8 398.5,254.8 402.8,254.7 405.0,254.6 413.6,254.5 417.9,254.4 424.3,254.4 426.5,253.4 428.6,252.5 430.8,252.3 432.9,251.5 435.1,251.0 437.2,250.6 439.4,250.4 441.6,250.0 443.7,249.8 445.9,249.8 448.0,249.6 450.2,249.5 463.1,248.9 465.2,248.0 467.4,247.9 469.5,247.8 471.7,247.7 486.8,247.7 506.1,246.8 508.3,246.2 510.4,245.4 512.6,244.2 514.7,244.0 516.9,243.6 519.0,243.0 521.2,242.5 523.3,241.4 525.5,239.7 527.6,238.1 529.8,236.2 531.9,234.2 534.1,232.5 536.3,231.4 538.4,230.1 540.6,228.2 542.7,226.6 544.9,225.5 547.0,224.4 549.2,222.9 551.3,221.9 553.5,220.9 555.6,220.0 557.8,219.3 559.9,218.5 562.1,217.9 564.2,217.4 566.4,216.9 568.5,215.4 570.7,214.2 572.8,213.5 575.0,213.3 577.1,212.9 579.3,212.3 581.4,211.8 583.6,210.8 585.8,210.2 587.9,209.6 590.1,209.5 592.2,209.3 594.4,208.8 596.5,207.6 598.7,205.7 600.8,203.6 603.0,201.6 605.1,200.0 607.3,198.0 609.4,195.9 611.6,193.8 613.7,191.9 615.9,190.5 618.0,189.4 620.2,188.1 622.3,186.8 624.5,186.0 626.6,185.0 628.8,184.3 631.0,183.2 633.1,181.8 635.3,180.0 637.4,178.6 639.6,177.3 641.7,176.5 643.9,175.7 646.0,175.0 648.2,174.2 650.3,172.8 652.5,171.6 654.6,170.1 656.8,168.6 658.9,167.4 661.1,166.4 663.2,166.0 665.4,165.4 667.5,164.8 669.7,164.7 671.8,164.7 674.0,164.4 676.1,164.2 678.3,164.2 680.5,164.0 682.6,163.9 689.1,163.9 691.2,163.8 693.4,163.6 695.5,161.9 697.7,160.4 699.8,159.2 702.0,157.7 704.1,156.4 706.3,155.1 708.4,153.8 710.6,152.5 712.7,151.2 714.9,149.9 717.0,148.7 719.2,147.4 721.3,146.2 723.5,145.0 725.6,143.8 727.8,142.7 730.0,141.6 732.1,140.4 734.3,139.3 736.4,138.2 738.6,137.1 740.7,136.3 742.9,135.6 745.0,134.8 747.2,133.8 749.3,132.8 751.5,131.9 753.6,130.8 755.8,129.8 757.9,129.0 760.1,128.0 762.2,127.0 764.4,126.0 766.5,125.1 768.7,124.1 770.8,123.2 773.0,122.2 775.1,121.5 777.3,120.7 779.5,119.7 781.6,118.9 783.8,118.1 785.9,117.4 788.1,116.8 790.2,116.4 792.4,116.3 794.5,115.4 796.7,114.6 798.8,113.8 801.0,112.9 803.1,112.2 805.3,111.4 807.4,110.6 809.6,109.8 811.7,109.1 813.9,108.4 816.0,107.7 818.2,107.0 820.3,106.2 822.5,105.5 824.7,104.8 826.8,104.0 829.0,103.3 831.1,102.7 833.3,101.9 835.4,101.3 837.6,100.7 839.7,99.8 841.9,99.0 844.0,98.3 846.2,97.6 848.3,96.8 850.5,96.2 852.6,95.6 854.8,94.8 856.9,94.2 859.1,93.8 861.2,93.1 863.4,92.4 865.5,91.7 867.7,90.8 869.8,90.1 872.0,90.0 872.0,272.0" fill="#e0f2fe" opacity="0.55"/>
<polyline points="52.0,272.0 54.2,271.9 80.0,271.5 82.1,271.3 84.3,271.3 90.7,271.3 103.7,271.2 131.6,271.2 133.8,270.8 135.9,270.8 142.4,270.7 144.5,270.6 146.7,270.6 148.9,270.5 153.2,270.4 155.3,270.2 161.8,270.1 170.4,270.0 172.5,269.9 174.7,269.8 191.9,269.7 196.2,269.7 207.0,269.6 209.1,269.6 211.3,269.5 219.9,269.5 222.0,269.2 224.2,269.0 226.3,268.5 228.5,268.4 243.5,268.4 250.0,268.3 254.3,268.3 256.5,268.2 258.6,268.0 260.8,268.0 262.9,267.9 265.1,267.8 267.2,267.7 275.8,267.5 280.1,267.5 288.7,267.4 290.9,267.2 293.0,267.2 295.2,267.1 299.5,267.0 301.7,266.2 303.8,265.4 306.0,265.1 308.1,264.9 310.3,264.8 312.4,264.6 314.6,264.3 316.7,264.1 318.9,264.0 321.0,263.9 325.3,263.8 327.5,263.4 329.6,263.1 331.8,262.8 333.9,262.6 338.2,262.5 342.6,262.5 344.7,262.2 346.9,262.0 349.0,261.4 351.2,261.0 353.3,260.7 355.5,260.4 357.6,260.0 359.8,259.6 361.9,259.2 364.1,258.8 366.2,258.4 368.4,258.0 370.5,257.7 372.7,257.4 374.8,257.1 377.0,257.0 379.1,256.7 381.3,256.5 383.4,256.5 385.6,256.4 389.9,256.3 392.1,255.5 394.2,254.9 396.4,254.8 398.5,254.8 402.8,254.7 405.0,254.6 413.6,254.5 417.9,254.4 424.3,254.4 426.5,253.4 428.6,252.5 430.8,252.3 432.9,251.5 435.1,251.0 437.2,250.6 439.4,250.4 441.6,250.0 443.7,249.8 445.9,249.8 448.0,249.6 450.2,249.5 463.1,248.9 465.2,248.0 467.4,247.9 469.5,247.8 471.7,247.7 486.8,247.7 506.1,246.8 508.3,246.2 510.4,245.4 512.6,244.2 514.7,244.0 516.9,243.6 519.0,243.0 521.2,242.5 523.3,241.4 525.5,239.7 527.6,238.1 529.8,236.2 531.9,234.2 534.1,232.5 536.3,231.4 538.4,230.1 540.6,228.2 542.7,226.6 544.9,225.5 547.0,224.4 549.2,222.9 551.3,221.9 553.5,220.9 555.6,220.0 557.8,219.3 559.9,218.5 562.1,217.9 564.2,217.4 566.4,216.9 568.5,215.4 570.7,214.2 572.8,213.5 575.0,213.3 577.1,212.9 579.3,212.3 581.4,211.8 583.6,210.8 585.8,210.2 587.9,209.6 590.1,209.5 592.2,209.3 594.4,208.8 596.5,207.6 598.7,205.7 600.8,203.6 603.0,201.6 605.1,200.0 607.3,198.0 609.4,195.9 611.6,193.8 613.7,191.9 615.9,190.5 618.0,189.4 620.2,188.1 622.3,186.8 624.5,186.0 626.6,185.0 628.8,184.3 631.0,183.2 633.1,181.8 635.3,180.0 637.4,178.6 639.6,177.3 641.7,176.5 643.9,175.7 646.0,175.0 648.2,174.2 650.3,172.8 652.5,171.6 654.6,170.1 656.8,168.6 658.9,167.4 661.1,166.4 663.2,166.0 665.4,165.4 667.5,164.8 669.7,164.7 671.8,164.7 674.0,164.4 676.1,164.2 678.3,164.2 680.5,164.0 682.6,163.9 689.1,163.9 691.2,163.8 693.4,163.6 695.5,161.9 697.7,160.4 699.8,159.2 702.0,157.7 704.1,156.4 706.3,155.1 708.4,153.8 710.6,152.5 712.7,151.2 714.9,149.9 717.0,148.7 719.2,147.4 721.3,146.2 723.5,145.0 725.6,143.8 727.8,142.7 730.0,141.6 732.1,140.4 734.3,139.3 736.4,138.2 738.6,137.1 740.7,136.3 742.9,135.6 745.0,134.8 747.2,133.8 749.3,132.8 751.5,131.9 753.6,130.8 755.8,129.8 757.9,129.0 760.1,128.0 762.2,127.0 764.4,126.0 766.5,125.1 768.7,124.1 770.8,123.2 773.0,122.2 775.1,121.5 777.3,120.7 779.5,119.7 781.6,118.9 783.8,118.1 785.9,117.4 788.1,116.8 790.2,116.4 792.4,116.3 794.5,115.4 796.7,114.6 798.8,113.8 801.0,112.9 803.1,112.2 805.3,111.4 807.4,110.6 809.6,109.8 811.7,109.1 813.9,108.4 816.0,107.7 818.2,107.0 820.3,106.2 822.5,105.5 824.7,104.8 826.8,104.0 829.0,103.3 831.1,102.7 833.3,101.9 835.4,101.3 837.6,100.7 839.7,99.8 841.9,99.0 844.0,98.3 846.2,97.6 848.3,96.8 850.5,96.2 852.6,95.6 854.8,94.8 856.9,94.2 859.1,93.8 861.2,93.1 863.4,92.4 865.5,91.7 867.7,90.8 869.8,90.1 872.0,90.0" fill="none" stroke="#38bdf8" stroke-width="2.5" stroke-linejoin="round" stroke-linecap="round"/>
<circle cx="872.0" cy="90.0" r="4" fill="#0ea5e9"/>
<text x="866.0" y="80.0" text-anchor="end" font-family="Inter, system-ui, sans-serif" font-size="13" font-weight="700" fill="#334155">4403</text>
<text x="52.0" y="294" text-anchor="middle" font-family="Inter, system-ui, sans-serif" font-size="11" fill="#94a3b8">Jun 10 05:00</text>
<text x="568.5" y="294" text-anchor="middle" font-family="Inter, system-ui, sans-serif" font-size="11" fill="#94a3b8">Jun 20 05:00</text>
<text x="872.0" y="294" text-anchor="middle" font-family="Inter, system-ui, sans-serif" font-size="11" fill="#94a3b8">Jun 26 02:00</text>
</svg>
