<svg xmlns="http://www.w3.org/2000/svg" width="900" height="320" viewBox="0 0 900 320" role="img" aria-labelledby="title desc">
<title id="title">unsorry proofs over time</title>
<desc id="desc">Cumulative kernel-verified proofs over time, by the hour each proof was merged.</desc>
<rect width="900" height="100%" rx="18" fill="#ffffff"/>
<rect x="0.5" y="0.5" width="899" height="319" rx="18" fill="none" stroke="#e2e8f0"/>
<text x="32" y="44" font-family="Inter, system-ui, sans-serif" font-size="28" font-weight="700" fill="#334155">unsorry — Proofs Over Time</text>
<text x="32" y="72" font-family="Inter, system-ui, sans-serif" font-size="13" fill="#64748b">3604 cumulative kernel-verified proofs · merged, hourly</text>
<line x1="52" y1="272.0" x2="872" y2="272.0" stroke="#f1f5f9"/>
<text x="44" y="276.0" text-anchor="end" font-family="Inter, system-ui, sans-serif" font-size="11" fill="#94a3b8">0</text>
<line x1="52" y1="226.5" x2="872" y2="226.5" stroke="#f1f5f9"/>
<text x="44" y="230.5" text-anchor="end" font-family="Inter, system-ui, sans-serif" font-size="11" fill="#94a3b8">901</text>
<line x1="52" y1="181.0" x2="872" y2="181.0" stroke="#f1f5f9"/>
<text x="44" y="185.0" text-anchor="end" font-family="Inter, system-ui, sans-serif" font-size="11" fill="#94a3b8">1802</text>
<line x1="52" y1="135.5" x2="872" y2="135.5" stroke="#f1f5f9"/>
<text x="44" y="139.5" text-anchor="end" font-family="Inter, system-ui, sans-serif" font-size="11" fill="#94a3b8">2703</text>
<line x1="52" y1="90.0" x2="872" y2="90.0" stroke="#f1f5f9"/>
<text x="44" y="94.0" text-anchor="end" font-family="Inter, system-ui, sans-serif" font-size="11" fill="#94a3b8">3604</text>
<polygon points="52.0,272.0 52.0,271.9 54.4,271.8 83.8,271.3 86.3,271.2 88.7,271.1 96.1,271.1 110.7,271.0 142.6,271.0 145.0,270.5 147.5,270.5 154.8,270.4 157.3,270.3 159.7,270.3 162.1,270.1 167.0,270.1 169.5,269.8 176.8,269.6 186.6,269.5 189.1,269.4 191.5,269.3 211.1,269.2 216.0,269.2 228.2,269.1 230.7,269.1 233.1,269.0 242.9,268.9 245.4,268.6 247.8,268.4 250.3,267.7 252.7,267.6 269.9,267.6 277.2,267.5 282.1,267.5 284.5,267.4 287.0,267.2 289.4,267.1 291.9,267.1 294.3,266.9 296.8,266.7 306.6,266.5 311.5,266.4 321.3,266.4 323.7,266.1 326.1,266.1 328.6,266.0 333.5,265.9 335.9,264.9 338.4,263.9 340.8,263.6 343.3,263.3 345.7,263.2 348.2,263.0 350.6,262.6 353.1,262.4 355.5,262.2 358.0,262.1 362.9,262.0 365.3,261.5 367.8,261.1 370.2,260.7 372.7,260.5 377.6,260.4 382.4,260.3 384.9,260.0 387.3,259.7 389.8,259.0 392.2,258.6 394.7,258.2 397.1,257.8 399.6,257.4 402.0,256.9 404.5,256.4 406.9,255.8 409.4,255.3 411.8,254.9 414.3,254.6 416.7,254.2 419.2,253.8 421.6,253.6 424.1,253.4 426.5,253.1 429.0,253.0 431.4,252.9 436.3,252.9 438.7,251.9 441.2,251.1 443.6,251.0 446.1,250.9 451.0,250.8 453.4,250.7 463.2,250.6 468.1,250.5 475.5,250.5 477.9,249.3 480.4,248.2 482.8,247.9 485.3,247.0 487.7,246.3 490.1,245.8 492.6,245.6 495.0,245.1 497.5,244.9 499.9,244.8 502.4,244.6 504.8,244.5 519.5,243.7 522.0,242.7 524.4,242.6 526.9,242.4 529.3,242.4 546.4,242.3 568.5,241.2 570.9,240.4 573.4,239.5 575.8,238.1 578.3,237.8 580.7,237.4 583.2,236.5 585.6,235.9 588.1,234.6 590.5,232.6 593.0,230.6 595.4,228.3 597.9,225.8 600.3,223.7 602.7,222.4 605.2,220.8 607.6,218.5 610.1,216.6 612.5,215.2 615.0,213.9 617.4,212.0 619.9,210.7 622.3,209.5 624.8,208.5 627.2,207.7 629.7,206.6 632.1,205.9 634.6,205.2 637.0,204.6 639.5,202.8 641.9,201.4 644.4,200.5 646.8,200.3 649.3,199.8 651.7,199.1 654.1,198.4 656.6,197.2 659.0,196.5 661.5,195.7 663.9,195.6 666.4,195.3 668.8,194.8 671.3,193.3 673.7,190.9 676.2,188.5 678.6,186.0 681.1,184.0 683.5,181.6 686.0,179.1 688.4,176.5 690.9,174.1 693.3,172.4 695.8,171.1 698.2,169.5 700.7,168.0 703.1,167.0 705.6,165.7 708.0,164.8 710.4,163.5 712.9,161.8 715.3,159.6 717.8,157.9 720.2,156.3 722.7,155.3 725.1,154.4 727.6,153.5 730.0,152.5 732.5,150.8 734.9,149.3 737.4,147.5 739.8,145.7 742.3,144.2 744.7,143.0 747.2,142.5 749.6,141.8 752.1,141.1 754.5,141.0 757.0,140.9 759.4,140.5 761.9,140.3 764.3,140.3 766.7,140.0 769.2,139.9 776.5,139.9 779.0,139.8 781.4,139.5 783.9,137.5 786.3,135.7 788.8,134.1 791.2,132.4 793.7,130.8 796.1,129.2 798.6,127.6 801.0,126.1 803.5,124.4 805.9,122.9 808.4,121.3 810.8,119.8 813.3,118.3 815.7,116.8 818.1,115.4 820.6,114.1 823.0,112.7 825.5,111.3 827.9,109.8 830.4,108.5 832.8,107.2 835.3,106.3 837.7,105.4 840.2,104.4 842.6,103.1 845.1,102.0 847.5,100.9 850.0,99.5 852.4,98.3 854.9,97.3 857.3,96.1 859.8,94.8 862.2,93.7 864.7,92.6 867.1,91.3 869.6,90.3 872.0,90.0 872.0,272.0" fill="#e0f2fe" opacity="0.55"/>
<polyline points="52.0,271.9 54.4,271.8 83.8,271.3 86.3,271.2 88.7,271.1 96.1,271.1 110.7,271.0 142.6,271.0 145.0,270.5 147.5,270.5 154.8,270.4 157.3,270.3 159.7,270.3 162.1,270.1 167.0,270.1 169.5,269.8 176.8,269.6 186.6,269.5 189.1,269.4 191.5,269.3 211.1,269.2 216.0,269.2 228.2,269.1 230.7,269.1 233.1,269.0 242.9,268.9 245.4,268.6 247.8,268.4 250.3,267.7 252.7,267.6 269.9,267.6 277.2,267.5 282.1,267.5 284.5,267.4 287.0,267.2 289.4,267.1 291.9,267.1 294.3,266.9 296.8,266.7 306.6,266.5 311.5,266.4 321.3,266.4 323.7,266.1 326.1,266.1 328.6,266.0 333.5,265.9 335.9,264.9 338.4,263.9 340.8,263.6 343.3,263.3 345.7,263.2 348.2,263.0 350.6,262.6 353.1,262.4 355.5,262.2 358.0,262.1 362.9,262.0 365.3,261.5 367.8,261.1 370.2,260.7 372.7,260.5 377.6,260.4 382.4,260.3 384.9,260.0 387.3,259.7 389.8,259.0 392.2,258.6 394.7,258.2 397.1,257.8 399.6,257.4 402.0,256.9 404.5,256.4 406.9,255.8 409.4,255.3 411.8,254.9 414.3,254.6 416.7,254.2 419.2,253.8 421.6,253.6 424.1,253.4 426.5,253.1 429.0,253.0 431.4,252.9 436.3,252.9 438.7,251.9 441.2,251.1 443.6,251.0 446.1,250.9 451.0,250.8 453.4,250.7 463.2,250.6 468.1,250.5 475.5,250.5 477.9,249.3 480.4,248.2 482.8,247.9 485.3,247.0 487.7,246.3 490.1,245.8 492.6,245.6 495.0,245.1 497.5,244.9 499.9,244.8 502.4,244.6 504.8,244.5 519.5,243.7 522.0,242.7 524.4,242.6 526.9,242.4 529.3,242.4 546.4,242.3 568.5,241.2 570.9,240.4 573.4,239.5 575.8,238.1 578.3,237.8 580.7,237.4 583.2,236.5 585.6,235.9 588.1,234.6 590.5,232.6 593.0,230.6 595.4,228.3 597.9,225.8 600.3,223.7 602.7,222.4 605.2,220.8 607.6,218.5 610.1,216.6 612.5,215.2 615.0,213.9 617.4,212.0 619.9,210.7 622.3,209.5 624.8,208.5 627.2,207.7 629.7,206.6 632.1,205.9 634.6,205.2 637.0,204.6 639.5,202.8 641.9,201.4 644.4,200.5 646.8,200.3 649.3,199.8 651.7,199.1 654.1,198.4 656.6,197.2 659.0,196.5 661.5,195.7 663.9,195.6 666.4,195.3 668.8,194.8 671.3,193.3 673.7,190.9 676.2,188.5 678.6,186.0 681.1,184.0 683.5,181.6 686.0,179.1 688.4,176.5 690.9,174.1 693.3,172.4 695.8,171.1 698.2,169.5 700.7,168.0 703.1,167.0 705.6,165.7 708.0,164.8 710.4,163.5 712.9,161.8 715.3,159.6 717.8,157.9 720.2,156.3 722.7,155.3 725.1,154.4 727.6,153.5 730.0,152.5 732.5,150.8 734.9,149.3 737.4,147.5 739.8,145.7 742.3,144.2 744.7,143.0 747.2,142.5 749.6,141.8 752.1,141.1 754.5,141.0 757.0,140.9 759.4,140.5 761.9,140.3 764.3,140.3 766.7,140.0 769.2,139.9 776.5,139.9 779.0,139.8 781.4,139.5 783.9,137.5 786.3,135.7 788.8,134.1 791.2,132.4 793.7,130.8 796.1,129.2 798.6,127.6 801.0,126.1 803.5,124.4 805.9,122.9 808.4,121.3 810.8,119.8 813.3,118.3 815.7,116.8 818.1,115.4 820.6,114.1 823.0,112.7 825.5,111.3 827.9,109.8 830.4,108.5 832.8,107.2 835.3,106.3 837.7,105.4 840.2,104.4 842.6,103.1 845.1,102.0 847.5,100.9 850.0,99.5 852.4,98.3 854.9,97.3 857.3,96.1 859.8,94.8 862.2,93.7 864.7,92.6 867.1,91.3 869.6,90.3 872.0,90.0" fill="none" stroke="#38bdf8" stroke-width="2.5" stroke-linejoin="round" stroke-linecap="round"/>
<circle cx="872.0" cy="90.0" r="4" fill="#0ea5e9"/>
<text x="866.0" y="80.0" text-anchor="end" font-family="Inter, system-ui, sans-serif" font-size="13" font-weight="700" fill="#334155">3604</text>
<text x="52.0" y="294" text-anchor="middle" font-family="Inter, system-ui, sans-serif" font-size="11" fill="#94a3b8">Jun 10 05:00</text>
<text x="583.2" y="294" text-anchor="middle" font-family="Inter, system-ui, sans-serif" font-size="11" fill="#94a3b8">Jun 19 06:00</text>
<text x="872.0" y="294" text-anchor="middle" font-family="Inter, system-ui, sans-serif" font-size="11" fill="#94a3b8">Jun 24 04:00</text>
</svg>
