<svg xmlns="http://www.w3.org/2000/svg" width="900" height="320" viewBox="0 0 900 320" role="img" aria-labelledby="title desc">
<title id="title">unsorry proofs over time</title>
<desc id="desc">Cumulative kernel-verified proofs over time, by the hour each proof was merged.</desc>
<rect width="900" height="100%" rx="18" fill="#ffffff"/>
<rect x="0.5" y="0.5" width="899" height="319" rx="18" fill="none" stroke="#e2e8f0"/>
<text x="32" y="44" font-family="Inter, system-ui, sans-serif" font-size="28" font-weight="700" fill="#334155">unsorry — Proofs Over Time</text>
<text x="32" y="72" font-family="Inter, system-ui, sans-serif" font-size="13" fill="#64748b">4127 cumulative kernel-verified proofs · merged, hourly</text>
<line x1="52" y1="272.0" x2="872" y2="272.0" stroke="#f1f5f9"/>
<text x="44" y="276.0" text-anchor="end" font-family="Inter, system-ui, sans-serif" font-size="11" fill="#94a3b8">0</text>
<line x1="52" y1="226.5" x2="872" y2="226.5" stroke="#f1f5f9"/>
<text x="44" y="230.5" text-anchor="end" font-family="Inter, system-ui, sans-serif" font-size="11" fill="#94a3b8">1032</text>
<line x1="52" y1="181.0" x2="872" y2="181.0" stroke="#f1f5f9"/>
<text x="44" y="185.0" text-anchor="end" font-family="Inter, system-ui, sans-serif" font-size="11" fill="#94a3b8">2064</text>
<line x1="52" y1="135.5" x2="872" y2="135.5" stroke="#f1f5f9"/>
<text x="44" y="139.5" text-anchor="end" font-family="Inter, system-ui, sans-serif" font-size="11" fill="#94a3b8">3095</text>
<line x1="52" y1="90.0" x2="872" y2="90.0" stroke="#f1f5f9"/>
<text x="44" y="94.0" text-anchor="end" font-family="Inter, system-ui, sans-serif" font-size="11" fill="#94a3b8">4127</text>
<polygon points="52.0,272.0 52.0,272.0 54.3,271.9 81.3,271.4 83.5,271.3 85.8,271.3 92.5,271.2 106.1,271.2 135.4,271.1 137.6,270.7 139.9,270.7 146.6,270.6 148.9,270.5 151.1,270.5 153.4,270.4 157.9,270.3 160.1,270.1 166.9,269.9 175.9,269.8 178.2,269.7 180.4,269.6 198.4,269.6 202.9,269.5 214.2,269.5 216.5,269.4 218.7,269.4 227.7,269.3 230.0,269.0 232.2,268.8 234.5,268.3 236.7,268.2 252.5,268.1 259.3,268.1 263.8,268.0 266.0,268.0 268.3,267.8 270.5,267.7 272.8,267.7 275.0,267.5 277.3,267.4 286.3,267.2 290.8,267.1 299.8,267.1 302.1,266.9 304.3,266.8 306.6,266.8 311.1,266.7 313.3,265.8 315.6,264.9 317.8,264.6 320.1,264.4 322.3,264.3 324.6,264.1 326.8,263.8 329.1,263.6 331.3,263.4 333.6,263.4 338.1,263.2 340.4,262.9 342.6,262.5 344.9,262.2 347.1,261.9 351.6,261.9 356.1,261.8 358.4,261.5 360.6,261.3 362.9,260.7 365.1,260.3 367.4,260.0 369.6,259.6 371.9,259.2 374.1,258.8 376.4,258.4 378.6,257.9 380.9,257.4 383.2,257.1 385.4,256.8 387.7,256.5 389.9,256.1 392.2,255.9 394.4,255.7 396.7,255.5 398.9,255.4 401.2,255.3 405.7,255.3 407.9,254.4 410.2,253.8 412.4,253.7 414.7,253.6 419.2,253.5 421.5,253.4 430.5,253.3 435.0,253.3 441.7,253.2 444.0,252.2 446.2,251.2 448.5,251.0 450.7,250.2 453.0,249.6 455.2,249.2 457.5,248.9 459.7,248.5 462.0,248.4 464.3,248.3 466.5,248.1 468.8,248.0 482.3,247.3 484.5,246.4 486.8,246.3 489.0,246.2 491.3,246.1 507.1,246.1 527.3,245.1 529.6,244.4 531.8,243.6 534.1,242.4 536.3,242.1 538.6,241.7 540.8,241.0 543.1,240.5 545.4,239.3 547.6,237.6 549.9,235.8 552.1,233.8 554.4,231.7 556.6,229.8 558.9,228.7 561.1,227.3 563.4,225.3 565.6,223.6 567.9,222.4 570.1,221.2 572.4,219.6 574.6,218.5 576.9,217.4 579.1,216.5 581.4,215.8 583.6,214.9 585.9,214.3 588.2,213.7 590.4,213.2 592.7,211.6 594.9,210.3 597.2,209.6 599.4,209.4 601.7,209.0 603.9,208.3 606.2,207.7 608.4,206.7 610.7,206.0 612.9,205.4 615.2,205.3 617.4,205.1 619.7,204.6 621.9,203.3 624.2,201.2 626.5,199.1 628.7,196.9 631.0,195.1 633.2,193.1 635.5,190.9 637.7,188.6 640.0,186.5 642.2,185.0 644.5,183.8 646.7,182.5 649.0,181.2 651.2,180.3 653.5,179.2 655.7,178.4 658.0,177.3 660.2,175.7 662.5,173.9 664.7,172.3 667.0,171.0 669.3,170.1 671.5,169.3 673.8,168.5 676.0,167.6 678.3,166.1 680.5,164.8 682.8,163.3 685.0,161.7 687.3,160.4 689.5,159.3 691.8,158.9 694.0,158.3 696.3,157.6 698.5,157.6 700.8,157.5 703.0,157.2 705.3,157.0 707.5,157.0 709.8,156.8 712.1,156.7 718.8,156.6 721.1,156.6 723.3,156.3 725.6,154.5 727.8,153.0 730.1,151.6 732.3,150.1 734.6,148.7 736.8,147.3 739.1,145.9 741.3,144.6 743.6,143.1 745.8,141.8 748.1,140.4 750.4,139.1 752.6,137.8 754.9,136.5 757.1,135.2 759.4,134.1 761.6,132.9 763.9,131.6 766.1,130.4 768.4,129.2 770.6,128.1 772.9,127.3 775.1,126.5 777.4,125.7 779.6,124.5 781.9,123.5 784.1,122.5 786.4,121.4 788.6,120.3 790.9,119.4 793.2,118.4 795.4,117.3 797.7,116.3 799.9,115.3 802.2,114.2 804.4,113.3 806.7,112.2 808.9,111.4 811.2,110.6 813.4,109.5 815.7,108.6 817.9,107.8 820.2,107.1 822.4,106.4 824.7,106.0 826.9,105.9 829.2,104.9 831.5,104.1 833.7,103.2 836.0,102.3 838.2,101.6 840.5,100.7 842.7,99.8 845.0,99.0 847.2,98.2 849.5,97.5 851.7,96.7 854.0,96.0 856.2,95.1 858.5,94.4 860.7,93.6 863.0,92.8 865.2,92.0 867.5,91.4 869.7,90.5 872.0,90.0 872.0,272.0" fill="#e0f2fe" opacity="0.55"/>
<polyline points="52.0,272.0 54.3,271.9 81.3,271.4 83.5,271.3 85.8,271.3 92.5,271.2 106.1,271.2 135.4,271.1 137.6,270.7 139.9,270.7 146.6,270.6 148.9,270.5 151.1,270.5 153.4,270.4 157.9,270.3 160.1,270.1 166.9,269.9 175.9,269.8 178.2,269.7 180.4,269.6 198.4,269.6 202.9,269.5 214.2,269.5 216.5,269.4 218.7,269.4 227.7,269.3 230.0,269.0 232.2,268.8 234.5,268.3 236.7,268.2 252.5,268.1 259.3,268.1 263.8,268.0 266.0,268.0 268.3,267.8 270.5,267.7 272.8,267.7 275.0,267.5 277.3,267.4 286.3,267.2 290.8,267.1 299.8,267.1 302.1,266.9 304.3,266.8 306.6,266.8 311.1,266.7 313.3,265.8 315.6,264.9 317.8,264.6 320.1,264.4 322.3,264.3 324.6,264.1 326.8,263.8 329.1,263.6 331.3,263.4 333.6,263.4 338.1,263.2 340.4,262.9 342.6,262.5 344.9,262.2 347.1,261.9 351.6,261.9 356.1,261.8 358.4,261.5 360.6,261.3 362.9,260.7 365.1,260.3 367.4,260.0 369.6,259.6 371.9,259.2 374.1,258.8 376.4,258.4 378.6,257.9 380.9,257.4 383.2,257.1 385.4,256.8 387.7,256.5 389.9,256.1 392.2,255.9 394.4,255.7 396.7,255.5 398.9,255.4 401.2,255.3 405.7,255.3 407.9,254.4 410.2,253.8 412.4,253.7 414.7,253.6 419.2,253.5 421.5,253.4 430.5,253.3 435.0,253.3 441.7,253.2 444.0,252.2 446.2,251.2 448.5,251.0 450.7,250.2 453.0,249.6 455.2,249.2 457.5,248.9 459.7,248.5 462.0,248.4 464.3,248.3 466.5,248.1 468.8,248.0 482.3,247.3 484.5,246.4 486.8,246.3 489.0,246.2 491.3,246.1 507.1,246.1 527.3,245.1 529.6,244.4 531.8,243.6 534.1,242.4 536.3,242.1 538.6,241.7 540.8,241.0 543.1,240.5 545.4,239.3 547.6,237.6 549.9,235.8 552.1,233.8 554.4,231.7 556.6,229.8 558.9,228.7 561.1,227.3 563.4,225.3 565.6,223.6 567.9,222.4 570.1,221.2 572.4,219.6 574.6,218.5 576.9,217.4 579.1,216.5 581.4,215.8 583.6,214.9 585.9,214.3 588.2,213.7 590.4,213.2 592.7,211.6 594.9,210.3 597.2,209.6 599.4,209.4 601.7,209.0 603.9,208.3 606.2,207.7 608.4,206.7 610.7,206.0 612.9,205.4 615.2,205.3 617.4,205.1 619.7,204.6 621.9,203.3 624.2,201.2 626.5,199.1 628.7,196.9 631.0,195.1 633.2,193.1 635.5,190.9 637.7,188.6 640.0,186.5 642.2,185.0 644.5,183.8 646.7,182.5 649.0,181.2 651.2,180.3 653.5,179.2 655.7,178.4 658.0,177.3 660.2,175.7 662.5,173.9 664.7,172.3 667.0,171.0 669.3,170.1 671.5,169.3 673.8,168.5 676.0,167.6 678.3,166.1 680.5,164.8 682.8,163.3 685.0,161.7 687.3,160.4 689.5,159.3 691.8,158.9 694.0,158.3 696.3,157.6 698.5,157.6 700.8,157.5 703.0,157.2 705.3,157.0 707.5,157.0 709.8,156.8 712.1,156.7 718.8,156.6 721.1,156.6 723.3,156.3 725.6,154.5 727.8,153.0 730.1,151.6 732.3,150.1 734.6,148.7 736.8,147.3 739.1,145.9 741.3,144.6 743.6,143.1 745.8,141.8 748.1,140.4 750.4,139.1 752.6,137.8 754.9,136.5 757.1,135.2 759.4,134.1 761.6,132.9 763.9,131.6 766.1,130.4 768.4,129.2 770.6,128.1 772.9,127.3 775.1,126.5 777.4,125.7 779.6,124.5 781.9,123.5 784.1,122.5 786.4,121.4 788.6,120.3 790.9,119.4 793.2,118.4 795.4,117.3 797.7,116.3 799.9,115.3 802.2,114.2 804.4,113.3 806.7,112.2 808.9,111.4 811.2,110.6 813.4,109.5 815.7,108.6 817.9,107.8 820.2,107.1 822.4,106.4 824.7,106.0 826.9,105.9 829.2,104.9 831.5,104.1 833.7,103.2 836.0,102.3 838.2,101.6 840.5,100.7 842.7,99.8 845.0,99.0 847.2,98.2 849.5,97.5 851.7,96.7 854.0,96.0 856.2,95.1 858.5,94.4 860.7,93.6 863.0,92.8 865.2,92.0 867.5,91.4 869.7,90.5 872.0,90.0" fill="none" stroke="#38bdf8" stroke-width="2.5" stroke-linejoin="round" stroke-linecap="round"/>
<circle cx="872.0" cy="90.0" r="4" fill="#0ea5e9"/>
<text x="866.0" y="80.0" text-anchor="end" font-family="Inter, system-ui, sans-serif" font-size="13" font-weight="700" fill="#334155">4127</text>
<text x="52.0" y="294" text-anchor="middle" font-family="Inter, system-ui, sans-serif" font-size="11" fill="#94a3b8">Jun 10 05:00</text>
<text x="572.4" y="294" text-anchor="middle" font-family="Inter, system-ui, sans-serif" font-size="11" fill="#94a3b8">Jun 19 20:00</text>
<text x="872.0" y="294" text-anchor="middle" font-family="Inter, system-ui, sans-serif" font-size="11" fill="#94a3b8">Jun 25 09:00</text>
</svg>
