<svg xmlns="http://www.w3.org/2000/svg" width="900" height="320" viewBox="0 0 900 320" role="img" aria-labelledby="title desc">
<title id="title">unsorry proofs over time</title>
<desc id="desc">Cumulative kernel-verified proofs over time, by the hour each proof was merged.</desc>
<rect width="900" height="100%" rx="18" fill="#ffffff"/>
<rect x="0.5" y="0.5" width="899" height="319" rx="18" fill="none" stroke="#e2e8f0"/>
<text x="32" y="44" font-family="Inter, system-ui, sans-serif" font-size="28" font-weight="700" fill="#334155">unsorry — Proofs Over Time</text>
<text x="32" y="72" font-family="Inter, system-ui, sans-serif" font-size="13" fill="#64748b">3505 cumulative kernel-verified proofs · merged, hourly</text>
<line x1="52" y1="272.0" x2="872" y2="272.0" stroke="#f1f5f9"/>
<text x="44" y="276.0" text-anchor="end" font-family="Inter, system-ui, sans-serif" font-size="11" fill="#94a3b8">0</text>
<line x1="52" y1="226.5" x2="872" y2="226.5" stroke="#f1f5f9"/>
<text x="44" y="230.5" text-anchor="end" font-family="Inter, system-ui, sans-serif" font-size="11" fill="#94a3b8">876</text>
<line x1="52" y1="181.0" x2="872" y2="181.0" stroke="#f1f5f9"/>
<text x="44" y="185.0" text-anchor="end" font-family="Inter, system-ui, sans-serif" font-size="11" fill="#94a3b8">1752</text>
<line x1="52" y1="135.5" x2="872" y2="135.5" stroke="#f1f5f9"/>
<text x="44" y="139.5" text-anchor="end" font-family="Inter, system-ui, sans-serif" font-size="11" fill="#94a3b8">2629</text>
<line x1="52" y1="90.0" x2="872" y2="90.0" stroke="#f1f5f9"/>
<text x="44" y="94.0" text-anchor="end" font-family="Inter, system-ui, sans-serif" font-size="11" fill="#94a3b8">3505</text>
<polygon points="52.0,272.0 52.0,271.9 54.5,271.8 84.3,271.3 86.8,271.2 89.3,271.1 96.7,271.1 111.6,271.0 143.9,271.0 146.4,270.5 148.9,270.4 156.4,270.3 158.8,270.3 161.3,270.2 163.8,270.1 168.8,270.0 171.3,269.8 178.7,269.6 188.7,269.5 191.2,269.3 193.6,269.2 213.5,269.1 218.5,269.1 230.9,269.0 233.4,269.0 235.9,268.9 245.8,268.8 248.3,268.5 250.8,268.3 253.3,267.6 255.8,267.5 273.2,267.4 280.6,267.4 285.6,267.3 288.1,267.3 290.5,267.0 293.0,267.0 295.5,266.9 298.0,266.8 300.5,266.6 310.4,266.3 315.4,266.3 325.3,266.2 327.8,266.0 330.3,265.9 332.8,265.8 337.8,265.8 340.2,264.7 342.7,263.7 345.2,263.3 347.7,263.1 350.2,263.0 352.7,262.7 355.2,262.3 357.6,262.1 360.1,261.9 362.6,261.8 367.6,261.7 370.1,261.3 372.5,260.8 375.0,260.4 377.5,260.2 382.5,260.1 387.5,260.0 389.9,259.6 392.4,259.4 394.9,258.7 397.4,258.2 399.9,257.8 402.4,257.4 404.8,256.9 407.3,256.5 409.8,256.0 412.3,255.4 414.8,254.9 417.3,254.4 419.8,254.1 422.2,253.7 424.7,253.3 427.2,253.1 429.7,252.8 432.2,252.6 434.7,252.5 437.2,252.4 442.1,252.3 444.6,251.3 447.1,250.6 449.6,250.4 452.1,250.3 457.0,250.2 459.5,250.1 469.5,250.0 474.4,249.9 481.9,249.9 484.4,248.7 486.8,247.5 489.3,247.2 491.8,246.3 494.3,245.6 496.8,245.1 499.3,244.8 501.8,244.4 504.2,244.2 506.7,244.1 509.2,243.9 511.7,243.8 526.6,242.9 529.1,241.9 531.6,241.7 534.1,241.6 536.5,241.5 553.9,241.5 576.3,240.4 578.8,239.5 581.3,238.6 583.8,237.1 586.2,236.8 588.7,236.4 591.2,235.5 593.7,234.9 596.2,233.5 598.7,231.4 601.2,229.4 603.6,227.0 606.1,224.5 608.6,222.4 611.1,221.0 613.6,219.4 616.1,217.0 618.5,215.0 621.0,213.6 623.5,212.2 626.0,210.3 628.5,209.0 631.0,207.8 633.5,206.7 635.9,205.8 638.4,204.8 640.9,204.1 643.4,203.4 645.9,202.7 648.4,200.9 650.8,199.4 653.3,198.5 655.8,198.3 658.3,197.8 660.8,197.0 663.3,196.3 665.8,195.1 668.2,194.3 670.7,193.6 673.2,193.5 675.7,193.2 678.2,192.6 680.7,191.1 683.2,188.7 685.6,186.1 688.1,183.6 690.6,181.5 693.1,179.1 695.6,176.5 698.1,173.8 700.5,171.4 703.0,169.6 705.5,168.2 708.0,166.6 710.5,165.0 713.0,164.0 715.5,162.7 717.9,161.8 720.4,160.5 722.9,158.6 725.4,156.5 727.9,154.6 730.4,153.0 732.8,152.0 735.3,151.1 737.8,150.1 740.3,149.1 742.8,147.3 745.3,145.8 747.8,144.0 750.2,142.1 752.7,140.6 755.2,139.3 757.7,138.8 760.2,138.1 762.7,137.4 765.2,137.3 767.6,137.1 770.1,136.8 772.6,136.6 775.1,136.6 777.6,136.3 780.1,136.2 787.5,136.2 790.0,136.1 792.5,135.8 795.0,133.7 797.5,131.9 799.9,130.2 802.4,128.4 804.9,126.8 807.4,125.2 809.9,123.5 812.4,121.9 814.8,120.2 817.3,118.7 819.8,117.1 822.3,115.5 824.8,114.0 827.3,112.4 829.8,110.9 832.2,109.6 834.7,108.2 837.2,106.7 839.7,105.3 842.2,103.9 844.7,102.5 847.2,101.6 849.6,100.6 852.1,99.7 854.6,98.4 857.1,97.2 859.6,96.0 862.1,94.6 864.5,93.4 867.0,92.3 869.5,91.1 872.0,90.0 872.0,272.0" fill="#e0f2fe" opacity="0.55"/>
<polyline points="52.0,271.9 54.5,271.8 84.3,271.3 86.8,271.2 89.3,271.1 96.7,271.1 111.6,271.0 143.9,271.0 146.4,270.5 148.9,270.4 156.4,270.3 158.8,270.3 161.3,270.2 163.8,270.1 168.8,270.0 171.3,269.8 178.7,269.6 188.7,269.5 191.2,269.3 193.6,269.2 213.5,269.1 218.5,269.1 230.9,269.0 233.4,269.0 235.9,268.9 245.8,268.8 248.3,268.5 250.8,268.3 253.3,267.6 255.8,267.5 273.2,267.4 280.6,267.4 285.6,267.3 288.1,267.3 290.5,267.0 293.0,267.0 295.5,266.9 298.0,266.8 300.5,266.6 310.4,266.3 315.4,266.3 325.3,266.2 327.8,266.0 330.3,265.9 332.8,265.8 337.8,265.8 340.2,264.7 342.7,263.7 345.2,263.3 347.7,263.1 350.2,263.0 352.7,262.7 355.2,262.3 357.6,262.1 360.1,261.9 362.6,261.8 367.6,261.7 370.1,261.3 372.5,260.8 375.0,260.4 377.5,260.2 382.5,260.1 387.5,260.0 389.9,259.6 392.4,259.4 394.9,258.7 397.4,258.2 399.9,257.8 402.4,257.4 404.8,256.9 407.3,256.5 409.8,256.0 412.3,255.4 414.8,254.9 417.3,254.4 419.8,254.1 422.2,253.7 424.7,253.3 427.2,253.1 429.7,252.8 432.2,252.6 434.7,252.5 437.2,252.4 442.1,252.3 444.6,251.3 447.1,250.6 449.6,250.4 452.1,250.3 457.0,250.2 459.5,250.1 469.5,250.0 474.4,249.9 481.9,249.9 484.4,248.7 486.8,247.5 489.3,247.2 491.8,246.3 494.3,245.6 496.8,245.1 499.3,244.8 501.8,244.4 504.2,244.2 506.7,244.1 509.2,243.9 511.7,243.8 526.6,242.9 529.1,241.9 531.6,241.7 534.1,241.6 536.5,241.5 553.9,241.5 576.3,240.4 578.8,239.5 581.3,238.6 583.8,237.1 586.2,236.8 588.7,236.4 591.2,235.5 593.7,234.9 596.2,233.5 598.7,231.4 601.2,229.4 603.6,227.0 606.1,224.5 608.6,222.4 611.1,221.0 613.6,219.4 616.1,217.0 618.5,215.0 621.0,213.6 623.5,212.2 626.0,210.3 628.5,209.0 631.0,207.8 633.5,206.7 635.9,205.8 638.4,204.8 640.9,204.1 643.4,203.4 645.9,202.7 648.4,200.9 650.8,199.4 653.3,198.5 655.8,198.3 658.3,197.8 660.8,197.0 663.3,196.3 665.8,195.1 668.2,194.3 670.7,193.6 673.2,193.5 675.7,193.2 678.2,192.6 680.7,191.1 683.2,188.7 685.6,186.1 688.1,183.6 690.6,181.5 693.1,179.1 695.6,176.5 698.1,173.8 700.5,171.4 703.0,169.6 705.5,168.2 708.0,166.6 710.5,165.0 713.0,164.0 715.5,162.7 717.9,161.8 720.4,160.5 722.9,158.6 725.4,156.5 727.9,154.6 730.4,153.0 732.8,152.0 735.3,151.1 737.8,150.1 740.3,149.1 742.8,147.3 745.3,145.8 747.8,144.0 750.2,142.1 752.7,140.6 755.2,139.3 757.7,138.8 760.2,138.1 762.7,137.4 765.2,137.3 767.6,137.1 770.1,136.8 772.6,136.6 775.1,136.6 777.6,136.3 780.1,136.2 787.5,136.2 790.0,136.1 792.5,135.8 795.0,133.7 797.5,131.9 799.9,130.2 802.4,128.4 804.9,126.8 807.4,125.2 809.9,123.5 812.4,121.9 814.8,120.2 817.3,118.7 819.8,117.1 822.3,115.5 824.8,114.0 827.3,112.4 829.8,110.9 832.2,109.6 834.7,108.2 837.2,106.7 839.7,105.3 842.2,103.9 844.7,102.5 847.2,101.6 849.6,100.6 852.1,99.7 854.6,98.4 857.1,97.2 859.6,96.0 862.1,94.6 864.5,93.4 867.0,92.3 869.5,91.1 872.0,90.0" fill="none" stroke="#38bdf8" stroke-width="2.5" stroke-linejoin="round" stroke-linecap="round"/>
<circle cx="872.0" cy="90.0" r="4" fill="#0ea5e9"/>
<text x="866.0" y="80.0" text-anchor="end" font-family="Inter, system-ui, sans-serif" font-size="13" font-weight="700" fill="#334155">3505</text>
<text x="52.0" y="294" text-anchor="middle" font-family="Inter, system-ui, sans-serif" font-size="11" fill="#94a3b8">Jun 10 05:00</text>
<text x="583.8" y="294" text-anchor="middle" font-family="Inter, system-ui, sans-serif" font-size="11" fill="#94a3b8">Jun 19 03:00</text>
<text x="872.0" y="294" text-anchor="middle" font-family="Inter, system-ui, sans-serif" font-size="11" fill="#94a3b8">Jun 23 23:00</text>
</svg>
