<svg xmlns="http://www.w3.org/2000/svg" width="900" height="320" viewBox="0 0 900 320" role="img" aria-labelledby="title desc">
<title id="title">unsorry proofs over time</title>
<desc id="desc">Cumulative kernel-verified proofs over time, by the hour each proof was merged.</desc>
<rect width="900" height="100%" rx="18" fill="#ffffff"/>
<rect x="0.5" y="0.5" width="899" height="319" rx="18" fill="none" stroke="#e2e8f0"/>
<text x="32" y="44" font-family="Inter, system-ui, sans-serif" font-size="28" font-weight="700" fill="#334155">unsorry — Proofs Over Time</text>
<text x="32" y="72" font-family="Inter, system-ui, sans-serif" font-size="13" fill="#64748b">3742 cumulative kernel-verified proofs · merged, hourly</text>
<line x1="52" y1="272.0" x2="872" y2="272.0" stroke="#f1f5f9"/>
<text x="44" y="276.0" text-anchor="end" font-family="Inter, system-ui, sans-serif" font-size="11" fill="#94a3b8">0</text>
<line x1="52" y1="226.5" x2="872" y2="226.5" stroke="#f1f5f9"/>
<text x="44" y="230.5" text-anchor="end" font-family="Inter, system-ui, sans-serif" font-size="11" fill="#94a3b8">936</text>
<line x1="52" y1="181.0" x2="872" y2="181.0" stroke="#f1f5f9"/>
<text x="44" y="185.0" text-anchor="end" font-family="Inter, system-ui, sans-serif" font-size="11" fill="#94a3b8">1871</text>
<line x1="52" y1="135.5" x2="872" y2="135.5" stroke="#f1f5f9"/>
<text x="44" y="139.5" text-anchor="end" font-family="Inter, system-ui, sans-serif" font-size="11" fill="#94a3b8">2806</text>
<line x1="52" y1="90.0" x2="872" y2="90.0" stroke="#f1f5f9"/>
<text x="44" y="94.0" text-anchor="end" font-family="Inter, system-ui, sans-serif" font-size="11" fill="#94a3b8">3742</text>
<polygon points="52.0,272.0 52.0,272.0 54.4,271.9 83.2,271.4 85.6,271.2 88.0,271.2 95.2,271.1 109.5,271.1 140.7,271.0 143.1,270.6 145.5,270.5 152.7,270.4 155.1,270.4 157.5,270.3 159.9,270.2 164.7,270.2 167.1,269.9 174.3,269.7 183.9,269.6 186.3,269.5 188.7,269.4 207.8,269.3 212.6,269.3 224.6,269.2 227.0,269.2 229.4,269.1 239.0,269.0 241.4,268.7 243.8,268.5 246.2,267.9 248.6,267.8 265.4,267.7 272.6,267.7 277.4,267.6 279.8,267.6 282.2,267.3 284.6,267.3 287.0,267.2 289.4,267.1 291.8,266.9 301.4,266.7 306.2,266.6 315.7,266.6 318.1,266.4 320.5,266.3 322.9,266.2 327.7,266.2 330.1,265.2 332.5,264.2 334.9,263.9 337.3,263.6 339.7,263.5 342.1,263.3 344.5,263.0 346.9,262.7 349.3,262.6 351.7,262.5 356.5,262.3 358.9,261.9 361.3,261.5 363.7,261.2 366.1,260.9 370.9,260.8 375.7,260.8 378.1,260.4 380.5,260.2 382.9,259.5 385.3,259.1 387.7,258.7 390.1,258.3 392.5,257.9 394.9,257.5 397.3,257.0 399.7,256.4 402.1,255.9 404.5,255.5 406.9,255.2 409.3,254.9 411.6,254.5 414.0,254.3 416.4,254.1 418.8,253.8 421.2,253.7 423.6,253.6 428.4,253.6 430.8,252.6 433.2,251.9 435.6,251.8 438.0,251.7 442.8,251.6 445.2,251.5 454.8,251.4 459.6,251.3 466.8,251.3 469.2,250.2 471.6,249.1 474.0,248.8 476.4,247.9 478.8,247.2 481.2,246.8 483.6,246.6 486.0,246.1 488.4,245.9 490.8,245.8 493.2,245.6 495.6,245.5 510.0,244.8 512.4,243.8 514.7,243.6 517.1,243.5 519.5,243.5 536.3,243.4 557.9,242.4 560.3,241.6 562.7,240.7 565.1,239.3 567.5,239.1 569.9,238.6 572.3,237.9 574.7,237.3 577.1,236.0 579.5,234.0 581.9,232.1 584.3,229.9 586.7,227.5 589.1,225.5 591.5,224.2 593.9,222.7 596.3,220.5 598.7,218.6 601.1,217.3 603.5,216.0 605.9,214.2 608.3,213.0 610.7,211.8 613.1,210.8 615.5,210.0 617.8,209.0 620.2,208.4 622.6,207.7 625.0,207.1 627.4,205.4 629.8,204.0 632.2,203.2 634.6,202.9 637.0,202.5 639.4,201.8 641.8,201.1 644.2,200.0 646.6,199.2 649.0,198.6 651.4,198.5 653.8,198.2 656.2,197.6 658.6,196.2 661.0,193.9 663.4,191.6 665.8,189.2 668.2,187.2 670.6,184.9 673.0,182.5 675.4,180.0 677.8,177.7 680.2,176.1 682.6,174.8 685.0,173.3 687.4,171.8 689.8,170.8 692.2,169.7 694.6,168.8 697.0,167.5 699.4,165.8 701.8,163.8 704.2,162.1 706.6,160.6 709.0,159.6 711.4,158.7 713.8,157.8 716.2,156.9 718.5,155.2 720.9,153.8 723.3,152.1 725.7,150.4 728.1,148.9 730.5,147.7 732.9,147.2 735.3,146.6 737.7,145.9 740.1,145.8 742.5,145.7 744.9,145.3 747.3,145.2 749.7,145.2 752.1,144.9 754.5,144.8 761.7,144.8 764.1,144.7 766.5,144.4 768.9,142.4 771.3,140.7 773.7,139.2 776.1,137.5 778.5,136.0 780.9,134.5 783.3,132.9 785.7,131.4 788.1,129.8 790.5,128.4 792.9,126.9 795.3,125.4 797.7,124.0 800.1,122.5 802.5,121.1 804.9,119.9 807.3,118.5 809.7,117.2 812.1,115.8 814.5,114.6 816.9,113.2 819.3,112.4 821.6,111.5 824.0,110.6 826.4,109.4 828.8,108.2 831.2,107.2 833.6,105.9 836.0,104.7 838.4,103.7 840.8,102.5 843.2,101.4 845.6,100.3 848.0,99.2 850.4,97.9 852.8,97.0 855.2,95.8 857.6,94.9 860.0,93.9 862.4,92.8 864.8,91.8 867.2,90.9 869.6,90.1 872.0,90.0 872.0,272.0" fill="#e0f2fe" opacity="0.55"/>
<polyline points="52.0,272.0 54.4,271.9 83.2,271.4 85.6,271.2 88.0,271.2 95.2,271.1 109.5,271.1 140.7,271.0 143.1,270.6 145.5,270.5 152.7,270.4 155.1,270.4 157.5,270.3 159.9,270.2 164.7,270.2 167.1,269.9 174.3,269.7 183.9,269.6 186.3,269.5 188.7,269.4 207.8,269.3 212.6,269.3 224.6,269.2 227.0,269.2 229.4,269.1 239.0,269.0 241.4,268.7 243.8,268.5 246.2,267.9 248.6,267.8 265.4,267.7 272.6,267.7 277.4,267.6 279.8,267.6 282.2,267.3 284.6,267.3 287.0,267.2 289.4,267.1 291.8,266.9 301.4,266.7 306.2,266.6 315.7,266.6 318.1,266.4 320.5,266.3 322.9,266.2 327.7,266.2 330.1,265.2 332.5,264.2 334.9,263.9 337.3,263.6 339.7,263.5 342.1,263.3 344.5,263.0 346.9,262.7 349.3,262.6 351.7,262.5 356.5,262.3 358.9,261.9 361.3,261.5 363.7,261.2 366.1,260.9 370.9,260.8 375.7,260.8 378.1,260.4 380.5,260.2 382.9,259.5 385.3,259.1 387.7,258.7 390.1,258.3 392.5,257.9 394.9,257.5 397.3,257.0 399.7,256.4 402.1,255.9 404.5,255.5 406.9,255.2 409.3,254.9 411.6,254.5 414.0,254.3 416.4,254.1 418.8,253.8 421.2,253.7 423.6,253.6 428.4,253.6 430.8,252.6 433.2,251.9 435.6,251.8 438.0,251.7 442.8,251.6 445.2,251.5 454.8,251.4 459.6,251.3 466.8,251.3 469.2,250.2 471.6,249.1 474.0,248.8 476.4,247.9 478.8,247.2 481.2,246.8 483.6,246.6 486.0,246.1 488.4,245.9 490.8,245.8 493.2,245.6 495.6,245.5 510.0,244.8 512.4,243.8 514.7,243.6 517.1,243.5 519.5,243.5 536.3,243.4 557.9,242.4 560.3,241.6 562.7,240.7 565.1,239.3 567.5,239.1 569.9,238.6 572.3,237.9 574.7,237.3 577.1,236.0 579.5,234.0 581.9,232.1 584.3,229.9 586.7,227.5 589.1,225.5 591.5,224.2 593.9,222.7 596.3,220.5 598.7,218.6 601.1,217.3 603.5,216.0 605.9,214.2 608.3,213.0 610.7,211.8 613.1,210.8 615.5,210.0 617.8,209.0 620.2,208.4 622.6,207.7 625.0,207.1 627.4,205.4 629.8,204.0 632.2,203.2 634.6,202.9 637.0,202.5 639.4,201.8 641.8,201.1 644.2,200.0 646.6,199.2 649.0,198.6 651.4,198.5 653.8,198.2 656.2,197.6 658.6,196.2 661.0,193.9 663.4,191.6 665.8,189.2 668.2,187.2 670.6,184.9 673.0,182.5 675.4,180.0 677.8,177.7 680.2,176.1 682.6,174.8 685.0,173.3 687.4,171.8 689.8,170.8 692.2,169.7 694.6,168.8 697.0,167.5 699.4,165.8 701.8,163.8 704.2,162.1 706.6,160.6 709.0,159.6 711.4,158.7 713.8,157.8 716.2,156.9 718.5,155.2 720.9,153.8 723.3,152.1 725.7,150.4 728.1,148.9 730.5,147.7 732.9,147.2 735.3,146.6 737.7,145.9 740.1,145.8 742.5,145.7 744.9,145.3 747.3,145.2 749.7,145.2 752.1,144.9 754.5,144.8 761.7,144.8 764.1,144.7 766.5,144.4 768.9,142.4 771.3,140.7 773.7,139.2 776.1,137.5 778.5,136.0 780.9,134.5 783.3,132.9 785.7,131.4 788.1,129.8 790.5,128.4 792.9,126.9 795.3,125.4 797.7,124.0 800.1,122.5 802.5,121.1 804.9,119.9 807.3,118.5 809.7,117.2 812.1,115.8 814.5,114.6 816.9,113.2 819.3,112.4 821.6,111.5 824.0,110.6 826.4,109.4 828.8,108.2 831.2,107.2 833.6,105.9 836.0,104.7 838.4,103.7 840.8,102.5 843.2,101.4 845.6,100.3 848.0,99.2 850.4,97.9 852.8,97.0 855.2,95.8 857.6,94.9 860.0,93.9 862.4,92.8 864.8,91.8 867.2,90.9 869.6,90.1 872.0,90.0" fill="none" stroke="#38bdf8" stroke-width="2.5" stroke-linejoin="round" stroke-linecap="round"/>
<circle cx="872.0" cy="90.0" r="4" fill="#0ea5e9"/>
<text x="866.0" y="80.0" text-anchor="end" font-family="Inter, system-ui, sans-serif" font-size="13" font-weight="700" fill="#334155">3742</text>
<text x="52.0" y="294" text-anchor="middle" font-family="Inter, system-ui, sans-serif" font-size="11" fill="#94a3b8">Jun 10 05:00</text>
<text x="579.5" y="294" text-anchor="middle" font-family="Inter, system-ui, sans-serif" font-size="11" fill="#94a3b8">Jun 19 09:00</text>
<text x="872.0" y="294" text-anchor="middle" font-family="Inter, system-ui, sans-serif" font-size="11" fill="#94a3b8">Jun 24 11:00</text>
</svg>
