<svg xmlns="http://www.w3.org/2000/svg" width="900" height="320" viewBox="0 0 900 320" role="img" aria-labelledby="title desc">
<title id="title">unsorry proofs over time</title>
<desc id="desc">Cumulative kernel-verified proofs over time, by the hour each proof was merged.</desc>
<rect width="900" height="100%" rx="18" fill="#ffffff"/>
<rect x="0.5" y="0.5" width="899" height="319" rx="18" fill="none" stroke="#e2e8f0"/>
<text x="32" y="44" font-family="Inter, system-ui, sans-serif" font-size="28" font-weight="700" fill="#334155">unsorry — Proofs Over Time</text>
<text x="32" y="72" font-family="Inter, system-ui, sans-serif" font-size="13" fill="#64748b">4004 cumulative kernel-verified proofs · merged, hourly</text>
<line x1="52" y1="272.0" x2="872" y2="272.0" stroke="#f1f5f9"/>
<text x="44" y="276.0" text-anchor="end" font-family="Inter, system-ui, sans-serif" font-size="11" fill="#94a3b8">0</text>
<line x1="52" y1="226.5" x2="872" y2="226.5" stroke="#f1f5f9"/>
<text x="44" y="230.5" text-anchor="end" font-family="Inter, system-ui, sans-serif" font-size="11" fill="#94a3b8">1001</text>
<line x1="52" y1="181.0" x2="872" y2="181.0" stroke="#f1f5f9"/>
<text x="44" y="185.0" text-anchor="end" font-family="Inter, system-ui, sans-serif" font-size="11" fill="#94a3b8">2002</text>
<line x1="52" y1="135.5" x2="872" y2="135.5" stroke="#f1f5f9"/>
<text x="44" y="139.5" text-anchor="end" font-family="Inter, system-ui, sans-serif" font-size="11" fill="#94a3b8">3003</text>
<line x1="52" y1="90.0" x2="872" y2="90.0" stroke="#f1f5f9"/>
<text x="44" y="94.0" text-anchor="end" font-family="Inter, system-ui, sans-serif" font-size="11" fill="#94a3b8">4004</text>
<polygon points="52.0,272.0 52.0,272.0 54.3,271.9 81.9,271.4 84.2,271.3 86.5,271.2 93.3,271.2 107.1,271.1 137.0,271.1 139.3,270.7 141.6,270.6 148.5,270.5 150.8,270.5 153.1,270.5 155.4,270.3 160.0,270.3 162.3,270.0 169.1,269.9 178.3,269.8 180.6,269.6 182.9,269.5 201.3,269.5 205.9,269.5 217.4,269.4 219.7,269.4 222.0,269.3 231.2,269.2 233.5,269.0 235.8,268.7 238.1,268.1 240.3,268.0 256.4,268.0 263.3,268.0 267.9,267.9 270.2,267.9 272.5,267.6 274.8,267.6 277.1,267.5 279.4,267.4 281.7,267.3 290.9,267.0 295.5,267.0 304.7,267.0 307.0,266.7 309.3,266.7 311.6,266.6 316.1,266.5 318.4,265.6 320.7,264.7 323.0,264.4 325.3,264.2 327.6,264.1 329.9,263.9 332.2,263.5 334.5,263.3 336.8,263.2 339.1,263.1 343.7,263.0 346.0,262.6 348.3,262.2 350.6,261.9 352.9,261.6 357.5,261.5 362.1,261.5 364.4,261.2 366.7,261.0 369.0,260.3 371.3,260.0 373.6,259.6 375.9,259.2 378.2,258.8 380.5,258.4 382.8,258.0 385.1,257.5 387.4,257.0 389.6,256.6 391.9,256.3 394.2,256.0 396.5,255.6 398.8,255.5 401.1,255.2 403.4,255.0 405.7,254.9 408.0,254.8 412.6,254.8 414.9,253.9 417.2,253.2 419.5,253.1 421.8,253.0 426.4,253.0 428.7,252.8 437.9,252.8 442.5,252.7 449.4,252.6 451.7,251.6 454.0,250.6 456.3,250.3 458.6,249.5 460.9,248.9 463.1,248.5 465.4,248.2 467.7,247.8 470.0,247.6 472.3,247.5 474.6,247.4 476.9,247.3 490.7,246.5 493.0,245.6 495.3,245.5 497.6,245.4 499.9,245.3 516.0,245.3 536.6,244.3 538.9,243.6 541.2,242.7 543.5,241.5 545.8,241.2 548.1,240.8 550.4,240.1 552.7,239.5 555.0,238.3 557.3,236.5 559.6,234.7 561.9,232.6 564.2,230.5 566.5,228.5 568.8,227.4 571.1,226.0 573.4,223.9 575.7,222.1 578.0,220.9 580.3,219.7 582.6,218.0 584.9,216.9 587.2,215.8 589.5,214.8 591.8,214.1 594.1,213.1 596.4,212.5 598.7,211.9 601.0,211.4 603.3,209.7 605.6,208.4 607.9,207.7 610.2,207.5 612.4,207.0 614.7,206.4 617.0,205.8 619.3,204.7 621.6,204.0 623.9,203.4 626.2,203.3 628.5,203.0 630.8,202.5 633.1,201.2 635.4,199.0 637.7,196.8 640.0,194.6 642.3,192.8 644.6,190.6 646.9,188.4 649.2,186.0 651.5,183.9 653.8,182.4 656.1,181.1 658.4,179.7 660.7,178.4 663.0,177.5 665.3,176.4 667.6,175.5 669.9,174.4 672.2,172.8 674.5,170.9 676.8,169.3 679.1,167.9 681.4,167.0 683.7,166.1 685.9,165.3 688.2,164.4 690.5,162.9 692.8,161.5 695.1,160.0 697.4,158.3 699.7,157.0 702.0,155.9 704.3,155.4 706.6,154.8 708.9,154.1 711.2,154.0 713.5,154.0 715.8,153.6 718.1,153.5 720.4,153.5 722.7,153.2 725.0,153.1 731.9,153.1 734.2,153.0 736.5,152.8 738.8,150.9 741.1,149.3 743.4,147.9 745.7,146.3 748.0,144.9 750.3,143.5 752.6,142.0 754.9,140.6 757.2,139.1 759.5,137.8 761.7,136.4 764.0,135.0 766.3,133.7 768.6,132.3 770.9,131.0 773.2,129.9 775.5,128.6 777.8,127.3 780.1,126.0 782.4,124.9 784.7,123.6 787.0,122.8 789.3,122.0 791.6,121.2 793.9,120.0 796.2,119.0 798.5,118.0 800.8,116.7 803.1,115.7 805.4,114.7 807.7,113.6 810.0,112.5 812.3,111.5 814.6,110.5 816.9,109.3 819.2,108.4 821.5,107.3 823.8,106.5 826.1,105.6 828.4,104.5 830.7,103.6 833.0,102.7 835.2,102.0 837.5,101.3 839.8,100.9 842.1,100.8 844.4,99.8 846.7,99.0 849.0,98.0 851.3,97.1 853.6,96.3 855.9,95.4 858.2,94.5 860.5,93.7 862.8,92.9 865.1,92.1 867.4,91.3 869.7,90.5 872.0,90.0 872.0,272.0" fill="#e0f2fe" opacity="0.55"/>
<polyline points="52.0,272.0 54.3,271.9 81.9,271.4 84.2,271.3 86.5,271.2 93.3,271.2 107.1,271.1 137.0,271.1 139.3,270.7 141.6,270.6 148.5,270.5 150.8,270.5 153.1,270.5 155.4,270.3 160.0,270.3 162.3,270.0 169.1,269.9 178.3,269.8 180.6,269.6 182.9,269.5 201.3,269.5 205.9,269.5 217.4,269.4 219.7,269.4 222.0,269.3 231.2,269.2 233.5,269.0 235.8,268.7 238.1,268.1 240.3,268.0 256.4,268.0 263.3,268.0 267.9,267.9 270.2,267.9 272.5,267.6 274.8,267.6 277.1,267.5 279.4,267.4 281.7,267.3 290.9,267.0 295.5,267.0 304.7,267.0 307.0,266.7 309.3,266.7 311.6,266.6 316.1,266.5 318.4,265.6 320.7,264.7 323.0,264.4 325.3,264.2 327.6,264.1 329.9,263.9 332.2,263.5 334.5,263.3 336.8,263.2 339.1,263.1 343.7,263.0 346.0,262.6 348.3,262.2 350.6,261.9 352.9,261.6 357.5,261.5 362.1,261.5 364.4,261.2 366.7,261.0 369.0,260.3 371.3,260.0 373.6,259.6 375.9,259.2 378.2,258.8 380.5,258.4 382.8,258.0 385.1,257.5 387.4,257.0 389.6,256.6 391.9,256.3 394.2,256.0 396.5,255.6 398.8,255.5 401.1,255.2 403.4,255.0 405.7,254.9 408.0,254.8 412.6,254.8 414.9,253.9 417.2,253.2 419.5,253.1 421.8,253.0 426.4,253.0 428.7,252.8 437.9,252.8 442.5,252.7 449.4,252.6 451.7,251.6 454.0,250.6 456.3,250.3 458.6,249.5 460.9,248.9 463.1,248.5 465.4,248.2 467.7,247.8 470.0,247.6 472.3,247.5 474.6,247.4 476.9,247.3 490.7,246.5 493.0,245.6 495.3,245.5 497.6,245.4 499.9,245.3 516.0,245.3 536.6,244.3 538.9,243.6 541.2,242.7 543.5,241.5 545.8,241.2 548.1,240.8 550.4,240.1 552.7,239.5 555.0,238.3 557.3,236.5 559.6,234.7 561.9,232.6 564.2,230.5 566.5,228.5 568.8,227.4 571.1,226.0 573.4,223.9 575.7,222.1 578.0,220.9 580.3,219.7 582.6,218.0 584.9,216.9 587.2,215.8 589.5,214.8 591.8,214.1 594.1,213.1 596.4,212.5 598.7,211.9 601.0,211.4 603.3,209.7 605.6,208.4 607.9,207.7 610.2,207.5 612.4,207.0 614.7,206.4 617.0,205.8 619.3,204.7 621.6,204.0 623.9,203.4 626.2,203.3 628.5,203.0 630.8,202.5 633.1,201.2 635.4,199.0 637.7,196.8 640.0,194.6 642.3,192.8 644.6,190.6 646.9,188.4 649.2,186.0 651.5,183.9 653.8,182.4 656.1,181.1 658.4,179.7 660.7,178.4 663.0,177.5 665.3,176.4 667.6,175.5 669.9,174.4 672.2,172.8 674.5,170.9 676.8,169.3 679.1,167.9 681.4,167.0 683.7,166.1 685.9,165.3 688.2,164.4 690.5,162.9 692.8,161.5 695.1,160.0 697.4,158.3 699.7,157.0 702.0,155.9 704.3,155.4 706.6,154.8 708.9,154.1 711.2,154.0 713.5,154.0 715.8,153.6 718.1,153.5 720.4,153.5 722.7,153.2 725.0,153.1 731.9,153.1 734.2,153.0 736.5,152.8 738.8,150.9 741.1,149.3 743.4,147.9 745.7,146.3 748.0,144.9 750.3,143.5 752.6,142.0 754.9,140.6 757.2,139.1 759.5,137.8 761.7,136.4 764.0,135.0 766.3,133.7 768.6,132.3 770.9,131.0 773.2,129.9 775.5,128.6 777.8,127.3 780.1,126.0 782.4,124.9 784.7,123.6 787.0,122.8 789.3,122.0 791.6,121.2 793.9,120.0 796.2,119.0 798.5,118.0 800.8,116.7 803.1,115.7 805.4,114.7 807.7,113.6 810.0,112.5 812.3,111.5 814.6,110.5 816.9,109.3 819.2,108.4 821.5,107.3 823.8,106.5 826.1,105.6 828.4,104.5 830.7,103.6 833.0,102.7 835.2,102.0 837.5,101.3 839.8,100.9 842.1,100.8 844.4,99.8 846.7,99.0 849.0,98.0 851.3,97.1 853.6,96.3 855.9,95.4 858.2,94.5 860.5,93.7 862.8,92.9 865.1,92.1 867.4,91.3 869.7,90.5 872.0,90.0" fill="none" stroke="#38bdf8" stroke-width="2.5" stroke-linejoin="round" stroke-linecap="round"/>
<circle cx="872.0" cy="90.0" r="4" fill="#0ea5e9"/>
<text x="866.0" y="80.0" text-anchor="end" font-family="Inter, system-ui, sans-serif" font-size="13" font-weight="700" fill="#334155">4004</text>
<text x="52.0" y="294" text-anchor="middle" font-family="Inter, system-ui, sans-serif" font-size="11" fill="#94a3b8">Jun 10 05:00</text>
<text x="575.7" y="294" text-anchor="middle" font-family="Inter, system-ui, sans-serif" font-size="11" fill="#94a3b8">Jun 19 17:00</text>
<text x="872.0" y="294" text-anchor="middle" font-family="Inter, system-ui, sans-serif" font-size="11" fill="#94a3b8">Jun 25 02:00</text>
</svg>
