<svg xmlns="http://www.w3.org/2000/svg" width="900" height="320" viewBox="0 0 900 320" role="img" aria-labelledby="title desc">
<title id="title">Unsorry proofs over time</title>
<desc id="desc">Cumulative kernel-verified proofs over time, by the hour each proof was merged.</desc>
<rect width="900" height="100%" rx="18" fill="#ffffff"/>
<rect x="0.5" y="0.5" width="899" height="319" rx="18" fill="none" stroke="#e2e8f0"/>
<text x="32" y="44" font-family="Inter, system-ui, sans-serif" font-size="28" font-weight="700" fill="#334155">Unsorry — Proofs Over Time</text>
<text x="32" y="72" font-family="Inter, system-ui, sans-serif" font-size="13" fill="#64748b">1929 cumulative kernel-verified proofs · merged, hourly</text>
<line x1="52" y1="272.0" x2="872" y2="272.0" stroke="#f1f5f9"/>
<text x="44" y="276.0" text-anchor="end" font-family="Inter, system-ui, sans-serif" font-size="11" fill="#94a3b8">0</text>
<line x1="52" y1="226.5" x2="872" y2="226.5" stroke="#f1f5f9"/>
<text x="44" y="230.5" text-anchor="end" font-family="Inter, system-ui, sans-serif" font-size="11" fill="#94a3b8">482</text>
<line x1="52" y1="181.0" x2="872" y2="181.0" stroke="#f1f5f9"/>
<text x="44" y="185.0" text-anchor="end" font-family="Inter, system-ui, sans-serif" font-size="11" fill="#94a3b8">964</text>
<line x1="52" y1="135.5" x2="872" y2="135.5" stroke="#f1f5f9"/>
<text x="44" y="139.5" text-anchor="end" font-family="Inter, system-ui, sans-serif" font-size="11" fill="#94a3b8">1447</text>
<line x1="52" y1="90.0" x2="872" y2="90.0" stroke="#f1f5f9"/>
<text x="44" y="94.0" text-anchor="end" font-family="Inter, system-ui, sans-serif" font-size="11" fill="#94a3b8">1929</text>
<polygon points="52.0,272.0 52.0,271.9 55.1,271.7 92.8,270.8 96.0,270.5 99.1,270.4 108.6,270.3 127.4,270.2 168.2,270.1 171.4,269.3 174.5,269.2 184.0,269.0 187.1,268.9 190.2,268.8 193.4,268.5 199.7,268.4 202.8,267.9 212.2,267.6 224.8,267.4 227.9,267.1 231.1,266.9 256.2,266.8 262.5,266.7 278.2,266.6 281.3,266.5 284.5,266.3 297.1,266.2 300.2,265.7 303.3,265.2 306.5,264.0 309.6,263.8 331.6,263.7 341.0,263.6 347.3,263.5 350.5,263.4 353.6,262.9 356.8,262.8 359.9,262.8 363.0,262.5 366.2,262.2 378.7,261.7 385.0,261.6 397.6,261.5 400.7,261.1 403.9,261.0 407.0,260.8 413.3,260.7 416.4,258.8 419.6,256.9 422.7,256.2 425.9,255.8 429.0,255.6 432.2,255.1 435.3,254.5 438.4,254.0 441.6,253.7 444.7,253.5 451.0,253.2 454.1,252.5 457.3,251.7 460.4,251.0 463.6,250.5 469.9,250.3 476.1,250.2 479.3,249.5 482.4,249.1 485.6,247.8 488.7,247.0 491.8,246.2 495.0,245.5 498.1,244.6 501.3,243.8 504.4,242.8 507.6,241.8 510.7,240.9 513.8,240.0 517.0,239.4 520.1,238.8 523.3,238.0 526.4,237.7 529.5,237.2 532.7,236.7 535.8,236.5 539.0,236.3 545.3,236.2 548.4,234.4 551.5,233.0 554.7,232.8 557.8,232.7 564.1,232.5 567.2,232.2 579.8,232.1 586.1,231.9 595.5,231.8 598.7,229.6 601.8,227.6 605.0,227.0 608.1,225.3 611.2,224.0 614.4,223.1 617.5,222.7 620.7,221.8 623.8,221.4 626.9,221.2 630.1,220.9 633.2,220.7 652.1,219.2 655.2,217.3 658.4,217.0 661.5,216.7 664.6,216.6 686.6,216.5 714.9,214.5 718.1,213.0 721.2,211.2 724.3,208.6 727.5,208.1 730.6,207.3 733.8,205.8 736.9,204.6 740.0,202.1 743.2,198.3 746.3,194.6 749.5,190.3 752.6,185.8 755.8,181.8 758.9,179.3 762.0,176.4 765.2,172.1 768.3,168.4 771.5,166.0 774.6,163.4 777.7,159.8 780.9,157.6 784.0,155.3 787.2,153.3 790.3,151.8 793.5,149.8 796.6,148.6 799.7,147.3 802.9,146.1 806.0,142.7 809.2,140.0 812.3,138.5 815.4,138.0 818.6,137.2 821.7,135.8 824.9,134.5 828.0,132.3 831.2,130.9 834.3,129.5 837.4,129.3 840.6,128.8 843.7,127.7 846.9,125.0 850.0,120.6 853.1,115.9 856.3,111.3 859.4,107.5 862.6,103.1 865.7,98.4 868.9,93.6 872.0,90.0 872.0,272.0" fill="#e0f2fe" opacity="0.55"/>
<polyline points="52.0,271.9 55.1,271.7 92.8,270.8 96.0,270.5 99.1,270.4 108.6,270.3 127.4,270.2 168.2,270.1 171.4,269.3 174.5,269.2 184.0,269.0 187.1,268.9 190.2,268.8 193.4,268.5 199.7,268.4 202.8,267.9 212.2,267.6 224.8,267.4 227.9,267.1 231.1,266.9 256.2,266.8 262.5,266.7 278.2,266.6 281.3,266.5 284.5,266.3 297.1,266.2 300.2,265.7 303.3,265.2 306.5,264.0 309.6,263.8 331.6,263.7 341.0,263.6 347.3,263.5 350.5,263.4 353.6,262.9 356.8,262.8 359.9,262.8 363.0,262.5 366.2,262.2 378.7,261.7 385.0,261.6 397.6,261.5 400.7,261.1 403.9,261.0 407.0,260.8 413.3,260.7 416.4,258.8 419.6,256.9 422.7,256.2 425.9,255.8 429.0,255.6 432.2,255.1 435.3,254.5 438.4,254.0 441.6,253.7 444.7,253.5 451.0,253.2 454.1,252.5 457.3,251.7 460.4,251.0 463.6,250.5 469.9,250.3 476.1,250.2 479.3,249.5 482.4,249.1 485.6,247.8 488.7,247.0 491.8,246.2 495.0,245.5 498.1,244.6 501.3,243.8 504.4,242.8 507.6,241.8 510.7,240.9 513.8,240.0 517.0,239.4 520.1,238.8 523.3,238.0 526.4,237.7 529.5,237.2 532.7,236.7 535.8,236.5 539.0,236.3 545.3,236.2 548.4,234.4 551.5,233.0 554.7,232.8 557.8,232.7 564.1,232.5 567.2,232.2 579.8,232.1 586.1,231.9 595.5,231.8 598.7,229.6 601.8,227.6 605.0,227.0 608.1,225.3 611.2,224.0 614.4,223.1 617.5,222.7 620.7,221.8 623.8,221.4 626.9,221.2 630.1,220.9 633.2,220.7 652.1,219.2 655.2,217.3 658.4,217.0 661.5,216.7 664.6,216.6 686.6,216.5 714.9,214.5 718.1,213.0 721.2,211.2 724.3,208.6 727.5,208.1 730.6,207.3 733.8,205.8 736.9,204.6 740.0,202.1 743.2,198.3 746.3,194.6 749.5,190.3 752.6,185.8 755.8,181.8 758.9,179.3 762.0,176.4 765.2,172.1 768.3,168.4 771.5,166.0 774.6,163.4 777.7,159.8 780.9,157.6 784.0,155.3 787.2,153.3 790.3,151.8 793.5,149.8 796.6,148.6 799.7,147.3 802.9,146.1 806.0,142.7 809.2,140.0 812.3,138.5 815.4,138.0 818.6,137.2 821.7,135.8 824.9,134.5 828.0,132.3 831.2,130.9 834.3,129.5 837.4,129.3 840.6,128.8 843.7,127.7 846.9,125.0 850.0,120.6 853.1,115.9 856.3,111.3 859.4,107.5 862.6,103.1 865.7,98.4 868.9,93.6 872.0,90.0" fill="none" stroke="#38bdf8" stroke-width="2.5" stroke-linejoin="round" stroke-linecap="round"/>
<circle cx="872.0" cy="90.0" r="4" fill="#0ea5e9"/>
<text x="866.0" y="80.0" text-anchor="end" font-family="Inter, system-ui, sans-serif" font-size="13" font-weight="700" fill="#334155">1929</text>
<text x="52.0" y="294" text-anchor="middle" font-family="Inter, system-ui, sans-serif" font-size="11" fill="#94a3b8">Jun 10 05:00</text>
<text x="535.8" y="294" text-anchor="middle" font-family="Inter, system-ui, sans-serif" font-size="11" fill="#94a3b8">Jun 16 15:00</text>
<text x="872.0" y="294" text-anchor="middle" font-family="Inter, system-ui, sans-serif" font-size="11" fill="#94a3b8">Jun 21 02:00</text>
</svg>
