<svg xmlns="http://www.w3.org/2000/svg" width="900" height="320" viewBox="0 0 900 320" role="img" aria-labelledby="title desc">
<title id="title">unsorry proofs over time</title>
<desc id="desc">Cumulative kernel-verified proofs over time, by the hour each proof was merged.</desc>
<rect width="900" height="100%" rx="18" fill="#ffffff"/>
<rect x="0.5" y="0.5" width="899" height="319" rx="18" fill="none" stroke="#e2e8f0"/>
<text x="32" y="44" font-family="Inter, system-ui, sans-serif" font-size="28" font-weight="700" fill="#334155">unsorry — Proofs Over Time</text>
<text x="32" y="72" font-family="Inter, system-ui, sans-serif" font-size="13" fill="#64748b">3717 cumulative kernel-verified proofs · merged, hourly</text>
<line x1="52" y1="272.0" x2="872" y2="272.0" stroke="#f1f5f9"/>
<text x="44" y="276.0" text-anchor="end" font-family="Inter, system-ui, sans-serif" font-size="11" fill="#94a3b8">0</text>
<line x1="52" y1="226.5" x2="872" y2="226.5" stroke="#f1f5f9"/>
<text x="44" y="230.5" text-anchor="end" font-family="Inter, system-ui, sans-serif" font-size="11" fill="#94a3b8">929</text>
<line x1="52" y1="181.0" x2="872" y2="181.0" stroke="#f1f5f9"/>
<text x="44" y="185.0" text-anchor="end" font-family="Inter, system-ui, sans-serif" font-size="11" fill="#94a3b8">1858</text>
<line x1="52" y1="135.5" x2="872" y2="135.5" stroke="#f1f5f9"/>
<text x="44" y="139.5" text-anchor="end" font-family="Inter, system-ui, sans-serif" font-size="11" fill="#94a3b8">2788</text>
<line x1="52" y1="90.0" x2="872" y2="90.0" stroke="#f1f5f9"/>
<text x="44" y="94.0" text-anchor="end" font-family="Inter, system-ui, sans-serif" font-size="11" fill="#94a3b8">3717</text>
<polygon points="52.0,272.0 52.0,272.0 54.4,271.9 83.4,271.4 85.8,271.2 88.2,271.2 95.4,271.1 109.9,271.1 141.2,271.0 143.6,270.6 146.1,270.5 153.3,270.4 155.7,270.4 158.1,270.3 160.5,270.2 165.4,270.1 167.8,269.9 175.0,269.7 184.6,269.6 187.1,269.5 189.5,269.4 208.8,269.3 213.6,269.3 225.6,269.2 228.1,269.2 230.5,269.1 240.1,269.0 242.5,268.7 244.9,268.5 247.4,267.8 249.8,267.7 266.6,267.7 273.9,267.6 278.7,267.6 281.1,267.5 283.5,267.3 285.9,267.3 288.4,267.2 290.8,267.1 293.2,266.9 302.8,266.7 307.6,266.6 317.3,266.6 319.7,266.3 322.1,266.3 324.5,266.2 329.4,266.1 331.8,265.1 334.2,264.2 336.6,263.8 339.0,263.6 341.4,263.5 343.8,263.2 346.2,262.9 348.6,262.6 351.1,262.5 353.5,262.4 358.3,262.3 360.7,261.9 363.1,261.5 365.5,261.1 367.9,260.8 372.8,260.7 377.6,260.7 380.0,260.3 382.4,260.1 384.8,259.4 387.2,259.0 389.6,258.6 392.1,258.2 394.5,257.8 396.9,257.4 399.3,256.9 401.7,256.3 404.1,255.8 406.5,255.4 408.9,255.1 411.4,254.8 413.8,254.4 416.2,254.2 418.6,253.9 421.0,253.7 423.4,253.6 425.8,253.5 430.6,253.4 433.1,252.5 435.5,251.8 437.9,251.6 440.3,251.6 445.1,251.5 447.5,251.3 457.2,251.3 462.0,251.2 469.2,251.1 471.6,250.0 474.1,248.9 476.5,248.6 478.9,247.8 481.3,247.1 483.7,246.6 486.1,246.4 488.5,246.0 490.9,245.8 493.4,245.7 495.8,245.5 498.2,245.4 512.6,244.6 515.1,243.6 517.5,243.5 519.9,243.3 522.3,243.3 539.2,243.2 560.9,242.2 563.3,241.4 565.7,240.5 568.1,239.1 570.5,238.9 572.9,238.4 575.4,237.6 577.8,237.0 580.2,235.7 582.6,233.8 585.0,231.8 587.4,229.6 589.8,227.2 592.2,225.2 594.6,223.9 597.1,222.4 599.5,220.1 601.9,218.2 604.3,217.0 606.7,215.6 609.1,213.8 611.5,212.6 613.9,211.4 616.4,210.4 618.8,209.6 621.2,208.6 623.6,208.0 626.0,207.3 628.4,206.7 630.8,204.9 633.2,203.5 635.6,202.7 638.1,202.5 640.5,202.0 642.9,201.3 645.3,200.7 647.7,199.5 650.1,198.7 652.5,198.1 654.9,198.0 657.4,197.7 659.8,197.1 662.2,195.7 664.6,193.4 667.0,191.0 669.4,188.6 671.8,186.7 674.2,184.4 676.6,181.9 679.1,179.4 681.5,177.1 683.9,175.4 686.3,174.1 688.7,172.6 691.1,171.1 693.5,170.2 695.9,169.0 698.4,168.1 700.8,166.8 703.2,165.1 705.6,163.1 708.0,161.3 710.4,159.8 712.8,158.8 715.2,158.0 717.6,157.1 720.1,156.1 722.5,154.4 724.9,153.0 727.3,151.3 729.7,149.5 732.1,148.1 734.5,146.9 736.9,146.4 739.4,145.7 741.8,145.0 744.2,144.9 746.6,144.8 749.0,144.5 751.4,144.4 753.8,144.3 756.2,144.1 758.6,144.0 765.9,143.9 768.3,143.9 770.7,143.6 773.1,141.6 775.5,139.8 777.9,138.3 780.4,136.6 782.8,135.1 785.2,133.6 787.6,132.0 790.0,130.5 792.4,128.9 794.8,127.4 797.2,125.9 799.6,124.4 802.1,123.0 804.5,121.5 806.9,120.1 809.3,118.9 811.7,117.5 814.1,116.1 816.5,114.8 818.9,113.5 821.4,112.2 823.8,111.3 826.2,110.4 828.6,109.5 831.0,108.3 833.4,107.1 835.8,106.1 838.2,104.7 840.6,103.6 843.1,102.6 845.5,101.4 847.9,100.2 850.3,99.1 852.7,98.0 855.1,96.8 857.5,95.8 859.9,94.6 862.4,93.7 864.8,92.7 867.2,91.6 869.6,90.6 872.0,90.0 872.0,272.0" fill="#e0f2fe" opacity="0.55"/>
<polyline points="52.0,272.0 54.4,271.9 83.4,271.4 85.8,271.2 88.2,271.2 95.4,271.1 109.9,271.1 141.2,271.0 143.6,270.6 146.1,270.5 153.3,270.4 155.7,270.4 158.1,270.3 160.5,270.2 165.4,270.1 167.8,269.9 175.0,269.7 184.6,269.6 187.1,269.5 189.5,269.4 208.8,269.3 213.6,269.3 225.6,269.2 228.1,269.2 230.5,269.1 240.1,269.0 242.5,268.7 244.9,268.5 247.4,267.8 249.8,267.7 266.6,267.7 273.9,267.6 278.7,267.6 281.1,267.5 283.5,267.3 285.9,267.3 288.4,267.2 290.8,267.1 293.2,266.9 302.8,266.7 307.6,266.6 317.3,266.6 319.7,266.3 322.1,266.3 324.5,266.2 329.4,266.1 331.8,265.1 334.2,264.2 336.6,263.8 339.0,263.6 341.4,263.5 343.8,263.2 346.2,262.9 348.6,262.6 351.1,262.5 353.5,262.4 358.3,262.3 360.7,261.9 363.1,261.5 365.5,261.1 367.9,260.8 372.8,260.7 377.6,260.7 380.0,260.3 382.4,260.1 384.8,259.4 387.2,259.0 389.6,258.6 392.1,258.2 394.5,257.8 396.9,257.4 399.3,256.9 401.7,256.3 404.1,255.8 406.5,255.4 408.9,255.1 411.4,254.8 413.8,254.4 416.2,254.2 418.6,253.9 421.0,253.7 423.4,253.6 425.8,253.5 430.6,253.4 433.1,252.5 435.5,251.8 437.9,251.6 440.3,251.6 445.1,251.5 447.5,251.3 457.2,251.3 462.0,251.2 469.2,251.1 471.6,250.0 474.1,248.9 476.5,248.6 478.9,247.8 481.3,247.1 483.7,246.6 486.1,246.4 488.5,246.0 490.9,245.8 493.4,245.7 495.8,245.5 498.2,245.4 512.6,244.6 515.1,243.6 517.5,243.5 519.9,243.3 522.3,243.3 539.2,243.2 560.9,242.2 563.3,241.4 565.7,240.5 568.1,239.1 570.5,238.9 572.9,238.4 575.4,237.6 577.8,237.0 580.2,235.7 582.6,233.8 585.0,231.8 587.4,229.6 589.8,227.2 592.2,225.2 594.6,223.9 597.1,222.4 599.5,220.1 601.9,218.2 604.3,217.0 606.7,215.6 609.1,213.8 611.5,212.6 613.9,211.4 616.4,210.4 618.8,209.6 621.2,208.6 623.6,208.0 626.0,207.3 628.4,206.7 630.8,204.9 633.2,203.5 635.6,202.7 638.1,202.5 640.5,202.0 642.9,201.3 645.3,200.7 647.7,199.5 650.1,198.7 652.5,198.1 654.9,198.0 657.4,197.7 659.8,197.1 662.2,195.7 664.6,193.4 667.0,191.0 669.4,188.6 671.8,186.7 674.2,184.4 676.6,181.9 679.1,179.4 681.5,177.1 683.9,175.4 686.3,174.1 688.7,172.6 691.1,171.1 693.5,170.2 695.9,169.0 698.4,168.1 700.8,166.8 703.2,165.1 705.6,163.1 708.0,161.3 710.4,159.8 712.8,158.8 715.2,158.0 717.6,157.1 720.1,156.1 722.5,154.4 724.9,153.0 727.3,151.3 729.7,149.5 732.1,148.1 734.5,146.9 736.9,146.4 739.4,145.7 741.8,145.0 744.2,144.9 746.6,144.8 749.0,144.5 751.4,144.4 753.8,144.3 756.2,144.1 758.6,144.0 765.9,143.9 768.3,143.9 770.7,143.6 773.1,141.6 775.5,139.8 777.9,138.3 780.4,136.6 782.8,135.1 785.2,133.6 787.6,132.0 790.0,130.5 792.4,128.9 794.8,127.4 797.2,125.9 799.6,124.4 802.1,123.0 804.5,121.5 806.9,120.1 809.3,118.9 811.7,117.5 814.1,116.1 816.5,114.8 818.9,113.5 821.4,112.2 823.8,111.3 826.2,110.4 828.6,109.5 831.0,108.3 833.4,107.1 835.8,106.1 838.2,104.7 840.6,103.6 843.1,102.6 845.5,101.4 847.9,100.2 850.3,99.1 852.7,98.0 855.1,96.8 857.5,95.8 859.9,94.6 862.4,93.7 864.8,92.7 867.2,91.6 869.6,90.6 872.0,90.0" fill="none" stroke="#38bdf8" stroke-width="2.5" stroke-linejoin="round" stroke-linecap="round"/>
<circle cx="872.0" cy="90.0" r="4" fill="#0ea5e9"/>
<text x="866.0" y="80.0" text-anchor="end" font-family="Inter, system-ui, sans-serif" font-size="13" font-weight="700" fill="#334155">3717</text>
<text x="52.0" y="294" text-anchor="middle" font-family="Inter, system-ui, sans-serif" font-size="11" fill="#94a3b8">Jun 10 05:00</text>
<text x="580.2" y="294" text-anchor="middle" font-family="Inter, system-ui, sans-serif" font-size="11" fill="#94a3b8">Jun 19 08:00</text>
<text x="872.0" y="294" text-anchor="middle" font-family="Inter, system-ui, sans-serif" font-size="11" fill="#94a3b8">Jun 24 09:00</text>
</svg>
