<svg xmlns="http://www.w3.org/2000/svg" width="900" height="320" viewBox="0 0 900 320" role="img" aria-labelledby="title desc">
<title id="title">unsorry proofs over time</title>
<desc id="desc">Cumulative kernel-verified proofs over time, by the hour each proof was merged.</desc>
<rect width="900" height="100%" rx="18" fill="#ffffff"/>
<rect x="0.5" y="0.5" width="899" height="319" rx="18" fill="none" stroke="#e2e8f0"/>
<text x="32" y="44" font-family="Inter, system-ui, sans-serif" font-size="28" font-weight="700" fill="#334155">unsorry — Proofs Over Time</text>
<text x="32" y="72" font-family="Inter, system-ui, sans-serif" font-size="13" fill="#64748b">2917 cumulative kernel-verified proofs · merged, hourly</text>
<line x1="52" y1="272.0" x2="872" y2="272.0" stroke="#f1f5f9"/>
<text x="44" y="276.0" text-anchor="end" font-family="Inter, system-ui, sans-serif" font-size="11" fill="#94a3b8">0</text>
<line x1="52" y1="226.5" x2="872" y2="226.5" stroke="#f1f5f9"/>
<text x="44" y="230.5" text-anchor="end" font-family="Inter, system-ui, sans-serif" font-size="11" fill="#94a3b8">729</text>
<line x1="52" y1="181.0" x2="872" y2="181.0" stroke="#f1f5f9"/>
<text x="44" y="185.0" text-anchor="end" font-family="Inter, system-ui, sans-serif" font-size="11" fill="#94a3b8">1458</text>
<line x1="52" y1="135.5" x2="872" y2="135.5" stroke="#f1f5f9"/>
<text x="44" y="139.5" text-anchor="end" font-family="Inter, system-ui, sans-serif" font-size="11" fill="#94a3b8">2188</text>
<line x1="52" y1="90.0" x2="872" y2="90.0" stroke="#f1f5f9"/>
<text x="44" y="94.0" text-anchor="end" font-family="Inter, system-ui, sans-serif" font-size="11" fill="#94a3b8">2917</text>
<polygon points="52.0,272.0 52.0,271.9 54.7,271.8 86.7,271.2 89.4,271.0 92.1,270.9 100.1,270.9 116.1,270.8 150.8,270.8 153.5,270.2 156.2,270.1 164.2,270.0 166.9,269.9 169.5,269.9 172.2,269.7 177.5,269.6 180.2,269.3 188.2,269.1 198.9,268.9 201.6,268.8 204.2,268.6 225.6,268.6 231.0,268.5 244.3,268.4 247.0,268.4 249.7,268.3 260.3,268.2 263.0,267.8 265.7,267.5 268.4,266.7 271.0,266.6 289.7,266.5 297.7,266.4 303.1,266.4 305.7,266.3 308.4,266.0 311.1,265.9 313.8,265.9 316.4,265.7 319.1,265.5 329.8,265.2 335.1,265.1 345.8,265.1 348.5,264.8 351.2,264.7 353.8,264.6 359.2,264.5 361.8,263.3 364.5,262.0 367.2,261.6 369.9,261.3 372.5,261.1 375.2,260.8 377.9,260.4 380.5,260.1 383.2,259.9 385.9,259.8 391.2,259.6 393.9,259.1 396.6,258.6 399.2,258.1 401.9,257.8 407.2,257.6 412.6,257.6 415.3,257.2 417.9,256.8 420.6,256.0 423.3,255.5 425.9,255.0 428.6,254.5 431.3,253.9 434.0,253.3 436.6,252.7 439.3,252.0 442.0,251.4 444.6,250.8 447.3,250.5 450.0,250.0 452.7,249.5 455.3,249.3 458.0,249.0 460.7,248.7 463.3,248.5 466.0,248.4 471.3,248.4 474.0,247.1 476.7,246.2 479.4,246.0 482.0,246.0 487.4,245.9 490.0,245.7 500.7,245.6 506.1,245.5 514.1,245.4 516.8,244.0 519.4,242.6 522.1,242.2 524.8,241.1 527.4,240.2 530.1,239.7 532.8,239.4 535.5,238.8 538.1,238.6 540.8,238.4 543.5,238.2 546.1,238.1 562.2,237.1 564.8,235.8 567.5,235.6 570.2,235.4 572.8,235.4 591.5,235.3 615.6,234.0 618.3,233.0 620.9,231.8 623.6,230.1 626.3,229.8 628.9,229.2 631.6,228.2 634.3,227.5 637.0,225.8 639.6,223.3 642.3,220.8 645.0,218.0 647.6,215.0 650.3,212.4 653.0,210.7 655.6,208.8 658.3,205.9 661.0,203.5 663.7,201.9 666.3,200.2 669.0,197.8 671.7,196.3 674.3,194.8 677.0,193.5 679.7,192.5 682.4,191.2 685.0,190.4 687.7,189.5 690.4,188.8 693.0,186.5 695.7,184.7 698.4,183.7 701.1,183.4 703.7,182.8 706.4,181.9 709.1,181.1 711.7,179.6 714.4,178.7 717.1,177.8 719.8,177.7 722.4,177.3 725.1,176.6 727.8,174.8 730.4,171.9 733.1,168.8 735.8,165.7 738.4,163.2 741.1,160.3 743.8,157.2 746.5,154.0 749.1,151.1 751.8,149.0 754.5,147.3 757.1,145.3 759.8,143.5 762.5,142.2 765.2,140.7 767.8,139.6 770.5,138.0 773.2,135.8 775.8,133.2 778.5,131.0 781.2,129.1 783.9,127.8 786.5,126.7 789.2,125.6 791.9,124.3 794.5,122.2 797.2,120.4 799.9,118.2 802.6,116.0 805.2,114.1 807.9,112.6 810.6,112.0 813.2,111.1 815.9,110.2 818.6,110.1 821.3,110.0 823.9,109.5 826.6,109.3 829.3,109.3 831.9,109.0 834.6,108.8 842.6,108.8 845.3,108.7 848.0,108.3 850.6,105.8 853.3,103.6 856.0,101.7 858.6,99.5 861.3,97.5 864.0,95.6 866.7,93.6 869.3,91.7 872.0,90.0 872.0,272.0" fill="#e0f2fe" opacity="0.55"/>
<polyline points="52.0,271.9 54.7,271.8 86.7,271.2 89.4,271.0 92.1,270.9 100.1,270.9 116.1,270.8 150.8,270.8 153.5,270.2 156.2,270.1 164.2,270.0 166.9,269.9 169.5,269.9 172.2,269.7 177.5,269.6 180.2,269.3 188.2,269.1 198.9,268.9 201.6,268.8 204.2,268.6 225.6,268.6 231.0,268.5 244.3,268.4 247.0,268.4 249.7,268.3 260.3,268.2 263.0,267.8 265.7,267.5 268.4,266.7 271.0,266.6 289.7,266.5 297.7,266.4 303.1,266.4 305.7,266.3 308.4,266.0 311.1,265.9 313.8,265.9 316.4,265.7 319.1,265.5 329.8,265.2 335.1,265.1 345.8,265.1 348.5,264.8 351.2,264.7 353.8,264.6 359.2,264.5 361.8,263.3 364.5,262.0 367.2,261.6 369.9,261.3 372.5,261.1 375.2,260.8 377.9,260.4 380.5,260.1 383.2,259.9 385.9,259.8 391.2,259.6 393.9,259.1 396.6,258.6 399.2,258.1 401.9,257.8 407.2,257.6 412.6,257.6 415.3,257.2 417.9,256.8 420.6,256.0 423.3,255.5 425.9,255.0 428.6,254.5 431.3,253.9 434.0,253.3 436.6,252.7 439.3,252.0 442.0,251.4 444.6,250.8 447.3,250.5 450.0,250.0 452.7,249.5 455.3,249.3 458.0,249.0 460.7,248.7 463.3,248.5 466.0,248.4 471.3,248.4 474.0,247.1 476.7,246.2 479.4,246.0 482.0,246.0 487.4,245.9 490.0,245.7 500.7,245.6 506.1,245.5 514.1,245.4 516.8,244.0 519.4,242.6 522.1,242.2 524.8,241.1 527.4,240.2 530.1,239.7 532.8,239.4 535.5,238.8 538.1,238.6 540.8,238.4 543.5,238.2 546.1,238.1 562.2,237.1 564.8,235.8 567.5,235.6 570.2,235.4 572.8,235.4 591.5,235.3 615.6,234.0 618.3,233.0 620.9,231.8 623.6,230.1 626.3,229.8 628.9,229.2 631.6,228.2 634.3,227.5 637.0,225.8 639.6,223.3 642.3,220.8 645.0,218.0 647.6,215.0 650.3,212.4 653.0,210.7 655.6,208.8 658.3,205.9 661.0,203.5 663.7,201.9 666.3,200.2 669.0,197.8 671.7,196.3 674.3,194.8 677.0,193.5 679.7,192.5 682.4,191.2 685.0,190.4 687.7,189.5 690.4,188.8 693.0,186.5 695.7,184.7 698.4,183.7 701.1,183.4 703.7,182.8 706.4,181.9 709.1,181.1 711.7,179.6 714.4,178.7 717.1,177.8 719.8,177.7 722.4,177.3 725.1,176.6 727.8,174.8 730.4,171.9 733.1,168.8 735.8,165.7 738.4,163.2 741.1,160.3 743.8,157.2 746.5,154.0 749.1,151.1 751.8,149.0 754.5,147.3 757.1,145.3 759.8,143.5 762.5,142.2 765.2,140.7 767.8,139.6 770.5,138.0 773.2,135.8 775.8,133.2 778.5,131.0 781.2,129.1 783.9,127.8 786.5,126.7 789.2,125.6 791.9,124.3 794.5,122.2 797.2,120.4 799.9,118.2 802.6,116.0 805.2,114.1 807.9,112.6 810.6,112.0 813.2,111.1 815.9,110.2 818.6,110.1 821.3,110.0 823.9,109.5 826.6,109.3 829.3,109.3 831.9,109.0 834.6,108.8 842.6,108.8 845.3,108.7 848.0,108.3 850.6,105.8 853.3,103.6 856.0,101.7 858.6,99.5 861.3,97.5 864.0,95.6 866.7,93.6 869.3,91.7 872.0,90.0" fill="none" stroke="#38bdf8" stroke-width="2.5" stroke-linejoin="round" stroke-linecap="round"/>
<circle cx="872.0" cy="90.0" r="4" fill="#0ea5e9"/>
<text x="866.0" y="80.0" text-anchor="end" font-family="Inter, system-ui, sans-serif" font-size="13" font-weight="700" fill="#334155">2917</text>
<text x="52.0" y="294" text-anchor="middle" font-family="Inter, system-ui, sans-serif" font-size="11" fill="#94a3b8">Jun 10 05:00</text>
<text x="543.5" y="294" text-anchor="middle" font-family="Inter, system-ui, sans-serif" font-size="11" fill="#94a3b8">Jun 17 21:00</text>
<text x="872.0" y="294" text-anchor="middle" font-family="Inter, system-ui, sans-serif" font-size="11" fill="#94a3b8">Jun 23 00:00</text>
</svg>
