<svg xmlns="http://www.w3.org/2000/svg" width="900" height="320" viewBox="0 0 900 320" role="img" aria-labelledby="title desc">
<title id="title">unsorry proofs over time</title>
<desc id="desc">Cumulative kernel-verified proofs over time, by the hour each proof was merged.</desc>
<rect width="900" height="100%" rx="18" fill="#ffffff"/>
<rect x="0.5" y="0.5" width="899" height="319" rx="18" fill="none" stroke="#e2e8f0"/>
<text x="32" y="44" font-family="Inter, system-ui, sans-serif" font-size="28" font-weight="700" fill="#334155">unsorry — Proofs Over Time</text>
<text x="32" y="72" font-family="Inter, system-ui, sans-serif" font-size="13" fill="#64748b">4122 cumulative kernel-verified proofs · merged, hourly</text>
<line x1="52" y1="272.0" x2="872" y2="272.0" stroke="#f1f5f9"/>
<text x="44" y="276.0" text-anchor="end" font-family="Inter, system-ui, sans-serif" font-size="11" fill="#94a3b8">0</text>
<line x1="52" y1="226.5" x2="872" y2="226.5" stroke="#f1f5f9"/>
<text x="44" y="230.5" text-anchor="end" font-family="Inter, system-ui, sans-serif" font-size="11" fill="#94a3b8">1030</text>
<line x1="52" y1="181.0" x2="872" y2="181.0" stroke="#f1f5f9"/>
<text x="44" y="185.0" text-anchor="end" font-family="Inter, system-ui, sans-serif" font-size="11" fill="#94a3b8">2061</text>
<line x1="52" y1="135.5" x2="872" y2="135.5" stroke="#f1f5f9"/>
<text x="44" y="139.5" text-anchor="end" font-family="Inter, system-ui, sans-serif" font-size="11" fill="#94a3b8">3092</text>
<line x1="52" y1="90.0" x2="872" y2="90.0" stroke="#f1f5f9"/>
<text x="44" y="94.0" text-anchor="end" font-family="Inter, system-ui, sans-serif" font-size="11" fill="#94a3b8">4122</text>
<polygon points="52.0,272.0 52.0,272.0 54.3,271.9 81.3,271.4 83.5,271.3 85.8,271.2 92.5,271.2 106.1,271.2 135.4,271.1 137.6,270.7 139.9,270.7 146.6,270.6 148.9,270.5 151.1,270.5 153.4,270.4 157.9,270.3 160.1,270.1 166.9,269.9 175.9,269.8 178.2,269.7 180.4,269.6 198.4,269.6 202.9,269.5 214.2,269.5 216.5,269.4 218.7,269.4 227.7,269.3 230.0,269.0 232.2,268.8 234.5,268.2 236.7,268.2 252.5,268.1 259.3,268.1 263.8,268.0 266.0,268.0 268.3,267.8 270.5,267.7 272.8,267.7 275.0,267.5 277.3,267.4 286.3,267.2 290.8,267.1 299.8,267.1 302.1,266.9 304.3,266.8 306.6,266.7 311.1,266.7 313.3,265.8 315.6,264.9 317.8,264.6 320.1,264.4 322.3,264.3 324.6,264.1 326.8,263.8 329.1,263.6 331.3,263.4 333.6,263.3 338.1,263.2 340.4,262.9 342.6,262.5 344.9,262.2 347.1,261.9 351.6,261.8 356.1,261.8 358.4,261.5 360.6,261.3 362.9,260.7 365.1,260.3 367.4,259.9 369.6,259.6 371.9,259.2 374.1,258.8 376.4,258.4 378.6,257.9 380.9,257.4 383.2,257.0 385.4,256.8 387.7,256.5 389.9,256.1 392.2,255.9 394.4,255.7 396.7,255.5 398.9,255.4 401.2,255.3 405.7,255.3 407.9,254.4 410.2,253.8 412.4,253.6 414.7,253.6 419.2,253.5 421.5,253.4 430.5,253.3 435.0,253.2 441.7,253.2 444.0,252.2 446.2,251.2 448.5,250.9 450.7,250.1 453.0,249.5 455.2,249.1 457.5,248.9 459.7,248.5 462.0,248.3 464.3,248.2 466.5,248.1 468.8,248.0 482.3,247.3 484.5,246.4 486.8,246.3 489.0,246.1 491.3,246.1 507.1,246.0 527.3,245.1 529.6,244.4 531.8,243.6 534.1,242.3 536.3,242.1 538.6,241.7 540.8,241.0 543.1,240.5 545.4,239.3 547.6,237.5 549.9,235.8 552.1,233.8 554.4,231.6 556.6,229.8 558.9,228.6 561.1,227.3 563.4,225.2 565.6,223.5 567.9,222.4 570.1,221.2 572.4,219.5 574.6,218.4 576.9,217.4 579.1,216.5 581.4,215.7 583.6,214.8 585.9,214.2 588.2,213.6 590.4,213.1 592.7,211.5 594.9,210.2 597.2,209.5 599.4,209.3 601.7,208.9 603.9,208.2 606.2,207.7 608.4,206.6 610.7,205.9 612.9,205.3 615.2,205.2 617.4,205.0 619.7,204.5 621.9,203.2 624.2,201.1 626.5,199.0 628.7,196.8 631.0,195.0 633.2,193.0 635.5,190.8 637.7,188.5 640.0,186.4 642.2,184.9 644.5,183.7 646.7,182.4 649.0,181.0 651.2,180.2 653.5,179.1 655.7,178.3 658.0,177.2 660.2,175.6 662.5,173.8 664.7,172.2 667.0,170.8 669.3,170.0 671.5,169.2 673.8,168.4 676.0,167.5 678.3,166.0 680.5,164.7 682.8,163.2 685.0,161.6 687.3,160.2 689.5,159.2 691.8,158.7 694.0,158.1 696.3,157.5 698.5,157.4 700.8,157.3 703.0,157.0 705.3,156.9 707.5,156.8 709.8,156.6 712.1,156.5 718.8,156.5 721.1,156.5 723.3,156.2 725.6,154.4 727.8,152.8 730.1,151.5 732.3,149.9 734.6,148.5 736.8,147.2 739.1,145.7 741.3,144.4 743.6,142.9 745.8,141.6 748.1,140.2 750.4,138.9 752.6,137.6 754.9,136.3 757.1,135.0 759.4,133.9 761.6,132.7 763.9,131.5 766.1,130.2 768.4,129.1 770.6,127.9 772.9,127.1 775.1,126.3 777.4,125.5 779.6,124.4 781.9,123.3 784.1,122.4 786.4,121.2 788.6,120.2 790.9,119.2 793.2,118.2 795.4,117.1 797.7,116.1 799.9,115.1 802.2,114.0 804.4,113.1 806.7,112.0 808.9,111.2 811.2,110.4 813.4,109.3 815.7,108.4 817.9,107.6 820.2,106.9 822.4,106.2 824.7,105.8 826.9,105.7 829.2,104.7 831.5,103.9 833.7,103.0 836.0,102.1 838.2,101.3 840.5,100.5 842.7,99.6 845.0,98.8 847.2,98.0 849.5,97.2 851.7,96.5 854.0,95.7 856.2,94.9 858.5,94.2 860.7,93.4 863.0,92.6 865.2,91.8 867.5,91.1 869.7,90.3 872.0,90.0 872.0,272.0" fill="#e0f2fe" opacity="0.55"/>
<polyline points="52.0,272.0 54.3,271.9 81.3,271.4 83.5,271.3 85.8,271.2 92.5,271.2 106.1,271.2 135.4,271.1 137.6,270.7 139.9,270.7 146.6,270.6 148.9,270.5 151.1,270.5 153.4,270.4 157.9,270.3 160.1,270.1 166.9,269.9 175.9,269.8 178.2,269.7 180.4,269.6 198.4,269.6 202.9,269.5 214.2,269.5 216.5,269.4 218.7,269.4 227.7,269.3 230.0,269.0 232.2,268.8 234.5,268.2 236.7,268.2 252.5,268.1 259.3,268.1 263.8,268.0 266.0,268.0 268.3,267.8 270.5,267.7 272.8,267.7 275.0,267.5 277.3,267.4 286.3,267.2 290.8,267.1 299.8,267.1 302.1,266.9 304.3,266.8 306.6,266.7 311.1,266.7 313.3,265.8 315.6,264.9 317.8,264.6 320.1,264.4 322.3,264.3 324.6,264.1 326.8,263.8 329.1,263.6 331.3,263.4 333.6,263.3 338.1,263.2 340.4,262.9 342.6,262.5 344.9,262.2 347.1,261.9 351.6,261.8 356.1,261.8 358.4,261.5 360.6,261.3 362.9,260.7 365.1,260.3 367.4,259.9 369.6,259.6 371.9,259.2 374.1,258.8 376.4,258.4 378.6,257.9 380.9,257.4 383.2,257.0 385.4,256.8 387.7,256.5 389.9,256.1 392.2,255.9 394.4,255.7 396.7,255.5 398.9,255.4 401.2,255.3 405.7,255.3 407.9,254.4 410.2,253.8 412.4,253.6 414.7,253.6 419.2,253.5 421.5,253.4 430.5,253.3 435.0,253.2 441.7,253.2 444.0,252.2 446.2,251.2 448.5,250.9 450.7,250.1 453.0,249.5 455.2,249.1 457.5,248.9 459.7,248.5 462.0,248.3 464.3,248.2 466.5,248.1 468.8,248.0 482.3,247.3 484.5,246.4 486.8,246.3 489.0,246.1 491.3,246.1 507.1,246.0 527.3,245.1 529.6,244.4 531.8,243.6 534.1,242.3 536.3,242.1 538.6,241.7 540.8,241.0 543.1,240.5 545.4,239.3 547.6,237.5 549.9,235.8 552.1,233.8 554.4,231.6 556.6,229.8 558.9,228.6 561.1,227.3 563.4,225.2 565.6,223.5 567.9,222.4 570.1,221.2 572.4,219.5 574.6,218.4 576.9,217.4 579.1,216.5 581.4,215.7 583.6,214.8 585.9,214.2 588.2,213.6 590.4,213.1 592.7,211.5 594.9,210.2 597.2,209.5 599.4,209.3 601.7,208.9 603.9,208.2 606.2,207.7 608.4,206.6 610.7,205.9 612.9,205.3 615.2,205.2 617.4,205.0 619.7,204.5 621.9,203.2 624.2,201.1 626.5,199.0 628.7,196.8 631.0,195.0 633.2,193.0 635.5,190.8 637.7,188.5 640.0,186.4 642.2,184.9 644.5,183.7 646.7,182.4 649.0,181.0 651.2,180.2 653.5,179.1 655.7,178.3 658.0,177.2 660.2,175.6 662.5,173.8 664.7,172.2 667.0,170.8 669.3,170.0 671.5,169.2 673.8,168.4 676.0,167.5 678.3,166.0 680.5,164.7 682.8,163.2 685.0,161.6 687.3,160.2 689.5,159.2 691.8,158.7 694.0,158.1 696.3,157.5 698.5,157.4 700.8,157.3 703.0,157.0 705.3,156.9 707.5,156.8 709.8,156.6 712.1,156.5 718.8,156.5 721.1,156.5 723.3,156.2 725.6,154.4 727.8,152.8 730.1,151.5 732.3,149.9 734.6,148.5 736.8,147.2 739.1,145.7 741.3,144.4 743.6,142.9 745.8,141.6 748.1,140.2 750.4,138.9 752.6,137.6 754.9,136.3 757.1,135.0 759.4,133.9 761.6,132.7 763.9,131.5 766.1,130.2 768.4,129.1 770.6,127.9 772.9,127.1 775.1,126.3 777.4,125.5 779.6,124.4 781.9,123.3 784.1,122.4 786.4,121.2 788.6,120.2 790.9,119.2 793.2,118.2 795.4,117.1 797.7,116.1 799.9,115.1 802.2,114.0 804.4,113.1 806.7,112.0 808.9,111.2 811.2,110.4 813.4,109.3 815.7,108.4 817.9,107.6 820.2,106.9 822.4,106.2 824.7,105.8 826.9,105.7 829.2,104.7 831.5,103.9 833.7,103.0 836.0,102.1 838.2,101.3 840.5,100.5 842.7,99.6 845.0,98.8 847.2,98.0 849.5,97.2 851.7,96.5 854.0,95.7 856.2,94.9 858.5,94.2 860.7,93.4 863.0,92.6 865.2,91.8 867.5,91.1 869.7,90.3 872.0,90.0" fill="none" stroke="#38bdf8" stroke-width="2.5" stroke-linejoin="round" stroke-linecap="round"/>
<circle cx="872.0" cy="90.0" r="4" fill="#0ea5e9"/>
<text x="866.0" y="80.0" text-anchor="end" font-family="Inter, system-ui, sans-serif" font-size="13" font-weight="700" fill="#334155">4122</text>
<text x="52.0" y="294" text-anchor="middle" font-family="Inter, system-ui, sans-serif" font-size="11" fill="#94a3b8">Jun 10 05:00</text>
<text x="572.4" y="294" text-anchor="middle" font-family="Inter, system-ui, sans-serif" font-size="11" fill="#94a3b8">Jun 19 20:00</text>
<text x="872.0" y="294" text-anchor="middle" font-family="Inter, system-ui, sans-serif" font-size="11" fill="#94a3b8">Jun 25 09:00</text>
</svg>
