<svg xmlns="http://www.w3.org/2000/svg" width="900" height="320" viewBox="0 0 900 320" role="img" aria-labelledby="title desc">
<title id="title">unsorry proofs over time</title>
<desc id="desc">Cumulative kernel-verified proofs over time, by the hour each proof was merged.</desc>
<rect width="900" height="100%" rx="18" fill="#ffffff"/>
<rect x="0.5" y="0.5" width="899" height="319" rx="18" fill="none" stroke="#e2e8f0"/>
<text x="32" y="44" font-family="Inter, system-ui, sans-serif" font-size="28" font-weight="700" fill="#334155">unsorry — Proofs Over Time</text>
<text x="32" y="72" font-family="Inter, system-ui, sans-serif" font-size="13" fill="#64748b">3574 cumulative kernel-verified proofs · merged, hourly</text>
<line x1="52" y1="272.0" x2="872" y2="272.0" stroke="#f1f5f9"/>
<text x="44" y="276.0" text-anchor="end" font-family="Inter, system-ui, sans-serif" font-size="11" fill="#94a3b8">0</text>
<line x1="52" y1="226.5" x2="872" y2="226.5" stroke="#f1f5f9"/>
<text x="44" y="230.5" text-anchor="end" font-family="Inter, system-ui, sans-serif" font-size="11" fill="#94a3b8">894</text>
<line x1="52" y1="181.0" x2="872" y2="181.0" stroke="#f1f5f9"/>
<text x="44" y="185.0" text-anchor="end" font-family="Inter, system-ui, sans-serif" font-size="11" fill="#94a3b8">1787</text>
<line x1="52" y1="135.5" x2="872" y2="135.5" stroke="#f1f5f9"/>
<text x="44" y="139.5" text-anchor="end" font-family="Inter, system-ui, sans-serif" font-size="11" fill="#94a3b8">2680</text>
<line x1="52" y1="90.0" x2="872" y2="90.0" stroke="#f1f5f9"/>
<text x="44" y="94.0" text-anchor="end" font-family="Inter, system-ui, sans-serif" font-size="11" fill="#94a3b8">3574</text>
<polygon points="52.0,272.0 52.0,271.9 54.5,271.8 84.0,271.3 86.5,271.2 88.9,271.1 96.3,271.1 111.1,271.0 143.1,271.0 145.6,270.5 148.0,270.5 155.4,270.4 157.9,270.3 160.3,270.3 162.8,270.1 167.7,270.1 170.2,269.8 177.6,269.6 187.4,269.5 189.9,269.4 192.4,269.3 212.1,269.2 217.0,269.1 229.3,269.1 231.8,269.0 234.2,268.9 244.1,268.9 246.5,268.6 249.0,268.3 251.5,267.7 253.9,267.6 271.2,267.5 278.5,267.5 283.5,267.4 285.9,267.4 288.4,267.1 290.9,267.1 293.3,267.0 295.8,266.9 298.2,266.7 308.1,266.4 313.0,266.4 322.9,266.3 325.3,266.1 327.8,266.0 330.3,265.9 335.2,265.9 337.6,264.9 340.1,263.9 342.6,263.5 345.0,263.2 347.5,263.1 350.0,262.9 352.4,262.5 354.9,262.3 357.3,262.1 359.8,262.0 364.7,261.9 367.2,261.5 369.7,261.1 372.1,260.6 374.6,260.4 379.5,260.3 384.4,260.2 386.9,259.9 389.4,259.6 391.8,258.9 394.3,258.5 396.7,258.1 399.2,257.7 401.7,257.2 404.1,256.8 406.6,256.3 409.1,255.7 411.5,255.2 414.0,254.7 416.4,254.4 418.9,254.1 421.4,253.7 423.8,253.5 426.3,253.2 428.8,253.0 431.2,252.9 433.7,252.8 438.6,252.7 441.1,251.7 443.5,251.0 446.0,250.8 448.5,250.8 453.4,250.7 455.8,250.5 465.7,250.5 470.6,250.4 478.0,250.3 480.5,249.1 482.9,248.0 485.4,247.7 487.9,246.8 490.3,246.1 492.8,245.6 495.2,245.4 497.7,244.9 500.2,244.7 502.6,244.6 505.1,244.4 507.6,244.3 522.3,243.5 524.8,242.5 527.3,242.3 529.7,242.2 532.2,242.1 549.4,242.1 571.6,241.0 574.0,240.2 576.5,239.2 579.0,237.8 581.4,237.5 583.9,237.1 586.4,236.3 588.8,235.6 591.3,234.3 593.7,232.2 596.2,230.2 598.7,227.9 601.1,225.5 603.6,223.3 606.1,222.0 608.5,220.4 611.0,218.1 613.4,216.1 615.9,214.8 618.4,213.4 620.8,211.5 623.3,210.2 625.8,209.0 628.2,207.9 630.7,207.1 633.1,206.1 635.6,205.4 638.1,204.7 640.5,204.1 643.0,202.2 645.5,200.8 647.9,199.9 650.4,199.7 652.8,199.2 655.3,198.5 657.8,197.8 660.2,196.6 662.7,195.8 665.2,195.1 667.6,195.0 670.1,194.7 672.5,194.1 675.0,192.7 677.5,190.3 679.9,187.8 682.4,185.3 684.9,183.2 687.3,180.8 689.8,178.3 692.2,175.7 694.7,173.3 697.2,171.6 699.6,170.2 702.1,168.6 704.6,167.1 707.0,166.1 709.5,164.9 711.9,163.9 714.4,162.6 716.9,160.8 719.3,158.7 721.8,156.9 724.3,155.3 726.7,154.3 729.2,153.4 731.6,152.5 734.1,151.5 736.6,149.7 739.0,148.3 741.5,146.5 744.0,144.6 746.4,143.1 748.9,141.9 751.3,141.4 753.8,140.7 756.3,140.0 758.7,139.9 761.2,139.8 763.7,139.4 766.1,139.2 768.6,139.2 771.0,138.9 773.5,138.8 780.9,138.8 783.4,138.7 785.8,138.4 788.3,136.3 790.7,134.6 793.2,133.0 795.7,131.2 798.1,129.6 800.6,128.0 803.1,126.4 805.5,124.8 808.0,123.2 810.4,121.6 812.9,120.0 815.4,118.5 817.8,117.0 820.3,115.5 822.8,114.0 825.2,112.8 827.7,111.3 830.1,109.9 832.6,108.5 835.1,107.2 837.5,105.8 840.0,104.9 842.5,104.0 844.9,103.0 847.4,101.7 849.8,100.5 852.3,99.4 854.8,98.0 857.2,96.9 859.7,95.8 862.2,94.6 864.6,93.4 867.1,92.2 869.5,91.1 872.0,90.0 872.0,272.0" fill="#e0f2fe" opacity="0.55"/>
<polyline points="52.0,271.9 54.5,271.8 84.0,271.3 86.5,271.2 88.9,271.1 96.3,271.1 111.1,271.0 143.1,271.0 145.6,270.5 148.0,270.5 155.4,270.4 157.9,270.3 160.3,270.3 162.8,270.1 167.7,270.1 170.2,269.8 177.6,269.6 187.4,269.5 189.9,269.4 192.4,269.3 212.1,269.2 217.0,269.1 229.3,269.1 231.8,269.0 234.2,268.9 244.1,268.9 246.5,268.6 249.0,268.3 251.5,267.7 253.9,267.6 271.2,267.5 278.5,267.5 283.5,267.4 285.9,267.4 288.4,267.1 290.9,267.1 293.3,267.0 295.8,266.9 298.2,266.7 308.1,266.4 313.0,266.4 322.9,266.3 325.3,266.1 327.8,266.0 330.3,265.9 335.2,265.9 337.6,264.9 340.1,263.9 342.6,263.5 345.0,263.2 347.5,263.1 350.0,262.9 352.4,262.5 354.9,262.3 357.3,262.1 359.8,262.0 364.7,261.9 367.2,261.5 369.7,261.1 372.1,260.6 374.6,260.4 379.5,260.3 384.4,260.2 386.9,259.9 389.4,259.6 391.8,258.9 394.3,258.5 396.7,258.1 399.2,257.7 401.7,257.2 404.1,256.8 406.6,256.3 409.1,255.7 411.5,255.2 414.0,254.7 416.4,254.4 418.9,254.1 421.4,253.7 423.8,253.5 426.3,253.2 428.8,253.0 431.2,252.9 433.7,252.8 438.6,252.7 441.1,251.7 443.5,251.0 446.0,250.8 448.5,250.8 453.4,250.7 455.8,250.5 465.7,250.5 470.6,250.4 478.0,250.3 480.5,249.1 482.9,248.0 485.4,247.7 487.9,246.8 490.3,246.1 492.8,245.6 495.2,245.4 497.7,244.9 500.2,244.7 502.6,244.6 505.1,244.4 507.6,244.3 522.3,243.5 524.8,242.5 527.3,242.3 529.7,242.2 532.2,242.1 549.4,242.1 571.6,241.0 574.0,240.2 576.5,239.2 579.0,237.8 581.4,237.5 583.9,237.1 586.4,236.3 588.8,235.6 591.3,234.3 593.7,232.2 596.2,230.2 598.7,227.9 601.1,225.5 603.6,223.3 606.1,222.0 608.5,220.4 611.0,218.1 613.4,216.1 615.9,214.8 618.4,213.4 620.8,211.5 623.3,210.2 625.8,209.0 628.2,207.9 630.7,207.1 633.1,206.1 635.6,205.4 638.1,204.7 640.5,204.1 643.0,202.2 645.5,200.8 647.9,199.9 650.4,199.7 652.8,199.2 655.3,198.5 657.8,197.8 660.2,196.6 662.7,195.8 665.2,195.1 667.6,195.0 670.1,194.7 672.5,194.1 675.0,192.7 677.5,190.3 679.9,187.8 682.4,185.3 684.9,183.2 687.3,180.8 689.8,178.3 692.2,175.7 694.7,173.3 697.2,171.6 699.6,170.2 702.1,168.6 704.6,167.1 707.0,166.1 709.5,164.9 711.9,163.9 714.4,162.6 716.9,160.8 719.3,158.7 721.8,156.9 724.3,155.3 726.7,154.3 729.2,153.4 731.6,152.5 734.1,151.5 736.6,149.7 739.0,148.3 741.5,146.5 744.0,144.6 746.4,143.1 748.9,141.9 751.3,141.4 753.8,140.7 756.3,140.0 758.7,139.9 761.2,139.8 763.7,139.4 766.1,139.2 768.6,139.2 771.0,138.9 773.5,138.8 780.9,138.8 783.4,138.7 785.8,138.4 788.3,136.3 790.7,134.6 793.2,133.0 795.7,131.2 798.1,129.6 800.6,128.0 803.1,126.4 805.5,124.8 808.0,123.2 810.4,121.6 812.9,120.0 815.4,118.5 817.8,117.0 820.3,115.5 822.8,114.0 825.2,112.8 827.7,111.3 830.1,109.9 832.6,108.5 835.1,107.2 837.5,105.8 840.0,104.9 842.5,104.0 844.9,103.0 847.4,101.7 849.8,100.5 852.3,99.4 854.8,98.0 857.2,96.9 859.7,95.8 862.2,94.6 864.6,93.4 867.1,92.2 869.5,91.1 872.0,90.0" fill="none" stroke="#38bdf8" stroke-width="2.5" stroke-linejoin="round" stroke-linecap="round"/>
<circle cx="872.0" cy="90.0" r="4" fill="#0ea5e9"/>
<text x="866.0" y="80.0" text-anchor="end" font-family="Inter, system-ui, sans-serif" font-size="13" font-weight="700" fill="#334155">3574</text>
<text x="52.0" y="294" text-anchor="middle" font-family="Inter, system-ui, sans-serif" font-size="11" fill="#94a3b8">Jun 10 05:00</text>
<text x="583.9" y="294" text-anchor="middle" font-family="Inter, system-ui, sans-serif" font-size="11" fill="#94a3b8">Jun 19 05:00</text>
<text x="872.0" y="294" text-anchor="middle" font-family="Inter, system-ui, sans-serif" font-size="11" fill="#94a3b8">Jun 24 02:00</text>
</svg>
