<svg xmlns="http://www.w3.org/2000/svg" width="900" height="320" viewBox="0 0 900 320" role="img" aria-labelledby="title desc">
<title id="title">unsorry proofs over time</title>
<desc id="desc">Cumulative kernel-verified proofs over time, by the hour each proof was merged.</desc>
<rect width="900" height="100%" rx="18" fill="#ffffff"/>
<rect x="0.5" y="0.5" width="899" height="319" rx="18" fill="none" stroke="#e2e8f0"/>
<text x="32" y="44" font-family="Inter, system-ui, sans-serif" font-size="28" font-weight="700" fill="#334155">unsorry — Proofs Over Time</text>
<text x="32" y="72" font-family="Inter, system-ui, sans-serif" font-size="13" fill="#64748b">2703 cumulative kernel-verified proofs · merged, hourly</text>
<line x1="52" y1="272.0" x2="872" y2="272.0" stroke="#f1f5f9"/>
<text x="44" y="276.0" text-anchor="end" font-family="Inter, system-ui, sans-serif" font-size="11" fill="#94a3b8">0</text>
<line x1="52" y1="226.5" x2="872" y2="226.5" stroke="#f1f5f9"/>
<text x="44" y="230.5" text-anchor="end" font-family="Inter, system-ui, sans-serif" font-size="11" fill="#94a3b8">676</text>
<line x1="52" y1="181.0" x2="872" y2="181.0" stroke="#f1f5f9"/>
<text x="44" y="185.0" text-anchor="end" font-family="Inter, system-ui, sans-serif" font-size="11" fill="#94a3b8">1352</text>
<line x1="52" y1="135.5" x2="872" y2="135.5" stroke="#f1f5f9"/>
<text x="44" y="139.5" text-anchor="end" font-family="Inter, system-ui, sans-serif" font-size="11" fill="#94a3b8">2027</text>
<line x1="52" y1="90.0" x2="872" y2="90.0" stroke="#f1f5f9"/>
<text x="44" y="94.0" text-anchor="end" font-family="Inter, system-ui, sans-serif" font-size="11" fill="#94a3b8">2703</text>
<polygon points="52.0,272.0 52.0,271.9 54.7,271.8 87.4,271.1 90.1,270.9 92.9,270.9 101.0,270.8 117.4,270.7 152.8,270.7 155.5,270.0 158.2,270.0 166.4,269.8 169.1,269.8 171.9,269.7 174.6,269.5 180.0,269.4 182.8,269.1 190.9,268.8 201.8,268.7 204.6,268.5 207.3,268.4 229.1,268.3 234.5,268.2 248.1,268.2 250.9,268.1 253.6,268.0 264.5,267.9 267.2,267.5 269.9,267.2 272.7,266.3 275.4,266.1 294.5,266.1 302.6,266.0 308.1,265.9 310.8,265.9 313.5,265.5 316.3,265.5 319.0,265.4 321.7,265.2 324.4,265.0 335.3,264.7 340.8,264.6 351.7,264.5 354.4,264.2 357.1,264.1 359.8,264.0 365.3,263.9 368.0,262.6 370.7,261.2 373.5,260.8 376.2,260.4 378.9,260.3 381.6,259.9 384.4,259.5 387.1,259.1 389.8,258.9 392.5,258.8 398.0,258.6 400.7,258.1 403.4,257.5 406.2,257.0 408.9,256.6 414.3,256.5 419.8,256.4 422.5,256.0 425.2,255.6 427.9,254.7 430.7,254.2 433.4,253.6 436.1,253.1 438.8,252.5 441.6,251.9 444.3,251.2 447.0,250.5 449.7,249.8 452.5,249.2 455.2,248.8 457.9,248.3 460.6,247.8 463.4,247.5 466.1,247.2 468.8,246.8 471.5,246.7 474.3,246.5 479.7,246.5 482.4,245.1 485.2,244.2 487.9,244.0 490.6,243.9 496.1,243.8 498.8,243.6 509.7,243.5 515.1,243.4 523.3,243.3 526.0,241.8 528.7,240.3 531.5,239.9 534.2,238.7 536.9,237.7 539.6,237.1 542.4,236.8 545.1,236.2 547.8,235.9 550.5,235.8 553.3,235.5 556.0,235.4 572.3,234.3 575.1,232.9 577.8,232.7 580.5,232.5 583.2,232.5 602.3,232.4 626.8,231.0 629.5,229.9 632.3,228.6 635.0,226.8 637.7,226.4 640.4,225.8 643.2,224.7 645.9,223.9 648.6,222.1 651.3,219.4 654.1,216.8 656.8,213.7 659.5,210.5 662.2,207.6 665.0,205.9 667.7,203.8 670.4,200.7 673.1,198.1 675.9,196.3 678.6,194.5 681.3,191.9 684.0,190.3 686.8,188.7 689.5,187.3 692.2,186.2 694.9,184.8 697.6,183.9 700.4,183.0 703.1,182.2 705.8,179.8 708.5,177.8 711.3,176.7 714.0,176.4 716.7,175.8 719.4,174.8 722.2,173.9 724.9,172.3 727.6,171.3 730.3,170.3 733.1,170.2 735.8,169.8 738.5,169.0 741.2,167.1 744.0,163.9 746.7,160.6 749.4,157.3 752.1,154.6 754.9,151.5 757.6,148.1 760.3,144.7 763.0,141.5 765.8,139.2 768.5,137.4 771.2,135.3 773.9,133.3 776.7,131.9 779.4,130.3 782.1,129.1 784.8,127.4 787.5,125.0 790.3,122.2 793.0,119.8 795.7,117.7 798.4,116.4 801.2,115.2 803.9,114.0 806.6,112.6 809.3,110.3 812.1,108.4 814.8,106.0 817.5,103.6 820.2,101.6 823.0,100.0 825.7,99.3 828.4,98.3 831.1,97.4 833.9,97.3 836.6,97.1 839.3,96.7 842.0,96.5 844.8,96.4 847.5,96.1 850.2,95.9 858.4,95.9 861.1,95.8 863.8,95.4 866.6,92.6 869.3,90.3 872.0,90.0 872.0,272.0" fill="#e0f2fe" opacity="0.55"/>
<polyline points="52.0,271.9 54.7,271.8 87.4,271.1 90.1,270.9 92.9,270.9 101.0,270.8 117.4,270.7 152.8,270.7 155.5,270.0 158.2,270.0 166.4,269.8 169.1,269.8 171.9,269.7 174.6,269.5 180.0,269.4 182.8,269.1 190.9,268.8 201.8,268.7 204.6,268.5 207.3,268.4 229.1,268.3 234.5,268.2 248.1,268.2 250.9,268.1 253.6,268.0 264.5,267.9 267.2,267.5 269.9,267.2 272.7,266.3 275.4,266.1 294.5,266.1 302.6,266.0 308.1,265.9 310.8,265.9 313.5,265.5 316.3,265.5 319.0,265.4 321.7,265.2 324.4,265.0 335.3,264.7 340.8,264.6 351.7,264.5 354.4,264.2 357.1,264.1 359.8,264.0 365.3,263.9 368.0,262.6 370.7,261.2 373.5,260.8 376.2,260.4 378.9,260.3 381.6,259.9 384.4,259.5 387.1,259.1 389.8,258.9 392.5,258.8 398.0,258.6 400.7,258.1 403.4,257.5 406.2,257.0 408.9,256.6 414.3,256.5 419.8,256.4 422.5,256.0 425.2,255.6 427.9,254.7 430.7,254.2 433.4,253.6 436.1,253.1 438.8,252.5 441.6,251.9 444.3,251.2 447.0,250.5 449.7,249.8 452.5,249.2 455.2,248.8 457.9,248.3 460.6,247.8 463.4,247.5 466.1,247.2 468.8,246.8 471.5,246.7 474.3,246.5 479.7,246.5 482.4,245.1 485.2,244.2 487.9,244.0 490.6,243.9 496.1,243.8 498.8,243.6 509.7,243.5 515.1,243.4 523.3,243.3 526.0,241.8 528.7,240.3 531.5,239.9 534.2,238.7 536.9,237.7 539.6,237.1 542.4,236.8 545.1,236.2 547.8,235.9 550.5,235.8 553.3,235.5 556.0,235.4 572.3,234.3 575.1,232.9 577.8,232.7 580.5,232.5 583.2,232.5 602.3,232.4 626.8,231.0 629.5,229.9 632.3,228.6 635.0,226.8 637.7,226.4 640.4,225.8 643.2,224.7 645.9,223.9 648.6,222.1 651.3,219.4 654.1,216.8 656.8,213.7 659.5,210.5 662.2,207.6 665.0,205.9 667.7,203.8 670.4,200.7 673.1,198.1 675.9,196.3 678.6,194.5 681.3,191.9 684.0,190.3 686.8,188.7 689.5,187.3 692.2,186.2 694.9,184.8 697.6,183.9 700.4,183.0 703.1,182.2 705.8,179.8 708.5,177.8 711.3,176.7 714.0,176.4 716.7,175.8 719.4,174.8 722.2,173.9 724.9,172.3 727.6,171.3 730.3,170.3 733.1,170.2 735.8,169.8 738.5,169.0 741.2,167.1 744.0,163.9 746.7,160.6 749.4,157.3 752.1,154.6 754.9,151.5 757.6,148.1 760.3,144.7 763.0,141.5 765.8,139.2 768.5,137.4 771.2,135.3 773.9,133.3 776.7,131.9 779.4,130.3 782.1,129.1 784.8,127.4 787.5,125.0 790.3,122.2 793.0,119.8 795.7,117.7 798.4,116.4 801.2,115.2 803.9,114.0 806.6,112.6 809.3,110.3 812.1,108.4 814.8,106.0 817.5,103.6 820.2,101.6 823.0,100.0 825.7,99.3 828.4,98.3 831.1,97.4 833.9,97.3 836.6,97.1 839.3,96.7 842.0,96.5 844.8,96.4 847.5,96.1 850.2,95.9 858.4,95.9 861.1,95.8 863.8,95.4 866.6,92.6 869.3,90.3 872.0,90.0" fill="none" stroke="#38bdf8" stroke-width="2.5" stroke-linejoin="round" stroke-linecap="round"/>
<circle cx="872.0" cy="90.0" r="4" fill="#0ea5e9"/>
<text x="866.0" y="80.0" text-anchor="end" font-family="Inter, system-ui, sans-serif" font-size="13" font-weight="700" fill="#334155">2703</text>
<text x="52.0" y="294" text-anchor="middle" font-family="Inter, system-ui, sans-serif" font-size="11" fill="#94a3b8">Jun 10 05:00</text>
<text x="545.1" y="294" text-anchor="middle" font-family="Inter, system-ui, sans-serif" font-size="11" fill="#94a3b8">Jun 17 18:00</text>
<text x="872.0" y="294" text-anchor="middle" font-family="Inter, system-ui, sans-serif" font-size="11" fill="#94a3b8">Jun 22 18:00</text>
</svg>
