<svg xmlns="http://www.w3.org/2000/svg" width="900" height="320" viewBox="0 0 900 320" role="img" aria-labelledby="title desc">
<title id="title">unsorry proofs over time</title>
<desc id="desc">Cumulative kernel-verified proofs over time, by the hour each proof was merged.</desc>
<rect width="900" height="100%" rx="18" fill="#ffffff"/>
<rect x="0.5" y="0.5" width="899" height="319" rx="18" fill="none" stroke="#e2e8f0"/>
<text x="32" y="44" font-family="Inter, system-ui, sans-serif" font-size="28" font-weight="700" fill="#334155">unsorry — Proofs Over Time</text>
<text x="32" y="72" font-family="Inter, system-ui, sans-serif" font-size="13" fill="#64748b">3237 cumulative kernel-verified proofs · merged, hourly</text>
<line x1="52" y1="272.0" x2="872" y2="272.0" stroke="#f1f5f9"/>
<text x="44" y="276.0" text-anchor="end" font-family="Inter, system-ui, sans-serif" font-size="11" fill="#94a3b8">0</text>
<line x1="52" y1="226.5" x2="872" y2="226.5" stroke="#f1f5f9"/>
<text x="44" y="230.5" text-anchor="end" font-family="Inter, system-ui, sans-serif" font-size="11" fill="#94a3b8">809</text>
<line x1="52" y1="181.0" x2="872" y2="181.0" stroke="#f1f5f9"/>
<text x="44" y="185.0" text-anchor="end" font-family="Inter, system-ui, sans-serif" font-size="11" fill="#94a3b8">1618</text>
<line x1="52" y1="135.5" x2="872" y2="135.5" stroke="#f1f5f9"/>
<text x="44" y="139.5" text-anchor="end" font-family="Inter, system-ui, sans-serif" font-size="11" fill="#94a3b8">2428</text>
<line x1="52" y1="90.0" x2="872" y2="90.0" stroke="#f1f5f9"/>
<text x="44" y="94.0" text-anchor="end" font-family="Inter, system-ui, sans-serif" font-size="11" fill="#94a3b8">3237</text>
<polygon points="52.0,272.0 52.0,271.9 54.6,271.8 85.5,271.3 88.1,271.1 90.7,271.0 98.4,271.0 113.9,270.9 147.4,270.9 150.0,270.4 152.6,270.3 160.3,270.2 162.9,270.1 165.5,270.1 168.0,269.9 173.2,269.9 175.8,269.6 183.5,269.4 193.8,269.2 196.4,269.1 199.0,269.0 219.6,268.9 224.8,268.9 237.7,268.8 240.2,268.7 242.8,268.6 253.1,268.6 255.7,268.2 258.3,268.0 260.9,267.2 263.4,267.1 281.5,267.1 289.2,267.0 294.4,266.9 297.0,266.9 299.5,266.6 302.1,266.5 304.7,266.5 307.3,266.3 309.9,266.2 320.2,265.9 325.3,265.8 335.6,265.8 338.2,265.5 340.8,265.4 343.4,265.3 348.5,265.3 351.1,264.1 353.7,263.0 356.3,262.6 358.9,262.3 361.4,262.2 364.0,261.9 366.6,261.5 369.2,261.3 371.7,261.1 374.3,261.0 379.5,260.8 382.1,260.4 384.6,259.9 387.2,259.5 389.8,259.2 395.0,259.1 400.1,259.0 402.7,258.6 405.3,258.3 407.8,257.6 410.4,257.1 413.0,256.7 415.6,256.2 418.2,255.7 420.7,255.2 423.3,254.6 425.9,254.0 428.5,253.4 431.1,252.9 433.6,252.6 436.2,252.2 438.8,251.8 441.4,251.5 443.9,251.3 446.5,251.0 449.1,250.9 451.7,250.7 456.8,250.7 459.4,249.6 462.0,248.8 464.6,248.6 467.2,248.6 472.3,248.4 474.9,248.3 485.2,248.2 490.4,248.1 498.1,248.0 500.7,246.8 503.3,245.5 505.8,245.2 508.4,244.2 511.0,243.4 513.6,242.9 516.2,242.6 518.7,242.1 521.3,241.9 523.9,241.8 526.5,241.5 529.0,241.4 544.5,240.5 547.1,239.4 549.7,239.2 552.3,239.1 554.8,239.0 572.9,238.9 596.1,237.8 598.7,236.9 601.2,235.8 603.8,234.2 606.4,233.9 609.0,233.4 611.6,232.5 614.1,231.9 616.7,230.3 619.3,228.1 621.9,225.9 624.5,223.3 627.0,220.6 629.6,218.2 632.2,216.8 634.8,215.0 637.3,212.5 639.9,210.3 642.5,208.8 645.1,207.3 647.7,205.1 650.2,203.8 652.8,202.4 655.4,201.3 658.0,200.4 660.6,199.2 663.1,198.5 665.7,197.7 668.3,197.0 670.9,195.0 673.4,193.3 676.0,192.4 678.6,192.2 681.2,191.7 683.8,190.8 686.3,190.1 688.9,188.7 691.5,187.9 694.1,187.1 696.7,187.0 699.2,186.7 701.8,186.0 704.4,184.4 707.0,181.8 709.5,179.0 712.1,176.2 714.7,174.0 717.3,171.4 719.9,168.5 722.4,165.7 725.0,163.0 727.6,161.1 730.2,159.6 732.8,157.9 735.3,156.2 737.9,155.1 740.5,153.7 743.1,152.7 745.6,151.2 748.2,149.3 750.8,146.9 753.4,144.9 756.0,143.2 758.5,142.1 761.1,141.1 763.7,140.0 766.3,138.9 768.9,137.0 771.4,135.4 774.0,133.4 776.6,131.4 779.2,129.7 781.7,128.3 784.3,127.8 786.9,127.0 789.5,126.2 792.1,126.1 794.6,126.0 797.2,125.6 799.8,125.4 802.4,125.4 805.0,125.1 807.5,125.0 815.3,124.9 817.8,124.9 820.4,124.5 823.0,122.2 825.6,120.2 828.2,118.5 830.7,116.5 833.3,114.8 835.9,113.1 838.5,111.2 841.1,109.5 843.6,107.7 846.2,106.0 848.8,104.2 851.4,102.5 853.9,100.9 856.5,99.2 859.1,97.6 861.7,96.2 864.3,94.6 866.8,93.0 869.4,91.5 872.0,90.0 872.0,272.0" fill="#e0f2fe" opacity="0.55"/>
<polyline points="52.0,271.9 54.6,271.8 85.5,271.3 88.1,271.1 90.7,271.0 98.4,271.0 113.9,270.9 147.4,270.9 150.0,270.4 152.6,270.3 160.3,270.2 162.9,270.1 165.5,270.1 168.0,269.9 173.2,269.9 175.8,269.6 183.5,269.4 193.8,269.2 196.4,269.1 199.0,269.0 219.6,268.9 224.8,268.9 237.7,268.8 240.2,268.7 242.8,268.6 253.1,268.6 255.7,268.2 258.3,268.0 260.9,267.2 263.4,267.1 281.5,267.1 289.2,267.0 294.4,266.9 297.0,266.9 299.5,266.6 302.1,266.5 304.7,266.5 307.3,266.3 309.9,266.2 320.2,265.9 325.3,265.8 335.6,265.8 338.2,265.5 340.8,265.4 343.4,265.3 348.5,265.3 351.1,264.1 353.7,263.0 356.3,262.6 358.9,262.3 361.4,262.2 364.0,261.9 366.6,261.5 369.2,261.3 371.7,261.1 374.3,261.0 379.5,260.8 382.1,260.4 384.6,259.9 387.2,259.5 389.8,259.2 395.0,259.1 400.1,259.0 402.7,258.6 405.3,258.3 407.8,257.6 410.4,257.1 413.0,256.7 415.6,256.2 418.2,255.7 420.7,255.2 423.3,254.6 425.9,254.0 428.5,253.4 431.1,252.9 433.6,252.6 436.2,252.2 438.8,251.8 441.4,251.5 443.9,251.3 446.5,251.0 449.1,250.9 451.7,250.7 456.8,250.7 459.4,249.6 462.0,248.8 464.6,248.6 467.2,248.6 472.3,248.4 474.9,248.3 485.2,248.2 490.4,248.1 498.1,248.0 500.7,246.8 503.3,245.5 505.8,245.2 508.4,244.2 511.0,243.4 513.6,242.9 516.2,242.6 518.7,242.1 521.3,241.9 523.9,241.8 526.5,241.5 529.0,241.4 544.5,240.5 547.1,239.4 549.7,239.2 552.3,239.1 554.8,239.0 572.9,238.9 596.1,237.8 598.7,236.9 601.2,235.8 603.8,234.2 606.4,233.9 609.0,233.4 611.6,232.5 614.1,231.9 616.7,230.3 619.3,228.1 621.9,225.9 624.5,223.3 627.0,220.6 629.6,218.2 632.2,216.8 634.8,215.0 637.3,212.5 639.9,210.3 642.5,208.8 645.1,207.3 647.7,205.1 650.2,203.8 652.8,202.4 655.4,201.3 658.0,200.4 660.6,199.2 663.1,198.5 665.7,197.7 668.3,197.0 670.9,195.0 673.4,193.3 676.0,192.4 678.6,192.2 681.2,191.7 683.8,190.8 686.3,190.1 688.9,188.7 691.5,187.9 694.1,187.1 696.7,187.0 699.2,186.7 701.8,186.0 704.4,184.4 707.0,181.8 709.5,179.0 712.1,176.2 714.7,174.0 717.3,171.4 719.9,168.5 722.4,165.7 725.0,163.0 727.6,161.1 730.2,159.6 732.8,157.9 735.3,156.2 737.9,155.1 740.5,153.7 743.1,152.7 745.6,151.2 748.2,149.3 750.8,146.9 753.4,144.9 756.0,143.2 758.5,142.1 761.1,141.1 763.7,140.0 766.3,138.9 768.9,137.0 771.4,135.4 774.0,133.4 776.6,131.4 779.2,129.7 781.7,128.3 784.3,127.8 786.9,127.0 789.5,126.2 792.1,126.1 794.6,126.0 797.2,125.6 799.8,125.4 802.4,125.4 805.0,125.1 807.5,125.0 815.3,124.9 817.8,124.9 820.4,124.5 823.0,122.2 825.6,120.2 828.2,118.5 830.7,116.5 833.3,114.8 835.9,113.1 838.5,111.2 841.1,109.5 843.6,107.7 846.2,106.0 848.8,104.2 851.4,102.5 853.9,100.9 856.5,99.2 859.1,97.6 861.7,96.2 864.3,94.6 866.8,93.0 869.4,91.5 872.0,90.0" fill="none" stroke="#38bdf8" stroke-width="2.5" stroke-linejoin="round" stroke-linecap="round"/>
<circle cx="872.0" cy="90.0" r="4" fill="#0ea5e9"/>
<text x="866.0" y="80.0" text-anchor="end" font-family="Inter, system-ui, sans-serif" font-size="13" font-weight="700" fill="#334155">3237</text>
<text x="52.0" y="294" text-anchor="middle" font-family="Inter, system-ui, sans-serif" font-size="11" fill="#94a3b8">Jun 10 05:00</text>
<text x="552.3" y="294" text-anchor="middle" font-family="Inter, system-ui, sans-serif" font-size="11" fill="#94a3b8">Jun 18 07:00</text>
<text x="872.0" y="294" text-anchor="middle" font-family="Inter, system-ui, sans-serif" font-size="11" fill="#94a3b8">Jun 23 11:00</text>
</svg>
