<svg xmlns="http://www.w3.org/2000/svg" width="900" height="320" viewBox="0 0 900 320" role="img" aria-labelledby="title desc">
<title id="title">unsorry proofs over time</title>
<desc id="desc">Cumulative kernel-verified proofs over time, by the hour each proof was merged.</desc>
<rect width="900" height="100%" rx="18" fill="#ffffff"/>
<rect x="0.5" y="0.5" width="899" height="319" rx="18" fill="none" stroke="#e2e8f0"/>
<text x="32" y="44" font-family="Inter, system-ui, sans-serif" font-size="28" font-weight="700" fill="#334155">unsorry — Proofs Over Time</text>
<text x="32" y="72" font-family="Inter, system-ui, sans-serif" font-size="13" fill="#64748b">4135 cumulative kernel-verified proofs · merged, hourly</text>
<line x1="52" y1="272.0" x2="872" y2="272.0" stroke="#f1f5f9"/>
<text x="44" y="276.0" text-anchor="end" font-family="Inter, system-ui, sans-serif" font-size="11" fill="#94a3b8">0</text>
<line x1="52" y1="226.5" x2="872" y2="226.5" stroke="#f1f5f9"/>
<text x="44" y="230.5" text-anchor="end" font-family="Inter, system-ui, sans-serif" font-size="11" fill="#94a3b8">1034</text>
<line x1="52" y1="181.0" x2="872" y2="181.0" stroke="#f1f5f9"/>
<text x="44" y="185.0" text-anchor="end" font-family="Inter, system-ui, sans-serif" font-size="11" fill="#94a3b8">2068</text>
<line x1="52" y1="135.5" x2="872" y2="135.5" stroke="#f1f5f9"/>
<text x="44" y="139.5" text-anchor="end" font-family="Inter, system-ui, sans-serif" font-size="11" fill="#94a3b8">3101</text>
<line x1="52" y1="90.0" x2="872" y2="90.0" stroke="#f1f5f9"/>
<text x="44" y="94.0" text-anchor="end" font-family="Inter, system-ui, sans-serif" font-size="11" fill="#94a3b8">4135</text>
<polygon points="52.0,272.0 52.0,272.0 54.2,271.9 81.2,271.4 83.5,271.3 85.7,271.3 92.4,271.2 105.9,271.2 135.1,271.1 137.4,270.7 139.6,270.7 146.4,270.6 148.6,270.5 150.8,270.5 153.1,270.4 157.6,270.3 159.8,270.1 166.6,269.9 175.6,269.8 177.8,269.7 180.1,269.6 198.0,269.6 202.5,269.5 213.8,269.5 216.0,269.4 218.2,269.4 227.2,269.3 229.5,269.1 231.7,268.8 234.0,268.3 236.2,268.2 251.9,268.1 258.7,268.1 263.2,268.0 265.4,268.0 267.7,267.8 269.9,267.7 272.2,267.7 274.4,267.6 276.7,267.4 285.6,267.2 290.1,267.2 299.1,267.1 301.4,266.9 303.6,266.9 305.9,266.8 310.4,266.7 312.6,265.8 314.8,265.0 317.1,264.6 319.3,264.4 321.6,264.3 323.8,264.1 326.1,263.8 328.3,263.6 330.6,263.5 332.8,263.4 337.3,263.2 339.6,262.9 341.8,262.5 344.1,262.2 346.3,262.0 350.8,261.9 355.3,261.8 357.5,261.5 359.8,261.3 362.0,260.7 364.3,260.3 366.5,260.0 368.8,259.6 371.0,259.2 373.3,258.8 375.5,258.4 377.8,257.9 380.0,257.5 382.2,257.1 384.5,256.8 386.7,256.5 389.0,256.2 391.2,256.0 393.5,255.8 395.7,255.5 398.0,255.5 400.2,255.4 404.7,255.3 407.0,254.4 409.2,253.8 411.5,253.7 413.7,253.6 418.2,253.6 420.4,253.4 429.4,253.4 433.9,253.3 440.7,253.2 442.9,252.2 445.2,251.3 447.4,251.0 449.6,250.2 451.9,249.6 454.1,249.2 456.4,249.0 458.6,248.6 460.9,248.4 463.1,248.3 465.4,248.1 467.6,248.1 481.1,247.4 483.3,246.5 485.6,246.3 487.8,246.2 490.1,246.2 505.8,246.1 526.0,245.2 528.3,244.5 530.5,243.7 532.8,242.4 535.0,242.2 537.3,241.8 539.5,241.1 541.8,240.6 544.0,239.4 546.2,237.6 548.5,235.9 550.7,233.9 553.0,231.8 555.2,229.9 557.5,228.8 559.7,227.4 562.0,225.4 564.2,223.7 566.5,222.5 568.7,221.3 571.0,219.7 573.2,218.6 575.5,217.6 577.7,216.6 579.9,215.9 582.2,215.0 584.4,214.4 586.7,213.8 588.9,213.3 591.2,211.7 593.4,210.4 595.7,209.7 597.9,209.5 600.2,209.1 602.4,208.4 604.7,207.9 606.9,206.8 609.2,206.2 611.4,205.5 613.6,205.5 615.9,205.2 618.1,204.7 620.4,203.4 622.6,201.4 624.9,199.2 627.1,197.0 629.4,195.3 631.6,193.2 633.9,191.0 636.1,188.8 638.4,186.7 640.6,185.2 642.8,184.0 645.1,182.7 647.3,181.3 649.6,180.4 651.8,179.4 654.1,178.6 656.3,177.5 658.6,175.9 660.8,174.1 663.1,172.5 665.3,171.2 667.6,170.3 669.8,169.5 672.1,168.7 674.3,167.8 676.5,166.3 678.8,165.0 681.0,163.5 683.3,161.9 685.5,160.6 687.8,159.5 690.0,159.1 692.3,158.5 694.5,157.9 696.8,157.8 699.0,157.7 701.3,157.4 703.5,157.3 705.8,157.2 708.0,157.0 710.2,156.9 717.0,156.9 719.2,156.8 721.5,156.5 723.7,154.7 726.0,153.2 728.2,151.8 730.5,150.3 732.7,148.9 735.0,147.6 737.2,146.1 739.5,144.8 741.7,143.3 743.9,142.0 746.2,140.7 748.4,139.3 750.7,138.1 752.9,136.7 755.2,135.5 757.4,134.4 759.7,133.1 761.9,131.9 764.2,130.7 766.4,129.5 768.7,128.3 770.9,127.5 773.2,126.8 775.4,126.0 777.6,124.8 779.9,123.8 782.1,122.8 784.4,121.6 786.6,120.6 788.9,119.7 791.1,118.7 793.4,117.6 795.6,116.6 797.9,115.6 800.1,114.5 802.4,113.6 804.6,112.5 806.8,111.7 809.1,110.9 811.3,109.9 813.6,108.9 815.8,108.1 818.1,107.4 820.3,106.7 822.6,106.3 824.8,106.2 827.1,105.3 829.3,104.4 831.6,103.6 833.8,102.6 836.1,101.9 838.3,101.0 840.5,100.2 842.8,99.3 845.0,98.5 847.3,97.8 849.5,97.0 851.8,96.3 854.0,95.4 856.3,94.7 858.5,93.9 860.8,93.1 863.0,92.4 865.3,91.7 867.5,90.8 869.8,90.2 872.0,90.0 872.0,272.0" fill="#e0f2fe" opacity="0.55"/>
<polyline points="52.0,272.0 54.2,271.9 81.2,271.4 83.5,271.3 85.7,271.3 92.4,271.2 105.9,271.2 135.1,271.1 137.4,270.7 139.6,270.7 146.4,270.6 148.6,270.5 150.8,270.5 153.1,270.4 157.6,270.3 159.8,270.1 166.6,269.9 175.6,269.8 177.8,269.7 180.1,269.6 198.0,269.6 202.5,269.5 213.8,269.5 216.0,269.4 218.2,269.4 227.2,269.3 229.5,269.1 231.7,268.8 234.0,268.3 236.2,268.2 251.9,268.1 258.7,268.1 263.2,268.0 265.4,268.0 267.7,267.8 269.9,267.7 272.2,267.7 274.4,267.6 276.7,267.4 285.6,267.2 290.1,267.2 299.1,267.1 301.4,266.9 303.6,266.9 305.9,266.8 310.4,266.7 312.6,265.8 314.8,265.0 317.1,264.6 319.3,264.4 321.6,264.3 323.8,264.1 326.1,263.8 328.3,263.6 330.6,263.5 332.8,263.4 337.3,263.2 339.6,262.9 341.8,262.5 344.1,262.2 346.3,262.0 350.8,261.9 355.3,261.8 357.5,261.5 359.8,261.3 362.0,260.7 364.3,260.3 366.5,260.0 368.8,259.6 371.0,259.2 373.3,258.8 375.5,258.4 377.8,257.9 380.0,257.5 382.2,257.1 384.5,256.8 386.7,256.5 389.0,256.2 391.2,256.0 393.5,255.8 395.7,255.5 398.0,255.5 400.2,255.4 404.7,255.3 407.0,254.4 409.2,253.8 411.5,253.7 413.7,253.6 418.2,253.6 420.4,253.4 429.4,253.4 433.9,253.3 440.7,253.2 442.9,252.2 445.2,251.3 447.4,251.0 449.6,250.2 451.9,249.6 454.1,249.2 456.4,249.0 458.6,248.6 460.9,248.4 463.1,248.3 465.4,248.1 467.6,248.1 481.1,247.4 483.3,246.5 485.6,246.3 487.8,246.2 490.1,246.2 505.8,246.1 526.0,245.2 528.3,244.5 530.5,243.7 532.8,242.4 535.0,242.2 537.3,241.8 539.5,241.1 541.8,240.6 544.0,239.4 546.2,237.6 548.5,235.9 550.7,233.9 553.0,231.8 555.2,229.9 557.5,228.8 559.7,227.4 562.0,225.4 564.2,223.7 566.5,222.5 568.7,221.3 571.0,219.7 573.2,218.6 575.5,217.6 577.7,216.6 579.9,215.9 582.2,215.0 584.4,214.4 586.7,213.8 588.9,213.3 591.2,211.7 593.4,210.4 595.7,209.7 597.9,209.5 600.2,209.1 602.4,208.4 604.7,207.9 606.9,206.8 609.2,206.2 611.4,205.5 613.6,205.5 615.9,205.2 618.1,204.7 620.4,203.4 622.6,201.4 624.9,199.2 627.1,197.0 629.4,195.3 631.6,193.2 633.9,191.0 636.1,188.8 638.4,186.7 640.6,185.2 642.8,184.0 645.1,182.7 647.3,181.3 649.6,180.4 651.8,179.4 654.1,178.6 656.3,177.5 658.6,175.9 660.8,174.1 663.1,172.5 665.3,171.2 667.6,170.3 669.8,169.5 672.1,168.7 674.3,167.8 676.5,166.3 678.8,165.0 681.0,163.5 683.3,161.9 685.5,160.6 687.8,159.5 690.0,159.1 692.3,158.5 694.5,157.9 696.8,157.8 699.0,157.7 701.3,157.4 703.5,157.3 705.8,157.2 708.0,157.0 710.2,156.9 717.0,156.9 719.2,156.8 721.5,156.5 723.7,154.7 726.0,153.2 728.2,151.8 730.5,150.3 732.7,148.9 735.0,147.6 737.2,146.1 739.5,144.8 741.7,143.3 743.9,142.0 746.2,140.7 748.4,139.3 750.7,138.1 752.9,136.7 755.2,135.5 757.4,134.4 759.7,133.1 761.9,131.9 764.2,130.7 766.4,129.5 768.7,128.3 770.9,127.5 773.2,126.8 775.4,126.0 777.6,124.8 779.9,123.8 782.1,122.8 784.4,121.6 786.6,120.6 788.9,119.7 791.1,118.7 793.4,117.6 795.6,116.6 797.9,115.6 800.1,114.5 802.4,113.6 804.6,112.5 806.8,111.7 809.1,110.9 811.3,109.9 813.6,108.9 815.8,108.1 818.1,107.4 820.3,106.7 822.6,106.3 824.8,106.2 827.1,105.3 829.3,104.4 831.6,103.6 833.8,102.6 836.1,101.9 838.3,101.0 840.5,100.2 842.8,99.3 845.0,98.5 847.3,97.8 849.5,97.0 851.8,96.3 854.0,95.4 856.3,94.7 858.5,93.9 860.8,93.1 863.0,92.4 865.3,91.7 867.5,90.8 869.8,90.2 872.0,90.0" fill="none" stroke="#38bdf8" stroke-width="2.5" stroke-linejoin="round" stroke-linecap="round"/>
<circle cx="872.0" cy="90.0" r="4" fill="#0ea5e9"/>
<text x="866.0" y="80.0" text-anchor="end" font-family="Inter, system-ui, sans-serif" font-size="13" font-weight="700" fill="#334155">4135</text>
<text x="52.0" y="294" text-anchor="middle" font-family="Inter, system-ui, sans-serif" font-size="11" fill="#94a3b8">Jun 10 05:00</text>
<text x="573.2" y="294" text-anchor="middle" font-family="Inter, system-ui, sans-serif" font-size="11" fill="#94a3b8">Jun 19 21:00</text>
<text x="872.0" y="294" text-anchor="middle" font-family="Inter, system-ui, sans-serif" font-size="11" fill="#94a3b8">Jun 25 10:00</text>
</svg>
