<svg xmlns="http://www.w3.org/2000/svg" width="900" height="320" viewBox="0 0 900 320" role="img" aria-labelledby="title desc">
<title id="title">Unsorry proofs over time</title>
<desc id="desc">Cumulative kernel-verified proofs over time, by the hour each proof was merged.</desc>
<rect width="900" height="100%" rx="18" fill="#ffffff"/>
<rect x="0.5" y="0.5" width="899" height="319" rx="18" fill="none" stroke="#e2e8f0"/>
<text x="32" y="44" font-family="Inter, system-ui, sans-serif" font-size="28" font-weight="700" fill="#334155">Unsorry — Proofs Over Time</text>
<text x="32" y="72" font-family="Inter, system-ui, sans-serif" font-size="13" fill="#64748b">2353 cumulative kernel-verified proofs · merged, hourly</text>
<line x1="52" y1="272.0" x2="872" y2="272.0" stroke="#f1f5f9"/>
<text x="44" y="276.0" text-anchor="end" font-family="Inter, system-ui, sans-serif" font-size="11" fill="#94a3b8">0</text>
<line x1="52" y1="226.5" x2="872" y2="226.5" stroke="#f1f5f9"/>
<text x="44" y="230.5" text-anchor="end" font-family="Inter, system-ui, sans-serif" font-size="11" fill="#94a3b8">588</text>
<line x1="52" y1="181.0" x2="872" y2="181.0" stroke="#f1f5f9"/>
<text x="44" y="185.0" text-anchor="end" font-family="Inter, system-ui, sans-serif" font-size="11" fill="#94a3b8">1176</text>
<line x1="52" y1="135.5" x2="872" y2="135.5" stroke="#f1f5f9"/>
<text x="44" y="139.5" text-anchor="end" font-family="Inter, system-ui, sans-serif" font-size="11" fill="#94a3b8">1765</text>
<line x1="52" y1="90.0" x2="872" y2="90.0" stroke="#f1f5f9"/>
<text x="44" y="94.0" text-anchor="end" font-family="Inter, system-ui, sans-serif" font-size="11" fill="#94a3b8">2353</text>
<polygon points="52.0,272.0 52.0,271.9 55.0,271.8 90.5,271.0 93.4,270.8 96.4,270.7 105.3,270.6 123.0,270.5 161.5,270.5 164.5,269.8 167.5,269.7 176.3,269.5 179.3,269.4 182.3,269.4 185.2,269.1 191.1,269.1 194.1,268.7 203.0,268.4 214.8,268.2 217.8,268.0 220.7,267.8 244.4,267.7 250.3,267.7 265.1,267.6 268.1,267.5 271.1,267.4 282.9,267.3 285.9,266.8 288.8,266.4 291.8,265.4 294.7,265.3 315.5,265.2 324.3,265.1 330.3,265.0 333.2,265.0 336.2,264.6 339.1,264.5 342.1,264.4 345.1,264.2 348.0,264.0 359.9,263.6 365.8,263.5 377.6,263.4 380.6,263.0 383.6,263.0 386.5,262.8 392.4,262.7 395.4,261.2 398.4,259.6 401.3,259.1 404.3,258.7 407.2,258.5 410.2,258.2 413.2,257.6 416.1,257.2 419.1,257.0 422.0,256.8 428.0,256.6 430.9,256.0 433.9,255.4 436.8,254.8 439.8,254.4 445.7,254.2 451.6,254.1 454.6,253.6 457.6,253.2 460.5,252.1 463.5,251.5 466.4,250.9 469.4,250.3 472.4,249.6 475.3,248.9 478.3,248.1 481.2,247.2 484.2,246.5 487.2,245.8 490.1,245.3 493.1,244.8 496.0,244.2 499.0,243.8 502.0,243.5 504.9,243.1 507.9,242.9 510.8,242.8 516.8,242.7 519.7,241.1 522.7,240.1 525.6,239.8 528.6,239.7 534.5,239.6 537.5,239.4 549.3,239.3 555.2,239.1 564.1,239.0 567.1,237.3 570.1,235.6 573.0,235.1 576.0,233.7 578.9,232.6 581.9,231.9 584.9,231.5 587.8,230.9 590.8,230.5 593.7,230.4 596.7,230.1 599.7,229.9 617.4,228.7 620.4,227.1 623.3,226.9 626.3,226.7 629.3,226.6 650.0,226.5 676.6,224.9 679.6,223.7 682.5,222.2 685.5,220.0 688.5,219.6 691.4,218.9 694.4,217.7 697.3,216.8 700.3,214.7 703.3,211.6 706.2,208.6 709.2,205.0 712.1,201.3 715.1,198.1 718.1,196.0 721.0,193.6 724.0,190.1 726.9,187.1 729.9,185.1 732.9,183.0 735.8,180.0 738.8,178.2 741.7,176.3 744.7,174.7 747.7,173.5 750.6,171.8 753.6,170.8 756.5,169.7 759.5,168.8 762.5,166.0 765.4,163.8 768.4,162.6 771.4,162.2 774.3,161.5 777.3,160.3 780.2,159.3 783.2,157.4 786.2,156.3 789.1,155.2 792.1,155.0 795.0,154.6 798.0,153.7 801.0,151.5 803.9,147.9 806.9,144.1 809.8,140.3 812.8,137.2 815.8,133.5 818.7,129.7 821.7,125.7 824.6,122.1 827.6,119.5 830.6,117.4 833.5,115.0 836.5,112.7 839.4,111.1 842.4,109.3 845.4,107.9 848.3,105.9 851.3,103.1 854.2,99.9 857.2,97.2 860.2,94.8 863.1,93.2 866.1,91.9 869.0,90.5 872.0,90.0 872.0,272.0" fill="#e0f2fe" opacity="0.55"/>
<polyline points="52.0,271.9 55.0,271.8 90.5,271.0 93.4,270.8 96.4,270.7 105.3,270.6 123.0,270.5 161.5,270.5 164.5,269.8 167.5,269.7 176.3,269.5 179.3,269.4 182.3,269.4 185.2,269.1 191.1,269.1 194.1,268.7 203.0,268.4 214.8,268.2 217.8,268.0 220.7,267.8 244.4,267.7 250.3,267.7 265.1,267.6 268.1,267.5 271.1,267.4 282.9,267.3 285.9,266.8 288.8,266.4 291.8,265.4 294.7,265.3 315.5,265.2 324.3,265.1 330.3,265.0 333.2,265.0 336.2,264.6 339.1,264.5 342.1,264.4 345.1,264.2 348.0,264.0 359.9,263.6 365.8,263.5 377.6,263.4 380.6,263.0 383.6,263.0 386.5,262.8 392.4,262.7 395.4,261.2 398.4,259.6 401.3,259.1 404.3,258.7 407.2,258.5 410.2,258.2 413.2,257.6 416.1,257.2 419.1,257.0 422.0,256.8 428.0,256.6 430.9,256.0 433.9,255.4 436.8,254.8 439.8,254.4 445.7,254.2 451.6,254.1 454.6,253.6 457.6,253.2 460.5,252.1 463.5,251.5 466.4,250.9 469.4,250.3 472.4,249.6 475.3,248.9 478.3,248.1 481.2,247.2 484.2,246.5 487.2,245.8 490.1,245.3 493.1,244.8 496.0,244.2 499.0,243.8 502.0,243.5 504.9,243.1 507.9,242.9 510.8,242.8 516.8,242.7 519.7,241.1 522.7,240.1 525.6,239.8 528.6,239.7 534.5,239.6 537.5,239.4 549.3,239.3 555.2,239.1 564.1,239.0 567.1,237.3 570.1,235.6 573.0,235.1 576.0,233.7 578.9,232.6 581.9,231.9 584.9,231.5 587.8,230.9 590.8,230.5 593.7,230.4 596.7,230.1 599.7,229.9 617.4,228.7 620.4,227.1 623.3,226.9 626.3,226.7 629.3,226.6 650.0,226.5 676.6,224.9 679.6,223.7 682.5,222.2 685.5,220.0 688.5,219.6 691.4,218.9 694.4,217.7 697.3,216.8 700.3,214.7 703.3,211.6 706.2,208.6 709.2,205.0 712.1,201.3 715.1,198.1 718.1,196.0 721.0,193.6 724.0,190.1 726.9,187.1 729.9,185.1 732.9,183.0 735.8,180.0 738.8,178.2 741.7,176.3 744.7,174.7 747.7,173.5 750.6,171.8 753.6,170.8 756.5,169.7 759.5,168.8 762.5,166.0 765.4,163.8 768.4,162.6 771.4,162.2 774.3,161.5 777.3,160.3 780.2,159.3 783.2,157.4 786.2,156.3 789.1,155.2 792.1,155.0 795.0,154.6 798.0,153.7 801.0,151.5 803.9,147.9 806.9,144.1 809.8,140.3 812.8,137.2 815.8,133.5 818.7,129.7 821.7,125.7 824.6,122.1 827.6,119.5 830.6,117.4 833.5,115.0 836.5,112.7 839.4,111.1 842.4,109.3 845.4,107.9 848.3,105.9 851.3,103.1 854.2,99.9 857.2,97.2 860.2,94.8 863.1,93.2 866.1,91.9 869.0,90.5 872.0,90.0" fill="none" stroke="#38bdf8" stroke-width="2.5" stroke-linejoin="round" stroke-linecap="round"/>
<circle cx="872.0" cy="90.0" r="4" fill="#0ea5e9"/>
<text x="866.0" y="80.0" text-anchor="end" font-family="Inter, system-ui, sans-serif" font-size="13" font-weight="700" fill="#334155">2353</text>
<text x="52.0" y="294" text-anchor="middle" font-family="Inter, system-ui, sans-serif" font-size="11" fill="#94a3b8">Jun 10 05:00</text>
<text x="537.5" y="294" text-anchor="middle" font-family="Inter, system-ui, sans-serif" font-size="11" fill="#94a3b8">Jun 17 01:00</text>
<text x="872.0" y="294" text-anchor="middle" font-family="Inter, system-ui, sans-serif" font-size="11" fill="#94a3b8">Jun 21 18:00</text>
</svg>
