<svg xmlns="http://www.w3.org/2000/svg" width="900" height="320" viewBox="0 0 900 320" role="img" aria-labelledby="title desc">
<title id="title">unsorry proofs over time</title>
<desc id="desc">Cumulative kernel-verified proofs over time, by the hour each proof was merged.</desc>
<rect width="900" height="100%" rx="18" fill="#ffffff"/>
<rect x="0.5" y="0.5" width="899" height="319" rx="18" fill="none" stroke="#e2e8f0"/>
<text x="32" y="44" font-family="Inter, system-ui, sans-serif" font-size="28" font-weight="700" fill="#334155">unsorry — Proofs Over Time</text>
<text x="32" y="72" font-family="Inter, system-ui, sans-serif" font-size="13" fill="#64748b">4185 cumulative kernel-verified proofs · merged, hourly</text>
<line x1="52" y1="272.0" x2="872" y2="272.0" stroke="#f1f5f9"/>
<text x="44" y="276.0" text-anchor="end" font-family="Inter, system-ui, sans-serif" font-size="11" fill="#94a3b8">0</text>
<line x1="52" y1="226.5" x2="872" y2="226.5" stroke="#f1f5f9"/>
<text x="44" y="230.5" text-anchor="end" font-family="Inter, system-ui, sans-serif" font-size="11" fill="#94a3b8">1046</text>
<line x1="52" y1="181.0" x2="872" y2="181.0" stroke="#f1f5f9"/>
<text x="44" y="185.0" text-anchor="end" font-family="Inter, system-ui, sans-serif" font-size="11" fill="#94a3b8">2092</text>
<line x1="52" y1="135.5" x2="872" y2="135.5" stroke="#f1f5f9"/>
<text x="44" y="139.5" text-anchor="end" font-family="Inter, system-ui, sans-serif" font-size="11" fill="#94a3b8">3139</text>
<line x1="52" y1="90.0" x2="872" y2="90.0" stroke="#f1f5f9"/>
<text x="44" y="94.0" text-anchor="end" font-family="Inter, system-ui, sans-serif" font-size="11" fill="#94a3b8">4185</text>
<polygon points="52.0,272.0 52.0,272.0 54.2,271.9 81.0,271.4 83.3,271.3 85.5,271.3 92.2,271.2 105.6,271.2 134.7,271.1 136.9,270.7 139.1,270.7 145.8,270.6 148.1,270.6 150.3,270.5 152.5,270.4 157.0,270.3 159.2,270.1 166.0,270.0 174.9,269.9 177.1,269.7 179.4,269.7 197.2,269.6 201.7,269.6 212.9,269.5 215.1,269.5 217.3,269.4 226.3,269.3 228.5,269.1 230.7,268.9 233.0,268.3 235.2,268.2 250.9,268.2 257.6,268.1 262.0,268.1 264.3,268.0 266.5,267.8 268.7,267.8 271.0,267.7 273.2,267.6 275.4,267.5 284.4,267.3 288.8,267.2 297.8,267.2 300.0,267.0 302.2,266.9 304.5,266.8 308.9,266.8 311.2,265.9 313.4,265.0 315.7,264.7 317.9,264.5 320.1,264.4 322.4,264.2 324.6,263.9 326.8,263.7 329.1,263.6 331.3,263.5 335.8,263.3 338.0,263.0 340.2,262.6 342.5,262.3 344.7,262.1 349.2,262.0 353.6,262.0 355.9,261.6 358.1,261.4 360.3,260.8 362.6,260.5 364.8,260.1 367.0,259.8 369.3,259.4 371.5,259.0 373.7,258.6 376.0,258.1 378.2,257.6 380.4,257.3 382.7,257.0 384.9,256.7 387.1,256.3 389.4,256.2 391.6,256.0 393.9,255.7 396.1,255.6 398.3,255.6 402.8,255.5 405.0,254.6 407.3,254.0 409.5,253.9 411.7,253.9 416.2,253.8 418.4,253.6 427.4,253.6 431.8,253.5 438.5,253.5 440.8,252.5 443.0,251.5 445.2,251.3 447.5,250.5 449.7,249.9 451.9,249.5 454.2,249.3 456.4,248.9 458.6,248.7 460.9,248.6 463.1,248.4 465.4,248.3 478.8,247.6 481.0,246.8 483.2,246.6 485.5,246.5 487.7,246.5 503.3,246.4 523.4,245.5 525.7,244.8 527.9,244.0 530.1,242.8 532.4,242.6 534.6,242.2 536.9,241.5 539.1,240.9 541.3,239.8 543.6,238.0 545.8,236.3 548.0,234.3 550.3,232.3 552.5,230.4 554.7,229.3 557.0,227.9 559.2,225.9 561.4,224.2 563.7,223.1 565.9,221.9 568.1,220.3 570.4,219.2 572.6,218.2 574.8,217.3 577.1,216.6 579.3,215.7 581.5,215.1 583.8,214.5 586.0,214.0 588.2,212.4 590.5,211.2 592.7,210.5 594.9,210.2 597.2,209.9 599.4,209.2 601.6,208.6 603.9,207.6 606.1,206.9 608.3,206.3 610.6,206.2 612.8,206.0 615.1,205.5 617.3,204.2 619.5,202.2 621.8,200.1 624.0,197.9 626.2,196.2 628.5,194.2 630.7,192.0 632.9,189.8 635.2,187.7 637.4,186.2 639.6,185.1 641.9,183.7 644.1,182.4 646.3,181.5 648.6,180.5 650.8,179.7 653.0,178.6 655.3,177.1 657.5,175.2 659.7,173.7 662.0,172.4 664.2,171.5 666.4,170.7 668.7,169.9 670.9,169.1 673.1,167.6 675.4,166.3 677.6,164.8 679.8,163.2 682.1,161.9 684.3,160.9 686.6,160.5 688.8,159.8 691.0,159.2 693.3,159.1 695.5,159.1 697.7,158.8 700.0,158.6 702.2,158.6 704.4,158.4 706.7,158.3 713.4,158.2 715.6,158.2 717.8,157.9 720.1,156.1 722.3,154.6 724.5,153.3 726.8,151.8 729.0,150.4 731.2,149.1 733.5,147.6 735.7,146.3 737.9,144.9 740.2,143.6 742.4,142.2 744.6,140.9 746.9,139.7 749.1,138.4 751.3,137.1 753.6,136.0 755.8,134.8 758.0,133.6 760.3,132.4 762.5,131.2 764.8,130.1 767.0,129.3 769.2,128.5 771.5,127.7 773.7,126.6 775.9,125.6 778.2,124.6 780.4,123.4 782.6,122.4 784.9,121.5 787.1,120.5 789.3,119.4 791.6,118.4 793.8,117.5 796.0,116.4 798.3,115.5 800.5,114.4 802.7,113.6 805.0,112.8 807.2,111.8 809.4,110.9 811.7,110.0 813.9,109.4 816.1,108.7 818.4,108.3 820.6,108.2 822.8,107.3 825.1,106.4 827.3,105.6 829.5,104.7 831.8,103.9 834.0,103.0 836.3,102.2 838.5,101.4 840.7,100.6 843.0,99.9 845.2,99.1 847.4,98.4 849.7,97.5 851.9,96.8 854.1,96.0 856.4,95.3 858.6,94.5 860.8,93.9 863.1,93.0 865.3,92.4 867.5,91.8 869.8,90.9 872.0,90.0 872.0,272.0" fill="#e0f2fe" opacity="0.55"/>
<polyline points="52.0,272.0 54.2,271.9 81.0,271.4 83.3,271.3 85.5,271.3 92.2,271.2 105.6,271.2 134.7,271.1 136.9,270.7 139.1,270.7 145.8,270.6 148.1,270.6 150.3,270.5 152.5,270.4 157.0,270.3 159.2,270.1 166.0,270.0 174.9,269.9 177.1,269.7 179.4,269.7 197.2,269.6 201.7,269.6 212.9,269.5 215.1,269.5 217.3,269.4 226.3,269.3 228.5,269.1 230.7,268.9 233.0,268.3 235.2,268.2 250.9,268.2 257.6,268.1 262.0,268.1 264.3,268.0 266.5,267.8 268.7,267.8 271.0,267.7 273.2,267.6 275.4,267.5 284.4,267.3 288.8,267.2 297.8,267.2 300.0,267.0 302.2,266.9 304.5,266.8 308.9,266.8 311.2,265.9 313.4,265.0 315.7,264.7 317.9,264.5 320.1,264.4 322.4,264.2 324.6,263.9 326.8,263.7 329.1,263.6 331.3,263.5 335.8,263.3 338.0,263.0 340.2,262.6 342.5,262.3 344.7,262.1 349.2,262.0 353.6,262.0 355.9,261.6 358.1,261.4 360.3,260.8 362.6,260.5 364.8,260.1 367.0,259.8 369.3,259.4 371.5,259.0 373.7,258.6 376.0,258.1 378.2,257.6 380.4,257.3 382.7,257.0 384.9,256.7 387.1,256.3 389.4,256.2 391.6,256.0 393.9,255.7 396.1,255.6 398.3,255.6 402.8,255.5 405.0,254.6 407.3,254.0 409.5,253.9 411.7,253.9 416.2,253.8 418.4,253.6 427.4,253.6 431.8,253.5 438.5,253.5 440.8,252.5 443.0,251.5 445.2,251.3 447.5,250.5 449.7,249.9 451.9,249.5 454.2,249.3 456.4,248.9 458.6,248.7 460.9,248.6 463.1,248.4 465.4,248.3 478.8,247.6 481.0,246.8 483.2,246.6 485.5,246.5 487.7,246.5 503.3,246.4 523.4,245.5 525.7,244.8 527.9,244.0 530.1,242.8 532.4,242.6 534.6,242.2 536.9,241.5 539.1,240.9 541.3,239.8 543.6,238.0 545.8,236.3 548.0,234.3 550.3,232.3 552.5,230.4 554.7,229.3 557.0,227.9 559.2,225.9 561.4,224.2 563.7,223.1 565.9,221.9 568.1,220.3 570.4,219.2 572.6,218.2 574.8,217.3 577.1,216.6 579.3,215.7 581.5,215.1 583.8,214.5 586.0,214.0 588.2,212.4 590.5,211.2 592.7,210.5 594.9,210.2 597.2,209.9 599.4,209.2 601.6,208.6 603.9,207.6 606.1,206.9 608.3,206.3 610.6,206.2 612.8,206.0 615.1,205.5 617.3,204.2 619.5,202.2 621.8,200.1 624.0,197.9 626.2,196.2 628.5,194.2 630.7,192.0 632.9,189.8 635.2,187.7 637.4,186.2 639.6,185.1 641.9,183.7 644.1,182.4 646.3,181.5 648.6,180.5 650.8,179.7 653.0,178.6 655.3,177.1 657.5,175.2 659.7,173.7 662.0,172.4 664.2,171.5 666.4,170.7 668.7,169.9 670.9,169.1 673.1,167.6 675.4,166.3 677.6,164.8 679.8,163.2 682.1,161.9 684.3,160.9 686.6,160.5 688.8,159.8 691.0,159.2 693.3,159.1 695.5,159.1 697.7,158.8 700.0,158.6 702.2,158.6 704.4,158.4 706.7,158.3 713.4,158.2 715.6,158.2 717.8,157.9 720.1,156.1 722.3,154.6 724.5,153.3 726.8,151.8 729.0,150.4 731.2,149.1 733.5,147.6 735.7,146.3 737.9,144.9 740.2,143.6 742.4,142.2 744.6,140.9 746.9,139.7 749.1,138.4 751.3,137.1 753.6,136.0 755.8,134.8 758.0,133.6 760.3,132.4 762.5,131.2 764.8,130.1 767.0,129.3 769.2,128.5 771.5,127.7 773.7,126.6 775.9,125.6 778.2,124.6 780.4,123.4 782.6,122.4 784.9,121.5 787.1,120.5 789.3,119.4 791.6,118.4 793.8,117.5 796.0,116.4 798.3,115.5 800.5,114.4 802.7,113.6 805.0,112.8 807.2,111.8 809.4,110.9 811.7,110.0 813.9,109.4 816.1,108.7 818.4,108.3 820.6,108.2 822.8,107.3 825.1,106.4 827.3,105.6 829.5,104.7 831.8,103.9 834.0,103.0 836.3,102.2 838.5,101.4 840.7,100.6 843.0,99.9 845.2,99.1 847.4,98.4 849.7,97.5 851.9,96.8 854.1,96.0 856.4,95.3 858.6,94.5 860.8,93.9 863.1,93.0 865.3,92.4 867.5,91.8 869.8,90.9 872.0,90.0" fill="none" stroke="#38bdf8" stroke-width="2.5" stroke-linejoin="round" stroke-linecap="round"/>
<circle cx="872.0" cy="90.0" r="4" fill="#0ea5e9"/>
<text x="866.0" y="80.0" text-anchor="end" font-family="Inter, system-ui, sans-serif" font-size="13" font-weight="700" fill="#334155">4185</text>
<text x="52.0" y="294" text-anchor="middle" font-family="Inter, system-ui, sans-serif" font-size="11" fill="#94a3b8">Jun 10 05:00</text>
<text x="572.6" y="294" text-anchor="middle" font-family="Inter, system-ui, sans-serif" font-size="11" fill="#94a3b8">Jun 19 22:00</text>
<text x="872.0" y="294" text-anchor="middle" font-family="Inter, system-ui, sans-serif" font-size="11" fill="#94a3b8">Jun 25 12:00</text>
</svg>
