<svg xmlns="http://www.w3.org/2000/svg" width="900" height="320" viewBox="0 0 900 320" role="img" aria-labelledby="title desc">
<title id="title">unsorry proofs over time</title>
<desc id="desc">Cumulative kernel-verified proofs over time, by the hour each proof was merged.</desc>
<rect width="900" height="100%" rx="18" fill="#ffffff"/>
<rect x="0.5" y="0.5" width="899" height="319" rx="18" fill="none" stroke="#e2e8f0"/>
<text x="32" y="44" font-family="Inter, system-ui, sans-serif" font-size="28" font-weight="700" fill="#334155">unsorry — Proofs Over Time</text>
<text x="32" y="72" font-family="Inter, system-ui, sans-serif" font-size="13" fill="#64748b">3767 cumulative kernel-verified proofs · merged, hourly</text>
<line x1="52" y1="272.0" x2="872" y2="272.0" stroke="#f1f5f9"/>
<text x="44" y="276.0" text-anchor="end" font-family="Inter, system-ui, sans-serif" font-size="11" fill="#94a3b8">0</text>
<line x1="52" y1="226.5" x2="872" y2="226.5" stroke="#f1f5f9"/>
<text x="44" y="230.5" text-anchor="end" font-family="Inter, system-ui, sans-serif" font-size="11" fill="#94a3b8">942</text>
<line x1="52" y1="181.0" x2="872" y2="181.0" stroke="#f1f5f9"/>
<text x="44" y="185.0" text-anchor="end" font-family="Inter, system-ui, sans-serif" font-size="11" fill="#94a3b8">1884</text>
<line x1="52" y1="135.5" x2="872" y2="135.5" stroke="#f1f5f9"/>
<text x="44" y="139.5" text-anchor="end" font-family="Inter, system-ui, sans-serif" font-size="11" fill="#94a3b8">2825</text>
<line x1="52" y1="90.0" x2="872" y2="90.0" stroke="#f1f5f9"/>
<text x="44" y="94.0" text-anchor="end" font-family="Inter, system-ui, sans-serif" font-size="11" fill="#94a3b8">3767</text>
<polygon points="52.0,272.0 52.0,272.0 54.4,271.9 83.0,271.4 85.4,271.2 87.8,271.2 94.9,271.1 109.2,271.1 140.2,271.0 142.6,270.6 145.0,270.6 152.1,270.5 154.5,270.4 156.9,270.4 159.3,270.2 164.0,270.2 166.4,269.9 173.6,269.7 183.1,269.6 185.5,269.5 187.9,269.4 206.9,269.3 211.7,269.3 223.6,269.2 226.0,269.2 228.4,269.1 237.9,269.1 240.3,268.8 242.7,268.5 245.1,267.9 247.5,267.8 264.2,267.7 271.3,267.7 276.1,267.7 278.5,267.6 280.8,267.4 283.2,267.3 285.6,267.3 288.0,267.1 290.4,267.0 299.9,266.7 304.7,266.7 314.2,266.6 316.6,266.4 319.0,266.3 321.4,266.3 326.1,266.2 328.5,265.2 330.9,264.3 333.3,263.9 335.7,263.7 338.0,263.6 340.4,263.4 342.8,263.0 345.2,262.8 347.6,262.6 350.0,262.5 354.7,262.4 357.1,262.0 359.5,261.6 361.9,261.2 364.3,261.0 369.0,260.9 373.8,260.8 376.2,260.5 378.6,260.3 381.0,259.6 383.3,259.2 385.7,258.8 388.1,258.4 390.5,258.0 392.9,257.6 395.3,257.1 397.6,256.5 400.0,256.1 402.4,255.6 404.8,255.3 407.2,255.0 409.6,254.6 411.9,254.4 414.3,254.2 416.7,253.9 419.1,253.8 421.5,253.7 426.2,253.7 428.6,252.7 431.0,252.0 433.4,251.9 435.8,251.9 440.5,251.8 442.9,251.6 452.5,251.6 457.2,251.5 464.4,251.4 466.8,250.3 469.2,249.2 471.5,249.0 473.9,248.1 476.3,247.4 478.7,247.0 481.1,246.7 483.5,246.3 485.8,246.1 488.2,246.0 490.6,245.8 493.0,245.7 507.3,244.9 509.7,244.0 512.1,243.8 514.4,243.7 516.8,243.6 533.5,243.6 555.0,242.6 557.3,241.8 559.7,240.9 562.1,239.5 564.5,239.3 566.9,238.9 569.3,238.1 571.7,237.5 574.0,236.2 576.4,234.3 578.8,232.4 581.2,230.2 583.6,227.8 586.0,225.8 588.3,224.6 590.7,223.1 593.1,220.8 595.5,219.0 597.9,217.7 600.3,216.4 602.6,214.6 605.0,213.4 607.4,212.2 609.8,211.2 612.2,210.4 614.6,209.4 616.9,208.8 619.3,208.1 621.7,207.5 624.1,205.8 626.5,204.4 628.9,203.6 631.2,203.4 633.6,203.0 636.0,202.2 638.4,201.6 640.8,200.4 643.2,199.7 645.5,199.0 647.9,198.9 650.3,198.7 652.7,198.1 655.1,196.7 657.5,194.5 659.8,192.1 662.2,189.7 664.6,187.8 667.0,185.5 669.4,183.1 671.8,180.6 674.2,178.4 676.5,176.7 678.9,175.4 681.3,173.9 683.7,172.5 686.1,171.5 688.5,170.3 690.8,169.5 693.2,168.2 695.6,166.5 698.0,164.5 700.4,162.8 702.8,161.3 705.1,160.3 707.5,159.5 709.9,158.6 712.3,157.6 714.7,156.0 717.1,154.6 719.4,152.9 721.8,151.2 724.2,149.7 726.6,148.6 729.0,148.1 731.4,147.4 733.7,146.7 736.1,146.6 738.5,146.5 740.9,146.2 743.3,146.0 745.7,146.0 748.0,145.8 750.4,145.7 757.6,145.6 760.0,145.6 762.3,145.3 764.7,143.3 767.1,141.6 769.5,140.1 771.9,138.4 774.3,136.9 776.7,135.4 779.0,133.8 781.4,132.4 783.8,130.8 786.2,129.3 788.6,127.8 791.0,126.4 793.3,125.0 795.7,123.5 798.1,122.1 800.5,120.9 802.9,119.6 805.3,118.2 807.6,116.9 810.0,115.6 812.4,114.3 814.8,113.4 817.2,112.6 819.6,111.7 821.9,110.4 824.3,109.3 826.7,108.3 829.1,107.0 831.5,105.8 833.9,104.8 836.2,103.7 838.6,102.5 841.0,101.4 843.4,100.3 845.8,99.1 848.2,98.1 850.5,97.0 852.9,96.0 855.3,95.1 857.7,94.0 860.1,93.0 862.5,92.1 864.8,91.3 867.2,90.6 869.6,90.1 872.0,90.0 872.0,272.0" fill="#e0f2fe" opacity="0.55"/>
<polyline points="52.0,272.0 54.4,271.9 83.0,271.4 85.4,271.2 87.8,271.2 94.9,271.1 109.2,271.1 140.2,271.0 142.6,270.6 145.0,270.6 152.1,270.5 154.5,270.4 156.9,270.4 159.3,270.2 164.0,270.2 166.4,269.9 173.6,269.7 183.1,269.6 185.5,269.5 187.9,269.4 206.9,269.3 211.7,269.3 223.6,269.2 226.0,269.2 228.4,269.1 237.9,269.1 240.3,268.8 242.7,268.5 245.1,267.9 247.5,267.8 264.2,267.7 271.3,267.7 276.1,267.7 278.5,267.6 280.8,267.4 283.2,267.3 285.6,267.3 288.0,267.1 290.4,267.0 299.9,266.7 304.7,266.7 314.2,266.6 316.6,266.4 319.0,266.3 321.4,266.3 326.1,266.2 328.5,265.2 330.9,264.3 333.3,263.9 335.7,263.7 338.0,263.6 340.4,263.4 342.8,263.0 345.2,262.8 347.6,262.6 350.0,262.5 354.7,262.4 357.1,262.0 359.5,261.6 361.9,261.2 364.3,261.0 369.0,260.9 373.8,260.8 376.2,260.5 378.6,260.3 381.0,259.6 383.3,259.2 385.7,258.8 388.1,258.4 390.5,258.0 392.9,257.6 395.3,257.1 397.6,256.5 400.0,256.1 402.4,255.6 404.8,255.3 407.2,255.0 409.6,254.6 411.9,254.4 414.3,254.2 416.7,253.9 419.1,253.8 421.5,253.7 426.2,253.7 428.6,252.7 431.0,252.0 433.4,251.9 435.8,251.9 440.5,251.8 442.9,251.6 452.5,251.6 457.2,251.5 464.4,251.4 466.8,250.3 469.2,249.2 471.5,249.0 473.9,248.1 476.3,247.4 478.7,247.0 481.1,246.7 483.5,246.3 485.8,246.1 488.2,246.0 490.6,245.8 493.0,245.7 507.3,244.9 509.7,244.0 512.1,243.8 514.4,243.7 516.8,243.6 533.5,243.6 555.0,242.6 557.3,241.8 559.7,240.9 562.1,239.5 564.5,239.3 566.9,238.9 569.3,238.1 571.7,237.5 574.0,236.2 576.4,234.3 578.8,232.4 581.2,230.2 583.6,227.8 586.0,225.8 588.3,224.6 590.7,223.1 593.1,220.8 595.5,219.0 597.9,217.7 600.3,216.4 602.6,214.6 605.0,213.4 607.4,212.2 609.8,211.2 612.2,210.4 614.6,209.4 616.9,208.8 619.3,208.1 621.7,207.5 624.1,205.8 626.5,204.4 628.9,203.6 631.2,203.4 633.6,203.0 636.0,202.2 638.4,201.6 640.8,200.4 643.2,199.7 645.5,199.0 647.9,198.9 650.3,198.7 652.7,198.1 655.1,196.7 657.5,194.5 659.8,192.1 662.2,189.7 664.6,187.8 667.0,185.5 669.4,183.1 671.8,180.6 674.2,178.4 676.5,176.7 678.9,175.4 681.3,173.9 683.7,172.5 686.1,171.5 688.5,170.3 690.8,169.5 693.2,168.2 695.6,166.5 698.0,164.5 700.4,162.8 702.8,161.3 705.1,160.3 707.5,159.5 709.9,158.6 712.3,157.6 714.7,156.0 717.1,154.6 719.4,152.9 721.8,151.2 724.2,149.7 726.6,148.6 729.0,148.1 731.4,147.4 733.7,146.7 736.1,146.6 738.5,146.5 740.9,146.2 743.3,146.0 745.7,146.0 748.0,145.8 750.4,145.7 757.6,145.6 760.0,145.6 762.3,145.3 764.7,143.3 767.1,141.6 769.5,140.1 771.9,138.4 774.3,136.9 776.7,135.4 779.0,133.8 781.4,132.4 783.8,130.8 786.2,129.3 788.6,127.8 791.0,126.4 793.3,125.0 795.7,123.5 798.1,122.1 800.5,120.9 802.9,119.6 805.3,118.2 807.6,116.9 810.0,115.6 812.4,114.3 814.8,113.4 817.2,112.6 819.6,111.7 821.9,110.4 824.3,109.3 826.7,108.3 829.1,107.0 831.5,105.8 833.9,104.8 836.2,103.7 838.6,102.5 841.0,101.4 843.4,100.3 845.8,99.1 848.2,98.1 850.5,97.0 852.9,96.0 855.3,95.1 857.7,94.0 860.1,93.0 862.5,92.1 864.8,91.3 867.2,90.6 869.6,90.1 872.0,90.0" fill="none" stroke="#38bdf8" stroke-width="2.5" stroke-linejoin="round" stroke-linecap="round"/>
<circle cx="872.0" cy="90.0" r="4" fill="#0ea5e9"/>
<text x="866.0" y="80.0" text-anchor="end" font-family="Inter, system-ui, sans-serif" font-size="13" font-weight="700" fill="#334155">3767</text>
<text x="52.0" y="294" text-anchor="middle" font-family="Inter, system-ui, sans-serif" font-size="11" fill="#94a3b8">Jun 10 05:00</text>
<text x="578.8" y="294" text-anchor="middle" font-family="Inter, system-ui, sans-serif" font-size="11" fill="#94a3b8">Jun 19 10:00</text>
<text x="872.0" y="294" text-anchor="middle" font-family="Inter, system-ui, sans-serif" font-size="11" fill="#94a3b8">Jun 24 13:00</text>
</svg>
