<svg xmlns="http://www.w3.org/2000/svg" width="900" height="320" viewBox="0 0 900 320" role="img" aria-labelledby="title desc">
<title id="title">unsorry proofs over time</title>
<desc id="desc">Cumulative kernel-verified proofs over time, by the hour each proof was merged.</desc>
<rect width="900" height="100%" rx="18" fill="#ffffff"/>
<rect x="0.5" y="0.5" width="899" height="319" rx="18" fill="none" stroke="#e2e8f0"/>
<text x="32" y="44" font-family="Inter, system-ui, sans-serif" font-size="28" font-weight="700" fill="#334155">unsorry — Proofs Over Time</text>
<text x="32" y="72" font-family="Inter, system-ui, sans-serif" font-size="13" fill="#64748b">4221 cumulative kernel-verified proofs · merged, hourly</text>
<line x1="52" y1="272.0" x2="872" y2="272.0" stroke="#f1f5f9"/>
<text x="44" y="276.0" text-anchor="end" font-family="Inter, system-ui, sans-serif" font-size="11" fill="#94a3b8">0</text>
<line x1="52" y1="226.5" x2="872" y2="226.5" stroke="#f1f5f9"/>
<text x="44" y="230.5" text-anchor="end" font-family="Inter, system-ui, sans-serif" font-size="11" fill="#94a3b8">1055</text>
<line x1="52" y1="181.0" x2="872" y2="181.0" stroke="#f1f5f9"/>
<text x="44" y="185.0" text-anchor="end" font-family="Inter, system-ui, sans-serif" font-size="11" fill="#94a3b8">2110</text>
<line x1="52" y1="135.5" x2="872" y2="135.5" stroke="#f1f5f9"/>
<text x="44" y="139.5" text-anchor="end" font-family="Inter, system-ui, sans-serif" font-size="11" fill="#94a3b8">3166</text>
<line x1="52" y1="90.0" x2="872" y2="90.0" stroke="#f1f5f9"/>
<text x="44" y="94.0" text-anchor="end" font-family="Inter, system-ui, sans-serif" font-size="11" fill="#94a3b8">4221</text>
<polygon points="52.0,272.0 52.0,272.0 54.2,271.9 80.8,271.4 83.0,271.3 85.2,271.3 91.9,271.2 105.2,271.2 134.0,271.1 136.2,270.7 138.4,270.7 145.1,270.6 147.3,270.6 149.5,270.5 151.7,270.4 156.2,270.4 158.4,270.1 165.0,270.0 173.9,269.9 176.1,269.8 178.3,269.7 196.1,269.6 200.5,269.6 211.6,269.5 213.8,269.5 216.0,269.4 224.9,269.4 227.1,269.1 229.3,268.9 231.5,268.3 233.7,268.2 249.2,268.2 255.9,268.2 260.3,268.1 262.5,268.1 264.8,267.9 267.0,267.8 269.2,267.8 271.4,267.6 273.6,267.5 282.5,267.3 286.9,267.3 295.8,267.2 298.0,267.0 300.2,267.0 302.4,266.9 306.9,266.8 309.1,266.0 311.3,265.1 313.5,264.8 315.7,264.6 317.9,264.5 320.2,264.3 322.4,264.0 324.6,263.8 326.8,263.6 329.0,263.5 333.5,263.4 335.7,263.1 337.9,262.7 340.1,262.4 342.3,262.2 346.8,262.1 351.2,262.0 353.4,261.7 355.6,261.5 357.8,260.9 360.1,260.6 362.3,260.2 364.5,259.9 366.7,259.5 368.9,259.1 371.1,258.7 373.4,258.2 375.6,257.8 377.8,257.4 380.0,257.1 382.2,256.8 384.4,256.5 386.6,256.3 388.9,256.1 391.1,255.9 393.3,255.8 395.5,255.7 399.9,255.7 402.2,254.8 404.4,254.2 406.6,254.1 408.8,254.0 413.2,253.9 415.5,253.8 424.3,253.8 428.8,253.7 435.4,253.6 437.6,252.6 439.8,251.7 442.1,251.4 444.3,250.7 446.5,250.1 448.7,249.7 450.9,249.4 453.1,249.1 455.4,248.9 457.6,248.8 459.8,248.6 462.0,248.5 475.3,247.9 477.5,247.0 479.7,246.9 481.9,246.7 484.2,246.7 499.7,246.6 519.6,245.7 521.8,245.1 524.1,244.2 526.3,243.0 528.5,242.8 530.7,242.4 532.9,241.7 535.1,241.2 537.4,240.0 539.6,238.3 541.8,236.6 544.0,234.7 546.2,232.6 548.4,230.8 550.6,229.7 552.9,228.3 555.1,226.3 557.3,224.7 559.5,223.5 561.7,222.4 563.9,220.7 566.2,219.7 568.4,218.7 570.6,217.8 572.8,217.1 575.0,216.2 577.2,215.6 579.5,215.0 581.7,214.5 583.9,212.9 586.1,211.7 588.3,211.0 590.5,210.8 592.8,210.4 595.0,209.7 597.2,209.2 599.4,208.1 601.6,207.5 603.8,206.9 606.1,206.8 608.3,206.5 610.5,206.1 612.7,204.8 614.9,202.8 617.1,200.7 619.4,198.6 621.6,196.8 623.8,194.8 626.0,192.7 628.2,190.5 630.4,188.4 632.6,187.0 634.9,185.8 637.1,184.5 639.3,183.2 641.5,182.3 643.7,181.3 645.9,180.5 648.2,179.4 650.4,177.9 652.6,176.1 654.8,174.6 657.0,173.2 659.2,172.4 661.5,171.6 663.7,170.8 665.9,169.9 668.1,168.5 670.3,167.2 672.5,165.7 674.8,164.2 677.0,162.9 679.2,161.8 681.4,161.4 683.6,160.8 685.8,160.2 688.1,160.1 690.3,160.0 692.5,159.7 694.7,159.6 696.9,159.5 699.1,159.3 701.4,159.2 708.0,159.2 710.2,159.2 712.4,158.9 714.6,157.1 716.9,155.6 719.1,154.3 721.3,152.8 723.5,151.4 725.7,150.1 727.9,148.7 730.2,147.4 732.4,146.0 734.6,144.7 736.8,143.3 739.0,142.0 741.2,140.8 743.5,139.5 745.7,138.2 747.9,137.2 750.1,136.0 752.3,134.8 754.5,133.5 756.8,132.4 759.0,131.3 761.2,130.5 763.4,129.7 765.6,128.9 767.8,127.8 770.1,126.8 772.3,125.9 774.5,124.7 776.7,123.7 778.9,122.8 781.1,121.8 783.4,120.7 785.6,119.8 787.8,118.8 790.0,117.7 792.2,116.8 794.4,115.8 796.6,115.0 798.9,114.1 801.1,113.2 803.3,112.2 805.5,111.4 807.7,110.7 809.9,110.1 812.2,109.7 814.4,109.6 816.6,108.7 818.8,107.9 821.0,107.0 823.2,106.1 825.5,105.3 827.7,104.5 829.9,103.7 832.1,102.8 834.3,102.1 836.5,101.3 838.8,100.6 841.0,99.9 843.2,99.0 845.4,98.3 847.6,97.5 849.8,96.8 852.1,96.0 854.3,95.4 856.5,94.5 858.7,93.9 860.9,93.3 863.1,92.4 865.4,91.6 867.6,90.9 869.8,90.0 872.0,90.0 872.0,272.0" fill="#e0f2fe" opacity="0.55"/>
<polyline points="52.0,272.0 54.2,271.9 80.8,271.4 83.0,271.3 85.2,271.3 91.9,271.2 105.2,271.2 134.0,271.1 136.2,270.7 138.4,270.7 145.1,270.6 147.3,270.6 149.5,270.5 151.7,270.4 156.2,270.4 158.4,270.1 165.0,270.0 173.9,269.9 176.1,269.8 178.3,269.7 196.1,269.6 200.5,269.6 211.6,269.5 213.8,269.5 216.0,269.4 224.9,269.4 227.1,269.1 229.3,268.9 231.5,268.3 233.7,268.2 249.2,268.2 255.9,268.2 260.3,268.1 262.5,268.1 264.8,267.9 267.0,267.8 269.2,267.8 271.4,267.6 273.6,267.5 282.5,267.3 286.9,267.3 295.8,267.2 298.0,267.0 300.2,267.0 302.4,266.9 306.9,266.8 309.1,266.0 311.3,265.1 313.5,264.8 315.7,264.6 317.9,264.5 320.2,264.3 322.4,264.0 324.6,263.8 326.8,263.6 329.0,263.5 333.5,263.4 335.7,263.1 337.9,262.7 340.1,262.4 342.3,262.2 346.8,262.1 351.2,262.0 353.4,261.7 355.6,261.5 357.8,260.9 360.1,260.6 362.3,260.2 364.5,259.9 366.7,259.5 368.9,259.1 371.1,258.7 373.4,258.2 375.6,257.8 377.8,257.4 380.0,257.1 382.2,256.8 384.4,256.5 386.6,256.3 388.9,256.1 391.1,255.9 393.3,255.8 395.5,255.7 399.9,255.7 402.2,254.8 404.4,254.2 406.6,254.1 408.8,254.0 413.2,253.9 415.5,253.8 424.3,253.8 428.8,253.7 435.4,253.6 437.6,252.6 439.8,251.7 442.1,251.4 444.3,250.7 446.5,250.1 448.7,249.7 450.9,249.4 453.1,249.1 455.4,248.9 457.6,248.8 459.8,248.6 462.0,248.5 475.3,247.9 477.5,247.0 479.7,246.9 481.9,246.7 484.2,246.7 499.7,246.6 519.6,245.7 521.8,245.1 524.1,244.2 526.3,243.0 528.5,242.8 530.7,242.4 532.9,241.7 535.1,241.2 537.4,240.0 539.6,238.3 541.8,236.6 544.0,234.7 546.2,232.6 548.4,230.8 550.6,229.7 552.9,228.3 555.1,226.3 557.3,224.7 559.5,223.5 561.7,222.4 563.9,220.7 566.2,219.7 568.4,218.7 570.6,217.8 572.8,217.1 575.0,216.2 577.2,215.6 579.5,215.0 581.7,214.5 583.9,212.9 586.1,211.7 588.3,211.0 590.5,210.8 592.8,210.4 595.0,209.7 597.2,209.2 599.4,208.1 601.6,207.5 603.8,206.9 606.1,206.8 608.3,206.5 610.5,206.1 612.7,204.8 614.9,202.8 617.1,200.7 619.4,198.6 621.6,196.8 623.8,194.8 626.0,192.7 628.2,190.5 630.4,188.4 632.6,187.0 634.9,185.8 637.1,184.5 639.3,183.2 641.5,182.3 643.7,181.3 645.9,180.5 648.2,179.4 650.4,177.9 652.6,176.1 654.8,174.6 657.0,173.2 659.2,172.4 661.5,171.6 663.7,170.8 665.9,169.9 668.1,168.5 670.3,167.2 672.5,165.7 674.8,164.2 677.0,162.9 679.2,161.8 681.4,161.4 683.6,160.8 685.8,160.2 688.1,160.1 690.3,160.0 692.5,159.7 694.7,159.6 696.9,159.5 699.1,159.3 701.4,159.2 708.0,159.2 710.2,159.2 712.4,158.9 714.6,157.1 716.9,155.6 719.1,154.3 721.3,152.8 723.5,151.4 725.7,150.1 727.9,148.7 730.2,147.4 732.4,146.0 734.6,144.7 736.8,143.3 739.0,142.0 741.2,140.8 743.5,139.5 745.7,138.2 747.9,137.2 750.1,136.0 752.3,134.8 754.5,133.5 756.8,132.4 759.0,131.3 761.2,130.5 763.4,129.7 765.6,128.9 767.8,127.8 770.1,126.8 772.3,125.9 774.5,124.7 776.7,123.7 778.9,122.8 781.1,121.8 783.4,120.7 785.6,119.8 787.8,118.8 790.0,117.7 792.2,116.8 794.4,115.8 796.6,115.0 798.9,114.1 801.1,113.2 803.3,112.2 805.5,111.4 807.7,110.7 809.9,110.1 812.2,109.7 814.4,109.6 816.6,108.7 818.8,107.9 821.0,107.0 823.2,106.1 825.5,105.3 827.7,104.5 829.9,103.7 832.1,102.8 834.3,102.1 836.5,101.3 838.8,100.6 841.0,99.9 843.2,99.0 845.4,98.3 847.6,97.5 849.8,96.8 852.1,96.0 854.3,95.4 856.5,94.5 858.7,93.9 860.9,93.3 863.1,92.4 865.4,91.6 867.6,90.9 869.8,90.0 872.0,90.0" fill="none" stroke="#38bdf8" stroke-width="2.5" stroke-linejoin="round" stroke-linecap="round"/>
<circle cx="872.0" cy="90.0" r="4" fill="#0ea5e9"/>
<text x="866.0" y="80.0" text-anchor="end" font-family="Inter, system-ui, sans-serif" font-size="13" font-weight="700" fill="#334155">4221</text>
<text x="52.0" y="294" text-anchor="middle" font-family="Inter, system-ui, sans-serif" font-size="11" fill="#94a3b8">Jun 10 05:00</text>
<text x="570.6" y="294" text-anchor="middle" font-family="Inter, system-ui, sans-serif" font-size="11" fill="#94a3b8">Jun 19 23:00</text>
<text x="872.0" y="294" text-anchor="middle" font-family="Inter, system-ui, sans-serif" font-size="11" fill="#94a3b8">Jun 25 15:00</text>
</svg>
