<svg xmlns="http://www.w3.org/2000/svg" width="900" height="320" viewBox="0 0 900 320" role="img" aria-labelledby="title desc">
<title id="title">Unsorry proofs over time</title>
<desc id="desc">Cumulative kernel-verified proofs over time, by the hour each proof was merged.</desc>
<rect width="900" height="100%" rx="18" fill="#ffffff"/>
<rect x="0.5" y="0.5" width="899" height="319" rx="18" fill="none" stroke="#e2e8f0"/>
<text x="32" y="44" font-family="Inter, system-ui, sans-serif" font-size="28" font-weight="700" fill="#334155">Unsorry — Proofs Over Time</text>
<text x="32" y="72" font-family="Inter, system-ui, sans-serif" font-size="13" fill="#64748b">2073 cumulative kernel-verified proofs · merged, hourly</text>
<line x1="52" y1="272.0" x2="872" y2="272.0" stroke="#f1f5f9"/>
<text x="44" y="276.0" text-anchor="end" font-family="Inter, system-ui, sans-serif" font-size="11" fill="#94a3b8">0</text>
<line x1="52" y1="226.5" x2="872" y2="226.5" stroke="#f1f5f9"/>
<text x="44" y="230.5" text-anchor="end" font-family="Inter, system-ui, sans-serif" font-size="11" fill="#94a3b8">518</text>
<line x1="52" y1="181.0" x2="872" y2="181.0" stroke="#f1f5f9"/>
<text x="44" y="185.0" text-anchor="end" font-family="Inter, system-ui, sans-serif" font-size="11" fill="#94a3b8">1036</text>
<line x1="52" y1="135.5" x2="872" y2="135.5" stroke="#f1f5f9"/>
<text x="44" y="139.5" text-anchor="end" font-family="Inter, system-ui, sans-serif" font-size="11" fill="#94a3b8">1555</text>
<line x1="52" y1="90.0" x2="872" y2="90.0" stroke="#f1f5f9"/>
<text x="44" y="94.0" text-anchor="end" font-family="Inter, system-ui, sans-serif" font-size="11" fill="#94a3b8">2073</text>
<polygon points="52.0,272.0 52.0,271.9 55.1,271.7 92.1,270.9 95.2,270.6 98.2,270.5 107.5,270.4 126.0,270.3 166.1,270.2 169.1,269.5 172.2,269.4 181.5,269.2 184.6,269.1 187.6,269.0 190.7,268.8 196.9,268.7 200.0,268.2 209.2,267.9 221.5,267.7 224.6,267.4 227.7,267.3 252.4,267.2 258.5,267.1 274.0,267.0 277.0,266.9 280.1,266.7 292.5,266.6 295.5,266.1 298.6,265.7 301.7,264.5 304.8,264.4 326.4,264.3 335.6,264.2 341.8,264.1 344.9,264.0 347.9,263.6 351.0,263.5 354.1,263.4 357.2,263.1 360.3,262.9 372.6,262.4 378.8,262.3 391.1,262.3 394.2,261.8 397.3,261.7 400.3,261.6 406.5,261.5 409.6,259.7 412.7,258.0 415.8,257.3 418.8,256.9 421.9,256.7 425.0,256.3 428.1,255.7 431.2,255.2 434.3,255.0 437.3,254.8 443.5,254.5 446.6,253.8 449.7,253.1 452.8,252.4 455.8,252.0 462.0,251.8 468.2,251.7 471.2,251.1 474.3,250.7 477.4,249.4 480.5,248.7 483.6,248.0 486.7,247.3 489.7,246.5 492.8,245.7 495.9,244.9 499.0,243.9 502.1,243.0 505.2,242.2 508.2,241.7 511.3,241.1 514.4,240.4 517.5,240.0 520.6,239.6 523.7,239.2 526.7,239.0 529.8,238.8 536.0,238.7 539.1,237.0 542.2,235.7 545.2,235.5 548.3,235.4 554.5,235.2 557.6,235.0 569.9,234.9 576.1,234.7 585.3,234.6 588.4,232.6 591.5,230.6 594.6,230.1 597.6,228.5 600.7,227.3 603.8,226.5 606.9,226.1 610.0,225.3 613.1,224.9 616.1,224.8 619.2,224.4 622.3,224.2 640.8,222.8 643.9,221.1 647.0,220.8 650.0,220.6 653.1,220.5 674.7,220.4 702.5,218.5 705.5,217.1 708.6,215.5 711.7,213.0 714.8,212.6 717.9,211.8 720.9,210.4 724.0,209.3 727.1,206.9 730.2,203.4 733.3,200.0 736.4,196.0 739.4,191.8 742.5,188.1 745.6,185.8 748.7,183.1 751.8,179.0 754.9,175.6 757.9,173.3 761.0,170.9 764.1,167.6 767.2,165.5 770.3,163.4 773.4,161.6 776.4,160.1 779.5,158.3 782.6,157.2 785.7,155.9 788.8,154.9 791.8,151.7 794.9,149.2 798.0,147.8 801.1,147.3 804.2,146.5 807.3,145.2 810.3,144.1 813.4,142.0 816.5,140.7 819.6,139.4 822.7,139.3 825.8,138.7 828.8,137.8 831.9,135.2 835.0,131.1 838.1,126.8 841.2,122.5 844.3,119.0 847.3,114.8 850.4,110.5 853.5,106.0 856.6,101.9 859.7,98.9 862.8,96.5 865.8,93.8 868.9,91.1 872.0,90.0 872.0,272.0" fill="#e0f2fe" opacity="0.55"/>
<polyline points="52.0,271.9 55.1,271.7 92.1,270.9 95.2,270.6 98.2,270.5 107.5,270.4 126.0,270.3 166.1,270.2 169.1,269.5 172.2,269.4 181.5,269.2 184.6,269.1 187.6,269.0 190.7,268.8 196.9,268.7 200.0,268.2 209.2,267.9 221.5,267.7 224.6,267.4 227.7,267.3 252.4,267.2 258.5,267.1 274.0,267.0 277.0,266.9 280.1,266.7 292.5,266.6 295.5,266.1 298.6,265.7 301.7,264.5 304.8,264.4 326.4,264.3 335.6,264.2 341.8,264.1 344.9,264.0 347.9,263.6 351.0,263.5 354.1,263.4 357.2,263.1 360.3,262.9 372.6,262.4 378.8,262.3 391.1,262.3 394.2,261.8 397.3,261.7 400.3,261.6 406.5,261.5 409.6,259.7 412.7,258.0 415.8,257.3 418.8,256.9 421.9,256.7 425.0,256.3 428.1,255.7 431.2,255.2 434.3,255.0 437.3,254.8 443.5,254.5 446.6,253.8 449.7,253.1 452.8,252.4 455.8,252.0 462.0,251.8 468.2,251.7 471.2,251.1 474.3,250.7 477.4,249.4 480.5,248.7 483.6,248.0 486.7,247.3 489.7,246.5 492.8,245.7 495.9,244.9 499.0,243.9 502.1,243.0 505.2,242.2 508.2,241.7 511.3,241.1 514.4,240.4 517.5,240.0 520.6,239.6 523.7,239.2 526.7,239.0 529.8,238.8 536.0,238.7 539.1,237.0 542.2,235.7 545.2,235.5 548.3,235.4 554.5,235.2 557.6,235.0 569.9,234.9 576.1,234.7 585.3,234.6 588.4,232.6 591.5,230.6 594.6,230.1 597.6,228.5 600.7,227.3 603.8,226.5 606.9,226.1 610.0,225.3 613.1,224.9 616.1,224.8 619.2,224.4 622.3,224.2 640.8,222.8 643.9,221.1 647.0,220.8 650.0,220.6 653.1,220.5 674.7,220.4 702.5,218.5 705.5,217.1 708.6,215.5 711.7,213.0 714.8,212.6 717.9,211.8 720.9,210.4 724.0,209.3 727.1,206.9 730.2,203.4 733.3,200.0 736.4,196.0 739.4,191.8 742.5,188.1 745.6,185.8 748.7,183.1 751.8,179.0 754.9,175.6 757.9,173.3 761.0,170.9 764.1,167.6 767.2,165.5 770.3,163.4 773.4,161.6 776.4,160.1 779.5,158.3 782.6,157.2 785.7,155.9 788.8,154.9 791.8,151.7 794.9,149.2 798.0,147.8 801.1,147.3 804.2,146.5 807.3,145.2 810.3,144.1 813.4,142.0 816.5,140.7 819.6,139.4 822.7,139.3 825.8,138.7 828.8,137.8 831.9,135.2 835.0,131.1 838.1,126.8 841.2,122.5 844.3,119.0 847.3,114.8 850.4,110.5 853.5,106.0 856.6,101.9 859.7,98.9 862.8,96.5 865.8,93.8 868.9,91.1 872.0,90.0" fill="none" stroke="#38bdf8" stroke-width="2.5" stroke-linejoin="round" stroke-linecap="round"/>
<circle cx="872.0" cy="90.0" r="4" fill="#0ea5e9"/>
<text x="866.0" y="80.0" text-anchor="end" font-family="Inter, system-ui, sans-serif" font-size="13" font-weight="700" fill="#334155">2073</text>
<text x="52.0" y="294" text-anchor="middle" font-family="Inter, system-ui, sans-serif" font-size="11" fill="#94a3b8">Jun 10 05:00</text>
<text x="536.0" y="294" text-anchor="middle" font-family="Inter, system-ui, sans-serif" font-size="11" fill="#94a3b8">Jun 16 18:00</text>
<text x="872.0" y="294" text-anchor="middle" font-family="Inter, system-ui, sans-serif" font-size="11" fill="#94a3b8">Jun 21 07:00</text>
</svg>
