<svg xmlns="http://www.w3.org/2000/svg" width="900" height="320" viewBox="0 0 900 320" role="img" aria-labelledby="title desc">
<title id="title">unsorry proofs over time</title>
<desc id="desc">Cumulative kernel-verified proofs over time, by the hour each proof was merged.</desc>
<rect width="900" height="100%" rx="18" fill="#ffffff"/>
<rect x="0.5" y="0.5" width="899" height="319" rx="18" fill="none" stroke="#e2e8f0"/>
<text x="32" y="44" font-family="Inter, system-ui, sans-serif" font-size="28" font-weight="700" fill="#334155">unsorry — Proofs Over Time</text>
<text x="32" y="72" font-family="Inter, system-ui, sans-serif" font-size="13" fill="#64748b">4619 cumulative kernel-verified proofs · merged, hourly</text>
<line x1="52" y1="272.0" x2="872" y2="272.0" stroke="#f1f5f9"/>
<text x="44" y="276.0" text-anchor="end" font-family="Inter, system-ui, sans-serif" font-size="11" fill="#94a3b8">0</text>
<line x1="52" y1="226.5" x2="872" y2="226.5" stroke="#f1f5f9"/>
<text x="44" y="230.5" text-anchor="end" font-family="Inter, system-ui, sans-serif" font-size="11" fill="#94a3b8">1155</text>
<line x1="52" y1="181.0" x2="872" y2="181.0" stroke="#f1f5f9"/>
<text x="44" y="185.0" text-anchor="end" font-family="Inter, system-ui, sans-serif" font-size="11" fill="#94a3b8">2310</text>
<line x1="52" y1="135.5" x2="872" y2="135.5" stroke="#f1f5f9"/>
<text x="44" y="139.5" text-anchor="end" font-family="Inter, system-ui, sans-serif" font-size="11" fill="#94a3b8">3464</text>
<line x1="52" y1="90.0" x2="872" y2="90.0" stroke="#f1f5f9"/>
<text x="44" y="94.0" text-anchor="end" font-family="Inter, system-ui, sans-serif" font-size="11" fill="#94a3b8">4619</text>
<polygon points="52.0,272.0 52.0,272.0 54.1,271.9 79.1,271.5 81.1,271.4 83.2,271.3 89.5,271.3 101.9,271.3 129.0,271.2 131.1,270.9 133.2,270.8 139.4,270.7 141.5,270.7 143.6,270.7 145.7,270.5 149.8,270.5 151.9,270.3 158.1,270.1 166.5,270.1 168.5,270.0 170.6,269.9 187.3,269.8 191.4,269.8 201.8,269.8 203.9,269.7 206.0,269.6 214.3,269.6 216.4,269.4 218.5,269.2 220.6,268.7 222.7,268.6 237.2,268.5 243.5,268.5 247.6,268.5 249.7,268.4 251.8,268.2 253.9,268.2 256.0,268.1 258.0,268.0 260.1,267.9 268.4,267.7 272.6,267.7 280.9,267.6 283.0,267.4 285.1,267.4 287.2,267.3 291.3,267.3 293.4,266.5 295.5,265.7 297.6,265.4 299.7,265.2 301.7,265.1 303.8,264.9 305.9,264.7 308.0,264.5 310.1,264.4 312.2,264.3 316.3,264.2 318.4,263.8 320.5,263.5 322.6,263.2 324.6,263.0 328.8,262.9 333.0,262.9 335.0,262.6 337.1,262.4 339.2,261.9 341.3,261.6 343.4,261.2 345.5,260.9 347.5,260.6 349.6,260.2 351.7,259.8 353.8,259.4 355.9,259.0 357.9,258.6 360.0,258.4 362.1,258.1 364.2,257.8 366.3,257.7 368.3,257.5 370.4,257.3 372.5,257.2 374.6,257.1 378.8,257.1 380.8,256.3 382.9,255.7 385.0,255.6 387.1,255.6 391.2,255.5 393.3,255.4 401.6,255.3 405.8,255.3 412.1,255.2 414.1,254.3 416.2,253.4 418.3,253.2 420.4,252.5 422.5,251.9 424.5,251.6 426.6,251.4 428.7,251.0 430.8,250.9 432.9,250.8 434.9,250.6 437.0,250.6 449.5,249.9 451.6,249.1 453.7,249.0 455.8,248.9 457.8,248.9 472.4,248.8 491.1,248.0 493.2,247.4 495.3,246.6 497.4,245.5 499.5,245.3 501.5,245.0 503.6,244.3 505.7,243.9 507.8,242.8 509.9,241.2 511.9,239.7 514.0,237.9 516.1,236.0 518.2,234.3 520.3,233.3 522.4,232.1 524.4,230.3 526.5,228.7 528.6,227.7 530.7,226.6 532.8,225.2 534.8,224.2 536.9,223.3 539.0,222.4 541.1,221.8 543.2,221.0 545.2,220.5 547.3,219.9 549.4,219.4 551.5,218.0 553.6,216.9 555.7,216.2 557.7,216.0 559.8,215.7 561.9,215.1 564.0,214.6 566.1,213.6 568.1,213.1 570.2,212.5 572.3,212.4 574.4,212.2 576.5,211.8 578.5,210.6 580.6,208.8 582.7,206.8 584.8,204.9 586.9,203.3 589.0,201.5 591.0,199.5 593.1,197.5 595.2,195.6 597.3,194.3 599.4,193.2 601.4,192.0 603.5,190.8 605.6,190.0 607.7,189.1 609.8,188.4 611.8,187.4 613.9,186.0 616.0,184.3 618.1,183.0 620.2,181.7 622.3,180.9 624.3,180.2 626.4,179.5 628.5,178.7 630.6,177.4 632.7,176.3 634.7,174.9 636.8,173.5 638.9,172.3 641.0,171.3 643.1,170.9 645.1,170.4 647.2,169.8 649.3,169.8 651.4,169.7 653.5,169.4 655.6,169.3 657.6,169.2 659.7,169.0 661.8,169.0 668.0,168.9 670.1,168.9 672.2,168.6 674.3,167.0 676.4,165.7 678.4,164.4 680.5,163.1 682.6,161.8 684.7,160.6 686.8,159.3 688.9,158.1 690.9,156.8 693.0,155.6 695.1,154.4 697.2,153.2 699.3,152.1 701.3,150.9 703.4,149.8 705.5,148.8 707.6,147.7 709.7,146.6 711.7,145.5 713.8,144.5 715.9,143.4 718.0,142.7 720.1,142.0 722.2,141.3 724.2,140.2 726.3,139.3 728.4,138.5 730.5,137.4 732.6,136.5 734.6,135.7 736.7,134.7 738.8,133.8 740.9,132.9 743.0,132.0 745.0,131.0 747.1,130.2 749.2,129.2 751.3,128.5 753.4,127.7 755.5,126.8 757.5,126.0 759.6,125.3 761.7,124.6 763.8,124.0 765.9,123.7 767.9,123.6 770.0,122.7 772.1,122.0 774.2,121.2 776.3,120.4 778.3,119.7 780.4,118.9 782.5,118.2 784.6,117.4 786.7,116.7 788.8,116.0 790.8,115.4 792.9,114.7 795.0,113.9 797.1,113.3 799.2,112.6 801.2,111.9 803.3,111.2 805.4,110.6 807.5,109.8 809.6,109.3 811.6,108.7 813.7,107.9 815.8,107.1 817.9,106.5 820.0,105.7 822.1,105.0 824.1,104.5 826.2,103.8 828.3,103.0 830.4,102.5 832.5,102.1 834.5,101.5 836.6,100.8 838.7,100.1 840.8,99.3 842.9,98.6 844.9,97.9 847.0,97.3 849.1,96.7 851.2,96.0 853.3,95.4 855.4,94.8 857.4,94.2 859.5,93.4 861.6,93.0 863.7,92.3 865.8,91.7 867.8,91.4 869.9,90.7 872.0,90.0 872.0,272.0" fill="#e0f2fe" opacity="0.55"/>
<polyline points="52.0,272.0 54.1,271.9 79.1,271.5 81.1,271.4 83.2,271.3 89.5,271.3 101.9,271.3 129.0,271.2 131.1,270.9 133.2,270.8 139.4,270.7 141.5,270.7 143.6,270.7 145.7,270.5 149.8,270.5 151.9,270.3 158.1,270.1 166.5,270.1 168.5,270.0 170.6,269.9 187.3,269.8 191.4,269.8 201.8,269.8 203.9,269.7 206.0,269.6 214.3,269.6 216.4,269.4 218.5,269.2 220.6,268.7 222.7,268.6 237.2,268.5 243.5,268.5 247.6,268.5 249.7,268.4 251.8,268.2 253.9,268.2 256.0,268.1 258.0,268.0 260.1,267.9 268.4,267.7 272.6,267.7 280.9,267.6 283.0,267.4 285.1,267.4 287.2,267.3 291.3,267.3 293.4,266.5 295.5,265.7 297.6,265.4 299.7,265.2 301.7,265.1 303.8,264.9 305.9,264.7 308.0,264.5 310.1,264.4 312.2,264.3 316.3,264.2 318.4,263.8 320.5,263.5 322.6,263.2 324.6,263.0 328.8,262.9 333.0,262.9 335.0,262.6 337.1,262.4 339.2,261.9 341.3,261.6 343.4,261.2 345.5,260.9 347.5,260.6 349.6,260.2 351.7,259.8 353.8,259.4 355.9,259.0 357.9,258.6 360.0,258.4 362.1,258.1 364.2,257.8 366.3,257.7 368.3,257.5 370.4,257.3 372.5,257.2 374.6,257.1 378.8,257.1 380.8,256.3 382.9,255.7 385.0,255.6 387.1,255.6 391.2,255.5 393.3,255.4 401.6,255.3 405.8,255.3 412.1,255.2 414.1,254.3 416.2,253.4 418.3,253.2 420.4,252.5 422.5,251.9 424.5,251.6 426.6,251.4 428.7,251.0 430.8,250.9 432.9,250.8 434.9,250.6 437.0,250.6 449.5,249.9 451.6,249.1 453.7,249.0 455.8,248.9 457.8,248.9 472.4,248.8 491.1,248.0 493.2,247.4 495.3,246.6 497.4,245.5 499.5,245.3 501.5,245.0 503.6,244.3 505.7,243.9 507.8,242.8 509.9,241.2 511.9,239.7 514.0,237.9 516.1,236.0 518.2,234.3 520.3,233.3 522.4,232.1 524.4,230.3 526.5,228.7 528.6,227.7 530.7,226.6 532.8,225.2 534.8,224.2 536.9,223.3 539.0,222.4 541.1,221.8 543.2,221.0 545.2,220.5 547.3,219.9 549.4,219.4 551.5,218.0 553.6,216.9 555.7,216.2 557.7,216.0 559.8,215.7 561.9,215.1 564.0,214.6 566.1,213.6 568.1,213.1 570.2,212.5 572.3,212.4 574.4,212.2 576.5,211.8 578.5,210.6 580.6,208.8 582.7,206.8 584.8,204.9 586.9,203.3 589.0,201.5 591.0,199.5 593.1,197.5 595.2,195.6 597.3,194.3 599.4,193.2 601.4,192.0 603.5,190.8 605.6,190.0 607.7,189.1 609.8,188.4 611.8,187.4 613.9,186.0 616.0,184.3 618.1,183.0 620.2,181.7 622.3,180.9 624.3,180.2 626.4,179.5 628.5,178.7 630.6,177.4 632.7,176.3 634.7,174.9 636.8,173.5 638.9,172.3 641.0,171.3 643.1,170.9 645.1,170.4 647.2,169.8 649.3,169.8 651.4,169.7 653.5,169.4 655.6,169.3 657.6,169.2 659.7,169.0 661.8,169.0 668.0,168.9 670.1,168.9 672.2,168.6 674.3,167.0 676.4,165.7 678.4,164.4 680.5,163.1 682.6,161.8 684.7,160.6 686.8,159.3 688.9,158.1 690.9,156.8 693.0,155.6 695.1,154.4 697.2,153.2 699.3,152.1 701.3,150.9 703.4,149.8 705.5,148.8 707.6,147.7 709.7,146.6 711.7,145.5 713.8,144.5 715.9,143.4 718.0,142.7 720.1,142.0 722.2,141.3 724.2,140.2 726.3,139.3 728.4,138.5 730.5,137.4 732.6,136.5 734.6,135.7 736.7,134.7 738.8,133.8 740.9,132.9 743.0,132.0 745.0,131.0 747.1,130.2 749.2,129.2 751.3,128.5 753.4,127.7 755.5,126.8 757.5,126.0 759.6,125.3 761.7,124.6 763.8,124.0 765.9,123.7 767.9,123.6 770.0,122.7 772.1,122.0 774.2,121.2 776.3,120.4 778.3,119.7 780.4,118.9 782.5,118.2 784.6,117.4 786.7,116.7 788.8,116.0 790.8,115.4 792.9,114.7 795.0,113.9 797.1,113.3 799.2,112.6 801.2,111.9 803.3,111.2 805.4,110.6 807.5,109.8 809.6,109.3 811.6,108.7 813.7,107.9 815.8,107.1 817.9,106.5 820.0,105.7 822.1,105.0 824.1,104.5 826.2,103.8 828.3,103.0 830.4,102.5 832.5,102.1 834.5,101.5 836.6,100.8 838.7,100.1 840.8,99.3 842.9,98.6 844.9,97.9 847.0,97.3 849.1,96.7 851.2,96.0 853.3,95.4 855.4,94.8 857.4,94.2 859.5,93.4 861.6,93.0 863.7,92.3 865.8,91.7 867.8,91.4 869.9,90.7 872.0,90.0" fill="none" stroke="#38bdf8" stroke-width="2.5" stroke-linejoin="round" stroke-linecap="round"/>
<circle cx="872.0" cy="90.0" r="4" fill="#0ea5e9"/>
<text x="866.0" y="80.0" text-anchor="end" font-family="Inter, system-ui, sans-serif" font-size="13" font-weight="700" fill="#334155">4619</text>
<text x="52.0" y="294" text-anchor="middle" font-family="Inter, system-ui, sans-serif" font-size="11" fill="#94a3b8">Jun 10 05:00</text>
<text x="564.0" y="294" text-anchor="middle" font-family="Inter, system-ui, sans-serif" font-size="11" fill="#94a3b8">Jun 20 11:00</text>
<text x="872.0" y="294" text-anchor="middle" font-family="Inter, system-ui, sans-serif" font-size="11" fill="#94a3b8">Jun 26 15:00</text>
</svg>
