<svg xmlns="http://www.w3.org/2000/svg" width="900" height="320" viewBox="0 0 900 320" role="img" aria-labelledby="title desc">
<title id="title">unsorry proofs over time</title>
<desc id="desc">Cumulative kernel-verified proofs over time, by the hour each proof was merged.</desc>
<rect width="900" height="100%" rx="18" fill="#ffffff"/>
<rect x="0.5" y="0.5" width="899" height="319" rx="18" fill="none" stroke="#e2e8f0"/>
<text x="32" y="44" font-family="Inter, system-ui, sans-serif" font-size="28" font-weight="700" fill="#334155">unsorry — Proofs Over Time</text>
<text x="32" y="72" font-family="Inter, system-ui, sans-serif" font-size="13" fill="#64748b">4333 cumulative kernel-verified proofs · merged, hourly</text>
<line x1="52" y1="272.0" x2="872" y2="272.0" stroke="#f1f5f9"/>
<text x="44" y="276.0" text-anchor="end" font-family="Inter, system-ui, sans-serif" font-size="11" fill="#94a3b8">0</text>
<line x1="52" y1="226.5" x2="872" y2="226.5" stroke="#f1f5f9"/>
<text x="44" y="230.5" text-anchor="end" font-family="Inter, system-ui, sans-serif" font-size="11" fill="#94a3b8">1083</text>
<line x1="52" y1="181.0" x2="872" y2="181.0" stroke="#f1f5f9"/>
<text x="44" y="185.0" text-anchor="end" font-family="Inter, system-ui, sans-serif" font-size="11" fill="#94a3b8">2166</text>
<line x1="52" y1="135.5" x2="872" y2="135.5" stroke="#f1f5f9"/>
<text x="44" y="139.5" text-anchor="end" font-family="Inter, system-ui, sans-serif" font-size="11" fill="#94a3b8">3250</text>
<line x1="52" y1="90.0" x2="872" y2="90.0" stroke="#f1f5f9"/>
<text x="44" y="94.0" text-anchor="end" font-family="Inter, system-ui, sans-serif" font-size="11" fill="#94a3b8">4333</text>
<polygon points="52.0,272.0 52.0,272.0 54.2,271.9 80.3,271.5 82.5,271.3 84.6,271.3 91.2,271.2 104.2,271.2 132.5,271.2 134.7,270.8 136.8,270.7 143.4,270.7 145.5,270.6 147.7,270.6 149.9,270.4 154.2,270.4 156.4,270.2 162.9,270.0 171.6,269.9 173.8,269.8 176.0,269.7 193.4,269.7 197.7,269.6 208.6,269.6 210.8,269.6 213.0,269.5 221.7,269.4 223.8,269.2 226.0,269.0 228.2,268.4 230.4,268.3 245.6,268.3 252.1,268.3 256.5,268.2 258.6,268.2 260.8,268.0 263.0,267.9 265.2,267.9 267.3,267.8 269.5,267.6 278.2,267.4 282.6,267.4 291.3,267.3 293.4,267.1 295.6,267.1 297.8,267.0 302.1,267.0 304.3,266.1 306.5,265.3 308.7,265.0 310.8,264.8 313.0,264.7 315.2,264.5 317.4,264.2 319.5,264.0 321.7,263.9 323.9,263.8 328.2,263.6 330.4,263.3 332.6,263.0 334.8,262.6 336.9,262.4 341.3,262.3 345.6,262.3 347.8,262.0 350.0,261.8 352.2,261.2 354.3,260.9 356.5,260.5 358.7,260.2 360.9,259.8 363.0,259.4 365.2,259.0 367.4,258.6 369.6,258.1 371.7,257.8 373.9,257.5 376.1,257.2 378.3,256.9 380.4,256.7 382.6,256.5 384.8,256.3 387.0,256.2 389.1,256.1 393.5,256.1 395.7,255.2 397.8,254.7 400.0,254.5 402.2,254.5 406.5,254.4 408.7,254.3 417.4,254.2 421.8,254.1 428.3,254.1 430.5,253.1 432.6,252.2 434.8,252.0 437.0,251.2 439.2,250.6 441.3,250.2 443.5,250.0 445.7,249.7 447.9,249.5 450.0,249.4 452.2,249.2 454.4,249.2 467.4,248.5 469.6,247.6 471.8,247.5 474.0,247.4 476.1,247.3 491.4,247.3 510.9,246.4 513.1,245.7 515.3,244.9 517.5,243.8 519.6,243.6 521.8,243.2 524.0,242.5 526.2,242.0 528.3,240.9 530.5,239.2 532.7,237.6 534.9,235.6 537.0,233.6 539.2,231.8 541.4,230.8 543.6,229.5 545.7,227.5 547.9,225.9 550.1,224.8 552.3,223.7 554.4,222.1 556.6,221.1 558.8,220.0 561.0,219.2 563.1,218.5 565.3,217.6 567.5,217.1 569.7,216.5 571.8,216.0 574.0,214.5 576.2,213.2 578.4,212.6 580.5,212.4 582.7,212.0 584.9,211.3 587.1,210.8 589.2,209.8 591.4,209.2 593.6,208.6 595.8,208.5 597.9,208.2 600.1,207.8 602.3,206.6 604.5,204.6 606.6,202.5 608.8,200.5 611.0,198.8 613.2,196.8 615.3,194.7 617.5,192.6 619.7,190.6 621.9,189.2 624.0,188.0 626.2,186.7 628.4,185.5 630.6,184.6 632.7,183.6 634.9,182.9 637.1,181.8 639.3,180.3 641.4,178.5 643.6,177.1 645.8,175.8 648.0,174.9 650.1,174.2 652.3,173.4 654.5,172.6 656.7,171.2 658.8,169.9 661.0,168.5 663.2,166.9 665.4,165.7 667.5,164.7 669.7,164.3 671.9,163.7 674.1,163.1 676.2,163.0 678.4,162.9 680.6,162.6 682.8,162.5 684.9,162.5 687.1,162.2 689.3,162.2 695.8,162.1 698.0,162.1 700.2,161.8 702.3,160.1 704.5,158.6 706.7,157.3 708.9,155.9 711.0,154.6 713.2,153.3 715.4,151.9 717.6,150.6 719.7,149.2 721.9,148.0 724.1,146.7 726.3,145.4 728.4,144.2 730.6,142.9 732.8,141.7 735.0,140.7 737.1,139.5 739.3,138.3 741.5,137.1 743.7,136.0 745.8,134.9 748.0,134.1 750.2,133.4 752.4,132.6 754.5,131.5 756.7,130.6 758.9,129.7 761.1,128.5 763.2,127.6 765.4,126.7 767.6,125.7 769.8,124.7 771.9,123.7 774.1,122.8 776.3,121.7 778.5,120.8 780.6,119.8 782.8,119.0 785.0,118.2 787.2,117.3 789.3,116.4 791.5,115.6 793.7,114.9 795.9,114.3 798.0,113.9 800.2,113.8 802.4,112.9 804.6,112.1 806.7,111.3 808.9,110.4 811.1,109.7 813.3,108.8 815.4,108.0 817.6,107.2 819.8,106.5 822.0,105.8 824.1,105.0 826.3,104.3 828.5,103.5 830.7,102.8 832.8,102.1 835.0,101.3 837.2,100.6 839.4,100.0 841.5,99.1 843.7,98.5 845.9,97.9 848.1,97.1 850.2,96.2 852.4,95.5 854.6,94.7 856.8,94.0 858.9,93.4 861.1,92.7 863.3,91.9 865.5,91.3 867.6,90.9 869.8,90.2 872.0,90.0 872.0,272.0" fill="#e0f2fe" opacity="0.55"/>
<polyline points="52.0,272.0 54.2,271.9 80.3,271.5 82.5,271.3 84.6,271.3 91.2,271.2 104.2,271.2 132.5,271.2 134.7,270.8 136.8,270.7 143.4,270.7 145.5,270.6 147.7,270.6 149.9,270.4 154.2,270.4 156.4,270.2 162.9,270.0 171.6,269.9 173.8,269.8 176.0,269.7 193.4,269.7 197.7,269.6 208.6,269.6 210.8,269.6 213.0,269.5 221.7,269.4 223.8,269.2 226.0,269.0 228.2,268.4 230.4,268.3 245.6,268.3 252.1,268.3 256.5,268.2 258.6,268.2 260.8,268.0 263.0,267.9 265.2,267.9 267.3,267.8 269.5,267.6 278.2,267.4 282.6,267.4 291.3,267.3 293.4,267.1 295.6,267.1 297.8,267.0 302.1,267.0 304.3,266.1 306.5,265.3 308.7,265.0 310.8,264.8 313.0,264.7 315.2,264.5 317.4,264.2 319.5,264.0 321.7,263.9 323.9,263.8 328.2,263.6 330.4,263.3 332.6,263.0 334.8,262.6 336.9,262.4 341.3,262.3 345.6,262.3 347.8,262.0 350.0,261.8 352.2,261.2 354.3,260.9 356.5,260.5 358.7,260.2 360.9,259.8 363.0,259.4 365.2,259.0 367.4,258.6 369.6,258.1 371.7,257.8 373.9,257.5 376.1,257.2 378.3,256.9 380.4,256.7 382.6,256.5 384.8,256.3 387.0,256.2 389.1,256.1 393.5,256.1 395.7,255.2 397.8,254.7 400.0,254.5 402.2,254.5 406.5,254.4 408.7,254.3 417.4,254.2 421.8,254.1 428.3,254.1 430.5,253.1 432.6,252.2 434.8,252.0 437.0,251.2 439.2,250.6 441.3,250.2 443.5,250.0 445.7,249.7 447.9,249.5 450.0,249.4 452.2,249.2 454.4,249.2 467.4,248.5 469.6,247.6 471.8,247.5 474.0,247.4 476.1,247.3 491.4,247.3 510.9,246.4 513.1,245.7 515.3,244.9 517.5,243.8 519.6,243.6 521.8,243.2 524.0,242.5 526.2,242.0 528.3,240.9 530.5,239.2 532.7,237.6 534.9,235.6 537.0,233.6 539.2,231.8 541.4,230.8 543.6,229.5 545.7,227.5 547.9,225.9 550.1,224.8 552.3,223.7 554.4,222.1 556.6,221.1 558.8,220.0 561.0,219.2 563.1,218.5 565.3,217.6 567.5,217.1 569.7,216.5 571.8,216.0 574.0,214.5 576.2,213.2 578.4,212.6 580.5,212.4 582.7,212.0 584.9,211.3 587.1,210.8 589.2,209.8 591.4,209.2 593.6,208.6 595.8,208.5 597.9,208.2 600.1,207.8 602.3,206.6 604.5,204.6 606.6,202.5 608.8,200.5 611.0,198.8 613.2,196.8 615.3,194.7 617.5,192.6 619.7,190.6 621.9,189.2 624.0,188.0 626.2,186.7 628.4,185.5 630.6,184.6 632.7,183.6 634.9,182.9 637.1,181.8 639.3,180.3 641.4,178.5 643.6,177.1 645.8,175.8 648.0,174.9 650.1,174.2 652.3,173.4 654.5,172.6 656.7,171.2 658.8,169.9 661.0,168.5 663.2,166.9 665.4,165.7 667.5,164.7 669.7,164.3 671.9,163.7 674.1,163.1 676.2,163.0 678.4,162.9 680.6,162.6 682.8,162.5 684.9,162.5 687.1,162.2 689.3,162.2 695.8,162.1 698.0,162.1 700.2,161.8 702.3,160.1 704.5,158.6 706.7,157.3 708.9,155.9 711.0,154.6 713.2,153.3 715.4,151.9 717.6,150.6 719.7,149.2 721.9,148.0 724.1,146.7 726.3,145.4 728.4,144.2 730.6,142.9 732.8,141.7 735.0,140.7 737.1,139.5 739.3,138.3 741.5,137.1 743.7,136.0 745.8,134.9 748.0,134.1 750.2,133.4 752.4,132.6 754.5,131.5 756.7,130.6 758.9,129.7 761.1,128.5 763.2,127.6 765.4,126.7 767.6,125.7 769.8,124.7 771.9,123.7 774.1,122.8 776.3,121.7 778.5,120.8 780.6,119.8 782.8,119.0 785.0,118.2 787.2,117.3 789.3,116.4 791.5,115.6 793.7,114.9 795.9,114.3 798.0,113.9 800.2,113.8 802.4,112.9 804.6,112.1 806.7,111.3 808.9,110.4 811.1,109.7 813.3,108.8 815.4,108.0 817.6,107.2 819.8,106.5 822.0,105.8 824.1,105.0 826.3,104.3 828.5,103.5 830.7,102.8 832.8,102.1 835.0,101.3 837.2,100.6 839.4,100.0 841.5,99.1 843.7,98.5 845.9,97.9 848.1,97.1 850.2,96.2 852.4,95.5 854.6,94.7 856.8,94.0 858.9,93.4 861.1,92.7 863.3,91.9 865.5,91.3 867.6,90.9 869.8,90.2 872.0,90.0" fill="none" stroke="#38bdf8" stroke-width="2.5" stroke-linejoin="round" stroke-linecap="round"/>
<circle cx="872.0" cy="90.0" r="4" fill="#0ea5e9"/>
<text x="866.0" y="80.0" text-anchor="end" font-family="Inter, system-ui, sans-serif" font-size="13" font-weight="700" fill="#334155">4333</text>
<text x="52.0" y="294" text-anchor="middle" font-family="Inter, system-ui, sans-serif" font-size="11" fill="#94a3b8">Jun 10 05:00</text>
<text x="569.7" y="294" text-anchor="middle" font-family="Inter, system-ui, sans-serif" font-size="11" fill="#94a3b8">Jun 20 03:00</text>
<text x="872.0" y="294" text-anchor="middle" font-family="Inter, system-ui, sans-serif" font-size="11" fill="#94a3b8">Jun 25 22:00</text>
</svg>
