<svg xmlns="http://www.w3.org/2000/svg" width="900" height="320" viewBox="0 0 900 320" role="img" aria-labelledby="title desc">
<title id="title">unsorry proofs over time</title>
<desc id="desc">Cumulative kernel-verified proofs over time, by the hour each proof was merged.</desc>
<rect width="900" height="100%" rx="18" fill="#ffffff"/>
<rect x="0.5" y="0.5" width="899" height="319" rx="18" fill="none" stroke="#e2e8f0"/>
<text x="32" y="44" font-family="Inter, system-ui, sans-serif" font-size="28" font-weight="700" fill="#334155">unsorry — Proofs Over Time</text>
<text x="32" y="72" font-family="Inter, system-ui, sans-serif" font-size="13" fill="#64748b">3194 cumulative kernel-verified proofs · merged, hourly</text>
<line x1="52" y1="272.0" x2="872" y2="272.0" stroke="#f1f5f9"/>
<text x="44" y="276.0" text-anchor="end" font-family="Inter, system-ui, sans-serif" font-size="11" fill="#94a3b8">0</text>
<line x1="52" y1="226.5" x2="872" y2="226.5" stroke="#f1f5f9"/>
<text x="44" y="230.5" text-anchor="end" font-family="Inter, system-ui, sans-serif" font-size="11" fill="#94a3b8">798</text>
<line x1="52" y1="181.0" x2="872" y2="181.0" stroke="#f1f5f9"/>
<text x="44" y="185.0" text-anchor="end" font-family="Inter, system-ui, sans-serif" font-size="11" fill="#94a3b8">1597</text>
<line x1="52" y1="135.5" x2="872" y2="135.5" stroke="#f1f5f9"/>
<text x="44" y="139.5" text-anchor="end" font-family="Inter, system-ui, sans-serif" font-size="11" fill="#94a3b8">2396</text>
<line x1="52" y1="90.0" x2="872" y2="90.0" stroke="#f1f5f9"/>
<text x="44" y="94.0" text-anchor="end" font-family="Inter, system-ui, sans-serif" font-size="11" fill="#94a3b8">3194</text>
<polygon points="52.0,272.0 52.0,271.9 54.6,271.8 85.6,271.3 88.2,271.1 90.8,271.0 98.6,271.0 114.1,270.9 147.7,270.9 150.3,270.3 152.9,270.3 160.6,270.2 163.2,270.1 165.8,270.1 168.4,269.9 173.6,269.8 176.2,269.5 183.9,269.3 194.3,269.2 196.9,269.0 199.4,268.9 220.1,268.9 225.3,268.8 238.2,268.8 240.8,268.7 243.4,268.6 253.8,268.5 256.4,268.2 258.9,267.9 261.5,267.2 264.1,267.0 282.2,267.0 290.0,266.9 295.2,266.9 297.7,266.8 300.3,266.5 302.9,266.5 305.5,266.4 308.1,266.2 310.7,266.1 321.0,265.8 326.2,265.7 336.5,265.7 339.1,265.4 341.7,265.3 344.3,265.2 349.5,265.2 352.1,264.0 354.6,262.9 357.2,262.5 359.8,262.2 362.4,262.1 365.0,261.8 367.6,261.4 370.2,261.1 372.8,260.9 375.3,260.8 380.5,260.7 383.1,260.2 385.7,259.7 388.3,259.3 390.9,259.0 396.0,258.9 401.2,258.8 403.8,258.4 406.4,258.2 409.0,257.4 411.6,256.9 414.1,256.4 416.7,256.0 419.3,255.5 421.9,255.0 424.5,254.4 427.1,253.8 429.7,253.2 432.3,252.7 434.8,252.3 437.4,251.9 440.0,251.5 442.6,251.3 445.2,251.0 447.8,250.7 450.4,250.6 452.9,250.5 458.1,250.4 460.7,249.3 463.3,248.5 465.9,248.3 468.5,248.2 473.6,248.1 476.2,248.0 486.6,247.9 491.7,247.8 499.5,247.7 502.1,246.4 504.7,245.2 507.3,244.8 509.9,243.8 512.4,243.0 515.0,242.5 517.6,242.2 520.2,241.7 522.8,241.5 525.4,241.3 528.0,241.1 530.5,241.0 546.1,240.1 548.7,239.0 551.2,238.8 553.8,238.6 556.4,238.6 574.5,238.5 597.8,237.3 600.4,236.4 603.0,235.3 605.6,233.7 608.2,233.4 610.7,232.9 613.3,232.0 615.9,231.3 618.5,229.8 621.1,227.5 623.7,225.3 626.3,222.7 628.8,219.9 631.4,217.5 634.0,216.0 636.6,214.3 639.2,211.7 641.8,209.4 644.4,208.0 647.0,206.4 649.5,204.2 652.1,202.9 654.7,201.5 657.3,200.3 659.9,199.4 662.5,198.2 665.1,197.5 667.6,196.7 670.2,196.0 672.8,193.9 675.4,192.3 678.0,191.4 680.6,191.1 683.2,190.6 685.8,189.7 688.3,189.0 690.9,187.6 693.5,186.8 696.1,186.0 698.7,185.8 701.3,185.5 703.9,184.9 706.4,183.2 709.0,180.5 711.6,177.8 714.2,175.0 716.8,172.7 719.4,170.0 722.0,167.2 724.6,164.2 727.1,161.6 729.7,159.6 732.3,158.1 734.9,156.3 737.5,154.6 740.1,153.5 742.7,152.1 745.2,151.1 747.8,149.6 750.4,147.6 753.0,145.2 755.6,143.2 758.2,141.5 760.8,140.3 763.4,139.3 765.9,138.3 768.5,137.1 771.1,135.2 773.7,133.5 776.3,131.5 778.9,129.5 781.5,127.8 784.1,126.4 786.6,125.8 789.2,125.0 791.8,124.2 794.4,124.1 797.0,124.0 799.6,123.6 802.2,123.4 804.7,123.4 807.3,123.1 809.9,123.0 817.7,122.9 820.3,122.9 822.9,122.5 825.4,120.2 828.0,118.2 830.6,116.4 833.2,114.4 835.8,112.7 838.4,110.9 841.0,109.0 843.5,107.3 846.1,105.4 848.7,103.7 851.3,102.0 853.9,100.3 856.5,98.6 859.1,96.9 861.7,95.2 864.2,93.8 866.8,92.2 869.4,90.6 872.0,90.0 872.0,272.0" fill="#e0f2fe" opacity="0.55"/>
<polyline points="52.0,271.9 54.6,271.8 85.6,271.3 88.2,271.1 90.8,271.0 98.6,271.0 114.1,270.9 147.7,270.9 150.3,270.3 152.9,270.3 160.6,270.2 163.2,270.1 165.8,270.1 168.4,269.9 173.6,269.8 176.2,269.5 183.9,269.3 194.3,269.2 196.9,269.0 199.4,268.9 220.1,268.9 225.3,268.8 238.2,268.8 240.8,268.7 243.4,268.6 253.8,268.5 256.4,268.2 258.9,267.9 261.5,267.2 264.1,267.0 282.2,267.0 290.0,266.9 295.2,266.9 297.7,266.8 300.3,266.5 302.9,266.5 305.5,266.4 308.1,266.2 310.7,266.1 321.0,265.8 326.2,265.7 336.5,265.7 339.1,265.4 341.7,265.3 344.3,265.2 349.5,265.2 352.1,264.0 354.6,262.9 357.2,262.5 359.8,262.2 362.4,262.1 365.0,261.8 367.6,261.4 370.2,261.1 372.8,260.9 375.3,260.8 380.5,260.7 383.1,260.2 385.7,259.7 388.3,259.3 390.9,259.0 396.0,258.9 401.2,258.8 403.8,258.4 406.4,258.2 409.0,257.4 411.6,256.9 414.1,256.4 416.7,256.0 419.3,255.5 421.9,255.0 424.5,254.4 427.1,253.8 429.7,253.2 432.3,252.7 434.8,252.3 437.4,251.9 440.0,251.5 442.6,251.3 445.2,251.0 447.8,250.7 450.4,250.6 452.9,250.5 458.1,250.4 460.7,249.3 463.3,248.5 465.9,248.3 468.5,248.2 473.6,248.1 476.2,248.0 486.6,247.9 491.7,247.8 499.5,247.7 502.1,246.4 504.7,245.2 507.3,244.8 509.9,243.8 512.4,243.0 515.0,242.5 517.6,242.2 520.2,241.7 522.8,241.5 525.4,241.3 528.0,241.1 530.5,241.0 546.1,240.1 548.7,239.0 551.2,238.8 553.8,238.6 556.4,238.6 574.5,238.5 597.8,237.3 600.4,236.4 603.0,235.3 605.6,233.7 608.2,233.4 610.7,232.9 613.3,232.0 615.9,231.3 618.5,229.8 621.1,227.5 623.7,225.3 626.3,222.7 628.8,219.9 631.4,217.5 634.0,216.0 636.6,214.3 639.2,211.7 641.8,209.4 644.4,208.0 647.0,206.4 649.5,204.2 652.1,202.9 654.7,201.5 657.3,200.3 659.9,199.4 662.5,198.2 665.1,197.5 667.6,196.7 670.2,196.0 672.8,193.9 675.4,192.3 678.0,191.4 680.6,191.1 683.2,190.6 685.8,189.7 688.3,189.0 690.9,187.6 693.5,186.8 696.1,186.0 698.7,185.8 701.3,185.5 703.9,184.9 706.4,183.2 709.0,180.5 711.6,177.8 714.2,175.0 716.8,172.7 719.4,170.0 722.0,167.2 724.6,164.2 727.1,161.6 729.7,159.6 732.3,158.1 734.9,156.3 737.5,154.6 740.1,153.5 742.7,152.1 745.2,151.1 747.8,149.6 750.4,147.6 753.0,145.2 755.6,143.2 758.2,141.5 760.8,140.3 763.4,139.3 765.9,138.3 768.5,137.1 771.1,135.2 773.7,133.5 776.3,131.5 778.9,129.5 781.5,127.8 784.1,126.4 786.6,125.8 789.2,125.0 791.8,124.2 794.4,124.1 797.0,124.0 799.6,123.6 802.2,123.4 804.7,123.4 807.3,123.1 809.9,123.0 817.7,122.9 820.3,122.9 822.9,122.5 825.4,120.2 828.0,118.2 830.6,116.4 833.2,114.4 835.8,112.7 838.4,110.9 841.0,109.0 843.5,107.3 846.1,105.4 848.7,103.7 851.3,102.0 853.9,100.3 856.5,98.6 859.1,96.9 861.7,95.2 864.2,93.8 866.8,92.2 869.4,90.6 872.0,90.0" fill="none" stroke="#38bdf8" stroke-width="2.5" stroke-linejoin="round" stroke-linecap="round"/>
<circle cx="872.0" cy="90.0" r="4" fill="#0ea5e9"/>
<text x="866.0" y="80.0" text-anchor="end" font-family="Inter, system-ui, sans-serif" font-size="13" font-weight="700" fill="#334155">3194</text>
<text x="52.0" y="294" text-anchor="middle" font-family="Inter, system-ui, sans-serif" font-size="11" fill="#94a3b8">Jun 10 05:00</text>
<text x="553.8" y="294" text-anchor="middle" font-family="Inter, system-ui, sans-serif" font-size="11" fill="#94a3b8">Jun 18 07:00</text>
<text x="872.0" y="294" text-anchor="middle" font-family="Inter, system-ui, sans-serif" font-size="11" fill="#94a3b8">Jun 23 10:00</text>
</svg>
