<svg xmlns="http://www.w3.org/2000/svg" width="900" height="320" viewBox="0 0 900 320" role="img" aria-labelledby="title desc">
<title id="title">unsorry proofs over time</title>
<desc id="desc">Cumulative kernel-verified proofs over time, by the hour each proof was merged.</desc>
<rect width="900" height="100%" rx="18" fill="#ffffff"/>
<rect x="0.5" y="0.5" width="899" height="319" rx="18" fill="none" stroke="#e2e8f0"/>
<text x="32" y="44" font-family="Inter, system-ui, sans-serif" font-size="28" font-weight="700" fill="#334155">unsorry — Proofs Over Time</text>
<text x="32" y="72" font-family="Inter, system-ui, sans-serif" font-size="13" fill="#64748b">3863 cumulative kernel-verified proofs · merged, hourly</text>
<line x1="52" y1="272.0" x2="872" y2="272.0" stroke="#f1f5f9"/>
<text x="44" y="276.0" text-anchor="end" font-family="Inter, system-ui, sans-serif" font-size="11" fill="#94a3b8">0</text>
<line x1="52" y1="226.5" x2="872" y2="226.5" stroke="#f1f5f9"/>
<text x="44" y="230.5" text-anchor="end" font-family="Inter, system-ui, sans-serif" font-size="11" fill="#94a3b8">966</text>
<line x1="52" y1="181.0" x2="872" y2="181.0" stroke="#f1f5f9"/>
<text x="44" y="185.0" text-anchor="end" font-family="Inter, system-ui, sans-serif" font-size="11" fill="#94a3b8">1932</text>
<line x1="52" y1="135.5" x2="872" y2="135.5" stroke="#f1f5f9"/>
<text x="44" y="139.5" text-anchor="end" font-family="Inter, system-ui, sans-serif" font-size="11" fill="#94a3b8">2897</text>
<line x1="52" y1="90.0" x2="872" y2="90.0" stroke="#f1f5f9"/>
<text x="44" y="94.0" text-anchor="end" font-family="Inter, system-ui, sans-serif" font-size="11" fill="#94a3b8">3863</text>
<polygon points="52.0,272.0 52.0,272.0 54.3,271.9 82.5,271.4 84.9,271.2 87.2,271.2 94.3,271.2 108.4,271.1 138.9,271.1 141.3,270.6 143.6,270.6 150.7,270.5 153.0,270.4 155.4,270.4 157.7,270.3 162.4,270.2 164.8,270.0 171.8,269.8 181.2,269.7 183.6,269.6 185.9,269.5 204.7,269.4 209.4,269.4 221.2,269.3 223.5,269.3 225.9,269.2 235.3,269.1 237.6,268.8 240.0,268.6 242.3,268.0 244.7,267.9 261.1,267.9 268.2,267.8 272.9,267.8 275.2,267.7 277.6,267.5 279.9,267.4 282.3,267.4 284.6,267.2 287.0,267.1 296.4,266.9 301.1,266.8 310.5,266.8 312.8,266.5 315.2,266.5 317.5,266.4 322.2,266.3 324.6,265.4 326.9,264.5 329.2,264.1 331.6,263.9 333.9,263.8 336.3,263.6 338.6,263.2 341.0,263.0 343.3,262.9 345.7,262.8 350.4,262.6 352.7,262.2 355.1,261.9 357.4,261.5 359.8,261.3 364.5,261.2 369.2,261.1 371.5,260.8 373.9,260.6 376.2,259.9 378.6,259.5 380.9,259.1 383.3,258.8 385.6,258.3 388.0,257.9 390.3,257.4 392.7,256.9 395.0,256.5 397.4,256.0 399.7,255.7 402.1,255.4 404.4,255.0 406.8,254.9 409.1,254.6 411.5,254.4 413.8,254.3 416.2,254.2 420.9,254.1 423.2,253.2 425.6,252.5 427.9,252.4 430.3,252.4 435.0,252.3 437.3,252.1 446.7,252.1 451.4,252.0 458.5,251.9 460.8,250.8 463.2,249.8 465.5,249.5 467.9,248.7 470.2,248.0 472.6,247.6 474.9,247.4 477.3,246.9 479.6,246.7 482.0,246.7 484.3,246.5 486.7,246.4 500.8,245.6 503.1,244.7 505.5,244.5 507.8,244.4 510.2,244.3 526.6,244.3 547.8,243.3 550.1,242.6 552.5,241.7 554.8,240.3 557.2,240.1 559.5,239.7 561.9,238.9 564.2,238.4 566.6,237.1 568.9,235.2 571.3,233.4 573.6,231.2 576.0,228.9 578.3,227.0 580.7,225.7 583.0,224.3 585.4,222.1 587.7,220.3 590.1,219.0 592.4,217.8 594.8,216.0 597.1,214.9 599.4,213.7 601.8,212.7 604.1,212.0 606.5,211.0 608.8,210.4 611.2,209.7 613.5,209.2 615.9,207.5 618.2,206.1 620.6,205.3 622.9,205.1 625.3,204.7 627.6,204.0 630.0,203.4 632.3,202.2 634.7,201.5 637.0,200.9 639.4,200.8 641.7,200.5 644.1,200.0 646.4,198.6 648.8,196.4 651.1,194.1 653.5,191.8 655.8,189.9 658.2,187.7 660.5,185.3 662.9,182.9 665.2,180.7 667.6,179.1 669.9,177.8 672.3,176.4 674.6,174.9 677.0,174.0 679.3,172.9 681.7,172.0 684.0,170.8 686.4,169.2 688.7,167.2 691.1,165.5 693.4,164.1 695.8,163.1 698.1,162.3 700.5,161.4 702.8,160.5 705.2,158.9 707.5,157.5 709.9,155.9 712.2,154.2 714.6,152.8 716.9,151.6 719.3,151.2 721.6,150.5 724.0,149.8 726.3,149.7 728.7,149.6 731.0,149.3 733.4,149.2 735.7,149.1 738.1,148.9 740.4,148.8 747.5,148.8 749.8,148.7 752.2,148.4 754.5,146.5 756.9,144.8 759.2,143.4 761.6,141.7 763.9,140.3 766.3,138.8 768.6,137.3 771.0,135.8 773.3,134.3 775.7,132.9 778.0,131.4 780.4,130.0 782.7,128.6 785.1,127.2 787.4,125.9 789.8,124.7 792.1,123.4 794.5,122.0 796.8,120.7 799.2,119.5 801.5,118.2 803.9,117.4 806.2,116.5 808.6,115.7 810.9,114.5 813.3,113.4 815.6,112.3 818.0,111.1 820.3,110.0 822.7,109.0 825.0,107.9 827.4,106.7 829.7,105.6 832.1,104.6 834.4,103.4 836.8,102.4 839.1,101.3 841.5,100.4 843.8,99.5 846.2,98.4 848.5,97.4 850.9,96.5 853.2,95.8 855.6,95.1 857.9,94.7 860.3,94.5 862.6,93.5 865.0,92.6 867.3,91.7 869.7,90.7 872.0,90.0 872.0,272.0" fill="#e0f2fe" opacity="0.55"/>
<polyline points="52.0,272.0 54.3,271.9 82.5,271.4 84.9,271.2 87.2,271.2 94.3,271.2 108.4,271.1 138.9,271.1 141.3,270.6 143.6,270.6 150.7,270.5 153.0,270.4 155.4,270.4 157.7,270.3 162.4,270.2 164.8,270.0 171.8,269.8 181.2,269.7 183.6,269.6 185.9,269.5 204.7,269.4 209.4,269.4 221.2,269.3 223.5,269.3 225.9,269.2 235.3,269.1 237.6,268.8 240.0,268.6 242.3,268.0 244.7,267.9 261.1,267.9 268.2,267.8 272.9,267.8 275.2,267.7 277.6,267.5 279.9,267.4 282.3,267.4 284.6,267.2 287.0,267.1 296.4,266.9 301.1,266.8 310.5,266.8 312.8,266.5 315.2,266.5 317.5,266.4 322.2,266.3 324.6,265.4 326.9,264.5 329.2,264.1 331.6,263.9 333.9,263.8 336.3,263.6 338.6,263.2 341.0,263.0 343.3,262.9 345.7,262.8 350.4,262.6 352.7,262.2 355.1,261.9 357.4,261.5 359.8,261.3 364.5,261.2 369.2,261.1 371.5,260.8 373.9,260.6 376.2,259.9 378.6,259.5 380.9,259.1 383.3,258.8 385.6,258.3 388.0,257.9 390.3,257.4 392.7,256.9 395.0,256.5 397.4,256.0 399.7,255.7 402.1,255.4 404.4,255.0 406.8,254.9 409.1,254.6 411.5,254.4 413.8,254.3 416.2,254.2 420.9,254.1 423.2,253.2 425.6,252.5 427.9,252.4 430.3,252.4 435.0,252.3 437.3,252.1 446.7,252.1 451.4,252.0 458.5,251.9 460.8,250.8 463.2,249.8 465.5,249.5 467.9,248.7 470.2,248.0 472.6,247.6 474.9,247.4 477.3,246.9 479.6,246.7 482.0,246.7 484.3,246.5 486.7,246.4 500.8,245.6 503.1,244.7 505.5,244.5 507.8,244.4 510.2,244.3 526.6,244.3 547.8,243.3 550.1,242.6 552.5,241.7 554.8,240.3 557.2,240.1 559.5,239.7 561.9,238.9 564.2,238.4 566.6,237.1 568.9,235.2 571.3,233.4 573.6,231.2 576.0,228.9 578.3,227.0 580.7,225.7 583.0,224.3 585.4,222.1 587.7,220.3 590.1,219.0 592.4,217.8 594.8,216.0 597.1,214.9 599.4,213.7 601.8,212.7 604.1,212.0 606.5,211.0 608.8,210.4 611.2,209.7 613.5,209.2 615.9,207.5 618.2,206.1 620.6,205.3 622.9,205.1 625.3,204.7 627.6,204.0 630.0,203.4 632.3,202.2 634.7,201.5 637.0,200.9 639.4,200.8 641.7,200.5 644.1,200.0 646.4,198.6 648.8,196.4 651.1,194.1 653.5,191.8 655.8,189.9 658.2,187.7 660.5,185.3 662.9,182.9 665.2,180.7 667.6,179.1 669.9,177.8 672.3,176.4 674.6,174.9 677.0,174.0 679.3,172.9 681.7,172.0 684.0,170.8 686.4,169.2 688.7,167.2 691.1,165.5 693.4,164.1 695.8,163.1 698.1,162.3 700.5,161.4 702.8,160.5 705.2,158.9 707.5,157.5 709.9,155.9 712.2,154.2 714.6,152.8 716.9,151.6 719.3,151.2 721.6,150.5 724.0,149.8 726.3,149.7 728.7,149.6 731.0,149.3 733.4,149.2 735.7,149.1 738.1,148.9 740.4,148.8 747.5,148.8 749.8,148.7 752.2,148.4 754.5,146.5 756.9,144.8 759.2,143.4 761.6,141.7 763.9,140.3 766.3,138.8 768.6,137.3 771.0,135.8 773.3,134.3 775.7,132.9 778.0,131.4 780.4,130.0 782.7,128.6 785.1,127.2 787.4,125.9 789.8,124.7 792.1,123.4 794.5,122.0 796.8,120.7 799.2,119.5 801.5,118.2 803.9,117.4 806.2,116.5 808.6,115.7 810.9,114.5 813.3,113.4 815.6,112.3 818.0,111.1 820.3,110.0 822.7,109.0 825.0,107.9 827.4,106.7 829.7,105.6 832.1,104.6 834.4,103.4 836.8,102.4 839.1,101.3 841.5,100.4 843.8,99.5 846.2,98.4 848.5,97.4 850.9,96.5 853.2,95.8 855.6,95.1 857.9,94.7 860.3,94.5 862.6,93.5 865.0,92.6 867.3,91.7 869.7,90.7 872.0,90.0" fill="none" stroke="#38bdf8" stroke-width="2.5" stroke-linejoin="round" stroke-linecap="round"/>
<circle cx="872.0" cy="90.0" r="4" fill="#0ea5e9"/>
<text x="866.0" y="80.0" text-anchor="end" font-family="Inter, system-ui, sans-serif" font-size="13" font-weight="700" fill="#334155">3863</text>
<text x="52.0" y="294" text-anchor="middle" font-family="Inter, system-ui, sans-serif" font-size="11" fill="#94a3b8">Jun 10 05:00</text>
<text x="578.3" y="294" text-anchor="middle" font-family="Inter, system-ui, sans-serif" font-size="11" fill="#94a3b8">Jun 19 13:00</text>
<text x="872.0" y="294" text-anchor="middle" font-family="Inter, system-ui, sans-serif" font-size="11" fill="#94a3b8">Jun 24 18:00</text>
</svg>
