<svg xmlns="http://www.w3.org/2000/svg" width="900" height="320" viewBox="0 0 900 320" role="img" aria-labelledby="title desc">
<title id="title">Unsorry proofs over time</title>
<desc id="desc">Cumulative kernel-verified proofs over time, by the hour each proof was merged.</desc>
<rect width="900" height="100%" rx="18" fill="#ffffff"/>
<rect x="0.5" y="0.5" width="899" height="319" rx="18" fill="none" stroke="#e2e8f0"/>
<text x="32" y="44" font-family="Inter, system-ui, sans-serif" font-size="28" font-weight="700" fill="#334155">Unsorry — Proofs Over Time</text>
<text x="32" y="72" font-family="Inter, system-ui, sans-serif" font-size="13" fill="#64748b">2047 cumulative kernel-verified proofs · merged, hourly</text>
<line x1="52" y1="272.0" x2="872" y2="272.0" stroke="#f1f5f9"/>
<text x="44" y="276.0" text-anchor="end" font-family="Inter, system-ui, sans-serif" font-size="11" fill="#94a3b8">0</text>
<line x1="52" y1="226.5" x2="872" y2="226.5" stroke="#f1f5f9"/>
<text x="44" y="230.5" text-anchor="end" font-family="Inter, system-ui, sans-serif" font-size="11" fill="#94a3b8">512</text>
<line x1="52" y1="181.0" x2="872" y2="181.0" stroke="#f1f5f9"/>
<text x="44" y="185.0" text-anchor="end" font-family="Inter, system-ui, sans-serif" font-size="11" fill="#94a3b8">1024</text>
<line x1="52" y1="135.5" x2="872" y2="135.5" stroke="#f1f5f9"/>
<text x="44" y="139.5" text-anchor="end" font-family="Inter, system-ui, sans-serif" font-size="11" fill="#94a3b8">1535</text>
<line x1="52" y1="90.0" x2="872" y2="90.0" stroke="#f1f5f9"/>
<text x="44" y="94.0" text-anchor="end" font-family="Inter, system-ui, sans-serif" font-size="11" fill="#94a3b8">2047</text>
<polygon points="52.0,272.0 52.0,271.9 55.1,271.7 92.2,270.8 95.3,270.6 98.4,270.5 107.7,270.4 126.3,270.3 166.5,270.2 169.6,269.4 172.7,269.3 182.0,269.2 185.1,269.1 188.2,269.0 191.2,268.7 197.4,268.6 200.5,268.2 209.8,267.8 222.2,267.6 225.3,267.4 228.4,267.2 253.1,267.1 259.3,267.0 274.8,266.9 277.9,266.8 281.0,266.7 293.4,266.6 296.5,266.0 299.5,265.6 302.6,264.4 305.7,264.3 327.4,264.2 336.7,264.1 342.9,264.0 346.0,263.9 349.1,263.5 352.2,263.4 355.2,263.3 358.3,263.0 361.4,262.8 373.8,262.3 380.0,262.2 392.4,262.1 395.5,261.7 398.6,261.6 401.7,261.4 407.8,261.3 410.9,259.6 414.0,257.8 417.1,257.2 420.2,256.7 423.3,256.5 426.4,256.1 429.5,255.5 432.6,255.0 435.7,254.8 438.8,254.6 445.0,254.3 448.1,253.6 451.2,252.9 454.3,252.2 457.4,251.7 463.5,251.6 469.7,251.5 472.8,250.8 475.9,250.4 479.0,249.1 482.1,248.4 485.2,247.7 488.3,247.0 491.4,246.2 494.5,245.4 497.6,244.5 500.7,243.5 503.8,242.7 506.9,241.9 510.0,241.3 513.1,240.7 516.2,240.0 519.2,239.6 522.3,239.2 525.4,238.7 528.5,238.6 531.6,238.4 537.8,238.3 540.9,236.5 544.0,235.3 547.1,235.0 550.2,234.9 556.4,234.7 559.5,234.5 571.8,234.4 578.0,234.2 587.3,234.1 590.4,232.1 593.5,230.1 596.6,229.6 599.7,228.0 602.8,226.7 605.9,225.9 609.0,225.5 612.1,224.7 615.2,224.3 618.3,224.2 621.4,223.8 624.5,223.6 643.0,222.2 646.1,220.4 649.2,220.2 652.3,219.9 655.4,219.8 677.1,219.7 704.9,217.9 708.0,216.4 711.1,214.7 714.2,212.3 717.3,211.8 720.4,211.0 723.5,209.6 726.6,208.5 729.7,206.1 732.8,202.6 735.8,199.1 738.9,195.0 742.0,190.7 745.1,187.0 748.2,184.7 751.3,181.9 754.4,177.8 757.5,174.4 760.6,172.1 763.7,169.7 766.8,166.3 769.9,164.2 773.0,162.0 776.1,160.2 779.2,158.7 782.3,156.9 785.4,155.7 788.5,154.5 791.5,153.4 794.6,150.2 797.7,147.6 800.8,146.2 803.9,145.7 807.0,144.9 810.1,143.6 813.2,142.5 816.3,140.3 819.4,139.0 822.5,137.7 825.6,137.6 828.7,137.0 831.8,136.1 834.9,133.5 838.0,129.3 841.1,124.9 844.2,120.6 847.2,117.0 850.3,112.9 853.4,108.4 856.5,103.9 859.6,99.7 862.7,96.7 865.8,94.3 868.9,91.5 872.0,90.0 872.0,272.0" fill="#e0f2fe" opacity="0.55"/>
<polyline points="52.0,271.9 55.1,271.7 92.2,270.8 95.3,270.6 98.4,270.5 107.7,270.4 126.3,270.3 166.5,270.2 169.6,269.4 172.7,269.3 182.0,269.2 185.1,269.1 188.2,269.0 191.2,268.7 197.4,268.6 200.5,268.2 209.8,267.8 222.2,267.6 225.3,267.4 228.4,267.2 253.1,267.1 259.3,267.0 274.8,266.9 277.9,266.8 281.0,266.7 293.4,266.6 296.5,266.0 299.5,265.6 302.6,264.4 305.7,264.3 327.4,264.2 336.7,264.1 342.9,264.0 346.0,263.9 349.1,263.5 352.2,263.4 355.2,263.3 358.3,263.0 361.4,262.8 373.8,262.3 380.0,262.2 392.4,262.1 395.5,261.7 398.6,261.6 401.7,261.4 407.8,261.3 410.9,259.6 414.0,257.8 417.1,257.2 420.2,256.7 423.3,256.5 426.4,256.1 429.5,255.5 432.6,255.0 435.7,254.8 438.8,254.6 445.0,254.3 448.1,253.6 451.2,252.9 454.3,252.2 457.4,251.7 463.5,251.6 469.7,251.5 472.8,250.8 475.9,250.4 479.0,249.1 482.1,248.4 485.2,247.7 488.3,247.0 491.4,246.2 494.5,245.4 497.6,244.5 500.7,243.5 503.8,242.7 506.9,241.9 510.0,241.3 513.1,240.7 516.2,240.0 519.2,239.6 522.3,239.2 525.4,238.7 528.5,238.6 531.6,238.4 537.8,238.3 540.9,236.5 544.0,235.3 547.1,235.0 550.2,234.9 556.4,234.7 559.5,234.5 571.8,234.4 578.0,234.2 587.3,234.1 590.4,232.1 593.5,230.1 596.6,229.6 599.7,228.0 602.8,226.7 605.9,225.9 609.0,225.5 612.1,224.7 615.2,224.3 618.3,224.2 621.4,223.8 624.5,223.6 643.0,222.2 646.1,220.4 649.2,220.2 652.3,219.9 655.4,219.8 677.1,219.7 704.9,217.9 708.0,216.4 711.1,214.7 714.2,212.3 717.3,211.8 720.4,211.0 723.5,209.6 726.6,208.5 729.7,206.1 732.8,202.6 735.8,199.1 738.9,195.0 742.0,190.7 745.1,187.0 748.2,184.7 751.3,181.9 754.4,177.8 757.5,174.4 760.6,172.1 763.7,169.7 766.8,166.3 769.9,164.2 773.0,162.0 776.1,160.2 779.2,158.7 782.3,156.9 785.4,155.7 788.5,154.5 791.5,153.4 794.6,150.2 797.7,147.6 800.8,146.2 803.9,145.7 807.0,144.9 810.1,143.6 813.2,142.5 816.3,140.3 819.4,139.0 822.5,137.7 825.6,137.6 828.7,137.0 831.8,136.1 834.9,133.5 838.0,129.3 841.1,124.9 844.2,120.6 847.2,117.0 850.3,112.9 853.4,108.4 856.5,103.9 859.6,99.7 862.7,96.7 865.8,94.3 868.9,91.5 872.0,90.0" fill="none" stroke="#38bdf8" stroke-width="2.5" stroke-linejoin="round" stroke-linecap="round"/>
<circle cx="872.0" cy="90.0" r="4" fill="#0ea5e9"/>
<text x="866.0" y="80.0" text-anchor="end" font-family="Inter, system-ui, sans-serif" font-size="13" font-weight="700" fill="#334155">2047</text>
<text x="52.0" y="294" text-anchor="middle" font-family="Inter, system-ui, sans-serif" font-size="11" fill="#94a3b8">Jun 10 05:00</text>
<text x="537.8" y="294" text-anchor="middle" font-family="Inter, system-ui, sans-serif" font-size="11" fill="#94a3b8">Jun 16 18:00</text>
<text x="872.0" y="294" text-anchor="middle" font-family="Inter, system-ui, sans-serif" font-size="11" fill="#94a3b8">Jun 21 06:00</text>
</svg>
