<svg xmlns="http://www.w3.org/2000/svg" width="900" height="320" viewBox="0 0 900 320" role="img" aria-labelledby="title desc">
<title id="title">unsorry proofs over time</title>
<desc id="desc">Cumulative kernel-verified proofs over time, by the hour each proof was merged.</desc>
<rect width="900" height="100%" rx="18" fill="#ffffff"/>
<rect x="0.5" y="0.5" width="899" height="319" rx="18" fill="none" stroke="#e2e8f0"/>
<text x="32" y="44" font-family="Inter, system-ui, sans-serif" font-size="28" font-weight="700" fill="#334155">unsorry — Proofs Over Time</text>
<text x="32" y="72" font-family="Inter, system-ui, sans-serif" font-size="13" fill="#64748b">3055 cumulative kernel-verified proofs · merged, hourly</text>
<line x1="52" y1="272.0" x2="872" y2="272.0" stroke="#f1f5f9"/>
<text x="44" y="276.0" text-anchor="end" font-family="Inter, system-ui, sans-serif" font-size="11" fill="#94a3b8">0</text>
<line x1="52" y1="226.5" x2="872" y2="226.5" stroke="#f1f5f9"/>
<text x="44" y="230.5" text-anchor="end" font-family="Inter, system-ui, sans-serif" font-size="11" fill="#94a3b8">764</text>
<line x1="52" y1="181.0" x2="872" y2="181.0" stroke="#f1f5f9"/>
<text x="44" y="185.0" text-anchor="end" font-family="Inter, system-ui, sans-serif" font-size="11" fill="#94a3b8">1528</text>
<line x1="52" y1="135.5" x2="872" y2="135.5" stroke="#f1f5f9"/>
<text x="44" y="139.5" text-anchor="end" font-family="Inter, system-ui, sans-serif" font-size="11" fill="#94a3b8">2291</text>
<line x1="52" y1="90.0" x2="872" y2="90.0" stroke="#f1f5f9"/>
<text x="44" y="94.0" text-anchor="end" font-family="Inter, system-ui, sans-serif" font-size="11" fill="#94a3b8">3055</text>
<polygon points="52.0,272.0 52.0,271.9 54.6,271.8 86.2,271.2 88.8,271.0 91.4,271.0 99.3,270.9 115.1,270.9 149.2,270.8 151.9,270.3 154.5,270.2 162.4,270.1 165.0,270.0 167.6,270.0 170.3,269.8 175.5,269.7 178.2,269.4 186.0,269.2 196.6,269.1 199.2,268.9 201.8,268.8 222.8,268.7 228.1,268.7 241.2,268.6 243.9,268.5 246.5,268.4 257.0,268.4 259.6,268.0 262.3,267.7 264.9,266.9 267.5,266.8 285.9,266.8 293.8,266.7 299.1,266.6 301.7,266.6 304.3,266.3 306.9,266.2 309.6,266.2 312.2,266.0 314.8,265.8 325.3,265.5 330.6,265.4 341.1,265.4 343.7,265.1 346.4,265.0 349.0,264.9 354.2,264.9 356.9,263.7 359.5,262.5 362.1,262.1 364.8,261.8 367.4,261.6 370.0,261.3 372.6,260.9 375.3,260.6 377.9,260.4 380.5,260.3 385.8,260.1 388.4,259.7 391.0,259.2 393.7,258.7 396.3,258.4 401.6,258.3 406.8,258.2 409.4,257.8 412.1,257.5 414.7,256.7 417.3,256.2 419.9,255.7 422.6,255.3 425.2,254.7 427.8,254.2 430.5,253.6 433.1,252.9 435.7,252.3 438.3,251.8 441.0,251.4 443.6,251.0 446.2,250.6 448.9,250.3 451.5,250.0 454.1,249.7 456.7,249.6 459.4,249.5 464.6,249.4 467.3,248.2 469.9,247.4 472.5,247.2 475.1,247.2 480.4,247.0 483.0,246.9 493.5,246.8 498.8,246.7 506.7,246.6 509.3,245.3 511.9,243.9 514.6,243.6 517.2,242.5 519.8,241.7 522.4,241.1 525.1,240.8 527.7,240.3 530.3,240.1 533.0,239.9 535.6,239.7 538.2,239.6 554.0,238.6 556.6,237.4 559.2,237.3 561.9,237.1 564.5,237.0 582.9,237.0 606.6,235.7 609.2,234.8 611.8,233.6 614.4,232.0 617.1,231.7 619.7,231.1 622.3,230.2 624.9,229.5 627.6,227.9 630.2,225.5 632.8,223.1 635.5,220.4 638.1,217.5 640.7,215.0 643.3,213.5 646.0,211.7 648.6,208.9 651.2,206.6 653.9,205.0 656.5,203.4 659.1,201.2 661.7,199.7 664.4,198.3 667.0,197.1 669.6,196.1 672.3,194.9 674.9,194.1 677.5,193.2 680.1,192.5 682.8,190.4 685.4,188.7 688.0,187.7 690.7,187.4 693.3,186.9 695.9,186.0 698.5,185.2 701.2,183.8 703.8,182.9 706.4,182.0 709.1,181.9 711.7,181.6 714.3,180.9 716.9,179.2 719.6,176.4 722.2,173.5 724.8,170.5 727.4,168.2 730.1,165.4 732.7,162.4 735.3,159.3 738.0,156.5 740.6,154.5 743.2,152.9 745.8,151.1 748.5,149.3 751.1,148.1 753.7,146.7 756.4,145.6 759.0,144.0 761.6,141.9 764.2,139.4 766.9,137.4 769.5,135.5 772.1,134.3 774.8,133.3 777.4,132.2 780.0,131.0 782.6,129.0 785.3,127.2 787.9,125.1 790.5,123.0 793.2,121.2 795.8,119.8 798.4,119.2 801.0,118.4 803.7,117.5 806.3,117.4 808.9,117.3 811.6,116.9 814.2,116.7 816.8,116.6 819.4,116.3 822.1,116.2 829.9,116.2 832.6,116.1 835.2,115.7 837.8,113.3 840.5,111.2 843.1,109.4 845.7,107.3 848.3,105.4 851.0,103.6 853.6,101.6 856.2,99.8 858.9,97.9 861.5,96.1 864.1,94.2 866.7,92.4 869.4,90.7 872.0,90.0 872.0,272.0" fill="#e0f2fe" opacity="0.55"/>
<polyline points="52.0,271.9 54.6,271.8 86.2,271.2 88.8,271.0 91.4,271.0 99.3,270.9 115.1,270.9 149.2,270.8 151.9,270.3 154.5,270.2 162.4,270.1 165.0,270.0 167.6,270.0 170.3,269.8 175.5,269.7 178.2,269.4 186.0,269.2 196.6,269.1 199.2,268.9 201.8,268.8 222.8,268.7 228.1,268.7 241.2,268.6 243.9,268.5 246.5,268.4 257.0,268.4 259.6,268.0 262.3,267.7 264.9,266.9 267.5,266.8 285.9,266.8 293.8,266.7 299.1,266.6 301.7,266.6 304.3,266.3 306.9,266.2 309.6,266.2 312.2,266.0 314.8,265.8 325.3,265.5 330.6,265.4 341.1,265.4 343.7,265.1 346.4,265.0 349.0,264.9 354.2,264.9 356.9,263.7 359.5,262.5 362.1,262.1 364.8,261.8 367.4,261.6 370.0,261.3 372.6,260.9 375.3,260.6 377.9,260.4 380.5,260.3 385.8,260.1 388.4,259.7 391.0,259.2 393.7,258.7 396.3,258.4 401.6,258.3 406.8,258.2 409.4,257.8 412.1,257.5 414.7,256.7 417.3,256.2 419.9,255.7 422.6,255.3 425.2,254.7 427.8,254.2 430.5,253.6 433.1,252.9 435.7,252.3 438.3,251.8 441.0,251.4 443.6,251.0 446.2,250.6 448.9,250.3 451.5,250.0 454.1,249.7 456.7,249.6 459.4,249.5 464.6,249.4 467.3,248.2 469.9,247.4 472.5,247.2 475.1,247.2 480.4,247.0 483.0,246.9 493.5,246.8 498.8,246.7 506.7,246.6 509.3,245.3 511.9,243.9 514.6,243.6 517.2,242.5 519.8,241.7 522.4,241.1 525.1,240.8 527.7,240.3 530.3,240.1 533.0,239.9 535.6,239.7 538.2,239.6 554.0,238.6 556.6,237.4 559.2,237.3 561.9,237.1 564.5,237.0 582.9,237.0 606.6,235.7 609.2,234.8 611.8,233.6 614.4,232.0 617.1,231.7 619.7,231.1 622.3,230.2 624.9,229.5 627.6,227.9 630.2,225.5 632.8,223.1 635.5,220.4 638.1,217.5 640.7,215.0 643.3,213.5 646.0,211.7 648.6,208.9 651.2,206.6 653.9,205.0 656.5,203.4 659.1,201.2 661.7,199.7 664.4,198.3 667.0,197.1 669.6,196.1 672.3,194.9 674.9,194.1 677.5,193.2 680.1,192.5 682.8,190.4 685.4,188.7 688.0,187.7 690.7,187.4 693.3,186.9 695.9,186.0 698.5,185.2 701.2,183.8 703.8,182.9 706.4,182.0 709.1,181.9 711.7,181.6 714.3,180.9 716.9,179.2 719.6,176.4 722.2,173.5 724.8,170.5 727.4,168.2 730.1,165.4 732.7,162.4 735.3,159.3 738.0,156.5 740.6,154.5 743.2,152.9 745.8,151.1 748.5,149.3 751.1,148.1 753.7,146.7 756.4,145.6 759.0,144.0 761.6,141.9 764.2,139.4 766.9,137.4 769.5,135.5 772.1,134.3 774.8,133.3 777.4,132.2 780.0,131.0 782.6,129.0 785.3,127.2 787.9,125.1 790.5,123.0 793.2,121.2 795.8,119.8 798.4,119.2 801.0,118.4 803.7,117.5 806.3,117.4 808.9,117.3 811.6,116.9 814.2,116.7 816.8,116.6 819.4,116.3 822.1,116.2 829.9,116.2 832.6,116.1 835.2,115.7 837.8,113.3 840.5,111.2 843.1,109.4 845.7,107.3 848.3,105.4 851.0,103.6 853.6,101.6 856.2,99.8 858.9,97.9 861.5,96.1 864.1,94.2 866.7,92.4 869.4,90.7 872.0,90.0" fill="none" stroke="#38bdf8" stroke-width="2.5" stroke-linejoin="round" stroke-linecap="round"/>
<circle cx="872.0" cy="90.0" r="4" fill="#0ea5e9"/>
<text x="866.0" y="80.0" text-anchor="end" font-family="Inter, system-ui, sans-serif" font-size="13" font-weight="700" fill="#334155">3055</text>
<text x="52.0" y="294" text-anchor="middle" font-family="Inter, system-ui, sans-serif" font-size="11" fill="#94a3b8">Jun 10 05:00</text>
<text x="554.0" y="294" text-anchor="middle" font-family="Inter, system-ui, sans-serif" font-size="11" fill="#94a3b8">Jun 18 04:00</text>
<text x="872.0" y="294" text-anchor="middle" font-family="Inter, system-ui, sans-serif" font-size="11" fill="#94a3b8">Jun 23 05:00</text>
</svg>
