<svg xmlns="http://www.w3.org/2000/svg" width="900" height="320" viewBox="0 0 900 320" role="img" aria-labelledby="title desc">
<title id="title">unsorry proofs over time</title>
<desc id="desc">Cumulative kernel-verified proofs over time, by the hour each proof was merged.</desc>
<rect width="900" height="100%" rx="18" fill="#ffffff"/>
<rect x="0.5" y="0.5" width="899" height="319" rx="18" fill="none" stroke="#e2e8f0"/>
<text x="32" y="44" font-family="Inter, system-ui, sans-serif" font-size="28" font-weight="700" fill="#334155">unsorry — Proofs Over Time</text>
<text x="32" y="72" font-family="Inter, system-ui, sans-serif" font-size="13" fill="#64748b">3340 cumulative kernel-verified proofs · merged, hourly</text>
<line x1="52" y1="272.0" x2="872" y2="272.0" stroke="#f1f5f9"/>
<text x="44" y="276.0" text-anchor="end" font-family="Inter, system-ui, sans-serif" font-size="11" fill="#94a3b8">0</text>
<line x1="52" y1="226.5" x2="872" y2="226.5" stroke="#f1f5f9"/>
<text x="44" y="230.5" text-anchor="end" font-family="Inter, system-ui, sans-serif" font-size="11" fill="#94a3b8">835</text>
<line x1="52" y1="181.0" x2="872" y2="181.0" stroke="#f1f5f9"/>
<text x="44" y="185.0" text-anchor="end" font-family="Inter, system-ui, sans-serif" font-size="11" fill="#94a3b8">1670</text>
<line x1="52" y1="135.5" x2="872" y2="135.5" stroke="#f1f5f9"/>
<text x="44" y="139.5" text-anchor="end" font-family="Inter, system-ui, sans-serif" font-size="11" fill="#94a3b8">2505</text>
<line x1="52" y1="90.0" x2="872" y2="90.0" stroke="#f1f5f9"/>
<text x="44" y="94.0" text-anchor="end" font-family="Inter, system-ui, sans-serif" font-size="11" fill="#94a3b8">3340</text>
<polygon points="52.0,272.0 52.0,271.9 54.5,271.8 85.0,271.3 87.5,271.1 90.1,271.1 97.7,271.0 112.9,271.0 145.9,270.9 148.5,270.4 151.0,270.4 158.6,270.3 161.2,270.2 163.7,270.1 166.2,270.0 171.3,269.9 173.9,269.7 181.5,269.4 191.6,269.3 194.2,269.2 196.7,269.1 217.0,269.0 222.1,268.9 234.8,268.9 237.3,268.8 239.9,268.7 250.0,268.7 252.6,268.3 255.1,268.1 257.6,267.4 260.2,267.3 277.9,267.2 285.6,267.2 290.6,267.1 293.2,267.0 295.7,266.8 298.3,266.7 300.8,266.7 303.3,266.5 305.9,266.3 316.0,266.1 321.1,266.0 331.3,266.0 333.8,265.7 336.3,265.6 338.9,265.5 344.0,265.5 346.5,264.4 349.0,263.3 351.6,262.9 354.1,262.6 356.6,262.5 359.2,262.2 361.7,261.9 364.3,261.6 366.8,261.4 369.3,261.3 374.4,261.2 377.0,260.7 379.5,260.3 382.0,259.8 384.6,259.6 389.6,259.5 394.7,259.4 397.3,259.0 399.8,258.8 402.3,258.0 404.9,257.6 407.4,257.1 410.0,256.7 412.5,256.2 415.0,255.7 417.6,255.2 420.1,254.6 422.7,254.0 425.2,253.5 427.7,253.2 430.3,252.8 432.8,252.4 435.3,252.2 437.9,251.9 440.4,251.6 443.0,251.5 445.5,251.4 450.6,251.3 453.1,250.3 455.7,249.5 458.2,249.3 460.7,249.3 465.8,249.2 468.3,249.0 478.5,249.0 483.6,248.8 491.2,248.8 493.7,247.5 496.3,246.3 498.8,246.0 501.3,245.0 503.9,244.3 506.4,243.8 509.0,243.5 511.5,243.0 514.0,242.8 516.6,242.7 519.1,242.5 521.7,242.4 536.9,241.5 539.4,240.4 542.0,240.2 544.5,240.1 547.0,240.0 564.8,240.0 587.7,238.8 590.2,237.9 592.7,236.9 595.3,235.4 597.8,235.1 600.4,234.6 602.9,233.7 605.4,233.1 608.0,231.6 610.5,229.4 613.1,227.3 615.6,224.8 618.1,222.2 620.7,219.9 623.2,218.5 625.7,216.8 628.3,214.3 630.8,212.2 633.4,210.8 635.9,209.3 638.4,207.2 641.0,205.9 643.5,204.6 646.1,203.5 648.6,202.6 651.1,201.4 653.7,200.7 656.2,200.0 658.7,199.3 661.3,197.3 663.8,195.8 666.4,194.9 668.9,194.6 671.4,194.1 674.0,193.3 676.5,192.6 679.1,191.3 681.6,190.5 684.1,189.7 686.7,189.6 689.2,189.3 691.8,188.7 694.3,187.1 696.8,184.5 699.4,181.9 701.9,179.2 704.4,177.0 707.0,174.5 709.5,171.7 712.1,169.0 714.6,166.4 717.1,164.5 719.7,163.1 722.2,161.4 724.8,159.7 727.3,158.7 729.8,157.4 732.4,156.4 734.9,155.0 737.4,153.0 740.0,150.8 742.5,148.9 745.1,147.2 747.6,146.1 750.1,145.1 752.7,144.1 755.2,143.0 757.8,141.2 760.3,139.6 762.8,137.7 765.4,135.7 767.9,134.1 770.5,132.8 773.0,132.2 775.5,131.5 778.1,130.7 780.6,130.6 783.1,130.5 785.7,130.1 788.2,129.9 790.8,129.9 793.3,129.6 795.8,129.5 803.5,129.5 806.0,129.4 808.5,129.1 811.1,126.8 813.6,124.9 816.1,123.2 818.7,121.3 821.2,119.6 823.8,118.0 826.3,116.2 828.8,114.5 831.4,112.7 833.9,111.1 836.5,109.4 839.0,107.8 841.5,106.2 844.1,104.5 846.6,103.0 849.2,101.6 851.7,100.1 854.2,98.6 856.8,97.0 859.3,95.6 861.8,94.1 864.4,93.2 866.9,92.2 869.5,91.2 872.0,90.0 872.0,272.0" fill="#e0f2fe" opacity="0.55"/>
<polyline points="52.0,271.9 54.5,271.8 85.0,271.3 87.5,271.1 90.1,271.1 97.7,271.0 112.9,271.0 145.9,270.9 148.5,270.4 151.0,270.4 158.6,270.3 161.2,270.2 163.7,270.1 166.2,270.0 171.3,269.9 173.9,269.7 181.5,269.4 191.6,269.3 194.2,269.2 196.7,269.1 217.0,269.0 222.1,268.9 234.8,268.9 237.3,268.8 239.9,268.7 250.0,268.7 252.6,268.3 255.1,268.1 257.6,267.4 260.2,267.3 277.9,267.2 285.6,267.2 290.6,267.1 293.2,267.0 295.7,266.8 298.3,266.7 300.8,266.7 303.3,266.5 305.9,266.3 316.0,266.1 321.1,266.0 331.3,266.0 333.8,265.7 336.3,265.6 338.9,265.5 344.0,265.5 346.5,264.4 349.0,263.3 351.6,262.9 354.1,262.6 356.6,262.5 359.2,262.2 361.7,261.9 364.3,261.6 366.8,261.4 369.3,261.3 374.4,261.2 377.0,260.7 379.5,260.3 382.0,259.8 384.6,259.6 389.6,259.5 394.7,259.4 397.3,259.0 399.8,258.8 402.3,258.0 404.9,257.6 407.4,257.1 410.0,256.7 412.5,256.2 415.0,255.7 417.6,255.2 420.1,254.6 422.7,254.0 425.2,253.5 427.7,253.2 430.3,252.8 432.8,252.4 435.3,252.2 437.9,251.9 440.4,251.6 443.0,251.5 445.5,251.4 450.6,251.3 453.1,250.3 455.7,249.5 458.2,249.3 460.7,249.3 465.8,249.2 468.3,249.0 478.5,249.0 483.6,248.8 491.2,248.8 493.7,247.5 496.3,246.3 498.8,246.0 501.3,245.0 503.9,244.3 506.4,243.8 509.0,243.5 511.5,243.0 514.0,242.8 516.6,242.7 519.1,242.5 521.7,242.4 536.9,241.5 539.4,240.4 542.0,240.2 544.5,240.1 547.0,240.0 564.8,240.0 587.7,238.8 590.2,237.9 592.7,236.9 595.3,235.4 597.8,235.1 600.4,234.6 602.9,233.7 605.4,233.1 608.0,231.6 610.5,229.4 613.1,227.3 615.6,224.8 618.1,222.2 620.7,219.9 623.2,218.5 625.7,216.8 628.3,214.3 630.8,212.2 633.4,210.8 635.9,209.3 638.4,207.2 641.0,205.9 643.5,204.6 646.1,203.5 648.6,202.6 651.1,201.4 653.7,200.7 656.2,200.0 658.7,199.3 661.3,197.3 663.8,195.8 666.4,194.9 668.9,194.6 671.4,194.1 674.0,193.3 676.5,192.6 679.1,191.3 681.6,190.5 684.1,189.7 686.7,189.6 689.2,189.3 691.8,188.7 694.3,187.1 696.8,184.5 699.4,181.9 701.9,179.2 704.4,177.0 707.0,174.5 709.5,171.7 712.1,169.0 714.6,166.4 717.1,164.5 719.7,163.1 722.2,161.4 724.8,159.7 727.3,158.7 729.8,157.4 732.4,156.4 734.9,155.0 737.4,153.0 740.0,150.8 742.5,148.9 745.1,147.2 747.6,146.1 750.1,145.1 752.7,144.1 755.2,143.0 757.8,141.2 760.3,139.6 762.8,137.7 765.4,135.7 767.9,134.1 770.5,132.8 773.0,132.2 775.5,131.5 778.1,130.7 780.6,130.6 783.1,130.5 785.7,130.1 788.2,129.9 790.8,129.9 793.3,129.6 795.8,129.5 803.5,129.5 806.0,129.4 808.5,129.1 811.1,126.8 813.6,124.9 816.1,123.2 818.7,121.3 821.2,119.6 823.8,118.0 826.3,116.2 828.8,114.5 831.4,112.7 833.9,111.1 836.5,109.4 839.0,107.8 841.5,106.2 844.1,104.5 846.6,103.0 849.2,101.6 851.7,100.1 854.2,98.6 856.8,97.0 859.3,95.6 861.8,94.1 864.4,93.2 866.9,92.2 869.5,91.2 872.0,90.0" fill="none" stroke="#38bdf8" stroke-width="2.5" stroke-linejoin="round" stroke-linecap="round"/>
<circle cx="872.0" cy="90.0" r="4" fill="#0ea5e9"/>
<text x="866.0" y="80.0" text-anchor="end" font-family="Inter, system-ui, sans-serif" font-size="13" font-weight="700" fill="#334155">3340</text>
<text x="52.0" y="294" text-anchor="middle" font-family="Inter, system-ui, sans-serif" font-size="11" fill="#94a3b8">Jun 10 05:00</text>
<text x="587.7" y="294" text-anchor="middle" font-family="Inter, system-ui, sans-serif" font-size="11" fill="#94a3b8">Jun 19 00:00</text>
<text x="872.0" y="294" text-anchor="middle" font-family="Inter, system-ui, sans-serif" font-size="11" fill="#94a3b8">Jun 23 16:00</text>
</svg>
