<svg xmlns="http://www.w3.org/2000/svg" width="900" height="320" viewBox="0 0 900 320" role="img" aria-labelledby="title desc">
<title id="title">unsorry proofs over time</title>
<desc id="desc">Cumulative kernel-verified proofs over time, by the hour each proof was merged.</desc>
<rect width="900" height="100%" rx="18" fill="#ffffff"/>
<rect x="0.5" y="0.5" width="899" height="319" rx="18" fill="none" stroke="#e2e8f0"/>
<text x="32" y="44" font-family="Inter, system-ui, sans-serif" font-size="28" font-weight="700" fill="#334155">unsorry — Proofs Over Time</text>
<text x="32" y="72" font-family="Inter, system-ui, sans-serif" font-size="13" fill="#64748b">4513 cumulative kernel-verified proofs · merged, hourly</text>
<line x1="52" y1="272.0" x2="872" y2="272.0" stroke="#f1f5f9"/>
<text x="44" y="276.0" text-anchor="end" font-family="Inter, system-ui, sans-serif" font-size="11" fill="#94a3b8">0</text>
<line x1="52" y1="226.5" x2="872" y2="226.5" stroke="#f1f5f9"/>
<text x="44" y="230.5" text-anchor="end" font-family="Inter, system-ui, sans-serif" font-size="11" fill="#94a3b8">1128</text>
<line x1="52" y1="181.0" x2="872" y2="181.0" stroke="#f1f5f9"/>
<text x="44" y="185.0" text-anchor="end" font-family="Inter, system-ui, sans-serif" font-size="11" fill="#94a3b8">2256</text>
<line x1="52" y1="135.5" x2="872" y2="135.5" stroke="#f1f5f9"/>
<text x="44" y="139.5" text-anchor="end" font-family="Inter, system-ui, sans-serif" font-size="11" fill="#94a3b8">3385</text>
<line x1="52" y1="90.0" x2="872" y2="90.0" stroke="#f1f5f9"/>
<text x="44" y="94.0" text-anchor="end" font-family="Inter, system-ui, sans-serif" font-size="11" fill="#94a3b8">4513</text>
<polygon points="52.0,272.0 52.0,272.0 54.1,271.9 79.5,271.5 81.7,271.4 83.8,271.3 90.1,271.3 102.9,271.2 130.4,271.2 132.5,270.8 134.6,270.8 141.0,270.7 143.1,270.7 145.2,270.6 147.3,270.5 151.6,270.5 153.7,270.3 160.1,270.1 168.5,270.0 170.7,269.9 172.8,269.8 189.7,269.8 194.0,269.7 204.6,269.7 206.7,269.7 208.8,269.6 217.3,269.5 219.4,269.3 221.5,269.1 223.6,268.6 225.7,268.5 240.6,268.5 246.9,268.4 251.2,268.4 253.3,268.3 255.4,268.1 257.5,268.1 259.6,268.0 261.8,267.9 263.9,267.8 272.4,267.6 276.6,267.6 285.1,267.5 287.2,267.3 289.3,267.3 291.4,267.2 295.7,267.2 297.8,266.4 299.9,265.5 302.0,265.3 304.1,265.1 306.3,265.0 308.4,264.8 310.5,264.5 312.6,264.3 314.7,264.2 316.9,264.1 321.1,264.0 323.2,263.7 325.3,263.3 327.5,263.0 329.6,262.8 333.8,262.7 338.0,262.7 340.2,262.4 342.3,262.2 344.4,261.6 346.5,261.3 348.6,261.0 350.8,260.7 352.9,260.3 355.0,259.9 357.1,259.5 359.2,259.1 361.4,258.7 363.5,258.3 365.6,258.1 367.7,257.8 369.8,257.5 371.9,257.3 374.1,257.1 376.2,256.9 378.3,256.8 380.4,256.8 384.7,256.7 386.8,255.9 388.9,255.3 391.0,255.2 393.1,255.2 397.4,255.1 399.5,255.0 408.0,254.9 412.2,254.9 418.6,254.8 420.7,253.9 422.8,253.0 424.9,252.8 427.0,252.0 429.2,251.5 431.3,251.1 433.4,250.9 435.5,250.5 437.6,250.4 439.8,250.3 441.9,250.1 444.0,250.1 456.7,249.4 458.8,248.6 460.9,248.5 463.1,248.4 465.2,248.3 480.0,248.3 499.1,247.4 501.2,246.8 503.3,246.0 505.4,244.9 507.6,244.7 509.7,244.3 511.8,243.7 513.9,243.2 516.0,242.1 518.1,240.5 520.3,238.9 522.4,237.1 524.5,235.1 526.6,233.4 528.7,232.4 530.9,231.1 533.0,229.3 535.1,227.7 537.2,226.7 539.3,225.6 541.5,224.1 543.6,223.1 545.7,222.1 547.8,221.3 549.9,220.6 552.1,219.8 554.2,219.3 556.3,218.7 558.4,218.2 560.5,216.8 562.6,215.6 564.8,214.9 566.9,214.7 569.0,214.4 571.1,213.8 573.2,213.2 575.4,212.3 577.5,211.7 579.6,211.1 581.7,211.0 583.8,210.8 586.0,210.3 588.1,209.2 590.2,207.3 592.3,205.3 594.4,203.3 596.5,201.7 598.7,199.8 600.8,197.8 602.9,195.7 605.0,193.8 607.1,192.5 609.3,191.4 611.4,190.1 613.5,188.9 615.6,188.1 617.7,187.2 619.9,186.4 622.0,185.4 624.1,184.0 626.2,182.3 628.3,180.9 630.4,179.6 632.6,178.8 634.7,178.1 636.8,177.4 638.9,176.5 641.0,175.2 643.2,174.0 645.3,172.6 647.4,171.1 649.5,169.9 651.6,169.0 653.8,168.6 655.9,168.0 658.0,167.4 660.1,167.3 662.2,167.3 664.4,167.0 666.5,166.9 668.6,166.8 670.7,166.6 672.8,166.5 679.2,166.5 681.3,166.5 683.4,166.2 685.5,164.6 687.7,163.2 689.8,161.9 691.9,160.5 694.0,159.2 696.1,158.0 698.3,156.7 700.4,155.5 702.5,154.1 704.6,152.9 706.7,151.7 708.8,150.5 711.0,149.3 713.1,148.1 715.2,146.9 717.3,145.9 719.4,144.8 721.6,143.6 723.7,142.5 725.8,141.5 727.9,140.4 730.0,139.6 732.2,138.9 734.3,138.2 736.4,137.1 738.5,136.2 740.6,135.3 742.7,134.2 744.9,133.3 747.0,132.5 749.1,131.5 751.2,130.5 753.3,129.6 755.5,128.7 757.6,127.7 759.7,126.9 761.8,125.9 763.9,125.1 766.1,124.4 768.2,123.4 770.3,122.6 772.4,121.8 774.5,121.2 776.7,120.6 778.8,120.2 780.9,120.1 783.0,119.2 785.1,118.5 787.2,117.7 789.4,116.8 791.5,116.1 793.6,115.3 795.7,114.6 797.8,113.8 800.0,113.1 802.1,112.4 804.2,111.7 806.3,111.0 808.4,110.2 810.6,109.6 812.7,108.8 814.8,108.1 816.9,107.4 819.0,106.8 821.1,106.0 823.3,105.4 825.4,104.9 827.5,104.0 829.6,103.2 831.7,102.6 833.9,101.8 836.0,101.1 838.1,100.5 840.2,99.9 842.3,99.1 844.5,98.5 846.6,98.1 848.7,97.5 850.8,96.8 852.9,96.0 855.0,95.2 857.2,94.5 859.3,93.8 861.4,93.2 863.5,92.6 865.6,91.9 867.8,91.3 869.9,90.6 872.0,90.0 872.0,272.0" fill="#e0f2fe" opacity="0.55"/>
<polyline points="52.0,272.0 54.1,271.9 79.5,271.5 81.7,271.4 83.8,271.3 90.1,271.3 102.9,271.2 130.4,271.2 132.5,270.8 134.6,270.8 141.0,270.7 143.1,270.7 145.2,270.6 147.3,270.5 151.6,270.5 153.7,270.3 160.1,270.1 168.5,270.0 170.7,269.9 172.8,269.8 189.7,269.8 194.0,269.7 204.6,269.7 206.7,269.7 208.8,269.6 217.3,269.5 219.4,269.3 221.5,269.1 223.6,268.6 225.7,268.5 240.6,268.5 246.9,268.4 251.2,268.4 253.3,268.3 255.4,268.1 257.5,268.1 259.6,268.0 261.8,267.9 263.9,267.8 272.4,267.6 276.6,267.6 285.1,267.5 287.2,267.3 289.3,267.3 291.4,267.2 295.7,267.2 297.8,266.4 299.9,265.5 302.0,265.3 304.1,265.1 306.3,265.0 308.4,264.8 310.5,264.5 312.6,264.3 314.7,264.2 316.9,264.1 321.1,264.0 323.2,263.7 325.3,263.3 327.5,263.0 329.6,262.8 333.8,262.7 338.0,262.7 340.2,262.4 342.3,262.2 344.4,261.6 346.5,261.3 348.6,261.0 350.8,260.7 352.9,260.3 355.0,259.9 357.1,259.5 359.2,259.1 361.4,258.7 363.5,258.3 365.6,258.1 367.7,257.8 369.8,257.5 371.9,257.3 374.1,257.1 376.2,256.9 378.3,256.8 380.4,256.8 384.7,256.7 386.8,255.9 388.9,255.3 391.0,255.2 393.1,255.2 397.4,255.1 399.5,255.0 408.0,254.9 412.2,254.9 418.6,254.8 420.7,253.9 422.8,253.0 424.9,252.8 427.0,252.0 429.2,251.5 431.3,251.1 433.4,250.9 435.5,250.5 437.6,250.4 439.8,250.3 441.9,250.1 444.0,250.1 456.7,249.4 458.8,248.6 460.9,248.5 463.1,248.4 465.2,248.3 480.0,248.3 499.1,247.4 501.2,246.8 503.3,246.0 505.4,244.9 507.6,244.7 509.7,244.3 511.8,243.7 513.9,243.2 516.0,242.1 518.1,240.5 520.3,238.9 522.4,237.1 524.5,235.1 526.6,233.4 528.7,232.4 530.9,231.1 533.0,229.3 535.1,227.7 537.2,226.7 539.3,225.6 541.5,224.1 543.6,223.1 545.7,222.1 547.8,221.3 549.9,220.6 552.1,219.8 554.2,219.3 556.3,218.7 558.4,218.2 560.5,216.8 562.6,215.6 564.8,214.9 566.9,214.7 569.0,214.4 571.1,213.8 573.2,213.2 575.4,212.3 577.5,211.7 579.6,211.1 581.7,211.0 583.8,210.8 586.0,210.3 588.1,209.2 590.2,207.3 592.3,205.3 594.4,203.3 596.5,201.7 598.7,199.8 600.8,197.8 602.9,195.7 605.0,193.8 607.1,192.5 609.3,191.4 611.4,190.1 613.5,188.9 615.6,188.1 617.7,187.2 619.9,186.4 622.0,185.4 624.1,184.0 626.2,182.3 628.3,180.9 630.4,179.6 632.6,178.8 634.7,178.1 636.8,177.4 638.9,176.5 641.0,175.2 643.2,174.0 645.3,172.6 647.4,171.1 649.5,169.9 651.6,169.0 653.8,168.6 655.9,168.0 658.0,167.4 660.1,167.3 662.2,167.3 664.4,167.0 666.5,166.9 668.6,166.8 670.7,166.6 672.8,166.5 679.2,166.5 681.3,166.5 683.4,166.2 685.5,164.6 687.7,163.2 689.8,161.9 691.9,160.5 694.0,159.2 696.1,158.0 698.3,156.7 700.4,155.5 702.5,154.1 704.6,152.9 706.7,151.7 708.8,150.5 711.0,149.3 713.1,148.1 715.2,146.9 717.3,145.9 719.4,144.8 721.6,143.6 723.7,142.5 725.8,141.5 727.9,140.4 730.0,139.6 732.2,138.9 734.3,138.2 736.4,137.1 738.5,136.2 740.6,135.3 742.7,134.2 744.9,133.3 747.0,132.5 749.1,131.5 751.2,130.5 753.3,129.6 755.5,128.7 757.6,127.7 759.7,126.9 761.8,125.9 763.9,125.1 766.1,124.4 768.2,123.4 770.3,122.6 772.4,121.8 774.5,121.2 776.7,120.6 778.8,120.2 780.9,120.1 783.0,119.2 785.1,118.5 787.2,117.7 789.4,116.8 791.5,116.1 793.6,115.3 795.7,114.6 797.8,113.8 800.0,113.1 802.1,112.4 804.2,111.7 806.3,111.0 808.4,110.2 810.6,109.6 812.7,108.8 814.8,108.1 816.9,107.4 819.0,106.8 821.1,106.0 823.3,105.4 825.4,104.9 827.5,104.0 829.6,103.2 831.7,102.6 833.9,101.8 836.0,101.1 838.1,100.5 840.2,99.9 842.3,99.1 844.5,98.5 846.6,98.1 848.7,97.5 850.8,96.8 852.9,96.0 855.0,95.2 857.2,94.5 859.3,93.8 861.4,93.2 863.5,92.6 865.6,91.9 867.8,91.3 869.9,90.6 872.0,90.0" fill="none" stroke="#38bdf8" stroke-width="2.5" stroke-linejoin="round" stroke-linecap="round"/>
<circle cx="872.0" cy="90.0" r="4" fill="#0ea5e9"/>
<text x="866.0" y="80.0" text-anchor="end" font-family="Inter, system-ui, sans-serif" font-size="13" font-weight="700" fill="#334155">4513</text>
<text x="52.0" y="294" text-anchor="middle" font-family="Inter, system-ui, sans-serif" font-size="11" fill="#94a3b8">Jun 10 05:00</text>
<text x="566.9" y="294" text-anchor="middle" font-family="Inter, system-ui, sans-serif" font-size="11" fill="#94a3b8">Jun 20 08:00</text>
<text x="872.0" y="294" text-anchor="middle" font-family="Inter, system-ui, sans-serif" font-size="11" fill="#94a3b8">Jun 26 08:00</text>
</svg>
