<svg xmlns="http://www.w3.org/2000/svg" width="900" height="320" viewBox="0 0 900 320" role="img" aria-labelledby="title desc">
<title id="title">unsorry proofs over time</title>
<desc id="desc">Cumulative kernel-verified proofs over time, by the hour each proof was merged.</desc>
<rect width="900" height="100%" rx="18" fill="#ffffff"/>
<rect x="0.5" y="0.5" width="899" height="319" rx="18" fill="none" stroke="#e2e8f0"/>
<text x="32" y="44" font-family="Inter, system-ui, sans-serif" font-size="28" font-weight="700" fill="#334155">unsorry — Proofs Over Time</text>
<text x="32" y="72" font-family="Inter, system-ui, sans-serif" font-size="13" fill="#64748b">4598 cumulative kernel-verified proofs · merged, hourly</text>
<line x1="52" y1="272.0" x2="872" y2="272.0" stroke="#f1f5f9"/>
<text x="44" y="276.0" text-anchor="end" font-family="Inter, system-ui, sans-serif" font-size="11" fill="#94a3b8">0</text>
<line x1="52" y1="226.5" x2="872" y2="226.5" stroke="#f1f5f9"/>
<text x="44" y="230.5" text-anchor="end" font-family="Inter, system-ui, sans-serif" font-size="11" fill="#94a3b8">1150</text>
<line x1="52" y1="181.0" x2="872" y2="181.0" stroke="#f1f5f9"/>
<text x="44" y="185.0" text-anchor="end" font-family="Inter, system-ui, sans-serif" font-size="11" fill="#94a3b8">2299</text>
<line x1="52" y1="135.5" x2="872" y2="135.5" stroke="#f1f5f9"/>
<text x="44" y="139.5" text-anchor="end" font-family="Inter, system-ui, sans-serif" font-size="11" fill="#94a3b8">3448</text>
<line x1="52" y1="90.0" x2="872" y2="90.0" stroke="#f1f5f9"/>
<text x="44" y="94.0" text-anchor="end" font-family="Inter, system-ui, sans-serif" font-size="11" fill="#94a3b8">4598</text>
<polygon points="52.0,272.0 52.0,272.0 54.1,271.9 79.1,271.5 81.2,271.4 83.3,271.3 89.6,271.3 102.1,271.2 129.2,271.2 131.3,270.9 133.4,270.8 139.6,270.7 141.7,270.7 143.8,270.7 145.9,270.5 150.1,270.5 152.2,270.3 158.4,270.1 166.8,270.1 168.8,269.9 170.9,269.9 187.6,269.8 191.8,269.8 202.2,269.7 204.3,269.7 206.4,269.6 214.7,269.6 216.8,269.3 218.9,269.2 221.0,268.6 223.1,268.6 237.7,268.5 244.0,268.5 248.1,268.4 250.2,268.4 252.3,268.2 254.4,268.2 256.5,268.1 258.6,268.0 260.7,267.9 269.0,267.7 273.2,267.6 281.5,267.6 283.6,267.4 285.7,267.4 287.8,267.3 291.9,267.3 294.0,266.5 296.1,265.7 298.2,265.4 300.3,265.2 302.4,265.1 304.5,264.9 306.6,264.6 308.6,264.4 310.7,264.3 312.8,264.2 317.0,264.1 319.1,263.8 321.2,263.5 323.2,263.2 325.3,263.0 329.5,262.9 333.7,262.9 335.8,262.6 337.9,262.4 339.9,261.8 342.0,261.5 344.1,261.2 346.2,260.9 348.3,260.5 350.4,260.2 352.5,259.8 354.5,259.3 356.6,258.9 358.7,258.6 360.8,258.3 362.9,258.1 365.0,257.8 367.1,257.6 369.2,257.4 371.2,257.2 373.3,257.1 375.4,257.0 379.6,257.0 381.7,256.2 383.8,255.7 385.8,255.5 387.9,255.5 392.1,255.4 394.2,255.3 402.5,255.3 406.7,255.2 413.0,255.1 415.1,254.2 417.1,253.4 419.2,253.1 421.3,252.4 423.4,251.9 425.5,251.5 427.6,251.3 429.7,250.9 431.7,250.8 433.8,250.7 435.9,250.5 438.0,250.5 450.5,249.8 452.6,249.0 454.7,248.9 456.8,248.8 458.9,248.8 473.5,248.7 492.3,247.9 494.3,247.3 496.4,246.5 498.5,245.4 500.6,245.2 502.7,244.8 504.8,244.2 506.9,243.7 508.9,242.7 511.0,241.1 513.1,239.5 515.2,237.7 517.3,235.8 519.4,234.2 521.5,233.1 523.6,231.9 525.6,230.1 527.7,228.5 529.8,227.5 531.9,226.4 534.0,224.9 536.1,224.0 538.2,223.0 540.2,222.2 542.3,221.6 544.4,220.7 546.5,220.2 548.6,219.7 550.7,219.2 552.8,217.8 554.8,216.6 556.9,216.0 559.0,215.8 561.1,215.4 563.2,214.8 565.3,214.3 567.4,213.4 569.5,212.8 571.5,212.2 573.6,212.2 575.7,211.9 577.8,211.5 579.9,210.3 582.0,208.5 584.1,206.5 586.1,204.6 588.2,203.0 590.3,201.1 592.4,199.2 594.5,197.1 596.6,195.3 598.7,193.9 600.8,192.9 602.8,191.6 604.9,190.5 607.0,189.7 609.1,188.7 611.2,188.0 613.3,187.0 615.4,185.6 617.4,183.9 619.5,182.5 621.6,181.3 623.7,180.5 625.8,179.8 627.9,179.1 630.0,178.3 632.1,177.0 634.1,175.8 636.2,174.4 638.3,173.0 640.4,171.8 642.5,170.9 644.6,170.5 646.7,169.9 648.7,169.4 650.8,169.3 652.9,169.2 655.0,168.9 657.1,168.8 659.2,168.8 661.3,168.6 663.3,168.5 669.6,168.5 671.7,168.4 673.8,168.2 675.9,166.6 678.0,165.2 680.0,163.9 682.1,162.6 684.2,161.3 686.3,160.1 688.4,158.8 690.5,157.6 692.6,156.3 694.6,155.1 696.7,153.9 698.8,152.7 700.9,151.6 703.0,150.4 705.1,149.2 707.2,148.2 709.3,147.1 711.3,146.0 713.4,144.9 715.5,143.9 717.6,142.8 719.7,142.1 721.8,141.4 723.9,140.7 725.9,139.6 728.0,138.7 730.1,137.9 732.2,136.8 734.3,135.9 736.4,135.0 738.5,134.1 740.5,133.1 742.6,132.2 744.7,131.4 746.8,130.3 748.9,129.5 751.0,128.6 753.1,127.8 755.2,127.1 757.2,126.2 759.3,125.3 761.4,124.6 763.5,124.0 765.6,123.4 767.7,123.0 769.8,122.9 771.8,122.1 773.9,121.3 776.0,120.5 778.1,119.7 780.2,119.0 782.3,118.2 784.4,117.5 786.5,116.7 788.5,116.0 790.6,115.3 792.7,114.7 794.8,114.0 796.9,113.2 799.0,112.6 801.1,111.8 803.1,111.1 805.2,110.5 807.3,109.9 809.4,109.1 811.5,108.5 813.6,108.0 815.7,107.1 817.8,106.3 819.8,105.7 821.9,105.0 824.0,104.2 826.1,103.7 828.2,103.1 830.3,102.3 832.4,101.7 834.4,101.3 836.5,100.7 838.6,100.0 840.7,99.3 842.8,98.5 844.9,97.8 847.0,97.1 849.0,96.5 851.1,95.9 853.2,95.2 855.3,94.6 857.4,94.0 859.5,93.4 861.6,92.6 863.7,92.2 865.7,91.5 867.8,90.8 869.9,90.6 872.0,90.0 872.0,272.0" fill="#e0f2fe" opacity="0.55"/>
<polyline points="52.0,272.0 54.1,271.9 79.1,271.5 81.2,271.4 83.3,271.3 89.6,271.3 102.1,271.2 129.2,271.2 131.3,270.9 133.4,270.8 139.6,270.7 141.7,270.7 143.8,270.7 145.9,270.5 150.1,270.5 152.2,270.3 158.4,270.1 166.8,270.1 168.8,269.9 170.9,269.9 187.6,269.8 191.8,269.8 202.2,269.7 204.3,269.7 206.4,269.6 214.7,269.6 216.8,269.3 218.9,269.2 221.0,268.6 223.1,268.6 237.7,268.5 244.0,268.5 248.1,268.4 250.2,268.4 252.3,268.2 254.4,268.2 256.5,268.1 258.6,268.0 260.7,267.9 269.0,267.7 273.2,267.6 281.5,267.6 283.6,267.4 285.7,267.4 287.8,267.3 291.9,267.3 294.0,266.5 296.1,265.7 298.2,265.4 300.3,265.2 302.4,265.1 304.5,264.9 306.6,264.6 308.6,264.4 310.7,264.3 312.8,264.2 317.0,264.1 319.1,263.8 321.2,263.5 323.2,263.2 325.3,263.0 329.5,262.9 333.7,262.9 335.8,262.6 337.9,262.4 339.9,261.8 342.0,261.5 344.1,261.2 346.2,260.9 348.3,260.5 350.4,260.2 352.5,259.8 354.5,259.3 356.6,258.9 358.7,258.6 360.8,258.3 362.9,258.1 365.0,257.8 367.1,257.6 369.2,257.4 371.2,257.2 373.3,257.1 375.4,257.0 379.6,257.0 381.7,256.2 383.8,255.7 385.8,255.5 387.9,255.5 392.1,255.4 394.2,255.3 402.5,255.3 406.7,255.2 413.0,255.1 415.1,254.2 417.1,253.4 419.2,253.1 421.3,252.4 423.4,251.9 425.5,251.5 427.6,251.3 429.7,250.9 431.7,250.8 433.8,250.7 435.9,250.5 438.0,250.5 450.5,249.8 452.6,249.0 454.7,248.9 456.8,248.8 458.9,248.8 473.5,248.7 492.3,247.9 494.3,247.3 496.4,246.5 498.5,245.4 500.6,245.2 502.7,244.8 504.8,244.2 506.9,243.7 508.9,242.7 511.0,241.1 513.1,239.5 515.2,237.7 517.3,235.8 519.4,234.2 521.5,233.1 523.6,231.9 525.6,230.1 527.7,228.5 529.8,227.5 531.9,226.4 534.0,224.9 536.1,224.0 538.2,223.0 540.2,222.2 542.3,221.6 544.4,220.7 546.5,220.2 548.6,219.7 550.7,219.2 552.8,217.8 554.8,216.6 556.9,216.0 559.0,215.8 561.1,215.4 563.2,214.8 565.3,214.3 567.4,213.4 569.5,212.8 571.5,212.2 573.6,212.2 575.7,211.9 577.8,211.5 579.9,210.3 582.0,208.5 584.1,206.5 586.1,204.6 588.2,203.0 590.3,201.1 592.4,199.2 594.5,197.1 596.6,195.3 598.7,193.9 600.8,192.9 602.8,191.6 604.9,190.5 607.0,189.7 609.1,188.7 611.2,188.0 613.3,187.0 615.4,185.6 617.4,183.9 619.5,182.5 621.6,181.3 623.7,180.5 625.8,179.8 627.9,179.1 630.0,178.3 632.1,177.0 634.1,175.8 636.2,174.4 638.3,173.0 640.4,171.8 642.5,170.9 644.6,170.5 646.7,169.9 648.7,169.4 650.8,169.3 652.9,169.2 655.0,168.9 657.1,168.8 659.2,168.8 661.3,168.6 663.3,168.5 669.6,168.5 671.7,168.4 673.8,168.2 675.9,166.6 678.0,165.2 680.0,163.9 682.1,162.6 684.2,161.3 686.3,160.1 688.4,158.8 690.5,157.6 692.6,156.3 694.6,155.1 696.7,153.9 698.8,152.7 700.9,151.6 703.0,150.4 705.1,149.2 707.2,148.2 709.3,147.1 711.3,146.0 713.4,144.9 715.5,143.9 717.6,142.8 719.7,142.1 721.8,141.4 723.9,140.7 725.9,139.6 728.0,138.7 730.1,137.9 732.2,136.8 734.3,135.9 736.4,135.0 738.5,134.1 740.5,133.1 742.6,132.2 744.7,131.4 746.8,130.3 748.9,129.5 751.0,128.6 753.1,127.8 755.2,127.1 757.2,126.2 759.3,125.3 761.4,124.6 763.5,124.0 765.6,123.4 767.7,123.0 769.8,122.9 771.8,122.1 773.9,121.3 776.0,120.5 778.1,119.7 780.2,119.0 782.3,118.2 784.4,117.5 786.5,116.7 788.5,116.0 790.6,115.3 792.7,114.7 794.8,114.0 796.9,113.2 799.0,112.6 801.1,111.8 803.1,111.1 805.2,110.5 807.3,109.9 809.4,109.1 811.5,108.5 813.6,108.0 815.7,107.1 817.8,106.3 819.8,105.7 821.9,105.0 824.0,104.2 826.1,103.7 828.2,103.1 830.3,102.3 832.4,101.7 834.4,101.3 836.5,100.7 838.6,100.0 840.7,99.3 842.8,98.5 844.9,97.8 847.0,97.1 849.0,96.5 851.1,95.9 853.2,95.2 855.3,94.6 857.4,94.0 859.5,93.4 861.6,92.6 863.7,92.2 865.7,91.5 867.8,90.8 869.9,90.6 872.0,90.0" fill="none" stroke="#38bdf8" stroke-width="2.5" stroke-linejoin="round" stroke-linecap="round"/>
<circle cx="872.0" cy="90.0" r="4" fill="#0ea5e9"/>
<text x="866.0" y="80.0" text-anchor="end" font-family="Inter, system-ui, sans-serif" font-size="13" font-weight="700" fill="#334155">4598</text>
<text x="52.0" y="294" text-anchor="middle" font-family="Inter, system-ui, sans-serif" font-size="11" fill="#94a3b8">Jun 10 05:00</text>
<text x="565.3" y="294" text-anchor="middle" font-family="Inter, system-ui, sans-serif" font-size="11" fill="#94a3b8">Jun 20 11:00</text>
<text x="872.0" y="294" text-anchor="middle" font-family="Inter, system-ui, sans-serif" font-size="11" fill="#94a3b8">Jun 26 14:00</text>
</svg>
