<svg xmlns="http://www.w3.org/2000/svg" width="900" height="320" viewBox="0 0 900 320" role="img" aria-labelledby="title desc">
<title id="title">unsorry proofs over time</title>
<desc id="desc">Cumulative kernel-verified proofs over time, by the hour each proof was merged.</desc>
<rect width="900" height="100%" rx="18" fill="#ffffff"/>
<rect x="0.5" y="0.5" width="899" height="319" rx="18" fill="none" stroke="#e2e8f0"/>
<text x="32" y="44" font-family="Inter, system-ui, sans-serif" font-size="28" font-weight="700" fill="#334155">unsorry — Proofs Over Time</text>
<text x="32" y="72" font-family="Inter, system-ui, sans-serif" font-size="13" fill="#64748b">4317 cumulative kernel-verified proofs · merged, hourly</text>
<line x1="52" y1="272.0" x2="872" y2="272.0" stroke="#f1f5f9"/>
<text x="44" y="276.0" text-anchor="end" font-family="Inter, system-ui, sans-serif" font-size="11" fill="#94a3b8">0</text>
<line x1="52" y1="226.5" x2="872" y2="226.5" stroke="#f1f5f9"/>
<text x="44" y="230.5" text-anchor="end" font-family="Inter, system-ui, sans-serif" font-size="11" fill="#94a3b8">1079</text>
<line x1="52" y1="181.0" x2="872" y2="181.0" stroke="#f1f5f9"/>
<text x="44" y="185.0" text-anchor="end" font-family="Inter, system-ui, sans-serif" font-size="11" fill="#94a3b8">2158</text>
<line x1="52" y1="135.5" x2="872" y2="135.5" stroke="#f1f5f9"/>
<text x="44" y="139.5" text-anchor="end" font-family="Inter, system-ui, sans-serif" font-size="11" fill="#94a3b8">3238</text>
<line x1="52" y1="90.0" x2="872" y2="90.0" stroke="#f1f5f9"/>
<text x="44" y="94.0" text-anchor="end" font-family="Inter, system-ui, sans-serif" font-size="11" fill="#94a3b8">4317</text>
<polygon points="52.0,272.0 52.0,272.0 54.2,271.9 80.4,271.5 82.5,271.3 84.7,271.3 91.3,271.2 104.3,271.2 132.7,271.2 134.9,270.8 137.1,270.7 143.6,270.7 145.8,270.6 148.0,270.6 150.1,270.4 154.5,270.4 156.7,270.2 163.2,270.0 171.9,269.9 174.1,269.8 176.3,269.7 193.8,269.7 198.1,269.6 209.0,269.6 211.2,269.6 213.4,269.5 222.1,269.4 224.3,269.2 226.5,269.0 228.6,268.4 230.8,268.3 246.1,268.3 252.6,268.2 257.0,268.2 259.2,268.2 261.4,268.0 263.5,267.9 265.7,267.9 267.9,267.7 270.1,267.6 278.8,267.4 283.2,267.4 291.9,267.3 294.1,267.1 296.3,267.1 298.4,267.0 302.8,266.9 305.0,266.1 307.2,265.3 309.3,265.0 311.5,264.7 313.7,264.7 315.9,264.5 318.1,264.2 320.2,263.9 322.4,263.8 324.6,263.7 329.0,263.6 331.1,263.3 333.3,262.9 335.5,262.6 337.7,262.4 342.1,262.3 346.4,262.3 348.6,262.0 350.8,261.8 353.0,261.2 355.1,260.8 357.3,260.5 359.5,260.2 361.7,259.8 363.9,259.4 366.0,259.0 368.2,258.5 370.4,258.1 372.6,257.7 374.8,257.5 376.9,257.2 379.1,256.8 381.3,256.7 383.5,256.4 385.7,256.2 387.9,256.1 390.0,256.1 394.4,256.0 396.6,255.2 398.8,254.6 400.9,254.5 403.1,254.4 407.5,254.3 409.7,254.2 418.4,254.2 422.7,254.1 429.3,254.0 431.5,253.1 433.6,252.1 435.8,251.9 438.0,251.1 440.2,250.5 442.4,250.2 444.6,250.0 446.7,249.6 448.9,249.4 451.1,249.3 453.3,249.1 455.5,249.1 468.5,248.4 470.7,247.5 472.9,247.4 475.1,247.3 477.3,247.3 492.5,247.2 512.2,246.3 514.3,245.7 516.5,244.8 518.7,243.7 520.9,243.5 523.1,243.1 525.2,242.4 527.4,241.9 529.6,240.8 531.8,239.1 534.0,237.4 536.1,235.5 538.3,233.5 540.5,231.7 542.7,230.6 544.9,229.3 547.1,227.4 549.2,225.7 551.4,224.6 553.6,223.5 555.8,221.9 558.0,220.9 560.1,219.8 562.3,219.0 564.5,218.3 566.7,217.4 568.9,216.9 571.0,216.3 573.2,215.8 575.4,214.2 577.6,213.0 579.8,212.3 581.9,212.1 584.1,211.8 586.3,211.1 588.5,210.6 590.7,209.6 592.9,208.9 595.0,208.3 597.2,208.3 599.4,208.0 601.6,207.5 603.8,206.3 605.9,204.3 608.1,202.3 610.3,200.2 612.5,198.5 614.7,196.5 616.8,194.4 619.0,192.3 621.2,190.3 623.4,188.9 625.6,187.7 627.7,186.4 629.9,185.2 632.1,184.3 634.3,183.3 636.5,182.5 638.6,181.4 640.8,180.0 643.0,178.2 645.2,176.7 647.4,175.4 649.6,174.6 651.7,173.8 653.9,173.1 656.1,172.2 658.3,170.8 660.5,169.6 662.6,168.1 664.8,166.6 667.0,165.3 669.2,164.3 671.4,163.9 673.5,163.3 675.7,162.7 677.9,162.6 680.1,162.5 682.3,162.2 684.4,162.1 686.6,162.0 688.8,161.8 691.0,161.8 697.5,161.7 699.7,161.7 701.9,161.4 704.1,159.7 706.3,158.2 708.4,156.9 710.6,155.4 712.8,154.1 715.0,152.8 717.2,151.4 719.3,150.2 721.5,148.8 723.7,147.5 725.9,146.2 728.1,144.9 730.2,143.7 732.4,142.4 734.6,141.2 736.8,140.2 739.0,139.0 741.1,137.8 743.3,136.6 745.5,135.5 747.7,134.4 749.9,133.6 752.1,132.9 754.2,132.1 756.4,131.0 758.6,130.1 760.8,129.1 763.0,128.0 765.1,127.0 767.3,126.1 769.5,125.1 771.7,124.1 773.9,123.1 776.0,122.2 778.2,121.1 780.4,120.3 782.6,119.3 784.8,118.5 786.9,117.7 789.1,116.7 791.3,115.8 793.5,115.0 795.7,114.3 797.9,113.7 800.0,113.3 802.2,113.2 804.4,112.3 806.6,111.5 808.8,110.7 810.9,109.8 813.1,109.1 815.3,108.2 817.5,107.4 819.7,106.6 821.8,105.9 824.0,105.1 826.2,104.4 828.4,103.7 830.6,102.9 832.7,102.2 834.9,101.4 837.1,100.7 839.3,99.9 841.5,99.3 843.6,98.5 845.8,97.9 848.0,97.3 850.2,96.4 852.4,95.6 854.6,94.9 856.7,94.1 858.9,93.3 861.1,92.7 863.3,92.1 865.5,91.2 867.6,90.6 869.8,90.2 872.0,90.0 872.0,272.0" fill="#e0f2fe" opacity="0.55"/>
<polyline points="52.0,272.0 54.2,271.9 80.4,271.5 82.5,271.3 84.7,271.3 91.3,271.2 104.3,271.2 132.7,271.2 134.9,270.8 137.1,270.7 143.6,270.7 145.8,270.6 148.0,270.6 150.1,270.4 154.5,270.4 156.7,270.2 163.2,270.0 171.9,269.9 174.1,269.8 176.3,269.7 193.8,269.7 198.1,269.6 209.0,269.6 211.2,269.6 213.4,269.5 222.1,269.4 224.3,269.2 226.5,269.0 228.6,268.4 230.8,268.3 246.1,268.3 252.6,268.2 257.0,268.2 259.2,268.2 261.4,268.0 263.5,267.9 265.7,267.9 267.9,267.7 270.1,267.6 278.8,267.4 283.2,267.4 291.9,267.3 294.1,267.1 296.3,267.1 298.4,267.0 302.8,266.9 305.0,266.1 307.2,265.3 309.3,265.0 311.5,264.7 313.7,264.7 315.9,264.5 318.1,264.2 320.2,263.9 322.4,263.8 324.6,263.7 329.0,263.6 331.1,263.3 333.3,262.9 335.5,262.6 337.7,262.4 342.1,262.3 346.4,262.3 348.6,262.0 350.8,261.8 353.0,261.2 355.1,260.8 357.3,260.5 359.5,260.2 361.7,259.8 363.9,259.4 366.0,259.0 368.2,258.5 370.4,258.1 372.6,257.7 374.8,257.5 376.9,257.2 379.1,256.8 381.3,256.7 383.5,256.4 385.7,256.2 387.9,256.1 390.0,256.1 394.4,256.0 396.6,255.2 398.8,254.6 400.9,254.5 403.1,254.4 407.5,254.3 409.7,254.2 418.4,254.2 422.7,254.1 429.3,254.0 431.5,253.1 433.6,252.1 435.8,251.9 438.0,251.1 440.2,250.5 442.4,250.2 444.6,250.0 446.7,249.6 448.9,249.4 451.1,249.3 453.3,249.1 455.5,249.1 468.5,248.4 470.7,247.5 472.9,247.4 475.1,247.3 477.3,247.3 492.5,247.2 512.2,246.3 514.3,245.7 516.5,244.8 518.7,243.7 520.9,243.5 523.1,243.1 525.2,242.4 527.4,241.9 529.6,240.8 531.8,239.1 534.0,237.4 536.1,235.5 538.3,233.5 540.5,231.7 542.7,230.6 544.9,229.3 547.1,227.4 549.2,225.7 551.4,224.6 553.6,223.5 555.8,221.9 558.0,220.9 560.1,219.8 562.3,219.0 564.5,218.3 566.7,217.4 568.9,216.9 571.0,216.3 573.2,215.8 575.4,214.2 577.6,213.0 579.8,212.3 581.9,212.1 584.1,211.8 586.3,211.1 588.5,210.6 590.7,209.6 592.9,208.9 595.0,208.3 597.2,208.3 599.4,208.0 601.6,207.5 603.8,206.3 605.9,204.3 608.1,202.3 610.3,200.2 612.5,198.5 614.7,196.5 616.8,194.4 619.0,192.3 621.2,190.3 623.4,188.9 625.6,187.7 627.7,186.4 629.9,185.2 632.1,184.3 634.3,183.3 636.5,182.5 638.6,181.4 640.8,180.0 643.0,178.2 645.2,176.7 647.4,175.4 649.6,174.6 651.7,173.8 653.9,173.1 656.1,172.2 658.3,170.8 660.5,169.6 662.6,168.1 664.8,166.6 667.0,165.3 669.2,164.3 671.4,163.9 673.5,163.3 675.7,162.7 677.9,162.6 680.1,162.5 682.3,162.2 684.4,162.1 686.6,162.0 688.8,161.8 691.0,161.8 697.5,161.7 699.7,161.7 701.9,161.4 704.1,159.7 706.3,158.2 708.4,156.9 710.6,155.4 712.8,154.1 715.0,152.8 717.2,151.4 719.3,150.2 721.5,148.8 723.7,147.5 725.9,146.2 728.1,144.9 730.2,143.7 732.4,142.4 734.6,141.2 736.8,140.2 739.0,139.0 741.1,137.8 743.3,136.6 745.5,135.5 747.7,134.4 749.9,133.6 752.1,132.9 754.2,132.1 756.4,131.0 758.6,130.1 760.8,129.1 763.0,128.0 765.1,127.0 767.3,126.1 769.5,125.1 771.7,124.1 773.9,123.1 776.0,122.2 778.2,121.1 780.4,120.3 782.6,119.3 784.8,118.5 786.9,117.7 789.1,116.7 791.3,115.8 793.5,115.0 795.7,114.3 797.9,113.7 800.0,113.3 802.2,113.2 804.4,112.3 806.6,111.5 808.8,110.7 810.9,109.8 813.1,109.1 815.3,108.2 817.5,107.4 819.7,106.6 821.8,105.9 824.0,105.1 826.2,104.4 828.4,103.7 830.6,102.9 832.7,102.2 834.9,101.4 837.1,100.7 839.3,99.9 841.5,99.3 843.6,98.5 845.8,97.9 848.0,97.3 850.2,96.4 852.4,95.6 854.6,94.9 856.7,94.1 858.9,93.3 861.1,92.7 863.3,92.1 865.5,91.2 867.6,90.6 869.8,90.2 872.0,90.0" fill="none" stroke="#38bdf8" stroke-width="2.5" stroke-linejoin="round" stroke-linecap="round"/>
<circle cx="872.0" cy="90.0" r="4" fill="#0ea5e9"/>
<text x="866.0" y="80.0" text-anchor="end" font-family="Inter, system-ui, sans-serif" font-size="13" font-weight="700" fill="#334155">4317</text>
<text x="52.0" y="294" text-anchor="middle" font-family="Inter, system-ui, sans-serif" font-size="11" fill="#94a3b8">Jun 10 05:00</text>
<text x="568.9" y="294" text-anchor="middle" font-family="Inter, system-ui, sans-serif" font-size="11" fill="#94a3b8">Jun 20 02:00</text>
<text x="872.0" y="294" text-anchor="middle" font-family="Inter, system-ui, sans-serif" font-size="11" fill="#94a3b8">Jun 25 21:00</text>
</svg>
