<svg xmlns="http://www.w3.org/2000/svg" width="900" height="320" viewBox="0 0 900 320" role="img" aria-labelledby="title desc">
<title id="title">unsorry proofs over time</title>
<desc id="desc">Cumulative kernel-verified proofs over time, by the hour each proof was merged.</desc>
<rect width="900" height="100%" rx="18" fill="#ffffff"/>
<rect x="0.5" y="0.5" width="899" height="319" rx="18" fill="none" stroke="#e2e8f0"/>
<text x="32" y="44" font-family="Inter, system-ui, sans-serif" font-size="28" font-weight="700" fill="#334155">unsorry — Proofs Over Time</text>
<text x="32" y="72" font-family="Inter, system-ui, sans-serif" font-size="13" fill="#64748b">4210 cumulative kernel-verified proofs · merged, hourly</text>
<line x1="52" y1="272.0" x2="872" y2="272.0" stroke="#f1f5f9"/>
<text x="44" y="276.0" text-anchor="end" font-family="Inter, system-ui, sans-serif" font-size="11" fill="#94a3b8">0</text>
<line x1="52" y1="226.5" x2="872" y2="226.5" stroke="#f1f5f9"/>
<text x="44" y="230.5" text-anchor="end" font-family="Inter, system-ui, sans-serif" font-size="11" fill="#94a3b8">1052</text>
<line x1="52" y1="181.0" x2="872" y2="181.0" stroke="#f1f5f9"/>
<text x="44" y="185.0" text-anchor="end" font-family="Inter, system-ui, sans-serif" font-size="11" fill="#94a3b8">2105</text>
<line x1="52" y1="135.5" x2="872" y2="135.5" stroke="#f1f5f9"/>
<text x="44" y="139.5" text-anchor="end" font-family="Inter, system-ui, sans-serif" font-size="11" fill="#94a3b8">3158</text>
<line x1="52" y1="90.0" x2="872" y2="90.0" stroke="#f1f5f9"/>
<text x="44" y="94.0" text-anchor="end" font-family="Inter, system-ui, sans-serif" font-size="11" fill="#94a3b8">4210</text>
<polygon points="52.0,272.0 52.0,272.0 54.2,271.9 80.9,271.4 83.1,271.3 85.3,271.3 92.0,271.2 105.3,271.2 134.2,271.1 136.4,270.7 138.7,270.7 145.3,270.6 147.6,270.6 149.8,270.5 152.0,270.4 156.4,270.4 158.7,270.1 165.3,270.0 174.2,269.9 176.4,269.8 178.7,269.7 196.4,269.6 200.9,269.6 212.0,269.5 214.2,269.5 216.4,269.4 225.3,269.4 227.6,269.1 229.8,268.9 232.0,268.3 234.2,268.2 249.8,268.2 256.4,268.2 260.9,268.1 263.1,268.1 265.3,267.8 267.6,267.8 269.8,267.8 272.0,267.6 274.2,267.5 283.1,267.3 287.6,267.2 296.4,267.2 298.7,267.0 300.9,266.9 303.1,266.9 307.6,266.8 309.8,265.9 312.0,265.1 314.2,264.8 316.4,264.6 318.7,264.5 320.9,264.3 323.1,264.0 325.3,263.7 327.6,263.6 329.8,263.5 334.2,263.4 336.4,263.1 338.7,262.7 340.9,262.4 343.1,262.1 347.6,262.1 352.0,262.0 354.2,261.7 356.4,261.5 358.7,260.9 360.9,260.5 363.1,260.2 365.3,259.9 367.6,259.5 369.8,259.1 372.0,258.6 374.2,258.2 376.4,257.7 378.7,257.3 380.9,257.1 383.1,256.8 385.3,256.4 387.6,256.3 389.8,256.0 392.0,255.8 394.2,255.7 396.4,255.7 400.9,255.6 403.1,254.8 405.3,254.1 407.6,254.0 409.8,254.0 414.2,253.9 416.4,253.8 425.3,253.7 429.8,253.6 436.4,253.6 438.7,252.6 440.9,251.6 443.1,251.4 445.3,250.6 447.6,250.0 449.8,249.6 452.0,249.4 454.2,249.0 456.4,248.8 458.7,248.7 460.9,248.6 463.1,248.5 476.4,247.8 478.7,246.9 480.9,246.8 483.1,246.7 485.3,246.6 500.9,246.6 520.9,245.7 523.1,245.0 525.3,244.2 527.6,242.9 529.8,242.7 532.0,242.3 534.2,241.7 536.4,241.1 538.7,240.0 540.9,238.2 543.1,236.6 545.3,234.6 547.6,232.5 549.8,230.7 552.0,229.5 554.2,228.2 556.4,226.2 558.7,224.5 560.9,223.4 563.1,222.2 565.3,220.6 567.6,219.6 569.8,218.5 572.0,217.6 574.2,216.9 576.4,216.0 578.7,215.5 580.9,214.8 583.1,214.3 585.3,212.8 587.6,211.5 589.8,210.8 592.0,210.6 594.2,210.2 596.4,209.6 598.7,209.0 600.9,208.0 603.1,207.3 605.3,206.7 607.6,206.6 609.8,206.4 612.0,205.9 614.2,204.6 616.4,202.6 618.7,200.5 620.9,198.4 623.1,196.6 625.3,194.6 627.6,192.5 629.8,190.3 632.0,188.2 634.2,186.7 636.4,185.6 638.7,184.2 640.9,182.9 643.1,182.1 645.3,181.0 647.6,180.3 649.8,179.1 652.0,177.6 654.2,175.8 656.4,174.3 658.7,173.0 660.9,172.1 663.1,171.3 665.3,170.5 667.6,169.7 669.8,168.2 672.0,167.0 674.2,165.4 676.4,163.9 678.7,162.6 680.9,161.5 683.1,161.1 685.3,160.5 687.6,159.9 689.8,159.8 692.0,159.7 694.2,159.4 696.4,159.3 698.7,159.3 700.9,159.0 703.1,159.0 709.8,158.9 712.0,158.9 714.2,158.6 716.4,156.8 718.7,155.3 720.9,154.0 723.1,152.5 725.3,151.1 727.6,149.8 729.8,148.4 732.0,147.1 734.2,145.6 736.4,144.3 738.7,143.0 740.9,141.7 743.1,140.4 745.3,139.2 747.6,137.9 749.8,136.8 752.0,135.6 754.2,134.4 756.4,133.2 758.7,132.1 760.9,130.9 763.1,130.1 765.3,129.3 767.6,128.6 769.8,127.4 772.0,126.4 774.2,125.5 776.4,124.3 778.7,123.3 780.9,122.4 783.1,121.4 785.3,120.3 787.6,119.4 789.8,118.4 792.0,117.3 794.2,116.4 796.4,115.4 798.7,114.6 800.9,113.7 803.1,112.7 805.3,111.8 807.6,111.0 809.8,110.3 812.0,109.7 814.2,109.3 816.4,109.2 818.7,108.2 820.9,107.4 823.1,106.6 825.3,105.6 827.6,104.9 829.8,104.0 832.0,103.2 834.2,102.4 836.4,101.6 838.7,100.9 840.9,100.2 843.1,99.4 845.3,98.6 847.6,97.9 849.8,97.1 852.0,96.3 854.2,95.6 856.4,94.9 858.7,94.1 860.9,93.5 863.1,92.9 865.3,91.9 867.6,91.1 869.8,90.4 872.0,90.0 872.0,272.0" fill="#e0f2fe" opacity="0.55"/>
<polyline points="52.0,272.0 54.2,271.9 80.9,271.4 83.1,271.3 85.3,271.3 92.0,271.2 105.3,271.2 134.2,271.1 136.4,270.7 138.7,270.7 145.3,270.6 147.6,270.6 149.8,270.5 152.0,270.4 156.4,270.4 158.7,270.1 165.3,270.0 174.2,269.9 176.4,269.8 178.7,269.7 196.4,269.6 200.9,269.6 212.0,269.5 214.2,269.5 216.4,269.4 225.3,269.4 227.6,269.1 229.8,268.9 232.0,268.3 234.2,268.2 249.8,268.2 256.4,268.2 260.9,268.1 263.1,268.1 265.3,267.8 267.6,267.8 269.8,267.8 272.0,267.6 274.2,267.5 283.1,267.3 287.6,267.2 296.4,267.2 298.7,267.0 300.9,266.9 303.1,266.9 307.6,266.8 309.8,265.9 312.0,265.1 314.2,264.8 316.4,264.6 318.7,264.5 320.9,264.3 323.1,264.0 325.3,263.7 327.6,263.6 329.8,263.5 334.2,263.4 336.4,263.1 338.7,262.7 340.9,262.4 343.1,262.1 347.6,262.1 352.0,262.0 354.2,261.7 356.4,261.5 358.7,260.9 360.9,260.5 363.1,260.2 365.3,259.9 367.6,259.5 369.8,259.1 372.0,258.6 374.2,258.2 376.4,257.7 378.7,257.3 380.9,257.1 383.1,256.8 385.3,256.4 387.6,256.3 389.8,256.0 392.0,255.8 394.2,255.7 396.4,255.7 400.9,255.6 403.1,254.8 405.3,254.1 407.6,254.0 409.8,254.0 414.2,253.9 416.4,253.8 425.3,253.7 429.8,253.6 436.4,253.6 438.7,252.6 440.9,251.6 443.1,251.4 445.3,250.6 447.6,250.0 449.8,249.6 452.0,249.4 454.2,249.0 456.4,248.8 458.7,248.7 460.9,248.6 463.1,248.5 476.4,247.8 478.7,246.9 480.9,246.8 483.1,246.7 485.3,246.6 500.9,246.6 520.9,245.7 523.1,245.0 525.3,244.2 527.6,242.9 529.8,242.7 532.0,242.3 534.2,241.7 536.4,241.1 538.7,240.0 540.9,238.2 543.1,236.6 545.3,234.6 547.6,232.5 549.8,230.7 552.0,229.5 554.2,228.2 556.4,226.2 558.7,224.5 560.9,223.4 563.1,222.2 565.3,220.6 567.6,219.6 569.8,218.5 572.0,217.6 574.2,216.9 576.4,216.0 578.7,215.5 580.9,214.8 583.1,214.3 585.3,212.8 587.6,211.5 589.8,210.8 592.0,210.6 594.2,210.2 596.4,209.6 598.7,209.0 600.9,208.0 603.1,207.3 605.3,206.7 607.6,206.6 609.8,206.4 612.0,205.9 614.2,204.6 616.4,202.6 618.7,200.5 620.9,198.4 623.1,196.6 625.3,194.6 627.6,192.5 629.8,190.3 632.0,188.2 634.2,186.7 636.4,185.6 638.7,184.2 640.9,182.9 643.1,182.1 645.3,181.0 647.6,180.3 649.8,179.1 652.0,177.6 654.2,175.8 656.4,174.3 658.7,173.0 660.9,172.1 663.1,171.3 665.3,170.5 667.6,169.7 669.8,168.2 672.0,167.0 674.2,165.4 676.4,163.9 678.7,162.6 680.9,161.5 683.1,161.1 685.3,160.5 687.6,159.9 689.8,159.8 692.0,159.7 694.2,159.4 696.4,159.3 698.7,159.3 700.9,159.0 703.1,159.0 709.8,158.9 712.0,158.9 714.2,158.6 716.4,156.8 718.7,155.3 720.9,154.0 723.1,152.5 725.3,151.1 727.6,149.8 729.8,148.4 732.0,147.1 734.2,145.6 736.4,144.3 738.7,143.0 740.9,141.7 743.1,140.4 745.3,139.2 747.6,137.9 749.8,136.8 752.0,135.6 754.2,134.4 756.4,133.2 758.7,132.1 760.9,130.9 763.1,130.1 765.3,129.3 767.6,128.6 769.8,127.4 772.0,126.4 774.2,125.5 776.4,124.3 778.7,123.3 780.9,122.4 783.1,121.4 785.3,120.3 787.6,119.4 789.8,118.4 792.0,117.3 794.2,116.4 796.4,115.4 798.7,114.6 800.9,113.7 803.1,112.7 805.3,111.8 807.6,111.0 809.8,110.3 812.0,109.7 814.2,109.3 816.4,109.2 818.7,108.2 820.9,107.4 823.1,106.6 825.3,105.6 827.6,104.9 829.8,104.0 832.0,103.2 834.2,102.4 836.4,101.6 838.7,100.9 840.9,100.2 843.1,99.4 845.3,98.6 847.6,97.9 849.8,97.1 852.0,96.3 854.2,95.6 856.4,94.9 858.7,94.1 860.9,93.5 863.1,92.9 865.3,91.9 867.6,91.1 869.8,90.4 872.0,90.0" fill="none" stroke="#38bdf8" stroke-width="2.5" stroke-linejoin="round" stroke-linecap="round"/>
<circle cx="872.0" cy="90.0" r="4" fill="#0ea5e9"/>
<text x="866.0" y="80.0" text-anchor="end" font-family="Inter, system-ui, sans-serif" font-size="13" font-weight="700" fill="#334155">4210</text>
<text x="52.0" y="294" text-anchor="middle" font-family="Inter, system-ui, sans-serif" font-size="11" fill="#94a3b8">Jun 10 05:00</text>
<text x="572.0" y="294" text-anchor="middle" font-family="Inter, system-ui, sans-serif" font-size="11" fill="#94a3b8">Jun 19 23:00</text>
<text x="872.0" y="294" text-anchor="middle" font-family="Inter, system-ui, sans-serif" font-size="11" fill="#94a3b8">Jun 25 14:00</text>
</svg>
