<svg xmlns="http://www.w3.org/2000/svg" width="900" height="320" viewBox="0 0 900 320" role="img" aria-labelledby="title desc">
<title id="title">unsorry proofs over time</title>
<desc id="desc">Cumulative kernel-verified proofs over time, by the hour each proof was merged.</desc>
<rect width="900" height="100%" rx="18" fill="#ffffff"/>
<rect x="0.5" y="0.5" width="899" height="319" rx="18" fill="none" stroke="#e2e8f0"/>
<text x="32" y="44" font-family="Inter, system-ui, sans-serif" font-size="28" font-weight="700" fill="#334155">unsorry — Proofs Over Time</text>
<text x="32" y="72" font-family="Inter, system-ui, sans-serif" font-size="13" fill="#64748b">4561 cumulative kernel-verified proofs · merged, hourly</text>
<line x1="52" y1="272.0" x2="872" y2="272.0" stroke="#f1f5f9"/>
<text x="44" y="276.0" text-anchor="end" font-family="Inter, system-ui, sans-serif" font-size="11" fill="#94a3b8">0</text>
<line x1="52" y1="226.5" x2="872" y2="226.5" stroke="#f1f5f9"/>
<text x="44" y="230.5" text-anchor="end" font-family="Inter, system-ui, sans-serif" font-size="11" fill="#94a3b8">1140</text>
<line x1="52" y1="181.0" x2="872" y2="181.0" stroke="#f1f5f9"/>
<text x="44" y="185.0" text-anchor="end" font-family="Inter, system-ui, sans-serif" font-size="11" fill="#94a3b8">2280</text>
<line x1="52" y1="135.5" x2="872" y2="135.5" stroke="#f1f5f9"/>
<text x="44" y="139.5" text-anchor="end" font-family="Inter, system-ui, sans-serif" font-size="11" fill="#94a3b8">3421</text>
<line x1="52" y1="90.0" x2="872" y2="90.0" stroke="#f1f5f9"/>
<text x="44" y="94.0" text-anchor="end" font-family="Inter, system-ui, sans-serif" font-size="11" fill="#94a3b8">4561</text>
<polygon points="52.0,272.0 52.0,272.0 54.1,271.9 79.3,271.5 81.4,271.4 83.5,271.3 89.8,271.3 102.5,271.2 129.8,271.2 131.9,270.8 134.0,270.8 140.3,270.7 142.4,270.7 144.5,270.6 146.6,270.5 150.8,270.5 152.9,270.3 159.2,270.1 167.6,270.0 169.7,269.9 171.8,269.8 188.7,269.8 192.9,269.8 203.4,269.7 205.5,269.7 207.6,269.6 216.0,269.6 218.1,269.3 220.2,269.1 222.3,268.6 224.4,268.5 239.1,268.5 245.4,268.4 249.6,268.4 251.7,268.4 253.8,268.2 255.9,268.1 258.1,268.1 260.2,268.0 262.3,267.9 270.7,267.7 274.9,267.6 283.3,267.6 285.4,267.4 287.5,267.3 289.6,267.3 293.8,267.2 295.9,266.4 298.0,265.6 300.1,265.3 302.2,265.1 304.3,265.1 306.4,264.9 308.5,264.6 310.6,264.4 312.7,264.3 314.8,264.2 319.0,264.1 321.1,263.7 323.2,263.4 325.3,263.1 327.4,262.9 331.6,262.8 335.8,262.8 337.9,262.5 340.1,262.3 342.2,261.7 344.3,261.4 346.4,261.1 348.5,260.8 350.6,260.4 352.7,260.1 354.8,259.7 356.9,259.2 359.0,258.8 361.1,258.5 363.2,258.2 365.3,258.0 367.4,257.6 369.5,257.5 371.6,257.3 373.7,257.1 375.8,257.0 377.9,256.9 382.1,256.9 384.2,256.1 386.3,255.5 388.4,255.4 390.5,255.4 394.7,255.3 396.8,255.2 405.2,255.1 409.4,255.0 415.7,255.0 417.8,254.1 419.9,253.2 422.1,253.0 424.2,252.2 426.3,251.7 428.4,251.3 430.5,251.1 432.6,250.8 434.7,250.6 436.8,250.5 438.9,250.4 441.0,250.3 453.6,249.7 455.7,248.9 457.8,248.7 459.9,248.6 462.0,248.6 476.7,248.5 495.6,247.7 497.7,247.1 499.8,246.3 501.9,245.2 504.1,245.0 506.2,244.6 508.3,244.0 510.4,243.5 512.5,242.4 514.6,240.8 516.7,239.3 518.8,237.4 520.9,235.5 523.0,233.9 525.1,232.8 527.2,231.6 529.3,229.7 531.4,228.2 533.5,227.1 535.6,226.1 537.7,224.6 539.8,223.6 541.9,222.6 544.0,221.8 546.1,221.2 548.2,220.3 550.3,219.8 552.4,219.2 554.5,218.8 556.6,217.3 558.7,216.2 560.8,215.5 562.9,215.3 565.0,215.0 567.1,214.4 569.2,213.9 571.3,212.9 573.4,212.3 575.5,211.7 577.6,211.7 579.7,211.4 581.8,211.0 583.9,209.8 586.1,208.0 588.2,206.0 590.3,204.0 592.4,202.4 594.5,200.6 596.6,198.6 598.7,196.5 600.8,194.7 602.9,193.3 605.0,192.2 607.1,191.0 609.2,189.8 611.3,189.0 613.4,188.0 615.5,187.3 617.6,186.3 619.7,184.9 621.8,183.2 623.9,181.8 626.0,180.6 628.1,179.8 630.2,179.1 632.3,178.3 634.4,177.5 636.5,176.2 638.6,175.0 640.7,173.6 642.8,172.2 644.9,171.0 647.0,170.0 649.1,169.6 651.2,169.1 653.3,168.5 655.4,168.5 657.5,168.4 659.6,168.1 661.7,168.0 663.8,167.9 665.9,167.7 668.1,167.7 674.4,167.6 676.5,167.6 678.6,167.3 680.7,165.7 682.8,164.3 684.9,163.1 687.0,161.7 689.1,160.4 691.2,159.2 693.3,157.9 695.4,156.7 697.5,155.4 699.6,154.2 701.7,152.9 703.8,151.7 705.9,150.6 708.0,149.4 710.1,148.2 712.2,147.2 714.3,146.1 716.4,145.0 718.5,143.9 720.6,142.8 722.7,141.8 724.8,141.0 726.9,140.3 729.0,139.6 731.1,138.6 733.2,137.6 735.3,136.8 737.4,135.7 739.5,134.8 741.6,133.9 743.7,133.0 745.8,132.0 747.9,131.1 750.1,130.2 752.2,129.2 754.3,128.4 756.4,127.4 758.5,126.7 760.6,125.9 762.7,125.0 764.8,124.2 766.9,123.4 769.0,122.8 771.1,122.2 773.2,121.8 775.3,121.7 777.4,120.8 779.5,120.1 781.6,119.3 783.7,118.5 785.8,117.8 787.9,117.0 790.0,116.2 792.1,115.5 794.2,114.7 796.3,114.1 798.4,113.4 800.5,112.7 802.6,111.9 804.7,111.3 806.8,110.6 808.9,109.8 811.0,109.2 813.1,108.6 815.2,107.8 817.3,107.2 819.4,106.6 821.5,105.8 823.6,105.0 825.7,104.4 827.8,103.6 829.9,102.9 832.1,102.3 834.2,101.7 836.3,100.9 838.4,100.3 840.5,99.9 842.6,99.3 844.7,98.6 846.8,97.9 848.9,97.1 851.0,96.4 853.1,95.7 855.2,95.1 857.3,94.5 859.4,93.8 861.5,93.2 863.6,92.5 865.7,91.9 867.8,91.1 869.9,90.7 872.0,90.0 872.0,272.0" fill="#e0f2fe" opacity="0.55"/>
<polyline points="52.0,272.0 54.1,271.9 79.3,271.5 81.4,271.4 83.5,271.3 89.8,271.3 102.5,271.2 129.8,271.2 131.9,270.8 134.0,270.8 140.3,270.7 142.4,270.7 144.5,270.6 146.6,270.5 150.8,270.5 152.9,270.3 159.2,270.1 167.6,270.0 169.7,269.9 171.8,269.8 188.7,269.8 192.9,269.8 203.4,269.7 205.5,269.7 207.6,269.6 216.0,269.6 218.1,269.3 220.2,269.1 222.3,268.6 224.4,268.5 239.1,268.5 245.4,268.4 249.6,268.4 251.7,268.4 253.8,268.2 255.9,268.1 258.1,268.1 260.2,268.0 262.3,267.9 270.7,267.7 274.9,267.6 283.3,267.6 285.4,267.4 287.5,267.3 289.6,267.3 293.8,267.2 295.9,266.4 298.0,265.6 300.1,265.3 302.2,265.1 304.3,265.1 306.4,264.9 308.5,264.6 310.6,264.4 312.7,264.3 314.8,264.2 319.0,264.1 321.1,263.7 323.2,263.4 325.3,263.1 327.4,262.9 331.6,262.8 335.8,262.8 337.9,262.5 340.1,262.3 342.2,261.7 344.3,261.4 346.4,261.1 348.5,260.8 350.6,260.4 352.7,260.1 354.8,259.7 356.9,259.2 359.0,258.8 361.1,258.5 363.2,258.2 365.3,258.0 367.4,257.6 369.5,257.5 371.6,257.3 373.7,257.1 375.8,257.0 377.9,256.9 382.1,256.9 384.2,256.1 386.3,255.5 388.4,255.4 390.5,255.4 394.7,255.3 396.8,255.2 405.2,255.1 409.4,255.0 415.7,255.0 417.8,254.1 419.9,253.2 422.1,253.0 424.2,252.2 426.3,251.7 428.4,251.3 430.5,251.1 432.6,250.8 434.7,250.6 436.8,250.5 438.9,250.4 441.0,250.3 453.6,249.7 455.7,248.9 457.8,248.7 459.9,248.6 462.0,248.6 476.7,248.5 495.6,247.7 497.7,247.1 499.8,246.3 501.9,245.2 504.1,245.0 506.2,244.6 508.3,244.0 510.4,243.5 512.5,242.4 514.6,240.8 516.7,239.3 518.8,237.4 520.9,235.5 523.0,233.9 525.1,232.8 527.2,231.6 529.3,229.7 531.4,228.2 533.5,227.1 535.6,226.1 537.7,224.6 539.8,223.6 541.9,222.6 544.0,221.8 546.1,221.2 548.2,220.3 550.3,219.8 552.4,219.2 554.5,218.8 556.6,217.3 558.7,216.2 560.8,215.5 562.9,215.3 565.0,215.0 567.1,214.4 569.2,213.9 571.3,212.9 573.4,212.3 575.5,211.7 577.6,211.7 579.7,211.4 581.8,211.0 583.9,209.8 586.1,208.0 588.2,206.0 590.3,204.0 592.4,202.4 594.5,200.6 596.6,198.6 598.7,196.5 600.8,194.7 602.9,193.3 605.0,192.2 607.1,191.0 609.2,189.8 611.3,189.0 613.4,188.0 615.5,187.3 617.6,186.3 619.7,184.9 621.8,183.2 623.9,181.8 626.0,180.6 628.1,179.8 630.2,179.1 632.3,178.3 634.4,177.5 636.5,176.2 638.6,175.0 640.7,173.6 642.8,172.2 644.9,171.0 647.0,170.0 649.1,169.6 651.2,169.1 653.3,168.5 655.4,168.5 657.5,168.4 659.6,168.1 661.7,168.0 663.8,167.9 665.9,167.7 668.1,167.7 674.4,167.6 676.5,167.6 678.6,167.3 680.7,165.7 682.8,164.3 684.9,163.1 687.0,161.7 689.1,160.4 691.2,159.2 693.3,157.9 695.4,156.7 697.5,155.4 699.6,154.2 701.7,152.9 703.8,151.7 705.9,150.6 708.0,149.4 710.1,148.2 712.2,147.2 714.3,146.1 716.4,145.0 718.5,143.9 720.6,142.8 722.7,141.8 724.8,141.0 726.9,140.3 729.0,139.6 731.1,138.6 733.2,137.6 735.3,136.8 737.4,135.7 739.5,134.8 741.6,133.9 743.7,133.0 745.8,132.0 747.9,131.1 750.1,130.2 752.2,129.2 754.3,128.4 756.4,127.4 758.5,126.7 760.6,125.9 762.7,125.0 764.8,124.2 766.9,123.4 769.0,122.8 771.1,122.2 773.2,121.8 775.3,121.7 777.4,120.8 779.5,120.1 781.6,119.3 783.7,118.5 785.8,117.8 787.9,117.0 790.0,116.2 792.1,115.5 794.2,114.7 796.3,114.1 798.4,113.4 800.5,112.7 802.6,111.9 804.7,111.3 806.8,110.6 808.9,109.8 811.0,109.2 813.1,108.6 815.2,107.8 817.3,107.2 819.4,106.6 821.5,105.8 823.6,105.0 825.7,104.4 827.8,103.6 829.9,102.9 832.1,102.3 834.2,101.7 836.3,100.9 838.4,100.3 840.5,99.9 842.6,99.3 844.7,98.6 846.8,97.9 848.9,97.1 851.0,96.4 853.1,95.7 855.2,95.1 857.3,94.5 859.4,93.8 861.5,93.2 863.6,92.5 865.7,91.9 867.8,91.1 869.9,90.7 872.0,90.0" fill="none" stroke="#38bdf8" stroke-width="2.5" stroke-linejoin="round" stroke-linecap="round"/>
<circle cx="872.0" cy="90.0" r="4" fill="#0ea5e9"/>
<text x="866.0" y="80.0" text-anchor="end" font-family="Inter, system-ui, sans-serif" font-size="13" font-weight="700" fill="#334155">4561</text>
<text x="52.0" y="294" text-anchor="middle" font-family="Inter, system-ui, sans-serif" font-size="11" fill="#94a3b8">Jun 10 05:00</text>
<text x="565.0" y="294" text-anchor="middle" font-family="Inter, system-ui, sans-serif" font-size="11" fill="#94a3b8">Jun 20 09:00</text>
<text x="872.0" y="294" text-anchor="middle" font-family="Inter, system-ui, sans-serif" font-size="11" fill="#94a3b8">Jun 26 11:00</text>
</svg>
