<svg xmlns="http://www.w3.org/2000/svg" width="900" height="320" viewBox="0 0 900 320" role="img" aria-labelledby="title desc">
<title id="title">Unsorry proofs over time</title>
<desc id="desc">Cumulative kernel-verified proofs over time, by the hour each proof was merged.</desc>
<rect width="900" height="100%" rx="18" fill="#ffffff"/>
<rect x="0.5" y="0.5" width="899" height="319" rx="18" fill="none" stroke="#e2e8f0"/>
<text x="32" y="44" font-family="Inter, system-ui, sans-serif" font-size="28" font-weight="700" fill="#334155">Unsorry — Proofs Over Time</text>
<text x="32" y="72" font-family="Inter, system-ui, sans-serif" font-size="13" fill="#64748b">2095 cumulative kernel-verified proofs · merged, hourly</text>
<line x1="52" y1="272.0" x2="872" y2="272.0" stroke="#f1f5f9"/>
<text x="44" y="276.0" text-anchor="end" font-family="Inter, system-ui, sans-serif" font-size="11" fill="#94a3b8">0</text>
<line x1="52" y1="226.5" x2="872" y2="226.5" stroke="#f1f5f9"/>
<text x="44" y="230.5" text-anchor="end" font-family="Inter, system-ui, sans-serif" font-size="11" fill="#94a3b8">524</text>
<line x1="52" y1="181.0" x2="872" y2="181.0" stroke="#f1f5f9"/>
<text x="44" y="185.0" text-anchor="end" font-family="Inter, system-ui, sans-serif" font-size="11" fill="#94a3b8">1048</text>
<line x1="52" y1="135.5" x2="872" y2="135.5" stroke="#f1f5f9"/>
<text x="44" y="139.5" text-anchor="end" font-family="Inter, system-ui, sans-serif" font-size="11" fill="#94a3b8">1571</text>
<line x1="52" y1="90.0" x2="872" y2="90.0" stroke="#f1f5f9"/>
<text x="44" y="94.0" text-anchor="end" font-family="Inter, system-ui, sans-serif" font-size="11" fill="#94a3b8">2095</text>
<polygon points="52.0,272.0 52.0,271.9 55.1,271.7 91.9,270.9 95.0,270.6 98.1,270.5 107.3,270.4 125.7,270.3 165.6,270.3 168.7,269.5 171.8,269.4 181.0,269.2 184.1,269.1 187.1,269.0 190.2,268.8 196.3,268.7 199.4,268.3 208.6,267.9 220.9,267.7 224.0,267.5 227.1,267.3 251.6,267.2 257.8,267.1 273.1,267.0 276.2,267.0 279.3,266.8 291.6,266.7 294.6,266.2 297.7,265.7 300.8,264.6 303.8,264.4 325.3,264.4 334.5,264.3 340.7,264.2 343.8,264.1 346.8,263.7 349.9,263.6 353.0,263.5 356.0,263.2 359.1,263.0 371.4,262.5 377.5,262.4 389.8,262.4 392.9,261.9 396.0,261.8 399.0,261.7 405.2,261.6 408.3,259.8 411.3,258.1 414.4,257.5 417.5,257.1 420.5,256.9 423.6,256.4 426.7,255.8 429.8,255.4 432.8,255.1 435.9,255.0 442.0,254.7 445.1,254.0 448.2,253.3 451.3,252.6 454.3,252.2 460.5,252.0 466.6,251.9 469.7,251.3 472.7,250.9 475.8,249.7 478.9,249.0 482.0,248.3 485.0,247.6 488.1,246.8 491.2,246.0 494.2,245.2 497.3,244.2 500.4,243.3 503.5,242.5 506.5,242.0 509.6,241.4 512.7,240.7 515.7,240.4 518.8,239.9 521.9,239.5 525.0,239.3 528.0,239.2 534.2,239.1 537.2,237.3 540.3,236.1 543.4,235.9 546.5,235.8 552.6,235.6 555.7,235.3 568.0,235.3 574.1,235.1 583.3,235.0 586.4,233.0 589.5,231.1 592.5,230.6 595.6,229.0 598.7,227.8 601.7,227.0 604.8,226.6 607.9,225.8 611.0,225.4 614.0,225.3 617.1,224.9 620.2,224.7 638.6,223.4 641.7,221.6 644.7,221.4 647.8,221.1 650.9,221.0 672.4,220.9 700.0,219.1 703.1,217.7 706.2,216.1 709.2,213.6 712.3,213.2 715.4,212.4 718.4,211.0 721.5,210.0 724.6,207.6 727.7,204.2 730.7,200.8 733.8,196.8 736.9,192.6 739.9,188.9 743.0,186.7 746.1,184.0 749.2,180.0 752.2,176.6 755.3,174.4 758.4,172.0 761.4,168.7 764.5,166.6 767.6,164.5 770.7,162.7 773.7,161.3 776.8,159.5 779.9,158.4 782.9,157.2 786.0,156.1 789.1,153.0 792.1,150.5 795.2,149.1 798.3,148.6 801.4,147.9 804.4,146.6 807.5,145.4 810.6,143.3 813.6,142.0 816.7,140.8 819.8,140.6 822.9,140.1 825.9,139.2 829.0,136.7 832.1,132.6 835.1,128.3 838.2,124.1 841.3,120.6 844.4,116.5 847.4,112.2 850.5,107.7 853.6,103.6 856.6,100.7 859.7,98.3 862.8,95.6 865.9,93.0 868.9,91.3 872.0,90.0 872.0,272.0" fill="#e0f2fe" opacity="0.55"/>
<polyline points="52.0,271.9 55.1,271.7 91.9,270.9 95.0,270.6 98.1,270.5 107.3,270.4 125.7,270.3 165.6,270.3 168.7,269.5 171.8,269.4 181.0,269.2 184.1,269.1 187.1,269.0 190.2,268.8 196.3,268.7 199.4,268.3 208.6,267.9 220.9,267.7 224.0,267.5 227.1,267.3 251.6,267.2 257.8,267.1 273.1,267.0 276.2,267.0 279.3,266.8 291.6,266.7 294.6,266.2 297.7,265.7 300.8,264.6 303.8,264.4 325.3,264.4 334.5,264.3 340.7,264.2 343.8,264.1 346.8,263.7 349.9,263.6 353.0,263.5 356.0,263.2 359.1,263.0 371.4,262.5 377.5,262.4 389.8,262.4 392.9,261.9 396.0,261.8 399.0,261.7 405.2,261.6 408.3,259.8 411.3,258.1 414.4,257.5 417.5,257.1 420.5,256.9 423.6,256.4 426.7,255.8 429.8,255.4 432.8,255.1 435.9,255.0 442.0,254.7 445.1,254.0 448.2,253.3 451.3,252.6 454.3,252.2 460.5,252.0 466.6,251.9 469.7,251.3 472.7,250.9 475.8,249.7 478.9,249.0 482.0,248.3 485.0,247.6 488.1,246.8 491.2,246.0 494.2,245.2 497.3,244.2 500.4,243.3 503.5,242.5 506.5,242.0 509.6,241.4 512.7,240.7 515.7,240.4 518.8,239.9 521.9,239.5 525.0,239.3 528.0,239.2 534.2,239.1 537.2,237.3 540.3,236.1 543.4,235.9 546.5,235.8 552.6,235.6 555.7,235.3 568.0,235.3 574.1,235.1 583.3,235.0 586.4,233.0 589.5,231.1 592.5,230.6 595.6,229.0 598.7,227.8 601.7,227.0 604.8,226.6 607.9,225.8 611.0,225.4 614.0,225.3 617.1,224.9 620.2,224.7 638.6,223.4 641.7,221.6 644.7,221.4 647.8,221.1 650.9,221.0 672.4,220.9 700.0,219.1 703.1,217.7 706.2,216.1 709.2,213.6 712.3,213.2 715.4,212.4 718.4,211.0 721.5,210.0 724.6,207.6 727.7,204.2 730.7,200.8 733.8,196.8 736.9,192.6 739.9,188.9 743.0,186.7 746.1,184.0 749.2,180.0 752.2,176.6 755.3,174.4 758.4,172.0 761.4,168.7 764.5,166.6 767.6,164.5 770.7,162.7 773.7,161.3 776.8,159.5 779.9,158.4 782.9,157.2 786.0,156.1 789.1,153.0 792.1,150.5 795.2,149.1 798.3,148.6 801.4,147.9 804.4,146.6 807.5,145.4 810.6,143.3 813.6,142.0 816.7,140.8 819.8,140.6 822.9,140.1 825.9,139.2 829.0,136.7 832.1,132.6 835.1,128.3 838.2,124.1 841.3,120.6 844.4,116.5 847.4,112.2 850.5,107.7 853.6,103.6 856.6,100.7 859.7,98.3 862.8,95.6 865.9,93.0 868.9,91.3 872.0,90.0" fill="none" stroke="#38bdf8" stroke-width="2.5" stroke-linejoin="round" stroke-linecap="round"/>
<circle cx="872.0" cy="90.0" r="4" fill="#0ea5e9"/>
<text x="866.0" y="80.0" text-anchor="end" font-family="Inter, system-ui, sans-serif" font-size="13" font-weight="700" fill="#334155">2095</text>
<text x="52.0" y="294" text-anchor="middle" font-family="Inter, system-ui, sans-serif" font-size="11" fill="#94a3b8">Jun 10 05:00</text>
<text x="537.2" y="294" text-anchor="middle" font-family="Inter, system-ui, sans-serif" font-size="11" fill="#94a3b8">Jun 16 19:00</text>
<text x="872.0" y="294" text-anchor="middle" font-family="Inter, system-ui, sans-serif" font-size="11" fill="#94a3b8">Jun 21 08:00</text>
</svg>
