<svg xmlns="http://www.w3.org/2000/svg" width="900" height="320" viewBox="0 0 900 320" role="img" aria-labelledby="title desc">
<title id="title">unsorry proofs over time</title>
<desc id="desc">Cumulative kernel-verified proofs over time, by the hour each proof was merged.</desc>
<rect width="900" height="100%" rx="18" fill="#ffffff"/>
<rect x="0.5" y="0.5" width="899" height="319" rx="18" fill="none" stroke="#e2e8f0"/>
<text x="32" y="44" font-family="Inter, system-ui, sans-serif" font-size="28" font-weight="700" fill="#334155">unsorry — Proofs Over Time</text>
<text x="32" y="72" font-family="Inter, system-ui, sans-serif" font-size="13" fill="#64748b">4220 cumulative kernel-verified proofs · merged, hourly</text>
<line x1="52" y1="272.0" x2="872" y2="272.0" stroke="#f1f5f9"/>
<text x="44" y="276.0" text-anchor="end" font-family="Inter, system-ui, sans-serif" font-size="11" fill="#94a3b8">0</text>
<line x1="52" y1="226.5" x2="872" y2="226.5" stroke="#f1f5f9"/>
<text x="44" y="230.5" text-anchor="end" font-family="Inter, system-ui, sans-serif" font-size="11" fill="#94a3b8">1055</text>
<line x1="52" y1="181.0" x2="872" y2="181.0" stroke="#f1f5f9"/>
<text x="44" y="185.0" text-anchor="end" font-family="Inter, system-ui, sans-serif" font-size="11" fill="#94a3b8">2110</text>
<line x1="52" y1="135.5" x2="872" y2="135.5" stroke="#f1f5f9"/>
<text x="44" y="139.5" text-anchor="end" font-family="Inter, system-ui, sans-serif" font-size="11" fill="#94a3b8">3165</text>
<line x1="52" y1="90.0" x2="872" y2="90.0" stroke="#f1f5f9"/>
<text x="44" y="94.0" text-anchor="end" font-family="Inter, system-ui, sans-serif" font-size="11" fill="#94a3b8">4220</text>
<polygon points="52.0,272.0 52.0,272.0 54.2,271.9 80.9,271.4 83.1,271.3 85.3,271.3 92.0,271.2 105.3,271.2 134.2,271.1 136.4,270.7 138.7,270.7 145.3,270.6 147.6,270.6 149.8,270.5 152.0,270.4 156.4,270.4 158.7,270.1 165.3,270.0 174.2,269.9 176.4,269.8 178.7,269.7 196.4,269.6 200.9,269.6 212.0,269.5 214.2,269.5 216.4,269.4 225.3,269.4 227.6,269.1 229.8,268.9 232.0,268.3 234.2,268.2 249.8,268.2 256.4,268.2 260.9,268.1 263.1,268.1 265.3,267.9 267.6,267.8 269.8,267.8 272.0,267.6 274.2,267.5 283.1,267.3 287.6,267.3 296.4,267.2 298.7,267.0 300.9,267.0 303.1,266.9 307.6,266.8 309.8,266.0 312.0,265.1 314.2,264.8 316.4,264.6 318.7,264.5 320.9,264.3 323.1,264.0 325.3,263.8 327.6,263.6 329.8,263.5 334.2,263.4 336.4,263.1 338.7,262.7 340.9,262.4 343.1,262.2 347.6,262.1 352.0,262.0 354.2,261.7 356.4,261.5 358.7,260.9 360.9,260.6 363.1,260.2 365.3,259.9 367.6,259.5 369.8,259.1 372.0,258.7 374.2,258.2 376.4,257.8 378.7,257.4 380.9,257.1 383.1,256.8 385.3,256.5 387.6,256.3 389.8,256.1 392.0,255.9 394.2,255.8 396.4,255.7 400.9,255.7 403.1,254.8 405.3,254.2 407.6,254.1 409.8,254.0 414.2,253.9 416.4,253.8 425.3,253.8 429.8,253.7 436.4,253.6 438.7,252.6 440.9,251.7 443.1,251.4 445.3,250.7 447.6,250.0 449.8,249.7 452.0,249.4 454.2,249.1 456.4,248.9 458.7,248.8 460.9,248.6 463.1,248.5 476.4,247.8 478.7,247.0 480.9,246.9 483.1,246.7 485.3,246.7 500.9,246.6 520.9,245.7 523.1,245.0 525.3,244.2 527.6,243.0 529.8,242.8 532.0,242.4 534.2,241.7 536.4,241.2 538.7,240.0 540.9,238.3 543.1,236.6 545.3,234.7 547.6,232.6 549.8,230.8 552.0,229.6 554.2,228.3 556.4,226.3 558.7,224.6 560.9,223.5 563.1,222.4 565.3,220.7 567.6,219.7 569.8,218.7 572.0,217.7 574.2,217.1 576.4,216.1 578.7,215.6 580.9,215.0 583.1,214.5 585.3,212.9 587.6,211.7 589.8,211.0 592.0,210.8 594.2,210.4 596.4,209.7 598.7,209.2 600.9,208.1 603.1,207.5 605.3,206.9 607.6,206.8 609.8,206.5 612.0,206.1 614.2,204.8 616.4,202.8 618.7,200.7 620.9,198.6 623.1,196.8 625.3,194.8 627.6,192.6 629.8,190.4 632.0,188.4 634.2,187.0 636.4,185.8 638.7,184.5 640.9,183.2 643.1,182.3 645.3,181.3 647.6,180.5 649.8,179.4 652.0,177.9 654.2,176.0 656.4,174.5 658.7,173.2 660.9,172.3 663.1,171.6 665.3,170.8 667.6,169.9 669.8,168.4 672.0,167.2 674.2,165.7 676.4,164.1 678.7,162.8 680.9,161.8 683.1,161.4 685.3,160.8 687.6,160.2 689.8,160.1 692.0,160.0 694.2,159.7 696.4,159.6 698.7,159.5 700.9,159.3 703.1,159.2 709.8,159.2 712.0,159.1 714.2,158.9 716.4,157.1 718.7,155.6 720.9,154.3 723.1,152.8 725.3,151.4 727.6,150.1 729.8,148.7 732.0,147.4 734.2,145.9 736.4,144.6 738.7,143.3 740.9,142.0 743.1,140.8 745.3,139.5 747.6,138.2 749.8,137.1 752.0,135.9 754.2,134.7 756.4,133.5 758.7,132.4 760.9,131.2 763.1,130.5 765.3,129.7 767.6,128.9 769.8,127.8 772.0,126.8 774.2,125.8 776.4,124.7 778.7,123.7 780.9,122.8 783.1,121.7 785.3,120.7 787.6,119.7 789.8,118.8 792.0,117.6 794.2,116.8 796.4,115.7 798.7,114.9 800.9,114.1 803.1,113.1 805.3,112.2 807.6,111.4 809.8,110.7 812.0,110.1 814.2,109.7 816.4,109.5 818.7,108.6 820.9,107.8 823.1,106.9 825.3,106.0 827.6,105.3 829.8,104.4 832.0,103.6 834.2,102.8 836.4,102.0 838.7,101.3 840.9,100.6 843.1,99.8 845.3,99.0 847.6,98.3 849.8,97.5 852.0,96.7 854.2,96.0 856.4,95.3 858.7,94.5 860.9,93.9 863.1,93.3 865.3,92.4 867.6,91.5 869.8,90.8 872.0,90.0 872.0,272.0" fill="#e0f2fe" opacity="0.55"/>
<polyline points="52.0,272.0 54.2,271.9 80.9,271.4 83.1,271.3 85.3,271.3 92.0,271.2 105.3,271.2 134.2,271.1 136.4,270.7 138.7,270.7 145.3,270.6 147.6,270.6 149.8,270.5 152.0,270.4 156.4,270.4 158.7,270.1 165.3,270.0 174.2,269.9 176.4,269.8 178.7,269.7 196.4,269.6 200.9,269.6 212.0,269.5 214.2,269.5 216.4,269.4 225.3,269.4 227.6,269.1 229.8,268.9 232.0,268.3 234.2,268.2 249.8,268.2 256.4,268.2 260.9,268.1 263.1,268.1 265.3,267.9 267.6,267.8 269.8,267.8 272.0,267.6 274.2,267.5 283.1,267.3 287.6,267.3 296.4,267.2 298.7,267.0 300.9,267.0 303.1,266.9 307.6,266.8 309.8,266.0 312.0,265.1 314.2,264.8 316.4,264.6 318.7,264.5 320.9,264.3 323.1,264.0 325.3,263.8 327.6,263.6 329.8,263.5 334.2,263.4 336.4,263.1 338.7,262.7 340.9,262.4 343.1,262.2 347.6,262.1 352.0,262.0 354.2,261.7 356.4,261.5 358.7,260.9 360.9,260.6 363.1,260.2 365.3,259.9 367.6,259.5 369.8,259.1 372.0,258.7 374.2,258.2 376.4,257.8 378.7,257.4 380.9,257.1 383.1,256.8 385.3,256.5 387.6,256.3 389.8,256.1 392.0,255.9 394.2,255.8 396.4,255.7 400.9,255.7 403.1,254.8 405.3,254.2 407.6,254.1 409.8,254.0 414.2,253.9 416.4,253.8 425.3,253.8 429.8,253.7 436.4,253.6 438.7,252.6 440.9,251.7 443.1,251.4 445.3,250.7 447.6,250.0 449.8,249.7 452.0,249.4 454.2,249.1 456.4,248.9 458.7,248.8 460.9,248.6 463.1,248.5 476.4,247.8 478.7,247.0 480.9,246.9 483.1,246.7 485.3,246.7 500.9,246.6 520.9,245.7 523.1,245.0 525.3,244.2 527.6,243.0 529.8,242.8 532.0,242.4 534.2,241.7 536.4,241.2 538.7,240.0 540.9,238.3 543.1,236.6 545.3,234.7 547.6,232.6 549.8,230.8 552.0,229.6 554.2,228.3 556.4,226.3 558.7,224.6 560.9,223.5 563.1,222.4 565.3,220.7 567.6,219.7 569.8,218.7 572.0,217.7 574.2,217.1 576.4,216.1 578.7,215.6 580.9,215.0 583.1,214.5 585.3,212.9 587.6,211.7 589.8,211.0 592.0,210.8 594.2,210.4 596.4,209.7 598.7,209.2 600.9,208.1 603.1,207.5 605.3,206.9 607.6,206.8 609.8,206.5 612.0,206.1 614.2,204.8 616.4,202.8 618.7,200.7 620.9,198.6 623.1,196.8 625.3,194.8 627.6,192.6 629.8,190.4 632.0,188.4 634.2,187.0 636.4,185.8 638.7,184.5 640.9,183.2 643.1,182.3 645.3,181.3 647.6,180.5 649.8,179.4 652.0,177.9 654.2,176.0 656.4,174.5 658.7,173.2 660.9,172.3 663.1,171.6 665.3,170.8 667.6,169.9 669.8,168.4 672.0,167.2 674.2,165.7 676.4,164.1 678.7,162.8 680.9,161.8 683.1,161.4 685.3,160.8 687.6,160.2 689.8,160.1 692.0,160.0 694.2,159.7 696.4,159.6 698.7,159.5 700.9,159.3 703.1,159.2 709.8,159.2 712.0,159.1 714.2,158.9 716.4,157.1 718.7,155.6 720.9,154.3 723.1,152.8 725.3,151.4 727.6,150.1 729.8,148.7 732.0,147.4 734.2,145.9 736.4,144.6 738.7,143.3 740.9,142.0 743.1,140.8 745.3,139.5 747.6,138.2 749.8,137.1 752.0,135.9 754.2,134.7 756.4,133.5 758.7,132.4 760.9,131.2 763.1,130.5 765.3,129.7 767.6,128.9 769.8,127.8 772.0,126.8 774.2,125.8 776.4,124.7 778.7,123.7 780.9,122.8 783.1,121.7 785.3,120.7 787.6,119.7 789.8,118.8 792.0,117.6 794.2,116.8 796.4,115.7 798.7,114.9 800.9,114.1 803.1,113.1 805.3,112.2 807.6,111.4 809.8,110.7 812.0,110.1 814.2,109.7 816.4,109.5 818.7,108.6 820.9,107.8 823.1,106.9 825.3,106.0 827.6,105.3 829.8,104.4 832.0,103.6 834.2,102.8 836.4,102.0 838.7,101.3 840.9,100.6 843.1,99.8 845.3,99.0 847.6,98.3 849.8,97.5 852.0,96.7 854.2,96.0 856.4,95.3 858.7,94.5 860.9,93.9 863.1,93.3 865.3,92.4 867.6,91.5 869.8,90.8 872.0,90.0" fill="none" stroke="#38bdf8" stroke-width="2.5" stroke-linejoin="round" stroke-linecap="round"/>
<circle cx="872.0" cy="90.0" r="4" fill="#0ea5e9"/>
<text x="866.0" y="80.0" text-anchor="end" font-family="Inter, system-ui, sans-serif" font-size="13" font-weight="700" fill="#334155">4220</text>
<text x="52.0" y="294" text-anchor="middle" font-family="Inter, system-ui, sans-serif" font-size="11" fill="#94a3b8">Jun 10 05:00</text>
<text x="572.0" y="294" text-anchor="middle" font-family="Inter, system-ui, sans-serif" font-size="11" fill="#94a3b8">Jun 19 23:00</text>
<text x="872.0" y="294" text-anchor="middle" font-family="Inter, system-ui, sans-serif" font-size="11" fill="#94a3b8">Jun 25 14:00</text>
</svg>
