<svg xmlns="http://www.w3.org/2000/svg" width="900" height="320" viewBox="0 0 900 320" role="img" aria-labelledby="title desc">
<title id="title">unsorry proofs over time</title>
<desc id="desc">Cumulative kernel-verified proofs over time, by the hour each proof was merged.</desc>
<rect width="900" height="100%" rx="18" fill="#ffffff"/>
<rect x="0.5" y="0.5" width="899" height="319" rx="18" fill="none" stroke="#e2e8f0"/>
<text x="32" y="44" font-family="Inter, system-ui, sans-serif" font-size="28" font-weight="700" fill="#334155">unsorry — Proofs Over Time</text>
<text x="32" y="72" font-family="Inter, system-ui, sans-serif" font-size="13" fill="#64748b">2994 cumulative kernel-verified proofs · merged, hourly</text>
<line x1="52" y1="272.0" x2="872" y2="272.0" stroke="#f1f5f9"/>
<text x="44" y="276.0" text-anchor="end" font-family="Inter, system-ui, sans-serif" font-size="11" fill="#94a3b8">0</text>
<line x1="52" y1="226.5" x2="872" y2="226.5" stroke="#f1f5f9"/>
<text x="44" y="230.5" text-anchor="end" font-family="Inter, system-ui, sans-serif" font-size="11" fill="#94a3b8">748</text>
<line x1="52" y1="181.0" x2="872" y2="181.0" stroke="#f1f5f9"/>
<text x="44" y="185.0" text-anchor="end" font-family="Inter, system-ui, sans-serif" font-size="11" fill="#94a3b8">1497</text>
<line x1="52" y1="135.5" x2="872" y2="135.5" stroke="#f1f5f9"/>
<text x="44" y="139.5" text-anchor="end" font-family="Inter, system-ui, sans-serif" font-size="11" fill="#94a3b8">2246</text>
<line x1="52" y1="90.0" x2="872" y2="90.0" stroke="#f1f5f9"/>
<text x="44" y="94.0" text-anchor="end" font-family="Inter, system-ui, sans-serif" font-size="11" fill="#94a3b8">2994</text>
<polygon points="52.0,272.0 52.0,271.9 54.6,271.8 86.4,271.2 89.0,271.0 91.7,271.0 99.6,270.9 115.5,270.8 149.9,270.8 152.5,270.2 155.2,270.2 163.1,270.1 165.7,270.0 168.4,269.9 171.0,269.8 176.3,269.7 179.0,269.4 186.9,269.1 197.5,269.0 200.1,268.8 202.8,268.7 223.9,268.7 229.2,268.6 242.5,268.5 245.1,268.5 247.7,268.4 258.3,268.3 261.0,267.9 263.6,267.6 266.3,266.8 268.9,266.7 287.4,266.7 295.4,266.6 300.6,266.5 303.3,266.5 305.9,266.2 308.6,266.1 311.2,266.0 313.9,265.9 316.5,265.7 327.1,265.4 332.4,265.3 343.0,265.3 345.6,264.9 348.3,264.9 350.9,264.8 356.2,264.7 358.8,263.5 361.5,262.3 364.1,261.8 366.8,261.5 369.4,261.4 372.1,261.1 374.7,260.7 377.4,260.4 380.0,260.2 382.6,260.1 387.9,259.9 390.6,259.4 393.2,258.9 395.9,258.4 398.5,258.1 403.8,258.0 409.1,258.0 411.7,257.5 414.4,257.2 417.0,256.4 419.7,255.9 422.3,255.4 425.0,254.9 427.6,254.4 430.3,253.8 432.9,253.2 435.5,252.5 438.2,251.9 440.8,251.4 443.5,251.0 446.1,250.6 448.8,250.1 451.4,249.9 454.1,249.6 456.7,249.3 459.4,249.1 462.0,249.0 467.3,249.0 469.9,247.7 472.6,246.9 475.2,246.7 477.9,246.7 483.2,246.5 485.8,246.3 496.4,246.3 501.7,246.2 509.6,246.1 512.3,244.7 514.9,243.4 517.5,243.0 520.2,241.9 522.8,241.1 525.5,240.5 528.1,240.2 530.8,239.7 533.4,239.4 536.1,239.3 538.7,239.1 541.4,238.9 557.2,238.0 559.9,236.7 562.5,236.6 565.2,236.4 567.8,236.3 586.3,236.3 610.1,235.0 612.8,234.0 615.4,232.9 618.1,231.2 620.7,230.8 623.4,230.3 626.0,229.3 628.6,228.6 631.3,227.0 633.9,224.5 636.6,222.2 639.2,219.4 641.9,216.4 644.5,213.9 647.2,212.3 649.8,210.4 652.5,207.6 655.1,205.3 657.7,203.7 660.4,202.0 663.0,199.7 665.7,198.3 668.3,196.8 671.0,195.5 673.6,194.6 676.3,193.3 678.9,192.5 681.5,191.6 684.2,190.9 686.8,188.7 689.5,187.0 692.1,186.0 694.8,185.7 697.4,185.1 700.1,184.2 702.7,183.4 705.4,182.0 708.0,181.1 710.6,180.2 713.3,180.1 715.9,179.7 718.6,179.1 721.2,177.3 723.9,174.4 726.5,171.5 729.2,168.5 731.8,166.0 734.5,163.2 737.1,160.1 739.7,157.0 742.4,154.2 745.0,152.1 747.7,150.5 750.3,148.6 753.0,146.8 755.6,145.6 758.3,144.1 760.9,143.0 763.5,141.4 766.2,139.3 768.8,136.7 771.5,134.6 774.1,132.7 776.8,131.5 779.4,130.4 782.1,129.3 784.7,128.1 787.4,126.0 790.0,124.3 792.6,122.2 795.3,120.0 797.9,118.1 800.6,116.7 803.2,116.1 805.9,115.2 808.5,114.4 811.2,114.3 813.8,114.1 816.5,113.7 819.1,113.5 821.7,113.5 824.4,113.2 827.0,113.0 835.0,113.0 837.6,112.9 840.3,112.6 842.9,110.1 845.5,107.9 848.2,106.0 850.8,103.9 853.5,102.0 856.1,100.2 858.8,98.1 861.4,96.3 864.1,94.3 866.7,92.5 869.4,90.6 872.0,90.0 872.0,272.0" fill="#e0f2fe" opacity="0.55"/>
<polyline points="52.0,271.9 54.6,271.8 86.4,271.2 89.0,271.0 91.7,271.0 99.6,270.9 115.5,270.8 149.9,270.8 152.5,270.2 155.2,270.2 163.1,270.1 165.7,270.0 168.4,269.9 171.0,269.8 176.3,269.7 179.0,269.4 186.9,269.1 197.5,269.0 200.1,268.8 202.8,268.7 223.9,268.7 229.2,268.6 242.5,268.5 245.1,268.5 247.7,268.4 258.3,268.3 261.0,267.9 263.6,267.6 266.3,266.8 268.9,266.7 287.4,266.7 295.4,266.6 300.6,266.5 303.3,266.5 305.9,266.2 308.6,266.1 311.2,266.0 313.9,265.9 316.5,265.7 327.1,265.4 332.4,265.3 343.0,265.3 345.6,264.9 348.3,264.9 350.9,264.8 356.2,264.7 358.8,263.5 361.5,262.3 364.1,261.8 366.8,261.5 369.4,261.4 372.1,261.1 374.7,260.7 377.4,260.4 380.0,260.2 382.6,260.1 387.9,259.9 390.6,259.4 393.2,258.9 395.9,258.4 398.5,258.1 403.8,258.0 409.1,258.0 411.7,257.5 414.4,257.2 417.0,256.4 419.7,255.9 422.3,255.4 425.0,254.9 427.6,254.4 430.3,253.8 432.9,253.2 435.5,252.5 438.2,251.9 440.8,251.4 443.5,251.0 446.1,250.6 448.8,250.1 451.4,249.9 454.1,249.6 456.7,249.3 459.4,249.1 462.0,249.0 467.3,249.0 469.9,247.7 472.6,246.9 475.2,246.7 477.9,246.7 483.2,246.5 485.8,246.3 496.4,246.3 501.7,246.2 509.6,246.1 512.3,244.7 514.9,243.4 517.5,243.0 520.2,241.9 522.8,241.1 525.5,240.5 528.1,240.2 530.8,239.7 533.4,239.4 536.1,239.3 538.7,239.1 541.4,238.9 557.2,238.0 559.9,236.7 562.5,236.6 565.2,236.4 567.8,236.3 586.3,236.3 610.1,235.0 612.8,234.0 615.4,232.9 618.1,231.2 620.7,230.8 623.4,230.3 626.0,229.3 628.6,228.6 631.3,227.0 633.9,224.5 636.6,222.2 639.2,219.4 641.9,216.4 644.5,213.9 647.2,212.3 649.8,210.4 652.5,207.6 655.1,205.3 657.7,203.7 660.4,202.0 663.0,199.7 665.7,198.3 668.3,196.8 671.0,195.5 673.6,194.6 676.3,193.3 678.9,192.5 681.5,191.6 684.2,190.9 686.8,188.7 689.5,187.0 692.1,186.0 694.8,185.7 697.4,185.1 700.1,184.2 702.7,183.4 705.4,182.0 708.0,181.1 710.6,180.2 713.3,180.1 715.9,179.7 718.6,179.1 721.2,177.3 723.9,174.4 726.5,171.5 729.2,168.5 731.8,166.0 734.5,163.2 737.1,160.1 739.7,157.0 742.4,154.2 745.0,152.1 747.7,150.5 750.3,148.6 753.0,146.8 755.6,145.6 758.3,144.1 760.9,143.0 763.5,141.4 766.2,139.3 768.8,136.7 771.5,134.6 774.1,132.7 776.8,131.5 779.4,130.4 782.1,129.3 784.7,128.1 787.4,126.0 790.0,124.3 792.6,122.2 795.3,120.0 797.9,118.1 800.6,116.7 803.2,116.1 805.9,115.2 808.5,114.4 811.2,114.3 813.8,114.1 816.5,113.7 819.1,113.5 821.7,113.5 824.4,113.2 827.0,113.0 835.0,113.0 837.6,112.9 840.3,112.6 842.9,110.1 845.5,107.9 848.2,106.0 850.8,103.9 853.5,102.0 856.1,100.2 858.8,98.1 861.4,96.3 864.1,94.3 866.7,92.5 869.4,90.6 872.0,90.0" fill="none" stroke="#38bdf8" stroke-width="2.5" stroke-linejoin="round" stroke-linecap="round"/>
<circle cx="872.0" cy="90.0" r="4" fill="#0ea5e9"/>
<text x="866.0" y="80.0" text-anchor="end" font-family="Inter, system-ui, sans-serif" font-size="13" font-weight="700" fill="#334155">2994</text>
<text x="52.0" y="294" text-anchor="middle" font-family="Inter, system-ui, sans-serif" font-size="11" fill="#94a3b8">Jun 10 05:00</text>
<text x="541.4" y="294" text-anchor="middle" font-family="Inter, system-ui, sans-serif" font-size="11" fill="#94a3b8">Jun 17 22:00</text>
<text x="872.0" y="294" text-anchor="middle" font-family="Inter, system-ui, sans-serif" font-size="11" fill="#94a3b8">Jun 23 03:00</text>
</svg>
