<svg xmlns="http://www.w3.org/2000/svg" width="900" height="320" viewBox="0 0 900 320" role="img" aria-labelledby="title desc">
<title id="title">unsorry proofs over time</title>
<desc id="desc">Cumulative kernel-verified proofs over time, by the hour each proof was merged.</desc>
<rect width="900" height="100%" rx="18" fill="#ffffff"/>
<rect x="0.5" y="0.5" width="899" height="319" rx="18" fill="none" stroke="#e2e8f0"/>
<text x="32" y="44" font-family="Inter, system-ui, sans-serif" font-size="28" font-weight="700" fill="#334155">unsorry — Proofs Over Time</text>
<text x="32" y="72" font-family="Inter, system-ui, sans-serif" font-size="13" fill="#64748b">3291 cumulative kernel-verified proofs · merged, hourly</text>
<line x1="52" y1="272.0" x2="872" y2="272.0" stroke="#f1f5f9"/>
<text x="44" y="276.0" text-anchor="end" font-family="Inter, system-ui, sans-serif" font-size="11" fill="#94a3b8">0</text>
<line x1="52" y1="226.5" x2="872" y2="226.5" stroke="#f1f5f9"/>
<text x="44" y="230.5" text-anchor="end" font-family="Inter, system-ui, sans-serif" font-size="11" fill="#94a3b8">823</text>
<line x1="52" y1="181.0" x2="872" y2="181.0" stroke="#f1f5f9"/>
<text x="44" y="185.0" text-anchor="end" font-family="Inter, system-ui, sans-serif" font-size="11" fill="#94a3b8">1646</text>
<line x1="52" y1="135.5" x2="872" y2="135.5" stroke="#f1f5f9"/>
<text x="44" y="139.5" text-anchor="end" font-family="Inter, system-ui, sans-serif" font-size="11" fill="#94a3b8">2468</text>
<line x1="52" y1="90.0" x2="872" y2="90.0" stroke="#f1f5f9"/>
<text x="44" y="94.0" text-anchor="end" font-family="Inter, system-ui, sans-serif" font-size="11" fill="#94a3b8">3291</text>
<polygon points="52.0,272.0 52.0,271.9 54.6,271.8 85.2,271.3 87.8,271.1 90.3,271.1 98.0,271.0 113.3,270.9 146.5,270.9 149.1,270.4 151.6,270.3 159.3,270.2 161.8,270.2 164.4,270.1 167.0,270.0 172.1,269.9 174.6,269.6 182.3,269.4 192.5,269.3 195.1,269.1 197.6,269.0 218.0,269.0 223.2,268.9 235.9,268.8 238.5,268.8 241.0,268.7 251.3,268.6 253.8,268.3 256.4,268.0 258.9,267.3 261.5,267.2 279.4,267.1 287.0,267.1 292.1,267.0 294.7,267.0 297.2,266.7 299.8,266.6 302.3,266.6 304.9,266.4 307.5,266.2 317.7,266.0 322.8,265.9 333.0,265.9 335.6,265.6 338.1,265.5 340.7,265.4 345.8,265.4 348.3,264.3 350.9,263.2 353.4,262.8 356.0,262.5 358.5,262.4 361.1,262.1 363.7,261.7 366.2,261.4 368.8,261.3 371.3,261.2 376.4,261.0 379.0,260.6 381.5,260.1 384.1,259.7 386.6,259.4 391.8,259.3 396.9,259.2 399.4,258.8 402.0,258.6 404.5,257.8 407.1,257.3 409.6,256.9 412.2,256.5 414.7,256.0 417.3,255.5 419.9,254.9 422.4,254.3 425.0,253.8 427.5,253.3 430.1,252.9 432.6,252.5 435.2,252.1 437.7,251.9 440.3,251.6 442.8,251.3 445.4,251.2 448.0,251.1 453.1,251.0 455.6,249.9 458.2,249.2 460.7,249.0 463.3,248.9 468.4,248.8 470.9,248.7 481.2,248.6 486.3,248.5 493.9,248.4 496.5,247.2 499.0,246.0 501.6,245.6 504.1,244.6 506.7,243.9 509.3,243.4 511.8,243.1 514.4,242.6 516.9,242.4 519.5,242.2 522.0,242.0 524.6,241.9 539.9,241.0 542.5,239.9 545.0,239.8 547.6,239.6 550.1,239.5 568.0,239.5 591.0,238.3 593.6,237.4 596.1,236.4 598.7,234.8 601.2,234.6 603.8,234.1 606.3,233.2 608.9,232.5 611.4,231.0 614.0,228.8 616.5,226.7 619.1,224.1 621.7,221.5 624.2,219.1 626.8,217.7 629.3,216.0 631.9,213.4 634.4,211.3 637.0,209.8 639.5,208.3 642.1,206.2 644.6,204.9 647.2,203.6 649.8,202.4 652.3,201.5 654.9,200.4 657.4,199.7 660.0,198.9 662.5,198.2 665.1,196.2 667.6,194.6 670.2,193.7 672.7,193.5 675.3,193.0 677.9,192.1 680.4,191.4 683.0,190.1 685.5,189.3 688.1,188.5 690.6,188.4 693.2,188.1 695.7,187.4 698.3,185.8 700.8,183.2 703.4,180.5 706.0,177.8 708.5,175.6 711.1,173.0 713.6,170.2 716.2,167.4 718.7,164.8 721.3,162.9 723.8,161.5 726.4,159.7 728.9,158.1 731.5,157.0 734.1,155.6 736.6,154.6 739.2,153.2 741.7,151.3 744.3,149.0 746.8,147.0 749.4,145.3 751.9,144.2 754.5,143.2 757.0,142.2 759.6,141.1 762.2,139.2 764.7,137.6 767.3,135.7 769.8,133.7 772.4,132.0 774.9,130.7 777.5,130.1 780.0,129.4 782.6,128.6 785.1,128.5 787.7,128.4 790.3,128.0 792.8,127.8 795.4,127.8 797.9,127.5 800.5,127.4 808.1,127.3 810.7,127.3 813.2,126.9 815.8,124.7 818.4,122.7 820.9,121.0 823.5,119.1 826.0,117.4 828.6,115.7 831.1,113.8 833.7,112.2 836.2,110.4 838.8,108.7 841.3,107.0 843.9,105.3 846.5,103.7 849.0,102.1 851.6,100.5 854.1,99.1 856.7,97.5 859.2,96.0 861.8,94.4 864.3,93.0 866.9,91.5 869.4,90.5 872.0,90.0 872.0,272.0" fill="#e0f2fe" opacity="0.55"/>
<polyline points="52.0,271.9 54.6,271.8 85.2,271.3 87.8,271.1 90.3,271.1 98.0,271.0 113.3,270.9 146.5,270.9 149.1,270.4 151.6,270.3 159.3,270.2 161.8,270.2 164.4,270.1 167.0,270.0 172.1,269.9 174.6,269.6 182.3,269.4 192.5,269.3 195.1,269.1 197.6,269.0 218.0,269.0 223.2,268.9 235.9,268.8 238.5,268.8 241.0,268.7 251.3,268.6 253.8,268.3 256.4,268.0 258.9,267.3 261.5,267.2 279.4,267.1 287.0,267.1 292.1,267.0 294.7,267.0 297.2,266.7 299.8,266.6 302.3,266.6 304.9,266.4 307.5,266.2 317.7,266.0 322.8,265.9 333.0,265.9 335.6,265.6 338.1,265.5 340.7,265.4 345.8,265.4 348.3,264.3 350.9,263.2 353.4,262.8 356.0,262.5 358.5,262.4 361.1,262.1 363.7,261.7 366.2,261.4 368.8,261.3 371.3,261.2 376.4,261.0 379.0,260.6 381.5,260.1 384.1,259.7 386.6,259.4 391.8,259.3 396.9,259.2 399.4,258.8 402.0,258.6 404.5,257.8 407.1,257.3 409.6,256.9 412.2,256.5 414.7,256.0 417.3,255.5 419.9,254.9 422.4,254.3 425.0,253.8 427.5,253.3 430.1,252.9 432.6,252.5 435.2,252.1 437.7,251.9 440.3,251.6 442.8,251.3 445.4,251.2 448.0,251.1 453.1,251.0 455.6,249.9 458.2,249.2 460.7,249.0 463.3,248.9 468.4,248.8 470.9,248.7 481.2,248.6 486.3,248.5 493.9,248.4 496.5,247.2 499.0,246.0 501.6,245.6 504.1,244.6 506.7,243.9 509.3,243.4 511.8,243.1 514.4,242.6 516.9,242.4 519.5,242.2 522.0,242.0 524.6,241.9 539.9,241.0 542.5,239.9 545.0,239.8 547.6,239.6 550.1,239.5 568.0,239.5 591.0,238.3 593.6,237.4 596.1,236.4 598.7,234.8 601.2,234.6 603.8,234.1 606.3,233.2 608.9,232.5 611.4,231.0 614.0,228.8 616.5,226.7 619.1,224.1 621.7,221.5 624.2,219.1 626.8,217.7 629.3,216.0 631.9,213.4 634.4,211.3 637.0,209.8 639.5,208.3 642.1,206.2 644.6,204.9 647.2,203.6 649.8,202.4 652.3,201.5 654.9,200.4 657.4,199.7 660.0,198.9 662.5,198.2 665.1,196.2 667.6,194.6 670.2,193.7 672.7,193.5 675.3,193.0 677.9,192.1 680.4,191.4 683.0,190.1 685.5,189.3 688.1,188.5 690.6,188.4 693.2,188.1 695.7,187.4 698.3,185.8 700.8,183.2 703.4,180.5 706.0,177.8 708.5,175.6 711.1,173.0 713.6,170.2 716.2,167.4 718.7,164.8 721.3,162.9 723.8,161.5 726.4,159.7 728.9,158.1 731.5,157.0 734.1,155.6 736.6,154.6 739.2,153.2 741.7,151.3 744.3,149.0 746.8,147.0 749.4,145.3 751.9,144.2 754.5,143.2 757.0,142.2 759.6,141.1 762.2,139.2 764.7,137.6 767.3,135.7 769.8,133.7 772.4,132.0 774.9,130.7 777.5,130.1 780.0,129.4 782.6,128.6 785.1,128.5 787.7,128.4 790.3,128.0 792.8,127.8 795.4,127.8 797.9,127.5 800.5,127.4 808.1,127.3 810.7,127.3 813.2,126.9 815.8,124.7 818.4,122.7 820.9,121.0 823.5,119.1 826.0,117.4 828.6,115.7 831.1,113.8 833.7,112.2 836.2,110.4 838.8,108.7 841.3,107.0 843.9,105.3 846.5,103.7 849.0,102.1 851.6,100.5 854.1,99.1 856.7,97.5 859.2,96.0 861.8,94.4 864.3,93.0 866.9,91.5 869.4,90.5 872.0,90.0" fill="none" stroke="#38bdf8" stroke-width="2.5" stroke-linejoin="round" stroke-linecap="round"/>
<circle cx="872.0" cy="90.0" r="4" fill="#0ea5e9"/>
<text x="866.0" y="80.0" text-anchor="end" font-family="Inter, system-ui, sans-serif" font-size="13" font-weight="700" fill="#334155">3291</text>
<text x="52.0" y="294" text-anchor="middle" font-family="Inter, system-ui, sans-serif" font-size="11" fill="#94a3b8">Jun 10 05:00</text>
<text x="568.0" y="294" text-anchor="middle" font-family="Inter, system-ui, sans-serif" font-size="11" fill="#94a3b8">Jun 18 15:00</text>
<text x="872.0" y="294" text-anchor="middle" font-family="Inter, system-ui, sans-serif" font-size="11" fill="#94a3b8">Jun 23 14:00</text>
</svg>
