<svg xmlns="http://www.w3.org/2000/svg" width="900" height="320" viewBox="0 0 900 320" role="img" aria-labelledby="title desc">
<title id="title">unsorry proofs over time</title>
<desc id="desc">Cumulative kernel-verified proofs over time, by the hour each proof was merged.</desc>
<rect width="900" height="100%" rx="18" fill="#ffffff"/>
<rect x="0.5" y="0.5" width="899" height="319" rx="18" fill="none" stroke="#e2e8f0"/>
<text x="32" y="44" font-family="Inter, system-ui, sans-serif" font-size="28" font-weight="700" fill="#334155">unsorry — Proofs Over Time</text>
<text x="32" y="72" font-family="Inter, system-ui, sans-serif" font-size="13" fill="#64748b">4364 cumulative kernel-verified proofs · merged, hourly</text>
<line x1="52" y1="272.0" x2="872" y2="272.0" stroke="#f1f5f9"/>
<text x="44" y="276.0" text-anchor="end" font-family="Inter, system-ui, sans-serif" font-size="11" fill="#94a3b8">0</text>
<line x1="52" y1="226.5" x2="872" y2="226.5" stroke="#f1f5f9"/>
<text x="44" y="230.5" text-anchor="end" font-family="Inter, system-ui, sans-serif" font-size="11" fill="#94a3b8">1091</text>
<line x1="52" y1="181.0" x2="872" y2="181.0" stroke="#f1f5f9"/>
<text x="44" y="185.0" text-anchor="end" font-family="Inter, system-ui, sans-serif" font-size="11" fill="#94a3b8">2182</text>
<line x1="52" y1="135.5" x2="872" y2="135.5" stroke="#f1f5f9"/>
<text x="44" y="139.5" text-anchor="end" font-family="Inter, system-ui, sans-serif" font-size="11" fill="#94a3b8">3273</text>
<line x1="52" y1="90.0" x2="872" y2="90.0" stroke="#f1f5f9"/>
<text x="44" y="94.0" text-anchor="end" font-family="Inter, system-ui, sans-serif" font-size="11" fill="#94a3b8">4364</text>
<polygon points="52.0,272.0 52.0,272.0 54.2,271.9 80.1,271.5 82.3,271.3 84.5,271.3 90.9,271.2 103.9,271.2 132.1,271.2 134.2,270.8 136.4,270.7 142.9,270.7 145.0,270.6 147.2,270.6 149.4,270.5 153.7,270.4 155.9,270.2 162.3,270.0 171.0,270.0 173.2,269.8 175.3,269.7 192.6,269.7 197.0,269.7 207.8,269.6 209.9,269.6 212.1,269.5 220.8,269.5 222.9,269.2 225.1,269.0 227.3,268.5 229.4,268.4 244.6,268.3 251.1,268.3 255.4,268.2 257.5,268.2 259.7,268.0 261.9,268.0 264.0,267.9 266.2,267.8 268.4,267.7 277.0,267.5 281.3,267.4 290.0,267.4 292.2,267.2 294.3,267.1 296.5,267.0 300.8,267.0 303.0,266.2 305.1,265.3 307.3,265.0 309.5,264.8 311.6,264.7 313.8,264.5 316.0,264.2 318.1,264.0 320.3,263.9 322.4,263.8 326.8,263.7 328.9,263.4 331.1,263.0 333.3,262.7 335.4,262.5 339.8,262.4 344.1,262.4 346.2,262.1 348.4,261.9 350.6,261.3 352.7,260.9 354.9,260.6 357.1,260.3 359.2,259.9 361.4,259.5 363.6,259.1 365.7,258.7 367.9,258.2 370.0,257.9 372.2,257.6 374.4,257.3 376.5,257.0 378.7,256.8 380.9,256.6 383.0,256.4 385.2,256.3 387.4,256.2 391.7,256.2 393.8,255.4 396.0,254.8 398.2,254.7 400.3,254.6 404.7,254.5 406.8,254.4 415.5,254.4 419.8,254.3 426.3,254.2 428.5,253.3 430.6,252.4 432.8,252.1 435.0,251.4 437.1,250.8 439.3,250.4 441.4,250.2 443.6,249.8 445.8,249.6 447.9,249.6 450.1,249.4 452.3,249.3 465.2,248.6 467.4,247.8 469.6,247.7 471.7,247.6 473.9,247.5 489.0,247.5 508.5,246.6 510.7,245.9 512.8,245.1 515.0,244.0 517.2,243.8 519.3,243.4 521.5,242.7 523.7,242.2 525.8,241.1 528.0,239.4 530.2,237.8 532.3,235.9 534.5,233.9 536.6,232.1 538.8,231.0 541.0,229.8 543.1,227.8 545.3,226.2 547.5,225.1 549.6,224.0 551.8,222.4 554.0,221.4 556.1,220.4 558.3,219.5 560.4,218.9 562.6,218.0 564.8,217.5 566.9,216.9 569.1,216.4 571.3,214.9 573.4,213.7 575.6,213.0 577.8,212.8 579.9,212.4 582.1,211.8 584.2,211.2 586.4,210.2 588.6,209.6 590.7,209.0 592.9,208.9 595.1,208.7 597.2,208.2 599.4,207.0 601.6,205.1 603.7,203.0 605.9,201.0 608.0,199.3 610.2,197.3 612.4,195.3 614.5,193.1 616.7,191.2 618.9,189.8 621.0,188.6 623.2,187.3 625.4,186.1 627.5,185.3 629.7,184.3 631.8,183.5 634.0,182.4 636.2,181.0 638.3,179.2 640.5,177.7 642.7,176.5 644.8,175.6 647.0,174.9 649.2,174.1 651.3,173.3 653.5,171.9 655.6,170.7 657.8,169.2 660.0,167.7 662.1,166.4 664.3,165.4 666.5,165.0 668.6,164.4 670.8,163.9 672.9,163.8 675.1,163.7 677.3,163.4 679.4,163.3 681.6,163.2 683.8,163.0 685.9,162.9 692.4,162.9 694.6,162.9 696.7,162.6 698.9,160.9 701.1,159.4 703.2,158.1 705.4,156.7 707.6,155.4 709.7,154.1 711.9,152.7 714.1,151.5 716.2,150.1 718.4,148.8 720.5,147.6 722.7,146.3 724.9,145.1 727.0,143.8 729.2,142.6 731.4,141.6 733.5,140.4 735.7,139.3 737.9,138.1 740.0,137.0 742.2,135.9 744.3,135.1 746.5,134.4 748.7,133.6 750.8,132.5 753.0,131.6 755.2,130.7 757.3,129.5 759.5,128.6 761.7,127.7 763.8,126.7 766.0,125.7 768.1,124.7 770.3,123.8 772.5,122.7 774.6,121.9 776.8,120.9 779.0,120.1 781.1,119.3 783.3,118.4 785.5,117.5 787.6,116.7 789.8,116.0 791.9,115.4 794.1,115.0 796.3,114.9 798.4,114.0 800.6,113.2 802.8,112.4 804.9,111.5 807.1,110.8 809.3,110.0 811.4,109.2 813.6,108.4 815.7,107.6 817.9,106.9 820.1,106.2 822.2,105.5 824.4,104.7 826.6,104.0 828.7,103.3 830.9,102.5 833.1,101.8 835.2,101.2 837.4,100.3 839.5,99.8 841.7,99.2 843.9,98.3 846.0,97.5 848.2,96.8 850.4,96.0 852.5,95.3 854.7,94.7 856.9,94.0 859.0,93.2 861.2,92.6 863.3,92.2 865.5,91.5 867.7,90.8 869.8,90.0 872.0,90.0 872.0,272.0" fill="#e0f2fe" opacity="0.55"/>
<polyline points="52.0,272.0 54.2,271.9 80.1,271.5 82.3,271.3 84.5,271.3 90.9,271.2 103.9,271.2 132.1,271.2 134.2,270.8 136.4,270.7 142.9,270.7 145.0,270.6 147.2,270.6 149.4,270.5 153.7,270.4 155.9,270.2 162.3,270.0 171.0,270.0 173.2,269.8 175.3,269.7 192.6,269.7 197.0,269.7 207.8,269.6 209.9,269.6 212.1,269.5 220.8,269.5 222.9,269.2 225.1,269.0 227.3,268.5 229.4,268.4 244.6,268.3 251.1,268.3 255.4,268.2 257.5,268.2 259.7,268.0 261.9,268.0 264.0,267.9 266.2,267.8 268.4,267.7 277.0,267.5 281.3,267.4 290.0,267.4 292.2,267.2 294.3,267.1 296.5,267.0 300.8,267.0 303.0,266.2 305.1,265.3 307.3,265.0 309.5,264.8 311.6,264.7 313.8,264.5 316.0,264.2 318.1,264.0 320.3,263.9 322.4,263.8 326.8,263.7 328.9,263.4 331.1,263.0 333.3,262.7 335.4,262.5 339.8,262.4 344.1,262.4 346.2,262.1 348.4,261.9 350.6,261.3 352.7,260.9 354.9,260.6 357.1,260.3 359.2,259.9 361.4,259.5 363.6,259.1 365.7,258.7 367.9,258.2 370.0,257.9 372.2,257.6 374.4,257.3 376.5,257.0 378.7,256.8 380.9,256.6 383.0,256.4 385.2,256.3 387.4,256.2 391.7,256.2 393.8,255.4 396.0,254.8 398.2,254.7 400.3,254.6 404.7,254.5 406.8,254.4 415.5,254.4 419.8,254.3 426.3,254.2 428.5,253.3 430.6,252.4 432.8,252.1 435.0,251.4 437.1,250.8 439.3,250.4 441.4,250.2 443.6,249.8 445.8,249.6 447.9,249.6 450.1,249.4 452.3,249.3 465.2,248.6 467.4,247.8 469.6,247.7 471.7,247.6 473.9,247.5 489.0,247.5 508.5,246.6 510.7,245.9 512.8,245.1 515.0,244.0 517.2,243.8 519.3,243.4 521.5,242.7 523.7,242.2 525.8,241.1 528.0,239.4 530.2,237.8 532.3,235.9 534.5,233.9 536.6,232.1 538.8,231.0 541.0,229.8 543.1,227.8 545.3,226.2 547.5,225.1 549.6,224.0 551.8,222.4 554.0,221.4 556.1,220.4 558.3,219.5 560.4,218.9 562.6,218.0 564.8,217.5 566.9,216.9 569.1,216.4 571.3,214.9 573.4,213.7 575.6,213.0 577.8,212.8 579.9,212.4 582.1,211.8 584.2,211.2 586.4,210.2 588.6,209.6 590.7,209.0 592.9,208.9 595.1,208.7 597.2,208.2 599.4,207.0 601.6,205.1 603.7,203.0 605.9,201.0 608.0,199.3 610.2,197.3 612.4,195.3 614.5,193.1 616.7,191.2 618.9,189.8 621.0,188.6 623.2,187.3 625.4,186.1 627.5,185.3 629.7,184.3 631.8,183.5 634.0,182.4 636.2,181.0 638.3,179.2 640.5,177.7 642.7,176.5 644.8,175.6 647.0,174.9 649.2,174.1 651.3,173.3 653.5,171.9 655.6,170.7 657.8,169.2 660.0,167.7 662.1,166.4 664.3,165.4 666.5,165.0 668.6,164.4 670.8,163.9 672.9,163.8 675.1,163.7 677.3,163.4 679.4,163.3 681.6,163.2 683.8,163.0 685.9,162.9 692.4,162.9 694.6,162.9 696.7,162.6 698.9,160.9 701.1,159.4 703.2,158.1 705.4,156.7 707.6,155.4 709.7,154.1 711.9,152.7 714.1,151.5 716.2,150.1 718.4,148.8 720.5,147.6 722.7,146.3 724.9,145.1 727.0,143.8 729.2,142.6 731.4,141.6 733.5,140.4 735.7,139.3 737.9,138.1 740.0,137.0 742.2,135.9 744.3,135.1 746.5,134.4 748.7,133.6 750.8,132.5 753.0,131.6 755.2,130.7 757.3,129.5 759.5,128.6 761.7,127.7 763.8,126.7 766.0,125.7 768.1,124.7 770.3,123.8 772.5,122.7 774.6,121.9 776.8,120.9 779.0,120.1 781.1,119.3 783.3,118.4 785.5,117.5 787.6,116.7 789.8,116.0 791.9,115.4 794.1,115.0 796.3,114.9 798.4,114.0 800.6,113.2 802.8,112.4 804.9,111.5 807.1,110.8 809.3,110.0 811.4,109.2 813.6,108.4 815.7,107.6 817.9,106.9 820.1,106.2 822.2,105.5 824.4,104.7 826.6,104.0 828.7,103.3 830.9,102.5 833.1,101.8 835.2,101.2 837.4,100.3 839.5,99.8 841.7,99.2 843.9,98.3 846.0,97.5 848.2,96.8 850.4,96.0 852.5,95.3 854.7,94.7 856.9,94.0 859.0,93.2 861.2,92.6 863.3,92.2 865.5,91.5 867.7,90.8 869.8,90.0 872.0,90.0" fill="none" stroke="#38bdf8" stroke-width="2.5" stroke-linejoin="round" stroke-linecap="round"/>
<circle cx="872.0" cy="90.0" r="4" fill="#0ea5e9"/>
<text x="866.0" y="80.0" text-anchor="end" font-family="Inter, system-ui, sans-serif" font-size="13" font-weight="700" fill="#334155">4364</text>
<text x="52.0" y="294" text-anchor="middle" font-family="Inter, system-ui, sans-serif" font-size="11" fill="#94a3b8">Jun 10 05:00</text>
<text x="569.1" y="294" text-anchor="middle" font-family="Inter, system-ui, sans-serif" font-size="11" fill="#94a3b8">Jun 20 04:00</text>
<text x="872.0" y="294" text-anchor="middle" font-family="Inter, system-ui, sans-serif" font-size="11" fill="#94a3b8">Jun 26 00:00</text>
</svg>
