<svg xmlns="http://www.w3.org/2000/svg" width="900" height="320" viewBox="0 0 900 320" role="img" aria-labelledby="title desc">
<title id="title">Unsorry proofs over time</title>
<desc id="desc">Cumulative kernel-verified proofs over time, by the hour each proof was merged.</desc>
<rect width="900" height="100%" rx="18" fill="#ffffff"/>
<rect x="0.5" y="0.5" width="899" height="319" rx="18" fill="none" stroke="#e2e8f0"/>
<text x="32" y="44" font-family="Inter, system-ui, sans-serif" font-size="28" font-weight="700" fill="#334155">Unsorry — Proofs Over Time</text>
<text x="32" y="72" font-family="Inter, system-ui, sans-serif" font-size="13" fill="#64748b">2506 cumulative kernel-verified proofs · merged, hourly</text>
<line x1="52" y1="272.0" x2="872" y2="272.0" stroke="#f1f5f9"/>
<text x="44" y="276.0" text-anchor="end" font-family="Inter, system-ui, sans-serif" font-size="11" fill="#94a3b8">0</text>
<line x1="52" y1="226.5" x2="872" y2="226.5" stroke="#f1f5f9"/>
<text x="44" y="230.5" text-anchor="end" font-family="Inter, system-ui, sans-serif" font-size="11" fill="#94a3b8">626</text>
<line x1="52" y1="181.0" x2="872" y2="181.0" stroke="#f1f5f9"/>
<text x="44" y="185.0" text-anchor="end" font-family="Inter, system-ui, sans-serif" font-size="11" fill="#94a3b8">1253</text>
<line x1="52" y1="135.5" x2="872" y2="135.5" stroke="#f1f5f9"/>
<text x="44" y="139.5" text-anchor="end" font-family="Inter, system-ui, sans-serif" font-size="11" fill="#94a3b8">1880</text>
<line x1="52" y1="90.0" x2="872" y2="90.0" stroke="#f1f5f9"/>
<text x="44" y="94.0" text-anchor="end" font-family="Inter, system-ui, sans-serif" font-size="11" fill="#94a3b8">2506</text>
<polygon points="52.0,272.0 52.0,271.9 54.9,271.8 89.8,271.1 92.7,270.8 95.6,270.8 104.3,270.7 121.8,270.6 159.6,270.5 162.5,269.9 165.4,269.8 174.1,269.7 177.0,269.6 179.9,269.5 182.9,269.3 188.7,269.2 191.6,268.9 200.3,268.6 211.9,268.4 214.8,268.2 217.7,268.1 241.0,268.0 246.8,267.9 261.4,267.9 264.3,267.8 267.2,267.6 278.8,267.6 281.7,267.1 284.6,266.8 287.5,265.8 290.4,265.7 310.8,265.6 319.5,265.5 325.3,265.5 328.2,265.4 331.1,265.0 334.1,265.0 337.0,264.9 339.9,264.7 342.8,264.4 354.4,264.1 360.2,264.0 371.9,263.9 374.8,263.6 377.7,263.5 380.6,263.4 386.4,263.3 389.3,261.8 392.2,260.4 395.1,259.9 398.0,259.5 400.9,259.4 403.8,259.0 406.8,258.5 409.7,258.1 412.6,257.9 415.5,257.8 421.3,257.5 424.2,257.0 427.1,256.4 430.0,255.8 432.9,255.4 438.7,255.3 444.6,255.2 447.5,254.7 450.4,254.4 453.3,253.3 456.2,252.8 459.1,252.2 462.0,251.6 464.9,250.9 467.8,250.3 470.7,249.6 473.6,248.8 476.5,248.0 479.4,247.4 482.4,246.9 485.3,246.4 488.2,245.9 491.1,245.6 494.0,245.2 496.9,244.8 499.8,244.7 502.7,244.5 508.5,244.5 511.4,243.0 514.3,242.0 517.2,241.8 520.2,241.7 526.0,241.6 528.9,241.4 540.5,241.3 546.3,241.1 555.0,241.1 558.0,239.4 560.9,237.8 563.8,237.4 566.7,236.1 569.6,235.0 572.5,234.4 575.4,234.0 578.3,233.4 581.2,233.1 584.1,232.9 587.0,232.6 589.9,232.5 607.4,231.3 610.3,229.9 613.2,229.7 616.1,229.4 619.0,229.4 639.4,229.3 665.5,227.8 668.5,226.6 671.4,225.2 674.3,223.2 677.2,222.8 680.1,222.2 683.0,221.0 685.9,220.1 688.8,218.2 691.7,215.3 694.6,212.4 697.5,209.1 700.4,205.6 703.3,202.6 706.3,200.7 709.2,198.4 712.1,195.1 715.0,192.3 717.9,190.4 720.8,188.4 723.7,185.6 726.6,183.9 729.5,182.2 732.4,180.6 735.3,179.5 738.2,177.9 741.1,177.0 744.1,176.0 747.0,175.1 749.9,172.5 752.8,170.4 755.7,169.2 758.6,168.9 761.5,168.2 764.4,167.1 767.3,166.2 770.2,164.4 773.1,163.4 776.0,162.3 779.0,162.2 781.9,161.8 784.8,161.0 787.7,158.8 790.6,155.4 793.5,151.9 796.4,148.3 799.3,145.4 802.2,142.0 805.1,138.4 808.0,134.7 810.9,131.3 813.8,128.8 816.8,126.8 819.7,124.6 822.6,122.4 825.5,120.9 828.4,119.2 831.3,117.9 834.2,116.0 837.1,113.5 840.0,110.4 842.9,107.9 845.8,105.6 848.7,104.2 851.6,102.9 854.6,101.5 857.5,100.1 860.4,97.6 863.3,95.5 866.2,93.0 869.1,90.4 872.0,90.0 872.0,272.0" fill="#e0f2fe" opacity="0.55"/>
<polyline points="52.0,271.9 54.9,271.8 89.8,271.1 92.7,270.8 95.6,270.8 104.3,270.7 121.8,270.6 159.6,270.5 162.5,269.9 165.4,269.8 174.1,269.7 177.0,269.6 179.9,269.5 182.9,269.3 188.7,269.2 191.6,268.9 200.3,268.6 211.9,268.4 214.8,268.2 217.7,268.1 241.0,268.0 246.8,267.9 261.4,267.9 264.3,267.8 267.2,267.6 278.8,267.6 281.7,267.1 284.6,266.8 287.5,265.8 290.4,265.7 310.8,265.6 319.5,265.5 325.3,265.5 328.2,265.4 331.1,265.0 334.1,265.0 337.0,264.9 339.9,264.7 342.8,264.4 354.4,264.1 360.2,264.0 371.9,263.9 374.8,263.6 377.7,263.5 380.6,263.4 386.4,263.3 389.3,261.8 392.2,260.4 395.1,259.9 398.0,259.5 400.9,259.4 403.8,259.0 406.8,258.5 409.7,258.1 412.6,257.9 415.5,257.8 421.3,257.5 424.2,257.0 427.1,256.4 430.0,255.8 432.9,255.4 438.7,255.3 444.6,255.2 447.5,254.7 450.4,254.4 453.3,253.3 456.2,252.8 459.1,252.2 462.0,251.6 464.9,250.9 467.8,250.3 470.7,249.6 473.6,248.8 476.5,248.0 479.4,247.4 482.4,246.9 485.3,246.4 488.2,245.9 491.1,245.6 494.0,245.2 496.9,244.8 499.8,244.7 502.7,244.5 508.5,244.5 511.4,243.0 514.3,242.0 517.2,241.8 520.2,241.7 526.0,241.6 528.9,241.4 540.5,241.3 546.3,241.1 555.0,241.1 558.0,239.4 560.9,237.8 563.8,237.4 566.7,236.1 569.6,235.0 572.5,234.4 575.4,234.0 578.3,233.4 581.2,233.1 584.1,232.9 587.0,232.6 589.9,232.5 607.4,231.3 610.3,229.9 613.2,229.7 616.1,229.4 619.0,229.4 639.4,229.3 665.5,227.8 668.5,226.6 671.4,225.2 674.3,223.2 677.2,222.8 680.1,222.2 683.0,221.0 685.9,220.1 688.8,218.2 691.7,215.3 694.6,212.4 697.5,209.1 700.4,205.6 703.3,202.6 706.3,200.7 709.2,198.4 712.1,195.1 715.0,192.3 717.9,190.4 720.8,188.4 723.7,185.6 726.6,183.9 729.5,182.2 732.4,180.6 735.3,179.5 738.2,177.9 741.1,177.0 744.1,176.0 747.0,175.1 749.9,172.5 752.8,170.4 755.7,169.2 758.6,168.9 761.5,168.2 764.4,167.1 767.3,166.2 770.2,164.4 773.1,163.4 776.0,162.3 779.0,162.2 781.9,161.8 784.8,161.0 787.7,158.8 790.6,155.4 793.5,151.9 796.4,148.3 799.3,145.4 802.2,142.0 805.1,138.4 808.0,134.7 810.9,131.3 813.8,128.8 816.8,126.8 819.7,124.6 822.6,122.4 825.5,120.9 828.4,119.2 831.3,117.9 834.2,116.0 837.1,113.5 840.0,110.4 842.9,107.9 845.8,105.6 848.7,104.2 851.6,102.9 854.6,101.5 857.5,100.1 860.4,97.6 863.3,95.5 866.2,93.0 869.1,90.4 872.0,90.0" fill="none" stroke="#38bdf8" stroke-width="2.5" stroke-linejoin="round" stroke-linecap="round"/>
<circle cx="872.0" cy="90.0" r="4" fill="#0ea5e9"/>
<text x="866.0" y="80.0" text-anchor="end" font-family="Inter, system-ui, sans-serif" font-size="13" font-weight="700" fill="#334155">2506</text>
<text x="52.0" y="294" text-anchor="middle" font-family="Inter, system-ui, sans-serif" font-size="11" fill="#94a3b8">Jun 10 05:00</text>
<text x="546.3" y="294" text-anchor="middle" font-family="Inter, system-ui, sans-serif" font-size="11" fill="#94a3b8">Jun 17 07:00</text>
<text x="872.0" y="294" text-anchor="middle" font-family="Inter, system-ui, sans-serif" font-size="11" fill="#94a3b8">Jun 21 23:00</text>
</svg>
