<svg xmlns="http://www.w3.org/2000/svg" width="900" height="320" viewBox="0 0 900 320" role="img" aria-labelledby="title desc">
<title id="title">unsorry proofs over time</title>
<desc id="desc">Cumulative kernel-verified proofs over time, by the hour each proof was merged.</desc>
<rect width="900" height="100%" rx="18" fill="#ffffff"/>
<rect x="0.5" y="0.5" width="899" height="319" rx="18" fill="none" stroke="#e2e8f0"/>
<text x="32" y="44" font-family="Inter, system-ui, sans-serif" font-size="28" font-weight="700" fill="#334155">unsorry — Proofs Over Time</text>
<text x="32" y="72" font-family="Inter, system-ui, sans-serif" font-size="13" fill="#64748b">4385 cumulative kernel-verified proofs · merged, hourly</text>
<line x1="52" y1="272.0" x2="872" y2="272.0" stroke="#f1f5f9"/>
<text x="44" y="276.0" text-anchor="end" font-family="Inter, system-ui, sans-serif" font-size="11" fill="#94a3b8">0</text>
<line x1="52" y1="226.5" x2="872" y2="226.5" stroke="#f1f5f9"/>
<text x="44" y="230.5" text-anchor="end" font-family="Inter, system-ui, sans-serif" font-size="11" fill="#94a3b8">1096</text>
<line x1="52" y1="181.0" x2="872" y2="181.0" stroke="#f1f5f9"/>
<text x="44" y="185.0" text-anchor="end" font-family="Inter, system-ui, sans-serif" font-size="11" fill="#94a3b8">2192</text>
<line x1="52" y1="135.5" x2="872" y2="135.5" stroke="#f1f5f9"/>
<text x="44" y="139.5" text-anchor="end" font-family="Inter, system-ui, sans-serif" font-size="11" fill="#94a3b8">3289</text>
<line x1="52" y1="90.0" x2="872" y2="90.0" stroke="#f1f5f9"/>
<text x="44" y="94.0" text-anchor="end" font-family="Inter, system-ui, sans-serif" font-size="11" fill="#94a3b8">4385</text>
<polygon points="52.0,272.0 52.0,272.0 54.2,271.9 80.1,271.5 82.2,271.3 84.4,271.3 90.8,271.3 103.8,271.2 131.8,271.2 134.0,270.8 136.2,270.8 142.6,270.7 144.8,270.6 146.9,270.6 149.1,270.5 153.4,270.4 155.6,270.2 162.1,270.0 170.7,270.0 172.8,269.8 175.0,269.8 192.3,269.7 196.6,269.7 207.4,269.6 209.5,269.6 211.7,269.5 220.3,269.5 222.5,269.2 224.6,269.0 226.8,268.5 228.9,268.4 244.1,268.3 250.5,268.3 254.8,268.3 257.0,268.2 259.2,268.0 261.3,268.0 263.5,267.9 265.6,267.8 267.8,267.7 276.4,267.5 280.7,267.4 289.4,267.4 291.5,267.2 293.7,267.1 295.8,267.1 300.2,267.0 302.3,266.2 304.5,265.4 306.6,265.1 308.8,264.9 310.9,264.8 313.1,264.6 315.3,264.3 317.4,264.1 319.6,263.9 321.7,263.9 326.1,263.7 328.2,263.4 330.4,263.1 332.5,262.7 334.7,262.5 339.0,262.5 343.3,262.4 345.5,262.1 347.6,261.9 349.8,261.3 351.9,261.0 354.1,260.7 356.3,260.3 358.4,260.0 360.6,259.6 362.7,259.2 364.9,258.7 367.1,258.3 369.2,257.9 371.4,257.7 373.5,257.4 375.7,257.1 377.8,256.9 380.0,256.7 382.2,256.5 384.3,256.4 386.5,256.3 390.8,256.3 392.9,255.4 395.1,254.9 397.3,254.7 399.4,254.7 403.7,254.6 405.9,254.5 414.5,254.4 418.8,254.4 425.3,254.3 427.5,253.4 429.6,252.5 431.8,252.2 433.9,251.5 436.1,250.9 438.3,250.5 440.4,250.3 442.6,249.9 444.7,249.8 446.9,249.7 449.1,249.5 451.2,249.4 464.2,248.8 466.3,247.9 468.5,247.8 470.6,247.7 472.8,247.6 487.9,247.6 507.3,246.7 509.5,246.1 511.6,245.3 513.8,244.1 515.9,243.9 518.1,243.5 520.3,242.9 522.4,242.4 524.6,241.2 526.7,239.6 528.9,238.0 531.1,236.1 533.2,234.1 535.4,232.3 537.5,231.2 539.7,230.0 541.8,228.0 544.0,226.4 546.2,225.3 548.3,224.2 550.5,222.7 552.6,221.7 554.8,220.7 556.9,219.8 559.1,219.1 561.3,218.3 563.4,217.7 565.6,217.1 567.7,216.6 569.9,215.1 572.1,213.9 574.2,213.3 576.4,213.1 578.5,212.7 580.7,212.1 582.8,211.5 585.0,210.5 587.2,209.9 589.3,209.3 591.5,209.2 593.6,209.0 595.8,208.5 597.9,207.3 600.1,205.4 602.3,203.4 604.4,201.3 606.6,199.7 608.7,197.7 610.9,195.6 613.1,193.5 615.2,191.6 617.4,190.2 619.5,189.0 621.7,187.7 623.8,186.5 626.0,185.7 628.2,184.7 630.3,183.9 632.5,182.8 634.6,181.4 636.8,179.7 638.9,178.2 641.1,176.9 643.3,176.1 645.4,175.3 647.6,174.6 649.7,173.8 651.9,172.3 654.1,171.1 656.2,169.7 658.4,168.2 660.5,167.0 662.7,166.0 664.8,165.5 667.0,165.0 669.2,164.4 671.3,164.3 673.5,164.2 675.6,163.9 677.8,163.8 679.9,163.8 682.1,163.5 684.3,163.5 690.7,163.4 692.9,163.4 695.1,163.1 697.2,161.4 699.4,160.0 701.5,158.7 703.7,157.2 705.8,156.0 708.0,154.7 710.2,153.3 712.3,152.1 714.5,150.7 716.6,149.4 718.8,148.1 720.9,146.9 723.1,145.7 725.3,144.5 727.4,143.3 729.6,142.2 731.7,141.1 733.9,139.9 736.1,138.7 738.2,137.6 740.4,136.5 742.5,135.8 744.7,135.0 746.8,134.3 749.0,133.2 751.2,132.3 753.3,131.3 755.5,130.2 757.6,129.3 759.8,128.4 761.9,127.4 764.1,126.4 766.3,125.4 768.4,124.5 770.6,123.5 772.7,122.6 774.9,121.6 777.1,120.8 779.2,120.0 781.4,119.1 783.5,118.2 785.7,117.4 787.8,116.8 790.0,116.1 792.2,115.8 794.3,115.7 796.5,114.8 798.6,114.0 800.8,113.2 802.9,112.3 805.1,111.6 807.3,110.8 809.4,110.0 811.6,109.2 813.7,108.4 815.9,107.7 818.1,107.0 820.2,106.3 822.4,105.5 824.5,104.8 826.7,104.1 828.8,103.3 831.0,102.6 833.2,102.0 835.3,101.2 837.5,100.6 839.6,100.0 841.8,99.1 843.9,98.3 846.1,97.6 848.3,96.8 850.4,96.1 852.6,95.5 854.7,94.9 856.9,94.0 859.1,93.4 861.2,93.0 863.4,92.4 865.5,91.7 867.7,90.9 869.8,90.0 872.0,90.0 872.0,272.0" fill="#e0f2fe" opacity="0.55"/>
<polyline points="52.0,272.0 54.2,271.9 80.1,271.5 82.2,271.3 84.4,271.3 90.8,271.3 103.8,271.2 131.8,271.2 134.0,270.8 136.2,270.8 142.6,270.7 144.8,270.6 146.9,270.6 149.1,270.5 153.4,270.4 155.6,270.2 162.1,270.0 170.7,270.0 172.8,269.8 175.0,269.8 192.3,269.7 196.6,269.7 207.4,269.6 209.5,269.6 211.7,269.5 220.3,269.5 222.5,269.2 224.6,269.0 226.8,268.5 228.9,268.4 244.1,268.3 250.5,268.3 254.8,268.3 257.0,268.2 259.2,268.0 261.3,268.0 263.5,267.9 265.6,267.8 267.8,267.7 276.4,267.5 280.7,267.4 289.4,267.4 291.5,267.2 293.7,267.1 295.8,267.1 300.2,267.0 302.3,266.2 304.5,265.4 306.6,265.1 308.8,264.9 310.9,264.8 313.1,264.6 315.3,264.3 317.4,264.1 319.6,263.9 321.7,263.9 326.1,263.7 328.2,263.4 330.4,263.1 332.5,262.7 334.7,262.5 339.0,262.5 343.3,262.4 345.5,262.1 347.6,261.9 349.8,261.3 351.9,261.0 354.1,260.7 356.3,260.3 358.4,260.0 360.6,259.6 362.7,259.2 364.9,258.7 367.1,258.3 369.2,257.9 371.4,257.7 373.5,257.4 375.7,257.1 377.8,256.9 380.0,256.7 382.2,256.5 384.3,256.4 386.5,256.3 390.8,256.3 392.9,255.4 395.1,254.9 397.3,254.7 399.4,254.7 403.7,254.6 405.9,254.5 414.5,254.4 418.8,254.4 425.3,254.3 427.5,253.4 429.6,252.5 431.8,252.2 433.9,251.5 436.1,250.9 438.3,250.5 440.4,250.3 442.6,249.9 444.7,249.8 446.9,249.7 449.1,249.5 451.2,249.4 464.2,248.8 466.3,247.9 468.5,247.8 470.6,247.7 472.8,247.6 487.9,247.6 507.3,246.7 509.5,246.1 511.6,245.3 513.8,244.1 515.9,243.9 518.1,243.5 520.3,242.9 522.4,242.4 524.6,241.2 526.7,239.6 528.9,238.0 531.1,236.1 533.2,234.1 535.4,232.3 537.5,231.2 539.7,230.0 541.8,228.0 544.0,226.4 546.2,225.3 548.3,224.2 550.5,222.7 552.6,221.7 554.8,220.7 556.9,219.8 559.1,219.1 561.3,218.3 563.4,217.7 565.6,217.1 567.7,216.6 569.9,215.1 572.1,213.9 574.2,213.3 576.4,213.1 578.5,212.7 580.7,212.1 582.8,211.5 585.0,210.5 587.2,209.9 589.3,209.3 591.5,209.2 593.6,209.0 595.8,208.5 597.9,207.3 600.1,205.4 602.3,203.4 604.4,201.3 606.6,199.7 608.7,197.7 610.9,195.6 613.1,193.5 615.2,191.6 617.4,190.2 619.5,189.0 621.7,187.7 623.8,186.5 626.0,185.7 628.2,184.7 630.3,183.9 632.5,182.8 634.6,181.4 636.8,179.7 638.9,178.2 641.1,176.9 643.3,176.1 645.4,175.3 647.6,174.6 649.7,173.8 651.9,172.3 654.1,171.1 656.2,169.7 658.4,168.2 660.5,167.0 662.7,166.0 664.8,165.5 667.0,165.0 669.2,164.4 671.3,164.3 673.5,164.2 675.6,163.9 677.8,163.8 679.9,163.8 682.1,163.5 684.3,163.5 690.7,163.4 692.9,163.4 695.1,163.1 697.2,161.4 699.4,160.0 701.5,158.7 703.7,157.2 705.8,156.0 708.0,154.7 710.2,153.3 712.3,152.1 714.5,150.7 716.6,149.4 718.8,148.1 720.9,146.9 723.1,145.7 725.3,144.5 727.4,143.3 729.6,142.2 731.7,141.1 733.9,139.9 736.1,138.7 738.2,137.6 740.4,136.5 742.5,135.8 744.7,135.0 746.8,134.3 749.0,133.2 751.2,132.3 753.3,131.3 755.5,130.2 757.6,129.3 759.8,128.4 761.9,127.4 764.1,126.4 766.3,125.4 768.4,124.5 770.6,123.5 772.7,122.6 774.9,121.6 777.1,120.8 779.2,120.0 781.4,119.1 783.5,118.2 785.7,117.4 787.8,116.8 790.0,116.1 792.2,115.8 794.3,115.7 796.5,114.8 798.6,114.0 800.8,113.2 802.9,112.3 805.1,111.6 807.3,110.8 809.4,110.0 811.6,109.2 813.7,108.4 815.9,107.7 818.1,107.0 820.2,106.3 822.4,105.5 824.5,104.8 826.7,104.1 828.8,103.3 831.0,102.6 833.2,102.0 835.3,101.2 837.5,100.6 839.6,100.0 841.8,99.1 843.9,98.3 846.1,97.6 848.3,96.8 850.4,96.1 852.6,95.5 854.7,94.9 856.9,94.0 859.1,93.4 861.2,93.0 863.4,92.4 865.5,91.7 867.7,90.9 869.8,90.0 872.0,90.0" fill="none" stroke="#38bdf8" stroke-width="2.5" stroke-linejoin="round" stroke-linecap="round"/>
<circle cx="872.0" cy="90.0" r="4" fill="#0ea5e9"/>
<text x="866.0" y="80.0" text-anchor="end" font-family="Inter, system-ui, sans-serif" font-size="13" font-weight="700" fill="#334155">4385</text>
<text x="52.0" y="294" text-anchor="middle" font-family="Inter, system-ui, sans-serif" font-size="11" fill="#94a3b8">Jun 10 05:00</text>
<text x="567.7" y="294" text-anchor="middle" font-family="Inter, system-ui, sans-serif" font-size="11" fill="#94a3b8">Jun 20 04:00</text>
<text x="872.0" y="294" text-anchor="middle" font-family="Inter, system-ui, sans-serif" font-size="11" fill="#94a3b8">Jun 26 01:00</text>
</svg>
