<svg xmlns="http://www.w3.org/2000/svg" width="900" height="320" viewBox="0 0 900 320" role="img" aria-labelledby="title desc">
<title id="title">unsorry proofs over time</title>
<desc id="desc">Cumulative kernel-verified proofs over time, by the hour each proof was merged.</desc>
<rect width="900" height="100%" rx="18" fill="#ffffff"/>
<rect x="0.5" y="0.5" width="899" height="319" rx="18" fill="none" stroke="#e2e8f0"/>
<text x="32" y="44" font-family="Inter, system-ui, sans-serif" font-size="28" font-weight="700" fill="#334155">unsorry — Proofs Over Time</text>
<text x="32" y="72" font-family="Inter, system-ui, sans-serif" font-size="13" fill="#64748b">3385 cumulative kernel-verified proofs · merged, hourly</text>
<line x1="52" y1="272.0" x2="872" y2="272.0" stroke="#f1f5f9"/>
<text x="44" y="276.0" text-anchor="end" font-family="Inter, system-ui, sans-serif" font-size="11" fill="#94a3b8">0</text>
<line x1="52" y1="226.5" x2="872" y2="226.5" stroke="#f1f5f9"/>
<text x="44" y="230.5" text-anchor="end" font-family="Inter, system-ui, sans-serif" font-size="11" fill="#94a3b8">846</text>
<line x1="52" y1="181.0" x2="872" y2="181.0" stroke="#f1f5f9"/>
<text x="44" y="185.0" text-anchor="end" font-family="Inter, system-ui, sans-serif" font-size="11" fill="#94a3b8">1692</text>
<line x1="52" y1="135.5" x2="872" y2="135.5" stroke="#f1f5f9"/>
<text x="44" y="139.5" text-anchor="end" font-family="Inter, system-ui, sans-serif" font-size="11" fill="#94a3b8">2539</text>
<line x1="52" y1="90.0" x2="872" y2="90.0" stroke="#f1f5f9"/>
<text x="44" y="94.0" text-anchor="end" font-family="Inter, system-ui, sans-serif" font-size="11" fill="#94a3b8">3385</text>
<polygon points="52.0,272.0 52.0,271.9 54.5,271.8 84.8,271.3 87.3,271.1 89.8,271.1 97.4,271.0 112.6,271.0 145.4,270.9 147.9,270.4 150.4,270.4 158.0,270.3 160.5,270.2 163.0,270.2 165.5,270.0 170.6,270.0 173.1,269.7 180.7,269.5 190.8,269.4 193.3,269.2 195.8,269.1 216.0,269.0 221.0,269.0 233.7,268.9 236.2,268.9 238.7,268.8 248.8,268.7 251.3,268.4 253.8,268.1 256.4,267.4 258.9,267.3 276.6,267.3 284.1,267.2 289.2,267.2 291.7,267.1 294.2,266.8 296.7,266.8 299.3,266.7 301.8,266.6 304.3,266.4 314.4,266.1 319.4,266.1 329.5,266.0 332.1,265.8 334.6,265.7 337.1,265.6 342.2,265.5 344.7,264.5 347.2,263.4 349.7,263.0 352.2,262.8 354.8,262.6 357.3,262.4 359.8,262.0 362.3,261.7 364.9,261.6 367.4,261.5 372.4,261.3 375.0,260.9 377.5,260.4 380.0,260.0 382.5,259.7 387.6,259.6 392.6,259.6 395.1,259.2 397.7,258.9 400.2,258.2 402.7,257.8 405.2,257.3 407.8,256.9 410.3,256.4 412.8,255.9 415.3,255.4 417.8,254.8 420.4,254.3 422.9,253.8 425.4,253.5 427.9,253.1 430.5,252.6 433.0,252.4 435.5,252.2 438.0,251.9 440.6,251.8 443.1,251.7 448.1,251.6 450.6,250.5 453.2,249.8 455.7,249.6 458.2,249.6 463.3,249.5 465.8,249.3 475.9,249.3 480.9,249.1 488.5,249.1 491.0,247.9 493.5,246.7 496.1,246.4 498.6,245.4 501.1,244.6 503.6,244.1 506.2,243.9 508.7,243.4 511.2,243.2 513.7,243.1 516.2,242.9 518.8,242.8 533.9,241.9 536.4,240.8 539.0,240.7 541.5,240.5 544.0,240.4 561.7,240.4 584.4,239.3 586.9,238.4 589.4,237.4 591.9,235.9 594.5,235.6 597.0,235.1 599.5,234.3 602.0,233.6 604.6,232.2 607.1,230.0 609.6,227.9 612.1,225.4 614.6,222.9 617.2,220.6 619.7,219.2 622.2,217.5 624.7,215.1 627.3,213.0 629.8,211.6 632.3,210.1 634.8,208.1 637.4,206.8 639.9,205.5 642.4,204.4 644.9,203.5 647.4,202.4 650.0,201.7 652.5,200.9 655.0,200.3 657.5,198.3 660.1,196.8 662.6,195.9 665.1,195.7 667.6,195.2 670.2,194.4 672.7,193.7 675.2,192.4 677.7,191.6 680.2,190.8 682.8,190.7 685.3,190.4 687.8,189.8 690.3,188.2 692.9,185.7 695.4,183.1 697.9,180.4 700.4,178.3 703.0,175.8 705.5,173.1 708.0,170.3 710.5,167.8 713.0,166.0 715.6,164.5 718.1,162.9 720.6,161.2 723.1,160.2 725.7,158.9 728.2,157.9 730.7,156.5 733.2,154.6 735.8,152.4 738.3,150.5 740.8,148.8 743.3,147.7 745.8,146.8 748.4,145.8 750.9,144.7 753.4,142.9 755.9,141.3 758.5,139.5 761.0,137.5 763.5,135.9 766.0,134.6 768.6,134.1 771.1,133.3 773.6,132.6 776.1,132.5 778.6,132.4 781.2,132.0 783.7,131.8 786.2,131.8 788.7,131.5 791.3,131.4 798.8,131.3 801.4,131.3 803.9,131.0 806.4,128.8 808.9,126.9 811.4,125.2 814.0,123.3 816.5,121.7 819.0,120.0 821.5,118.2 824.1,116.6 826.6,114.8 829.1,113.2 831.6,111.6 834.2,109.9 836.7,108.4 839.2,106.8 841.7,105.2 844.2,103.9 846.8,102.4 849.3,100.9 851.8,99.4 854.3,98.0 856.9,96.5 859.4,95.5 861.9,94.6 864.4,93.6 867.0,92.2 869.5,91.0 872.0,90.0 872.0,272.0" fill="#e0f2fe" opacity="0.55"/>
<polyline points="52.0,271.9 54.5,271.8 84.8,271.3 87.3,271.1 89.8,271.1 97.4,271.0 112.6,271.0 145.4,270.9 147.9,270.4 150.4,270.4 158.0,270.3 160.5,270.2 163.0,270.2 165.5,270.0 170.6,270.0 173.1,269.7 180.7,269.5 190.8,269.4 193.3,269.2 195.8,269.1 216.0,269.0 221.0,269.0 233.7,268.9 236.2,268.9 238.7,268.8 248.8,268.7 251.3,268.4 253.8,268.1 256.4,267.4 258.9,267.3 276.6,267.3 284.1,267.2 289.2,267.2 291.7,267.1 294.2,266.8 296.7,266.8 299.3,266.7 301.8,266.6 304.3,266.4 314.4,266.1 319.4,266.1 329.5,266.0 332.1,265.8 334.6,265.7 337.1,265.6 342.2,265.5 344.7,264.5 347.2,263.4 349.7,263.0 352.2,262.8 354.8,262.6 357.3,262.4 359.8,262.0 362.3,261.7 364.9,261.6 367.4,261.5 372.4,261.3 375.0,260.9 377.5,260.4 380.0,260.0 382.5,259.7 387.6,259.6 392.6,259.6 395.1,259.2 397.7,258.9 400.2,258.2 402.7,257.8 405.2,257.3 407.8,256.9 410.3,256.4 412.8,255.9 415.3,255.4 417.8,254.8 420.4,254.3 422.9,253.8 425.4,253.5 427.9,253.1 430.5,252.6 433.0,252.4 435.5,252.2 438.0,251.9 440.6,251.8 443.1,251.7 448.1,251.6 450.6,250.5 453.2,249.8 455.7,249.6 458.2,249.6 463.3,249.5 465.8,249.3 475.9,249.3 480.9,249.1 488.5,249.1 491.0,247.9 493.5,246.7 496.1,246.4 498.6,245.4 501.1,244.6 503.6,244.1 506.2,243.9 508.7,243.4 511.2,243.2 513.7,243.1 516.2,242.9 518.8,242.8 533.9,241.9 536.4,240.8 539.0,240.7 541.5,240.5 544.0,240.4 561.7,240.4 584.4,239.3 586.9,238.4 589.4,237.4 591.9,235.9 594.5,235.6 597.0,235.1 599.5,234.3 602.0,233.6 604.6,232.2 607.1,230.0 609.6,227.9 612.1,225.4 614.6,222.9 617.2,220.6 619.7,219.2 622.2,217.5 624.7,215.1 627.3,213.0 629.8,211.6 632.3,210.1 634.8,208.1 637.4,206.8 639.9,205.5 642.4,204.4 644.9,203.5 647.4,202.4 650.0,201.7 652.5,200.9 655.0,200.3 657.5,198.3 660.1,196.8 662.6,195.9 665.1,195.7 667.6,195.2 670.2,194.4 672.7,193.7 675.2,192.4 677.7,191.6 680.2,190.8 682.8,190.7 685.3,190.4 687.8,189.8 690.3,188.2 692.9,185.7 695.4,183.1 697.9,180.4 700.4,178.3 703.0,175.8 705.5,173.1 708.0,170.3 710.5,167.8 713.0,166.0 715.6,164.5 718.1,162.9 720.6,161.2 723.1,160.2 725.7,158.9 728.2,157.9 730.7,156.5 733.2,154.6 735.8,152.4 738.3,150.5 740.8,148.8 743.3,147.7 745.8,146.8 748.4,145.8 750.9,144.7 753.4,142.9 755.9,141.3 758.5,139.5 761.0,137.5 763.5,135.9 766.0,134.6 768.6,134.1 771.1,133.3 773.6,132.6 776.1,132.5 778.6,132.4 781.2,132.0 783.7,131.8 786.2,131.8 788.7,131.5 791.3,131.4 798.8,131.3 801.4,131.3 803.9,131.0 806.4,128.8 808.9,126.9 811.4,125.2 814.0,123.3 816.5,121.7 819.0,120.0 821.5,118.2 824.1,116.6 826.6,114.8 829.1,113.2 831.6,111.6 834.2,109.9 836.7,108.4 839.2,106.8 841.7,105.2 844.2,103.9 846.8,102.4 849.3,100.9 851.8,99.4 854.3,98.0 856.9,96.5 859.4,95.5 861.9,94.6 864.4,93.6 867.0,92.2 869.5,91.0 872.0,90.0" fill="none" stroke="#38bdf8" stroke-width="2.5" stroke-linejoin="round" stroke-linecap="round"/>
<circle cx="872.0" cy="90.0" r="4" fill="#0ea5e9"/>
<text x="866.0" y="80.0" text-anchor="end" font-family="Inter, system-ui, sans-serif" font-size="13" font-weight="700" fill="#334155">3385</text>
<text x="52.0" y="294" text-anchor="middle" font-family="Inter, system-ui, sans-serif" font-size="11" fill="#94a3b8">Jun 10 05:00</text>
<text x="586.9" y="294" text-anchor="middle" font-family="Inter, system-ui, sans-serif" font-size="11" fill="#94a3b8">Jun 19 01:00</text>
<text x="872.0" y="294" text-anchor="middle" font-family="Inter, system-ui, sans-serif" font-size="11" fill="#94a3b8">Jun 23 18:00</text>
</svg>
