<svg xmlns="http://www.w3.org/2000/svg" width="900" height="320" viewBox="0 0 900 320" role="img" aria-labelledby="title desc">
<title id="title">unsorry proofs over time</title>
<desc id="desc">Cumulative kernel-verified proofs over time, by the hour each proof was merged.</desc>
<rect width="900" height="100%" rx="18" fill="#ffffff"/>
<rect x="0.5" y="0.5" width="899" height="319" rx="18" fill="none" stroke="#e2e8f0"/>
<text x="32" y="44" font-family="Inter, system-ui, sans-serif" font-size="28" font-weight="700" fill="#334155">unsorry — Proofs Over Time</text>
<text x="32" y="72" font-family="Inter, system-ui, sans-serif" font-size="13" fill="#64748b">4111 cumulative kernel-verified proofs · merged, hourly</text>
<line x1="52" y1="272.0" x2="872" y2="272.0" stroke="#f1f5f9"/>
<text x="44" y="276.0" text-anchor="end" font-family="Inter, system-ui, sans-serif" font-size="11" fill="#94a3b8">0</text>
<line x1="52" y1="226.5" x2="872" y2="226.5" stroke="#f1f5f9"/>
<text x="44" y="230.5" text-anchor="end" font-family="Inter, system-ui, sans-serif" font-size="11" fill="#94a3b8">1028</text>
<line x1="52" y1="181.0" x2="872" y2="181.0" stroke="#f1f5f9"/>
<text x="44" y="185.0" text-anchor="end" font-family="Inter, system-ui, sans-serif" font-size="11" fill="#94a3b8">2056</text>
<line x1="52" y1="135.5" x2="872" y2="135.5" stroke="#f1f5f9"/>
<text x="44" y="139.5" text-anchor="end" font-family="Inter, system-ui, sans-serif" font-size="11" fill="#94a3b8">3083</text>
<line x1="52" y1="90.0" x2="872" y2="90.0" stroke="#f1f5f9"/>
<text x="44" y="94.0" text-anchor="end" font-family="Inter, system-ui, sans-serif" font-size="11" fill="#94a3b8">4111</text>
<polygon points="52.0,272.0 52.0,272.0 54.3,271.9 81.4,271.4 83.6,271.3 85.9,271.2 92.7,271.2 106.2,271.2 135.6,271.1 137.8,270.7 140.1,270.7 146.9,270.6 149.1,270.5 151.4,270.5 153.7,270.4 158.2,270.3 160.4,270.1 167.2,269.9 176.2,269.8 178.5,269.7 180.8,269.6 198.8,269.6 203.3,269.5 214.6,269.5 216.9,269.4 219.2,269.3 228.2,269.3 230.5,269.0 232.7,268.8 235.0,268.2 237.2,268.1 253.0,268.1 259.8,268.1 264.3,268.0 266.6,268.0 268.9,267.7 271.1,267.7 273.4,267.7 275.6,267.5 277.9,267.4 286.9,267.2 291.4,267.1 300.5,267.1 302.7,266.9 305.0,266.8 307.3,266.7 311.8,266.7 314.0,265.8 316.3,264.9 318.6,264.6 320.8,264.4 323.1,264.3 325.3,264.1 327.6,263.8 329.9,263.5 332.1,263.4 334.4,263.3 338.9,263.2 341.1,262.8 343.4,262.5 345.7,262.1 347.9,261.9 352.4,261.8 357.0,261.8 359.2,261.5 361.5,261.2 363.7,260.6 366.0,260.3 368.3,259.9 370.5,259.6 372.8,259.2 375.0,258.8 377.3,258.3 379.5,257.8 381.8,257.4 384.1,257.0 386.3,256.7 388.6,256.4 390.8,256.1 393.1,255.9 395.4,255.7 397.6,255.4 399.9,255.4 402.1,255.3 406.7,255.2 408.9,254.3 411.2,253.7 413.4,253.6 415.7,253.5 420.2,253.5 422.5,253.3 431.5,253.3 436.0,253.2 442.8,253.1 445.1,252.1 447.3,251.1 449.6,250.9 451.8,250.1 454.1,249.5 456.4,249.1 458.6,248.8 460.9,248.4 463.1,248.3 465.4,248.2 467.6,248.0 469.9,247.9 483.5,247.2 485.7,246.3 488.0,246.2 490.2,246.1 492.5,246.0 508.3,246.0 528.6,245.0 530.9,244.3 533.2,243.5 535.4,242.2 537.7,242.0 539.9,241.6 542.2,240.9 544.5,240.4 546.7,239.2 549.0,237.4 551.2,235.7 553.5,233.7 555.7,231.5 558.0,229.7 560.3,228.5 562.5,227.2 564.8,225.1 567.0,223.4 569.3,222.2 571.6,221.0 573.8,219.4 576.1,218.3 578.3,217.2 580.6,216.3 582.9,215.6 585.1,214.7 587.4,214.1 589.6,213.5 591.9,212.9 594.1,211.3 596.4,210.1 598.7,209.4 600.9,209.1 603.2,208.7 605.4,208.1 607.7,207.5 610.0,206.4 612.2,205.8 614.5,205.2 616.7,205.1 619.0,204.8 621.3,204.3 623.5,203.0 625.8,200.9 628.0,198.8 630.3,196.6 632.6,194.8 634.8,192.8 637.1,190.5 639.3,188.3 641.6,186.2 643.8,184.7 646.1,183.5 648.4,182.1 650.6,180.8 652.9,179.9 655.1,178.9 657.4,178.1 659.7,176.9 661.9,175.4 664.2,173.5 666.4,171.9 668.7,170.6 671.0,169.7 673.2,168.9 675.5,168.1 677.7,167.2 680.0,165.7 682.2,164.4 684.5,162.9 686.8,161.3 689.0,159.9 691.3,158.9 693.5,158.4 695.8,157.8 698.1,157.2 700.3,157.1 702.6,157.0 704.8,156.7 707.1,156.6 709.4,156.5 711.6,156.3 713.9,156.2 720.7,156.2 722.9,156.1 725.2,155.9 727.4,154.1 729.7,152.5 731.9,151.1 734.2,149.6 736.5,148.2 738.7,146.8 741.0,145.4 743.2,144.1 745.5,142.6 747.8,141.3 750.0,139.9 752.3,138.6 754.5,137.3 756.8,136.0 759.1,134.7 761.3,133.6 763.6,132.3 765.8,131.1 768.1,129.8 770.3,128.7 772.6,127.5 774.9,126.7 777.1,125.9 779.4,125.1 781.6,124.0 783.9,122.9 786.2,122.0 788.4,120.8 790.7,119.8 792.9,118.8 795.2,117.8 797.5,116.7 799.7,115.7 802.0,114.7 804.2,113.6 806.5,112.7 808.7,111.6 811.0,110.8 813.3,109.9 815.5,108.9 817.8,108.0 820.0,107.1 822.3,106.4 824.6,105.8 826.8,105.4 829.1,105.2 831.3,104.3 833.6,103.5 835.9,102.6 838.1,101.6 840.4,100.9 842.6,100.0 844.9,99.2 847.2,98.3 849.4,97.5 851.7,96.8 853.9,96.0 856.2,95.3 858.4,94.4 860.7,93.7 863.0,92.9 865.2,92.1 867.5,91.3 869.7,90.7 872.0,90.0 872.0,272.0" fill="#e0f2fe" opacity="0.55"/>
<polyline points="52.0,272.0 54.3,271.9 81.4,271.4 83.6,271.3 85.9,271.2 92.7,271.2 106.2,271.2 135.6,271.1 137.8,270.7 140.1,270.7 146.9,270.6 149.1,270.5 151.4,270.5 153.7,270.4 158.2,270.3 160.4,270.1 167.2,269.9 176.2,269.8 178.5,269.7 180.8,269.6 198.8,269.6 203.3,269.5 214.6,269.5 216.9,269.4 219.2,269.3 228.2,269.3 230.5,269.0 232.7,268.8 235.0,268.2 237.2,268.1 253.0,268.1 259.8,268.1 264.3,268.0 266.6,268.0 268.9,267.7 271.1,267.7 273.4,267.7 275.6,267.5 277.9,267.4 286.9,267.2 291.4,267.1 300.5,267.1 302.7,266.9 305.0,266.8 307.3,266.7 311.8,266.7 314.0,265.8 316.3,264.9 318.6,264.6 320.8,264.4 323.1,264.3 325.3,264.1 327.6,263.8 329.9,263.5 332.1,263.4 334.4,263.3 338.9,263.2 341.1,262.8 343.4,262.5 345.7,262.1 347.9,261.9 352.4,261.8 357.0,261.8 359.2,261.5 361.5,261.2 363.7,260.6 366.0,260.3 368.3,259.9 370.5,259.6 372.8,259.2 375.0,258.8 377.3,258.3 379.5,257.8 381.8,257.4 384.1,257.0 386.3,256.7 388.6,256.4 390.8,256.1 393.1,255.9 395.4,255.7 397.6,255.4 399.9,255.4 402.1,255.3 406.7,255.2 408.9,254.3 411.2,253.7 413.4,253.6 415.7,253.5 420.2,253.5 422.5,253.3 431.5,253.3 436.0,253.2 442.8,253.1 445.1,252.1 447.3,251.1 449.6,250.9 451.8,250.1 454.1,249.5 456.4,249.1 458.6,248.8 460.9,248.4 463.1,248.3 465.4,248.2 467.6,248.0 469.9,247.9 483.5,247.2 485.7,246.3 488.0,246.2 490.2,246.1 492.5,246.0 508.3,246.0 528.6,245.0 530.9,244.3 533.2,243.5 535.4,242.2 537.7,242.0 539.9,241.6 542.2,240.9 544.5,240.4 546.7,239.2 549.0,237.4 551.2,235.7 553.5,233.7 555.7,231.5 558.0,229.7 560.3,228.5 562.5,227.2 564.8,225.1 567.0,223.4 569.3,222.2 571.6,221.0 573.8,219.4 576.1,218.3 578.3,217.2 580.6,216.3 582.9,215.6 585.1,214.7 587.4,214.1 589.6,213.5 591.9,212.9 594.1,211.3 596.4,210.1 598.7,209.4 600.9,209.1 603.2,208.7 605.4,208.1 607.7,207.5 610.0,206.4 612.2,205.8 614.5,205.2 616.7,205.1 619.0,204.8 621.3,204.3 623.5,203.0 625.8,200.9 628.0,198.8 630.3,196.6 632.6,194.8 634.8,192.8 637.1,190.5 639.3,188.3 641.6,186.2 643.8,184.7 646.1,183.5 648.4,182.1 650.6,180.8 652.9,179.9 655.1,178.9 657.4,178.1 659.7,176.9 661.9,175.4 664.2,173.5 666.4,171.9 668.7,170.6 671.0,169.7 673.2,168.9 675.5,168.1 677.7,167.2 680.0,165.7 682.2,164.4 684.5,162.9 686.8,161.3 689.0,159.9 691.3,158.9 693.5,158.4 695.8,157.8 698.1,157.2 700.3,157.1 702.6,157.0 704.8,156.7 707.1,156.6 709.4,156.5 711.6,156.3 713.9,156.2 720.7,156.2 722.9,156.1 725.2,155.9 727.4,154.1 729.7,152.5 731.9,151.1 734.2,149.6 736.5,148.2 738.7,146.8 741.0,145.4 743.2,144.1 745.5,142.6 747.8,141.3 750.0,139.9 752.3,138.6 754.5,137.3 756.8,136.0 759.1,134.7 761.3,133.6 763.6,132.3 765.8,131.1 768.1,129.8 770.3,128.7 772.6,127.5 774.9,126.7 777.1,125.9 779.4,125.1 781.6,124.0 783.9,122.9 786.2,122.0 788.4,120.8 790.7,119.8 792.9,118.8 795.2,117.8 797.5,116.7 799.7,115.7 802.0,114.7 804.2,113.6 806.5,112.7 808.7,111.6 811.0,110.8 813.3,109.9 815.5,108.9 817.8,108.0 820.0,107.1 822.3,106.4 824.6,105.8 826.8,105.4 829.1,105.2 831.3,104.3 833.6,103.5 835.9,102.6 838.1,101.6 840.4,100.9 842.6,100.0 844.9,99.2 847.2,98.3 849.4,97.5 851.7,96.8 853.9,96.0 856.2,95.3 858.4,94.4 860.7,93.7 863.0,92.9 865.2,92.1 867.5,91.3 869.7,90.7 872.0,90.0" fill="none" stroke="#38bdf8" stroke-width="2.5" stroke-linejoin="round" stroke-linecap="round"/>
<circle cx="872.0" cy="90.0" r="4" fill="#0ea5e9"/>
<text x="866.0" y="80.0" text-anchor="end" font-family="Inter, system-ui, sans-serif" font-size="13" font-weight="700" fill="#334155">4111</text>
<text x="52.0" y="294" text-anchor="middle" font-family="Inter, system-ui, sans-serif" font-size="11" fill="#94a3b8">Jun 10 05:00</text>
<text x="573.8" y="294" text-anchor="middle" font-family="Inter, system-ui, sans-serif" font-size="11" fill="#94a3b8">Jun 19 20:00</text>
<text x="872.0" y="294" text-anchor="middle" font-family="Inter, system-ui, sans-serif" font-size="11" fill="#94a3b8">Jun 25 08:00</text>
</svg>
