<svg xmlns="http://www.w3.org/2000/svg" width="900" height="320" viewBox="0 0 900 320" role="img" aria-labelledby="title desc">
<title id="title">Unsorry proofs over time</title>
<desc id="desc">Cumulative kernel-verified proofs over time, by the hour each proof was merged.</desc>
<rect width="900" height="100%" rx="18" fill="#ffffff"/>
<rect x="0.5" y="0.5" width="899" height="319" rx="18" fill="none" stroke="#e2e8f0"/>
<text x="32" y="44" font-family="Inter, system-ui, sans-serif" font-size="28" font-weight="700" fill="#334155">Unsorry — Proofs Over Time</text>
<text x="32" y="72" font-family="Inter, system-ui, sans-serif" font-size="13" fill="#64748b">2202 cumulative kernel-verified proofs · merged, hourly</text>
<line x1="52" y1="272.0" x2="872" y2="272.0" stroke="#f1f5f9"/>
<text x="44" y="276.0" text-anchor="end" font-family="Inter, system-ui, sans-serif" font-size="11" fill="#94a3b8">0</text>
<line x1="52" y1="226.5" x2="872" y2="226.5" stroke="#f1f5f9"/>
<text x="44" y="230.5" text-anchor="end" font-family="Inter, system-ui, sans-serif" font-size="11" fill="#94a3b8">550</text>
<line x1="52" y1="181.0" x2="872" y2="181.0" stroke="#f1f5f9"/>
<text x="44" y="185.0" text-anchor="end" font-family="Inter, system-ui, sans-serif" font-size="11" fill="#94a3b8">1101</text>
<line x1="52" y1="135.5" x2="872" y2="135.5" stroke="#f1f5f9"/>
<text x="44" y="139.5" text-anchor="end" font-family="Inter, system-ui, sans-serif" font-size="11" fill="#94a3b8">1652</text>
<line x1="52" y1="90.0" x2="872" y2="90.0" stroke="#f1f5f9"/>
<text x="44" y="94.0" text-anchor="end" font-family="Inter, system-ui, sans-serif" font-size="11" fill="#94a3b8">2202</text>
<polygon points="52.0,272.0 52.0,271.9 55.0,271.8 91.3,270.9 94.4,270.7 97.4,270.6 106.5,270.5 124.6,270.4 164.0,270.3 167.0,269.6 170.0,269.5 179.1,269.4 182.1,269.3 185.1,269.2 188.2,268.9 194.2,268.9 197.2,268.4 206.3,268.1 218.4,268.0 221.4,267.7 224.5,267.5 248.7,267.5 254.7,267.4 269.9,267.3 272.9,267.2 275.9,267.0 288.0,267.0 291.0,266.5 294.1,266.0 297.1,265.0 300.1,264.8 321.3,264.7 330.4,264.6 336.4,264.6 339.5,264.5 342.5,264.1 345.5,264.0 348.5,263.9 351.6,263.7 354.6,263.4 366.7,263.0 372.7,262.9 384.8,262.8 387.9,262.4 390.9,262.3 393.9,262.2 400.0,262.1 403.0,260.4 406.0,258.8 409.0,258.2 412.1,257.8 415.1,257.6 418.1,257.2 421.2,256.6 424.2,256.2 427.2,256.0 430.2,255.8 436.3,255.6 439.3,254.9 442.3,254.2 445.4,253.6 448.4,253.2 454.4,253.0 460.5,252.9 463.5,252.3 466.5,251.9 469.6,250.8 472.6,250.1 475.6,249.4 478.6,248.8 481.7,248.0 484.7,247.3 487.7,246.5 490.7,245.6 493.8,244.7 496.8,244.0 499.8,243.5 502.8,242.9 505.9,242.2 508.9,241.9 511.9,241.5 515.0,241.1 518.0,240.9 521.0,240.8 527.1,240.7 530.1,239.0 533.1,237.9 536.1,237.6 539.2,237.5 545.2,237.4 548.2,237.1 560.3,237.0 566.4,236.9 575.5,236.8 578.5,234.9 581.5,233.1 584.5,232.6 587.6,231.1 590.6,229.9 593.6,229.2 596.6,228.8 599.7,228.0 602.7,227.7 605.7,227.5 608.8,227.2 611.8,227.0 629.9,225.7 633.0,224.1 636.0,223.8 639.0,223.6 642.0,223.5 663.2,223.4 690.5,221.7 693.5,220.3 696.5,218.8 699.5,216.5 702.6,216.0 705.6,215.3 708.6,214.0 711.6,213.0 714.7,210.8 717.7,207.4 720.7,204.2 723.7,200.4 726.8,196.5 729.8,193.0 732.8,190.8 735.8,188.3 738.9,184.5 741.9,181.2 744.9,179.1 747.9,176.9 751.0,173.7 754.0,171.7 757.0,169.8 760.0,168.0 763.1,166.7 766.1,165.0 769.1,163.9 772.1,162.7 775.2,161.7 778.2,158.8 781.2,156.4 784.3,155.0 787.3,154.6 790.3,153.9 793.3,152.7 796.4,151.6 799.4,149.6 802.4,148.4 805.4,147.2 808.5,147.0 811.5,146.5 814.5,145.6 817.5,143.2 820.6,139.3 823.6,135.3 826.6,131.2 829.6,127.9 832.7,124.1 835.7,119.9 838.7,115.7 841.7,111.8 844.8,109.0 847.8,106.8 850.8,104.2 853.8,101.7 856.9,100.1 859.9,98.1 862.9,96.6 865.9,94.5 869.0,91.6 872.0,90.0 872.0,272.0" fill="#e0f2fe" opacity="0.55"/>
<polyline points="52.0,271.9 55.0,271.8 91.3,270.9 94.4,270.7 97.4,270.6 106.5,270.5 124.6,270.4 164.0,270.3 167.0,269.6 170.0,269.5 179.1,269.4 182.1,269.3 185.1,269.2 188.2,268.9 194.2,268.9 197.2,268.4 206.3,268.1 218.4,268.0 221.4,267.7 224.5,267.5 248.7,267.5 254.7,267.4 269.9,267.3 272.9,267.2 275.9,267.0 288.0,267.0 291.0,266.5 294.1,266.0 297.1,265.0 300.1,264.8 321.3,264.7 330.4,264.6 336.4,264.6 339.5,264.5 342.5,264.1 345.5,264.0 348.5,263.9 351.6,263.7 354.6,263.4 366.7,263.0 372.7,262.9 384.8,262.8 387.9,262.4 390.9,262.3 393.9,262.2 400.0,262.1 403.0,260.4 406.0,258.8 409.0,258.2 412.1,257.8 415.1,257.6 418.1,257.2 421.2,256.6 424.2,256.2 427.2,256.0 430.2,255.8 436.3,255.6 439.3,254.9 442.3,254.2 445.4,253.6 448.4,253.2 454.4,253.0 460.5,252.9 463.5,252.3 466.5,251.9 469.6,250.8 472.6,250.1 475.6,249.4 478.6,248.8 481.7,248.0 484.7,247.3 487.7,246.5 490.7,245.6 493.8,244.7 496.8,244.0 499.8,243.5 502.8,242.9 505.9,242.2 508.9,241.9 511.9,241.5 515.0,241.1 518.0,240.9 521.0,240.8 527.1,240.7 530.1,239.0 533.1,237.9 536.1,237.6 539.2,237.5 545.2,237.4 548.2,237.1 560.3,237.0 566.4,236.9 575.5,236.8 578.5,234.9 581.5,233.1 584.5,232.6 587.6,231.1 590.6,229.9 593.6,229.2 596.6,228.8 599.7,228.0 602.7,227.7 605.7,227.5 608.8,227.2 611.8,227.0 629.9,225.7 633.0,224.1 636.0,223.8 639.0,223.6 642.0,223.5 663.2,223.4 690.5,221.7 693.5,220.3 696.5,218.8 699.5,216.5 702.6,216.0 705.6,215.3 708.6,214.0 711.6,213.0 714.7,210.8 717.7,207.4 720.7,204.2 723.7,200.4 726.8,196.5 729.8,193.0 732.8,190.8 735.8,188.3 738.9,184.5 741.9,181.2 744.9,179.1 747.9,176.9 751.0,173.7 754.0,171.7 757.0,169.8 760.0,168.0 763.1,166.7 766.1,165.0 769.1,163.9 772.1,162.7 775.2,161.7 778.2,158.8 781.2,156.4 784.3,155.0 787.3,154.6 790.3,153.9 793.3,152.7 796.4,151.6 799.4,149.6 802.4,148.4 805.4,147.2 808.5,147.0 811.5,146.5 814.5,145.6 817.5,143.2 820.6,139.3 823.6,135.3 826.6,131.2 829.6,127.9 832.7,124.1 835.7,119.9 838.7,115.7 841.7,111.8 844.8,109.0 847.8,106.8 850.8,104.2 853.8,101.7 856.9,100.1 859.9,98.1 862.9,96.6 865.9,94.5 869.0,91.6 872.0,90.0" fill="none" stroke="#38bdf8" stroke-width="2.5" stroke-linejoin="round" stroke-linecap="round"/>
<circle cx="872.0" cy="90.0" r="4" fill="#0ea5e9"/>
<text x="866.0" y="80.0" text-anchor="end" font-family="Inter, system-ui, sans-serif" font-size="13" font-weight="700" fill="#334155">2202</text>
<text x="52.0" y="294" text-anchor="middle" font-family="Inter, system-ui, sans-serif" font-size="11" fill="#94a3b8">Jun 10 05:00</text>
<text x="536.1" y="294" text-anchor="middle" font-family="Inter, system-ui, sans-serif" font-size="11" fill="#94a3b8">Jun 16 21:00</text>
<text x="872.0" y="294" text-anchor="middle" font-family="Inter, system-ui, sans-serif" font-size="11" fill="#94a3b8">Jun 21 12:00</text>
</svg>
