<svg xmlns="http://www.w3.org/2000/svg" width="900" height="320" viewBox="0 0 900 320" role="img" aria-labelledby="title desc">
<title id="title">unsorry proofs over time</title>
<desc id="desc">Cumulative kernel-verified proofs over time, by the hour each proof was merged.</desc>
<rect width="900" height="100%" rx="18" fill="#ffffff"/>
<rect x="0.5" y="0.5" width="899" height="319" rx="18" fill="none" stroke="#e2e8f0"/>
<text x="32" y="44" font-family="Inter, system-ui, sans-serif" font-size="28" font-weight="700" fill="#334155">unsorry — Proofs Over Time</text>
<text x="32" y="72" font-family="Inter, system-ui, sans-serif" font-size="13" fill="#64748b">4114 cumulative kernel-verified proofs · merged, hourly</text>
<line x1="52" y1="272.0" x2="872" y2="272.0" stroke="#f1f5f9"/>
<text x="44" y="276.0" text-anchor="end" font-family="Inter, system-ui, sans-serif" font-size="11" fill="#94a3b8">0</text>
<line x1="52" y1="226.5" x2="872" y2="226.5" stroke="#f1f5f9"/>
<text x="44" y="230.5" text-anchor="end" font-family="Inter, system-ui, sans-serif" font-size="11" fill="#94a3b8">1028</text>
<line x1="52" y1="181.0" x2="872" y2="181.0" stroke="#f1f5f9"/>
<text x="44" y="185.0" text-anchor="end" font-family="Inter, system-ui, sans-serif" font-size="11" fill="#94a3b8">2057</text>
<line x1="52" y1="135.5" x2="872" y2="135.5" stroke="#f1f5f9"/>
<text x="44" y="139.5" text-anchor="end" font-family="Inter, system-ui, sans-serif" font-size="11" fill="#94a3b8">3086</text>
<line x1="52" y1="90.0" x2="872" y2="90.0" stroke="#f1f5f9"/>
<text x="44" y="94.0" text-anchor="end" font-family="Inter, system-ui, sans-serif" font-size="11" fill="#94a3b8">4114</text>
<polygon points="52.0,272.0 52.0,272.0 54.3,271.9 81.4,271.4 83.6,271.3 85.9,271.2 92.7,271.2 106.2,271.2 135.6,271.1 137.8,270.7 140.1,270.7 146.9,270.6 149.1,270.5 151.4,270.5 153.7,270.4 158.2,270.3 160.4,270.1 167.2,269.9 176.2,269.8 178.5,269.7 180.8,269.6 198.8,269.6 203.3,269.5 214.6,269.5 216.9,269.4 219.2,269.3 228.2,269.3 230.5,269.0 232.7,268.8 235.0,268.2 237.2,268.2 253.0,268.1 259.8,268.1 264.3,268.0 266.6,268.0 268.9,267.8 271.1,267.7 273.4,267.7 275.6,267.5 277.9,267.4 286.9,267.2 291.4,267.1 300.5,267.1 302.7,266.9 305.0,266.8 307.3,266.7 311.8,266.7 314.0,265.8 316.3,264.9 318.6,264.6 320.8,264.4 323.1,264.3 325.3,264.1 327.6,263.8 329.9,263.6 332.1,263.4 334.4,263.3 338.9,263.2 341.1,262.8 343.4,262.5 345.7,262.1 347.9,261.9 352.4,261.8 357.0,261.8 359.2,261.5 361.5,261.2 363.7,260.6 366.0,260.3 368.3,259.9 370.5,259.6 372.8,259.2 375.0,258.8 377.3,258.3 379.5,257.8 381.8,257.4 384.1,257.0 386.3,256.7 388.6,256.4 390.8,256.1 393.1,255.9 395.4,255.7 397.6,255.5 399.9,255.4 402.1,255.3 406.7,255.2 408.9,254.3 411.2,253.7 413.4,253.6 415.7,253.6 420.2,253.5 422.5,253.3 431.5,253.3 436.0,253.2 442.8,253.2 445.1,252.1 447.3,251.2 449.6,250.9 451.8,250.1 454.1,249.5 456.4,249.1 458.6,248.9 460.9,248.5 463.1,248.3 465.4,248.2 467.6,248.0 469.9,247.9 483.5,247.2 485.7,246.3 488.0,246.2 490.2,246.1 492.5,246.0 508.3,246.0 528.6,245.1 530.9,244.4 533.2,243.5 535.4,242.3 537.7,242.1 539.9,241.7 542.2,240.9 544.5,240.4 546.7,239.2 549.0,237.4 551.2,235.7 553.5,233.7 555.7,231.6 558.0,229.7 560.3,228.6 562.5,227.2 564.8,225.2 567.0,223.4 569.3,222.3 571.6,221.1 573.8,219.4 576.1,218.3 578.3,217.3 580.6,216.3 582.9,215.6 585.1,214.7 587.4,214.1 589.6,213.5 591.9,213.0 594.1,211.4 596.4,210.1 598.7,209.4 600.9,209.2 603.2,208.8 605.4,208.1 607.7,207.5 610.0,206.5 612.2,205.8 614.5,205.2 616.7,205.1 619.0,204.8 621.3,204.4 623.5,203.1 625.8,201.0 628.0,198.8 630.3,196.7 632.6,194.9 634.8,192.8 637.1,190.6 639.3,188.3 641.6,186.3 643.8,184.8 646.1,183.6 648.4,182.2 650.6,180.9 652.9,180.0 655.1,178.9 657.4,178.1 659.7,177.0 661.9,175.4 664.2,173.6 666.4,172.0 668.7,170.6 671.0,169.8 673.2,169.0 675.5,168.2 677.7,167.3 680.0,165.8 682.2,164.5 684.5,163.0 686.8,161.4 689.0,160.0 691.3,159.0 693.5,158.5 695.8,157.9 698.1,157.3 700.3,157.2 702.6,157.1 704.8,156.8 707.1,156.7 709.4,156.6 711.6,156.4 713.9,156.3 720.7,156.3 722.9,156.2 725.2,156.0 727.4,154.1 729.7,152.6 731.9,151.2 734.2,149.7 736.5,148.3 738.7,146.9 741.0,145.5 743.2,144.1 745.5,142.7 747.8,141.4 750.0,140.0 752.3,138.7 754.5,137.4 756.8,136.1 759.1,134.8 761.3,133.7 763.6,132.4 765.8,131.2 768.1,129.9 770.3,128.8 772.6,127.6 774.9,126.8 777.1,126.0 779.4,125.2 781.6,124.1 783.9,123.0 786.2,122.1 788.4,120.9 790.7,119.9 792.9,118.9 795.2,117.9 797.5,116.8 799.7,115.8 802.0,114.8 804.2,113.7 806.5,112.8 808.7,111.7 811.0,110.9 813.3,110.0 815.5,109.0 817.8,108.1 820.0,107.3 822.3,106.5 824.6,105.9 826.8,105.5 829.1,105.4 831.3,104.4 833.6,103.6 835.9,102.7 838.1,101.8 840.4,101.0 842.6,100.1 844.9,99.3 847.2,98.4 849.4,97.7 851.7,96.9 853.9,96.1 856.2,95.4 858.4,94.5 860.7,93.8 863.0,93.0 865.2,92.2 867.5,91.5 869.7,90.8 872.0,90.0 872.0,272.0" fill="#e0f2fe" opacity="0.55"/>
<polyline points="52.0,272.0 54.3,271.9 81.4,271.4 83.6,271.3 85.9,271.2 92.7,271.2 106.2,271.2 135.6,271.1 137.8,270.7 140.1,270.7 146.9,270.6 149.1,270.5 151.4,270.5 153.7,270.4 158.2,270.3 160.4,270.1 167.2,269.9 176.2,269.8 178.5,269.7 180.8,269.6 198.8,269.6 203.3,269.5 214.6,269.5 216.9,269.4 219.2,269.3 228.2,269.3 230.5,269.0 232.7,268.8 235.0,268.2 237.2,268.2 253.0,268.1 259.8,268.1 264.3,268.0 266.6,268.0 268.9,267.8 271.1,267.7 273.4,267.7 275.6,267.5 277.9,267.4 286.9,267.2 291.4,267.1 300.5,267.1 302.7,266.9 305.0,266.8 307.3,266.7 311.8,266.7 314.0,265.8 316.3,264.9 318.6,264.6 320.8,264.4 323.1,264.3 325.3,264.1 327.6,263.8 329.9,263.6 332.1,263.4 334.4,263.3 338.9,263.2 341.1,262.8 343.4,262.5 345.7,262.1 347.9,261.9 352.4,261.8 357.0,261.8 359.2,261.5 361.5,261.2 363.7,260.6 366.0,260.3 368.3,259.9 370.5,259.6 372.8,259.2 375.0,258.8 377.3,258.3 379.5,257.8 381.8,257.4 384.1,257.0 386.3,256.7 388.6,256.4 390.8,256.1 393.1,255.9 395.4,255.7 397.6,255.5 399.9,255.4 402.1,255.3 406.7,255.2 408.9,254.3 411.2,253.7 413.4,253.6 415.7,253.6 420.2,253.5 422.5,253.3 431.5,253.3 436.0,253.2 442.8,253.2 445.1,252.1 447.3,251.2 449.6,250.9 451.8,250.1 454.1,249.5 456.4,249.1 458.6,248.9 460.9,248.5 463.1,248.3 465.4,248.2 467.6,248.0 469.9,247.9 483.5,247.2 485.7,246.3 488.0,246.2 490.2,246.1 492.5,246.0 508.3,246.0 528.6,245.1 530.9,244.4 533.2,243.5 535.4,242.3 537.7,242.1 539.9,241.7 542.2,240.9 544.5,240.4 546.7,239.2 549.0,237.4 551.2,235.7 553.5,233.7 555.7,231.6 558.0,229.7 560.3,228.6 562.5,227.2 564.8,225.2 567.0,223.4 569.3,222.3 571.6,221.1 573.8,219.4 576.1,218.3 578.3,217.3 580.6,216.3 582.9,215.6 585.1,214.7 587.4,214.1 589.6,213.5 591.9,213.0 594.1,211.4 596.4,210.1 598.7,209.4 600.9,209.2 603.2,208.8 605.4,208.1 607.7,207.5 610.0,206.5 612.2,205.8 614.5,205.2 616.7,205.1 619.0,204.8 621.3,204.4 623.5,203.1 625.8,201.0 628.0,198.8 630.3,196.7 632.6,194.9 634.8,192.8 637.1,190.6 639.3,188.3 641.6,186.3 643.8,184.8 646.1,183.6 648.4,182.2 650.6,180.9 652.9,180.0 655.1,178.9 657.4,178.1 659.7,177.0 661.9,175.4 664.2,173.6 666.4,172.0 668.7,170.6 671.0,169.8 673.2,169.0 675.5,168.2 677.7,167.3 680.0,165.8 682.2,164.5 684.5,163.0 686.8,161.4 689.0,160.0 691.3,159.0 693.5,158.5 695.8,157.9 698.1,157.3 700.3,157.2 702.6,157.1 704.8,156.8 707.1,156.7 709.4,156.6 711.6,156.4 713.9,156.3 720.7,156.3 722.9,156.2 725.2,156.0 727.4,154.1 729.7,152.6 731.9,151.2 734.2,149.7 736.5,148.3 738.7,146.9 741.0,145.5 743.2,144.1 745.5,142.7 747.8,141.4 750.0,140.0 752.3,138.7 754.5,137.4 756.8,136.1 759.1,134.8 761.3,133.7 763.6,132.4 765.8,131.2 768.1,129.9 770.3,128.8 772.6,127.6 774.9,126.8 777.1,126.0 779.4,125.2 781.6,124.1 783.9,123.0 786.2,122.1 788.4,120.9 790.7,119.9 792.9,118.9 795.2,117.9 797.5,116.8 799.7,115.8 802.0,114.8 804.2,113.7 806.5,112.8 808.7,111.7 811.0,110.9 813.3,110.0 815.5,109.0 817.8,108.1 820.0,107.3 822.3,106.5 824.6,105.9 826.8,105.5 829.1,105.4 831.3,104.4 833.6,103.6 835.9,102.7 838.1,101.8 840.4,101.0 842.6,100.1 844.9,99.3 847.2,98.4 849.4,97.7 851.7,96.9 853.9,96.1 856.2,95.4 858.4,94.5 860.7,93.8 863.0,93.0 865.2,92.2 867.5,91.5 869.7,90.8 872.0,90.0" fill="none" stroke="#38bdf8" stroke-width="2.5" stroke-linejoin="round" stroke-linecap="round"/>
<circle cx="872.0" cy="90.0" r="4" fill="#0ea5e9"/>
<text x="866.0" y="80.0" text-anchor="end" font-family="Inter, system-ui, sans-serif" font-size="13" font-weight="700" fill="#334155">4114</text>
<text x="52.0" y="294" text-anchor="middle" font-family="Inter, system-ui, sans-serif" font-size="11" fill="#94a3b8">Jun 10 05:00</text>
<text x="573.8" y="294" text-anchor="middle" font-family="Inter, system-ui, sans-serif" font-size="11" fill="#94a3b8">Jun 19 20:00</text>
<text x="872.0" y="294" text-anchor="middle" font-family="Inter, system-ui, sans-serif" font-size="11" fill="#94a3b8">Jun 25 08:00</text>
</svg>
