<svg xmlns="http://www.w3.org/2000/svg" width="900" height="320" viewBox="0 0 900 320" role="img" aria-labelledby="title desc">
<title id="title">unsorry proofs over time</title>
<desc id="desc">Cumulative kernel-verified proofs over time, by the hour each proof was merged.</desc>
<rect width="900" height="100%" rx="18" fill="#ffffff"/>
<rect x="0.5" y="0.5" width="899" height="319" rx="18" fill="none" stroke="#e2e8f0"/>
<text x="32" y="44" font-family="Inter, system-ui, sans-serif" font-size="28" font-weight="700" fill="#334155">unsorry — Proofs Over Time</text>
<text x="32" y="72" font-family="Inter, system-ui, sans-serif" font-size="13" fill="#64748b">3446 cumulative kernel-verified proofs · merged, hourly</text>
<line x1="52" y1="272.0" x2="872" y2="272.0" stroke="#f1f5f9"/>
<text x="44" y="276.0" text-anchor="end" font-family="Inter, system-ui, sans-serif" font-size="11" fill="#94a3b8">0</text>
<line x1="52" y1="226.5" x2="872" y2="226.5" stroke="#f1f5f9"/>
<text x="44" y="230.5" text-anchor="end" font-family="Inter, system-ui, sans-serif" font-size="11" fill="#94a3b8">862</text>
<line x1="52" y1="181.0" x2="872" y2="181.0" stroke="#f1f5f9"/>
<text x="44" y="185.0" text-anchor="end" font-family="Inter, system-ui, sans-serif" font-size="11" fill="#94a3b8">1723</text>
<line x1="52" y1="135.5" x2="872" y2="135.5" stroke="#f1f5f9"/>
<text x="44" y="139.5" text-anchor="end" font-family="Inter, system-ui, sans-serif" font-size="11" fill="#94a3b8">2584</text>
<line x1="52" y1="90.0" x2="872" y2="90.0" stroke="#f1f5f9"/>
<text x="44" y="94.0" text-anchor="end" font-family="Inter, system-ui, sans-serif" font-size="11" fill="#94a3b8">3446</text>
<polygon points="52.0,272.0 52.0,271.9 54.5,271.8 84.5,271.3 87.0,271.2 89.5,271.1 97.0,271.0 112.0,271.0 144.5,270.9 147.0,270.5 149.5,270.4 157.0,270.3 159.5,270.3 162.0,270.2 164.5,270.0 169.5,270.0 172.0,269.7 179.5,269.5 189.5,269.4 192.0,269.3 194.5,269.1 214.5,269.1 219.5,269.0 232.0,269.0 234.5,268.9 237.0,268.8 247.0,268.8 249.5,268.5 252.0,268.2 254.5,267.5 257.0,267.4 274.5,267.4 282.0,267.3 287.0,267.2 289.5,267.2 292.0,266.9 294.5,266.9 297.0,266.8 299.5,266.7 302.0,266.5 312.0,266.2 317.0,266.2 327.0,266.1 329.5,265.9 332.0,265.8 334.5,265.7 339.5,265.7 342.0,264.6 344.5,263.5 347.0,263.2 349.5,262.9 352.0,262.8 354.5,262.5 357.0,262.2 359.5,261.9 362.0,261.8 364.5,261.6 369.5,261.5 372.0,261.1 374.5,260.6 377.0,260.2 379.5,260.0 384.5,259.9 389.5,259.8 392.0,259.4 394.5,259.2 397.0,258.4 399.5,258.0 402.0,257.6 404.5,257.2 407.0,256.7 409.5,256.2 412.0,255.7 414.5,255.1 417.0,254.6 419.5,254.1 422.0,253.8 424.5,253.4 427.0,253.0 429.5,252.8 432.0,252.5 434.5,252.2 437.0,252.1 439.5,252.0 444.5,252.0 447.0,250.9 449.5,250.2 452.0,250.0 454.5,250.0 459.5,249.9 462.0,249.7 472.0,249.7 477.0,249.6 484.5,249.5 487.0,248.3 489.5,247.1 492.0,246.8 494.5,245.9 497.0,245.1 499.5,244.6 502.0,244.4 504.5,243.9 507.0,243.7 509.5,243.6 512.0,243.4 514.5,243.3 529.5,242.4 532.0,241.4 534.5,241.2 537.0,241.1 539.5,241.0 557.0,240.9 579.5,239.8 582.0,239.0 584.5,238.0 587.0,236.5 589.5,236.2 592.0,235.8 594.5,234.9 597.0,234.3 599.5,232.9 602.0,230.8 604.5,228.7 607.0,226.3 609.5,223.7 612.0,221.5 614.5,220.1 617.0,218.5 619.5,216.1 622.0,214.0 624.5,212.6 627.0,211.2 629.5,209.2 632.0,207.9 634.5,206.7 637.0,205.6 639.5,204.7 642.0,203.6 644.5,202.9 647.0,202.2 649.5,201.5 652.0,199.6 654.5,198.1 657.0,197.3 659.5,197.0 662.0,196.5 664.5,195.7 667.0,195.0 669.5,193.8 672.0,193.0 674.5,192.2 677.0,192.1 679.5,191.8 682.0,191.2 684.5,189.7 687.0,187.2 689.5,184.6 692.0,182.1 694.5,179.9 697.0,177.5 699.5,174.8 702.0,172.1 704.5,169.6 707.0,167.8 709.5,166.4 712.0,164.8 714.5,163.2 717.0,162.1 719.5,160.9 722.0,159.9 724.5,158.6 727.0,156.7 729.5,154.5 732.0,152.6 734.5,151.0 737.0,149.9 739.5,149.0 742.0,148.0 744.5,147.0 747.0,145.2 749.5,143.7 752.0,141.8 754.5,139.9 757.0,138.3 759.5,137.1 762.0,136.5 764.5,135.8 767.0,135.1 769.5,134.9 772.0,134.8 774.5,134.5 777.0,134.3 779.5,134.3 782.0,134.0 784.5,133.9 792.0,133.8 794.5,133.8 797.0,133.5 799.5,131.3 802.0,129.5 804.5,127.8 807.0,126.0 809.5,124.3 812.0,122.7 814.5,120.9 817.0,119.4 819.5,117.6 822.0,116.0 824.5,114.4 827.0,112.8 829.5,111.3 832.0,109.7 834.5,108.2 837.0,106.8 839.5,105.4 842.0,103.9 844.5,102.4 847.0,101.0 849.5,99.6 852.0,98.7 854.5,97.7 857.0,96.8 859.5,95.4 862.0,94.2 864.5,93.0 867.0,91.6 869.5,90.4 872.0,90.0 872.0,272.0" fill="#e0f2fe" opacity="0.55"/>
<polyline points="52.0,271.9 54.5,271.8 84.5,271.3 87.0,271.2 89.5,271.1 97.0,271.0 112.0,271.0 144.5,270.9 147.0,270.5 149.5,270.4 157.0,270.3 159.5,270.3 162.0,270.2 164.5,270.0 169.5,270.0 172.0,269.7 179.5,269.5 189.5,269.4 192.0,269.3 194.5,269.1 214.5,269.1 219.5,269.0 232.0,269.0 234.5,268.9 237.0,268.8 247.0,268.8 249.5,268.5 252.0,268.2 254.5,267.5 257.0,267.4 274.5,267.4 282.0,267.3 287.0,267.2 289.5,267.2 292.0,266.9 294.5,266.9 297.0,266.8 299.5,266.7 302.0,266.5 312.0,266.2 317.0,266.2 327.0,266.1 329.5,265.9 332.0,265.8 334.5,265.7 339.5,265.7 342.0,264.6 344.5,263.5 347.0,263.2 349.5,262.9 352.0,262.8 354.5,262.5 357.0,262.2 359.5,261.9 362.0,261.8 364.5,261.6 369.5,261.5 372.0,261.1 374.5,260.6 377.0,260.2 379.5,260.0 384.5,259.9 389.5,259.8 392.0,259.4 394.5,259.2 397.0,258.4 399.5,258.0 402.0,257.6 404.5,257.2 407.0,256.7 409.5,256.2 412.0,255.7 414.5,255.1 417.0,254.6 419.5,254.1 422.0,253.8 424.5,253.4 427.0,253.0 429.5,252.8 432.0,252.5 434.5,252.2 437.0,252.1 439.5,252.0 444.5,252.0 447.0,250.9 449.5,250.2 452.0,250.0 454.5,250.0 459.5,249.9 462.0,249.7 472.0,249.7 477.0,249.6 484.5,249.5 487.0,248.3 489.5,247.1 492.0,246.8 494.5,245.9 497.0,245.1 499.5,244.6 502.0,244.4 504.5,243.9 507.0,243.7 509.5,243.6 512.0,243.4 514.5,243.3 529.5,242.4 532.0,241.4 534.5,241.2 537.0,241.1 539.5,241.0 557.0,240.9 579.5,239.8 582.0,239.0 584.5,238.0 587.0,236.5 589.5,236.2 592.0,235.8 594.5,234.9 597.0,234.3 599.5,232.9 602.0,230.8 604.5,228.7 607.0,226.3 609.5,223.7 612.0,221.5 614.5,220.1 617.0,218.5 619.5,216.1 622.0,214.0 624.5,212.6 627.0,211.2 629.5,209.2 632.0,207.9 634.5,206.7 637.0,205.6 639.5,204.7 642.0,203.6 644.5,202.9 647.0,202.2 649.5,201.5 652.0,199.6 654.5,198.1 657.0,197.3 659.5,197.0 662.0,196.5 664.5,195.7 667.0,195.0 669.5,193.8 672.0,193.0 674.5,192.2 677.0,192.1 679.5,191.8 682.0,191.2 684.5,189.7 687.0,187.2 689.5,184.6 692.0,182.1 694.5,179.9 697.0,177.5 699.5,174.8 702.0,172.1 704.5,169.6 707.0,167.8 709.5,166.4 712.0,164.8 714.5,163.2 717.0,162.1 719.5,160.9 722.0,159.9 724.5,158.6 727.0,156.7 729.5,154.5 732.0,152.6 734.5,151.0 737.0,149.9 739.5,149.0 742.0,148.0 744.5,147.0 747.0,145.2 749.5,143.7 752.0,141.8 754.5,139.9 757.0,138.3 759.5,137.1 762.0,136.5 764.5,135.8 767.0,135.1 769.5,134.9 772.0,134.8 774.5,134.5 777.0,134.3 779.5,134.3 782.0,134.0 784.5,133.9 792.0,133.8 794.5,133.8 797.0,133.5 799.5,131.3 802.0,129.5 804.5,127.8 807.0,126.0 809.5,124.3 812.0,122.7 814.5,120.9 817.0,119.4 819.5,117.6 822.0,116.0 824.5,114.4 827.0,112.8 829.5,111.3 832.0,109.7 834.5,108.2 837.0,106.8 839.5,105.4 842.0,103.9 844.5,102.4 847.0,101.0 849.5,99.6 852.0,98.7 854.5,97.7 857.0,96.8 859.5,95.4 862.0,94.2 864.5,93.0 867.0,91.6 869.5,90.4 872.0,90.0" fill="none" stroke="#38bdf8" stroke-width="2.5" stroke-linejoin="round" stroke-linecap="round"/>
<circle cx="872.0" cy="90.0" r="4" fill="#0ea5e9"/>
<text x="866.0" y="80.0" text-anchor="end" font-family="Inter, system-ui, sans-serif" font-size="13" font-weight="700" fill="#334155">3446</text>
<text x="52.0" y="294" text-anchor="middle" font-family="Inter, system-ui, sans-serif" font-size="11" fill="#94a3b8">Jun 10 05:00</text>
<text x="584.5" y="294" text-anchor="middle" font-family="Inter, system-ui, sans-serif" font-size="11" fill="#94a3b8">Jun 19 02:00</text>
<text x="872.0" y="294" text-anchor="middle" font-family="Inter, system-ui, sans-serif" font-size="11" fill="#94a3b8">Jun 23 21:00</text>
</svg>
