<svg xmlns="http://www.w3.org/2000/svg" width="900" height="320" viewBox="0 0 900 320" role="img" aria-labelledby="title desc">
<title id="title">unsorry proofs over time</title>
<desc id="desc">Cumulative kernel-verified proofs over time, by the hour each proof was merged.</desc>
<rect width="900" height="100%" rx="18" fill="#ffffff"/>
<rect x="0.5" y="0.5" width="899" height="319" rx="18" fill="none" stroke="#e2e8f0"/>
<text x="32" y="44" font-family="Inter, system-ui, sans-serif" font-size="28" font-weight="700" fill="#334155">unsorry — Proofs Over Time</text>
<text x="32" y="72" font-family="Inter, system-ui, sans-serif" font-size="13" fill="#64748b">4579 cumulative kernel-verified proofs · merged, hourly</text>
<line x1="52" y1="272.0" x2="872" y2="272.0" stroke="#f1f5f9"/>
<text x="44" y="276.0" text-anchor="end" font-family="Inter, system-ui, sans-serif" font-size="11" fill="#94a3b8">0</text>
<line x1="52" y1="226.5" x2="872" y2="226.5" stroke="#f1f5f9"/>
<text x="44" y="230.5" text-anchor="end" font-family="Inter, system-ui, sans-serif" font-size="11" fill="#94a3b8">1145</text>
<line x1="52" y1="181.0" x2="872" y2="181.0" stroke="#f1f5f9"/>
<text x="44" y="185.0" text-anchor="end" font-family="Inter, system-ui, sans-serif" font-size="11" fill="#94a3b8">2290</text>
<line x1="52" y1="135.5" x2="872" y2="135.5" stroke="#f1f5f9"/>
<text x="44" y="139.5" text-anchor="end" font-family="Inter, system-ui, sans-serif" font-size="11" fill="#94a3b8">3434</text>
<line x1="52" y1="90.0" x2="872" y2="90.0" stroke="#f1f5f9"/>
<text x="44" y="94.0" text-anchor="end" font-family="Inter, system-ui, sans-serif" font-size="11" fill="#94a3b8">4579</text>
<polygon points="52.0,272.0 52.0,272.0 54.1,271.9 79.2,271.5 81.3,271.4 83.4,271.3 89.7,271.3 102.2,271.2 129.4,271.2 131.5,270.8 133.6,270.8 139.9,270.7 141.9,270.7 144.0,270.6 146.1,270.5 150.3,270.5 152.4,270.3 158.7,270.1 167.1,270.1 169.1,269.9 171.2,269.9 188.0,269.8 192.2,269.8 202.6,269.7 204.7,269.7 206.8,269.6 215.2,269.6 217.3,269.3 219.3,269.1 221.4,268.6 223.5,268.5 238.2,268.5 244.4,268.5 248.6,268.4 250.7,268.4 252.8,268.2 254.9,268.1 257.0,268.1 259.1,268.0 261.2,267.9 269.6,267.7 273.7,267.6 282.1,267.6 284.2,267.4 286.3,267.3 288.4,267.3 292.6,267.2 294.7,266.4 296.7,265.6 298.8,265.4 300.9,265.2 303.0,265.1 305.1,264.9 307.2,264.6 309.3,264.4 311.4,264.3 313.5,264.2 317.7,264.1 319.8,263.8 321.8,263.5 323.9,263.1 326.0,262.9 330.2,262.9 334.4,262.8 336.5,262.5 338.6,262.3 340.7,261.8 342.8,261.5 344.9,261.1 346.9,260.8 349.0,260.5 351.1,260.1 353.2,259.7 355.3,259.3 357.4,258.9 359.5,258.5 361.6,258.3 363.7,258.0 365.8,257.7 367.9,257.5 370.0,257.3 372.1,257.1 374.1,257.1 376.2,257.0 380.4,256.9 382.5,256.1 384.6,255.6 386.7,255.5 388.8,255.4 393.0,255.3 395.1,255.2 403.4,255.2 407.6,255.1 413.9,255.1 416.0,254.2 418.1,253.3 420.2,253.0 422.3,252.3 424.3,251.8 426.4,251.4 428.5,251.2 430.6,250.9 432.7,250.7 434.8,250.6 436.9,250.5 439.0,250.4 451.5,249.7 453.6,248.9 455.7,248.8 457.8,248.7 459.9,248.7 474.6,248.6 493.4,247.8 495.5,247.2 497.6,246.4 499.7,245.3 501.7,245.1 503.8,244.7 505.9,244.1 508.0,243.6 510.1,242.5 512.2,241.0 514.3,239.4 516.4,237.6 518.5,235.7 520.6,234.0 522.7,233.0 524.8,231.7 526.8,229.9 528.9,228.4 531.0,227.3 533.1,226.3 535.2,224.7 537.3,223.8 539.4,222.8 541.5,222.0 543.6,221.4 545.7,220.5 547.8,220.0 549.9,219.5 551.9,219.0 554.0,217.5 556.1,216.4 558.2,215.8 560.3,215.6 562.4,215.2 564.5,214.6 566.6,214.1 568.7,213.1 570.8,212.5 572.9,212.0 575.0,211.9 577.1,211.7 579.1,211.2 581.2,210.1 583.3,208.2 585.4,206.3 587.5,204.3 589.6,202.7 591.7,200.9 593.8,198.9 595.9,196.8 598.0,195.0 600.1,193.6 602.2,192.5 604.2,191.3 606.3,190.1 608.4,189.3 610.5,188.4 612.6,187.7 614.7,186.6 616.8,185.2 618.9,183.6 621.0,182.2 623.1,180.9 625.2,180.1 627.3,179.4 629.3,178.7 631.4,177.9 633.5,176.6 635.6,175.4 637.7,174.0 639.8,172.6 641.9,171.4 644.0,170.4 646.1,170.0 648.2,169.5 650.3,168.9 652.4,168.9 654.4,168.8 656.5,168.5 658.6,168.4 660.7,168.3 662.8,168.1 664.9,168.1 671.2,168.0 673.3,168.0 675.4,167.7 677.5,166.1 679.6,164.7 681.6,163.5 683.7,162.1 685.8,160.9 687.9,159.6 690.0,158.3 692.1,157.1 694.2,155.8 696.3,154.6 698.4,153.4 700.5,152.2 702.6,151.1 704.7,149.9 706.7,148.7 708.8,147.7 710.9,146.6 713.0,145.5 715.1,144.4 717.2,143.3 719.3,142.3 721.4,141.6 723.5,140.8 725.6,140.1 727.7,139.1 729.8,138.2 731.8,137.3 733.9,136.2 736.0,135.3 738.1,134.5 740.2,133.5 742.3,132.6 744.4,131.7 746.5,130.8 748.6,129.7 750.7,129.0 752.8,128.0 754.9,127.2 756.9,126.5 759.0,125.6 761.1,124.7 763.2,124.0 765.3,123.3 767.4,122.8 769.5,122.4 771.6,122.3 773.7,121.4 775.8,120.7 777.9,119.9 780.0,119.1 782.1,118.4 784.1,117.6 786.2,116.8 788.3,116.1 790.4,115.4 792.5,114.7 794.6,114.0 796.7,113.3 798.8,112.5 800.9,111.9 803.0,111.2 805.1,110.5 807.2,109.8 809.2,109.2 811.3,108.4 813.4,107.8 815.5,107.3 817.6,106.5 819.7,105.7 821.8,105.0 823.9,104.3 826.0,103.6 828.1,103.0 830.2,102.4 832.3,101.6 834.3,101.0 836.4,100.6 838.5,100.0 840.6,99.3 842.7,98.6 844.8,97.8 846.9,97.1 849.0,96.4 851.1,95.8 853.2,95.2 855.3,94.5 857.4,93.9 859.4,93.2 861.5,92.6 863.6,91.8 865.7,91.4 867.8,90.7 869.9,90.1 872.0,90.0 872.0,272.0" fill="#e0f2fe" opacity="0.55"/>
<polyline points="52.0,272.0 54.1,271.9 79.2,271.5 81.3,271.4 83.4,271.3 89.7,271.3 102.2,271.2 129.4,271.2 131.5,270.8 133.6,270.8 139.9,270.7 141.9,270.7 144.0,270.6 146.1,270.5 150.3,270.5 152.4,270.3 158.7,270.1 167.1,270.1 169.1,269.9 171.2,269.9 188.0,269.8 192.2,269.8 202.6,269.7 204.7,269.7 206.8,269.6 215.2,269.6 217.3,269.3 219.3,269.1 221.4,268.6 223.5,268.5 238.2,268.5 244.4,268.5 248.6,268.4 250.7,268.4 252.8,268.2 254.9,268.1 257.0,268.1 259.1,268.0 261.2,267.9 269.6,267.7 273.7,267.6 282.1,267.6 284.2,267.4 286.3,267.3 288.4,267.3 292.6,267.2 294.7,266.4 296.7,265.6 298.8,265.4 300.9,265.2 303.0,265.1 305.1,264.9 307.2,264.6 309.3,264.4 311.4,264.3 313.5,264.2 317.7,264.1 319.8,263.8 321.8,263.5 323.9,263.1 326.0,262.9 330.2,262.9 334.4,262.8 336.5,262.5 338.6,262.3 340.7,261.8 342.8,261.5 344.9,261.1 346.9,260.8 349.0,260.5 351.1,260.1 353.2,259.7 355.3,259.3 357.4,258.9 359.5,258.5 361.6,258.3 363.7,258.0 365.8,257.7 367.9,257.5 370.0,257.3 372.1,257.1 374.1,257.1 376.2,257.0 380.4,256.9 382.5,256.1 384.6,255.6 386.7,255.5 388.8,255.4 393.0,255.3 395.1,255.2 403.4,255.2 407.6,255.1 413.9,255.1 416.0,254.2 418.1,253.3 420.2,253.0 422.3,252.3 424.3,251.8 426.4,251.4 428.5,251.2 430.6,250.9 432.7,250.7 434.8,250.6 436.9,250.5 439.0,250.4 451.5,249.7 453.6,248.9 455.7,248.8 457.8,248.7 459.9,248.7 474.6,248.6 493.4,247.8 495.5,247.2 497.6,246.4 499.7,245.3 501.7,245.1 503.8,244.7 505.9,244.1 508.0,243.6 510.1,242.5 512.2,241.0 514.3,239.4 516.4,237.6 518.5,235.7 520.6,234.0 522.7,233.0 524.8,231.7 526.8,229.9 528.9,228.4 531.0,227.3 533.1,226.3 535.2,224.7 537.3,223.8 539.4,222.8 541.5,222.0 543.6,221.4 545.7,220.5 547.8,220.0 549.9,219.5 551.9,219.0 554.0,217.5 556.1,216.4 558.2,215.8 560.3,215.6 562.4,215.2 564.5,214.6 566.6,214.1 568.7,213.1 570.8,212.5 572.9,212.0 575.0,211.9 577.1,211.7 579.1,211.2 581.2,210.1 583.3,208.2 585.4,206.3 587.5,204.3 589.6,202.7 591.7,200.9 593.8,198.9 595.9,196.8 598.0,195.0 600.1,193.6 602.2,192.5 604.2,191.3 606.3,190.1 608.4,189.3 610.5,188.4 612.6,187.7 614.7,186.6 616.8,185.2 618.9,183.6 621.0,182.2 623.1,180.9 625.2,180.1 627.3,179.4 629.3,178.7 631.4,177.9 633.5,176.6 635.6,175.4 637.7,174.0 639.8,172.6 641.9,171.4 644.0,170.4 646.1,170.0 648.2,169.5 650.3,168.9 652.4,168.9 654.4,168.8 656.5,168.5 658.6,168.4 660.7,168.3 662.8,168.1 664.9,168.1 671.2,168.0 673.3,168.0 675.4,167.7 677.5,166.1 679.6,164.7 681.6,163.5 683.7,162.1 685.8,160.9 687.9,159.6 690.0,158.3 692.1,157.1 694.2,155.8 696.3,154.6 698.4,153.4 700.5,152.2 702.6,151.1 704.7,149.9 706.7,148.7 708.8,147.7 710.9,146.6 713.0,145.5 715.1,144.4 717.2,143.3 719.3,142.3 721.4,141.6 723.5,140.8 725.6,140.1 727.7,139.1 729.8,138.2 731.8,137.3 733.9,136.2 736.0,135.3 738.1,134.5 740.2,133.5 742.3,132.6 744.4,131.7 746.5,130.8 748.6,129.7 750.7,129.0 752.8,128.0 754.9,127.2 756.9,126.5 759.0,125.6 761.1,124.7 763.2,124.0 765.3,123.3 767.4,122.8 769.5,122.4 771.6,122.3 773.7,121.4 775.8,120.7 777.9,119.9 780.0,119.1 782.1,118.4 784.1,117.6 786.2,116.8 788.3,116.1 790.4,115.4 792.5,114.7 794.6,114.0 796.7,113.3 798.8,112.5 800.9,111.9 803.0,111.2 805.1,110.5 807.2,109.8 809.2,109.2 811.3,108.4 813.4,107.8 815.5,107.3 817.6,106.5 819.7,105.7 821.8,105.0 823.9,104.3 826.0,103.6 828.1,103.0 830.2,102.4 832.3,101.6 834.3,101.0 836.4,100.6 838.5,100.0 840.6,99.3 842.7,98.6 844.8,97.8 846.9,97.1 849.0,96.4 851.1,95.8 853.2,95.2 855.3,94.5 857.4,93.9 859.4,93.2 861.5,92.6 863.6,91.8 865.7,91.4 867.8,90.7 869.9,90.1 872.0,90.0" fill="none" stroke="#38bdf8" stroke-width="2.5" stroke-linejoin="round" stroke-linecap="round"/>
<circle cx="872.0" cy="90.0" r="4" fill="#0ea5e9"/>
<text x="866.0" y="80.0" text-anchor="end" font-family="Inter, system-ui, sans-serif" font-size="13" font-weight="700" fill="#334155">4579</text>
<text x="52.0" y="294" text-anchor="middle" font-family="Inter, system-ui, sans-serif" font-size="11" fill="#94a3b8">Jun 10 05:00</text>
<text x="564.5" y="294" text-anchor="middle" font-family="Inter, system-ui, sans-serif" font-size="11" fill="#94a3b8">Jun 20 10:00</text>
<text x="872.0" y="294" text-anchor="middle" font-family="Inter, system-ui, sans-serif" font-size="11" fill="#94a3b8">Jun 26 13:00</text>
</svg>
