<svg xmlns="http://www.w3.org/2000/svg" width="900" height="320" viewBox="0 0 900 320" role="img" aria-labelledby="title desc">
<title id="title">Unsorry proofs over time</title>
<desc id="desc">Cumulative kernel-verified proofs over time, by the hour each proof was merged.</desc>
<rect width="900" height="100%" rx="18" fill="#ffffff"/>
<rect x="0.5" y="0.5" width="899" height="319" rx="18" fill="none" stroke="#e2e8f0"/>
<text x="32" y="44" font-family="Inter, system-ui, sans-serif" font-size="28" font-weight="700" fill="#334155">Unsorry — Proofs Over Time</text>
<text x="32" y="72" font-family="Inter, system-ui, sans-serif" font-size="13" fill="#64748b">2461 cumulative kernel-verified proofs · merged, hourly</text>
<line x1="52" y1="272.0" x2="872" y2="272.0" stroke="#f1f5f9"/>
<text x="44" y="276.0" text-anchor="end" font-family="Inter, system-ui, sans-serif" font-size="11" fill="#94a3b8">0</text>
<line x1="52" y1="226.5" x2="872" y2="226.5" stroke="#f1f5f9"/>
<text x="44" y="230.5" text-anchor="end" font-family="Inter, system-ui, sans-serif" font-size="11" fill="#94a3b8">615</text>
<line x1="52" y1="181.0" x2="872" y2="181.0" stroke="#f1f5f9"/>
<text x="44" y="185.0" text-anchor="end" font-family="Inter, system-ui, sans-serif" font-size="11" fill="#94a3b8">1230</text>
<line x1="52" y1="135.5" x2="872" y2="135.5" stroke="#f1f5f9"/>
<text x="44" y="139.5" text-anchor="end" font-family="Inter, system-ui, sans-serif" font-size="11" fill="#94a3b8">1846</text>
<line x1="52" y1="90.0" x2="872" y2="90.0" stroke="#f1f5f9"/>
<text x="44" y="94.0" text-anchor="end" font-family="Inter, system-ui, sans-serif" font-size="11" fill="#94a3b8">2461</text>
<polygon points="52.0,272.0 52.0,271.9 54.9,271.8 90.1,271.0 93.0,270.8 95.9,270.7 104.7,270.7 122.3,270.6 160.4,270.5 163.3,269.9 166.2,269.8 175.0,269.6 177.9,269.6 180.9,269.5 183.8,269.3 189.6,269.2 192.6,268.8 201.4,268.5 213.1,268.4 216.0,268.2 218.9,268.0 242.4,267.9 248.2,267.9 262.9,267.8 265.8,267.7 268.7,267.6 280.4,267.5 283.4,267.0 286.3,266.7 289.2,265.7 292.1,265.6 312.6,265.5 321.4,265.4 327.3,265.3 330.2,265.3 333.1,264.9 336.1,264.8 339.0,264.8 341.9,264.5 344.9,264.3 356.6,263.9 362.4,263.9 374.1,263.8 377.1,263.4 380.0,263.3 382.9,263.2 388.8,263.1 391.7,261.6 394.6,260.2 397.6,259.6 400.5,259.3 403.4,259.1 406.4,258.8 409.3,258.2 412.2,257.9 415.1,257.7 418.1,257.5 423.9,257.3 426.9,256.7 429.8,256.1 432.7,255.5 435.6,255.1 441.5,255.0 447.4,254.9 450.3,254.4 453.2,254.0 456.1,253.0 459.1,252.4 462.0,251.8 464.9,251.2 467.9,250.6 470.8,249.9 473.7,249.1 476.6,248.3 479.6,247.6 482.5,246.9 485.4,246.5 488.4,246.0 491.3,245.4 494.2,245.1 497.1,244.7 500.1,244.3 503.0,244.2 505.9,244.0 511.8,244.0 514.7,242.5 517.6,241.5 520.6,241.2 523.5,241.2 529.4,241.0 532.3,240.8 544.0,240.7 549.9,240.6 558.6,240.5 561.6,238.8 564.5,237.2 567.4,236.7 570.4,235.4 573.3,234.4 576.2,233.7 579.1,233.3 582.1,232.7 585.0,232.4 587.9,232.2 590.9,231.9 593.8,231.8 611.4,230.6 614.3,229.1 617.2,228.9 620.1,228.7 623.1,228.6 643.6,228.5 669.9,227.0 672.9,225.8 675.8,224.4 678.7,222.3 681.6,221.9 684.6,221.3 687.5,220.1 690.4,219.2 693.4,217.2 696.3,214.2 699.2,211.4 702.1,208.0 705.1,204.4 708.0,201.3 710.9,199.4 713.9,197.1 716.8,193.7 719.7,190.8 722.6,188.9 725.6,186.9 728.5,184.1 731.4,182.3 734.4,180.5 737.3,179.0 740.2,177.8 743.1,176.2 746.1,175.3 749.0,174.2 751.9,173.3 754.9,170.7 757.8,168.5 760.7,167.4 763.6,167.0 766.6,166.3 769.5,165.2 772.4,164.2 775.4,162.5 778.3,161.4 781.2,160.3 784.1,160.2 787.1,159.7 790.0,158.9 792.9,156.8 795.9,153.3 798.8,149.7 801.7,146.1 804.6,143.1 807.6,139.6 810.5,135.9 813.4,132.2 816.4,128.7 819.3,126.2 822.2,124.2 825.1,121.9 828.1,119.7 831.0,118.2 833.9,116.4 836.9,115.1 839.8,113.1 842.7,110.6 845.6,107.5 848.6,104.9 851.5,102.6 854.4,101.1 857.4,99.8 860.3,98.4 863.2,97.0 866.1,94.4 869.1,92.3 872.0,90.0 872.0,272.0" fill="#e0f2fe" opacity="0.55"/>
<polyline points="52.0,271.9 54.9,271.8 90.1,271.0 93.0,270.8 95.9,270.7 104.7,270.7 122.3,270.6 160.4,270.5 163.3,269.9 166.2,269.8 175.0,269.6 177.9,269.6 180.9,269.5 183.8,269.3 189.6,269.2 192.6,268.8 201.4,268.5 213.1,268.4 216.0,268.2 218.9,268.0 242.4,267.9 248.2,267.9 262.9,267.8 265.8,267.7 268.7,267.6 280.4,267.5 283.4,267.0 286.3,266.7 289.2,265.7 292.1,265.6 312.6,265.5 321.4,265.4 327.3,265.3 330.2,265.3 333.1,264.9 336.1,264.8 339.0,264.8 341.9,264.5 344.9,264.3 356.6,263.9 362.4,263.9 374.1,263.8 377.1,263.4 380.0,263.3 382.9,263.2 388.8,263.1 391.7,261.6 394.6,260.2 397.6,259.6 400.5,259.3 403.4,259.1 406.4,258.8 409.3,258.2 412.2,257.9 415.1,257.7 418.1,257.5 423.9,257.3 426.9,256.7 429.8,256.1 432.7,255.5 435.6,255.1 441.5,255.0 447.4,254.9 450.3,254.4 453.2,254.0 456.1,253.0 459.1,252.4 462.0,251.8 464.9,251.2 467.9,250.6 470.8,249.9 473.7,249.1 476.6,248.3 479.6,247.6 482.5,246.9 485.4,246.5 488.4,246.0 491.3,245.4 494.2,245.1 497.1,244.7 500.1,244.3 503.0,244.2 505.9,244.0 511.8,244.0 514.7,242.5 517.6,241.5 520.6,241.2 523.5,241.2 529.4,241.0 532.3,240.8 544.0,240.7 549.9,240.6 558.6,240.5 561.6,238.8 564.5,237.2 567.4,236.7 570.4,235.4 573.3,234.4 576.2,233.7 579.1,233.3 582.1,232.7 585.0,232.4 587.9,232.2 590.9,231.9 593.8,231.8 611.4,230.6 614.3,229.1 617.2,228.9 620.1,228.7 623.1,228.6 643.6,228.5 669.9,227.0 672.9,225.8 675.8,224.4 678.7,222.3 681.6,221.9 684.6,221.3 687.5,220.1 690.4,219.2 693.4,217.2 696.3,214.2 699.2,211.4 702.1,208.0 705.1,204.4 708.0,201.3 710.9,199.4 713.9,197.1 716.8,193.7 719.7,190.8 722.6,188.9 725.6,186.9 728.5,184.1 731.4,182.3 734.4,180.5 737.3,179.0 740.2,177.8 743.1,176.2 746.1,175.3 749.0,174.2 751.9,173.3 754.9,170.7 757.8,168.5 760.7,167.4 763.6,167.0 766.6,166.3 769.5,165.2 772.4,164.2 775.4,162.5 778.3,161.4 781.2,160.3 784.1,160.2 787.1,159.7 790.0,158.9 792.9,156.8 795.9,153.3 798.8,149.7 801.7,146.1 804.6,143.1 807.6,139.6 810.5,135.9 813.4,132.2 816.4,128.7 819.3,126.2 822.2,124.2 825.1,121.9 828.1,119.7 831.0,118.2 833.9,116.4 836.9,115.1 839.8,113.1 842.7,110.6 845.6,107.5 848.6,104.9 851.5,102.6 854.4,101.1 857.4,99.8 860.3,98.4 863.2,97.0 866.1,94.4 869.1,92.3 872.0,90.0" fill="none" stroke="#38bdf8" stroke-width="2.5" stroke-linejoin="round" stroke-linecap="round"/>
<circle cx="872.0" cy="90.0" r="4" fill="#0ea5e9"/>
<text x="866.0" y="80.0" text-anchor="end" font-family="Inter, system-ui, sans-serif" font-size="13" font-weight="700" fill="#334155">2461</text>
<text x="52.0" y="294" text-anchor="middle" font-family="Inter, system-ui, sans-serif" font-size="11" fill="#94a3b8">Jun 10 05:00</text>
<text x="544.0" y="294" text-anchor="middle" font-family="Inter, system-ui, sans-serif" font-size="11" fill="#94a3b8">Jun 17 05:00</text>
<text x="872.0" y="294" text-anchor="middle" font-family="Inter, system-ui, sans-serif" font-size="11" fill="#94a3b8">Jun 21 21:00</text>
</svg>
