<svg xmlns="http://www.w3.org/2000/svg" width="900" height="320" viewBox="0 0 900 320" role="img" aria-labelledby="title desc">
<title id="title">unsorry proofs over time</title>
<desc id="desc">Cumulative kernel-verified proofs over time, by the hour each proof was merged.</desc>
<rect width="900" height="100%" rx="18" fill="#ffffff"/>
<rect x="0.5" y="0.5" width="899" height="319" rx="18" fill="none" stroke="#e2e8f0"/>
<text x="32" y="44" font-family="Inter, system-ui, sans-serif" font-size="28" font-weight="700" fill="#334155">unsorry — Proofs Over Time</text>
<text x="32" y="72" font-family="Inter, system-ui, sans-serif" font-size="13" fill="#64748b">3433 cumulative kernel-verified proofs · merged, hourly</text>
<line x1="52" y1="272.0" x2="872" y2="272.0" stroke="#f1f5f9"/>
<text x="44" y="276.0" text-anchor="end" font-family="Inter, system-ui, sans-serif" font-size="11" fill="#94a3b8">0</text>
<line x1="52" y1="226.5" x2="872" y2="226.5" stroke="#f1f5f9"/>
<text x="44" y="230.5" text-anchor="end" font-family="Inter, system-ui, sans-serif" font-size="11" fill="#94a3b8">858</text>
<line x1="52" y1="181.0" x2="872" y2="181.0" stroke="#f1f5f9"/>
<text x="44" y="185.0" text-anchor="end" font-family="Inter, system-ui, sans-serif" font-size="11" fill="#94a3b8">1716</text>
<line x1="52" y1="135.5" x2="872" y2="135.5" stroke="#f1f5f9"/>
<text x="44" y="139.5" text-anchor="end" font-family="Inter, system-ui, sans-serif" font-size="11" fill="#94a3b8">2575</text>
<line x1="52" y1="90.0" x2="872" y2="90.0" stroke="#f1f5f9"/>
<text x="44" y="94.0" text-anchor="end" font-family="Inter, system-ui, sans-serif" font-size="11" fill="#94a3b8">3433</text>
<polygon points="52.0,272.0 52.0,271.9 54.5,271.8 84.6,271.3 87.1,271.2 89.6,271.1 97.1,271.0 112.2,271.0 144.8,270.9 147.3,270.5 149.8,270.4 157.3,270.3 159.8,270.3 162.3,270.2 164.8,270.0 169.9,270.0 172.4,269.7 179.9,269.5 189.9,269.4 192.4,269.2 194.9,269.1 215.0,269.1 220.0,269.0 232.6,269.0 235.1,268.9 237.6,268.8 247.6,268.8 250.1,268.4 252.6,268.2 255.1,267.5 257.6,267.4 275.2,267.3 282.7,267.3 287.7,267.2 290.2,267.2 292.7,266.9 295.2,266.9 297.7,266.8 300.3,266.6 302.8,266.5 312.8,266.2 317.8,266.2 327.8,266.1 330.3,265.9 332.9,265.8 335.4,265.7 340.4,265.6 342.9,264.6 345.4,263.5 347.9,263.1 350.4,262.9 352.9,262.8 355.4,262.5 357.9,262.1 360.4,261.9 362.9,261.7 365.5,261.6 370.5,261.5 373.0,261.0 375.5,260.6 378.0,260.2 380.5,259.9 385.5,259.8 390.5,259.8 393.0,259.4 395.5,259.1 398.1,258.4 400.6,258.0 403.1,257.5 405.6,257.1 408.1,256.6 410.6,256.1 413.1,255.6 415.6,255.0 418.1,254.5 420.6,254.0 423.1,253.7 425.6,253.3 428.1,252.9 430.7,252.7 433.2,252.4 435.7,252.2 438.2,252.1 440.7,252.0 445.7,251.9 448.2,250.8 450.7,250.1 453.2,249.9 455.7,249.9 460.7,249.8 463.3,249.6 473.3,249.6 478.3,249.5 485.8,249.4 488.3,248.2 490.8,247.0 493.3,246.7 495.9,245.8 498.4,245.0 500.9,244.5 503.4,244.3 505.9,243.8 508.4,243.6 510.9,243.5 513.4,243.3 515.9,243.2 531.0,242.3 533.5,241.3 536.0,241.1 538.5,240.9 541.0,240.9 558.5,240.8 581.1,239.7 583.6,238.9 586.1,237.9 588.6,236.4 591.1,236.1 593.7,235.6 596.2,234.8 598.7,234.1 601.2,232.7 603.7,230.6 606.2,228.5 608.7,226.1 611.2,223.5 613.7,221.3 616.2,219.9 618.7,218.3 621.2,215.9 623.7,213.8 626.3,212.4 628.8,211.0 631.3,209.0 633.8,207.7 636.3,206.4 638.8,205.3 641.3,204.5 643.8,203.3 646.3,202.7 648.8,201.9 651.3,201.3 653.8,199.4 656.3,197.8 658.9,197.0 661.4,196.7 663.9,196.2 666.4,195.4 668.9,194.8 671.4,193.5 673.9,192.7 676.4,191.9 678.9,191.8 681.4,191.5 683.9,190.9 686.4,189.4 688.9,186.9 691.4,184.3 694.0,181.7 696.5,179.6 699.0,177.1 701.5,174.5 704.0,171.7 706.5,169.3 709.0,167.5 711.5,166.0 714.0,164.4 716.5,162.8 719.0,161.7 721.5,160.5 724.0,159.5 726.6,158.1 729.1,156.3 731.6,154.0 734.1,152.2 736.6,150.5 739.1,149.5 741.6,148.5 744.1,147.6 746.6,146.5 749.1,144.7 751.6,143.2 754.1,141.3 756.6,139.4 759.2,137.8 761.7,136.5 764.2,136.0 766.7,135.3 769.2,134.5 771.7,134.4 774.2,134.3 776.7,133.9 779.2,133.8 781.7,133.7 784.2,133.5 786.7,133.4 794.3,133.3 796.8,133.3 799.3,132.9 801.8,130.8 804.3,128.9 806.8,127.3 809.3,125.4 811.8,123.8 814.3,122.1 816.8,120.4 819.3,118.8 821.8,117.0 824.4,115.4 826.9,113.8 829.4,112.2 831.9,110.7 834.4,109.1 836.9,107.5 839.4,106.2 841.9,104.7 844.4,103.3 846.9,101.8 849.4,100.4 851.9,99.0 854.4,98.0 857.0,97.1 859.5,96.1 862.0,94.7 864.5,93.5 867.0,92.3 869.5,90.9 872.0,90.0 872.0,272.0" fill="#e0f2fe" opacity="0.55"/>
<polyline points="52.0,271.9 54.5,271.8 84.6,271.3 87.1,271.2 89.6,271.1 97.1,271.0 112.2,271.0 144.8,270.9 147.3,270.5 149.8,270.4 157.3,270.3 159.8,270.3 162.3,270.2 164.8,270.0 169.9,270.0 172.4,269.7 179.9,269.5 189.9,269.4 192.4,269.2 194.9,269.1 215.0,269.1 220.0,269.0 232.6,269.0 235.1,268.9 237.6,268.8 247.6,268.8 250.1,268.4 252.6,268.2 255.1,267.5 257.6,267.4 275.2,267.3 282.7,267.3 287.7,267.2 290.2,267.2 292.7,266.9 295.2,266.9 297.7,266.8 300.3,266.6 302.8,266.5 312.8,266.2 317.8,266.2 327.8,266.1 330.3,265.9 332.9,265.8 335.4,265.7 340.4,265.6 342.9,264.6 345.4,263.5 347.9,263.1 350.4,262.9 352.9,262.8 355.4,262.5 357.9,262.1 360.4,261.9 362.9,261.7 365.5,261.6 370.5,261.5 373.0,261.0 375.5,260.6 378.0,260.2 380.5,259.9 385.5,259.8 390.5,259.8 393.0,259.4 395.5,259.1 398.1,258.4 400.6,258.0 403.1,257.5 405.6,257.1 408.1,256.6 410.6,256.1 413.1,255.6 415.6,255.0 418.1,254.5 420.6,254.0 423.1,253.7 425.6,253.3 428.1,252.9 430.7,252.7 433.2,252.4 435.7,252.2 438.2,252.1 440.7,252.0 445.7,251.9 448.2,250.8 450.7,250.1 453.2,249.9 455.7,249.9 460.7,249.8 463.3,249.6 473.3,249.6 478.3,249.5 485.8,249.4 488.3,248.2 490.8,247.0 493.3,246.7 495.9,245.8 498.4,245.0 500.9,244.5 503.4,244.3 505.9,243.8 508.4,243.6 510.9,243.5 513.4,243.3 515.9,243.2 531.0,242.3 533.5,241.3 536.0,241.1 538.5,240.9 541.0,240.9 558.5,240.8 581.1,239.7 583.6,238.9 586.1,237.9 588.6,236.4 591.1,236.1 593.7,235.6 596.2,234.8 598.7,234.1 601.2,232.7 603.7,230.6 606.2,228.5 608.7,226.1 611.2,223.5 613.7,221.3 616.2,219.9 618.7,218.3 621.2,215.9 623.7,213.8 626.3,212.4 628.8,211.0 631.3,209.0 633.8,207.7 636.3,206.4 638.8,205.3 641.3,204.5 643.8,203.3 646.3,202.7 648.8,201.9 651.3,201.3 653.8,199.4 656.3,197.8 658.9,197.0 661.4,196.7 663.9,196.2 666.4,195.4 668.9,194.8 671.4,193.5 673.9,192.7 676.4,191.9 678.9,191.8 681.4,191.5 683.9,190.9 686.4,189.4 688.9,186.9 691.4,184.3 694.0,181.7 696.5,179.6 699.0,177.1 701.5,174.5 704.0,171.7 706.5,169.3 709.0,167.5 711.5,166.0 714.0,164.4 716.5,162.8 719.0,161.7 721.5,160.5 724.0,159.5 726.6,158.1 729.1,156.3 731.6,154.0 734.1,152.2 736.6,150.5 739.1,149.5 741.6,148.5 744.1,147.6 746.6,146.5 749.1,144.7 751.6,143.2 754.1,141.3 756.6,139.4 759.2,137.8 761.7,136.5 764.2,136.0 766.7,135.3 769.2,134.5 771.7,134.4 774.2,134.3 776.7,133.9 779.2,133.8 781.7,133.7 784.2,133.5 786.7,133.4 794.3,133.3 796.8,133.3 799.3,132.9 801.8,130.8 804.3,128.9 806.8,127.3 809.3,125.4 811.8,123.8 814.3,122.1 816.8,120.4 819.3,118.8 821.8,117.0 824.4,115.4 826.9,113.8 829.4,112.2 831.9,110.7 834.4,109.1 836.9,107.5 839.4,106.2 841.9,104.7 844.4,103.3 846.9,101.8 849.4,100.4 851.9,99.0 854.4,98.0 857.0,97.1 859.5,96.1 862.0,94.7 864.5,93.5 867.0,92.3 869.5,90.9 872.0,90.0" fill="none" stroke="#38bdf8" stroke-width="2.5" stroke-linejoin="round" stroke-linecap="round"/>
<circle cx="872.0" cy="90.0" r="4" fill="#0ea5e9"/>
<text x="866.0" y="80.0" text-anchor="end" font-family="Inter, system-ui, sans-serif" font-size="13" font-weight="700" fill="#334155">3433</text>
<text x="52.0" y="294" text-anchor="middle" font-family="Inter, system-ui, sans-serif" font-size="11" fill="#94a3b8">Jun 10 05:00</text>
<text x="586.1" y="294" text-anchor="middle" font-family="Inter, system-ui, sans-serif" font-size="11" fill="#94a3b8">Jun 19 02:00</text>
<text x="872.0" y="294" text-anchor="middle" font-family="Inter, system-ui, sans-serif" font-size="11" fill="#94a3b8">Jun 23 20:00</text>
</svg>
