<svg xmlns="http://www.w3.org/2000/svg" width="900" height="320" viewBox="0 0 900 320" role="img" aria-labelledby="title desc">
<title id="title">unsorry proofs over time</title>
<desc id="desc">Cumulative kernel-verified proofs over time, by the hour each proof was merged.</desc>
<rect width="900" height="100%" rx="18" fill="#ffffff"/>
<rect x="0.5" y="0.5" width="899" height="319" rx="18" fill="none" stroke="#e2e8f0"/>
<text x="32" y="44" font-family="Inter, system-ui, sans-serif" font-size="28" font-weight="700" fill="#334155">unsorry — Proofs Over Time</text>
<text x="32" y="72" font-family="Inter, system-ui, sans-serif" font-size="13" fill="#64748b">4311 cumulative kernel-verified proofs · merged, hourly</text>
<line x1="52" y1="272.0" x2="872" y2="272.0" stroke="#f1f5f9"/>
<text x="44" y="276.0" text-anchor="end" font-family="Inter, system-ui, sans-serif" font-size="11" fill="#94a3b8">0</text>
<line x1="52" y1="226.5" x2="872" y2="226.5" stroke="#f1f5f9"/>
<text x="44" y="230.5" text-anchor="end" font-family="Inter, system-ui, sans-serif" font-size="11" fill="#94a3b8">1078</text>
<line x1="52" y1="181.0" x2="872" y2="181.0" stroke="#f1f5f9"/>
<text x="44" y="185.0" text-anchor="end" font-family="Inter, system-ui, sans-serif" font-size="11" fill="#94a3b8">2156</text>
<line x1="52" y1="135.5" x2="872" y2="135.5" stroke="#f1f5f9"/>
<text x="44" y="139.5" text-anchor="end" font-family="Inter, system-ui, sans-serif" font-size="11" fill="#94a3b8">3233</text>
<line x1="52" y1="90.0" x2="872" y2="90.0" stroke="#f1f5f9"/>
<text x="44" y="94.0" text-anchor="end" font-family="Inter, system-ui, sans-serif" font-size="11" fill="#94a3b8">4311</text>
<polygon points="52.0,272.0 52.0,272.0 54.2,271.9 80.4,271.5 82.6,271.3 84.8,271.3 91.4,271.2 104.5,271.2 132.9,271.2 135.1,270.8 137.3,270.7 143.8,270.6 146.0,270.6 148.2,270.6 150.4,270.4 154.8,270.4 157.0,270.2 163.5,270.0 172.3,269.9 174.5,269.8 176.6,269.7 194.1,269.7 198.5,269.6 209.4,269.6 211.6,269.6 213.8,269.5 222.6,269.4 224.7,269.2 226.9,269.0 229.1,268.4 231.3,268.3 246.6,268.3 253.2,268.2 257.5,268.2 259.7,268.2 261.9,267.9 264.1,267.9 266.3,267.9 268.5,267.7 270.7,267.6 279.4,267.4 283.8,267.4 292.5,267.3 294.7,267.1 296.9,267.1 299.1,267.0 303.5,266.9 305.7,266.1 307.8,265.2 310.0,264.9 312.2,264.7 314.4,264.7 316.6,264.4 318.8,264.1 321.0,263.9 323.1,263.8 325.3,263.7 329.7,263.6 331.9,263.3 334.1,262.9 336.3,262.6 338.5,262.4 342.8,262.3 347.2,262.2 349.4,262.0 351.6,261.7 353.8,261.2 355.9,260.8 358.1,260.5 360.3,260.1 362.5,259.8 364.7,259.4 366.9,259.0 369.1,258.5 371.3,258.1 373.4,257.7 375.6,257.4 377.8,257.1 380.0,256.8 382.2,256.6 384.4,256.4 386.6,256.2 388.7,256.1 390.9,256.0 395.3,256.0 397.5,255.2 399.7,254.6 401.9,254.4 404.1,254.4 408.4,254.3 410.6,254.2 419.4,254.1 423.7,254.1 430.3,254.0 432.5,253.0 434.7,252.1 436.9,251.9 439.0,251.1 441.2,250.5 443.4,250.1 445.6,249.9 447.8,249.5 450.0,249.4 452.2,249.3 454.3,249.1 456.5,249.0 469.7,248.4 471.8,247.5 474.0,247.4 476.2,247.3 478.4,247.2 493.7,247.2 513.4,246.3 515.6,245.6 517.8,244.8 519.9,243.6 522.1,243.4 524.3,243.0 526.5,242.4 528.7,241.9 530.9,240.7 533.1,239.0 535.3,237.4 537.4,235.4 539.6,233.4 541.8,231.6 544.0,230.5 546.2,229.2 548.4,227.3 550.6,225.6 552.7,224.5 554.9,223.4 557.1,221.8 559.3,220.8 561.5,219.8 563.7,218.9 565.9,218.2 568.1,217.3 570.2,216.8 572.4,216.2 574.6,215.7 576.8,214.2 579.0,212.9 581.2,212.3 583.4,212.1 585.5,211.7 587.7,211.0 589.9,210.5 592.1,209.5 594.3,208.8 596.5,208.3 598.7,208.2 600.9,207.9 603.0,207.4 605.2,206.2 607.4,204.2 609.6,202.2 611.8,200.1 614.0,198.4 616.2,196.4 618.3,194.3 620.5,192.2 622.7,190.2 624.9,188.7 627.1,187.6 629.3,186.3 631.5,185.0 633.7,184.2 635.8,183.2 638.0,182.4 640.2,181.3 642.4,179.8 644.6,178.1 646.8,176.6 649.0,175.3 651.1,174.4 653.3,173.7 655.5,172.9 657.7,172.1 659.9,170.6 662.1,169.4 664.3,167.9 666.5,166.4 668.6,165.1 670.8,164.1 673.0,163.7 675.2,163.1 677.4,162.5 679.6,162.4 681.8,162.4 683.9,162.1 686.1,161.9 688.3,161.9 690.5,161.7 692.7,161.6 699.3,161.6 701.4,161.5 703.6,161.3 705.8,159.5 708.0,158.1 710.2,156.7 712.4,155.3 714.6,154.0 716.7,152.7 718.9,151.3 721.1,150.0 723.3,148.6 725.5,147.3 727.7,146.0 729.9,144.8 732.1,143.5 734.2,142.3 736.4,141.0 738.6,140.0 740.8,138.8 743.0,137.6 745.2,136.4 747.4,135.3 749.5,134.2 751.7,133.4 753.9,132.7 756.1,131.9 758.3,130.8 760.5,129.9 762.7,128.9 764.9,127.8 767.0,126.8 769.2,125.9 771.4,124.9 773.6,123.9 775.8,122.9 778.0,122.0 780.2,120.9 782.3,120.1 784.5,119.0 786.7,118.2 788.9,117.4 791.1,116.5 793.3,115.6 795.5,114.8 797.7,114.1 799.8,113.5 802.0,113.1 804.2,113.0 806.4,112.1 808.6,111.3 810.8,110.4 813.0,109.5 815.1,108.8 817.3,108.0 819.5,107.2 821.7,106.4 823.9,105.6 826.1,104.9 828.3,104.2 830.5,103.5 832.6,102.6 834.8,101.9 837.0,101.2 839.2,100.4 841.4,99.7 843.6,99.1 845.8,98.2 847.9,97.6 850.1,97.1 852.3,96.2 854.5,95.3 856.7,94.6 858.9,93.8 861.1,93.1 863.3,92.5 865.4,91.8 867.6,91.0 869.8,90.4 872.0,90.0 872.0,272.0" fill="#e0f2fe" opacity="0.55"/>
<polyline points="52.0,272.0 54.2,271.9 80.4,271.5 82.6,271.3 84.8,271.3 91.4,271.2 104.5,271.2 132.9,271.2 135.1,270.8 137.3,270.7 143.8,270.6 146.0,270.6 148.2,270.6 150.4,270.4 154.8,270.4 157.0,270.2 163.5,270.0 172.3,269.9 174.5,269.8 176.6,269.7 194.1,269.7 198.5,269.6 209.4,269.6 211.6,269.6 213.8,269.5 222.6,269.4 224.7,269.2 226.9,269.0 229.1,268.4 231.3,268.3 246.6,268.3 253.2,268.2 257.5,268.2 259.7,268.2 261.9,267.9 264.1,267.9 266.3,267.9 268.5,267.7 270.7,267.6 279.4,267.4 283.8,267.4 292.5,267.3 294.7,267.1 296.9,267.1 299.1,267.0 303.5,266.9 305.7,266.1 307.8,265.2 310.0,264.9 312.2,264.7 314.4,264.7 316.6,264.4 318.8,264.1 321.0,263.9 323.1,263.8 325.3,263.7 329.7,263.6 331.9,263.3 334.1,262.9 336.3,262.6 338.5,262.4 342.8,262.3 347.2,262.2 349.4,262.0 351.6,261.7 353.8,261.2 355.9,260.8 358.1,260.5 360.3,260.1 362.5,259.8 364.7,259.4 366.9,259.0 369.1,258.5 371.3,258.1 373.4,257.7 375.6,257.4 377.8,257.1 380.0,256.8 382.2,256.6 384.4,256.4 386.6,256.2 388.7,256.1 390.9,256.0 395.3,256.0 397.5,255.2 399.7,254.6 401.9,254.4 404.1,254.4 408.4,254.3 410.6,254.2 419.4,254.1 423.7,254.1 430.3,254.0 432.5,253.0 434.7,252.1 436.9,251.9 439.0,251.1 441.2,250.5 443.4,250.1 445.6,249.9 447.8,249.5 450.0,249.4 452.2,249.3 454.3,249.1 456.5,249.0 469.7,248.4 471.8,247.5 474.0,247.4 476.2,247.3 478.4,247.2 493.7,247.2 513.4,246.3 515.6,245.6 517.8,244.8 519.9,243.6 522.1,243.4 524.3,243.0 526.5,242.4 528.7,241.9 530.9,240.7 533.1,239.0 535.3,237.4 537.4,235.4 539.6,233.4 541.8,231.6 544.0,230.5 546.2,229.2 548.4,227.3 550.6,225.6 552.7,224.5 554.9,223.4 557.1,221.8 559.3,220.8 561.5,219.8 563.7,218.9 565.9,218.2 568.1,217.3 570.2,216.8 572.4,216.2 574.6,215.7 576.8,214.2 579.0,212.9 581.2,212.3 583.4,212.1 585.5,211.7 587.7,211.0 589.9,210.5 592.1,209.5 594.3,208.8 596.5,208.3 598.7,208.2 600.9,207.9 603.0,207.4 605.2,206.2 607.4,204.2 609.6,202.2 611.8,200.1 614.0,198.4 616.2,196.4 618.3,194.3 620.5,192.2 622.7,190.2 624.9,188.7 627.1,187.6 629.3,186.3 631.5,185.0 633.7,184.2 635.8,183.2 638.0,182.4 640.2,181.3 642.4,179.8 644.6,178.1 646.8,176.6 649.0,175.3 651.1,174.4 653.3,173.7 655.5,172.9 657.7,172.1 659.9,170.6 662.1,169.4 664.3,167.9 666.5,166.4 668.6,165.1 670.8,164.1 673.0,163.7 675.2,163.1 677.4,162.5 679.6,162.4 681.8,162.4 683.9,162.1 686.1,161.9 688.3,161.9 690.5,161.7 692.7,161.6 699.3,161.6 701.4,161.5 703.6,161.3 705.8,159.5 708.0,158.1 710.2,156.7 712.4,155.3 714.6,154.0 716.7,152.7 718.9,151.3 721.1,150.0 723.3,148.6 725.5,147.3 727.7,146.0 729.9,144.8 732.1,143.5 734.2,142.3 736.4,141.0 738.6,140.0 740.8,138.8 743.0,137.6 745.2,136.4 747.4,135.3 749.5,134.2 751.7,133.4 753.9,132.7 756.1,131.9 758.3,130.8 760.5,129.9 762.7,128.9 764.9,127.8 767.0,126.8 769.2,125.9 771.4,124.9 773.6,123.9 775.8,122.9 778.0,122.0 780.2,120.9 782.3,120.1 784.5,119.0 786.7,118.2 788.9,117.4 791.1,116.5 793.3,115.6 795.5,114.8 797.7,114.1 799.8,113.5 802.0,113.1 804.2,113.0 806.4,112.1 808.6,111.3 810.8,110.4 813.0,109.5 815.1,108.8 817.3,108.0 819.5,107.2 821.7,106.4 823.9,105.6 826.1,104.9 828.3,104.2 830.5,103.5 832.6,102.6 834.8,101.9 837.0,101.2 839.2,100.4 841.4,99.7 843.6,99.1 845.8,98.2 847.9,97.6 850.1,97.1 852.3,96.2 854.5,95.3 856.7,94.6 858.9,93.8 861.1,93.1 863.3,92.5 865.4,91.8 867.6,91.0 869.8,90.4 872.0,90.0" fill="none" stroke="#38bdf8" stroke-width="2.5" stroke-linejoin="round" stroke-linecap="round"/>
<circle cx="872.0" cy="90.0" r="4" fill="#0ea5e9"/>
<text x="866.0" y="80.0" text-anchor="end" font-family="Inter, system-ui, sans-serif" font-size="13" font-weight="700" fill="#334155">4311</text>
<text x="52.0" y="294" text-anchor="middle" font-family="Inter, system-ui, sans-serif" font-size="11" fill="#94a3b8">Jun 10 05:00</text>
<text x="570.2" y="294" text-anchor="middle" font-family="Inter, system-ui, sans-serif" font-size="11" fill="#94a3b8">Jun 20 02:00</text>
<text x="872.0" y="294" text-anchor="middle" font-family="Inter, system-ui, sans-serif" font-size="11" fill="#94a3b8">Jun 25 20:00</text>
</svg>
