<svg xmlns="http://www.w3.org/2000/svg" width="900" height="320" viewBox="0 0 900 320" role="img" aria-labelledby="title desc">
<title id="title">unsorry proofs over time</title>
<desc id="desc">Cumulative kernel-verified proofs over time, by the hour each proof was merged.</desc>
<rect width="900" height="100%" rx="18" fill="#ffffff"/>
<rect x="0.5" y="0.5" width="899" height="319" rx="18" fill="none" stroke="#e2e8f0"/>
<text x="32" y="44" font-family="Inter, system-ui, sans-serif" font-size="28" font-weight="700" fill="#334155">unsorry — Proofs Over Time</text>
<text x="32" y="72" font-family="Inter, system-ui, sans-serif" font-size="13" fill="#64748b">3068 cumulative kernel-verified proofs · merged, hourly</text>
<line x1="52" y1="272.0" x2="872" y2="272.0" stroke="#f1f5f9"/>
<text x="44" y="276.0" text-anchor="end" font-family="Inter, system-ui, sans-serif" font-size="11" fill="#94a3b8">0</text>
<line x1="52" y1="226.5" x2="872" y2="226.5" stroke="#f1f5f9"/>
<text x="44" y="230.5" text-anchor="end" font-family="Inter, system-ui, sans-serif" font-size="11" fill="#94a3b8">767</text>
<line x1="52" y1="181.0" x2="872" y2="181.0" stroke="#f1f5f9"/>
<text x="44" y="185.0" text-anchor="end" font-family="Inter, system-ui, sans-serif" font-size="11" fill="#94a3b8">1534</text>
<line x1="52" y1="135.5" x2="872" y2="135.5" stroke="#f1f5f9"/>
<text x="44" y="139.5" text-anchor="end" font-family="Inter, system-ui, sans-serif" font-size="11" fill="#94a3b8">2301</text>
<line x1="52" y1="90.0" x2="872" y2="90.0" stroke="#f1f5f9"/>
<text x="44" y="94.0" text-anchor="end" font-family="Inter, system-ui, sans-serif" font-size="11" fill="#94a3b8">3068</text>
<polygon points="52.0,272.0 52.0,271.9 54.6,271.8 86.2,271.2 88.8,271.1 91.4,271.0 99.3,270.9 115.1,270.9 149.2,270.8 151.9,270.3 154.5,270.2 162.4,270.1 165.0,270.0 167.6,270.0 170.3,269.8 175.5,269.7 178.2,269.4 186.0,269.2 196.6,269.1 199.2,268.9 201.8,268.8 222.8,268.7 228.1,268.7 241.2,268.6 243.9,268.6 246.5,268.4 257.0,268.4 259.6,268.0 262.3,267.7 264.9,267.0 267.5,266.8 285.9,266.8 293.8,266.7 299.1,266.7 301.7,266.6 304.3,266.3 306.9,266.2 309.6,266.2 312.2,266.0 314.8,265.8 325.3,265.5 330.6,265.5 341.1,265.4 343.7,265.1 346.4,265.1 349.0,264.9 354.2,264.9 356.9,263.7 359.5,262.5 362.1,262.1 364.8,261.8 367.4,261.7 370.0,261.4 372.6,261.0 375.3,260.7 377.9,260.5 380.5,260.4 385.8,260.2 388.4,259.7 391.0,259.2 393.7,258.8 396.3,258.5 401.6,258.4 406.8,258.3 409.4,257.9 412.1,257.6 414.7,256.8 417.3,256.3 419.9,255.8 422.6,255.3 425.2,254.8 427.8,254.3 430.5,253.7 433.1,253.0 435.7,252.4 438.3,251.9 441.0,251.5 443.6,251.1 446.2,250.6 448.9,250.4 451.5,250.1 454.1,249.8 456.7,249.7 459.4,249.6 464.6,249.5 467.3,248.3 469.9,247.5 472.5,247.3 475.1,247.3 480.4,247.1 483.0,247.0 493.5,246.9 498.8,246.8 506.7,246.7 509.3,245.4 511.9,244.1 514.6,243.7 517.2,242.6 519.8,241.8 522.4,241.3 525.1,241.0 527.7,240.4 530.3,240.2 533.0,240.1 535.6,239.8 538.2,239.7 554.0,238.8 556.6,237.6 559.2,237.4 561.9,237.2 564.5,237.2 582.9,237.1 606.6,235.9 609.2,234.9 611.8,233.8 614.4,232.1 617.1,231.8 619.7,231.3 622.3,230.4 624.9,229.6 627.6,228.0 630.2,225.7 632.8,223.4 635.5,220.6 638.1,217.8 640.7,215.3 643.3,213.7 646.0,211.9 648.6,209.2 651.2,206.9 653.9,205.3 656.5,203.7 659.1,201.5 661.7,200.0 664.4,198.6 667.0,197.4 669.6,196.4 672.3,195.2 674.9,194.4 677.5,193.6 680.1,192.9 682.8,190.7 685.4,189.0 688.0,188.1 690.7,187.8 693.3,187.2 695.9,186.3 698.5,185.6 701.2,184.1 703.8,183.3 706.4,182.4 709.1,182.3 711.7,181.9 714.3,181.3 716.9,179.6 719.6,176.8 722.2,173.9 724.8,171.0 727.4,168.6 730.1,165.8 732.7,162.8 735.3,159.8 738.0,157.0 740.6,155.0 743.2,153.4 745.8,151.6 748.5,149.8 751.1,148.6 753.7,147.2 756.4,146.1 759.0,144.6 761.6,142.5 764.2,140.0 766.9,137.9 769.5,136.1 772.1,134.9 774.8,133.8 777.4,132.8 780.0,131.6 782.6,129.6 785.3,127.8 787.9,125.8 790.5,123.6 793.2,121.9 795.8,120.4 798.4,119.8 801.0,119.0 803.7,118.2 806.3,118.1 808.9,117.9 811.6,117.5 814.2,117.3 816.8,117.3 819.4,117.0 822.1,116.9 829.9,116.8 832.6,116.8 835.2,116.4 837.8,114.0 840.5,111.9 843.1,110.1 845.7,108.0 848.3,106.1 851.0,104.3 853.6,102.3 856.2,100.6 858.9,98.6 861.5,96.8 864.1,95.0 866.7,93.2 869.4,91.5 872.0,90.0 872.0,272.0" fill="#e0f2fe" opacity="0.55"/>
<polyline points="52.0,271.9 54.6,271.8 86.2,271.2 88.8,271.1 91.4,271.0 99.3,270.9 115.1,270.9 149.2,270.8 151.9,270.3 154.5,270.2 162.4,270.1 165.0,270.0 167.6,270.0 170.3,269.8 175.5,269.7 178.2,269.4 186.0,269.2 196.6,269.1 199.2,268.9 201.8,268.8 222.8,268.7 228.1,268.7 241.2,268.6 243.9,268.6 246.5,268.4 257.0,268.4 259.6,268.0 262.3,267.7 264.9,267.0 267.5,266.8 285.9,266.8 293.8,266.7 299.1,266.7 301.7,266.6 304.3,266.3 306.9,266.2 309.6,266.2 312.2,266.0 314.8,265.8 325.3,265.5 330.6,265.5 341.1,265.4 343.7,265.1 346.4,265.1 349.0,264.9 354.2,264.9 356.9,263.7 359.5,262.5 362.1,262.1 364.8,261.8 367.4,261.7 370.0,261.4 372.6,261.0 375.3,260.7 377.9,260.5 380.5,260.4 385.8,260.2 388.4,259.7 391.0,259.2 393.7,258.8 396.3,258.5 401.6,258.4 406.8,258.3 409.4,257.9 412.1,257.6 414.7,256.8 417.3,256.3 419.9,255.8 422.6,255.3 425.2,254.8 427.8,254.3 430.5,253.7 433.1,253.0 435.7,252.4 438.3,251.9 441.0,251.5 443.6,251.1 446.2,250.6 448.9,250.4 451.5,250.1 454.1,249.8 456.7,249.7 459.4,249.6 464.6,249.5 467.3,248.3 469.9,247.5 472.5,247.3 475.1,247.3 480.4,247.1 483.0,247.0 493.5,246.9 498.8,246.8 506.7,246.7 509.3,245.4 511.9,244.1 514.6,243.7 517.2,242.6 519.8,241.8 522.4,241.3 525.1,241.0 527.7,240.4 530.3,240.2 533.0,240.1 535.6,239.8 538.2,239.7 554.0,238.8 556.6,237.6 559.2,237.4 561.9,237.2 564.5,237.2 582.9,237.1 606.6,235.9 609.2,234.9 611.8,233.8 614.4,232.1 617.1,231.8 619.7,231.3 622.3,230.4 624.9,229.6 627.6,228.0 630.2,225.7 632.8,223.4 635.5,220.6 638.1,217.8 640.7,215.3 643.3,213.7 646.0,211.9 648.6,209.2 651.2,206.9 653.9,205.3 656.5,203.7 659.1,201.5 661.7,200.0 664.4,198.6 667.0,197.4 669.6,196.4 672.3,195.2 674.9,194.4 677.5,193.6 680.1,192.9 682.8,190.7 685.4,189.0 688.0,188.1 690.7,187.8 693.3,187.2 695.9,186.3 698.5,185.6 701.2,184.1 703.8,183.3 706.4,182.4 709.1,182.3 711.7,181.9 714.3,181.3 716.9,179.6 719.6,176.8 722.2,173.9 724.8,171.0 727.4,168.6 730.1,165.8 732.7,162.8 735.3,159.8 738.0,157.0 740.6,155.0 743.2,153.4 745.8,151.6 748.5,149.8 751.1,148.6 753.7,147.2 756.4,146.1 759.0,144.6 761.6,142.5 764.2,140.0 766.9,137.9 769.5,136.1 772.1,134.9 774.8,133.8 777.4,132.8 780.0,131.6 782.6,129.6 785.3,127.8 787.9,125.8 790.5,123.6 793.2,121.9 795.8,120.4 798.4,119.8 801.0,119.0 803.7,118.2 806.3,118.1 808.9,117.9 811.6,117.5 814.2,117.3 816.8,117.3 819.4,117.0 822.1,116.9 829.9,116.8 832.6,116.8 835.2,116.4 837.8,114.0 840.5,111.9 843.1,110.1 845.7,108.0 848.3,106.1 851.0,104.3 853.6,102.3 856.2,100.6 858.9,98.6 861.5,96.8 864.1,95.0 866.7,93.2 869.4,91.5 872.0,90.0" fill="none" stroke="#38bdf8" stroke-width="2.5" stroke-linejoin="round" stroke-linecap="round"/>
<circle cx="872.0" cy="90.0" r="4" fill="#0ea5e9"/>
<text x="866.0" y="80.0" text-anchor="end" font-family="Inter, system-ui, sans-serif" font-size="13" font-weight="700" fill="#334155">3068</text>
<text x="52.0" y="294" text-anchor="middle" font-family="Inter, system-ui, sans-serif" font-size="11" fill="#94a3b8">Jun 10 05:00</text>
<text x="554.0" y="294" text-anchor="middle" font-family="Inter, system-ui, sans-serif" font-size="11" fill="#94a3b8">Jun 18 04:00</text>
<text x="872.0" y="294" text-anchor="middle" font-family="Inter, system-ui, sans-serif" font-size="11" fill="#94a3b8">Jun 23 05:00</text>
</svg>
