<svg xmlns="http://www.w3.org/2000/svg" width="900" height="320" viewBox="0 0 900 320" role="img" aria-labelledby="title desc">
<title id="title">Unsorry proofs over time</title>
<desc id="desc">Cumulative kernel-verified proofs over time, by the hour each proof was merged.</desc>
<rect width="900" height="100%" rx="18" fill="#ffffff"/>
<rect x="0.5" y="0.5" width="899" height="319" rx="18" fill="none" stroke="#e2e8f0"/>
<text x="32" y="44" font-family="Inter, system-ui, sans-serif" font-size="28" font-weight="700" fill="#334155">Unsorry — Proofs Over Time</text>
<text x="32" y="72" font-family="Inter, system-ui, sans-serif" font-size="13" fill="#64748b">2419 cumulative kernel-verified proofs · merged, hourly</text>
<line x1="52" y1="272.0" x2="872" y2="272.0" stroke="#f1f5f9"/>
<text x="44" y="276.0" text-anchor="end" font-family="Inter, system-ui, sans-serif" font-size="11" fill="#94a3b8">0</text>
<line x1="52" y1="226.5" x2="872" y2="226.5" stroke="#f1f5f9"/>
<text x="44" y="230.5" text-anchor="end" font-family="Inter, system-ui, sans-serif" font-size="11" fill="#94a3b8">605</text>
<line x1="52" y1="181.0" x2="872" y2="181.0" stroke="#f1f5f9"/>
<text x="44" y="185.0" text-anchor="end" font-family="Inter, system-ui, sans-serif" font-size="11" fill="#94a3b8">1210</text>
<line x1="52" y1="135.5" x2="872" y2="135.5" stroke="#f1f5f9"/>
<text x="44" y="139.5" text-anchor="end" font-family="Inter, system-ui, sans-serif" font-size="11" fill="#94a3b8">1814</text>
<line x1="52" y1="90.0" x2="872" y2="90.0" stroke="#f1f5f9"/>
<text x="44" y="94.0" text-anchor="end" font-family="Inter, system-ui, sans-serif" font-size="11" fill="#94a3b8">2419</text>
<polygon points="52.0,272.0 52.0,271.9 54.9,271.8 90.2,271.0 93.1,270.8 96.1,270.7 104.9,270.6 122.5,270.6 160.7,270.5 163.7,269.8 166.6,269.7 175.4,269.6 178.4,269.5 181.3,269.4 184.3,269.2 190.1,269.1 193.1,268.8 201.9,268.5 213.6,268.3 216.6,268.1 219.5,267.9 243.0,267.9 248.9,267.8 263.6,267.7 266.6,267.6 269.5,267.5 281.2,267.4 284.2,267.0 287.1,266.6 290.1,265.6 293.0,265.5 313.6,265.4 322.4,265.3 328.3,265.2 331.2,265.2 334.2,264.8 337.1,264.7 340.0,264.6 343.0,264.4 345.9,264.2 357.7,263.8 363.5,263.7 375.3,263.6 378.2,263.3 381.2,263.2 384.1,263.0 390.0,263.0 392.9,261.5 395.9,260.0 398.8,259.4 401.7,259.1 404.7,258.9 407.6,258.5 410.6,258.0 413.5,257.6 416.4,257.4 419.4,257.3 425.3,257.0 428.2,256.4 431.1,255.8 434.1,255.2 437.0,254.8 442.9,254.7 448.8,254.6 451.7,254.1 454.7,253.7 457.6,252.7 460.5,252.1 463.5,251.5 466.4,250.9 469.3,250.2 472.3,249.5 475.2,248.8 478.2,247.9 481.1,247.2 484.0,246.5 487.0,246.0 489.9,245.5 492.9,244.9 495.8,244.6 498.7,244.2 501.7,243.9 504.6,243.7 507.6,243.6 513.4,243.5 516.4,242.0 519.3,240.9 522.3,240.7 525.2,240.6 531.1,240.5 534.0,240.2 545.8,240.2 551.6,240.0 560.5,239.9 563.4,238.2 566.3,236.6 569.3,236.1 572.2,234.8 575.2,233.7 578.1,233.0 581.0,232.7 584.0,232.0 586.9,231.7 589.8,231.5 592.8,231.2 595.7,231.1 613.4,229.9 616.3,228.4 619.2,228.1 622.2,227.9 625.1,227.8 645.7,227.8 672.1,226.2 675.1,225.0 678.0,223.5 681.0,221.4 683.9,221.1 686.8,220.4 689.8,219.2 692.7,218.3 695.7,216.2 698.6,213.2 701.5,210.3 704.5,206.8 707.4,203.2 710.4,200.1 713.3,198.1 716.2,195.8 719.2,192.3 722.1,189.4 725.0,187.4 728.0,185.4 730.9,182.5 733.9,180.7 736.8,178.9 739.7,177.4 742.7,176.1 745.6,174.6 748.6,173.6 751.5,172.5 754.4,171.6 757.4,168.9 760.3,166.7 763.3,165.5 766.2,165.2 769.1,164.5 772.1,163.4 775.0,162.4 777.9,160.6 780.9,159.4 783.8,158.4 786.8,158.2 789.7,157.8 792.6,157.0 795.6,154.8 798.5,151.2 801.5,147.6 804.4,143.9 807.3,140.9 810.3,137.3 813.2,133.6 816.2,129.7 819.1,126.2 822.0,123.6 825.0,121.6 827.9,119.3 830.9,117.0 833.8,115.5 836.7,113.7 839.7,112.3 842.6,110.4 845.5,107.8 848.5,104.6 851.4,102.0 854.4,99.6 857.3,98.1 860.2,96.8 863.2,95.4 866.1,93.9 869.1,91.4 872.0,90.0 872.0,272.0" fill="#e0f2fe" opacity="0.55"/>
<polyline points="52.0,271.9 54.9,271.8 90.2,271.0 93.1,270.8 96.1,270.7 104.9,270.6 122.5,270.6 160.7,270.5 163.7,269.8 166.6,269.7 175.4,269.6 178.4,269.5 181.3,269.4 184.3,269.2 190.1,269.1 193.1,268.8 201.9,268.5 213.6,268.3 216.6,268.1 219.5,267.9 243.0,267.9 248.9,267.8 263.6,267.7 266.6,267.6 269.5,267.5 281.2,267.4 284.2,267.0 287.1,266.6 290.1,265.6 293.0,265.5 313.6,265.4 322.4,265.3 328.3,265.2 331.2,265.2 334.2,264.8 337.1,264.7 340.0,264.6 343.0,264.4 345.9,264.2 357.7,263.8 363.5,263.7 375.3,263.6 378.2,263.3 381.2,263.2 384.1,263.0 390.0,263.0 392.9,261.5 395.9,260.0 398.8,259.4 401.7,259.1 404.7,258.9 407.6,258.5 410.6,258.0 413.5,257.6 416.4,257.4 419.4,257.3 425.3,257.0 428.2,256.4 431.1,255.8 434.1,255.2 437.0,254.8 442.9,254.7 448.8,254.6 451.7,254.1 454.7,253.7 457.6,252.7 460.5,252.1 463.5,251.5 466.4,250.9 469.3,250.2 472.3,249.5 475.2,248.8 478.2,247.9 481.1,247.2 484.0,246.5 487.0,246.0 489.9,245.5 492.9,244.9 495.8,244.6 498.7,244.2 501.7,243.9 504.6,243.7 507.6,243.6 513.4,243.5 516.4,242.0 519.3,240.9 522.3,240.7 525.2,240.6 531.1,240.5 534.0,240.2 545.8,240.2 551.6,240.0 560.5,239.9 563.4,238.2 566.3,236.6 569.3,236.1 572.2,234.8 575.2,233.7 578.1,233.0 581.0,232.7 584.0,232.0 586.9,231.7 589.8,231.5 592.8,231.2 595.7,231.1 613.4,229.9 616.3,228.4 619.2,228.1 622.2,227.9 625.1,227.8 645.7,227.8 672.1,226.2 675.1,225.0 678.0,223.5 681.0,221.4 683.9,221.1 686.8,220.4 689.8,219.2 692.7,218.3 695.7,216.2 698.6,213.2 701.5,210.3 704.5,206.8 707.4,203.2 710.4,200.1 713.3,198.1 716.2,195.8 719.2,192.3 722.1,189.4 725.0,187.4 728.0,185.4 730.9,182.5 733.9,180.7 736.8,178.9 739.7,177.4 742.7,176.1 745.6,174.6 748.6,173.6 751.5,172.5 754.4,171.6 757.4,168.9 760.3,166.7 763.3,165.5 766.2,165.2 769.1,164.5 772.1,163.4 775.0,162.4 777.9,160.6 780.9,159.4 783.8,158.4 786.8,158.2 789.7,157.8 792.6,157.0 795.6,154.8 798.5,151.2 801.5,147.6 804.4,143.9 807.3,140.9 810.3,137.3 813.2,133.6 816.2,129.7 819.1,126.2 822.0,123.6 825.0,121.6 827.9,119.3 830.9,117.0 833.8,115.5 836.7,113.7 839.7,112.3 842.6,110.4 845.5,107.8 848.5,104.6 851.4,102.0 854.4,99.6 857.3,98.1 860.2,96.8 863.2,95.4 866.1,93.9 869.1,91.4 872.0,90.0" fill="none" stroke="#38bdf8" stroke-width="2.5" stroke-linejoin="round" stroke-linecap="round"/>
<circle cx="872.0" cy="90.0" r="4" fill="#0ea5e9"/>
<text x="866.0" y="80.0" text-anchor="end" font-family="Inter, system-ui, sans-serif" font-size="13" font-weight="700" fill="#334155">2419</text>
<text x="52.0" y="294" text-anchor="middle" font-family="Inter, system-ui, sans-serif" font-size="11" fill="#94a3b8">Jun 10 05:00</text>
<text x="545.8" y="294" text-anchor="middle" font-family="Inter, system-ui, sans-serif" font-size="11" fill="#94a3b8">Jun 17 05:00</text>
<text x="872.0" y="294" text-anchor="middle" font-family="Inter, system-ui, sans-serif" font-size="11" fill="#94a3b8">Jun 21 20:00</text>
</svg>
