<svg xmlns="http://www.w3.org/2000/svg" width="900" height="320" viewBox="0 0 900 320" role="img" aria-labelledby="title desc">
<title id="title">unsorry proofs over time</title>
<desc id="desc">Cumulative kernel-verified proofs over time, by the hour each proof was merged.</desc>
<rect width="900" height="100%" rx="18" fill="#ffffff"/>
<rect x="0.5" y="0.5" width="899" height="319" rx="18" fill="none" stroke="#e2e8f0"/>
<text x="32" y="44" font-family="Inter, system-ui, sans-serif" font-size="28" font-weight="700" fill="#334155">unsorry — Proofs Over Time</text>
<text x="32" y="72" font-family="Inter, system-ui, sans-serif" font-size="13" fill="#64748b">4240 cumulative kernel-verified proofs · merged, hourly</text>
<line x1="52" y1="272.0" x2="872" y2="272.0" stroke="#f1f5f9"/>
<text x="44" y="276.0" text-anchor="end" font-family="Inter, system-ui, sans-serif" font-size="11" fill="#94a3b8">0</text>
<line x1="52" y1="226.5" x2="872" y2="226.5" stroke="#f1f5f9"/>
<text x="44" y="230.5" text-anchor="end" font-family="Inter, system-ui, sans-serif" font-size="11" fill="#94a3b8">1060</text>
<line x1="52" y1="181.0" x2="872" y2="181.0" stroke="#f1f5f9"/>
<text x="44" y="185.0" text-anchor="end" font-family="Inter, system-ui, sans-serif" font-size="11" fill="#94a3b8">2120</text>
<line x1="52" y1="135.5" x2="872" y2="135.5" stroke="#f1f5f9"/>
<text x="44" y="139.5" text-anchor="end" font-family="Inter, system-ui, sans-serif" font-size="11" fill="#94a3b8">3180</text>
<line x1="52" y1="90.0" x2="872" y2="90.0" stroke="#f1f5f9"/>
<text x="44" y="94.0" text-anchor="end" font-family="Inter, system-ui, sans-serif" font-size="11" fill="#94a3b8">4240</text>
<polygon points="52.0,272.0 52.0,272.0 54.2,271.9 80.7,271.4 82.9,271.3 85.2,271.3 91.8,271.2 105.0,271.2 133.8,271.1 136.0,270.8 138.2,270.7 144.8,270.6 147.0,270.6 149.3,270.5 151.5,270.4 155.9,270.4 158.1,270.2 164.7,270.0 173.6,269.9 175.8,269.8 178.0,269.7 195.7,269.6 200.1,269.6 211.1,269.6 213.3,269.5 215.6,269.4 224.4,269.4 226.6,269.1 228.8,268.9 231.0,268.4 233.2,268.3 248.7,268.2 255.3,268.2 259.8,268.1 262.0,268.1 264.2,267.9 266.4,267.8 268.6,267.8 270.8,267.7 273.0,267.5 281.9,267.3 286.3,267.3 295.1,267.2 297.3,267.0 299.5,267.0 301.8,266.9 306.2,266.8 308.4,266.0 310.6,265.1 312.8,264.8 315.0,264.6 317.2,264.5 319.4,264.3 321.6,264.0 323.9,263.8 326.1,263.7 328.3,263.6 332.7,263.5 334.9,263.1 337.1,262.8 339.3,262.4 341.5,262.2 346.0,262.1 350.4,262.1 352.6,261.8 354.8,261.6 357.0,261.0 359.2,260.6 361.4,260.3 363.6,259.9 365.9,259.6 368.1,259.2 370.3,258.7 372.5,258.3 374.7,257.8 376.9,257.4 379.1,257.2 381.3,256.9 383.5,256.5 385.7,256.4 388.0,256.2 390.2,255.9 392.4,255.9 394.6,255.8 399.0,255.7 401.2,254.9 403.4,254.3 405.6,254.1 407.8,254.1 412.3,254.0 414.5,253.9 423.3,253.8 427.7,253.8 434.4,253.7 436.6,252.7 438.8,251.8 441.0,251.5 443.2,250.8 445.4,250.2 447.6,249.8 449.8,249.6 452.1,249.2 454.3,249.0 456.5,248.9 458.7,248.7 460.9,248.6 474.2,248.0 476.4,247.1 478.6,247.0 480.8,246.8 483.0,246.8 498.5,246.8 518.4,245.9 520.6,245.2 522.8,244.4 525.0,243.2 527.2,242.9 529.4,242.6 531.6,241.9 533.8,241.4 536.0,240.2 538.3,238.5 540.5,236.8 542.7,234.8 544.9,232.8 547.1,231.0 549.3,229.8 551.5,228.5 553.7,226.5 555.9,224.9 558.1,223.8 560.4,222.6 562.6,221.0 564.8,219.9 567.0,218.9 569.2,218.0 571.4,217.3 573.6,216.4 575.8,215.9 578.0,215.3 580.2,214.7 582.5,213.2 584.7,211.9 586.9,211.3 589.1,211.0 591.3,210.7 593.5,210.0 595.7,209.5 597.9,208.4 600.1,207.8 602.4,207.2 604.6,207.1 606.8,206.8 609.0,206.4 611.2,205.1 613.4,203.1 615.6,201.0 617.8,198.9 620.0,197.2 622.2,195.2 624.5,193.0 626.7,190.8 628.9,188.8 631.1,187.4 633.3,186.2 635.5,184.9 637.7,183.6 639.9,182.7 642.1,181.7 644.3,180.9 646.6,179.8 648.8,178.3 651.0,176.5 653.2,175.0 655.4,173.7 657.6,172.8 659.8,172.0 662.0,171.3 664.2,170.4 666.4,168.9 668.7,167.7 670.9,166.2 673.1,164.6 675.3,163.4 677.5,162.3 679.7,161.9 681.9,161.3 684.1,160.7 686.3,160.6 688.5,160.5 690.8,160.2 693.0,160.1 695.2,160.1 697.4,159.8 699.6,159.8 706.2,159.7 708.4,159.7 710.7,159.4 712.9,157.6 715.1,156.1 717.3,154.8 719.5,153.3 721.7,152.0 723.9,150.7 726.1,149.2 728.3,147.9 730.5,146.5 732.8,145.2 735.0,143.9 737.2,142.6 739.4,141.4 741.6,140.1 743.8,138.8 746.0,137.8 748.2,136.6 750.4,135.4 752.6,134.2 754.9,133.1 757.1,131.9 759.3,131.1 761.5,130.3 763.7,129.6 765.9,128.5 768.1,127.5 770.3,126.5 772.5,125.4 774.7,124.4 777.0,123.5 779.2,122.5 781.4,121.4 783.6,120.4 785.8,119.5 788.0,118.4 790.2,117.5 792.4,116.5 794.6,115.7 796.9,114.9 799.1,113.9 801.3,113.0 803.5,112.1 805.7,111.5 807.9,110.8 810.1,110.4 812.3,110.3 814.5,109.4 816.7,108.6 819.0,107.7 821.2,106.8 823.4,106.1 825.6,105.2 827.8,104.4 830.0,103.6 832.2,102.8 834.4,102.1 836.6,101.4 838.8,100.6 841.1,99.8 843.3,99.1 845.5,98.3 847.7,97.6 849.9,96.8 852.1,96.2 854.3,95.3 856.5,94.7 858.7,94.1 860.9,93.2 863.2,92.4 865.4,91.7 867.6,90.9 869.8,90.1 872.0,90.0 872.0,272.0" fill="#e0f2fe" opacity="0.55"/>
<polyline points="52.0,272.0 54.2,271.9 80.7,271.4 82.9,271.3 85.2,271.3 91.8,271.2 105.0,271.2 133.8,271.1 136.0,270.8 138.2,270.7 144.8,270.6 147.0,270.6 149.3,270.5 151.5,270.4 155.9,270.4 158.1,270.2 164.7,270.0 173.6,269.9 175.8,269.8 178.0,269.7 195.7,269.6 200.1,269.6 211.1,269.6 213.3,269.5 215.6,269.4 224.4,269.4 226.6,269.1 228.8,268.9 231.0,268.4 233.2,268.3 248.7,268.2 255.3,268.2 259.8,268.1 262.0,268.1 264.2,267.9 266.4,267.8 268.6,267.8 270.8,267.7 273.0,267.5 281.9,267.3 286.3,267.3 295.1,267.2 297.3,267.0 299.5,267.0 301.8,266.9 306.2,266.8 308.4,266.0 310.6,265.1 312.8,264.8 315.0,264.6 317.2,264.5 319.4,264.3 321.6,264.0 323.9,263.8 326.1,263.7 328.3,263.6 332.7,263.5 334.9,263.1 337.1,262.8 339.3,262.4 341.5,262.2 346.0,262.1 350.4,262.1 352.6,261.8 354.8,261.6 357.0,261.0 359.2,260.6 361.4,260.3 363.6,259.9 365.9,259.6 368.1,259.2 370.3,258.7 372.5,258.3 374.7,257.8 376.9,257.4 379.1,257.2 381.3,256.9 383.5,256.5 385.7,256.4 388.0,256.2 390.2,255.9 392.4,255.9 394.6,255.8 399.0,255.7 401.2,254.9 403.4,254.3 405.6,254.1 407.8,254.1 412.3,254.0 414.5,253.9 423.3,253.8 427.7,253.8 434.4,253.7 436.6,252.7 438.8,251.8 441.0,251.5 443.2,250.8 445.4,250.2 447.6,249.8 449.8,249.6 452.1,249.2 454.3,249.0 456.5,248.9 458.7,248.7 460.9,248.6 474.2,248.0 476.4,247.1 478.6,247.0 480.8,246.8 483.0,246.8 498.5,246.8 518.4,245.9 520.6,245.2 522.8,244.4 525.0,243.2 527.2,242.9 529.4,242.6 531.6,241.9 533.8,241.4 536.0,240.2 538.3,238.5 540.5,236.8 542.7,234.8 544.9,232.8 547.1,231.0 549.3,229.8 551.5,228.5 553.7,226.5 555.9,224.9 558.1,223.8 560.4,222.6 562.6,221.0 564.8,219.9 567.0,218.9 569.2,218.0 571.4,217.3 573.6,216.4 575.8,215.9 578.0,215.3 580.2,214.7 582.5,213.2 584.7,211.9 586.9,211.3 589.1,211.0 591.3,210.7 593.5,210.0 595.7,209.5 597.9,208.4 600.1,207.8 602.4,207.2 604.6,207.1 606.8,206.8 609.0,206.4 611.2,205.1 613.4,203.1 615.6,201.0 617.8,198.9 620.0,197.2 622.2,195.2 624.5,193.0 626.7,190.8 628.9,188.8 631.1,187.4 633.3,186.2 635.5,184.9 637.7,183.6 639.9,182.7 642.1,181.7 644.3,180.9 646.6,179.8 648.8,178.3 651.0,176.5 653.2,175.0 655.4,173.7 657.6,172.8 659.8,172.0 662.0,171.3 664.2,170.4 666.4,168.9 668.7,167.7 670.9,166.2 673.1,164.6 675.3,163.4 677.5,162.3 679.7,161.9 681.9,161.3 684.1,160.7 686.3,160.6 688.5,160.5 690.8,160.2 693.0,160.1 695.2,160.1 697.4,159.8 699.6,159.8 706.2,159.7 708.4,159.7 710.7,159.4 712.9,157.6 715.1,156.1 717.3,154.8 719.5,153.3 721.7,152.0 723.9,150.7 726.1,149.2 728.3,147.9 730.5,146.5 732.8,145.2 735.0,143.9 737.2,142.6 739.4,141.4 741.6,140.1 743.8,138.8 746.0,137.8 748.2,136.6 750.4,135.4 752.6,134.2 754.9,133.1 757.1,131.9 759.3,131.1 761.5,130.3 763.7,129.6 765.9,128.5 768.1,127.5 770.3,126.5 772.5,125.4 774.7,124.4 777.0,123.5 779.2,122.5 781.4,121.4 783.6,120.4 785.8,119.5 788.0,118.4 790.2,117.5 792.4,116.5 794.6,115.7 796.9,114.9 799.1,113.9 801.3,113.0 803.5,112.1 805.7,111.5 807.9,110.8 810.1,110.4 812.3,110.3 814.5,109.4 816.7,108.6 819.0,107.7 821.2,106.8 823.4,106.1 825.6,105.2 827.8,104.4 830.0,103.6 832.2,102.8 834.4,102.1 836.6,101.4 838.8,100.6 841.1,99.8 843.3,99.1 845.5,98.3 847.7,97.6 849.9,96.8 852.1,96.2 854.3,95.3 856.5,94.7 858.7,94.1 860.9,93.2 863.2,92.4 865.4,91.7 867.6,90.9 869.8,90.1 872.0,90.0" fill="none" stroke="#38bdf8" stroke-width="2.5" stroke-linejoin="round" stroke-linecap="round"/>
<circle cx="872.0" cy="90.0" r="4" fill="#0ea5e9"/>
<text x="866.0" y="80.0" text-anchor="end" font-family="Inter, system-ui, sans-serif" font-size="13" font-weight="700" fill="#334155">4240</text>
<text x="52.0" y="294" text-anchor="middle" font-family="Inter, system-ui, sans-serif" font-size="11" fill="#94a3b8">Jun 10 05:00</text>
<text x="571.4" y="294" text-anchor="middle" font-family="Inter, system-ui, sans-serif" font-size="11" fill="#94a3b8">Jun 20 00:00</text>
<text x="872.0" y="294" text-anchor="middle" font-family="Inter, system-ui, sans-serif" font-size="11" fill="#94a3b8">Jun 25 16:00</text>
</svg>
