<svg xmlns="http://www.w3.org/2000/svg" width="900" height="320" viewBox="0 0 900 320" role="img" aria-labelledby="title desc">
<title id="title">unsorry proofs over time</title>
<desc id="desc">Cumulative kernel-verified proofs over time, by the hour each proof was merged.</desc>
<rect width="900" height="100%" rx="18" fill="#ffffff"/>
<rect x="0.5" y="0.5" width="899" height="319" rx="18" fill="none" stroke="#e2e8f0"/>
<text x="32" y="44" font-family="Inter, system-ui, sans-serif" font-size="28" font-weight="700" fill="#334155">unsorry — Proofs Over Time</text>
<text x="32" y="72" font-family="Inter, system-ui, sans-serif" font-size="13" fill="#64748b">4479 cumulative kernel-verified proofs · merged, hourly</text>
<line x1="52" y1="272.0" x2="872" y2="272.0" stroke="#f1f5f9"/>
<text x="44" y="276.0" text-anchor="end" font-family="Inter, system-ui, sans-serif" font-size="11" fill="#94a3b8">0</text>
<line x1="52" y1="226.5" x2="872" y2="226.5" stroke="#f1f5f9"/>
<text x="44" y="230.5" text-anchor="end" font-family="Inter, system-ui, sans-serif" font-size="11" fill="#94a3b8">1120</text>
<line x1="52" y1="181.0" x2="872" y2="181.0" stroke="#f1f5f9"/>
<text x="44" y="185.0" text-anchor="end" font-family="Inter, system-ui, sans-serif" font-size="11" fill="#94a3b8">2240</text>
<line x1="52" y1="135.5" x2="872" y2="135.5" stroke="#f1f5f9"/>
<text x="44" y="139.5" text-anchor="end" font-family="Inter, system-ui, sans-serif" font-size="11" fill="#94a3b8">3359</text>
<line x1="52" y1="90.0" x2="872" y2="90.0" stroke="#f1f5f9"/>
<text x="44" y="94.0" text-anchor="end" font-family="Inter, system-ui, sans-serif" font-size="11" fill="#94a3b8">4479</text>
<polygon points="52.0,272.0 52.0,272.0 54.1,271.9 79.7,271.5 81.8,271.3 83.9,271.3 90.3,271.3 103.1,271.2 130.8,271.2 132.9,270.8 135.1,270.8 141.5,270.7 143.6,270.7 145.7,270.6 147.8,270.5 152.1,270.5 154.2,270.3 160.6,270.1 169.1,270.0 171.3,269.9 173.4,269.8 190.4,269.8 194.7,269.7 205.4,269.7 207.5,269.6 209.6,269.6 218.1,269.5 220.3,269.3 222.4,269.1 224.5,268.5 226.6,268.5 241.6,268.4 247.9,268.4 252.2,268.3 254.3,268.3 256.5,268.1 258.6,268.1 260.7,268.0 262.9,267.9 265.0,267.8 273.5,267.6 277.8,267.5 286.3,267.5 288.4,267.3 290.5,267.2 292.7,267.2 296.9,267.1 299.1,266.3 301.2,265.5 303.3,265.2 305.5,265.0 307.6,264.9 309.7,264.7 311.8,264.4 314.0,264.2 316.1,264.1 318.2,264.0 322.5,263.9 324.6,263.6 326.8,263.3 328.9,262.9 331.0,262.7 335.3,262.7 339.5,262.6 341.7,262.3 343.8,262.1 345.9,261.6 348.1,261.2 350.2,260.9 352.3,260.6 354.4,260.2 356.6,259.9 358.7,259.4 360.8,259.0 363.0,258.6 365.1,258.2 367.2,258.0 369.4,257.7 371.5,257.4 373.6,257.2 375.7,257.0 377.9,256.8 380.0,256.7 382.1,256.6 386.4,256.6 388.5,255.8 390.6,255.2 392.8,255.1 394.9,255.1 399.2,255.0 401.3,254.9 409.8,254.8 414.1,254.7 420.5,254.7 422.6,253.8 424.7,252.9 426.9,252.6 429.0,251.9 431.1,251.3 433.2,251.0 435.4,250.7 437.5,250.4 439.6,250.2 441.8,250.1 443.9,250.0 446.0,249.9 458.8,249.2 460.9,248.4 463.1,248.3 465.2,248.2 467.3,248.1 482.2,248.1 501.4,247.3 503.5,246.6 505.7,245.8 507.8,244.7 509.9,244.5 512.1,244.1 514.2,243.5 516.3,243.0 518.4,241.9 520.6,240.3 522.7,238.7 524.8,236.8 527.0,234.9 529.1,233.2 531.2,232.1 533.4,230.8 535.5,229.0 537.6,227.4 539.7,226.3 541.9,225.2 544.0,223.7 546.1,222.7 548.3,221.7 550.4,220.9 552.5,220.2 554.6,219.4 556.8,218.9 558.9,218.3 561.0,217.8 563.2,216.3 565.3,215.2 567.4,214.5 569.6,214.3 571.7,213.9 573.8,213.3 575.9,212.8 578.1,211.8 580.2,211.2 582.3,210.6 584.5,210.6 586.6,210.3 588.7,209.9 590.9,208.7 593.0,206.8 595.1,204.8 597.2,202.8 599.4,201.2 601.5,199.3 603.6,197.2 605.8,195.2 607.9,193.3 610.0,191.9 612.2,190.8 614.3,189.5 616.4,188.3 618.5,187.5 620.7,186.5 622.8,185.8 624.9,184.7 627.1,183.3 629.2,181.6 631.3,180.2 633.5,178.9 635.6,178.1 637.7,177.4 639.8,176.6 642.0,175.8 644.1,174.4 646.2,173.3 648.4,171.8 650.5,170.4 652.6,169.2 654.8,168.2 656.9,167.8 659.0,167.2 661.1,166.6 663.3,166.6 665.4,166.5 667.5,166.2 669.7,166.1 671.8,166.0 673.9,165.8 676.1,165.7 682.4,165.7 684.6,165.7 686.7,165.4 688.8,163.8 691.0,162.3 693.1,161.1 695.2,159.6 697.4,158.4 699.5,157.1 701.6,155.8 703.7,154.6 705.9,153.2 708.0,152.0 710.1,150.7 712.3,149.5 714.4,148.4 716.5,147.1 718.6,146.0 720.8,144.9 722.9,143.8 725.0,142.7 727.2,141.5 729.3,140.5 731.4,139.4 733.6,138.6 735.7,137.9 737.8,137.2 739.9,136.1 742.1,135.2 744.2,134.3 746.3,133.2 748.5,132.3 750.6,131.4 752.7,130.4 754.9,129.5 757.0,128.5 759.1,127.6 761.2,126.6 763.4,125.8 765.5,124.8 767.6,124.0 769.8,123.2 771.9,122.3 774.0,121.5 776.2,120.7 778.3,120.0 780.4,119.4 782.5,119.1 784.7,118.9 786.8,118.1 788.9,117.3 791.1,116.5 793.2,115.6 795.3,114.9 797.5,114.1 799.6,113.4 801.7,112.6 803.8,111.9 806.0,111.2 808.1,110.5 810.2,109.8 812.4,109.0 814.5,108.3 816.6,107.6 818.8,106.9 820.9,106.2 823.0,105.6 825.1,104.8 827.3,104.2 829.4,103.6 831.5,102.8 833.7,101.9 835.8,101.3 837.9,100.5 840.1,99.8 842.2,99.2 844.3,98.6 846.4,97.8 848.6,97.2 850.7,96.8 852.8,96.1 855.0,95.4 857.1,94.7 859.2,93.9 861.4,93.2 863.5,92.5 865.6,91.9 867.7,91.3 869.9,90.5 872.0,90.0 872.0,272.0" fill="#e0f2fe" opacity="0.55"/>
<polyline points="52.0,272.0 54.1,271.9 79.7,271.5 81.8,271.3 83.9,271.3 90.3,271.3 103.1,271.2 130.8,271.2 132.9,270.8 135.1,270.8 141.5,270.7 143.6,270.7 145.7,270.6 147.8,270.5 152.1,270.5 154.2,270.3 160.6,270.1 169.1,270.0 171.3,269.9 173.4,269.8 190.4,269.8 194.7,269.7 205.4,269.7 207.5,269.6 209.6,269.6 218.1,269.5 220.3,269.3 222.4,269.1 224.5,268.5 226.6,268.5 241.6,268.4 247.9,268.4 252.2,268.3 254.3,268.3 256.5,268.1 258.6,268.1 260.7,268.0 262.9,267.9 265.0,267.8 273.5,267.6 277.8,267.5 286.3,267.5 288.4,267.3 290.5,267.2 292.7,267.2 296.9,267.1 299.1,266.3 301.2,265.5 303.3,265.2 305.5,265.0 307.6,264.9 309.7,264.7 311.8,264.4 314.0,264.2 316.1,264.1 318.2,264.0 322.5,263.9 324.6,263.6 326.8,263.3 328.9,262.9 331.0,262.7 335.3,262.7 339.5,262.6 341.7,262.3 343.8,262.1 345.9,261.6 348.1,261.2 350.2,260.9 352.3,260.6 354.4,260.2 356.6,259.9 358.7,259.4 360.8,259.0 363.0,258.6 365.1,258.2 367.2,258.0 369.4,257.7 371.5,257.4 373.6,257.2 375.7,257.0 377.9,256.8 380.0,256.7 382.1,256.6 386.4,256.6 388.5,255.8 390.6,255.2 392.8,255.1 394.9,255.1 399.2,255.0 401.3,254.9 409.8,254.8 414.1,254.7 420.5,254.7 422.6,253.8 424.7,252.9 426.9,252.6 429.0,251.9 431.1,251.3 433.2,251.0 435.4,250.7 437.5,250.4 439.6,250.2 441.8,250.1 443.9,250.0 446.0,249.9 458.8,249.2 460.9,248.4 463.1,248.3 465.2,248.2 467.3,248.1 482.2,248.1 501.4,247.3 503.5,246.6 505.7,245.8 507.8,244.7 509.9,244.5 512.1,244.1 514.2,243.5 516.3,243.0 518.4,241.9 520.6,240.3 522.7,238.7 524.8,236.8 527.0,234.9 529.1,233.2 531.2,232.1 533.4,230.8 535.5,229.0 537.6,227.4 539.7,226.3 541.9,225.2 544.0,223.7 546.1,222.7 548.3,221.7 550.4,220.9 552.5,220.2 554.6,219.4 556.8,218.9 558.9,218.3 561.0,217.8 563.2,216.3 565.3,215.2 567.4,214.5 569.6,214.3 571.7,213.9 573.8,213.3 575.9,212.8 578.1,211.8 580.2,211.2 582.3,210.6 584.5,210.6 586.6,210.3 588.7,209.9 590.9,208.7 593.0,206.8 595.1,204.8 597.2,202.8 599.4,201.2 601.5,199.3 603.6,197.2 605.8,195.2 607.9,193.3 610.0,191.9 612.2,190.8 614.3,189.5 616.4,188.3 618.5,187.5 620.7,186.5 622.8,185.8 624.9,184.7 627.1,183.3 629.2,181.6 631.3,180.2 633.5,178.9 635.6,178.1 637.7,177.4 639.8,176.6 642.0,175.8 644.1,174.4 646.2,173.3 648.4,171.8 650.5,170.4 652.6,169.2 654.8,168.2 656.9,167.8 659.0,167.2 661.1,166.6 663.3,166.6 665.4,166.5 667.5,166.2 669.7,166.1 671.8,166.0 673.9,165.8 676.1,165.7 682.4,165.7 684.6,165.7 686.7,165.4 688.8,163.8 691.0,162.3 693.1,161.1 695.2,159.6 697.4,158.4 699.5,157.1 701.6,155.8 703.7,154.6 705.9,153.2 708.0,152.0 710.1,150.7 712.3,149.5 714.4,148.4 716.5,147.1 718.6,146.0 720.8,144.9 722.9,143.8 725.0,142.7 727.2,141.5 729.3,140.5 731.4,139.4 733.6,138.6 735.7,137.9 737.8,137.2 739.9,136.1 742.1,135.2 744.2,134.3 746.3,133.2 748.5,132.3 750.6,131.4 752.7,130.4 754.9,129.5 757.0,128.5 759.1,127.6 761.2,126.6 763.4,125.8 765.5,124.8 767.6,124.0 769.8,123.2 771.9,122.3 774.0,121.5 776.2,120.7 778.3,120.0 780.4,119.4 782.5,119.1 784.7,118.9 786.8,118.1 788.9,117.3 791.1,116.5 793.2,115.6 795.3,114.9 797.5,114.1 799.6,113.4 801.7,112.6 803.8,111.9 806.0,111.2 808.1,110.5 810.2,109.8 812.4,109.0 814.5,108.3 816.6,107.6 818.8,106.9 820.9,106.2 823.0,105.6 825.1,104.8 827.3,104.2 829.4,103.6 831.5,102.8 833.7,101.9 835.8,101.3 837.9,100.5 840.1,99.8 842.2,99.2 844.3,98.6 846.4,97.8 848.6,97.2 850.7,96.8 852.8,96.1 855.0,95.4 857.1,94.7 859.2,93.9 861.4,93.2 863.5,92.5 865.6,91.9 867.7,91.3 869.9,90.5 872.0,90.0" fill="none" stroke="#38bdf8" stroke-width="2.5" stroke-linejoin="round" stroke-linecap="round"/>
<circle cx="872.0" cy="90.0" r="4" fill="#0ea5e9"/>
<text x="866.0" y="80.0" text-anchor="end" font-family="Inter, system-ui, sans-serif" font-size="13" font-weight="700" fill="#334155">4479</text>
<text x="52.0" y="294" text-anchor="middle" font-family="Inter, system-ui, sans-serif" font-size="11" fill="#94a3b8">Jun 10 05:00</text>
<text x="567.4" y="294" text-anchor="middle" font-family="Inter, system-ui, sans-serif" font-size="11" fill="#94a3b8">Jun 20 07:00</text>
<text x="872.0" y="294" text-anchor="middle" font-family="Inter, system-ui, sans-serif" font-size="11" fill="#94a3b8">Jun 26 06:00</text>
</svg>
