<svg xmlns="http://www.w3.org/2000/svg" width="900" height="320" viewBox="0 0 900 320" role="img" aria-labelledby="title desc">
<title id="title">unsorry proofs over time</title>
<desc id="desc">Cumulative kernel-verified proofs over time, by the hour each proof was merged.</desc>
<rect width="900" height="100%" rx="18" fill="#ffffff"/>
<rect x="0.5" y="0.5" width="899" height="319" rx="18" fill="none" stroke="#e2e8f0"/>
<text x="32" y="44" font-family="Inter, system-ui, sans-serif" font-size="28" font-weight="700" fill="#334155">unsorry — Proofs Over Time</text>
<text x="32" y="72" font-family="Inter, system-ui, sans-serif" font-size="13" fill="#64748b">4498 cumulative kernel-verified proofs · merged, hourly</text>
<line x1="52" y1="272.0" x2="872" y2="272.0" stroke="#f1f5f9"/>
<text x="44" y="276.0" text-anchor="end" font-family="Inter, system-ui, sans-serif" font-size="11" fill="#94a3b8">0</text>
<line x1="52" y1="226.5" x2="872" y2="226.5" stroke="#f1f5f9"/>
<text x="44" y="230.5" text-anchor="end" font-family="Inter, system-ui, sans-serif" font-size="11" fill="#94a3b8">1124</text>
<line x1="52" y1="181.0" x2="872" y2="181.0" stroke="#f1f5f9"/>
<text x="44" y="185.0" text-anchor="end" font-family="Inter, system-ui, sans-serif" font-size="11" fill="#94a3b8">2249</text>
<line x1="52" y1="135.5" x2="872" y2="135.5" stroke="#f1f5f9"/>
<text x="44" y="139.5" text-anchor="end" font-family="Inter, system-ui, sans-serif" font-size="11" fill="#94a3b8">3374</text>
<line x1="52" y1="90.0" x2="872" y2="90.0" stroke="#f1f5f9"/>
<text x="44" y="94.0" text-anchor="end" font-family="Inter, system-ui, sans-serif" font-size="11" fill="#94a3b8">4498</text>
<polygon points="52.0,272.0 52.0,272.0 54.1,271.9 79.6,271.5 81.7,271.4 83.9,271.3 90.2,271.3 103.0,271.2 130.6,271.2 132.7,270.8 134.8,270.8 141.2,270.7 143.3,270.7 145.5,270.6 147.6,270.5 151.8,270.5 154.0,270.3 160.3,270.1 168.8,270.0 171.0,269.9 173.1,269.8 190.1,269.8 194.3,269.7 205.0,269.7 207.1,269.7 209.2,269.6 217.7,269.5 219.8,269.3 221.9,269.1 224.1,268.6 226.2,268.5 241.1,268.4 247.4,268.4 251.7,268.4 253.8,268.3 255.9,268.1 258.1,268.1 260.2,268.0 262.3,267.9 264.4,267.8 272.9,267.6 277.2,267.5 285.7,267.5 287.8,267.3 289.9,267.3 292.1,267.2 296.3,267.1 298.4,266.3 300.5,265.5 302.7,265.2 304.8,265.0 306.9,265.0 309.0,264.8 311.2,264.5 313.3,264.3 315.4,264.2 317.5,264.1 321.8,263.9 323.9,263.6 326.0,263.3 328.2,263.0 330.3,262.8 334.5,262.7 338.8,262.7 340.9,262.4 343.0,262.2 345.2,261.6 347.3,261.3 349.4,261.0 351.5,260.6 353.7,260.3 355.8,259.9 357.9,259.5 360.0,259.1 362.2,258.6 364.3,258.3 366.4,258.0 368.5,257.8 370.7,257.4 372.8,257.3 374.9,257.1 377.0,256.9 379.2,256.8 381.3,256.7 385.5,256.7 387.6,255.9 389.8,255.3 391.9,255.2 394.0,255.1 398.3,255.0 400.4,254.9 408.9,254.9 413.1,254.8 419.5,254.8 421.6,253.8 423.8,252.9 425.9,252.7 428.0,252.0 430.1,251.4 432.3,251.0 434.4,250.8 436.5,250.5 438.6,250.3 440.8,250.2 442.9,250.1 445.0,250.0 457.8,249.3 459.9,248.5 462.0,248.4 464.1,248.3 466.2,248.2 481.1,248.2 500.2,247.4 502.4,246.7 504.5,245.9 506.6,244.8 508.7,244.6 510.9,244.2 513.0,243.6 515.1,243.1 517.2,242.0 519.4,240.4 521.5,238.8 523.6,237.0 525.7,235.0 527.9,233.3 530.0,232.3 532.1,231.0 534.2,229.2 536.4,227.6 538.5,226.5 540.6,225.4 542.7,223.9 544.8,222.9 547.0,221.9 549.1,221.1 551.2,220.5 553.3,219.6 555.5,219.1 557.6,218.5 559.7,218.0 561.8,216.6 564.0,215.4 566.1,214.7 568.2,214.5 570.3,214.2 572.5,213.6 574.6,213.0 576.7,212.1 578.8,211.5 581.0,210.9 583.1,210.8 585.2,210.6 587.3,210.1 589.5,209.0 591.6,207.1 593.7,205.1 595.8,203.1 598.0,201.5 600.1,199.6 602.2,197.5 604.3,195.5 606.5,193.6 608.6,192.2 610.7,191.1 612.8,189.9 615.0,188.6 617.1,187.8 619.2,186.9 621.3,186.1 623.5,185.1 625.6,183.7 627.7,182.0 629.8,180.6 631.9,179.3 634.1,178.5 636.2,177.8 638.3,177.0 640.4,176.2 642.6,174.8 644.7,173.7 646.8,172.3 648.9,170.8 651.1,169.6 653.2,168.6 655.3,168.2 657.4,167.6 659.6,167.1 661.7,167.0 663.8,166.9 665.9,166.6 668.1,166.5 670.2,166.5 672.3,166.3 674.4,166.2 680.8,166.2 682.9,166.1 685.1,165.9 687.2,164.2 689.3,162.8 691.4,161.5 693.6,160.1 695.7,158.9 697.8,157.6 699.9,156.3 702.1,155.1 704.2,153.7 706.3,152.5 708.4,151.3 710.5,150.0 712.7,148.9 714.8,147.7 716.9,146.5 719.0,145.5 721.2,144.3 723.3,143.2 725.4,142.1 727.5,141.0 729.7,139.9 731.8,139.2 733.9,138.5 736.0,137.7 738.2,136.7 740.3,135.8 742.4,134.9 744.5,133.8 746.7,132.8 748.8,132.0 750.9,131.0 753.0,130.1 755.2,129.1 757.3,128.2 759.4,127.2 761.5,126.4 763.7,125.4 765.8,124.6 767.9,123.9 770.0,122.9 772.2,122.1 774.3,121.3 776.4,120.7 778.5,120.1 780.7,119.7 782.8,119.6 784.9,118.7 787.0,118.0 789.2,117.2 791.3,116.3 793.4,115.6 795.5,114.8 797.6,114.0 799.8,113.3 801.9,112.5 804.0,111.8 806.1,111.2 808.3,110.5 810.4,109.7 812.5,109.0 814.6,108.3 816.8,107.6 818.9,106.9 821.0,106.3 823.1,105.5 825.3,104.9 827.4,104.3 829.5,103.5 831.6,102.7 833.8,102.0 835.9,101.2 838.0,100.5 840.1,100.0 842.3,99.3 844.4,98.5 846.5,97.9 848.6,97.5 850.8,96.9 852.9,96.2 855.0,95.5 857.1,94.6 859.3,93.9 861.4,93.2 863.5,92.6 865.6,92.0 867.8,91.3 869.9,90.6 872.0,90.0 872.0,272.0" fill="#e0f2fe" opacity="0.55"/>
<polyline points="52.0,272.0 54.1,271.9 79.6,271.5 81.7,271.4 83.9,271.3 90.2,271.3 103.0,271.2 130.6,271.2 132.7,270.8 134.8,270.8 141.2,270.7 143.3,270.7 145.5,270.6 147.6,270.5 151.8,270.5 154.0,270.3 160.3,270.1 168.8,270.0 171.0,269.9 173.1,269.8 190.1,269.8 194.3,269.7 205.0,269.7 207.1,269.7 209.2,269.6 217.7,269.5 219.8,269.3 221.9,269.1 224.1,268.6 226.2,268.5 241.1,268.4 247.4,268.4 251.7,268.4 253.8,268.3 255.9,268.1 258.1,268.1 260.2,268.0 262.3,267.9 264.4,267.8 272.9,267.6 277.2,267.5 285.7,267.5 287.8,267.3 289.9,267.3 292.1,267.2 296.3,267.1 298.4,266.3 300.5,265.5 302.7,265.2 304.8,265.0 306.9,265.0 309.0,264.8 311.2,264.5 313.3,264.3 315.4,264.2 317.5,264.1 321.8,263.9 323.9,263.6 326.0,263.3 328.2,263.0 330.3,262.8 334.5,262.7 338.8,262.7 340.9,262.4 343.0,262.2 345.2,261.6 347.3,261.3 349.4,261.0 351.5,260.6 353.7,260.3 355.8,259.9 357.9,259.5 360.0,259.1 362.2,258.6 364.3,258.3 366.4,258.0 368.5,257.8 370.7,257.4 372.8,257.3 374.9,257.1 377.0,256.9 379.2,256.8 381.3,256.7 385.5,256.7 387.6,255.9 389.8,255.3 391.9,255.2 394.0,255.1 398.3,255.0 400.4,254.9 408.9,254.9 413.1,254.8 419.5,254.8 421.6,253.8 423.8,252.9 425.9,252.7 428.0,252.0 430.1,251.4 432.3,251.0 434.4,250.8 436.5,250.5 438.6,250.3 440.8,250.2 442.9,250.1 445.0,250.0 457.8,249.3 459.9,248.5 462.0,248.4 464.1,248.3 466.2,248.2 481.1,248.2 500.2,247.4 502.4,246.7 504.5,245.9 506.6,244.8 508.7,244.6 510.9,244.2 513.0,243.6 515.1,243.1 517.2,242.0 519.4,240.4 521.5,238.8 523.6,237.0 525.7,235.0 527.9,233.3 530.0,232.3 532.1,231.0 534.2,229.2 536.4,227.6 538.5,226.5 540.6,225.4 542.7,223.9 544.8,222.9 547.0,221.9 549.1,221.1 551.2,220.5 553.3,219.6 555.5,219.1 557.6,218.5 559.7,218.0 561.8,216.6 564.0,215.4 566.1,214.7 568.2,214.5 570.3,214.2 572.5,213.6 574.6,213.0 576.7,212.1 578.8,211.5 581.0,210.9 583.1,210.8 585.2,210.6 587.3,210.1 589.5,209.0 591.6,207.1 593.7,205.1 595.8,203.1 598.0,201.5 600.1,199.6 602.2,197.5 604.3,195.5 606.5,193.6 608.6,192.2 610.7,191.1 612.8,189.9 615.0,188.6 617.1,187.8 619.2,186.9 621.3,186.1 623.5,185.1 625.6,183.7 627.7,182.0 629.8,180.6 631.9,179.3 634.1,178.5 636.2,177.8 638.3,177.0 640.4,176.2 642.6,174.8 644.7,173.7 646.8,172.3 648.9,170.8 651.1,169.6 653.2,168.6 655.3,168.2 657.4,167.6 659.6,167.1 661.7,167.0 663.8,166.9 665.9,166.6 668.1,166.5 670.2,166.5 672.3,166.3 674.4,166.2 680.8,166.2 682.9,166.1 685.1,165.9 687.2,164.2 689.3,162.8 691.4,161.5 693.6,160.1 695.7,158.9 697.8,157.6 699.9,156.3 702.1,155.1 704.2,153.7 706.3,152.5 708.4,151.3 710.5,150.0 712.7,148.9 714.8,147.7 716.9,146.5 719.0,145.5 721.2,144.3 723.3,143.2 725.4,142.1 727.5,141.0 729.7,139.9 731.8,139.2 733.9,138.5 736.0,137.7 738.2,136.7 740.3,135.8 742.4,134.9 744.5,133.8 746.7,132.8 748.8,132.0 750.9,131.0 753.0,130.1 755.2,129.1 757.3,128.2 759.4,127.2 761.5,126.4 763.7,125.4 765.8,124.6 767.9,123.9 770.0,122.9 772.2,122.1 774.3,121.3 776.4,120.7 778.5,120.1 780.7,119.7 782.8,119.6 784.9,118.7 787.0,118.0 789.2,117.2 791.3,116.3 793.4,115.6 795.5,114.8 797.6,114.0 799.8,113.3 801.9,112.5 804.0,111.8 806.1,111.2 808.3,110.5 810.4,109.7 812.5,109.0 814.6,108.3 816.8,107.6 818.9,106.9 821.0,106.3 823.1,105.5 825.3,104.9 827.4,104.3 829.5,103.5 831.6,102.7 833.8,102.0 835.9,101.2 838.0,100.5 840.1,100.0 842.3,99.3 844.4,98.5 846.5,97.9 848.6,97.5 850.8,96.9 852.9,96.2 855.0,95.5 857.1,94.6 859.3,93.9 861.4,93.2 863.5,92.6 865.6,92.0 867.8,91.3 869.9,90.6 872.0,90.0" fill="none" stroke="#38bdf8" stroke-width="2.5" stroke-linejoin="round" stroke-linecap="round"/>
<circle cx="872.0" cy="90.0" r="4" fill="#0ea5e9"/>
<text x="866.0" y="80.0" text-anchor="end" font-family="Inter, system-ui, sans-serif" font-size="13" font-weight="700" fill="#334155">4498</text>
<text x="52.0" y="294" text-anchor="middle" font-family="Inter, system-ui, sans-serif" font-size="11" fill="#94a3b8">Jun 10 05:00</text>
<text x="566.1" y="294" text-anchor="middle" font-family="Inter, system-ui, sans-serif" font-size="11" fill="#94a3b8">Jun 20 07:00</text>
<text x="872.0" y="294" text-anchor="middle" font-family="Inter, system-ui, sans-serif" font-size="11" fill="#94a3b8">Jun 26 07:00</text>
</svg>
