<svg xmlns="http://www.w3.org/2000/svg" width="900" height="320" viewBox="0 0 900 320" role="img" aria-labelledby="title desc">
<title id="title">unsorry proofs over time</title>
<desc id="desc">Cumulative kernel-verified proofs over time, by the hour each proof was merged.</desc>
<rect width="900" height="100%" rx="18" fill="#ffffff"/>
<rect x="0.5" y="0.5" width="899" height="319" rx="18" fill="none" stroke="#e2e8f0"/>
<text x="32" y="44" font-family="Inter, system-ui, sans-serif" font-size="28" font-weight="700" fill="#334155">unsorry — Proofs Over Time</text>
<text x="32" y="72" font-family="Inter, system-ui, sans-serif" font-size="13" fill="#64748b">3665 cumulative kernel-verified proofs · merged, hourly</text>
<line x1="52" y1="272.0" x2="872" y2="272.0" stroke="#f1f5f9"/>
<text x="44" y="276.0" text-anchor="end" font-family="Inter, system-ui, sans-serif" font-size="11" fill="#94a3b8">0</text>
<line x1="52" y1="226.5" x2="872" y2="226.5" stroke="#f1f5f9"/>
<text x="44" y="230.5" text-anchor="end" font-family="Inter, system-ui, sans-serif" font-size="11" fill="#94a3b8">916</text>
<line x1="52" y1="181.0" x2="872" y2="181.0" stroke="#f1f5f9"/>
<text x="44" y="185.0" text-anchor="end" font-family="Inter, system-ui, sans-serif" font-size="11" fill="#94a3b8">1832</text>
<line x1="52" y1="135.5" x2="872" y2="135.5" stroke="#f1f5f9"/>
<text x="44" y="139.5" text-anchor="end" font-family="Inter, system-ui, sans-serif" font-size="11" fill="#94a3b8">2749</text>
<line x1="52" y1="90.0" x2="872" y2="90.0" stroke="#f1f5f9"/>
<text x="44" y="94.0" text-anchor="end" font-family="Inter, system-ui, sans-serif" font-size="11" fill="#94a3b8">3665</text>
<polygon points="52.0,272.0 52.0,272.0 54.4,271.9 83.5,271.4 86.0,271.2 88.4,271.2 95.7,271.1 110.2,271.1 141.8,271.0 144.2,270.6 146.6,270.5 153.9,270.4 156.3,270.4 158.7,270.3 161.2,270.2 166.0,270.1 168.4,269.9 175.7,269.7 185.4,269.6 187.9,269.4 190.3,269.3 209.7,269.3 214.5,269.2 226.7,269.2 229.1,269.1 231.5,269.0 241.2,269.0 243.7,268.7 246.1,268.4 248.5,267.8 250.9,267.7 267.9,267.6 275.2,267.6 280.0,267.5 282.5,267.5 284.9,267.2 287.3,267.2 289.8,267.1 292.2,267.0 294.6,266.8 304.3,266.6 309.2,266.5 318.9,266.5 321.3,266.2 323.7,266.2 326.1,266.1 331.0,266.0 333.4,265.0 335.8,264.1 338.3,263.7 340.7,263.5 343.1,263.4 345.6,263.1 348.0,262.8 350.4,262.5 352.8,262.4 355.3,262.3 360.1,262.1 362.5,261.7 365.0,261.3 367.4,260.9 369.8,260.7 374.7,260.6 379.5,260.5 381.9,260.2 384.4,259.9 386.8,259.2 389.2,258.8 391.6,258.4 394.1,258.0 396.5,257.6 398.9,257.2 401.3,256.7 403.8,256.1 406.2,255.6 408.6,255.2 411.1,254.9 413.5,254.5 415.9,254.1 418.3,253.9 420.8,253.7 423.2,253.4 425.6,253.3 428.0,253.2 432.9,253.2 435.3,252.2 437.7,251.5 440.2,251.3 442.6,251.3 447.4,251.2 449.9,251.0 459.6,251.0 464.4,250.9 471.7,250.8 474.1,249.7 476.6,248.6 479.0,248.3 481.4,247.4 483.8,246.7 486.3,246.3 488.7,246.0 491.1,245.6 493.5,245.4 496.0,245.3 498.4,245.1 500.8,245.0 515.4,244.2 517.8,243.2 520.2,243.0 522.7,242.9 525.1,242.9 542.1,242.8 563.9,241.8 566.3,241.0 568.7,240.0 571.2,238.6 573.6,238.4 576.0,237.9 578.4,237.1 580.9,236.5 583.3,235.2 585.7,233.2 588.2,231.3 590.6,229.0 593.0,226.6 595.4,224.5 597.9,223.2 600.3,221.7 602.7,219.4 605.1,217.5 607.6,216.2 610.0,214.8 612.4,213.0 614.8,211.8 617.3,210.6 619.7,209.5 622.1,208.7 624.5,207.7 627.0,207.0 629.4,206.4 631.8,205.8 634.2,204.0 636.7,202.5 639.1,201.7 641.5,201.5 644.0,201.0 646.4,200.3 648.8,199.6 651.2,198.5 653.7,197.7 656.1,197.0 658.5,196.9 660.9,196.6 663.4,196.1 665.8,194.6 668.2,192.3 670.6,189.9 673.1,187.4 675.5,185.4 677.9,183.1 680.3,180.6 682.8,178.1 685.2,175.8 687.6,174.1 690.0,172.7 692.5,171.2 694.9,169.7 697.3,168.7 699.8,167.5 702.2,166.6 704.6,165.3 707.0,163.6 709.5,161.5 711.9,159.8 714.3,158.2 716.7,157.2 719.2,156.3 721.6,155.5 724.0,154.5 726.4,152.8 728.9,151.3 731.3,149.6 733.7,147.8 736.1,146.3 738.6,145.1 741.0,144.6 743.4,143.9 745.8,143.2 748.3,143.1 750.7,143.0 753.1,142.7 755.6,142.5 758.0,142.5 760.4,142.2 762.8,142.1 770.1,142.1 772.5,142.0 775.0,141.7 777.4,139.7 779.8,138.0 782.2,136.4 784.7,134.7 787.1,133.2 789.5,131.6 791.9,130.0 794.4,128.5 796.8,126.8 799.2,125.4 801.6,123.8 804.1,122.3 806.5,120.9 808.9,119.4 811.3,118.0 813.8,116.7 816.2,115.3 818.6,113.9 821.1,112.5 823.5,111.3 825.9,109.9 828.3,109.0 830.8,108.1 833.2,107.2 835.6,105.9 838.0,104.8 840.5,103.7 842.9,102.4 845.3,101.2 847.7,100.2 850.2,99.0 852.6,97.8 855.0,96.7 857.4,95.6 859.9,94.3 862.3,93.3 864.7,92.1 867.1,91.1 869.6,90.2 872.0,90.0 872.0,272.0" fill="#e0f2fe" opacity="0.55"/>
<polyline points="52.0,272.0 54.4,271.9 83.5,271.4 86.0,271.2 88.4,271.2 95.7,271.1 110.2,271.1 141.8,271.0 144.2,270.6 146.6,270.5 153.9,270.4 156.3,270.4 158.7,270.3 161.2,270.2 166.0,270.1 168.4,269.9 175.7,269.7 185.4,269.6 187.9,269.4 190.3,269.3 209.7,269.3 214.5,269.2 226.7,269.2 229.1,269.1 231.5,269.0 241.2,269.0 243.7,268.7 246.1,268.4 248.5,267.8 250.9,267.7 267.9,267.6 275.2,267.6 280.0,267.5 282.5,267.5 284.9,267.2 287.3,267.2 289.8,267.1 292.2,267.0 294.6,266.8 304.3,266.6 309.2,266.5 318.9,266.5 321.3,266.2 323.7,266.2 326.1,266.1 331.0,266.0 333.4,265.0 335.8,264.1 338.3,263.7 340.7,263.5 343.1,263.4 345.6,263.1 348.0,262.8 350.4,262.5 352.8,262.4 355.3,262.3 360.1,262.1 362.5,261.7 365.0,261.3 367.4,260.9 369.8,260.7 374.7,260.6 379.5,260.5 381.9,260.2 384.4,259.9 386.8,259.2 389.2,258.8 391.6,258.4 394.1,258.0 396.5,257.6 398.9,257.2 401.3,256.7 403.8,256.1 406.2,255.6 408.6,255.2 411.1,254.9 413.5,254.5 415.9,254.1 418.3,253.9 420.8,253.7 423.2,253.4 425.6,253.3 428.0,253.2 432.9,253.2 435.3,252.2 437.7,251.5 440.2,251.3 442.6,251.3 447.4,251.2 449.9,251.0 459.6,251.0 464.4,250.9 471.7,250.8 474.1,249.7 476.6,248.6 479.0,248.3 481.4,247.4 483.8,246.7 486.3,246.3 488.7,246.0 491.1,245.6 493.5,245.4 496.0,245.3 498.4,245.1 500.8,245.0 515.4,244.2 517.8,243.2 520.2,243.0 522.7,242.9 525.1,242.9 542.1,242.8 563.9,241.8 566.3,241.0 568.7,240.0 571.2,238.6 573.6,238.4 576.0,237.9 578.4,237.1 580.9,236.5 583.3,235.2 585.7,233.2 588.2,231.3 590.6,229.0 593.0,226.6 595.4,224.5 597.9,223.2 600.3,221.7 602.7,219.4 605.1,217.5 607.6,216.2 610.0,214.8 612.4,213.0 614.8,211.8 617.3,210.6 619.7,209.5 622.1,208.7 624.5,207.7 627.0,207.0 629.4,206.4 631.8,205.8 634.2,204.0 636.7,202.5 639.1,201.7 641.5,201.5 644.0,201.0 646.4,200.3 648.8,199.6 651.2,198.5 653.7,197.7 656.1,197.0 658.5,196.9 660.9,196.6 663.4,196.1 665.8,194.6 668.2,192.3 670.6,189.9 673.1,187.4 675.5,185.4 677.9,183.1 680.3,180.6 682.8,178.1 685.2,175.8 687.6,174.1 690.0,172.7 692.5,171.2 694.9,169.7 697.3,168.7 699.8,167.5 702.2,166.6 704.6,165.3 707.0,163.6 709.5,161.5 711.9,159.8 714.3,158.2 716.7,157.2 719.2,156.3 721.6,155.5 724.0,154.5 726.4,152.8 728.9,151.3 731.3,149.6 733.7,147.8 736.1,146.3 738.6,145.1 741.0,144.6 743.4,143.9 745.8,143.2 748.3,143.1 750.7,143.0 753.1,142.7 755.6,142.5 758.0,142.5 760.4,142.2 762.8,142.1 770.1,142.1 772.5,142.0 775.0,141.7 777.4,139.7 779.8,138.0 782.2,136.4 784.7,134.7 787.1,133.2 789.5,131.6 791.9,130.0 794.4,128.5 796.8,126.8 799.2,125.4 801.6,123.8 804.1,122.3 806.5,120.9 808.9,119.4 811.3,118.0 813.8,116.7 816.2,115.3 818.6,113.9 821.1,112.5 823.5,111.3 825.9,109.9 828.3,109.0 830.8,108.1 833.2,107.2 835.6,105.9 838.0,104.8 840.5,103.7 842.9,102.4 845.3,101.2 847.7,100.2 850.2,99.0 852.6,97.8 855.0,96.7 857.4,95.6 859.9,94.3 862.3,93.3 864.7,92.1 867.1,91.1 869.6,90.2 872.0,90.0" fill="none" stroke="#38bdf8" stroke-width="2.5" stroke-linejoin="round" stroke-linecap="round"/>
<circle cx="872.0" cy="90.0" r="4" fill="#0ea5e9"/>
<text x="866.0" y="80.0" text-anchor="end" font-family="Inter, system-ui, sans-serif" font-size="13" font-weight="700" fill="#334155">3665</text>
<text x="52.0" y="294" text-anchor="middle" font-family="Inter, system-ui, sans-serif" font-size="11" fill="#94a3b8">Jun 10 05:00</text>
<text x="580.9" y="294" text-anchor="middle" font-family="Inter, system-ui, sans-serif" font-size="11" fill="#94a3b8">Jun 19 07:00</text>
<text x="872.0" y="294" text-anchor="middle" font-family="Inter, system-ui, sans-serif" font-size="11" fill="#94a3b8">Jun 24 07:00</text>
</svg>
