<svg xmlns="http://www.w3.org/2000/svg" width="900" height="320" viewBox="0 0 900 320" role="img" aria-labelledby="title desc">
<title id="title">unsorry proofs over time</title>
<desc id="desc">Cumulative kernel-verified proofs over time, by the hour each proof was merged.</desc>
<rect width="900" height="100%" rx="18" fill="#ffffff"/>
<rect x="0.5" y="0.5" width="899" height="319" rx="18" fill="none" stroke="#e2e8f0"/>
<text x="32" y="44" font-family="Inter, system-ui, sans-serif" font-size="28" font-weight="700" fill="#334155">unsorry — Proofs Over Time</text>
<text x="32" y="72" font-family="Inter, system-ui, sans-serif" font-size="13" fill="#64748b">3325 cumulative kernel-verified proofs · merged, hourly</text>
<line x1="52" y1="272.0" x2="872" y2="272.0" stroke="#f1f5f9"/>
<text x="44" y="276.0" text-anchor="end" font-family="Inter, system-ui, sans-serif" font-size="11" fill="#94a3b8">0</text>
<line x1="52" y1="226.5" x2="872" y2="226.5" stroke="#f1f5f9"/>
<text x="44" y="230.5" text-anchor="end" font-family="Inter, system-ui, sans-serif" font-size="11" fill="#94a3b8">831</text>
<line x1="52" y1="181.0" x2="872" y2="181.0" stroke="#f1f5f9"/>
<text x="44" y="185.0" text-anchor="end" font-family="Inter, system-ui, sans-serif" font-size="11" fill="#94a3b8">1662</text>
<line x1="52" y1="135.5" x2="872" y2="135.5" stroke="#f1f5f9"/>
<text x="44" y="139.5" text-anchor="end" font-family="Inter, system-ui, sans-serif" font-size="11" fill="#94a3b8">2494</text>
<line x1="52" y1="90.0" x2="872" y2="90.0" stroke="#f1f5f9"/>
<text x="44" y="94.0" text-anchor="end" font-family="Inter, system-ui, sans-serif" font-size="11" fill="#94a3b8">3325</text>
<polygon points="52.0,272.0 52.0,271.9 54.5,271.8 85.0,271.3 87.5,271.1 90.1,271.1 97.7,271.0 112.9,271.0 145.9,270.9 148.5,270.4 151.0,270.4 158.6,270.2 161.2,270.2 163.7,270.1 166.2,270.0 171.3,269.9 173.9,269.6 181.5,269.4 191.6,269.3 194.2,269.2 196.7,269.0 217.0,269.0 222.1,268.9 234.8,268.9 237.3,268.8 239.9,268.7 250.0,268.7 252.6,268.3 255.1,268.1 257.6,267.3 260.2,267.2 277.9,267.2 285.6,267.1 290.6,267.1 293.2,267.0 295.7,266.7 298.3,266.7 300.8,266.6 303.3,266.5 305.9,266.3 316.0,266.0 321.1,266.0 331.3,265.9 333.8,265.7 336.3,265.6 338.9,265.5 344.0,265.4 346.5,264.3 349.0,263.2 351.6,262.9 354.1,262.6 356.6,262.5 359.2,262.2 361.7,261.8 364.3,261.5 366.8,261.4 369.3,261.3 374.4,261.1 377.0,260.7 379.5,260.2 382.0,259.8 384.6,259.5 389.6,259.4 394.7,259.4 397.3,259.0 399.8,258.7 402.3,257.9 404.9,257.5 407.4,257.1 410.0,256.6 412.5,256.1 415.0,255.6 417.6,255.1 420.1,254.5 422.7,253.9 425.2,253.4 427.7,253.1 430.3,252.7 432.8,252.3 435.3,252.1 437.9,251.8 440.4,251.5 443.0,251.4 445.5,251.3 450.6,251.3 453.1,250.2 455.7,249.4 458.2,249.2 460.7,249.2 465.8,249.1 468.3,248.9 478.5,248.8 483.6,248.7 491.2,248.7 493.7,247.4 496.3,246.2 498.8,245.9 501.3,244.9 503.9,244.1 506.4,243.6 509.0,243.4 511.5,242.9 514.0,242.7 516.6,242.6 519.1,242.3 521.7,242.2 536.9,241.3 539.4,240.3 542.0,240.1 544.5,239.9 547.0,239.9 564.8,239.8 587.7,238.7 590.2,237.8 592.7,236.7 595.3,235.2 597.8,234.9 600.4,234.5 602.9,233.6 605.4,232.9 608.0,231.4 610.5,229.3 613.1,227.1 615.6,224.6 618.1,222.0 620.7,219.7 623.2,218.2 625.7,216.6 628.3,214.0 630.8,211.9 633.4,210.5 635.9,209.0 638.4,206.9 641.0,205.6 643.5,204.3 646.1,203.1 648.6,202.3 651.1,201.1 653.7,200.4 656.2,199.6 658.7,199.0 661.3,197.0 663.8,195.4 666.4,194.5 668.9,194.3 671.4,193.8 674.0,193.0 676.5,192.2 679.1,190.9 681.6,190.1 684.1,189.3 686.7,189.2 689.2,188.9 691.8,188.3 694.3,186.7 696.8,184.1 699.4,181.5 701.9,178.8 704.4,176.6 707.0,174.0 709.5,171.3 712.1,168.5 714.6,165.9 717.1,164.1 719.7,162.6 722.2,160.9 724.8,159.2 727.3,158.1 729.8,156.8 732.4,155.8 734.9,154.4 737.4,152.5 740.0,150.2 742.5,148.3 745.1,146.6 747.6,145.5 750.1,144.5 752.7,143.5 755.2,142.4 757.8,140.6 760.3,139.0 762.8,137.1 765.4,135.1 767.9,133.5 770.5,132.1 773.0,131.6 775.5,130.8 778.1,130.1 780.6,130.0 783.1,129.8 785.7,129.5 788.2,129.3 790.8,129.2 793.3,129.0 795.8,128.9 803.5,128.8 806.0,128.8 808.5,128.4 811.1,126.2 813.6,124.3 816.1,122.6 818.7,120.7 821.2,119.0 823.8,117.3 826.3,115.5 828.8,113.8 831.4,112.0 833.9,110.4 836.5,108.7 839.0,107.0 841.5,105.4 844.1,103.8 846.6,102.2 849.2,100.8 851.7,99.3 854.2,97.8 856.8,96.2 859.3,94.8 861.8,93.3 864.4,92.4 866.9,91.4 869.5,90.4 872.0,90.0 872.0,272.0" fill="#e0f2fe" opacity="0.55"/>
<polyline points="52.0,271.9 54.5,271.8 85.0,271.3 87.5,271.1 90.1,271.1 97.7,271.0 112.9,271.0 145.9,270.9 148.5,270.4 151.0,270.4 158.6,270.2 161.2,270.2 163.7,270.1 166.2,270.0 171.3,269.9 173.9,269.6 181.5,269.4 191.6,269.3 194.2,269.2 196.7,269.0 217.0,269.0 222.1,268.9 234.8,268.9 237.3,268.8 239.9,268.7 250.0,268.7 252.6,268.3 255.1,268.1 257.6,267.3 260.2,267.2 277.9,267.2 285.6,267.1 290.6,267.1 293.2,267.0 295.7,266.7 298.3,266.7 300.8,266.6 303.3,266.5 305.9,266.3 316.0,266.0 321.1,266.0 331.3,265.9 333.8,265.7 336.3,265.6 338.9,265.5 344.0,265.4 346.5,264.3 349.0,263.2 351.6,262.9 354.1,262.6 356.6,262.5 359.2,262.2 361.7,261.8 364.3,261.5 366.8,261.4 369.3,261.3 374.4,261.1 377.0,260.7 379.5,260.2 382.0,259.8 384.6,259.5 389.6,259.4 394.7,259.4 397.3,259.0 399.8,258.7 402.3,257.9 404.9,257.5 407.4,257.1 410.0,256.6 412.5,256.1 415.0,255.6 417.6,255.1 420.1,254.5 422.7,253.9 425.2,253.4 427.7,253.1 430.3,252.7 432.8,252.3 435.3,252.1 437.9,251.8 440.4,251.5 443.0,251.4 445.5,251.3 450.6,251.3 453.1,250.2 455.7,249.4 458.2,249.2 460.7,249.2 465.8,249.1 468.3,248.9 478.5,248.8 483.6,248.7 491.2,248.7 493.7,247.4 496.3,246.2 498.8,245.9 501.3,244.9 503.9,244.1 506.4,243.6 509.0,243.4 511.5,242.9 514.0,242.7 516.6,242.6 519.1,242.3 521.7,242.2 536.9,241.3 539.4,240.3 542.0,240.1 544.5,239.9 547.0,239.9 564.8,239.8 587.7,238.7 590.2,237.8 592.7,236.7 595.3,235.2 597.8,234.9 600.4,234.5 602.9,233.6 605.4,232.9 608.0,231.4 610.5,229.3 613.1,227.1 615.6,224.6 618.1,222.0 620.7,219.7 623.2,218.2 625.7,216.6 628.3,214.0 630.8,211.9 633.4,210.5 635.9,209.0 638.4,206.9 641.0,205.6 643.5,204.3 646.1,203.1 648.6,202.3 651.1,201.1 653.7,200.4 656.2,199.6 658.7,199.0 661.3,197.0 663.8,195.4 666.4,194.5 668.9,194.3 671.4,193.8 674.0,193.0 676.5,192.2 679.1,190.9 681.6,190.1 684.1,189.3 686.7,189.2 689.2,188.9 691.8,188.3 694.3,186.7 696.8,184.1 699.4,181.5 701.9,178.8 704.4,176.6 707.0,174.0 709.5,171.3 712.1,168.5 714.6,165.9 717.1,164.1 719.7,162.6 722.2,160.9 724.8,159.2 727.3,158.1 729.8,156.8 732.4,155.8 734.9,154.4 737.4,152.5 740.0,150.2 742.5,148.3 745.1,146.6 747.6,145.5 750.1,144.5 752.7,143.5 755.2,142.4 757.8,140.6 760.3,139.0 762.8,137.1 765.4,135.1 767.9,133.5 770.5,132.1 773.0,131.6 775.5,130.8 778.1,130.1 780.6,130.0 783.1,129.8 785.7,129.5 788.2,129.3 790.8,129.2 793.3,129.0 795.8,128.9 803.5,128.8 806.0,128.8 808.5,128.4 811.1,126.2 813.6,124.3 816.1,122.6 818.7,120.7 821.2,119.0 823.8,117.3 826.3,115.5 828.8,113.8 831.4,112.0 833.9,110.4 836.5,108.7 839.0,107.0 841.5,105.4 844.1,103.8 846.6,102.2 849.2,100.8 851.7,99.3 854.2,97.8 856.8,96.2 859.3,94.8 861.8,93.3 864.4,92.4 866.9,91.4 869.5,90.4 872.0,90.0" fill="none" stroke="#38bdf8" stroke-width="2.5" stroke-linejoin="round" stroke-linecap="round"/>
<circle cx="872.0" cy="90.0" r="4" fill="#0ea5e9"/>
<text x="866.0" y="80.0" text-anchor="end" font-family="Inter, system-ui, sans-serif" font-size="13" font-weight="700" fill="#334155">3325</text>
<text x="52.0" y="294" text-anchor="middle" font-family="Inter, system-ui, sans-serif" font-size="11" fill="#94a3b8">Jun 10 05:00</text>
<text x="587.7" y="294" text-anchor="middle" font-family="Inter, system-ui, sans-serif" font-size="11" fill="#94a3b8">Jun 19 00:00</text>
<text x="872.0" y="294" text-anchor="middle" font-family="Inter, system-ui, sans-serif" font-size="11" fill="#94a3b8">Jun 23 16:00</text>
</svg>
