<svg xmlns="http://www.w3.org/2000/svg" width="900" height="320" viewBox="0 0 900 320" role="img" aria-labelledby="title desc">
<title id="title">unsorry proofs over time</title>
<desc id="desc">Cumulative kernel-verified proofs over time, by the hour each proof was merged.</desc>
<rect width="900" height="100%" rx="18" fill="#ffffff"/>
<rect x="0.5" y="0.5" width="899" height="319" rx="18" fill="none" stroke="#e2e8f0"/>
<text x="32" y="44" font-family="Inter, system-ui, sans-serif" font-size="28" font-weight="700" fill="#334155">unsorry — Proofs Over Time</text>
<text x="32" y="72" font-family="Inter, system-ui, sans-serif" font-size="13" fill="#64748b">4507 cumulative kernel-verified proofs · merged, hourly</text>
<line x1="52" y1="272.0" x2="872" y2="272.0" stroke="#f1f5f9"/>
<text x="44" y="276.0" text-anchor="end" font-family="Inter, system-ui, sans-serif" font-size="11" fill="#94a3b8">0</text>
<line x1="52" y1="226.5" x2="872" y2="226.5" stroke="#f1f5f9"/>
<text x="44" y="230.5" text-anchor="end" font-family="Inter, system-ui, sans-serif" font-size="11" fill="#94a3b8">1127</text>
<line x1="52" y1="181.0" x2="872" y2="181.0" stroke="#f1f5f9"/>
<text x="44" y="185.0" text-anchor="end" font-family="Inter, system-ui, sans-serif" font-size="11" fill="#94a3b8">2254</text>
<line x1="52" y1="135.5" x2="872" y2="135.5" stroke="#f1f5f9"/>
<text x="44" y="139.5" text-anchor="end" font-family="Inter, system-ui, sans-serif" font-size="11" fill="#94a3b8">3380</text>
<line x1="52" y1="90.0" x2="872" y2="90.0" stroke="#f1f5f9"/>
<text x="44" y="94.0" text-anchor="end" font-family="Inter, system-ui, sans-serif" font-size="11" fill="#94a3b8">4507</text>
<polygon points="52.0,272.0 52.0,272.0 54.1,271.9 79.5,271.5 81.7,271.4 83.8,271.3 90.1,271.3 102.9,271.2 130.4,271.2 132.5,270.8 134.6,270.8 141.0,270.7 143.1,270.7 145.2,270.6 147.3,270.5 151.6,270.5 153.7,270.3 160.1,270.1 168.5,270.0 170.7,269.9 172.8,269.8 189.7,269.8 194.0,269.7 204.6,269.7 206.7,269.7 208.8,269.6 217.3,269.5 219.4,269.3 221.5,269.1 223.6,268.6 225.7,268.5 240.6,268.4 246.9,268.4 251.2,268.4 253.3,268.3 255.4,268.1 257.5,268.1 259.6,268.0 261.8,267.9 263.9,267.8 272.4,267.6 276.6,267.6 285.1,267.5 287.2,267.3 289.3,267.3 291.4,267.2 295.7,267.2 297.8,266.3 299.9,265.5 302.0,265.3 304.1,265.1 306.3,265.0 308.4,264.8 310.5,264.5 312.6,264.3 314.7,264.2 316.9,264.1 321.1,264.0 323.2,263.6 325.3,263.3 327.5,263.0 329.6,262.8 333.8,262.7 338.0,262.7 340.2,262.4 342.3,262.2 344.4,261.6 346.5,261.3 348.6,261.0 350.8,260.7 352.9,260.3 355.0,259.9 357.1,259.5 359.2,259.1 361.4,258.7 363.5,258.3 365.6,258.1 367.7,257.8 369.8,257.5 371.9,257.3 374.1,257.1 376.2,256.9 378.3,256.8 380.4,256.7 384.7,256.7 386.8,255.9 388.9,255.3 391.0,255.2 393.1,255.2 397.4,255.1 399.5,255.0 408.0,254.9 412.2,254.8 418.6,254.8 420.7,253.9 422.8,253.0 424.9,252.7 427.0,252.0 429.2,251.4 431.3,251.1 433.4,250.9 435.5,250.5 437.6,250.4 439.8,250.3 441.9,250.1 444.0,250.0 456.7,249.4 458.8,248.6 460.9,248.5 463.1,248.3 465.2,248.3 480.0,248.3 499.1,247.4 501.2,246.8 503.3,246.0 505.4,244.9 507.6,244.7 509.7,244.3 511.8,243.7 513.9,243.2 516.0,242.1 518.1,240.5 520.3,238.9 522.4,237.0 524.5,235.1 526.6,233.4 528.7,232.3 530.9,231.1 533.0,229.2 535.1,227.7 537.2,226.6 539.3,225.5 541.5,224.0 543.6,223.0 545.7,222.0 547.8,221.2 549.9,220.6 552.1,219.7 554.2,219.2 556.3,218.6 558.4,218.1 560.5,216.7 562.6,215.5 564.8,214.9 566.9,214.7 569.0,214.3 571.1,213.7 573.2,213.2 575.4,212.2 577.5,211.6 579.6,211.0 581.7,210.9 583.8,210.7 586.0,210.3 588.1,209.1 590.2,207.2 592.3,205.2 594.4,203.2 596.5,201.6 598.7,199.7 600.8,197.7 602.9,195.6 605.0,193.7 607.1,192.4 609.3,191.3 611.4,190.0 613.5,188.8 615.6,188.0 617.7,187.0 619.9,186.3 622.0,185.3 624.1,183.8 626.2,182.2 628.3,180.7 630.4,179.5 632.6,178.7 634.7,178.0 636.8,177.2 638.9,176.4 641.0,175.0 643.2,173.9 645.3,172.5 647.4,171.0 649.5,169.8 651.6,168.8 653.8,168.4 655.9,167.9 658.0,167.3 660.1,167.2 662.2,167.1 664.4,166.8 666.5,166.7 668.6,166.7 670.7,166.5 672.8,166.4 679.2,166.4 681.3,166.3 683.4,166.1 685.5,164.4 687.7,163.0 689.8,161.8 691.9,160.3 694.0,159.1 696.1,157.8 698.3,156.5 700.4,155.3 702.5,154.0 704.6,152.8 706.7,151.5 708.8,150.3 711.0,149.1 713.1,147.9 715.2,146.7 717.3,145.7 719.4,144.6 721.6,143.5 723.7,142.3 725.8,141.3 727.9,140.2 730.0,139.5 732.2,138.7 734.3,138.0 736.4,137.0 738.5,136.0 740.6,135.1 742.7,134.1 744.9,133.1 747.0,132.3 749.1,131.3 751.2,130.3 753.3,129.4 755.5,128.5 757.6,127.5 759.7,126.7 761.8,125.7 763.9,124.9 766.1,124.2 768.2,123.2 770.3,122.4 772.4,121.6 774.5,121.0 776.7,120.4 778.8,120.0 780.9,119.9 783.0,119.0 785.1,118.3 787.2,117.5 789.4,116.6 791.5,115.9 793.6,115.1 795.7,114.4 797.8,113.6 800.0,112.9 802.1,112.2 804.2,111.5 806.3,110.8 808.4,110.0 810.6,109.3 812.7,108.6 814.8,107.9 816.9,107.2 819.0,106.6 821.1,105.8 823.3,105.2 825.4,104.7 827.5,103.8 829.6,103.0 831.7,102.4 833.9,101.6 836.0,100.9 838.1,100.3 840.2,99.7 842.3,98.8 844.5,98.3 846.6,97.9 848.7,97.2 850.8,96.5 852.9,95.8 855.0,95.0 857.2,94.3 859.3,93.6 861.4,93.0 863.5,92.4 865.6,91.6 867.8,91.0 869.9,90.4 872.0,90.0 872.0,272.0" fill="#e0f2fe" opacity="0.55"/>
<polyline points="52.0,272.0 54.1,271.9 79.5,271.5 81.7,271.4 83.8,271.3 90.1,271.3 102.9,271.2 130.4,271.2 132.5,270.8 134.6,270.8 141.0,270.7 143.1,270.7 145.2,270.6 147.3,270.5 151.6,270.5 153.7,270.3 160.1,270.1 168.5,270.0 170.7,269.9 172.8,269.8 189.7,269.8 194.0,269.7 204.6,269.7 206.7,269.7 208.8,269.6 217.3,269.5 219.4,269.3 221.5,269.1 223.6,268.6 225.7,268.5 240.6,268.4 246.9,268.4 251.2,268.4 253.3,268.3 255.4,268.1 257.5,268.1 259.6,268.0 261.8,267.9 263.9,267.8 272.4,267.6 276.6,267.6 285.1,267.5 287.2,267.3 289.3,267.3 291.4,267.2 295.7,267.2 297.8,266.3 299.9,265.5 302.0,265.3 304.1,265.1 306.3,265.0 308.4,264.8 310.5,264.5 312.6,264.3 314.7,264.2 316.9,264.1 321.1,264.0 323.2,263.6 325.3,263.3 327.5,263.0 329.6,262.8 333.8,262.7 338.0,262.7 340.2,262.4 342.3,262.2 344.4,261.6 346.5,261.3 348.6,261.0 350.8,260.7 352.9,260.3 355.0,259.9 357.1,259.5 359.2,259.1 361.4,258.7 363.5,258.3 365.6,258.1 367.7,257.8 369.8,257.5 371.9,257.3 374.1,257.1 376.2,256.9 378.3,256.8 380.4,256.7 384.7,256.7 386.8,255.9 388.9,255.3 391.0,255.2 393.1,255.2 397.4,255.1 399.5,255.0 408.0,254.9 412.2,254.8 418.6,254.8 420.7,253.9 422.8,253.0 424.9,252.7 427.0,252.0 429.2,251.4 431.3,251.1 433.4,250.9 435.5,250.5 437.6,250.4 439.8,250.3 441.9,250.1 444.0,250.0 456.7,249.4 458.8,248.6 460.9,248.5 463.1,248.3 465.2,248.3 480.0,248.3 499.1,247.4 501.2,246.8 503.3,246.0 505.4,244.9 507.6,244.7 509.7,244.3 511.8,243.7 513.9,243.2 516.0,242.1 518.1,240.5 520.3,238.9 522.4,237.0 524.5,235.1 526.6,233.4 528.7,232.3 530.9,231.1 533.0,229.2 535.1,227.7 537.2,226.6 539.3,225.5 541.5,224.0 543.6,223.0 545.7,222.0 547.8,221.2 549.9,220.6 552.1,219.7 554.2,219.2 556.3,218.6 558.4,218.1 560.5,216.7 562.6,215.5 564.8,214.9 566.9,214.7 569.0,214.3 571.1,213.7 573.2,213.2 575.4,212.2 577.5,211.6 579.6,211.0 581.7,210.9 583.8,210.7 586.0,210.3 588.1,209.1 590.2,207.2 592.3,205.2 594.4,203.2 596.5,201.6 598.7,199.7 600.8,197.7 602.9,195.6 605.0,193.7 607.1,192.4 609.3,191.3 611.4,190.0 613.5,188.8 615.6,188.0 617.7,187.0 619.9,186.3 622.0,185.3 624.1,183.8 626.2,182.2 628.3,180.7 630.4,179.5 632.6,178.7 634.7,178.0 636.8,177.2 638.9,176.4 641.0,175.0 643.2,173.9 645.3,172.5 647.4,171.0 649.5,169.8 651.6,168.8 653.8,168.4 655.9,167.9 658.0,167.3 660.1,167.2 662.2,167.1 664.4,166.8 666.5,166.7 668.6,166.7 670.7,166.5 672.8,166.4 679.2,166.4 681.3,166.3 683.4,166.1 685.5,164.4 687.7,163.0 689.8,161.8 691.9,160.3 694.0,159.1 696.1,157.8 698.3,156.5 700.4,155.3 702.5,154.0 704.6,152.8 706.7,151.5 708.8,150.3 711.0,149.1 713.1,147.9 715.2,146.7 717.3,145.7 719.4,144.6 721.6,143.5 723.7,142.3 725.8,141.3 727.9,140.2 730.0,139.5 732.2,138.7 734.3,138.0 736.4,137.0 738.5,136.0 740.6,135.1 742.7,134.1 744.9,133.1 747.0,132.3 749.1,131.3 751.2,130.3 753.3,129.4 755.5,128.5 757.6,127.5 759.7,126.7 761.8,125.7 763.9,124.9 766.1,124.2 768.2,123.2 770.3,122.4 772.4,121.6 774.5,121.0 776.7,120.4 778.8,120.0 780.9,119.9 783.0,119.0 785.1,118.3 787.2,117.5 789.4,116.6 791.5,115.9 793.6,115.1 795.7,114.4 797.8,113.6 800.0,112.9 802.1,112.2 804.2,111.5 806.3,110.8 808.4,110.0 810.6,109.3 812.7,108.6 814.8,107.9 816.9,107.2 819.0,106.6 821.1,105.8 823.3,105.2 825.4,104.7 827.5,103.8 829.6,103.0 831.7,102.4 833.9,101.6 836.0,100.9 838.1,100.3 840.2,99.7 842.3,98.8 844.5,98.3 846.6,97.9 848.7,97.2 850.8,96.5 852.9,95.8 855.0,95.0 857.2,94.3 859.3,93.6 861.4,93.0 863.5,92.4 865.6,91.6 867.8,91.0 869.9,90.4 872.0,90.0" fill="none" stroke="#38bdf8" stroke-width="2.5" stroke-linejoin="round" stroke-linecap="round"/>
<circle cx="872.0" cy="90.0" r="4" fill="#0ea5e9"/>
<text x="866.0" y="80.0" text-anchor="end" font-family="Inter, system-ui, sans-serif" font-size="13" font-weight="700" fill="#334155">4507</text>
<text x="52.0" y="294" text-anchor="middle" font-family="Inter, system-ui, sans-serif" font-size="11" fill="#94a3b8">Jun 10 05:00</text>
<text x="566.9" y="294" text-anchor="middle" font-family="Inter, system-ui, sans-serif" font-size="11" fill="#94a3b8">Jun 20 08:00</text>
<text x="872.0" y="294" text-anchor="middle" font-family="Inter, system-ui, sans-serif" font-size="11" fill="#94a3b8">Jun 26 08:00</text>
</svg>
