<svg xmlns="http://www.w3.org/2000/svg" width="900" height="320" viewBox="0 0 900 320" role="img" aria-labelledby="title desc">
<title id="title">unsorry proofs over time</title>
<desc id="desc">Cumulative kernel-verified proofs over time, by the hour each proof was merged.</desc>
<rect width="900" height="100%" rx="18" fill="#ffffff"/>
<rect x="0.5" y="0.5" width="899" height="319" rx="18" fill="none" stroke="#e2e8f0"/>
<text x="32" y="44" font-family="Inter, system-ui, sans-serif" font-size="28" font-weight="700" fill="#334155">unsorry — Proofs Over Time</text>
<text x="32" y="72" font-family="Inter, system-ui, sans-serif" font-size="13" fill="#64748b">4584 cumulative kernel-verified proofs · merged, hourly</text>
<line x1="52" y1="272.0" x2="872" y2="272.0" stroke="#f1f5f9"/>
<text x="44" y="276.0" text-anchor="end" font-family="Inter, system-ui, sans-serif" font-size="11" fill="#94a3b8">0</text>
<line x1="52" y1="226.5" x2="872" y2="226.5" stroke="#f1f5f9"/>
<text x="44" y="230.5" text-anchor="end" font-family="Inter, system-ui, sans-serif" font-size="11" fill="#94a3b8">1146</text>
<line x1="52" y1="181.0" x2="872" y2="181.0" stroke="#f1f5f9"/>
<text x="44" y="185.0" text-anchor="end" font-family="Inter, system-ui, sans-serif" font-size="11" fill="#94a3b8">2292</text>
<line x1="52" y1="135.5" x2="872" y2="135.5" stroke="#f1f5f9"/>
<text x="44" y="139.5" text-anchor="end" font-family="Inter, system-ui, sans-serif" font-size="11" fill="#94a3b8">3438</text>
<line x1="52" y1="90.0" x2="872" y2="90.0" stroke="#f1f5f9"/>
<text x="44" y="94.0" text-anchor="end" font-family="Inter, system-ui, sans-serif" font-size="11" fill="#94a3b8">4584</text>
<polygon points="52.0,272.0 52.0,272.0 54.1,271.9 79.2,271.5 81.3,271.4 83.4,271.3 89.7,271.3 102.2,271.2 129.4,271.2 131.5,270.8 133.6,270.8 139.9,270.7 141.9,270.7 144.0,270.7 146.1,270.5 150.3,270.5 152.4,270.3 158.7,270.1 167.1,270.1 169.1,269.9 171.2,269.9 188.0,269.8 192.2,269.8 202.6,269.7 204.7,269.7 206.8,269.6 215.2,269.6 217.3,269.3 219.3,269.1 221.4,268.6 223.5,268.5 238.2,268.5 244.4,268.5 248.6,268.4 250.7,268.4 252.8,268.2 254.9,268.1 257.0,268.1 259.1,268.0 261.2,267.9 269.6,267.7 273.7,267.6 282.1,267.6 284.2,267.4 286.3,267.4 288.4,267.3 292.6,267.2 294.7,266.4 296.7,265.6 298.8,265.4 300.9,265.2 303.0,265.1 305.1,264.9 307.2,264.6 309.3,264.4 311.4,264.3 313.5,264.2 317.7,264.1 319.8,263.8 321.8,263.5 323.9,263.1 326.0,262.9 330.2,262.9 334.4,262.8 336.5,262.6 338.6,262.4 340.7,261.8 342.8,261.5 344.9,261.2 346.9,260.8 349.0,260.5 351.1,260.1 353.2,259.7 355.3,259.3 357.4,258.9 359.5,258.5 361.6,258.3 363.7,258.0 365.8,257.7 367.9,257.5 370.0,257.3 372.1,257.2 374.1,257.1 376.2,257.0 380.4,257.0 382.5,256.2 384.6,255.6 386.7,255.5 388.8,255.4 393.0,255.4 395.1,255.2 403.4,255.2 407.6,255.1 413.9,255.1 416.0,254.2 418.1,253.3 420.2,253.1 422.3,252.3 424.3,251.8 426.4,251.4 428.5,251.2 430.6,250.9 432.7,250.7 434.8,250.6 436.9,250.5 439.0,250.4 451.5,249.8 453.6,249.0 455.7,248.9 457.8,248.7 459.9,248.7 474.6,248.7 493.4,247.8 495.5,247.2 497.6,246.4 499.7,245.3 501.7,245.1 503.8,244.8 505.9,244.1 508.0,243.7 510.1,242.6 512.2,241.0 514.3,239.4 516.4,237.6 518.5,235.7 520.6,234.0 522.7,233.0 524.8,231.8 526.8,230.0 528.9,228.4 531.0,227.4 533.1,226.3 535.2,224.8 537.3,223.8 539.4,222.9 541.5,222.1 543.6,221.4 545.7,220.6 547.8,220.1 549.9,219.5 551.9,219.0 554.0,217.6 556.1,216.5 558.2,215.8 560.3,215.6 562.4,215.3 564.5,214.7 566.6,214.2 568.7,213.2 570.8,212.6 572.9,212.0 575.0,212.0 577.1,211.7 579.1,211.3 581.2,210.1 583.3,208.3 585.4,206.3 587.5,204.4 589.6,202.8 591.7,200.9 593.8,198.9 595.9,196.9 598.0,195.1 600.1,193.7 602.2,192.6 604.2,191.4 606.3,190.2 608.4,189.4 610.5,188.5 612.6,187.7 614.7,186.7 616.8,185.3 618.9,183.7 621.0,182.3 623.1,181.0 625.2,180.2 627.3,179.5 629.3,178.8 631.4,178.0 633.5,176.7 635.6,175.5 637.7,174.1 639.8,172.7 641.9,171.5 644.0,170.6 646.1,170.2 648.2,169.6 650.3,169.0 652.4,169.0 654.4,168.9 656.5,168.6 658.6,168.5 660.7,168.5 662.8,168.3 664.9,168.2 671.2,168.1 673.3,168.1 675.4,167.9 677.5,166.2 679.6,164.8 681.6,163.6 683.7,162.2 685.8,161.0 687.9,159.8 690.0,158.4 692.1,157.3 694.2,155.9 696.3,154.8 698.4,153.5 700.5,152.3 702.6,151.2 704.7,150.0 706.7,148.8 708.8,147.8 710.9,146.7 713.0,145.6 715.1,144.5 717.2,143.5 719.3,142.4 721.4,141.7 723.5,141.0 725.6,140.3 727.7,139.2 729.8,138.3 731.8,137.4 733.9,136.4 736.0,135.5 738.1,134.6 740.2,133.7 742.3,132.7 744.4,131.8 746.5,130.9 748.6,129.9 750.7,129.1 752.8,128.2 754.9,127.4 756.9,126.6 759.0,125.7 761.1,124.9 763.2,124.1 765.3,123.5 767.4,122.9 769.5,122.6 771.6,122.4 773.7,121.6 775.8,120.8 777.9,120.1 780.0,119.2 782.1,118.5 784.1,117.8 786.2,117.0 788.3,116.2 790.4,115.5 792.5,114.9 794.6,114.2 796.7,113.5 798.8,112.7 800.9,112.1 803.0,111.4 805.1,110.6 807.2,110.0 809.2,109.4 811.3,108.6 813.4,108.0 815.5,107.5 817.6,106.6 819.7,105.8 821.8,105.2 823.9,104.5 826.0,103.7 828.1,103.2 830.2,102.5 832.3,101.8 834.3,101.2 836.4,100.8 838.5,100.2 840.6,99.5 842.7,98.8 844.8,97.9 846.9,97.3 849.0,96.6 851.1,96.0 853.2,95.4 855.3,94.6 857.4,94.0 859.4,93.4 861.5,92.8 863.6,92.0 865.7,91.6 867.8,90.9 869.9,90.3 872.0,90.0 872.0,272.0" fill="#e0f2fe" opacity="0.55"/>
<polyline points="52.0,272.0 54.1,271.9 79.2,271.5 81.3,271.4 83.4,271.3 89.7,271.3 102.2,271.2 129.4,271.2 131.5,270.8 133.6,270.8 139.9,270.7 141.9,270.7 144.0,270.7 146.1,270.5 150.3,270.5 152.4,270.3 158.7,270.1 167.1,270.1 169.1,269.9 171.2,269.9 188.0,269.8 192.2,269.8 202.6,269.7 204.7,269.7 206.8,269.6 215.2,269.6 217.3,269.3 219.3,269.1 221.4,268.6 223.5,268.5 238.2,268.5 244.4,268.5 248.6,268.4 250.7,268.4 252.8,268.2 254.9,268.1 257.0,268.1 259.1,268.0 261.2,267.9 269.6,267.7 273.7,267.6 282.1,267.6 284.2,267.4 286.3,267.4 288.4,267.3 292.6,267.2 294.7,266.4 296.7,265.6 298.8,265.4 300.9,265.2 303.0,265.1 305.1,264.9 307.2,264.6 309.3,264.4 311.4,264.3 313.5,264.2 317.7,264.1 319.8,263.8 321.8,263.5 323.9,263.1 326.0,262.9 330.2,262.9 334.4,262.8 336.5,262.6 338.6,262.4 340.7,261.8 342.8,261.5 344.9,261.2 346.9,260.8 349.0,260.5 351.1,260.1 353.2,259.7 355.3,259.3 357.4,258.9 359.5,258.5 361.6,258.3 363.7,258.0 365.8,257.7 367.9,257.5 370.0,257.3 372.1,257.2 374.1,257.1 376.2,257.0 380.4,257.0 382.5,256.2 384.6,255.6 386.7,255.5 388.8,255.4 393.0,255.4 395.1,255.2 403.4,255.2 407.6,255.1 413.9,255.1 416.0,254.2 418.1,253.3 420.2,253.1 422.3,252.3 424.3,251.8 426.4,251.4 428.5,251.2 430.6,250.9 432.7,250.7 434.8,250.6 436.9,250.5 439.0,250.4 451.5,249.8 453.6,249.0 455.7,248.9 457.8,248.7 459.9,248.7 474.6,248.7 493.4,247.8 495.5,247.2 497.6,246.4 499.7,245.3 501.7,245.1 503.8,244.8 505.9,244.1 508.0,243.7 510.1,242.6 512.2,241.0 514.3,239.4 516.4,237.6 518.5,235.7 520.6,234.0 522.7,233.0 524.8,231.8 526.8,230.0 528.9,228.4 531.0,227.4 533.1,226.3 535.2,224.8 537.3,223.8 539.4,222.9 541.5,222.1 543.6,221.4 545.7,220.6 547.8,220.1 549.9,219.5 551.9,219.0 554.0,217.6 556.1,216.5 558.2,215.8 560.3,215.6 562.4,215.3 564.5,214.7 566.6,214.2 568.7,213.2 570.8,212.6 572.9,212.0 575.0,212.0 577.1,211.7 579.1,211.3 581.2,210.1 583.3,208.3 585.4,206.3 587.5,204.4 589.6,202.8 591.7,200.9 593.8,198.9 595.9,196.9 598.0,195.1 600.1,193.7 602.2,192.6 604.2,191.4 606.3,190.2 608.4,189.4 610.5,188.5 612.6,187.7 614.7,186.7 616.8,185.3 618.9,183.7 621.0,182.3 623.1,181.0 625.2,180.2 627.3,179.5 629.3,178.8 631.4,178.0 633.5,176.7 635.6,175.5 637.7,174.1 639.8,172.7 641.9,171.5 644.0,170.6 646.1,170.2 648.2,169.6 650.3,169.0 652.4,169.0 654.4,168.9 656.5,168.6 658.6,168.5 660.7,168.5 662.8,168.3 664.9,168.2 671.2,168.1 673.3,168.1 675.4,167.9 677.5,166.2 679.6,164.8 681.6,163.6 683.7,162.2 685.8,161.0 687.9,159.8 690.0,158.4 692.1,157.3 694.2,155.9 696.3,154.8 698.4,153.5 700.5,152.3 702.6,151.2 704.7,150.0 706.7,148.8 708.8,147.8 710.9,146.7 713.0,145.6 715.1,144.5 717.2,143.5 719.3,142.4 721.4,141.7 723.5,141.0 725.6,140.3 727.7,139.2 729.8,138.3 731.8,137.4 733.9,136.4 736.0,135.5 738.1,134.6 740.2,133.7 742.3,132.7 744.4,131.8 746.5,130.9 748.6,129.9 750.7,129.1 752.8,128.2 754.9,127.4 756.9,126.6 759.0,125.7 761.1,124.9 763.2,124.1 765.3,123.5 767.4,122.9 769.5,122.6 771.6,122.4 773.7,121.6 775.8,120.8 777.9,120.1 780.0,119.2 782.1,118.5 784.1,117.8 786.2,117.0 788.3,116.2 790.4,115.5 792.5,114.9 794.6,114.2 796.7,113.5 798.8,112.7 800.9,112.1 803.0,111.4 805.1,110.6 807.2,110.0 809.2,109.4 811.3,108.6 813.4,108.0 815.5,107.5 817.6,106.6 819.7,105.8 821.8,105.2 823.9,104.5 826.0,103.7 828.1,103.2 830.2,102.5 832.3,101.8 834.3,101.2 836.4,100.8 838.5,100.2 840.6,99.5 842.7,98.8 844.8,97.9 846.9,97.3 849.0,96.6 851.1,96.0 853.2,95.4 855.3,94.6 857.4,94.0 859.4,93.4 861.5,92.8 863.6,92.0 865.7,91.6 867.8,90.9 869.9,90.3 872.0,90.0" fill="none" stroke="#38bdf8" stroke-width="2.5" stroke-linejoin="round" stroke-linecap="round"/>
<circle cx="872.0" cy="90.0" r="4" fill="#0ea5e9"/>
<text x="866.0" y="80.0" text-anchor="end" font-family="Inter, system-ui, sans-serif" font-size="13" font-weight="700" fill="#334155">4584</text>
<text x="52.0" y="294" text-anchor="middle" font-family="Inter, system-ui, sans-serif" font-size="11" fill="#94a3b8">Jun 10 05:00</text>
<text x="564.5" y="294" text-anchor="middle" font-family="Inter, system-ui, sans-serif" font-size="11" fill="#94a3b8">Jun 20 10:00</text>
<text x="872.0" y="294" text-anchor="middle" font-family="Inter, system-ui, sans-serif" font-size="11" fill="#94a3b8">Jun 26 13:00</text>
</svg>
