<svg xmlns="http://www.w3.org/2000/svg" width="900" height="320" viewBox="0 0 900 320" role="img" aria-labelledby="title desc">
<title id="title">unsorry proofs over time</title>
<desc id="desc">Cumulative kernel-verified proofs over time, by the hour each proof was merged.</desc>
<rect width="900" height="100%" rx="18" fill="#ffffff"/>
<rect x="0.5" y="0.5" width="899" height="319" rx="18" fill="none" stroke="#e2e8f0"/>
<text x="32" y="44" font-family="Inter, system-ui, sans-serif" font-size="28" font-weight="700" fill="#334155">unsorry — Proofs Over Time</text>
<text x="32" y="72" font-family="Inter, system-ui, sans-serif" font-size="13" fill="#64748b">2953 cumulative kernel-verified proofs · merged, hourly</text>
<line x1="52" y1="272.0" x2="872" y2="272.0" stroke="#f1f5f9"/>
<text x="44" y="276.0" text-anchor="end" font-family="Inter, system-ui, sans-serif" font-size="11" fill="#94a3b8">0</text>
<line x1="52" y1="226.5" x2="872" y2="226.5" stroke="#f1f5f9"/>
<text x="44" y="230.5" text-anchor="end" font-family="Inter, system-ui, sans-serif" font-size="11" fill="#94a3b8">738</text>
<line x1="52" y1="181.0" x2="872" y2="181.0" stroke="#f1f5f9"/>
<text x="44" y="185.0" text-anchor="end" font-family="Inter, system-ui, sans-serif" font-size="11" fill="#94a3b8">1476</text>
<line x1="52" y1="135.5" x2="872" y2="135.5" stroke="#f1f5f9"/>
<text x="44" y="139.5" text-anchor="end" font-family="Inter, system-ui, sans-serif" font-size="11" fill="#94a3b8">2215</text>
<line x1="52" y1="90.0" x2="872" y2="90.0" stroke="#f1f5f9"/>
<text x="44" y="94.0" text-anchor="end" font-family="Inter, system-ui, sans-serif" font-size="11" fill="#94a3b8">2953</text>
<polygon points="52.0,272.0 52.0,271.9 54.7,271.8 86.6,271.2 89.3,271.0 91.9,271.0 99.9,270.9 115.9,270.8 150.5,270.8 153.2,270.2 155.8,270.2 163.8,270.0 166.5,270.0 169.1,269.9 171.8,269.7 177.1,269.7 179.8,269.3 187.8,269.1 198.4,269.0 201.1,268.8 203.8,268.7 225.1,268.6 230.4,268.5 243.7,268.5 246.4,268.4 249.0,268.3 259.7,268.2 262.3,267.9 265.0,267.6 267.6,266.8 270.3,266.6 288.9,266.6 296.9,266.5 302.3,266.5 304.9,266.4 307.6,266.1 310.2,266.0 312.9,266.0 315.6,265.8 318.2,265.6 328.9,265.3 334.2,265.2 344.9,265.2 347.5,264.9 350.2,264.8 352.8,264.7 358.2,264.6 360.8,263.4 363.5,262.1 366.2,261.7 368.8,261.4 371.5,261.3 374.1,261.0 376.8,260.5 379.5,260.2 382.1,260.0 384.8,259.9 390.1,259.7 392.8,259.2 395.4,258.7 398.1,258.3 400.8,257.9 406.1,257.8 411.4,257.8 414.1,257.3 416.7,257.0 419.4,256.2 422.1,255.7 424.7,255.2 427.4,254.7 430.1,254.1 432.7,253.6 435.4,253.0 438.0,252.3 440.7,251.7 443.4,251.1 446.0,250.7 448.7,250.3 451.4,249.8 454.0,249.6 456.7,249.3 459.3,248.9 462.0,248.8 464.7,248.7 470.0,248.6 472.6,247.4 475.3,246.5 478.0,246.4 480.6,246.3 486.0,246.2 488.6,246.0 499.3,245.9 504.6,245.8 512.6,245.7 515.2,244.3 517.9,243.0 520.6,242.6 523.2,241.5 525.9,240.6 528.6,240.1 531.2,239.8 533.9,239.2 536.5,239.0 539.2,238.8 541.9,238.6 544.5,238.5 560.5,237.5 563.2,236.3 565.8,236.1 568.5,235.9 571.2,235.8 589.8,235.8 613.8,234.5 616.4,233.5 619.1,232.3 621.7,230.6 624.4,230.3 627.1,229.7 629.7,228.7 632.4,228.0 635.1,226.3 637.7,223.9 640.4,221.5 643.0,218.6 645.7,215.7 648.4,213.1 651.0,211.5 653.7,209.6 656.4,206.7 659.0,204.3 661.7,202.7 664.3,201.1 667.0,198.7 669.7,197.2 672.3,195.8 675.0,194.5 677.6,193.5 680.3,192.2 683.0,191.4 685.6,190.5 688.3,189.8 691.0,187.6 693.6,185.8 696.3,184.8 698.9,184.5 701.6,183.9 704.3,183.0 706.9,182.2 709.6,180.7 712.3,179.8 714.9,178.9 717.6,178.8 720.2,178.4 722.9,177.8 725.6,176.0 728.2,173.1 730.9,170.1 733.6,167.0 736.2,164.6 738.9,161.7 741.5,158.6 744.2,155.5 746.9,152.6 749.5,150.5 752.2,148.8 754.9,146.9 757.5,145.0 760.2,143.8 762.8,142.3 765.5,141.2 768.2,139.6 770.8,137.5 773.5,134.9 776.2,132.7 778.8,130.8 781.5,129.6 784.1,128.5 786.8,127.3 789.5,126.1 792.1,124.0 794.8,122.2 797.5,120.1 800.1,117.9 802.8,116.0 805.4,114.5 808.1,113.9 810.8,113.1 813.4,112.2 816.1,112.1 818.8,111.9 821.4,111.5 824.1,111.3 826.7,111.3 829.4,111.0 832.1,110.8 840.1,110.8 842.7,110.7 845.4,110.3 848.0,107.8 850.7,105.7 853.4,103.7 856.0,101.6 858.7,99.7 861.4,97.8 864.0,95.7 866.7,93.9 869.3,91.8 872.0,90.0 872.0,272.0" fill="#e0f2fe" opacity="0.55"/>
<polyline points="52.0,271.9 54.7,271.8 86.6,271.2 89.3,271.0 91.9,271.0 99.9,270.9 115.9,270.8 150.5,270.8 153.2,270.2 155.8,270.2 163.8,270.0 166.5,270.0 169.1,269.9 171.8,269.7 177.1,269.7 179.8,269.3 187.8,269.1 198.4,269.0 201.1,268.8 203.8,268.7 225.1,268.6 230.4,268.5 243.7,268.5 246.4,268.4 249.0,268.3 259.7,268.2 262.3,267.9 265.0,267.6 267.6,266.8 270.3,266.6 288.9,266.6 296.9,266.5 302.3,266.5 304.9,266.4 307.6,266.1 310.2,266.0 312.9,266.0 315.6,265.8 318.2,265.6 328.9,265.3 334.2,265.2 344.9,265.2 347.5,264.9 350.2,264.8 352.8,264.7 358.2,264.6 360.8,263.4 363.5,262.1 366.2,261.7 368.8,261.4 371.5,261.3 374.1,261.0 376.8,260.5 379.5,260.2 382.1,260.0 384.8,259.9 390.1,259.7 392.8,259.2 395.4,258.7 398.1,258.3 400.8,257.9 406.1,257.8 411.4,257.8 414.1,257.3 416.7,257.0 419.4,256.2 422.1,255.7 424.7,255.2 427.4,254.7 430.1,254.1 432.7,253.6 435.4,253.0 438.0,252.3 440.7,251.7 443.4,251.1 446.0,250.7 448.7,250.3 451.4,249.8 454.0,249.6 456.7,249.3 459.3,248.9 462.0,248.8 464.7,248.7 470.0,248.6 472.6,247.4 475.3,246.5 478.0,246.4 480.6,246.3 486.0,246.2 488.6,246.0 499.3,245.9 504.6,245.8 512.6,245.7 515.2,244.3 517.9,243.0 520.6,242.6 523.2,241.5 525.9,240.6 528.6,240.1 531.2,239.8 533.9,239.2 536.5,239.0 539.2,238.8 541.9,238.6 544.5,238.5 560.5,237.5 563.2,236.3 565.8,236.1 568.5,235.9 571.2,235.8 589.8,235.8 613.8,234.5 616.4,233.5 619.1,232.3 621.7,230.6 624.4,230.3 627.1,229.7 629.7,228.7 632.4,228.0 635.1,226.3 637.7,223.9 640.4,221.5 643.0,218.6 645.7,215.7 648.4,213.1 651.0,211.5 653.7,209.6 656.4,206.7 659.0,204.3 661.7,202.7 664.3,201.1 667.0,198.7 669.7,197.2 672.3,195.8 675.0,194.5 677.6,193.5 680.3,192.2 683.0,191.4 685.6,190.5 688.3,189.8 691.0,187.6 693.6,185.8 696.3,184.8 698.9,184.5 701.6,183.9 704.3,183.0 706.9,182.2 709.6,180.7 712.3,179.8 714.9,178.9 717.6,178.8 720.2,178.4 722.9,177.8 725.6,176.0 728.2,173.1 730.9,170.1 733.6,167.0 736.2,164.6 738.9,161.7 741.5,158.6 744.2,155.5 746.9,152.6 749.5,150.5 752.2,148.8 754.9,146.9 757.5,145.0 760.2,143.8 762.8,142.3 765.5,141.2 768.2,139.6 770.8,137.5 773.5,134.9 776.2,132.7 778.8,130.8 781.5,129.6 784.1,128.5 786.8,127.3 789.5,126.1 792.1,124.0 794.8,122.2 797.5,120.1 800.1,117.9 802.8,116.0 805.4,114.5 808.1,113.9 810.8,113.1 813.4,112.2 816.1,112.1 818.8,111.9 821.4,111.5 824.1,111.3 826.7,111.3 829.4,111.0 832.1,110.8 840.1,110.8 842.7,110.7 845.4,110.3 848.0,107.8 850.7,105.7 853.4,103.7 856.0,101.6 858.7,99.7 861.4,97.8 864.0,95.7 866.7,93.9 869.3,91.8 872.0,90.0" fill="none" stroke="#38bdf8" stroke-width="2.5" stroke-linejoin="round" stroke-linecap="round"/>
<circle cx="872.0" cy="90.0" r="4" fill="#0ea5e9"/>
<text x="866.0" y="80.0" text-anchor="end" font-family="Inter, system-ui, sans-serif" font-size="13" font-weight="700" fill="#334155">2953</text>
<text x="52.0" y="294" text-anchor="middle" font-family="Inter, system-ui, sans-serif" font-size="11" fill="#94a3b8">Jun 10 05:00</text>
<text x="541.9" y="294" text-anchor="middle" font-family="Inter, system-ui, sans-serif" font-size="11" fill="#94a3b8">Jun 17 21:00</text>
<text x="872.0" y="294" text-anchor="middle" font-family="Inter, system-ui, sans-serif" font-size="11" fill="#94a3b8">Jun 23 01:00</text>
</svg>
