<svg xmlns="http://www.w3.org/2000/svg" width="900" height="320" viewBox="0 0 900 320" role="img" aria-labelledby="title desc">
<title id="title">unsorry proofs over time</title>
<desc id="desc">Cumulative kernel-verified proofs over time, by the hour each proof was merged.</desc>
<rect width="900" height="100%" rx="18" fill="#ffffff"/>
<rect x="0.5" y="0.5" width="899" height="319" rx="18" fill="none" stroke="#e2e8f0"/>
<text x="32" y="44" font-family="Inter, system-ui, sans-serif" font-size="28" font-weight="700" fill="#334155">unsorry — Proofs Over Time</text>
<text x="32" y="72" font-family="Inter, system-ui, sans-serif" font-size="13" fill="#64748b">2646 cumulative kernel-verified proofs · merged, hourly</text>
<line x1="52" y1="272.0" x2="872" y2="272.0" stroke="#f1f5f9"/>
<text x="44" y="276.0" text-anchor="end" font-family="Inter, system-ui, sans-serif" font-size="11" fill="#94a3b8">0</text>
<line x1="52" y1="226.5" x2="872" y2="226.5" stroke="#f1f5f9"/>
<text x="44" y="230.5" text-anchor="end" font-family="Inter, system-ui, sans-serif" font-size="11" fill="#94a3b8">662</text>
<line x1="52" y1="181.0" x2="872" y2="181.0" stroke="#f1f5f9"/>
<text x="44" y="185.0" text-anchor="end" font-family="Inter, system-ui, sans-serif" font-size="11" fill="#94a3b8">1323</text>
<line x1="52" y1="135.5" x2="872" y2="135.5" stroke="#f1f5f9"/>
<text x="44" y="139.5" text-anchor="end" font-family="Inter, system-ui, sans-serif" font-size="11" fill="#94a3b8">1984</text>
<line x1="52" y1="90.0" x2="872" y2="90.0" stroke="#f1f5f9"/>
<text x="44" y="94.0" text-anchor="end" font-family="Inter, system-ui, sans-serif" font-size="11" fill="#94a3b8">2646</text>
<polygon points="52.0,272.0 52.0,271.9 54.7,271.8 87.7,271.1 90.4,270.9 93.1,270.8 101.4,270.8 117.8,270.7 153.5,270.6 156.2,270.0 159.0,269.9 167.2,269.8 169.9,269.7 172.7,269.7 175.4,269.5 180.9,269.4 183.6,269.0 191.9,268.8 202.8,268.6 205.6,268.4 208.3,268.3 230.3,268.2 235.7,268.1 249.5,268.1 252.2,268.0 254.9,267.9 265.9,267.8 268.7,267.4 271.4,267.0 274.1,266.2 276.9,266.0 296.1,265.9 304.3,265.9 309.8,265.8 312.5,265.7 315.3,265.4 318.0,265.3 320.8,265.3 323.5,265.1 326.2,264.8 337.2,264.5 342.7,264.4 353.7,264.4 356.4,264.0 359.2,264.0 361.9,263.8 367.4,263.7 370.1,262.4 372.9,261.0 375.6,260.5 378.4,260.2 381.1,260.0 383.8,259.7 386.6,259.2 389.3,258.9 392.1,258.7 394.8,258.5 400.3,258.3 403.0,257.8 405.8,257.2 408.5,256.7 411.3,256.3 416.7,256.2 422.2,256.1 425.0,255.6 427.7,255.3 430.5,254.3 433.2,253.8 435.9,253.2 438.7,252.7 441.4,252.1 444.2,251.4 446.9,250.7 449.7,250.0 452.4,249.3 455.1,248.7 457.9,248.3 460.6,247.8 463.4,247.2 466.1,247.0 468.9,246.6 471.6,246.3 474.3,246.1 477.1,246.0 482.6,245.9 485.3,244.6 488.1,243.6 490.8,243.4 493.5,243.3 499.0,243.2 501.8,243.0 512.7,242.9 518.2,242.8 526.4,242.7 529.2,241.1 531.9,239.6 534.7,239.2 537.4,238.0 540.2,237.0 542.9,236.4 545.6,236.0 548.4,235.4 551.1,235.1 553.9,235.0 556.6,234.7 559.4,234.6 575.8,233.5 578.6,232.1 581.3,231.9 584.0,231.7 586.8,231.6 606.0,231.6 630.7,230.1 633.4,229.0 636.1,227.7 638.9,225.8 641.6,225.4 644.4,224.8 647.1,223.7 649.9,222.9 652.6,221.0 655.3,218.3 658.1,215.6 660.8,212.4 663.6,209.1 666.3,206.2 669.1,204.5 671.8,202.3 674.5,199.2 677.3,196.5 680.0,194.7 682.8,192.8 685.5,190.2 688.3,188.6 691.0,186.9 693.7,185.5 696.5,184.4 699.2,182.9 702.0,182.0 704.7,181.1 707.5,180.2 710.2,177.8 712.9,175.8 715.7,174.7 718.4,174.3 721.2,173.7 723.9,172.7 726.6,171.8 729.4,170.1 732.1,169.1 734.9,168.1 737.6,168.0 740.4,167.6 743.1,166.8 745.8,164.8 748.6,161.6 751.3,158.2 754.1,154.9 756.8,152.1 759.6,148.9 762.3,145.4 765.0,141.9 767.8,138.7 770.5,136.4 773.3,134.5 776.0,132.4 778.8,130.3 781.5,128.9 784.2,127.3 787.0,126.0 789.7,124.3 792.5,121.8 795.2,119.0 798.0,116.6 800.7,114.4 803.4,113.0 806.2,111.8 808.9,110.6 811.7,109.2 814.4,106.9 817.2,104.9 819.9,102.4 822.6,100.0 825.4,97.9 828.1,96.3 830.9,95.6 833.6,94.6 836.3,93.6 839.1,93.5 841.8,93.4 844.6,92.9 847.3,92.7 850.1,92.6 852.8,92.3 855.5,92.1 863.8,92.1 866.5,92.0 869.3,91.6 872.0,90.0 872.0,272.0" fill="#e0f2fe" opacity="0.55"/>
<polyline points="52.0,271.9 54.7,271.8 87.7,271.1 90.4,270.9 93.1,270.8 101.4,270.8 117.8,270.7 153.5,270.6 156.2,270.0 159.0,269.9 167.2,269.8 169.9,269.7 172.7,269.7 175.4,269.5 180.9,269.4 183.6,269.0 191.9,268.8 202.8,268.6 205.6,268.4 208.3,268.3 230.3,268.2 235.7,268.1 249.5,268.1 252.2,268.0 254.9,267.9 265.9,267.8 268.7,267.4 271.4,267.0 274.1,266.2 276.9,266.0 296.1,265.9 304.3,265.9 309.8,265.8 312.5,265.7 315.3,265.4 318.0,265.3 320.8,265.3 323.5,265.1 326.2,264.8 337.2,264.5 342.7,264.4 353.7,264.4 356.4,264.0 359.2,264.0 361.9,263.8 367.4,263.7 370.1,262.4 372.9,261.0 375.6,260.5 378.4,260.2 381.1,260.0 383.8,259.7 386.6,259.2 389.3,258.9 392.1,258.7 394.8,258.5 400.3,258.3 403.0,257.8 405.8,257.2 408.5,256.7 411.3,256.3 416.7,256.2 422.2,256.1 425.0,255.6 427.7,255.3 430.5,254.3 433.2,253.8 435.9,253.2 438.7,252.7 441.4,252.1 444.2,251.4 446.9,250.7 449.7,250.0 452.4,249.3 455.1,248.7 457.9,248.3 460.6,247.8 463.4,247.2 466.1,247.0 468.9,246.6 471.6,246.3 474.3,246.1 477.1,246.0 482.6,245.9 485.3,244.6 488.1,243.6 490.8,243.4 493.5,243.3 499.0,243.2 501.8,243.0 512.7,242.9 518.2,242.8 526.4,242.7 529.2,241.1 531.9,239.6 534.7,239.2 537.4,238.0 540.2,237.0 542.9,236.4 545.6,236.0 548.4,235.4 551.1,235.1 553.9,235.0 556.6,234.7 559.4,234.6 575.8,233.5 578.6,232.1 581.3,231.9 584.0,231.7 586.8,231.6 606.0,231.6 630.7,230.1 633.4,229.0 636.1,227.7 638.9,225.8 641.6,225.4 644.4,224.8 647.1,223.7 649.9,222.9 652.6,221.0 655.3,218.3 658.1,215.6 660.8,212.4 663.6,209.1 666.3,206.2 669.1,204.5 671.8,202.3 674.5,199.2 677.3,196.5 680.0,194.7 682.8,192.8 685.5,190.2 688.3,188.6 691.0,186.9 693.7,185.5 696.5,184.4 699.2,182.9 702.0,182.0 704.7,181.1 707.5,180.2 710.2,177.8 712.9,175.8 715.7,174.7 718.4,174.3 721.2,173.7 723.9,172.7 726.6,171.8 729.4,170.1 732.1,169.1 734.9,168.1 737.6,168.0 740.4,167.6 743.1,166.8 745.8,164.8 748.6,161.6 751.3,158.2 754.1,154.9 756.8,152.1 759.6,148.9 762.3,145.4 765.0,141.9 767.8,138.7 770.5,136.4 773.3,134.5 776.0,132.4 778.8,130.3 781.5,128.9 784.2,127.3 787.0,126.0 789.7,124.3 792.5,121.8 795.2,119.0 798.0,116.6 800.7,114.4 803.4,113.0 806.2,111.8 808.9,110.6 811.7,109.2 814.4,106.9 817.2,104.9 819.9,102.4 822.6,100.0 825.4,97.9 828.1,96.3 830.9,95.6 833.6,94.6 836.3,93.6 839.1,93.5 841.8,93.4 844.6,92.9 847.3,92.7 850.1,92.6 852.8,92.3 855.5,92.1 863.8,92.1 866.5,92.0 869.3,91.6 872.0,90.0" fill="none" stroke="#38bdf8" stroke-width="2.5" stroke-linejoin="round" stroke-linecap="round"/>
<circle cx="872.0" cy="90.0" r="4" fill="#0ea5e9"/>
<text x="866.0" y="80.0" text-anchor="end" font-family="Inter, system-ui, sans-serif" font-size="13" font-weight="700" fill="#334155">2646</text>
<text x="52.0" y="294" text-anchor="middle" font-family="Inter, system-ui, sans-serif" font-size="11" fill="#94a3b8">Jun 10 05:00</text>
<text x="545.6" y="294" text-anchor="middle" font-family="Inter, system-ui, sans-serif" font-size="11" fill="#94a3b8">Jun 17 17:00</text>
<text x="872.0" y="294" text-anchor="middle" font-family="Inter, system-ui, sans-serif" font-size="11" fill="#94a3b8">Jun 22 16:00</text>
</svg>
