<svg xmlns="http://www.w3.org/2000/svg" width="900" height="320" viewBox="0 0 900 320" role="img" aria-labelledby="title desc">
<title id="title">unsorry proofs over time</title>
<desc id="desc">Cumulative kernel-verified proofs over time, by the hour each proof was merged.</desc>
<rect width="900" height="100%" rx="18" fill="#ffffff"/>
<rect x="0.5" y="0.5" width="899" height="319" rx="18" fill="none" stroke="#e2e8f0"/>
<text x="32" y="44" font-family="Inter, system-ui, sans-serif" font-size="28" font-weight="700" fill="#334155">unsorry — Proofs Over Time</text>
<text x="32" y="72" font-family="Inter, system-ui, sans-serif" font-size="13" fill="#64748b">4277 cumulative kernel-verified proofs · merged, hourly</text>
<line x1="52" y1="272.0" x2="872" y2="272.0" stroke="#f1f5f9"/>
<text x="44" y="276.0" text-anchor="end" font-family="Inter, system-ui, sans-serif" font-size="11" fill="#94a3b8">0</text>
<line x1="52" y1="226.5" x2="872" y2="226.5" stroke="#f1f5f9"/>
<text x="44" y="230.5" text-anchor="end" font-family="Inter, system-ui, sans-serif" font-size="11" fill="#94a3b8">1069</text>
<line x1="52" y1="181.0" x2="872" y2="181.0" stroke="#f1f5f9"/>
<text x="44" y="185.0" text-anchor="end" font-family="Inter, system-ui, sans-serif" font-size="11" fill="#94a3b8">2138</text>
<line x1="52" y1="135.5" x2="872" y2="135.5" stroke="#f1f5f9"/>
<text x="44" y="139.5" text-anchor="end" font-family="Inter, system-ui, sans-serif" font-size="11" fill="#94a3b8">3208</text>
<line x1="52" y1="90.0" x2="872" y2="90.0" stroke="#f1f5f9"/>
<text x="44" y="94.0" text-anchor="end" font-family="Inter, system-ui, sans-serif" font-size="11" fill="#94a3b8">4277</text>
<polygon points="52.0,272.0 52.0,272.0 54.2,271.9 80.6,271.4 82.8,271.3 85.0,271.3 91.6,271.2 104.8,271.2 133.3,271.1 135.5,270.8 137.7,270.7 144.3,270.6 146.5,270.6 148.7,270.6 150.9,270.4 155.3,270.4 157.5,270.2 164.1,270.0 172.9,269.9 175.1,269.8 177.3,269.7 194.9,269.7 199.3,269.6 210.3,269.6 212.5,269.5 214.7,269.4 223.5,269.4 225.7,269.1 227.9,268.9 230.1,268.4 232.3,268.3 247.7,268.3 254.3,268.2 258.6,268.2 260.8,268.1 263.0,267.9 265.2,267.9 267.4,267.8 269.6,267.7 271.8,267.6 280.6,267.4 285.0,267.3 293.8,267.3 296.0,267.1 298.2,267.0 300.4,266.9 304.8,266.9 307.0,266.0 309.2,265.2 311.4,264.9 313.6,264.7 315.8,264.6 318.0,264.4 320.2,264.1 322.4,263.9 324.6,263.7 326.8,263.7 331.2,263.5 333.4,263.2 335.6,262.9 337.8,262.5 340.0,262.3 344.4,262.2 348.8,262.2 351.0,261.9 353.2,261.7 355.4,261.1 357.6,260.7 359.8,260.4 362.0,260.0 364.2,259.7 366.4,259.3 368.6,258.9 370.8,258.4 373.0,258.0 375.2,257.6 377.4,257.3 379.6,257.0 381.8,256.7 384.0,256.5 386.2,256.3 388.4,256.1 390.6,256.0 392.8,255.9 397.1,255.9 399.3,255.0 401.5,254.4 403.7,254.3 405.9,254.3 410.3,254.2 412.5,254.0 421.3,254.0 425.7,253.9 432.3,253.9 434.5,252.9 436.7,252.0 438.9,251.7 441.1,250.9 443.3,250.3 445.5,250.0 447.7,249.7 449.9,249.4 452.1,249.2 454.3,249.1 456.5,248.9 458.7,248.9 471.9,248.2 474.1,247.3 476.3,247.2 478.5,247.1 480.7,247.0 496.1,247.0 515.9,246.1 518.1,245.4 520.3,244.6 522.5,243.4 524.7,243.2 526.9,242.8 529.1,242.1 531.2,241.6 533.4,240.5 535.6,238.8 537.8,237.1 540.0,235.1 542.2,233.1 544.4,231.3 546.6,230.2 548.8,228.9 551.0,226.9 553.2,225.3 555.4,224.2 557.6,223.0 559.8,221.4 562.0,220.4 564.2,219.4 566.4,218.5 568.6,217.8 570.8,216.9 573.0,216.3 575.2,215.7 577.4,215.2 579.6,213.7 581.8,212.5 584.0,211.8 586.2,211.6 588.4,211.2 590.6,210.6 592.8,210.0 595.0,209.0 597.2,208.3 599.4,207.7 601.6,207.7 603.8,207.4 606.0,206.9 608.2,205.7 610.4,203.7 612.6,201.6 614.8,199.5 617.0,197.8 619.2,195.8 621.4,193.7 623.6,191.5 625.8,189.5 628.0,188.1 630.2,186.9 632.4,185.6 634.6,184.3 636.8,183.5 639.0,182.5 641.2,181.7 643.4,180.6 645.6,179.1 647.8,177.3 650.0,175.8 652.2,174.5 654.4,173.7 656.6,172.9 658.8,172.1 661.0,171.3 663.2,169.8 665.4,168.6 667.5,167.1 669.7,165.6 671.9,164.3 674.1,163.3 676.3,162.9 678.5,162.3 680.7,161.7 682.9,161.6 685.1,161.5 687.3,161.2 689.5,161.1 691.7,161.0 693.9,160.8 696.1,160.7 702.7,160.7 704.9,160.6 707.1,160.4 709.3,158.6 711.5,157.1 713.7,155.8 715.9,154.3 718.1,153.0 720.3,151.7 722.5,150.3 724.7,149.0 726.9,147.6 729.1,146.3 731.3,145.0 733.5,143.7 735.7,142.5 737.9,141.2 740.1,140.0 742.3,138.9 744.5,137.7 746.7,136.6 748.9,135.4 751.1,134.3 753.3,133.1 755.5,132.3 757.7,131.6 759.9,130.8 762.1,129.7 764.3,128.7 766.5,127.8 768.7,126.6 770.9,125.7 773.1,124.8 775.3,123.7 777.5,122.7 779.7,121.7 781.9,120.8 784.1,119.7 786.3,118.9 788.5,117.8 790.7,117.0 792.9,116.2 795.1,115.2 797.3,114.3 799.5,113.5 801.7,112.9 803.8,112.2 806.0,111.8 808.2,111.7 810.4,110.8 812.6,110.0 814.8,109.1 817.0,108.3 819.2,107.5 821.4,106.7 823.6,105.9 825.8,105.1 828.0,104.3 830.2,103.6 832.4,102.9 834.6,102.1 836.8,101.3 839.0,100.6 841.2,99.8 843.4,99.1 845.6,98.3 847.8,97.7 850.0,96.9 852.2,96.3 854.4,95.7 856.6,94.8 858.8,93.9 861.0,93.2 863.2,92.4 865.4,91.7 867.6,91.1 869.8,90.4 872.0,90.0 872.0,272.0" fill="#e0f2fe" opacity="0.55"/>
<polyline points="52.0,272.0 54.2,271.9 80.6,271.4 82.8,271.3 85.0,271.3 91.6,271.2 104.8,271.2 133.3,271.1 135.5,270.8 137.7,270.7 144.3,270.6 146.5,270.6 148.7,270.6 150.9,270.4 155.3,270.4 157.5,270.2 164.1,270.0 172.9,269.9 175.1,269.8 177.3,269.7 194.9,269.7 199.3,269.6 210.3,269.6 212.5,269.5 214.7,269.4 223.5,269.4 225.7,269.1 227.9,268.9 230.1,268.4 232.3,268.3 247.7,268.3 254.3,268.2 258.6,268.2 260.8,268.1 263.0,267.9 265.2,267.9 267.4,267.8 269.6,267.7 271.8,267.6 280.6,267.4 285.0,267.3 293.8,267.3 296.0,267.1 298.2,267.0 300.4,266.9 304.8,266.9 307.0,266.0 309.2,265.2 311.4,264.9 313.6,264.7 315.8,264.6 318.0,264.4 320.2,264.1 322.4,263.9 324.6,263.7 326.8,263.7 331.2,263.5 333.4,263.2 335.6,262.9 337.8,262.5 340.0,262.3 344.4,262.2 348.8,262.2 351.0,261.9 353.2,261.7 355.4,261.1 357.6,260.7 359.8,260.4 362.0,260.0 364.2,259.7 366.4,259.3 368.6,258.9 370.8,258.4 373.0,258.0 375.2,257.6 377.4,257.3 379.6,257.0 381.8,256.7 384.0,256.5 386.2,256.3 388.4,256.1 390.6,256.0 392.8,255.9 397.1,255.9 399.3,255.0 401.5,254.4 403.7,254.3 405.9,254.3 410.3,254.2 412.5,254.0 421.3,254.0 425.7,253.9 432.3,253.9 434.5,252.9 436.7,252.0 438.9,251.7 441.1,250.9 443.3,250.3 445.5,250.0 447.7,249.7 449.9,249.4 452.1,249.2 454.3,249.1 456.5,248.9 458.7,248.9 471.9,248.2 474.1,247.3 476.3,247.2 478.5,247.1 480.7,247.0 496.1,247.0 515.9,246.1 518.1,245.4 520.3,244.6 522.5,243.4 524.7,243.2 526.9,242.8 529.1,242.1 531.2,241.6 533.4,240.5 535.6,238.8 537.8,237.1 540.0,235.1 542.2,233.1 544.4,231.3 546.6,230.2 548.8,228.9 551.0,226.9 553.2,225.3 555.4,224.2 557.6,223.0 559.8,221.4 562.0,220.4 564.2,219.4 566.4,218.5 568.6,217.8 570.8,216.9 573.0,216.3 575.2,215.7 577.4,215.2 579.6,213.7 581.8,212.5 584.0,211.8 586.2,211.6 588.4,211.2 590.6,210.6 592.8,210.0 595.0,209.0 597.2,208.3 599.4,207.7 601.6,207.7 603.8,207.4 606.0,206.9 608.2,205.7 610.4,203.7 612.6,201.6 614.8,199.5 617.0,197.8 619.2,195.8 621.4,193.7 623.6,191.5 625.8,189.5 628.0,188.1 630.2,186.9 632.4,185.6 634.6,184.3 636.8,183.5 639.0,182.5 641.2,181.7 643.4,180.6 645.6,179.1 647.8,177.3 650.0,175.8 652.2,174.5 654.4,173.7 656.6,172.9 658.8,172.1 661.0,171.3 663.2,169.8 665.4,168.6 667.5,167.1 669.7,165.6 671.9,164.3 674.1,163.3 676.3,162.9 678.5,162.3 680.7,161.7 682.9,161.6 685.1,161.5 687.3,161.2 689.5,161.1 691.7,161.0 693.9,160.8 696.1,160.7 702.7,160.7 704.9,160.6 707.1,160.4 709.3,158.6 711.5,157.1 713.7,155.8 715.9,154.3 718.1,153.0 720.3,151.7 722.5,150.3 724.7,149.0 726.9,147.6 729.1,146.3 731.3,145.0 733.5,143.7 735.7,142.5 737.9,141.2 740.1,140.0 742.3,138.9 744.5,137.7 746.7,136.6 748.9,135.4 751.1,134.3 753.3,133.1 755.5,132.3 757.7,131.6 759.9,130.8 762.1,129.7 764.3,128.7 766.5,127.8 768.7,126.6 770.9,125.7 773.1,124.8 775.3,123.7 777.5,122.7 779.7,121.7 781.9,120.8 784.1,119.7 786.3,118.9 788.5,117.8 790.7,117.0 792.9,116.2 795.1,115.2 797.3,114.3 799.5,113.5 801.7,112.9 803.8,112.2 806.0,111.8 808.2,111.7 810.4,110.8 812.6,110.0 814.8,109.1 817.0,108.3 819.2,107.5 821.4,106.7 823.6,105.9 825.8,105.1 828.0,104.3 830.2,103.6 832.4,102.9 834.6,102.1 836.8,101.3 839.0,100.6 841.2,99.8 843.4,99.1 845.6,98.3 847.8,97.7 850.0,96.9 852.2,96.3 854.4,95.7 856.6,94.8 858.8,93.9 861.0,93.2 863.2,92.4 865.4,91.7 867.6,91.1 869.8,90.4 872.0,90.0" fill="none" stroke="#38bdf8" stroke-width="2.5" stroke-linejoin="round" stroke-linecap="round"/>
<circle cx="872.0" cy="90.0" r="4" fill="#0ea5e9"/>
<text x="866.0" y="80.0" text-anchor="end" font-family="Inter, system-ui, sans-serif" font-size="13" font-weight="700" fill="#334155">4277</text>
<text x="52.0" y="294" text-anchor="middle" font-family="Inter, system-ui, sans-serif" font-size="11" fill="#94a3b8">Jun 10 05:00</text>
<text x="570.8" y="294" text-anchor="middle" font-family="Inter, system-ui, sans-serif" font-size="11" fill="#94a3b8">Jun 20 01:00</text>
<text x="872.0" y="294" text-anchor="middle" font-family="Inter, system-ui, sans-serif" font-size="11" fill="#94a3b8">Jun 25 18:00</text>
</svg>
