<svg xmlns="http://www.w3.org/2000/svg" width="900" height="320" viewBox="0 0 900 320" role="img" aria-labelledby="title desc">
<title id="title">unsorry proofs over time</title>
<desc id="desc">Cumulative kernel-verified proofs over time, by the hour each proof was merged.</desc>
<rect width="900" height="100%" rx="18" fill="#ffffff"/>
<rect x="0.5" y="0.5" width="899" height="319" rx="18" fill="none" stroke="#e2e8f0"/>
<text x="32" y="44" font-family="Inter, system-ui, sans-serif" font-size="28" font-weight="700" fill="#334155">unsorry — Proofs Over Time</text>
<text x="32" y="72" font-family="Inter, system-ui, sans-serif" font-size="13" fill="#64748b">4164 cumulative kernel-verified proofs · merged, hourly</text>
<line x1="52" y1="272.0" x2="872" y2="272.0" stroke="#f1f5f9"/>
<text x="44" y="276.0" text-anchor="end" font-family="Inter, system-ui, sans-serif" font-size="11" fill="#94a3b8">0</text>
<line x1="52" y1="226.5" x2="872" y2="226.5" stroke="#f1f5f9"/>
<text x="44" y="230.5" text-anchor="end" font-family="Inter, system-ui, sans-serif" font-size="11" fill="#94a3b8">1041</text>
<line x1="52" y1="181.0" x2="872" y2="181.0" stroke="#f1f5f9"/>
<text x="44" y="185.0" text-anchor="end" font-family="Inter, system-ui, sans-serif" font-size="11" fill="#94a3b8">2082</text>
<line x1="52" y1="135.5" x2="872" y2="135.5" stroke="#f1f5f9"/>
<text x="44" y="139.5" text-anchor="end" font-family="Inter, system-ui, sans-serif" font-size="11" fill="#94a3b8">3123</text>
<line x1="52" y1="90.0" x2="872" y2="90.0" stroke="#f1f5f9"/>
<text x="44" y="94.0" text-anchor="end" font-family="Inter, system-ui, sans-serif" font-size="11" fill="#94a3b8">4164</text>
<polygon points="52.0,272.0 52.0,272.0 54.2,271.9 81.1,271.4 83.4,271.3 85.6,271.3 92.3,271.2 105.8,271.2 134.9,271.1 137.1,270.7 139.4,270.7 146.1,270.6 148.3,270.6 150.6,270.5 152.8,270.4 157.3,270.3 159.5,270.1 166.3,269.9 175.2,269.9 177.5,269.7 179.7,269.6 197.6,269.6 202.1,269.6 213.3,269.5 215.6,269.5 217.8,269.4 226.8,269.3 229.0,269.1 231.2,268.9 233.5,268.3 235.7,268.2 251.4,268.2 258.1,268.1 262.6,268.1 264.8,268.0 267.1,267.8 269.3,267.8 271.6,267.7 273.8,267.6 276.0,267.5 285.0,267.2 289.5,267.2 298.4,267.1 300.7,266.9 302.9,266.9 305.2,266.8 309.7,266.8 311.9,265.9 314.1,265.0 316.4,264.7 318.6,264.5 320.9,264.4 323.1,264.2 325.3,263.9 327.6,263.7 329.8,263.5 332.1,263.4 336.5,263.3 338.8,263.0 341.0,262.6 343.3,262.3 345.5,262.0 350.0,261.9 354.5,261.9 356.7,261.6 358.9,261.4 361.2,260.8 363.4,260.4 365.7,260.1 367.9,259.7 370.1,259.3 372.4,258.9 374.6,258.5 376.9,258.0 379.1,257.6 381.3,257.2 383.6,256.9 385.8,256.6 388.1,256.3 390.3,256.1 392.5,255.9 394.8,255.7 397.0,255.6 399.3,255.5 403.7,255.4 406.0,254.6 408.2,253.9 410.5,253.8 412.7,253.8 417.2,253.7 419.4,253.6 428.4,253.5 432.9,253.4 439.6,253.4 441.8,252.4 444.1,251.4 446.3,251.2 448.6,250.4 450.8,249.8 453.0,249.4 455.3,249.1 457.5,248.7 459.8,248.6 462.0,248.5 464.2,248.3 466.5,248.2 479.9,247.5 482.2,246.6 484.4,246.5 486.6,246.4 488.9,246.3 504.6,246.3 524.7,245.4 527.0,244.7 529.2,243.9 531.5,242.6 533.7,242.4 535.9,242.0 538.2,241.3 540.4,240.8 542.7,239.6 544.9,237.9 547.1,236.2 549.4,234.1 551.6,232.1 553.9,230.2 556.1,229.1 558.3,227.7 560.6,225.7 562.8,224.0 565.1,222.9 567.3,221.7 569.5,220.0 571.8,219.0 574.0,217.9 576.3,217.0 578.5,216.3 580.7,215.4 583.0,214.8 585.2,214.2 587.5,213.7 589.7,212.1 591.9,210.9 594.2,210.2 596.4,209.9 598.7,209.5 600.9,208.9 603.1,208.3 605.4,207.3 607.6,206.6 609.9,206.0 612.1,205.9 614.3,205.7 616.6,205.2 618.8,203.9 621.1,201.8 623.3,199.7 625.6,197.6 627.8,195.8 630.0,193.8 632.3,191.6 634.5,189.3 636.8,187.3 639.0,185.8 641.2,184.6 643.5,183.3 645.7,182.0 648.0,181.1 650.2,180.0 652.4,179.3 654.7,178.1 656.9,176.6 659.2,174.7 661.4,173.2 663.6,171.9 665.9,171.0 668.1,170.2 670.4,169.4 672.6,168.5 674.8,167.1 677.1,165.8 679.3,164.3 681.6,162.7 683.8,161.4 686.0,160.3 688.3,159.9 690.5,159.3 692.8,158.7 695.0,158.6 697.2,158.5 699.5,158.2 701.7,158.1 704.0,158.0 706.2,157.8 708.4,157.7 715.2,157.7 717.4,157.6 719.7,157.4 721.9,155.6 724.1,154.0 726.4,152.7 728.6,151.1 730.9,149.8 733.1,148.4 735.3,147.0 737.6,145.7 739.8,144.2 742.1,142.9 744.3,141.6 746.5,140.3 748.8,139.0 751.0,137.7 753.3,136.4 755.5,135.3 757.7,134.1 760.0,132.9 762.2,131.7 764.5,130.5 766.7,129.3 768.9,128.6 771.2,127.8 773.4,127.0 775.7,125.8 777.9,124.8 780.1,123.9 782.4,122.7 784.6,121.7 786.9,120.8 789.1,119.7 791.3,118.7 793.6,117.7 795.8,116.7 798.1,115.6 800.3,114.7 802.5,113.6 804.8,112.8 807.0,112.0 809.3,111.0 811.5,110.1 813.7,109.2 816.0,108.5 818.2,107.9 820.5,107.5 822.7,107.4 825.0,106.4 827.2,105.6 829.4,104.7 831.7,103.8 833.9,103.1 836.2,102.2 838.4,101.4 840.6,100.5 842.9,99.7 845.1,99.0 847.4,98.3 849.6,97.5 851.8,96.6 854.1,95.9 856.3,95.2 858.6,94.4 860.8,93.6 863.0,93.0 865.3,92.1 867.5,91.5 869.8,90.9 872.0,90.0 872.0,272.0" fill="#e0f2fe" opacity="0.55"/>
<polyline points="52.0,272.0 54.2,271.9 81.1,271.4 83.4,271.3 85.6,271.3 92.3,271.2 105.8,271.2 134.9,271.1 137.1,270.7 139.4,270.7 146.1,270.6 148.3,270.6 150.6,270.5 152.8,270.4 157.3,270.3 159.5,270.1 166.3,269.9 175.2,269.9 177.5,269.7 179.7,269.6 197.6,269.6 202.1,269.6 213.3,269.5 215.6,269.5 217.8,269.4 226.8,269.3 229.0,269.1 231.2,268.9 233.5,268.3 235.7,268.2 251.4,268.2 258.1,268.1 262.6,268.1 264.8,268.0 267.1,267.8 269.3,267.8 271.6,267.7 273.8,267.6 276.0,267.5 285.0,267.2 289.5,267.2 298.4,267.1 300.7,266.9 302.9,266.9 305.2,266.8 309.7,266.8 311.9,265.9 314.1,265.0 316.4,264.7 318.6,264.5 320.9,264.4 323.1,264.2 325.3,263.9 327.6,263.7 329.8,263.5 332.1,263.4 336.5,263.3 338.8,263.0 341.0,262.6 343.3,262.3 345.5,262.0 350.0,261.9 354.5,261.9 356.7,261.6 358.9,261.4 361.2,260.8 363.4,260.4 365.7,260.1 367.9,259.7 370.1,259.3 372.4,258.9 374.6,258.5 376.9,258.0 379.1,257.6 381.3,257.2 383.6,256.9 385.8,256.6 388.1,256.3 390.3,256.1 392.5,255.9 394.8,255.7 397.0,255.6 399.3,255.5 403.7,255.4 406.0,254.6 408.2,253.9 410.5,253.8 412.7,253.8 417.2,253.7 419.4,253.6 428.4,253.5 432.9,253.4 439.6,253.4 441.8,252.4 444.1,251.4 446.3,251.2 448.6,250.4 450.8,249.8 453.0,249.4 455.3,249.1 457.5,248.7 459.8,248.6 462.0,248.5 464.2,248.3 466.5,248.2 479.9,247.5 482.2,246.6 484.4,246.5 486.6,246.4 488.9,246.3 504.6,246.3 524.7,245.4 527.0,244.7 529.2,243.9 531.5,242.6 533.7,242.4 535.9,242.0 538.2,241.3 540.4,240.8 542.7,239.6 544.9,237.9 547.1,236.2 549.4,234.1 551.6,232.1 553.9,230.2 556.1,229.1 558.3,227.7 560.6,225.7 562.8,224.0 565.1,222.9 567.3,221.7 569.5,220.0 571.8,219.0 574.0,217.9 576.3,217.0 578.5,216.3 580.7,215.4 583.0,214.8 585.2,214.2 587.5,213.7 589.7,212.1 591.9,210.9 594.2,210.2 596.4,209.9 598.7,209.5 600.9,208.9 603.1,208.3 605.4,207.3 607.6,206.6 609.9,206.0 612.1,205.9 614.3,205.7 616.6,205.2 618.8,203.9 621.1,201.8 623.3,199.7 625.6,197.6 627.8,195.8 630.0,193.8 632.3,191.6 634.5,189.3 636.8,187.3 639.0,185.8 641.2,184.6 643.5,183.3 645.7,182.0 648.0,181.1 650.2,180.0 652.4,179.3 654.7,178.1 656.9,176.6 659.2,174.7 661.4,173.2 663.6,171.9 665.9,171.0 668.1,170.2 670.4,169.4 672.6,168.5 674.8,167.1 677.1,165.8 679.3,164.3 681.6,162.7 683.8,161.4 686.0,160.3 688.3,159.9 690.5,159.3 692.8,158.7 695.0,158.6 697.2,158.5 699.5,158.2 701.7,158.1 704.0,158.0 706.2,157.8 708.4,157.7 715.2,157.7 717.4,157.6 719.7,157.4 721.9,155.6 724.1,154.0 726.4,152.7 728.6,151.1 730.9,149.8 733.1,148.4 735.3,147.0 737.6,145.7 739.8,144.2 742.1,142.9 744.3,141.6 746.5,140.3 748.8,139.0 751.0,137.7 753.3,136.4 755.5,135.3 757.7,134.1 760.0,132.9 762.2,131.7 764.5,130.5 766.7,129.3 768.9,128.6 771.2,127.8 773.4,127.0 775.7,125.8 777.9,124.8 780.1,123.9 782.4,122.7 784.6,121.7 786.9,120.8 789.1,119.7 791.3,118.7 793.6,117.7 795.8,116.7 798.1,115.6 800.3,114.7 802.5,113.6 804.8,112.8 807.0,112.0 809.3,111.0 811.5,110.1 813.7,109.2 816.0,108.5 818.2,107.9 820.5,107.5 822.7,107.4 825.0,106.4 827.2,105.6 829.4,104.7 831.7,103.8 833.9,103.1 836.2,102.2 838.4,101.4 840.6,100.5 842.9,99.7 845.1,99.0 847.4,98.3 849.6,97.5 851.8,96.6 854.1,95.9 856.3,95.2 858.6,94.4 860.8,93.6 863.0,93.0 865.3,92.1 867.5,91.5 869.8,90.9 872.0,90.0" fill="none" stroke="#38bdf8" stroke-width="2.5" stroke-linejoin="round" stroke-linecap="round"/>
<circle cx="872.0" cy="90.0" r="4" fill="#0ea5e9"/>
<text x="866.0" y="80.0" text-anchor="end" font-family="Inter, system-ui, sans-serif" font-size="13" font-weight="700" fill="#334155">4164</text>
<text x="52.0" y="294" text-anchor="middle" font-family="Inter, system-ui, sans-serif" font-size="11" fill="#94a3b8">Jun 10 05:00</text>
<text x="571.8" y="294" text-anchor="middle" font-family="Inter, system-ui, sans-serif" font-size="11" fill="#94a3b8">Jun 19 21:00</text>
<text x="872.0" y="294" text-anchor="middle" font-family="Inter, system-ui, sans-serif" font-size="11" fill="#94a3b8">Jun 25 11:00</text>
</svg>
