<svg xmlns="http://www.w3.org/2000/svg" width="900" height="320" viewBox="0 0 900 320" role="img" aria-labelledby="title desc">
<title id="title">unsorry proofs over time</title>
<desc id="desc">Cumulative kernel-verified proofs over time, by the hour each proof was merged.</desc>
<rect width="900" height="100%" rx="18" fill="#ffffff"/>
<rect x="0.5" y="0.5" width="899" height="319" rx="18" fill="none" stroke="#e2e8f0"/>
<text x="32" y="44" font-family="Inter, system-ui, sans-serif" font-size="28" font-weight="700" fill="#334155">unsorry — Proofs Over Time</text>
<text x="32" y="72" font-family="Inter, system-ui, sans-serif" font-size="13" fill="#64748b">4285 cumulative kernel-verified proofs · merged, hourly</text>
<line x1="52" y1="272.0" x2="872" y2="272.0" stroke="#f1f5f9"/>
<text x="44" y="276.0" text-anchor="end" font-family="Inter, system-ui, sans-serif" font-size="11" fill="#94a3b8">0</text>
<line x1="52" y1="226.5" x2="872" y2="226.5" stroke="#f1f5f9"/>
<text x="44" y="230.5" text-anchor="end" font-family="Inter, system-ui, sans-serif" font-size="11" fill="#94a3b8">1071</text>
<line x1="52" y1="181.0" x2="872" y2="181.0" stroke="#f1f5f9"/>
<text x="44" y="185.0" text-anchor="end" font-family="Inter, system-ui, sans-serif" font-size="11" fill="#94a3b8">2142</text>
<line x1="52" y1="135.5" x2="872" y2="135.5" stroke="#f1f5f9"/>
<text x="44" y="139.5" text-anchor="end" font-family="Inter, system-ui, sans-serif" font-size="11" fill="#94a3b8">3214</text>
<line x1="52" y1="90.0" x2="872" y2="90.0" stroke="#f1f5f9"/>
<text x="44" y="94.0" text-anchor="end" font-family="Inter, system-ui, sans-serif" font-size="11" fill="#94a3b8">4285</text>
<polygon points="52.0,272.0 52.0,272.0 54.2,271.9 80.6,271.4 82.8,271.3 85.0,271.3 91.6,271.2 104.8,271.2 133.3,271.2 135.5,270.8 137.7,270.7 144.3,270.6 146.5,270.6 148.7,270.6 150.9,270.4 155.3,270.4 157.5,270.2 164.1,270.0 172.9,269.9 175.1,269.8 177.3,269.7 194.9,269.7 199.3,269.6 210.3,269.6 212.5,269.5 214.7,269.5 223.5,269.4 225.7,269.2 227.9,268.9 230.1,268.4 232.3,268.3 247.7,268.3 254.3,268.2 258.6,268.2 260.8,268.1 263.0,267.9 265.2,267.9 267.4,267.8 269.6,267.7 271.8,267.6 280.6,267.4 285.0,267.3 293.8,267.3 296.0,267.1 298.2,267.0 300.4,266.9 304.8,266.9 307.0,266.1 309.2,265.2 311.4,264.9 313.6,264.7 315.8,264.6 318.0,264.4 320.2,264.1 322.4,263.9 324.6,263.8 326.8,263.7 331.2,263.5 333.4,263.2 335.6,262.9 337.8,262.5 340.0,262.3 344.4,262.2 348.8,262.2 351.0,261.9 353.2,261.7 355.4,261.1 357.6,260.7 359.8,260.4 362.0,260.1 364.2,259.7 366.4,259.3 368.6,258.9 370.8,258.4 373.0,258.0 375.2,257.6 377.4,257.3 379.6,257.0 381.8,256.7 384.0,256.5 386.2,256.3 388.4,256.1 390.6,256.0 392.8,255.9 397.1,255.9 399.3,255.1 401.5,254.5 403.7,254.3 405.9,254.3 410.3,254.2 412.5,254.1 421.3,254.0 425.7,253.9 432.3,253.9 434.5,252.9 436.7,252.0 438.9,251.7 441.1,251.0 443.3,250.4 445.5,250.0 447.7,249.8 449.9,249.4 452.1,249.2 454.3,249.1 456.5,249.0 458.7,248.9 471.9,248.2 474.1,247.4 476.3,247.2 478.5,247.1 480.7,247.1 496.1,247.0 515.9,246.1 518.1,245.5 520.3,244.6 522.5,243.5 524.7,243.2 526.9,242.9 529.1,242.2 531.2,241.7 533.4,240.5 535.6,238.8 537.8,237.2 540.0,235.2 542.2,233.2 544.4,231.4 546.6,230.3 548.8,229.0 551.0,227.0 553.2,225.4 555.4,224.3 557.6,223.1 559.8,221.5 562.0,220.5 564.2,219.5 566.4,218.6 568.6,217.9 570.8,217.0 573.0,216.4 575.2,215.8 577.4,215.3 579.6,213.8 581.8,212.6 584.0,211.9 586.2,211.7 588.4,211.3 590.6,210.7 592.8,210.1 595.0,209.1 597.2,208.5 599.4,207.9 601.6,207.8 603.8,207.5 606.0,207.1 608.2,205.8 610.4,203.8 612.6,201.7 614.8,199.7 617.0,198.0 619.2,196.0 621.4,193.8 623.6,191.7 625.8,189.7 628.0,188.2 630.2,187.1 632.4,185.8 634.6,184.5 636.8,183.7 639.0,182.6 641.2,181.9 643.4,180.8 645.6,179.3 647.8,177.5 650.0,176.0 652.2,174.7 654.4,173.8 656.6,173.1 658.8,172.3 661.0,171.5 663.2,170.0 665.4,168.8 667.5,167.3 669.7,165.8 671.9,164.5 674.1,163.5 676.3,163.1 678.5,162.5 680.7,161.9 682.9,161.8 685.1,161.7 687.3,161.4 689.5,161.3 691.7,161.2 693.9,161.0 696.1,160.9 702.7,160.9 704.9,160.8 707.1,160.6 709.3,158.8 711.5,157.4 713.7,156.0 715.9,154.6 718.1,153.2 720.3,151.9 722.5,150.5 724.7,149.3 726.9,147.8 729.1,146.6 731.3,145.3 733.5,144.0 735.7,142.8 737.9,141.5 740.1,140.2 742.3,139.2 744.5,138.0 746.7,136.8 748.9,135.6 751.1,134.5 753.3,133.4 755.5,132.6 757.7,131.8 759.9,131.1 762.1,130.0 764.3,129.0 766.5,128.1 768.7,126.9 770.9,125.9 773.1,125.0 775.3,124.0 777.5,123.0 779.7,122.0 781.9,121.1 784.1,120.0 786.3,119.1 788.5,118.1 790.7,117.3 792.9,116.5 795.1,115.5 797.3,114.6 799.5,113.8 801.7,113.1 803.8,112.5 806.0,112.1 808.2,112.0 810.4,111.1 812.6,110.3 814.8,109.5 817.0,108.6 819.2,107.8 821.4,107.0 823.6,106.2 825.8,105.4 828.0,104.6 830.2,103.9 832.4,103.2 834.6,102.4 836.8,101.6 839.0,100.9 841.2,100.2 843.4,99.4 845.6,98.7 847.8,98.0 850.0,97.2 852.2,96.6 854.4,96.0 856.6,95.1 858.8,94.2 861.0,93.6 863.2,92.8 865.4,92.0 867.6,91.4 869.8,90.7 872.0,90.0 872.0,272.0" fill="#e0f2fe" opacity="0.55"/>
<polyline points="52.0,272.0 54.2,271.9 80.6,271.4 82.8,271.3 85.0,271.3 91.6,271.2 104.8,271.2 133.3,271.2 135.5,270.8 137.7,270.7 144.3,270.6 146.5,270.6 148.7,270.6 150.9,270.4 155.3,270.4 157.5,270.2 164.1,270.0 172.9,269.9 175.1,269.8 177.3,269.7 194.9,269.7 199.3,269.6 210.3,269.6 212.5,269.5 214.7,269.5 223.5,269.4 225.7,269.2 227.9,268.9 230.1,268.4 232.3,268.3 247.7,268.3 254.3,268.2 258.6,268.2 260.8,268.1 263.0,267.9 265.2,267.9 267.4,267.8 269.6,267.7 271.8,267.6 280.6,267.4 285.0,267.3 293.8,267.3 296.0,267.1 298.2,267.0 300.4,266.9 304.8,266.9 307.0,266.1 309.2,265.2 311.4,264.9 313.6,264.7 315.8,264.6 318.0,264.4 320.2,264.1 322.4,263.9 324.6,263.8 326.8,263.7 331.2,263.5 333.4,263.2 335.6,262.9 337.8,262.5 340.0,262.3 344.4,262.2 348.8,262.2 351.0,261.9 353.2,261.7 355.4,261.1 357.6,260.7 359.8,260.4 362.0,260.1 364.2,259.7 366.4,259.3 368.6,258.9 370.8,258.4 373.0,258.0 375.2,257.6 377.4,257.3 379.6,257.0 381.8,256.7 384.0,256.5 386.2,256.3 388.4,256.1 390.6,256.0 392.8,255.9 397.1,255.9 399.3,255.1 401.5,254.5 403.7,254.3 405.9,254.3 410.3,254.2 412.5,254.1 421.3,254.0 425.7,253.9 432.3,253.9 434.5,252.9 436.7,252.0 438.9,251.7 441.1,251.0 443.3,250.4 445.5,250.0 447.7,249.8 449.9,249.4 452.1,249.2 454.3,249.1 456.5,249.0 458.7,248.9 471.9,248.2 474.1,247.4 476.3,247.2 478.5,247.1 480.7,247.1 496.1,247.0 515.9,246.1 518.1,245.5 520.3,244.6 522.5,243.5 524.7,243.2 526.9,242.9 529.1,242.2 531.2,241.7 533.4,240.5 535.6,238.8 537.8,237.2 540.0,235.2 542.2,233.2 544.4,231.4 546.6,230.3 548.8,229.0 551.0,227.0 553.2,225.4 555.4,224.3 557.6,223.1 559.8,221.5 562.0,220.5 564.2,219.5 566.4,218.6 568.6,217.9 570.8,217.0 573.0,216.4 575.2,215.8 577.4,215.3 579.6,213.8 581.8,212.6 584.0,211.9 586.2,211.7 588.4,211.3 590.6,210.7 592.8,210.1 595.0,209.1 597.2,208.5 599.4,207.9 601.6,207.8 603.8,207.5 606.0,207.1 608.2,205.8 610.4,203.8 612.6,201.7 614.8,199.7 617.0,198.0 619.2,196.0 621.4,193.8 623.6,191.7 625.8,189.7 628.0,188.2 630.2,187.1 632.4,185.8 634.6,184.5 636.8,183.7 639.0,182.6 641.2,181.9 643.4,180.8 645.6,179.3 647.8,177.5 650.0,176.0 652.2,174.7 654.4,173.8 656.6,173.1 658.8,172.3 661.0,171.5 663.2,170.0 665.4,168.8 667.5,167.3 669.7,165.8 671.9,164.5 674.1,163.5 676.3,163.1 678.5,162.5 680.7,161.9 682.9,161.8 685.1,161.7 687.3,161.4 689.5,161.3 691.7,161.2 693.9,161.0 696.1,160.9 702.7,160.9 704.9,160.8 707.1,160.6 709.3,158.8 711.5,157.4 713.7,156.0 715.9,154.6 718.1,153.2 720.3,151.9 722.5,150.5 724.7,149.3 726.9,147.8 729.1,146.6 731.3,145.3 733.5,144.0 735.7,142.8 737.9,141.5 740.1,140.2 742.3,139.2 744.5,138.0 746.7,136.8 748.9,135.6 751.1,134.5 753.3,133.4 755.5,132.6 757.7,131.8 759.9,131.1 762.1,130.0 764.3,129.0 766.5,128.1 768.7,126.9 770.9,125.9 773.1,125.0 775.3,124.0 777.5,123.0 779.7,122.0 781.9,121.1 784.1,120.0 786.3,119.1 788.5,118.1 790.7,117.3 792.9,116.5 795.1,115.5 797.3,114.6 799.5,113.8 801.7,113.1 803.8,112.5 806.0,112.1 808.2,112.0 810.4,111.1 812.6,110.3 814.8,109.5 817.0,108.6 819.2,107.8 821.4,107.0 823.6,106.2 825.8,105.4 828.0,104.6 830.2,103.9 832.4,103.2 834.6,102.4 836.8,101.6 839.0,100.9 841.2,100.2 843.4,99.4 845.6,98.7 847.8,98.0 850.0,97.2 852.2,96.6 854.4,96.0 856.6,95.1 858.8,94.2 861.0,93.6 863.2,92.8 865.4,92.0 867.6,91.4 869.8,90.7 872.0,90.0" fill="none" stroke="#38bdf8" stroke-width="2.5" stroke-linejoin="round" stroke-linecap="round"/>
<circle cx="872.0" cy="90.0" r="4" fill="#0ea5e9"/>
<text x="866.0" y="80.0" text-anchor="end" font-family="Inter, system-ui, sans-serif" font-size="13" font-weight="700" fill="#334155">4285</text>
<text x="52.0" y="294" text-anchor="middle" font-family="Inter, system-ui, sans-serif" font-size="11" fill="#94a3b8">Jun 10 05:00</text>
<text x="570.8" y="294" text-anchor="middle" font-family="Inter, system-ui, sans-serif" font-size="11" fill="#94a3b8">Jun 20 01:00</text>
<text x="872.0" y="294" text-anchor="middle" font-family="Inter, system-ui, sans-serif" font-size="11" fill="#94a3b8">Jun 25 18:00</text>
</svg>
