<svg xmlns="http://www.w3.org/2000/svg" width="900" height="320" viewBox="0 0 900 320" role="img" aria-labelledby="title desc">
<title id="title">unsorry proofs over time</title>
<desc id="desc">Cumulative kernel-verified proofs over time, by the hour each proof was merged.</desc>
<rect width="900" height="100%" rx="18" fill="#ffffff"/>
<rect x="0.5" y="0.5" width="899" height="319" rx="18" fill="none" stroke="#e2e8f0"/>
<text x="32" y="44" font-family="Inter, system-ui, sans-serif" font-size="28" font-weight="700" fill="#334155">unsorry — Proofs Over Time</text>
<text x="32" y="72" font-family="Inter, system-ui, sans-serif" font-size="13" fill="#64748b">3016 cumulative kernel-verified proofs · merged, hourly</text>
<line x1="52" y1="272.0" x2="872" y2="272.0" stroke="#f1f5f9"/>
<text x="44" y="276.0" text-anchor="end" font-family="Inter, system-ui, sans-serif" font-size="11" fill="#94a3b8">0</text>
<line x1="52" y1="226.5" x2="872" y2="226.5" stroke="#f1f5f9"/>
<text x="44" y="230.5" text-anchor="end" font-family="Inter, system-ui, sans-serif" font-size="11" fill="#94a3b8">754</text>
<line x1="52" y1="181.0" x2="872" y2="181.0" stroke="#f1f5f9"/>
<text x="44" y="185.0" text-anchor="end" font-family="Inter, system-ui, sans-serif" font-size="11" fill="#94a3b8">1508</text>
<line x1="52" y1="135.5" x2="872" y2="135.5" stroke="#f1f5f9"/>
<text x="44" y="139.5" text-anchor="end" font-family="Inter, system-ui, sans-serif" font-size="11" fill="#94a3b8">2262</text>
<line x1="52" y1="90.0" x2="872" y2="90.0" stroke="#f1f5f9"/>
<text x="44" y="94.0" text-anchor="end" font-family="Inter, system-ui, sans-serif" font-size="11" fill="#94a3b8">3016</text>
<polygon points="52.0,272.0 52.0,271.9 54.6,271.8 86.3,271.2 88.9,271.0 91.5,271.0 99.5,270.9 115.3,270.9 149.6,270.8 152.2,270.2 154.8,270.2 162.7,270.1 165.4,270.0 168.0,269.9 170.6,269.8 175.9,269.7 178.6,269.4 186.5,269.2 197.0,269.0 199.7,268.9 202.3,268.7 223.4,268.7 228.7,268.6 241.8,268.6 244.5,268.5 247.1,268.4 257.7,268.3 260.3,268.0 262.9,267.7 265.6,266.9 268.2,266.8 286.7,266.7 294.6,266.6 299.8,266.6 302.5,266.5 305.1,266.2 307.8,266.1 310.4,266.1 313.0,265.9 315.7,265.7 326.2,265.4 331.5,265.4 342.0,265.3 344.7,265.0 347.3,264.9 349.9,264.8 355.2,264.8 357.9,263.6 360.5,262.3 363.1,261.9 365.8,261.6 368.4,261.5 371.0,261.2 373.7,260.8 376.3,260.5 378.9,260.3 381.6,260.2 386.9,260.0 389.5,259.5 392.1,259.0 394.8,258.5 397.4,258.2 402.7,258.1 407.9,258.1 410.6,257.6 413.2,257.3 415.9,256.5 418.5,256.0 421.1,255.5 423.8,255.0 426.4,254.5 429.0,254.0 431.7,253.4 434.3,252.7 437.0,252.1 439.6,251.5 442.2,251.2 444.9,250.8 447.5,250.3 450.1,250.0 452.8,249.7 455.4,249.4 458.0,249.3 460.7,249.2 466.0,249.1 468.6,247.9 471.2,247.1 473.9,246.9 476.5,246.8 481.8,246.7 484.4,246.5 495.0,246.5 500.2,246.4 508.1,246.3 510.8,244.9 513.4,243.6 516.1,243.2 518.7,242.1 521.3,241.3 524.0,240.7 526.6,240.4 529.2,239.9 531.9,239.7 534.5,239.5 537.1,239.3 539.8,239.2 555.6,238.2 558.2,237.0 560.9,236.8 563.5,236.6 566.1,236.6 584.6,236.5 608.3,235.2 611.0,234.3 613.6,233.1 616.2,231.4 618.9,231.1 621.5,230.6 624.2,229.6 626.8,228.9 629.4,227.3 632.1,224.9 634.7,222.5 637.3,219.7 640.0,216.8 642.6,214.3 645.2,212.7 647.9,210.9 650.5,208.1 653.2,205.7 655.8,204.2 658.4,202.5 661.1,200.2 663.7,198.8 666.3,197.4 669.0,196.1 671.6,195.1 674.3,193.9 676.9,193.1 679.5,192.2 682.2,191.5 684.8,189.3 687.4,187.6 690.1,186.6 692.7,186.3 695.3,185.8 698.0,184.9 700.6,184.1 703.3,182.6 705.9,181.7 708.5,180.9 711.2,180.8 713.8,180.4 716.4,179.7 719.1,178.0 721.7,175.1 724.3,172.2 727.0,169.2 729.6,166.8 732.3,164.0 734.9,161.0 737.5,157.9 740.2,155.1 742.8,153.0 745.4,151.4 748.1,149.5 750.7,147.7 753.4,146.5 756.0,145.0 758.6,143.9 761.3,142.4 763.9,140.3 766.5,137.7 769.2,135.6 771.8,133.8 774.4,132.5 777.1,131.5 779.7,130.4 782.4,129.2 785.0,127.1 787.6,125.4 790.3,123.2 792.9,121.1 795.5,119.3 798.2,117.8 800.8,117.2 803.4,116.4 806.1,115.5 808.7,115.4 811.4,115.3 814.0,114.9 816.6,114.7 819.3,114.6 821.9,114.3 824.5,114.2 832.5,114.1 835.1,114.1 837.7,113.7 840.4,111.2 843.0,109.1 845.6,107.3 848.3,105.1 850.9,103.3 853.5,101.4 856.2,99.4 858.8,97.6 861.5,95.6 864.1,93.8 866.7,91.9 869.4,90.1 872.0,90.0 872.0,272.0" fill="#e0f2fe" opacity="0.55"/>
<polyline points="52.0,271.9 54.6,271.8 86.3,271.2 88.9,271.0 91.5,271.0 99.5,270.9 115.3,270.9 149.6,270.8 152.2,270.2 154.8,270.2 162.7,270.1 165.4,270.0 168.0,269.9 170.6,269.8 175.9,269.7 178.6,269.4 186.5,269.2 197.0,269.0 199.7,268.9 202.3,268.7 223.4,268.7 228.7,268.6 241.8,268.6 244.5,268.5 247.1,268.4 257.7,268.3 260.3,268.0 262.9,267.7 265.6,266.9 268.2,266.8 286.7,266.7 294.6,266.6 299.8,266.6 302.5,266.5 305.1,266.2 307.8,266.1 310.4,266.1 313.0,265.9 315.7,265.7 326.2,265.4 331.5,265.4 342.0,265.3 344.7,265.0 347.3,264.9 349.9,264.8 355.2,264.8 357.9,263.6 360.5,262.3 363.1,261.9 365.8,261.6 368.4,261.5 371.0,261.2 373.7,260.8 376.3,260.5 378.9,260.3 381.6,260.2 386.9,260.0 389.5,259.5 392.1,259.0 394.8,258.5 397.4,258.2 402.7,258.1 407.9,258.1 410.6,257.6 413.2,257.3 415.9,256.5 418.5,256.0 421.1,255.5 423.8,255.0 426.4,254.5 429.0,254.0 431.7,253.4 434.3,252.7 437.0,252.1 439.6,251.5 442.2,251.2 444.9,250.8 447.5,250.3 450.1,250.0 452.8,249.7 455.4,249.4 458.0,249.3 460.7,249.2 466.0,249.1 468.6,247.9 471.2,247.1 473.9,246.9 476.5,246.8 481.8,246.7 484.4,246.5 495.0,246.5 500.2,246.4 508.1,246.3 510.8,244.9 513.4,243.6 516.1,243.2 518.7,242.1 521.3,241.3 524.0,240.7 526.6,240.4 529.2,239.9 531.9,239.7 534.5,239.5 537.1,239.3 539.8,239.2 555.6,238.2 558.2,237.0 560.9,236.8 563.5,236.6 566.1,236.6 584.6,236.5 608.3,235.2 611.0,234.3 613.6,233.1 616.2,231.4 618.9,231.1 621.5,230.6 624.2,229.6 626.8,228.9 629.4,227.3 632.1,224.9 634.7,222.5 637.3,219.7 640.0,216.8 642.6,214.3 645.2,212.7 647.9,210.9 650.5,208.1 653.2,205.7 655.8,204.2 658.4,202.5 661.1,200.2 663.7,198.8 666.3,197.4 669.0,196.1 671.6,195.1 674.3,193.9 676.9,193.1 679.5,192.2 682.2,191.5 684.8,189.3 687.4,187.6 690.1,186.6 692.7,186.3 695.3,185.8 698.0,184.9 700.6,184.1 703.3,182.6 705.9,181.7 708.5,180.9 711.2,180.8 713.8,180.4 716.4,179.7 719.1,178.0 721.7,175.1 724.3,172.2 727.0,169.2 729.6,166.8 732.3,164.0 734.9,161.0 737.5,157.9 740.2,155.1 742.8,153.0 745.4,151.4 748.1,149.5 750.7,147.7 753.4,146.5 756.0,145.0 758.6,143.9 761.3,142.4 763.9,140.3 766.5,137.7 769.2,135.6 771.8,133.8 774.4,132.5 777.1,131.5 779.7,130.4 782.4,129.2 785.0,127.1 787.6,125.4 790.3,123.2 792.9,121.1 795.5,119.3 798.2,117.8 800.8,117.2 803.4,116.4 806.1,115.5 808.7,115.4 811.4,115.3 814.0,114.9 816.6,114.7 819.3,114.6 821.9,114.3 824.5,114.2 832.5,114.1 835.1,114.1 837.7,113.7 840.4,111.2 843.0,109.1 845.6,107.3 848.3,105.1 850.9,103.3 853.5,101.4 856.2,99.4 858.8,97.6 861.5,95.6 864.1,93.8 866.7,91.9 869.4,90.1 872.0,90.0" fill="none" stroke="#38bdf8" stroke-width="2.5" stroke-linejoin="round" stroke-linecap="round"/>
<circle cx="872.0" cy="90.0" r="4" fill="#0ea5e9"/>
<text x="866.0" y="80.0" text-anchor="end" font-family="Inter, system-ui, sans-serif" font-size="13" font-weight="700" fill="#334155">3016</text>
<text x="52.0" y="294" text-anchor="middle" font-family="Inter, system-ui, sans-serif" font-size="11" fill="#94a3b8">Jun 10 05:00</text>
<text x="555.6" y="294" text-anchor="middle" font-family="Inter, system-ui, sans-serif" font-size="11" fill="#94a3b8">Jun 18 04:00</text>
<text x="872.0" y="294" text-anchor="middle" font-family="Inter, system-ui, sans-serif" font-size="11" fill="#94a3b8">Jun 23 04:00</text>
</svg>
