<svg xmlns="http://www.w3.org/2000/svg" width="900" height="320" viewBox="0 0 900 320" role="img" aria-labelledby="title desc">
<title id="title">Unsorry proofs over time</title>
<desc id="desc">Cumulative kernel-verified proofs over time, by the hour each proof was merged.</desc>
<rect width="900" height="100%" rx="18" fill="#ffffff"/>
<rect x="0.5" y="0.5" width="899" height="319" rx="18" fill="none" stroke="#e2e8f0"/>
<text x="32" y="44" font-family="Inter, system-ui, sans-serif" font-size="28" font-weight="700" fill="#334155">Unsorry — Proofs Over Time</text>
<text x="32" y="72" font-family="Inter, system-ui, sans-serif" font-size="13" fill="#64748b">2066 cumulative kernel-verified proofs · merged, hourly</text>
<line x1="52" y1="272.0" x2="872" y2="272.0" stroke="#f1f5f9"/>
<text x="44" y="276.0" text-anchor="end" font-family="Inter, system-ui, sans-serif" font-size="11" fill="#94a3b8">0</text>
<line x1="52" y1="226.5" x2="872" y2="226.5" stroke="#f1f5f9"/>
<text x="44" y="230.5" text-anchor="end" font-family="Inter, system-ui, sans-serif" font-size="11" fill="#94a3b8">516</text>
<line x1="52" y1="181.0" x2="872" y2="181.0" stroke="#f1f5f9"/>
<text x="44" y="185.0" text-anchor="end" font-family="Inter, system-ui, sans-serif" font-size="11" fill="#94a3b8">1033</text>
<line x1="52" y1="135.5" x2="872" y2="135.5" stroke="#f1f5f9"/>
<text x="44" y="139.5" text-anchor="end" font-family="Inter, system-ui, sans-serif" font-size="11" fill="#94a3b8">1550</text>
<line x1="52" y1="90.0" x2="872" y2="90.0" stroke="#f1f5f9"/>
<text x="44" y="94.0" text-anchor="end" font-family="Inter, system-ui, sans-serif" font-size="11" fill="#94a3b8">2066</text>
<polygon points="52.0,272.0 52.0,271.9 55.1,271.7 92.1,270.9 95.2,270.6 98.2,270.5 107.5,270.4 126.0,270.3 166.1,270.2 169.1,269.4 172.2,269.4 181.5,269.2 184.6,269.1 187.6,269.0 190.7,268.7 196.9,268.7 200.0,268.2 209.2,267.9 221.5,267.7 224.6,267.4 227.7,267.2 252.4,267.2 258.5,267.1 274.0,267.0 277.0,266.9 280.1,266.7 292.5,266.6 295.5,266.1 298.6,265.7 301.7,264.5 304.8,264.3 326.4,264.2 335.6,264.2 341.8,264.1 344.9,264.0 347.9,263.5 351.0,263.5 354.1,263.4 357.2,263.1 360.3,262.8 372.6,262.4 378.8,262.3 391.1,262.2 394.2,261.8 397.3,261.7 400.3,261.5 406.5,261.4 409.6,259.7 412.7,257.9 415.8,257.3 418.8,256.8 421.9,256.7 425.0,256.2 428.1,255.6 431.2,255.2 434.3,254.9 437.3,254.7 443.5,254.5 446.6,253.8 449.7,253.1 452.8,252.4 455.8,251.9 462.0,251.7 468.2,251.7 471.2,251.0 474.3,250.6 477.4,249.4 480.5,248.7 483.6,248.0 486.7,247.2 489.7,246.5 492.8,245.7 495.9,244.8 499.0,243.8 502.1,242.9 505.2,242.1 508.2,241.6 511.3,241.0 514.4,240.3 517.5,239.9 520.6,239.5 523.7,239.1 526.7,238.9 529.8,238.7 536.0,238.6 539.1,236.9 542.2,235.6 545.2,235.4 548.3,235.3 554.5,235.1 557.6,234.8 569.9,234.7 576.1,234.6 585.3,234.5 588.4,232.4 591.5,230.5 594.6,230.0 597.6,228.4 600.7,227.2 603.8,226.4 606.9,225.9 610.0,225.1 613.1,224.8 616.1,224.6 619.2,224.3 622.3,224.1 640.8,222.7 643.9,220.9 647.0,220.6 650.0,220.4 653.1,220.3 674.7,220.2 702.5,218.4 705.5,216.9 708.6,215.3 711.7,212.8 714.8,212.4 717.9,211.6 720.9,210.2 724.0,209.1 727.1,206.7 730.2,203.2 733.3,199.8 736.4,195.7 739.4,191.5 742.5,187.8 745.6,185.5 748.7,182.8 751.8,178.7 754.9,175.3 757.9,173.0 761.0,170.6 764.1,167.3 767.2,165.1 770.3,163.0 773.4,161.2 776.4,159.8 779.5,157.9 782.6,156.8 785.7,155.5 788.8,154.5 791.8,151.3 794.9,148.8 798.0,147.3 801.1,146.9 804.2,146.1 807.3,144.8 810.3,143.6 813.4,141.5 816.5,140.2 819.6,139.0 822.7,138.8 825.8,138.3 828.8,137.3 831.9,134.8 835.0,130.6 838.1,126.3 841.2,122.0 844.3,118.5 847.3,114.3 850.4,109.9 853.5,105.4 856.6,101.3 859.7,98.3 862.8,95.9 865.8,93.2 868.9,90.5 872.0,90.0 872.0,272.0" fill="#e0f2fe" opacity="0.55"/>
<polyline points="52.0,271.9 55.1,271.7 92.1,270.9 95.2,270.6 98.2,270.5 107.5,270.4 126.0,270.3 166.1,270.2 169.1,269.4 172.2,269.4 181.5,269.2 184.6,269.1 187.6,269.0 190.7,268.7 196.9,268.7 200.0,268.2 209.2,267.9 221.5,267.7 224.6,267.4 227.7,267.2 252.4,267.2 258.5,267.1 274.0,267.0 277.0,266.9 280.1,266.7 292.5,266.6 295.5,266.1 298.6,265.7 301.7,264.5 304.8,264.3 326.4,264.2 335.6,264.2 341.8,264.1 344.9,264.0 347.9,263.5 351.0,263.5 354.1,263.4 357.2,263.1 360.3,262.8 372.6,262.4 378.8,262.3 391.1,262.2 394.2,261.8 397.3,261.7 400.3,261.5 406.5,261.4 409.6,259.7 412.7,257.9 415.8,257.3 418.8,256.8 421.9,256.7 425.0,256.2 428.1,255.6 431.2,255.2 434.3,254.9 437.3,254.7 443.5,254.5 446.6,253.8 449.7,253.1 452.8,252.4 455.8,251.9 462.0,251.7 468.2,251.7 471.2,251.0 474.3,250.6 477.4,249.4 480.5,248.7 483.6,248.0 486.7,247.2 489.7,246.5 492.8,245.7 495.9,244.8 499.0,243.8 502.1,242.9 505.2,242.1 508.2,241.6 511.3,241.0 514.4,240.3 517.5,239.9 520.6,239.5 523.7,239.1 526.7,238.9 529.8,238.7 536.0,238.6 539.1,236.9 542.2,235.6 545.2,235.4 548.3,235.3 554.5,235.1 557.6,234.8 569.9,234.7 576.1,234.6 585.3,234.5 588.4,232.4 591.5,230.5 594.6,230.0 597.6,228.4 600.7,227.2 603.8,226.4 606.9,225.9 610.0,225.1 613.1,224.8 616.1,224.6 619.2,224.3 622.3,224.1 640.8,222.7 643.9,220.9 647.0,220.6 650.0,220.4 653.1,220.3 674.7,220.2 702.5,218.4 705.5,216.9 708.6,215.3 711.7,212.8 714.8,212.4 717.9,211.6 720.9,210.2 724.0,209.1 727.1,206.7 730.2,203.2 733.3,199.8 736.4,195.7 739.4,191.5 742.5,187.8 745.6,185.5 748.7,182.8 751.8,178.7 754.9,175.3 757.9,173.0 761.0,170.6 764.1,167.3 767.2,165.1 770.3,163.0 773.4,161.2 776.4,159.8 779.5,157.9 782.6,156.8 785.7,155.5 788.8,154.5 791.8,151.3 794.9,148.8 798.0,147.3 801.1,146.9 804.2,146.1 807.3,144.8 810.3,143.6 813.4,141.5 816.5,140.2 819.6,139.0 822.7,138.8 825.8,138.3 828.8,137.3 831.9,134.8 835.0,130.6 838.1,126.3 841.2,122.0 844.3,118.5 847.3,114.3 850.4,109.9 853.5,105.4 856.6,101.3 859.7,98.3 862.8,95.9 865.8,93.2 868.9,90.5 872.0,90.0" fill="none" stroke="#38bdf8" stroke-width="2.5" stroke-linejoin="round" stroke-linecap="round"/>
<circle cx="872.0" cy="90.0" r="4" fill="#0ea5e9"/>
<text x="866.0" y="80.0" text-anchor="end" font-family="Inter, system-ui, sans-serif" font-size="13" font-weight="700" fill="#334155">2066</text>
<text x="52.0" y="294" text-anchor="middle" font-family="Inter, system-ui, sans-serif" font-size="11" fill="#94a3b8">Jun 10 05:00</text>
<text x="536.0" y="294" text-anchor="middle" font-family="Inter, system-ui, sans-serif" font-size="11" fill="#94a3b8">Jun 16 18:00</text>
<text x="872.0" y="294" text-anchor="middle" font-family="Inter, system-ui, sans-serif" font-size="11" fill="#94a3b8">Jun 21 07:00</text>
</svg>
