<svg xmlns="http://www.w3.org/2000/svg" width="900" height="320" viewBox="0 0 900 320" role="img" aria-labelledby="title desc">
<title id="title">unsorry proofs over time</title>
<desc id="desc">Cumulative kernel-verified proofs over time, by the hour each proof was merged.</desc>
<rect width="900" height="100%" rx="18" fill="#ffffff"/>
<rect x="0.5" y="0.5" width="899" height="319" rx="18" fill="none" stroke="#e2e8f0"/>
<text x="32" y="44" font-family="Inter, system-ui, sans-serif" font-size="28" font-weight="700" fill="#334155">unsorry — Proofs Over Time</text>
<text x="32" y="72" font-family="Inter, system-ui, sans-serif" font-size="13" fill="#64748b">2844 cumulative kernel-verified proofs · merged, hourly</text>
<line x1="52" y1="272.0" x2="872" y2="272.0" stroke="#f1f5f9"/>
<text x="44" y="276.0" text-anchor="end" font-family="Inter, system-ui, sans-serif" font-size="11" fill="#94a3b8">0</text>
<line x1="52" y1="226.5" x2="872" y2="226.5" stroke="#f1f5f9"/>
<text x="44" y="230.5" text-anchor="end" font-family="Inter, system-ui, sans-serif" font-size="11" fill="#94a3b8">711</text>
<line x1="52" y1="181.0" x2="872" y2="181.0" stroke="#f1f5f9"/>
<text x="44" y="185.0" text-anchor="end" font-family="Inter, system-ui, sans-serif" font-size="11" fill="#94a3b8">1422</text>
<line x1="52" y1="135.5" x2="872" y2="135.5" stroke="#f1f5f9"/>
<text x="44" y="139.5" text-anchor="end" font-family="Inter, system-ui, sans-serif" font-size="11" fill="#94a3b8">2133</text>
<line x1="52" y1="90.0" x2="872" y2="90.0" stroke="#f1f5f9"/>
<text x="44" y="94.0" text-anchor="end" font-family="Inter, system-ui, sans-serif" font-size="11" fill="#94a3b8">2844</text>
<polygon points="52.0,272.0 52.0,271.9 54.7,271.8 87.0,271.2 89.6,271.0 92.3,270.9 100.4,270.8 116.5,270.8 151.5,270.7 154.2,270.1 156.9,270.1 164.9,270.0 167.6,269.9 170.3,269.8 173.0,269.6 178.4,269.6 181.0,269.2 189.1,269.0 199.9,268.9 202.6,268.7 205.2,268.5 226.8,268.5 232.1,268.4 245.6,268.4 248.3,268.3 251.0,268.2 261.7,268.1 264.4,267.7 267.1,267.4 269.8,266.6 272.5,266.4 291.3,266.4 299.3,266.3 304.7,266.2 307.4,266.2 310.1,265.9 312.8,265.8 315.5,265.7 318.2,265.5 320.9,265.3 331.6,265.0 337.0,265.0 347.7,264.9 350.4,264.6 353.1,264.5 355.8,264.4 361.2,264.3 363.9,263.0 366.6,261.8 369.2,261.3 371.9,261.0 374.6,260.9 377.3,260.5 380.0,260.1 382.7,259.8 385.4,259.6 388.1,259.5 393.4,259.3 396.1,258.8 398.8,258.2 401.5,257.7 404.2,257.4 409.6,257.3 415.0,257.2 417.6,256.8 420.3,256.4 423.0,255.6 425.7,255.0 428.4,254.5 431.1,254.0 433.8,253.4 436.5,252.9 439.1,252.2 441.8,251.5 444.5,250.9 447.2,250.3 449.9,249.9 452.6,249.5 455.3,249.0 458.0,248.7 460.7,248.4 463.3,248.1 466.0,247.9 468.7,247.8 474.1,247.7 476.8,246.5 479.5,245.6 482.2,245.4 484.9,245.3 490.2,245.2 492.9,245.0 503.7,244.9 509.0,244.8 517.1,244.7 519.8,243.3 522.5,241.9 525.2,241.5 527.9,240.3 530.6,239.4 533.2,238.9 535.9,238.5 538.6,238.0 541.3,237.7 544.0,237.6 546.7,237.3 549.4,237.2 565.5,236.2 568.2,234.9 570.9,234.7 573.6,234.5 576.3,234.4 595.1,234.4 619.3,233.0 622.0,232.0 624.7,230.8 627.3,229.0 630.0,228.7 632.7,228.1 635.4,227.1 638.1,226.3 640.8,224.6 643.5,222.0 646.2,219.5 648.9,216.6 651.5,213.5 654.2,210.8 656.9,209.2 659.6,207.2 662.3,204.2 665.0,201.7 667.7,200.1 670.4,198.3 673.0,195.9 675.7,194.4 678.4,192.8 681.1,191.5 683.8,190.5 686.5,189.1 689.2,188.3 691.9,187.4 694.6,186.6 697.2,184.3 699.9,182.5 702.6,181.4 705.3,181.1 708.0,180.6 710.7,179.6 713.4,178.8 716.1,177.2 718.8,176.3 721.4,175.4 724.1,175.2 726.8,174.9 729.5,174.2 732.2,172.3 734.9,169.3 737.6,166.2 740.3,163.0 743.0,160.5 745.6,157.5 748.3,154.3 751.0,151.0 753.7,148.0 756.4,145.8 759.1,144.1 761.8,142.1 764.5,140.2 767.1,138.9 769.8,137.4 772.5,136.2 775.2,134.5 777.9,132.3 780.6,129.6 783.3,127.4 786.0,125.4 788.7,124.1 791.3,123.0 794.0,121.8 796.7,120.5 799.4,118.3 802.1,116.5 804.8,114.3 807.5,112.0 810.2,110.0 812.9,108.5 815.5,107.9 818.2,107.0 820.9,106.1 823.6,105.9 826.3,105.8 829.0,105.4 831.7,105.2 834.4,105.1 837.0,104.8 839.7,104.7 847.8,104.6 850.5,104.5 853.2,104.1 855.9,101.5 858.6,99.3 861.2,97.3 863.9,95.1 866.6,93.1 869.3,91.1 872.0,90.0 872.0,272.0" fill="#e0f2fe" opacity="0.55"/>
<polyline points="52.0,271.9 54.7,271.8 87.0,271.2 89.6,271.0 92.3,270.9 100.4,270.8 116.5,270.8 151.5,270.7 154.2,270.1 156.9,270.1 164.9,270.0 167.6,269.9 170.3,269.8 173.0,269.6 178.4,269.6 181.0,269.2 189.1,269.0 199.9,268.9 202.6,268.7 205.2,268.5 226.8,268.5 232.1,268.4 245.6,268.4 248.3,268.3 251.0,268.2 261.7,268.1 264.4,267.7 267.1,267.4 269.8,266.6 272.5,266.4 291.3,266.4 299.3,266.3 304.7,266.2 307.4,266.2 310.1,265.9 312.8,265.8 315.5,265.7 318.2,265.5 320.9,265.3 331.6,265.0 337.0,265.0 347.7,264.9 350.4,264.6 353.1,264.5 355.8,264.4 361.2,264.3 363.9,263.0 366.6,261.8 369.2,261.3 371.9,261.0 374.6,260.9 377.3,260.5 380.0,260.1 382.7,259.8 385.4,259.6 388.1,259.5 393.4,259.3 396.1,258.8 398.8,258.2 401.5,257.7 404.2,257.4 409.6,257.3 415.0,257.2 417.6,256.8 420.3,256.4 423.0,255.6 425.7,255.0 428.4,254.5 431.1,254.0 433.8,253.4 436.5,252.9 439.1,252.2 441.8,251.5 444.5,250.9 447.2,250.3 449.9,249.9 452.6,249.5 455.3,249.0 458.0,248.7 460.7,248.4 463.3,248.1 466.0,247.9 468.7,247.8 474.1,247.7 476.8,246.5 479.5,245.6 482.2,245.4 484.9,245.3 490.2,245.2 492.9,245.0 503.7,244.9 509.0,244.8 517.1,244.7 519.8,243.3 522.5,241.9 525.2,241.5 527.9,240.3 530.6,239.4 533.2,238.9 535.9,238.5 538.6,238.0 541.3,237.7 544.0,237.6 546.7,237.3 549.4,237.2 565.5,236.2 568.2,234.9 570.9,234.7 573.6,234.5 576.3,234.4 595.1,234.4 619.3,233.0 622.0,232.0 624.7,230.8 627.3,229.0 630.0,228.7 632.7,228.1 635.4,227.1 638.1,226.3 640.8,224.6 643.5,222.0 646.2,219.5 648.9,216.6 651.5,213.5 654.2,210.8 656.9,209.2 659.6,207.2 662.3,204.2 665.0,201.7 667.7,200.1 670.4,198.3 673.0,195.9 675.7,194.4 678.4,192.8 681.1,191.5 683.8,190.5 686.5,189.1 689.2,188.3 691.9,187.4 694.6,186.6 697.2,184.3 699.9,182.5 702.6,181.4 705.3,181.1 708.0,180.6 710.7,179.6 713.4,178.8 716.1,177.2 718.8,176.3 721.4,175.4 724.1,175.2 726.8,174.9 729.5,174.2 732.2,172.3 734.9,169.3 737.6,166.2 740.3,163.0 743.0,160.5 745.6,157.5 748.3,154.3 751.0,151.0 753.7,148.0 756.4,145.8 759.1,144.1 761.8,142.1 764.5,140.2 767.1,138.9 769.8,137.4 772.5,136.2 775.2,134.5 777.9,132.3 780.6,129.6 783.3,127.4 786.0,125.4 788.7,124.1 791.3,123.0 794.0,121.8 796.7,120.5 799.4,118.3 802.1,116.5 804.8,114.3 807.5,112.0 810.2,110.0 812.9,108.5 815.5,107.9 818.2,107.0 820.9,106.1 823.6,105.9 826.3,105.8 829.0,105.4 831.7,105.2 834.4,105.1 837.0,104.8 839.7,104.7 847.8,104.6 850.5,104.5 853.2,104.1 855.9,101.5 858.6,99.3 861.2,97.3 863.9,95.1 866.6,93.1 869.3,91.1 872.0,90.0" fill="none" stroke="#38bdf8" stroke-width="2.5" stroke-linejoin="round" stroke-linecap="round"/>
<circle cx="872.0" cy="90.0" r="4" fill="#0ea5e9"/>
<text x="866.0" y="80.0" text-anchor="end" font-family="Inter, system-ui, sans-serif" font-size="13" font-weight="700" fill="#334155">2844</text>
<text x="52.0" y="294" text-anchor="middle" font-family="Inter, system-ui, sans-serif" font-size="11" fill="#94a3b8">Jun 10 05:00</text>
<text x="544.0" y="294" text-anchor="middle" font-family="Inter, system-ui, sans-serif" font-size="11" fill="#94a3b8">Jun 17 20:00</text>
<text x="872.0" y="294" text-anchor="middle" font-family="Inter, system-ui, sans-serif" font-size="11" fill="#94a3b8">Jun 22 22:00</text>
</svg>
