<svg xmlns="http://www.w3.org/2000/svg" width="900" height="320" viewBox="0 0 900 320" role="img" aria-labelledby="title desc">
<title id="title">unsorry proofs over time</title>
<desc id="desc">Cumulative kernel-verified proofs over time, by the hour each proof was merged.</desc>
<rect width="900" height="100%" rx="18" fill="#ffffff"/>
<rect x="0.5" y="0.5" width="899" height="319" rx="18" fill="none" stroke="#e2e8f0"/>
<text x="32" y="44" font-family="Inter, system-ui, sans-serif" font-size="28" font-weight="700" fill="#334155">unsorry — Proofs Over Time</text>
<text x="32" y="72" font-family="Inter, system-ui, sans-serif" font-size="13" fill="#64748b">2970 cumulative kernel-verified proofs · merged, hourly</text>
<line x1="52" y1="272.0" x2="872" y2="272.0" stroke="#f1f5f9"/>
<text x="44" y="276.0" text-anchor="end" font-family="Inter, system-ui, sans-serif" font-size="11" fill="#94a3b8">0</text>
<line x1="52" y1="226.5" x2="872" y2="226.5" stroke="#f1f5f9"/>
<text x="44" y="230.5" text-anchor="end" font-family="Inter, system-ui, sans-serif" font-size="11" fill="#94a3b8">742</text>
<line x1="52" y1="181.0" x2="872" y2="181.0" stroke="#f1f5f9"/>
<text x="44" y="185.0" text-anchor="end" font-family="Inter, system-ui, sans-serif" font-size="11" fill="#94a3b8">1485</text>
<line x1="52" y1="135.5" x2="872" y2="135.5" stroke="#f1f5f9"/>
<text x="44" y="139.5" text-anchor="end" font-family="Inter, system-ui, sans-serif" font-size="11" fill="#94a3b8">2228</text>
<line x1="52" y1="90.0" x2="872" y2="90.0" stroke="#f1f5f9"/>
<text x="44" y="94.0" text-anchor="end" font-family="Inter, system-ui, sans-serif" font-size="11" fill="#94a3b8">2970</text>
<polygon points="52.0,272.0 52.0,271.9 54.7,271.8 86.5,271.2 89.2,271.0 91.8,271.0 99.8,270.9 115.7,270.8 150.2,270.8 152.8,270.2 155.5,270.2 163.5,270.0 166.1,270.0 168.8,269.9 171.4,269.7 176.7,269.7 179.4,269.4 187.3,269.1 198.0,269.0 200.6,268.8 203.3,268.7 224.5,268.6 229.8,268.6 243.1,268.5 245.7,268.4 248.4,268.3 259.0,268.3 261.6,267.9 264.3,267.6 267.0,266.8 269.6,266.7 288.2,266.6 296.1,266.5 301.4,266.5 304.1,266.4 306.8,266.1 309.4,266.1 312.1,266.0 314.7,265.8 317.4,265.6 328.0,265.3 333.3,265.3 343.9,265.2 346.6,264.9 349.2,264.8 351.9,264.7 357.2,264.6 359.8,263.4 362.5,262.2 365.1,261.8 367.8,261.5 370.4,261.3 373.1,261.0 375.8,260.6 378.4,260.3 381.1,260.1 383.7,260.0 389.0,259.8 391.7,259.3 394.3,258.8 397.0,258.3 399.6,258.0 404.9,257.9 410.3,257.8 412.9,257.4 415.6,257.1 418.2,256.3 420.9,255.8 423.5,255.3 426.2,254.8 428.8,254.2 431.5,253.7 434.1,253.1 436.8,252.4 439.4,251.8 442.1,251.2 444.8,250.9 447.4,250.4 450.1,249.9 452.7,249.7 455.4,249.4 458.0,249.1 460.7,249.0 463.3,248.8 468.6,248.8 471.3,247.5 473.9,246.7 476.6,246.5 479.2,246.4 484.6,246.3 487.2,246.1 497.8,246.1 503.1,246.0 511.1,245.9 513.7,244.5 516.4,243.1 519.1,242.8 521.7,241.7 524.4,240.8 527.0,240.3 529.7,240.0 532.3,239.4 535.0,239.2 537.6,239.0 540.3,238.8 542.9,238.7 558.9,237.7 561.5,236.5 564.2,236.3 566.8,236.1 569.5,236.0 588.1,236.0 611.9,234.7 614.6,233.7 617.2,232.5 619.9,230.8 622.6,230.5 625.2,230.0 627.9,229.0 630.5,228.2 633.2,226.6 635.8,224.1 638.5,221.8 641.1,218.9 643.8,216.0 646.4,213.4 649.1,211.8 651.7,209.9 654.4,207.1 657.0,204.7 659.7,203.1 662.4,201.5 665.0,199.1 667.7,197.7 670.3,196.2 673.0,194.9 675.6,193.9 678.3,192.6 680.9,191.8 683.6,191.0 686.2,190.3 688.9,188.0 691.5,186.3 694.2,185.3 696.9,185.0 699.5,184.4 702.2,183.5 704.8,182.7 707.5,181.2 710.1,180.3 712.8,179.5 715.4,179.3 718.1,179.0 720.7,178.3 723.4,176.5 726.0,173.6 728.7,170.6 731.4,167.6 734.0,165.2 736.7,162.3 739.3,159.2 742.0,156.1 744.6,153.2 747.3,151.2 749.9,149.5 752.6,147.6 755.2,145.8 757.9,144.5 760.5,143.1 763.2,142.0 765.9,140.4 768.5,138.2 771.2,135.7 773.8,133.5 776.5,131.6 779.1,130.4 781.8,129.3 784.4,128.2 787.1,127.0 789.7,124.9 792.4,123.1 795.0,120.9 797.7,118.7 800.3,116.9 803.0,115.4 805.7,114.8 808.3,114.0 811.0,113.1 813.6,113.0 816.3,112.9 818.9,112.4 821.6,112.2 824.2,112.2 826.9,111.9 829.5,111.8 837.5,111.7 840.2,111.6 842.8,111.3 845.5,108.8 848.1,106.6 850.8,104.7 853.4,102.6 856.1,100.7 858.7,98.8 861.4,96.7 864.0,94.9 866.7,92.9 869.3,91.0 872.0,90.0 872.0,272.0" fill="#e0f2fe" opacity="0.55"/>
<polyline points="52.0,271.9 54.7,271.8 86.5,271.2 89.2,271.0 91.8,271.0 99.8,270.9 115.7,270.8 150.2,270.8 152.8,270.2 155.5,270.2 163.5,270.0 166.1,270.0 168.8,269.9 171.4,269.7 176.7,269.7 179.4,269.4 187.3,269.1 198.0,269.0 200.6,268.8 203.3,268.7 224.5,268.6 229.8,268.6 243.1,268.5 245.7,268.4 248.4,268.3 259.0,268.3 261.6,267.9 264.3,267.6 267.0,266.8 269.6,266.7 288.2,266.6 296.1,266.5 301.4,266.5 304.1,266.4 306.8,266.1 309.4,266.1 312.1,266.0 314.7,265.8 317.4,265.6 328.0,265.3 333.3,265.3 343.9,265.2 346.6,264.9 349.2,264.8 351.9,264.7 357.2,264.6 359.8,263.4 362.5,262.2 365.1,261.8 367.8,261.5 370.4,261.3 373.1,261.0 375.8,260.6 378.4,260.3 381.1,260.1 383.7,260.0 389.0,259.8 391.7,259.3 394.3,258.8 397.0,258.3 399.6,258.0 404.9,257.9 410.3,257.8 412.9,257.4 415.6,257.1 418.2,256.3 420.9,255.8 423.5,255.3 426.2,254.8 428.8,254.2 431.5,253.7 434.1,253.1 436.8,252.4 439.4,251.8 442.1,251.2 444.8,250.9 447.4,250.4 450.1,249.9 452.7,249.7 455.4,249.4 458.0,249.1 460.7,249.0 463.3,248.8 468.6,248.8 471.3,247.5 473.9,246.7 476.6,246.5 479.2,246.4 484.6,246.3 487.2,246.1 497.8,246.1 503.1,246.0 511.1,245.9 513.7,244.5 516.4,243.1 519.1,242.8 521.7,241.7 524.4,240.8 527.0,240.3 529.7,240.0 532.3,239.4 535.0,239.2 537.6,239.0 540.3,238.8 542.9,238.7 558.9,237.7 561.5,236.5 564.2,236.3 566.8,236.1 569.5,236.0 588.1,236.0 611.9,234.7 614.6,233.7 617.2,232.5 619.9,230.8 622.6,230.5 625.2,230.0 627.9,229.0 630.5,228.2 633.2,226.6 635.8,224.1 638.5,221.8 641.1,218.9 643.8,216.0 646.4,213.4 649.1,211.8 651.7,209.9 654.4,207.1 657.0,204.7 659.7,203.1 662.4,201.5 665.0,199.1 667.7,197.7 670.3,196.2 673.0,194.9 675.6,193.9 678.3,192.6 680.9,191.8 683.6,191.0 686.2,190.3 688.9,188.0 691.5,186.3 694.2,185.3 696.9,185.0 699.5,184.4 702.2,183.5 704.8,182.7 707.5,181.2 710.1,180.3 712.8,179.5 715.4,179.3 718.1,179.0 720.7,178.3 723.4,176.5 726.0,173.6 728.7,170.6 731.4,167.6 734.0,165.2 736.7,162.3 739.3,159.2 742.0,156.1 744.6,153.2 747.3,151.2 749.9,149.5 752.6,147.6 755.2,145.8 757.9,144.5 760.5,143.1 763.2,142.0 765.9,140.4 768.5,138.2 771.2,135.7 773.8,133.5 776.5,131.6 779.1,130.4 781.8,129.3 784.4,128.2 787.1,127.0 789.7,124.9 792.4,123.1 795.0,120.9 797.7,118.7 800.3,116.9 803.0,115.4 805.7,114.8 808.3,114.0 811.0,113.1 813.6,113.0 816.3,112.9 818.9,112.4 821.6,112.2 824.2,112.2 826.9,111.9 829.5,111.8 837.5,111.7 840.2,111.6 842.8,111.3 845.5,108.8 848.1,106.6 850.8,104.7 853.4,102.6 856.1,100.7 858.7,98.8 861.4,96.7 864.0,94.9 866.7,92.9 869.3,91.0 872.0,90.0" fill="none" stroke="#38bdf8" stroke-width="2.5" stroke-linejoin="round" stroke-linecap="round"/>
<circle cx="872.0" cy="90.0" r="4" fill="#0ea5e9"/>
<text x="866.0" y="80.0" text-anchor="end" font-family="Inter, system-ui, sans-serif" font-size="13" font-weight="700" fill="#334155">2970</text>
<text x="52.0" y="294" text-anchor="middle" font-family="Inter, system-ui, sans-serif" font-size="11" fill="#94a3b8">Jun 10 05:00</text>
<text x="542.9" y="294" text-anchor="middle" font-family="Inter, system-ui, sans-serif" font-size="11" fill="#94a3b8">Jun 17 22:00</text>
<text x="872.0" y="294" text-anchor="middle" font-family="Inter, system-ui, sans-serif" font-size="11" fill="#94a3b8">Jun 23 02:00</text>
</svg>
