<svg xmlns="http://www.w3.org/2000/svg" width="900" height="320" viewBox="0 0 900 320" role="img" aria-labelledby="title desc">
<title id="title">unsorry proofs over time</title>
<desc id="desc">Cumulative kernel-verified proofs over time, by the hour each proof was merged.</desc>
<rect width="900" height="100%" rx="18" fill="#ffffff"/>
<rect x="0.5" y="0.5" width="899" height="319" rx="18" fill="none" stroke="#e2e8f0"/>
<text x="32" y="44" font-family="Inter, system-ui, sans-serif" font-size="28" font-weight="700" fill="#334155">unsorry — Proofs Over Time</text>
<text x="32" y="72" font-family="Inter, system-ui, sans-serif" font-size="13" fill="#64748b">4256 cumulative kernel-verified proofs · merged, hourly</text>
<line x1="52" y1="272.0" x2="872" y2="272.0" stroke="#f1f5f9"/>
<text x="44" y="276.0" text-anchor="end" font-family="Inter, system-ui, sans-serif" font-size="11" fill="#94a3b8">0</text>
<line x1="52" y1="226.5" x2="872" y2="226.5" stroke="#f1f5f9"/>
<text x="44" y="230.5" text-anchor="end" font-family="Inter, system-ui, sans-serif" font-size="11" fill="#94a3b8">1064</text>
<line x1="52" y1="181.0" x2="872" y2="181.0" stroke="#f1f5f9"/>
<text x="44" y="185.0" text-anchor="end" font-family="Inter, system-ui, sans-serif" font-size="11" fill="#94a3b8">2128</text>
<line x1="52" y1="135.5" x2="872" y2="135.5" stroke="#f1f5f9"/>
<text x="44" y="139.5" text-anchor="end" font-family="Inter, system-ui, sans-serif" font-size="11" fill="#94a3b8">3192</text>
<line x1="52" y1="90.0" x2="872" y2="90.0" stroke="#f1f5f9"/>
<text x="44" y="94.0" text-anchor="end" font-family="Inter, system-ui, sans-serif" font-size="11" fill="#94a3b8">4256</text>
<polygon points="52.0,272.0 52.0,272.0 54.2,271.9 80.7,271.4 82.9,271.3 85.1,271.3 91.7,271.2 104.9,271.2 133.6,271.1 135.8,270.8 138.0,270.7 144.6,270.6 146.8,270.6 149.0,270.5 151.2,270.4 155.6,270.4 157.8,270.2 164.4,270.0 173.2,269.9 175.4,269.8 177.6,269.7 195.3,269.6 199.7,269.6 210.7,269.6 212.9,269.5 215.1,269.4 223.9,269.4 226.1,269.1 228.3,268.9 230.5,268.4 232.8,268.3 248.2,268.2 254.8,268.2 259.2,268.2 261.4,268.1 263.6,267.9 265.8,267.9 268.0,267.8 270.2,267.7 272.4,267.6 281.2,267.3 285.7,267.3 294.5,267.3 296.7,267.0 298.9,267.0 301.1,266.9 305.5,266.9 307.7,266.0 309.9,265.2 312.1,264.9 314.3,264.6 316.5,264.6 318.7,264.3 320.9,264.0 323.1,263.8 325.3,263.7 327.5,263.6 331.9,263.5 334.2,263.1 336.4,262.8 338.6,262.5 340.8,262.2 345.2,262.2 349.6,262.1 351.8,261.8 354.0,261.6 356.2,261.0 358.4,260.7 360.6,260.3 362.8,260.0 365.0,259.6 367.2,259.2 369.4,258.8 371.6,258.3 373.8,257.9 376.0,257.5 378.2,257.2 380.4,256.9 382.6,256.6 384.8,256.4 387.1,256.2 389.3,256.0 391.5,255.9 393.7,255.8 398.1,255.8 400.3,254.9 402.5,254.3 404.7,254.2 406.9,254.2 411.3,254.1 413.5,254.0 422.3,253.9 426.7,253.8 433.3,253.8 435.5,252.8 437.8,251.9 440.0,251.6 442.2,250.8 444.4,250.2 446.6,249.8 448.8,249.6 451.0,249.2 453.2,249.1 455.4,249.0 457.6,248.8 459.8,248.7 473.0,248.1 475.2,247.2 477.4,247.1 479.6,246.9 481.8,246.9 497.3,246.9 517.1,246.0 519.3,245.3 521.5,244.5 523.7,243.3 525.9,243.0 528.1,242.7 530.3,242.0 532.5,241.5 534.7,240.3 536.9,238.6 539.2,236.9 541.4,235.0 543.6,232.9 545.8,231.1 548.0,230.0 550.2,228.7 552.4,226.7 554.6,225.0 556.8,223.9 559.0,222.8 561.2,221.2 563.4,220.1 565.6,219.1 567.8,218.2 570.0,217.5 572.2,216.6 574.4,216.1 576.6,215.5 578.8,215.0 581.0,213.4 583.2,212.2 585.4,211.5 587.6,211.3 589.8,210.9 592.1,210.2 594.3,209.7 596.5,208.7 598.7,208.0 600.9,207.4 603.1,207.3 605.3,207.1 607.5,206.6 609.7,205.4 611.9,203.4 614.1,201.3 616.3,199.2 618.5,197.5 620.7,195.5 622.9,193.3 625.1,191.1 627.3,189.1 629.5,187.7 631.7,186.5 633.9,185.2 636.1,183.9 638.3,183.1 640.5,182.0 642.8,181.3 645.0,180.1 647.2,178.6 649.4,176.9 651.6,175.4 653.8,174.0 656.0,173.2 658.2,172.4 660.4,171.6 662.6,170.8 664.8,169.3 667.0,168.1 669.2,166.6 671.4,165.0 673.6,163.8 675.8,162.7 678.0,162.3 680.2,161.7 682.4,161.1 684.6,161.0 686.8,160.9 689.0,160.6 691.2,160.5 693.5,160.5 695.7,160.3 697.9,160.2 704.5,160.1 706.7,160.1 708.9,159.8 711.1,158.1 713.3,156.6 715.5,155.3 717.7,153.8 719.9,152.4 722.1,151.1 724.3,149.7 726.5,148.4 728.7,147.0 730.9,145.7 733.1,144.4 735.3,143.1 737.5,141.9 739.7,140.6 741.9,139.3 744.2,138.3 746.4,137.1 748.6,135.9 750.8,134.7 753.0,133.6 755.2,132.4 757.4,131.7 759.6,130.9 761.8,130.1 764.0,129.0 766.2,128.0 768.4,127.1 770.6,125.9 772.8,124.9 775.0,124.0 777.2,123.0 779.4,122.0 781.6,121.0 783.8,120.1 786.0,119.0 788.2,118.1 790.4,117.1 792.6,116.3 794.8,115.4 797.1,114.5 799.3,113.6 801.5,112.8 803.7,112.1 805.9,111.4 808.1,111.0 810.3,110.9 812.5,110.0 814.7,109.2 816.9,108.3 819.1,107.4 821.3,106.7 823.5,105.9 825.7,105.1 827.9,104.2 830.1,103.5 832.3,102.7 834.5,102.0 836.7,101.3 838.9,100.4 841.1,99.8 843.3,99.0 845.5,98.2 847.8,97.5 850.0,96.8 852.2,96.0 854.4,95.4 856.6,94.8 858.8,93.9 861.0,93.0 863.2,92.4 865.4,91.5 867.6,90.8 869.8,90.2 872.0,90.0 872.0,272.0" fill="#e0f2fe" opacity="0.55"/>
<polyline points="52.0,272.0 54.2,271.9 80.7,271.4 82.9,271.3 85.1,271.3 91.7,271.2 104.9,271.2 133.6,271.1 135.8,270.8 138.0,270.7 144.6,270.6 146.8,270.6 149.0,270.5 151.2,270.4 155.6,270.4 157.8,270.2 164.4,270.0 173.2,269.9 175.4,269.8 177.6,269.7 195.3,269.6 199.7,269.6 210.7,269.6 212.9,269.5 215.1,269.4 223.9,269.4 226.1,269.1 228.3,268.9 230.5,268.4 232.8,268.3 248.2,268.2 254.8,268.2 259.2,268.2 261.4,268.1 263.6,267.9 265.8,267.9 268.0,267.8 270.2,267.7 272.4,267.6 281.2,267.3 285.7,267.3 294.5,267.3 296.7,267.0 298.9,267.0 301.1,266.9 305.5,266.9 307.7,266.0 309.9,265.2 312.1,264.9 314.3,264.6 316.5,264.6 318.7,264.3 320.9,264.0 323.1,263.8 325.3,263.7 327.5,263.6 331.9,263.5 334.2,263.1 336.4,262.8 338.6,262.5 340.8,262.2 345.2,262.2 349.6,262.1 351.8,261.8 354.0,261.6 356.2,261.0 358.4,260.7 360.6,260.3 362.8,260.0 365.0,259.6 367.2,259.2 369.4,258.8 371.6,258.3 373.8,257.9 376.0,257.5 378.2,257.2 380.4,256.9 382.6,256.6 384.8,256.4 387.1,256.2 389.3,256.0 391.5,255.9 393.7,255.8 398.1,255.8 400.3,254.9 402.5,254.3 404.7,254.2 406.9,254.2 411.3,254.1 413.5,254.0 422.3,253.9 426.7,253.8 433.3,253.8 435.5,252.8 437.8,251.9 440.0,251.6 442.2,250.8 444.4,250.2 446.6,249.8 448.8,249.6 451.0,249.2 453.2,249.1 455.4,249.0 457.6,248.8 459.8,248.7 473.0,248.1 475.2,247.2 477.4,247.1 479.6,246.9 481.8,246.9 497.3,246.9 517.1,246.0 519.3,245.3 521.5,244.5 523.7,243.3 525.9,243.0 528.1,242.7 530.3,242.0 532.5,241.5 534.7,240.3 536.9,238.6 539.2,236.9 541.4,235.0 543.6,232.9 545.8,231.1 548.0,230.0 550.2,228.7 552.4,226.7 554.6,225.0 556.8,223.9 559.0,222.8 561.2,221.2 563.4,220.1 565.6,219.1 567.8,218.2 570.0,217.5 572.2,216.6 574.4,216.1 576.6,215.5 578.8,215.0 581.0,213.4 583.2,212.2 585.4,211.5 587.6,211.3 589.8,210.9 592.1,210.2 594.3,209.7 596.5,208.7 598.7,208.0 600.9,207.4 603.1,207.3 605.3,207.1 607.5,206.6 609.7,205.4 611.9,203.4 614.1,201.3 616.3,199.2 618.5,197.5 620.7,195.5 622.9,193.3 625.1,191.1 627.3,189.1 629.5,187.7 631.7,186.5 633.9,185.2 636.1,183.9 638.3,183.1 640.5,182.0 642.8,181.3 645.0,180.1 647.2,178.6 649.4,176.9 651.6,175.4 653.8,174.0 656.0,173.2 658.2,172.4 660.4,171.6 662.6,170.8 664.8,169.3 667.0,168.1 669.2,166.6 671.4,165.0 673.6,163.8 675.8,162.7 678.0,162.3 680.2,161.7 682.4,161.1 684.6,161.0 686.8,160.9 689.0,160.6 691.2,160.5 693.5,160.5 695.7,160.3 697.9,160.2 704.5,160.1 706.7,160.1 708.9,159.8 711.1,158.1 713.3,156.6 715.5,155.3 717.7,153.8 719.9,152.4 722.1,151.1 724.3,149.7 726.5,148.4 728.7,147.0 730.9,145.7 733.1,144.4 735.3,143.1 737.5,141.9 739.7,140.6 741.9,139.3 744.2,138.3 746.4,137.1 748.6,135.9 750.8,134.7 753.0,133.6 755.2,132.4 757.4,131.7 759.6,130.9 761.8,130.1 764.0,129.0 766.2,128.0 768.4,127.1 770.6,125.9 772.8,124.9 775.0,124.0 777.2,123.0 779.4,122.0 781.6,121.0 783.8,120.1 786.0,119.0 788.2,118.1 790.4,117.1 792.6,116.3 794.8,115.4 797.1,114.5 799.3,113.6 801.5,112.8 803.7,112.1 805.9,111.4 808.1,111.0 810.3,110.9 812.5,110.0 814.7,109.2 816.9,108.3 819.1,107.4 821.3,106.7 823.5,105.9 825.7,105.1 827.9,104.2 830.1,103.5 832.3,102.7 834.5,102.0 836.7,101.3 838.9,100.4 841.1,99.8 843.3,99.0 845.5,98.2 847.8,97.5 850.0,96.8 852.2,96.0 854.4,95.4 856.6,94.8 858.8,93.9 861.0,93.0 863.2,92.4 865.4,91.5 867.6,90.8 869.8,90.2 872.0,90.0" fill="none" stroke="#38bdf8" stroke-width="2.5" stroke-linejoin="round" stroke-linecap="round"/>
<circle cx="872.0" cy="90.0" r="4" fill="#0ea5e9"/>
<text x="866.0" y="80.0" text-anchor="end" font-family="Inter, system-ui, sans-serif" font-size="13" font-weight="700" fill="#334155">4256</text>
<text x="52.0" y="294" text-anchor="middle" font-family="Inter, system-ui, sans-serif" font-size="11" fill="#94a3b8">Jun 10 05:00</text>
<text x="570.0" y="294" text-anchor="middle" font-family="Inter, system-ui, sans-serif" font-size="11" fill="#94a3b8">Jun 20 00:00</text>
<text x="872.0" y="294" text-anchor="middle" font-family="Inter, system-ui, sans-serif" font-size="11" fill="#94a3b8">Jun 25 17:00</text>
</svg>
