<svg xmlns="http://www.w3.org/2000/svg" width="900" height="320" viewBox="0 0 900 320" role="img" aria-labelledby="title desc">
<title id="title">unsorry proofs over time</title>
<desc id="desc">Cumulative kernel-verified proofs over time, by the hour each proof was merged.</desc>
<rect width="900" height="100%" rx="18" fill="#ffffff"/>
<rect x="0.5" y="0.5" width="899" height="319" rx="18" fill="none" stroke="#e2e8f0"/>
<text x="32" y="44" font-family="Inter, system-ui, sans-serif" font-size="28" font-weight="700" fill="#334155">unsorry — Proofs Over Time</text>
<text x="32" y="72" font-family="Inter, system-ui, sans-serif" font-size="13" fill="#64748b">4302 cumulative kernel-verified proofs · merged, hourly</text>
<line x1="52" y1="272.0" x2="872" y2="272.0" stroke="#f1f5f9"/>
<text x="44" y="276.0" text-anchor="end" font-family="Inter, system-ui, sans-serif" font-size="11" fill="#94a3b8">0</text>
<line x1="52" y1="226.5" x2="872" y2="226.5" stroke="#f1f5f9"/>
<text x="44" y="230.5" text-anchor="end" font-family="Inter, system-ui, sans-serif" font-size="11" fill="#94a3b8">1076</text>
<line x1="52" y1="181.0" x2="872" y2="181.0" stroke="#f1f5f9"/>
<text x="44" y="185.0" text-anchor="end" font-family="Inter, system-ui, sans-serif" font-size="11" fill="#94a3b8">2151</text>
<line x1="52" y1="135.5" x2="872" y2="135.5" stroke="#f1f5f9"/>
<text x="44" y="139.5" text-anchor="end" font-family="Inter, system-ui, sans-serif" font-size="11" fill="#94a3b8">3226</text>
<line x1="52" y1="90.0" x2="872" y2="90.0" stroke="#f1f5f9"/>
<text x="44" y="94.0" text-anchor="end" font-family="Inter, system-ui, sans-serif" font-size="11" fill="#94a3b8">4302</text>
<polygon points="52.0,272.0 52.0,272.0 54.2,271.9 80.5,271.5 82.7,271.3 84.9,271.3 91.5,271.2 104.6,271.2 133.1,271.2 135.3,270.8 137.5,270.7 144.1,270.6 146.3,270.6 148.5,270.6 150.7,270.4 155.0,270.4 157.2,270.2 163.8,270.0 172.6,269.9 174.8,269.8 177.0,269.7 194.5,269.7 198.9,269.6 209.9,269.6 212.1,269.5 214.2,269.5 223.0,269.4 225.2,269.2 227.4,269.0 229.6,268.4 231.8,268.3 247.1,268.3 253.7,268.2 258.1,268.2 260.3,268.2 262.5,267.9 264.7,267.9 266.9,267.9 269.1,267.7 271.3,267.6 280.0,267.4 284.4,267.3 293.2,267.3 295.4,267.1 297.6,267.1 299.8,267.0 304.1,266.9 306.3,266.1 308.5,265.2 310.7,264.9 312.9,264.7 315.1,264.6 317.3,264.4 319.5,264.1 321.7,263.9 323.9,263.8 326.1,263.7 330.4,263.6 332.6,263.2 334.8,262.9 337.0,262.6 339.2,262.4 343.6,262.3 348.0,262.2 350.2,261.9 352.4,261.7 354.6,261.1 356.8,260.8 359.0,260.5 361.1,260.1 363.3,259.7 365.5,259.4 367.7,258.9 369.9,258.5 372.1,258.0 374.3,257.7 376.5,257.4 378.7,257.1 380.9,256.8 383.1,256.6 385.3,256.4 387.5,256.2 389.6,256.1 391.8,256.0 396.2,256.0 398.4,255.1 400.6,254.5 402.8,254.4 405.0,254.4 409.4,254.3 411.6,254.1 420.3,254.1 424.7,254.0 431.3,254.0 433.5,253.0 435.7,252.1 437.9,251.8 440.1,251.1 442.3,250.5 444.5,250.1 446.7,249.9 448.8,249.5 451.0,249.3 453.2,249.2 455.4,249.1 457.6,249.0 470.8,248.3 473.0,247.5 475.2,247.3 477.3,247.2 479.5,247.2 494.9,247.1 514.6,246.2 516.8,245.6 519.0,244.8 521.2,243.6 523.4,243.4 525.6,243.0 527.8,242.3 530.0,241.8 532.2,240.7 534.4,239.0 536.5,237.3 538.7,235.4 540.9,233.3 543.1,231.6 545.3,230.5 547.5,229.1 549.7,227.2 551.9,225.5 554.1,224.4 556.3,223.3 558.5,221.7 560.7,220.7 562.9,219.7 565.0,218.8 567.2,218.1 569.4,217.2 571.6,216.7 573.8,216.1 576.0,215.6 578.2,214.0 580.4,212.8 582.6,212.1 584.8,211.9 587.0,211.5 589.2,210.9 591.4,210.4 593.6,209.3 595.7,208.7 597.9,208.1 600.1,208.0 602.3,207.8 604.5,207.3 606.7,206.1 608.9,204.1 611.1,202.0 613.3,200.0 615.5,198.3 617.7,196.3 619.9,194.2 622.1,192.0 624.2,190.0 626.4,188.6 628.6,187.4 630.8,186.1 633.0,184.8 635.2,184.0 637.4,183.0 639.6,182.2 641.8,181.1 644.0,179.6 646.2,177.9 648.4,176.4 650.6,175.1 652.7,174.2 654.9,173.5 657.1,172.7 659.3,171.9 661.5,170.4 663.7,169.2 665.9,167.7 668.1,166.2 670.3,164.9 672.5,163.9 674.7,163.5 676.9,162.9 679.1,162.3 681.3,162.2 683.4,162.1 685.6,161.8 687.8,161.7 690.0,161.7 692.2,161.5 694.4,161.4 701.0,161.3 703.2,161.3 705.4,161.0 707.6,159.3 709.8,157.8 711.9,156.5 714.1,155.0 716.3,153.7 718.5,152.4 720.7,151.0 722.9,149.7 725.1,148.3 727.3,147.1 729.5,145.8 731.7,144.5 733.9,143.3 736.1,142.0 738.3,140.8 740.4,139.7 742.6,138.5 744.8,137.3 747.0,136.2 749.2,135.1 751.4,133.9 753.6,133.2 755.8,132.4 758.0,131.6 760.2,130.5 762.4,129.6 764.6,128.6 766.8,127.5 769.0,126.5 771.1,125.6 773.3,124.6 775.5,123.6 777.7,122.6 779.9,121.7 782.1,120.6 784.3,119.7 786.5,118.7 788.7,117.9 790.9,117.1 793.1,116.1 795.3,115.3 797.5,114.5 799.6,113.8 801.8,113.1 804.0,112.8 806.2,112.6 808.4,111.7 810.6,110.9 812.8,110.1 815.0,109.2 817.2,108.5 819.4,107.6 821.6,106.8 823.8,106.0 826.0,105.3 828.1,104.6 830.3,103.8 832.5,103.1 834.7,102.3 836.9,101.6 839.1,100.8 841.3,100.1 843.5,99.3 845.7,98.7 847.9,97.9 850.1,97.3 852.3,96.7 854.5,95.8 856.7,94.9 858.8,94.3 861.0,93.5 863.2,92.7 865.4,92.1 867.6,91.4 869.8,90.6 872.0,90.0 872.0,272.0" fill="#e0f2fe" opacity="0.55"/>
<polyline points="52.0,272.0 54.2,271.9 80.5,271.5 82.7,271.3 84.9,271.3 91.5,271.2 104.6,271.2 133.1,271.2 135.3,270.8 137.5,270.7 144.1,270.6 146.3,270.6 148.5,270.6 150.7,270.4 155.0,270.4 157.2,270.2 163.8,270.0 172.6,269.9 174.8,269.8 177.0,269.7 194.5,269.7 198.9,269.6 209.9,269.6 212.1,269.5 214.2,269.5 223.0,269.4 225.2,269.2 227.4,269.0 229.6,268.4 231.8,268.3 247.1,268.3 253.7,268.2 258.1,268.2 260.3,268.2 262.5,267.9 264.7,267.9 266.9,267.9 269.1,267.7 271.3,267.6 280.0,267.4 284.4,267.3 293.2,267.3 295.4,267.1 297.6,267.1 299.8,267.0 304.1,266.9 306.3,266.1 308.5,265.2 310.7,264.9 312.9,264.7 315.1,264.6 317.3,264.4 319.5,264.1 321.7,263.9 323.9,263.8 326.1,263.7 330.4,263.6 332.6,263.2 334.8,262.9 337.0,262.6 339.2,262.4 343.6,262.3 348.0,262.2 350.2,261.9 352.4,261.7 354.6,261.1 356.8,260.8 359.0,260.5 361.1,260.1 363.3,259.7 365.5,259.4 367.7,258.9 369.9,258.5 372.1,258.0 374.3,257.7 376.5,257.4 378.7,257.1 380.9,256.8 383.1,256.6 385.3,256.4 387.5,256.2 389.6,256.1 391.8,256.0 396.2,256.0 398.4,255.1 400.6,254.5 402.8,254.4 405.0,254.4 409.4,254.3 411.6,254.1 420.3,254.1 424.7,254.0 431.3,254.0 433.5,253.0 435.7,252.1 437.9,251.8 440.1,251.1 442.3,250.5 444.5,250.1 446.7,249.9 448.8,249.5 451.0,249.3 453.2,249.2 455.4,249.1 457.6,249.0 470.8,248.3 473.0,247.5 475.2,247.3 477.3,247.2 479.5,247.2 494.9,247.1 514.6,246.2 516.8,245.6 519.0,244.8 521.2,243.6 523.4,243.4 525.6,243.0 527.8,242.3 530.0,241.8 532.2,240.7 534.4,239.0 536.5,237.3 538.7,235.4 540.9,233.3 543.1,231.6 545.3,230.5 547.5,229.1 549.7,227.2 551.9,225.5 554.1,224.4 556.3,223.3 558.5,221.7 560.7,220.7 562.9,219.7 565.0,218.8 567.2,218.1 569.4,217.2 571.6,216.7 573.8,216.1 576.0,215.6 578.2,214.0 580.4,212.8 582.6,212.1 584.8,211.9 587.0,211.5 589.2,210.9 591.4,210.4 593.6,209.3 595.7,208.7 597.9,208.1 600.1,208.0 602.3,207.8 604.5,207.3 606.7,206.1 608.9,204.1 611.1,202.0 613.3,200.0 615.5,198.3 617.7,196.3 619.9,194.2 622.1,192.0 624.2,190.0 626.4,188.6 628.6,187.4 630.8,186.1 633.0,184.8 635.2,184.0 637.4,183.0 639.6,182.2 641.8,181.1 644.0,179.6 646.2,177.9 648.4,176.4 650.6,175.1 652.7,174.2 654.9,173.5 657.1,172.7 659.3,171.9 661.5,170.4 663.7,169.2 665.9,167.7 668.1,166.2 670.3,164.9 672.5,163.9 674.7,163.5 676.9,162.9 679.1,162.3 681.3,162.2 683.4,162.1 685.6,161.8 687.8,161.7 690.0,161.7 692.2,161.5 694.4,161.4 701.0,161.3 703.2,161.3 705.4,161.0 707.6,159.3 709.8,157.8 711.9,156.5 714.1,155.0 716.3,153.7 718.5,152.4 720.7,151.0 722.9,149.7 725.1,148.3 727.3,147.1 729.5,145.8 731.7,144.5 733.9,143.3 736.1,142.0 738.3,140.8 740.4,139.7 742.6,138.5 744.8,137.3 747.0,136.2 749.2,135.1 751.4,133.9 753.6,133.2 755.8,132.4 758.0,131.6 760.2,130.5 762.4,129.6 764.6,128.6 766.8,127.5 769.0,126.5 771.1,125.6 773.3,124.6 775.5,123.6 777.7,122.6 779.9,121.7 782.1,120.6 784.3,119.7 786.5,118.7 788.7,117.9 790.9,117.1 793.1,116.1 795.3,115.3 797.5,114.5 799.6,113.8 801.8,113.1 804.0,112.8 806.2,112.6 808.4,111.7 810.6,110.9 812.8,110.1 815.0,109.2 817.2,108.5 819.4,107.6 821.6,106.8 823.8,106.0 826.0,105.3 828.1,104.6 830.3,103.8 832.5,103.1 834.7,102.3 836.9,101.6 839.1,100.8 841.3,100.1 843.5,99.3 845.7,98.7 847.9,97.9 850.1,97.3 852.3,96.7 854.5,95.8 856.7,94.9 858.8,94.3 861.0,93.5 863.2,92.7 865.4,92.1 867.6,91.4 869.8,90.6 872.0,90.0" fill="none" stroke="#38bdf8" stroke-width="2.5" stroke-linejoin="round" stroke-linecap="round"/>
<circle cx="872.0" cy="90.0" r="4" fill="#0ea5e9"/>
<text x="866.0" y="80.0" text-anchor="end" font-family="Inter, system-ui, sans-serif" font-size="13" font-weight="700" fill="#334155">4302</text>
<text x="52.0" y="294" text-anchor="middle" font-family="Inter, system-ui, sans-serif" font-size="11" fill="#94a3b8">Jun 10 05:00</text>
<text x="569.4" y="294" text-anchor="middle" font-family="Inter, system-ui, sans-serif" font-size="11" fill="#94a3b8">Jun 20 01:00</text>
<text x="872.0" y="294" text-anchor="middle" font-family="Inter, system-ui, sans-serif" font-size="11" fill="#94a3b8">Jun 25 19:00</text>
</svg>
