<svg xmlns="http://www.w3.org/2000/svg" width="900" height="320" viewBox="0 0 900 320" role="img" aria-labelledby="title desc">
<title id="title">unsorry proofs over time</title>
<desc id="desc">Cumulative kernel-verified proofs over time, by the hour each proof was merged.</desc>
<rect width="900" height="100%" rx="18" fill="#ffffff"/>
<rect x="0.5" y="0.5" width="899" height="319" rx="18" fill="none" stroke="#e2e8f0"/>
<text x="32" y="44" font-family="Inter, system-ui, sans-serif" font-size="28" font-weight="700" fill="#334155">unsorry — Proofs Over Time</text>
<text x="32" y="72" font-family="Inter, system-ui, sans-serif" font-size="13" fill="#64748b">3844 cumulative kernel-verified proofs · merged, hourly</text>
<line x1="52" y1="272.0" x2="872" y2="272.0" stroke="#f1f5f9"/>
<text x="44" y="276.0" text-anchor="end" font-family="Inter, system-ui, sans-serif" font-size="11" fill="#94a3b8">0</text>
<line x1="52" y1="226.5" x2="872" y2="226.5" stroke="#f1f5f9"/>
<text x="44" y="230.5" text-anchor="end" font-family="Inter, system-ui, sans-serif" font-size="11" fill="#94a3b8">961</text>
<line x1="52" y1="181.0" x2="872" y2="181.0" stroke="#f1f5f9"/>
<text x="44" y="185.0" text-anchor="end" font-family="Inter, system-ui, sans-serif" font-size="11" fill="#94a3b8">1922</text>
<line x1="52" y1="135.5" x2="872" y2="135.5" stroke="#f1f5f9"/>
<text x="44" y="139.5" text-anchor="end" font-family="Inter, system-ui, sans-serif" font-size="11" fill="#94a3b8">2883</text>
<line x1="52" y1="90.0" x2="872" y2="90.0" stroke="#f1f5f9"/>
<text x="44" y="94.0" text-anchor="end" font-family="Inter, system-ui, sans-serif" font-size="11" fill="#94a3b8">3844</text>
<polygon points="52.0,272.0 52.0,272.0 54.4,271.9 82.6,271.4 85.0,271.2 87.3,271.2 94.4,271.1 108.6,271.1 139.2,271.1 141.5,270.6 143.9,270.6 151.0,270.5 153.3,270.4 155.7,270.4 158.0,270.2 162.7,270.2 165.1,270.0 172.2,269.8 181.6,269.7 184.0,269.5 186.3,269.4 205.2,269.4 209.9,269.3 221.7,269.3 224.0,269.3 226.4,269.2 235.8,269.1 238.1,268.8 240.5,268.6 242.9,268.0 245.2,267.9 261.7,267.8 268.8,267.8 273.5,267.7 275.9,267.7 278.2,267.5 280.6,267.4 282.9,267.4 285.3,267.2 287.6,267.1 297.1,266.8 301.8,266.8 311.2,266.7 313.6,266.5 315.9,266.5 318.3,266.4 323.0,266.3 325.3,265.4 327.7,264.4 330.0,264.1 332.4,263.9 334.8,263.8 337.1,263.5 339.5,263.2 341.8,263.0 344.2,262.8 346.5,262.7 351.3,262.6 353.6,262.2 356.0,261.8 358.3,261.4 360.7,261.2 365.4,261.1 370.1,261.1 372.5,260.7 374.8,260.5 377.2,259.8 379.5,259.5 381.9,259.1 384.2,258.7 386.6,258.3 389.0,257.8 391.3,257.4 393.7,256.8 396.0,256.4 398.4,255.9 400.7,255.7 403.1,255.3 405.4,255.0 407.8,254.8 410.2,254.5 412.5,254.3 414.9,254.2 417.2,254.1 421.9,254.1 424.3,253.1 426.7,252.4 429.0,252.3 431.4,252.3 436.1,252.2 438.4,252.0 447.9,252.0 452.6,251.9 459.6,251.8 462.0,250.7 464.4,249.7 466.7,249.4 469.1,248.6 471.4,247.9 473.8,247.5 476.1,247.2 478.5,246.8 480.9,246.6 483.2,246.5 485.6,246.3 487.9,246.2 502.1,245.5 504.4,244.5 506.8,244.4 509.1,244.3 511.5,244.2 528.0,244.2 549.2,243.2 551.5,242.4 553.9,241.5 556.3,240.2 558.6,239.9 561.0,239.5 563.3,238.8 565.7,238.2 568.0,236.9 570.4,235.0 572.7,233.2 575.1,231.0 577.5,228.7 579.8,226.7 582.2,225.5 584.5,224.0 586.9,221.9 589.2,220.0 591.6,218.8 594.0,217.5 596.3,215.7 598.7,214.6 601.0,213.4 603.4,212.4 605.7,211.7 608.1,210.7 610.4,210.1 612.8,209.4 615.2,208.8 617.5,207.1 619.9,205.8 622.2,205.0 624.6,204.8 626.9,204.3 629.3,203.6 631.7,203.0 634.0,201.9 636.4,201.2 638.7,200.5 641.1,200.4 643.4,200.1 645.8,199.6 648.1,198.2 650.5,196.0 652.9,193.7 655.2,191.4 657.6,189.5 659.9,187.2 662.3,184.9 664.6,182.5 667.0,180.2 669.4,178.6 671.7,177.4 674.1,175.9 676.4,174.5 678.8,173.5 681.1,172.4 683.5,171.5 685.9,170.3 688.2,168.6 690.6,166.7 692.9,165.0 695.3,163.5 697.6,162.6 700.0,161.7 702.3,160.9 704.7,159.9 707.1,158.3 709.4,156.9 711.8,155.3 714.1,153.6 716.5,152.2 718.8,151.0 721.2,150.6 723.6,149.9 725.9,149.2 728.3,149.1 730.6,149.0 733.0,148.7 735.3,148.6 737.7,148.5 740.0,148.3 742.4,148.2 749.5,148.1 751.8,148.1 754.2,147.8 756.5,145.9 758.9,144.2 761.3,142.7 763.6,141.1 766.0,139.6 768.3,138.2 770.7,136.6 773.0,135.2 775.4,133.6 777.7,132.2 780.1,130.7 782.5,129.3 784.8,127.9 787.2,126.5 789.5,125.1 791.9,123.9 794.2,122.6 796.6,121.3 799.0,120.0 801.3,118.7 803.7,117.5 806.0,116.6 808.4,115.8 810.7,114.9 813.1,113.7 815.4,112.6 817.8,111.5 820.2,110.3 822.5,109.2 824.9,108.2 827.2,107.0 829.6,105.9 831.9,104.8 834.3,103.8 836.7,102.5 839.0,101.6 841.4,100.5 843.7,99.6 846.1,98.7 848.4,97.6 850.8,96.6 853.1,95.7 855.5,94.9 857.9,94.2 860.2,93.8 862.6,93.6 864.9,92.7 867.3,91.8 869.6,90.8 872.0,90.0 872.0,272.0" fill="#e0f2fe" opacity="0.55"/>
<polyline points="52.0,272.0 54.4,271.9 82.6,271.4 85.0,271.2 87.3,271.2 94.4,271.1 108.6,271.1 139.2,271.1 141.5,270.6 143.9,270.6 151.0,270.5 153.3,270.4 155.7,270.4 158.0,270.2 162.7,270.2 165.1,270.0 172.2,269.8 181.6,269.7 184.0,269.5 186.3,269.4 205.2,269.4 209.9,269.3 221.7,269.3 224.0,269.3 226.4,269.2 235.8,269.1 238.1,268.8 240.5,268.6 242.9,268.0 245.2,267.9 261.7,267.8 268.8,267.8 273.5,267.7 275.9,267.7 278.2,267.5 280.6,267.4 282.9,267.4 285.3,267.2 287.6,267.1 297.1,266.8 301.8,266.8 311.2,266.7 313.6,266.5 315.9,266.5 318.3,266.4 323.0,266.3 325.3,265.4 327.7,264.4 330.0,264.1 332.4,263.9 334.8,263.8 337.1,263.5 339.5,263.2 341.8,263.0 344.2,262.8 346.5,262.7 351.3,262.6 353.6,262.2 356.0,261.8 358.3,261.4 360.7,261.2 365.4,261.1 370.1,261.1 372.5,260.7 374.8,260.5 377.2,259.8 379.5,259.5 381.9,259.1 384.2,258.7 386.6,258.3 389.0,257.8 391.3,257.4 393.7,256.8 396.0,256.4 398.4,255.9 400.7,255.7 403.1,255.3 405.4,255.0 407.8,254.8 410.2,254.5 412.5,254.3 414.9,254.2 417.2,254.1 421.9,254.1 424.3,253.1 426.7,252.4 429.0,252.3 431.4,252.3 436.1,252.2 438.4,252.0 447.9,252.0 452.6,251.9 459.6,251.8 462.0,250.7 464.4,249.7 466.7,249.4 469.1,248.6 471.4,247.9 473.8,247.5 476.1,247.2 478.5,246.8 480.9,246.6 483.2,246.5 485.6,246.3 487.9,246.2 502.1,245.5 504.4,244.5 506.8,244.4 509.1,244.3 511.5,244.2 528.0,244.2 549.2,243.2 551.5,242.4 553.9,241.5 556.3,240.2 558.6,239.9 561.0,239.5 563.3,238.8 565.7,238.2 568.0,236.9 570.4,235.0 572.7,233.2 575.1,231.0 577.5,228.7 579.8,226.7 582.2,225.5 584.5,224.0 586.9,221.9 589.2,220.0 591.6,218.8 594.0,217.5 596.3,215.7 598.7,214.6 601.0,213.4 603.4,212.4 605.7,211.7 608.1,210.7 610.4,210.1 612.8,209.4 615.2,208.8 617.5,207.1 619.9,205.8 622.2,205.0 624.6,204.8 626.9,204.3 629.3,203.6 631.7,203.0 634.0,201.9 636.4,201.2 638.7,200.5 641.1,200.4 643.4,200.1 645.8,199.6 648.1,198.2 650.5,196.0 652.9,193.7 655.2,191.4 657.6,189.5 659.9,187.2 662.3,184.9 664.6,182.5 667.0,180.2 669.4,178.6 671.7,177.4 674.1,175.9 676.4,174.5 678.8,173.5 681.1,172.4 683.5,171.5 685.9,170.3 688.2,168.6 690.6,166.7 692.9,165.0 695.3,163.5 697.6,162.6 700.0,161.7 702.3,160.9 704.7,159.9 707.1,158.3 709.4,156.9 711.8,155.3 714.1,153.6 716.5,152.2 718.8,151.0 721.2,150.6 723.6,149.9 725.9,149.2 728.3,149.1 730.6,149.0 733.0,148.7 735.3,148.6 737.7,148.5 740.0,148.3 742.4,148.2 749.5,148.1 751.8,148.1 754.2,147.8 756.5,145.9 758.9,144.2 761.3,142.7 763.6,141.1 766.0,139.6 768.3,138.2 770.7,136.6 773.0,135.2 775.4,133.6 777.7,132.2 780.1,130.7 782.5,129.3 784.8,127.9 787.2,126.5 789.5,125.1 791.9,123.9 794.2,122.6 796.6,121.3 799.0,120.0 801.3,118.7 803.7,117.5 806.0,116.6 808.4,115.8 810.7,114.9 813.1,113.7 815.4,112.6 817.8,111.5 820.2,110.3 822.5,109.2 824.9,108.2 827.2,107.0 829.6,105.9 831.9,104.8 834.3,103.8 836.7,102.5 839.0,101.6 841.4,100.5 843.7,99.6 846.1,98.7 848.4,97.6 850.8,96.6 853.1,95.7 855.5,94.9 857.9,94.2 860.2,93.8 862.6,93.6 864.9,92.7 867.3,91.8 869.6,90.8 872.0,90.0" fill="none" stroke="#38bdf8" stroke-width="2.5" stroke-linejoin="round" stroke-linecap="round"/>
<circle cx="872.0" cy="90.0" r="4" fill="#0ea5e9"/>
<text x="866.0" y="80.0" text-anchor="end" font-family="Inter, system-ui, sans-serif" font-size="13" font-weight="700" fill="#334155">3844</text>
<text x="52.0" y="294" text-anchor="middle" font-family="Inter, system-ui, sans-serif" font-size="11" fill="#94a3b8">Jun 10 05:00</text>
<text x="577.5" y="294" text-anchor="middle" font-family="Inter, system-ui, sans-serif" font-size="11" fill="#94a3b8">Jun 19 12:00</text>
<text x="872.0" y="294" text-anchor="middle" font-family="Inter, system-ui, sans-serif" font-size="11" fill="#94a3b8">Jun 24 17:00</text>
</svg>
