<svg xmlns="http://www.w3.org/2000/svg" width="900" height="320" viewBox="0 0 900 320" role="img" aria-labelledby="title desc">
<title id="title">Unsorry proofs over time</title>
<desc id="desc">Cumulative kernel-verified proofs over time, by the hour each proof was merged.</desc>
<rect width="900" height="100%" rx="18" fill="#ffffff"/>
<rect x="0.5" y="0.5" width="899" height="319" rx="18" fill="none" stroke="#e2e8f0"/>
<text x="32" y="44" font-family="Inter, system-ui, sans-serif" font-size="28" font-weight="700" fill="#334155">Unsorry — Proofs Over Time</text>
<text x="32" y="72" font-family="Inter, system-ui, sans-serif" font-size="13" fill="#64748b">2599 cumulative kernel-verified proofs · merged, hourly</text>
<line x1="52" y1="272.0" x2="872" y2="272.0" stroke="#f1f5f9"/>
<text x="44" y="276.0" text-anchor="end" font-family="Inter, system-ui, sans-serif" font-size="11" fill="#94a3b8">0</text>
<line x1="52" y1="226.5" x2="872" y2="226.5" stroke="#f1f5f9"/>
<text x="44" y="230.5" text-anchor="end" font-family="Inter, system-ui, sans-serif" font-size="11" fill="#94a3b8">650</text>
<line x1="52" y1="181.0" x2="872" y2="181.0" stroke="#f1f5f9"/>
<text x="44" y="185.0" text-anchor="end" font-family="Inter, system-ui, sans-serif" font-size="11" fill="#94a3b8">1300</text>
<line x1="52" y1="135.5" x2="872" y2="135.5" stroke="#f1f5f9"/>
<text x="44" y="139.5" text-anchor="end" font-family="Inter, system-ui, sans-serif" font-size="11" fill="#94a3b8">1949</text>
<line x1="52" y1="90.0" x2="872" y2="90.0" stroke="#f1f5f9"/>
<text x="44" y="94.0" text-anchor="end" font-family="Inter, system-ui, sans-serif" font-size="11" fill="#94a3b8">2599</text>
<polygon points="52.0,272.0 52.0,271.9 54.8,271.8 88.9,271.1 91.7,270.9 94.6,270.8 103.1,270.7 120.1,270.7 157.0,270.6 159.8,270.0 162.7,269.9 171.2,269.8 174.0,269.7 176.8,269.6 179.7,269.4 185.4,269.3 188.2,269.0 196.7,268.7 208.1,268.6 210.9,268.4 213.7,268.2 236.4,268.1 242.1,268.1 256.3,268.0 259.1,267.9 262.0,267.8 273.3,267.7 276.2,267.3 279.0,267.0 281.8,266.0 284.7,265.9 304.5,265.8 313.0,265.8 318.7,265.7 321.6,265.6 324.4,265.3 327.2,265.2 330.1,265.1 332.9,264.9 335.7,264.7 347.1,264.4 352.8,264.3 364.1,264.2 366.9,263.9 369.8,263.8 372.6,263.7 378.3,263.6 381.1,262.2 384.0,260.8 386.8,260.3 389.6,260.0 392.5,259.8 395.3,259.5 398.2,259.0 401.0,258.6 403.8,258.4 406.7,258.3 412.3,258.1 415.2,257.5 418.0,256.9 420.9,256.4 423.7,256.0 429.4,255.9 435.0,255.8 437.9,255.3 440.7,255.0 443.6,254.0 446.4,253.4 449.2,252.9 452.1,252.3 454.9,251.7 457.7,251.1 460.6,250.4 463.4,249.6 466.3,248.9 469.1,248.3 471.9,247.8 474.8,247.4 477.6,246.8 480.4,246.5 483.3,246.2 486.1,245.8 489.0,245.7 491.8,245.5 497.5,245.5 500.3,244.1 503.1,243.1 506.0,242.9 508.8,242.8 514.5,242.7 517.3,242.4 528.7,242.4 534.4,242.2 542.9,242.2 545.7,240.6 548.5,239.0 551.4,238.6 554.2,237.3 557.1,236.4 559.9,235.7 562.7,235.4 565.6,234.7 568.4,234.5 571.2,234.3 574.1,234.0 576.9,233.9 593.9,232.8 596.8,231.4 599.6,231.2 602.4,231.0 605.3,230.9 625.1,230.8 650.7,229.4 653.5,228.2 656.4,226.9 659.2,224.9 662.0,224.6 664.9,224.0 667.7,222.8 670.5,222.0 673.4,220.1 676.2,217.3 679.1,214.6 681.9,211.4 684.7,208.0 687.6,205.1 690.4,203.2 693.2,201.1 696.1,197.8 698.9,195.1 701.8,193.3 704.6,191.4 707.4,188.7 710.3,187.1 713.1,185.4 715.9,183.9 718.8,182.8 721.6,181.3 724.5,180.4 727.3,179.4 730.1,178.6 733.0,176.1 735.8,174.0 738.6,172.9 741.5,172.6 744.3,171.9 747.2,170.9 750.0,170.0 752.8,168.3 755.7,167.2 758.5,166.3 761.3,166.1 764.2,165.7 767.0,164.9 769.9,162.9 772.7,159.6 775.5,156.2 778.4,152.7 781.2,149.9 784.0,146.7 786.9,143.2 789.7,139.6 792.6,136.3 795.4,133.9 798.2,132.0 801.1,129.8 803.9,127.7 806.7,126.3 809.6,124.7 812.4,123.4 815.3,121.6 818.1,119.1 820.9,116.2 823.8,113.7 826.6,111.6 829.4,110.2 832.3,108.9 835.1,107.6 838.0,106.2 840.8,103.9 843.6,101.8 846.5,99.4 849.3,96.9 852.1,94.8 855.0,93.1 857.8,92.4 860.7,91.4 863.5,90.4 866.3,90.3 869.2,90.1 872.0,90.0 872.0,272.0" fill="#e0f2fe" opacity="0.55"/>
<polyline points="52.0,271.9 54.8,271.8 88.9,271.1 91.7,270.9 94.6,270.8 103.1,270.7 120.1,270.7 157.0,270.6 159.8,270.0 162.7,269.9 171.2,269.8 174.0,269.7 176.8,269.6 179.7,269.4 185.4,269.3 188.2,269.0 196.7,268.7 208.1,268.6 210.9,268.4 213.7,268.2 236.4,268.1 242.1,268.1 256.3,268.0 259.1,267.9 262.0,267.8 273.3,267.7 276.2,267.3 279.0,267.0 281.8,266.0 284.7,265.9 304.5,265.8 313.0,265.8 318.7,265.7 321.6,265.6 324.4,265.3 327.2,265.2 330.1,265.1 332.9,264.9 335.7,264.7 347.1,264.4 352.8,264.3 364.1,264.2 366.9,263.9 369.8,263.8 372.6,263.7 378.3,263.6 381.1,262.2 384.0,260.8 386.8,260.3 389.6,260.0 392.5,259.8 395.3,259.5 398.2,259.0 401.0,258.6 403.8,258.4 406.7,258.3 412.3,258.1 415.2,257.5 418.0,256.9 420.9,256.4 423.7,256.0 429.4,255.9 435.0,255.8 437.9,255.3 440.7,255.0 443.6,254.0 446.4,253.4 449.2,252.9 452.1,252.3 454.9,251.7 457.7,251.1 460.6,250.4 463.4,249.6 466.3,248.9 469.1,248.3 471.9,247.8 474.8,247.4 477.6,246.8 480.4,246.5 483.3,246.2 486.1,245.8 489.0,245.7 491.8,245.5 497.5,245.5 500.3,244.1 503.1,243.1 506.0,242.9 508.8,242.8 514.5,242.7 517.3,242.4 528.7,242.4 534.4,242.2 542.9,242.2 545.7,240.6 548.5,239.0 551.4,238.6 554.2,237.3 557.1,236.4 559.9,235.7 562.7,235.4 565.6,234.7 568.4,234.5 571.2,234.3 574.1,234.0 576.9,233.9 593.9,232.8 596.8,231.4 599.6,231.2 602.4,231.0 605.3,230.9 625.1,230.8 650.7,229.4 653.5,228.2 656.4,226.9 659.2,224.9 662.0,224.6 664.9,224.0 667.7,222.8 670.5,222.0 673.4,220.1 676.2,217.3 679.1,214.6 681.9,211.4 684.7,208.0 687.6,205.1 690.4,203.2 693.2,201.1 696.1,197.8 698.9,195.1 701.8,193.3 704.6,191.4 707.4,188.7 710.3,187.1 713.1,185.4 715.9,183.9 718.8,182.8 721.6,181.3 724.5,180.4 727.3,179.4 730.1,178.6 733.0,176.1 735.8,174.0 738.6,172.9 741.5,172.6 744.3,171.9 747.2,170.9 750.0,170.0 752.8,168.3 755.7,167.2 758.5,166.3 761.3,166.1 764.2,165.7 767.0,164.9 769.9,162.9 772.7,159.6 775.5,156.2 778.4,152.7 781.2,149.9 784.0,146.7 786.9,143.2 789.7,139.6 792.6,136.3 795.4,133.9 798.2,132.0 801.1,129.8 803.9,127.7 806.7,126.3 809.6,124.7 812.4,123.4 815.3,121.6 818.1,119.1 820.9,116.2 823.8,113.7 826.6,111.6 829.4,110.2 832.3,108.9 835.1,107.6 838.0,106.2 840.8,103.9 843.6,101.8 846.5,99.4 849.3,96.9 852.1,94.8 855.0,93.1 857.8,92.4 860.7,91.4 863.5,90.4 866.3,90.3 869.2,90.1 872.0,90.0" fill="none" stroke="#38bdf8" stroke-width="2.5" stroke-linejoin="round" stroke-linecap="round"/>
<circle cx="872.0" cy="90.0" r="4" fill="#0ea5e9"/>
<text x="866.0" y="80.0" text-anchor="end" font-family="Inter, system-ui, sans-serif" font-size="13" font-weight="700" fill="#334155">2599</text>
<text x="52.0" y="294" text-anchor="middle" font-family="Inter, system-ui, sans-serif" font-size="11" fill="#94a3b8">Jun 10 05:00</text>
<text x="551.4" y="294" text-anchor="middle" font-family="Inter, system-ui, sans-serif" font-size="11" fill="#94a3b8">Jun 17 13:00</text>
<text x="872.0" y="294" text-anchor="middle" font-family="Inter, system-ui, sans-serif" font-size="11" fill="#94a3b8">Jun 22 06:00</text>
</svg>
