<svg xmlns="http://www.w3.org/2000/svg" width="900" height="320" viewBox="0 0 900 320" role="img" aria-labelledby="title desc">
<title id="title">unsorry proofs over time</title>
<desc id="desc">Cumulative kernel-verified proofs over time, by the hour each proof was merged.</desc>
<rect width="900" height="100%" rx="18" fill="#ffffff"/>
<rect x="0.5" y="0.5" width="899" height="319" rx="18" fill="none" stroke="#e2e8f0"/>
<text x="32" y="44" font-family="Inter, system-ui, sans-serif" font-size="28" font-weight="700" fill="#334155">unsorry — Proofs Over Time</text>
<text x="32" y="72" font-family="Inter, system-ui, sans-serif" font-size="13" fill="#64748b">4203 cumulative kernel-verified proofs · merged, hourly</text>
<line x1="52" y1="272.0" x2="872" y2="272.0" stroke="#f1f5f9"/>
<text x="44" y="276.0" text-anchor="end" font-family="Inter, system-ui, sans-serif" font-size="11" fill="#94a3b8">0</text>
<line x1="52" y1="226.5" x2="872" y2="226.5" stroke="#f1f5f9"/>
<text x="44" y="230.5" text-anchor="end" font-family="Inter, system-ui, sans-serif" font-size="11" fill="#94a3b8">1051</text>
<line x1="52" y1="181.0" x2="872" y2="181.0" stroke="#f1f5f9"/>
<text x="44" y="185.0" text-anchor="end" font-family="Inter, system-ui, sans-serif" font-size="11" fill="#94a3b8">2102</text>
<line x1="52" y1="135.5" x2="872" y2="135.5" stroke="#f1f5f9"/>
<text x="44" y="139.5" text-anchor="end" font-family="Inter, system-ui, sans-serif" font-size="11" fill="#94a3b8">3152</text>
<line x1="52" y1="90.0" x2="872" y2="90.0" stroke="#f1f5f9"/>
<text x="44" y="94.0" text-anchor="end" font-family="Inter, system-ui, sans-serif" font-size="11" fill="#94a3b8">4203</text>
<polygon points="52.0,272.0 52.0,272.0 54.2,271.9 80.9,271.4 83.1,271.3 85.3,271.3 92.0,271.2 105.3,271.2 134.2,271.1 136.4,270.7 138.7,270.7 145.3,270.6 147.6,270.6 149.8,270.5 152.0,270.4 156.4,270.4 158.7,270.1 165.3,270.0 174.2,269.9 176.4,269.7 178.7,269.7 196.4,269.6 200.9,269.6 212.0,269.5 214.2,269.5 216.4,269.4 225.3,269.4 227.6,269.1 229.8,268.9 232.0,268.3 234.2,268.2 249.8,268.2 256.4,268.1 260.9,268.1 263.1,268.1 265.3,267.8 267.6,267.8 269.8,267.8 272.0,267.6 274.2,267.5 283.1,267.3 287.6,267.2 296.4,267.2 298.7,267.0 300.9,266.9 303.1,266.8 307.6,266.8 309.8,265.9 312.0,265.1 314.2,264.8 316.4,264.6 318.7,264.5 320.9,264.2 323.1,263.9 325.3,263.7 327.6,263.6 329.8,263.5 334.2,263.4 336.4,263.0 338.7,262.7 340.9,262.3 343.1,262.1 347.6,262.0 352.0,262.0 354.2,261.7 356.4,261.5 358.7,260.9 360.9,260.5 363.1,260.2 365.3,259.8 367.6,259.4 369.8,259.1 372.0,258.6 374.2,258.1 376.4,257.7 378.7,257.3 380.9,257.1 383.1,256.8 385.3,256.4 387.6,256.2 389.8,256.0 392.0,255.8 394.2,255.7 396.4,255.6 400.9,255.6 403.1,254.7 405.3,254.1 407.6,254.0 409.8,253.9 414.2,253.9 416.4,253.7 425.3,253.7 429.8,253.6 436.4,253.6 438.7,252.6 440.9,251.6 443.1,251.3 445.3,250.6 447.6,250.0 449.8,249.6 452.0,249.4 454.2,249.0 456.4,248.8 458.7,248.7 460.9,248.5 463.1,248.4 476.4,247.8 478.7,246.9 480.9,246.8 483.1,246.6 485.3,246.6 500.9,246.5 520.9,245.6 523.1,244.9 525.3,244.1 527.6,242.9 529.8,242.7 532.0,242.3 534.2,241.6 536.4,241.1 538.7,239.9 540.9,238.2 543.1,236.5 545.3,234.5 547.6,232.4 549.8,230.6 552.0,229.5 554.2,228.1 556.4,226.1 558.7,224.5 560.9,223.3 563.1,222.2 565.3,220.5 567.6,219.5 569.8,218.4 572.0,217.5 574.2,216.8 576.4,215.9 578.7,215.4 580.9,214.8 583.1,214.2 585.3,212.7 587.6,211.4 589.8,210.7 592.0,210.5 594.2,210.1 596.4,209.5 598.7,208.9 600.9,207.9 603.1,207.2 605.3,206.6 607.6,206.5 609.8,206.3 612.0,205.8 614.2,204.5 616.4,202.5 618.7,200.4 620.9,198.3 623.1,196.5 625.3,194.5 627.6,192.3 629.8,190.1 632.0,188.1 634.2,186.6 636.4,185.4 638.7,184.1 640.9,182.8 643.1,181.9 645.3,180.9 647.6,180.1 649.8,179.0 652.0,177.5 654.2,175.7 656.4,174.1 658.7,172.8 660.9,171.9 663.1,171.1 665.3,170.4 667.6,169.5 669.8,168.0 672.0,166.8 674.2,165.3 676.4,163.7 678.7,162.4 680.9,161.4 683.1,160.9 685.3,160.3 687.6,159.7 689.8,159.6 692.0,159.5 694.2,159.2 696.4,159.1 698.7,159.1 700.9,158.9 703.1,158.8 709.8,158.7 712.0,158.7 714.2,158.4 716.4,156.6 718.7,155.1 720.9,153.8 723.1,152.3 725.3,150.9 727.6,149.6 729.8,148.2 732.0,146.9 734.2,145.4 736.4,144.1 738.7,142.8 740.9,141.5 743.1,140.2 745.3,138.9 747.6,137.7 749.8,136.6 752.0,135.4 754.2,134.2 756.4,133.0 758.7,131.8 760.9,130.7 763.1,129.9 765.3,129.1 767.6,128.3 769.8,127.2 772.0,126.2 774.2,125.2 776.4,124.1 778.7,123.1 780.9,122.2 783.1,121.1 785.3,120.1 787.6,119.1 789.8,118.1 792.0,117.0 794.2,116.2 796.4,115.1 798.7,114.3 800.9,113.5 803.1,112.5 805.3,111.6 807.6,110.7 809.8,110.0 812.0,109.4 814.2,109.0 816.4,108.9 818.7,108.0 820.9,107.1 823.1,106.3 825.3,105.4 827.6,104.6 829.8,103.8 832.0,102.9 834.2,102.1 836.4,101.3 838.7,100.6 840.9,99.9 843.1,99.1 845.3,98.3 847.6,97.6 849.8,96.8 852.0,96.0 854.2,95.3 856.4,94.6 858.7,93.8 860.9,93.2 863.1,92.6 865.3,91.6 867.6,90.8 869.8,90.1 872.0,90.0 872.0,272.0" fill="#e0f2fe" opacity="0.55"/>
<polyline points="52.0,272.0 54.2,271.9 80.9,271.4 83.1,271.3 85.3,271.3 92.0,271.2 105.3,271.2 134.2,271.1 136.4,270.7 138.7,270.7 145.3,270.6 147.6,270.6 149.8,270.5 152.0,270.4 156.4,270.4 158.7,270.1 165.3,270.0 174.2,269.9 176.4,269.7 178.7,269.7 196.4,269.6 200.9,269.6 212.0,269.5 214.2,269.5 216.4,269.4 225.3,269.4 227.6,269.1 229.8,268.9 232.0,268.3 234.2,268.2 249.8,268.2 256.4,268.1 260.9,268.1 263.1,268.1 265.3,267.8 267.6,267.8 269.8,267.8 272.0,267.6 274.2,267.5 283.1,267.3 287.6,267.2 296.4,267.2 298.7,267.0 300.9,266.9 303.1,266.8 307.6,266.8 309.8,265.9 312.0,265.1 314.2,264.8 316.4,264.6 318.7,264.5 320.9,264.2 323.1,263.9 325.3,263.7 327.6,263.6 329.8,263.5 334.2,263.4 336.4,263.0 338.7,262.7 340.9,262.3 343.1,262.1 347.6,262.0 352.0,262.0 354.2,261.7 356.4,261.5 358.7,260.9 360.9,260.5 363.1,260.2 365.3,259.8 367.6,259.4 369.8,259.1 372.0,258.6 374.2,258.1 376.4,257.7 378.7,257.3 380.9,257.1 383.1,256.8 385.3,256.4 387.6,256.2 389.8,256.0 392.0,255.8 394.2,255.7 396.4,255.6 400.9,255.6 403.1,254.7 405.3,254.1 407.6,254.0 409.8,253.9 414.2,253.9 416.4,253.7 425.3,253.7 429.8,253.6 436.4,253.6 438.7,252.6 440.9,251.6 443.1,251.3 445.3,250.6 447.6,250.0 449.8,249.6 452.0,249.4 454.2,249.0 456.4,248.8 458.7,248.7 460.9,248.5 463.1,248.4 476.4,247.8 478.7,246.9 480.9,246.8 483.1,246.6 485.3,246.6 500.9,246.5 520.9,245.6 523.1,244.9 525.3,244.1 527.6,242.9 529.8,242.7 532.0,242.3 534.2,241.6 536.4,241.1 538.7,239.9 540.9,238.2 543.1,236.5 545.3,234.5 547.6,232.4 549.8,230.6 552.0,229.5 554.2,228.1 556.4,226.1 558.7,224.5 560.9,223.3 563.1,222.2 565.3,220.5 567.6,219.5 569.8,218.4 572.0,217.5 574.2,216.8 576.4,215.9 578.7,215.4 580.9,214.8 583.1,214.2 585.3,212.7 587.6,211.4 589.8,210.7 592.0,210.5 594.2,210.1 596.4,209.5 598.7,208.9 600.9,207.9 603.1,207.2 605.3,206.6 607.6,206.5 609.8,206.3 612.0,205.8 614.2,204.5 616.4,202.5 618.7,200.4 620.9,198.3 623.1,196.5 625.3,194.5 627.6,192.3 629.8,190.1 632.0,188.1 634.2,186.6 636.4,185.4 638.7,184.1 640.9,182.8 643.1,181.9 645.3,180.9 647.6,180.1 649.8,179.0 652.0,177.5 654.2,175.7 656.4,174.1 658.7,172.8 660.9,171.9 663.1,171.1 665.3,170.4 667.6,169.5 669.8,168.0 672.0,166.8 674.2,165.3 676.4,163.7 678.7,162.4 680.9,161.4 683.1,160.9 685.3,160.3 687.6,159.7 689.8,159.6 692.0,159.5 694.2,159.2 696.4,159.1 698.7,159.1 700.9,158.9 703.1,158.8 709.8,158.7 712.0,158.7 714.2,158.4 716.4,156.6 718.7,155.1 720.9,153.8 723.1,152.3 725.3,150.9 727.6,149.6 729.8,148.2 732.0,146.9 734.2,145.4 736.4,144.1 738.7,142.8 740.9,141.5 743.1,140.2 745.3,138.9 747.6,137.7 749.8,136.6 752.0,135.4 754.2,134.2 756.4,133.0 758.7,131.8 760.9,130.7 763.1,129.9 765.3,129.1 767.6,128.3 769.8,127.2 772.0,126.2 774.2,125.2 776.4,124.1 778.7,123.1 780.9,122.2 783.1,121.1 785.3,120.1 787.6,119.1 789.8,118.1 792.0,117.0 794.2,116.2 796.4,115.1 798.7,114.3 800.9,113.5 803.1,112.5 805.3,111.6 807.6,110.7 809.8,110.0 812.0,109.4 814.2,109.0 816.4,108.9 818.7,108.0 820.9,107.1 823.1,106.3 825.3,105.4 827.6,104.6 829.8,103.8 832.0,102.9 834.2,102.1 836.4,101.3 838.7,100.6 840.9,99.9 843.1,99.1 845.3,98.3 847.6,97.6 849.8,96.8 852.0,96.0 854.2,95.3 856.4,94.6 858.7,93.8 860.9,93.2 863.1,92.6 865.3,91.6 867.6,90.8 869.8,90.1 872.0,90.0" fill="none" stroke="#38bdf8" stroke-width="2.5" stroke-linejoin="round" stroke-linecap="round"/>
<circle cx="872.0" cy="90.0" r="4" fill="#0ea5e9"/>
<text x="866.0" y="80.0" text-anchor="end" font-family="Inter, system-ui, sans-serif" font-size="13" font-weight="700" fill="#334155">4203</text>
<text x="52.0" y="294" text-anchor="middle" font-family="Inter, system-ui, sans-serif" font-size="11" fill="#94a3b8">Jun 10 05:00</text>
<text x="572.0" y="294" text-anchor="middle" font-family="Inter, system-ui, sans-serif" font-size="11" fill="#94a3b8">Jun 19 23:00</text>
<text x="872.0" y="294" text-anchor="middle" font-family="Inter, system-ui, sans-serif" font-size="11" fill="#94a3b8">Jun 25 14:00</text>
</svg>
