<svg xmlns="http://www.w3.org/2000/svg" width="900" height="320" viewBox="0 0 900 320" role="img" aria-labelledby="title desc">
<title id="title">Unsorry proofs over time</title>
<desc id="desc">Cumulative kernel-verified proofs over time, by the hour each proof was merged.</desc>
<rect width="900" height="100%" rx="18" fill="#ffffff"/>
<rect x="0.5" y="0.5" width="899" height="319" rx="18" fill="none" stroke="#e2e8f0"/>
<text x="32" y="44" font-family="Inter, system-ui, sans-serif" font-size="28" font-weight="700" fill="#334155">Unsorry — Proofs Over Time</text>
<text x="32" y="72" font-family="Inter, system-ui, sans-serif" font-size="13" fill="#64748b">2027 cumulative kernel-verified proofs · merged, hourly</text>
<line x1="52" y1="272.0" x2="872" y2="272.0" stroke="#f1f5f9"/>
<text x="44" y="276.0" text-anchor="end" font-family="Inter, system-ui, sans-serif" font-size="11" fill="#94a3b8">0</text>
<line x1="52" y1="226.5" x2="872" y2="226.5" stroke="#f1f5f9"/>
<text x="44" y="230.5" text-anchor="end" font-family="Inter, system-ui, sans-serif" font-size="11" fill="#94a3b8">507</text>
<line x1="52" y1="181.0" x2="872" y2="181.0" stroke="#f1f5f9"/>
<text x="44" y="185.0" text-anchor="end" font-family="Inter, system-ui, sans-serif" font-size="11" fill="#94a3b8">1014</text>
<line x1="52" y1="135.5" x2="872" y2="135.5" stroke="#f1f5f9"/>
<text x="44" y="139.5" text-anchor="end" font-family="Inter, system-ui, sans-serif" font-size="11" fill="#94a3b8">1520</text>
<line x1="52" y1="90.0" x2="872" y2="90.0" stroke="#f1f5f9"/>
<text x="44" y="94.0" text-anchor="end" font-family="Inter, system-ui, sans-serif" font-size="11" fill="#94a3b8">2027</text>
<polygon points="52.0,272.0 52.0,271.9 55.1,271.7 92.4,270.8 95.5,270.6 98.6,270.5 107.9,270.4 126.5,270.3 166.9,270.2 170.0,269.4 173.1,269.3 182.5,269.1 185.6,269.0 188.7,268.9 191.8,268.7 198.0,268.6 201.1,268.1 210.4,267.8 222.8,267.6 225.9,267.3 229.0,267.2 253.9,267.1 260.1,267.0 275.6,266.9 278.7,266.8 281.8,266.6 294.3,266.5 297.4,266.0 300.5,265.5 303.6,264.4 306.7,264.2 328.4,264.1 337.8,264.0 344.0,263.9 347.1,263.8 350.2,263.4 353.3,263.3 356.4,263.2 359.5,262.9 362.6,262.7 375.0,262.2 381.2,262.1 393.7,262.0 396.8,261.6 399.9,261.5 403.0,261.3 409.2,261.2 412.3,259.4 415.4,257.6 418.5,257.0 421.6,256.6 424.7,256.4 427.8,255.9 430.9,255.3 434.0,254.9 437.2,254.6 440.3,254.4 446.5,254.1 449.6,253.4 452.7,252.7 455.8,252.0 458.9,251.5 465.1,251.3 471.3,251.3 474.4,250.6 477.5,250.2 480.6,248.9 483.7,248.2 486.8,247.5 490.0,246.8 493.1,246.0 496.2,245.2 499.3,244.3 502.4,243.3 505.5,242.4 508.6,241.6 511.7,241.0 514.8,240.4 517.9,239.7 521.0,239.3 524.1,238.9 527.2,238.4 530.3,238.2 533.4,238.1 539.7,238.0 542.8,236.2 545.9,234.9 549.0,234.6 552.1,234.6 558.3,234.4 561.4,234.1 573.8,234.0 580.0,233.8 589.3,233.8 592.5,231.7 595.6,229.7 598.7,229.2 601.8,227.6 604.9,226.3 608.0,225.5 611.1,225.0 614.2,224.2 617.3,223.9 620.4,223.7 623.5,223.3 626.6,223.2 645.3,221.7 648.4,219.9 651.5,219.7 654.6,219.4 657.7,219.3 679.4,219.2 707.4,217.3 710.5,215.9 713.6,214.2 716.7,211.7 719.8,211.2 722.9,210.4 726.0,209.0 729.1,207.9 732.2,205.5 735.3,201.9 738.4,198.4 741.5,194.2 744.7,189.9 747.8,186.2 750.9,183.8 754.0,181.0 757.1,176.9 760.2,173.4 763.3,171.1 766.4,168.7 769.5,165.2 772.6,163.1 775.7,160.9 778.8,159.0 781.9,157.6 785.0,155.7 788.1,154.6 791.2,153.3 794.3,152.2 797.5,149.0 800.6,146.4 803.7,145.0 806.8,144.5 809.9,143.7 813.0,142.3 816.1,141.2 819.2,139.0 822.3,137.7 825.4,136.4 828.5,136.2 831.6,135.7 834.7,134.7 837.8,132.1 840.9,127.9 844.0,123.5 847.2,119.1 850.3,115.5 853.4,111.3 856.5,106.8 859.6,102.2 862.7,98.0 865.8,94.9 868.9,92.5 872.0,90.0 872.0,272.0" fill="#e0f2fe" opacity="0.55"/>
<polyline points="52.0,271.9 55.1,271.7 92.4,270.8 95.5,270.6 98.6,270.5 107.9,270.4 126.5,270.3 166.9,270.2 170.0,269.4 173.1,269.3 182.5,269.1 185.6,269.0 188.7,268.9 191.8,268.7 198.0,268.6 201.1,268.1 210.4,267.8 222.8,267.6 225.9,267.3 229.0,267.2 253.9,267.1 260.1,267.0 275.6,266.9 278.7,266.8 281.8,266.6 294.3,266.5 297.4,266.0 300.5,265.5 303.6,264.4 306.7,264.2 328.4,264.1 337.8,264.0 344.0,263.9 347.1,263.8 350.2,263.4 353.3,263.3 356.4,263.2 359.5,262.9 362.6,262.7 375.0,262.2 381.2,262.1 393.7,262.0 396.8,261.6 399.9,261.5 403.0,261.3 409.2,261.2 412.3,259.4 415.4,257.6 418.5,257.0 421.6,256.6 424.7,256.4 427.8,255.9 430.9,255.3 434.0,254.9 437.2,254.6 440.3,254.4 446.5,254.1 449.6,253.4 452.7,252.7 455.8,252.0 458.9,251.5 465.1,251.3 471.3,251.3 474.4,250.6 477.5,250.2 480.6,248.9 483.7,248.2 486.8,247.5 490.0,246.8 493.1,246.0 496.2,245.2 499.3,244.3 502.4,243.3 505.5,242.4 508.6,241.6 511.7,241.0 514.8,240.4 517.9,239.7 521.0,239.3 524.1,238.9 527.2,238.4 530.3,238.2 533.4,238.1 539.7,238.0 542.8,236.2 545.9,234.9 549.0,234.6 552.1,234.6 558.3,234.4 561.4,234.1 573.8,234.0 580.0,233.8 589.3,233.8 592.5,231.7 595.6,229.7 598.7,229.2 601.8,227.6 604.9,226.3 608.0,225.5 611.1,225.0 614.2,224.2 617.3,223.9 620.4,223.7 623.5,223.3 626.6,223.2 645.3,221.7 648.4,219.9 651.5,219.7 654.6,219.4 657.7,219.3 679.4,219.2 707.4,217.3 710.5,215.9 713.6,214.2 716.7,211.7 719.8,211.2 722.9,210.4 726.0,209.0 729.1,207.9 732.2,205.5 735.3,201.9 738.4,198.4 741.5,194.2 744.7,189.9 747.8,186.2 750.9,183.8 754.0,181.0 757.1,176.9 760.2,173.4 763.3,171.1 766.4,168.7 769.5,165.2 772.6,163.1 775.7,160.9 778.8,159.0 781.9,157.6 785.0,155.7 788.1,154.6 791.2,153.3 794.3,152.2 797.5,149.0 800.6,146.4 803.7,145.0 806.8,144.5 809.9,143.7 813.0,142.3 816.1,141.2 819.2,139.0 822.3,137.7 825.4,136.4 828.5,136.2 831.6,135.7 834.7,134.7 837.8,132.1 840.9,127.9 844.0,123.5 847.2,119.1 850.3,115.5 853.4,111.3 856.5,106.8 859.6,102.2 862.7,98.0 865.8,94.9 868.9,92.5 872.0,90.0" fill="none" stroke="#38bdf8" stroke-width="2.5" stroke-linejoin="round" stroke-linecap="round"/>
<circle cx="872.0" cy="90.0" r="4" fill="#0ea5e9"/>
<text x="866.0" y="80.0" text-anchor="end" font-family="Inter, system-ui, sans-serif" font-size="13" font-weight="700" fill="#334155">2027</text>
<text x="52.0" y="294" text-anchor="middle" font-family="Inter, system-ui, sans-serif" font-size="11" fill="#94a3b8">Jun 10 05:00</text>
<text x="533.4" y="294" text-anchor="middle" font-family="Inter, system-ui, sans-serif" font-size="11" fill="#94a3b8">Jun 16 16:00</text>
<text x="872.0" y="294" text-anchor="middle" font-family="Inter, system-ui, sans-serif" font-size="11" fill="#94a3b8">Jun 21 05:00</text>
</svg>
