<svg xmlns="http://www.w3.org/2000/svg" width="900" height="320" viewBox="0 0 900 320" role="img" aria-labelledby="title desc">
<title id="title">Unsorry proofs over time</title>
<desc id="desc">Cumulative kernel-verified proofs over time, by the hour each proof was merged.</desc>
<rect width="900" height="100%" rx="18" fill="#ffffff"/>
<rect x="0.5" y="0.5" width="899" height="319" rx="18" fill="none" stroke="#e2e8f0"/>
<text x="32" y="44" font-family="Inter, system-ui, sans-serif" font-size="28" font-weight="700" fill="#334155">Unsorry — Proofs Over Time</text>
<text x="32" y="72" font-family="Inter, system-ui, sans-serif" font-size="13" fill="#64748b">2090 cumulative kernel-verified proofs · merged, hourly</text>
<line x1="52" y1="272.0" x2="872" y2="272.0" stroke="#f1f5f9"/>
<text x="44" y="276.0" text-anchor="end" font-family="Inter, system-ui, sans-serif" font-size="11" fill="#94a3b8">0</text>
<line x1="52" y1="226.5" x2="872" y2="226.5" stroke="#f1f5f9"/>
<text x="44" y="230.5" text-anchor="end" font-family="Inter, system-ui, sans-serif" font-size="11" fill="#94a3b8">522</text>
<line x1="52" y1="181.0" x2="872" y2="181.0" stroke="#f1f5f9"/>
<text x="44" y="185.0" text-anchor="end" font-family="Inter, system-ui, sans-serif" font-size="11" fill="#94a3b8">1045</text>
<line x1="52" y1="135.5" x2="872" y2="135.5" stroke="#f1f5f9"/>
<text x="44" y="139.5" text-anchor="end" font-family="Inter, system-ui, sans-serif" font-size="11" fill="#94a3b8">1568</text>
<line x1="52" y1="90.0" x2="872" y2="90.0" stroke="#f1f5f9"/>
<text x="44" y="94.0" text-anchor="end" font-family="Inter, system-ui, sans-serif" font-size="11" fill="#94a3b8">2090</text>
<polygon points="52.0,272.0 52.0,271.9 55.1,271.7 91.9,270.9 95.0,270.6 98.1,270.5 107.3,270.4 125.7,270.3 165.6,270.3 168.7,269.5 171.8,269.4 181.0,269.2 184.1,269.1 187.1,269.0 190.2,268.8 196.3,268.7 199.4,268.3 208.6,267.9 220.9,267.7 224.0,267.5 227.1,267.3 251.6,267.2 257.8,267.1 273.1,267.0 276.2,266.9 279.3,266.8 291.6,266.7 294.6,266.2 297.7,265.7 300.8,264.6 303.8,264.4 325.3,264.3 334.5,264.2 340.7,264.2 343.8,264.1 346.8,263.6 349.9,263.6 353.0,263.5 356.0,263.2 359.1,262.9 371.4,262.5 377.5,262.4 389.8,262.3 392.9,261.9 396.0,261.8 399.0,261.6 405.2,261.6 408.3,259.8 411.3,258.1 414.4,257.5 417.5,257.0 420.5,256.8 423.6,256.4 426.7,255.8 429.8,255.4 432.8,255.1 435.9,254.9 442.0,254.7 445.1,254.0 448.2,253.3 451.3,252.6 454.3,252.1 460.5,252.0 466.6,251.9 469.7,251.3 472.7,250.8 475.8,249.6 478.9,248.9 482.0,248.2 485.0,247.5 488.1,246.7 491.2,246.0 494.2,245.1 497.3,244.1 500.4,243.3 503.5,242.5 506.5,242.0 509.6,241.3 512.7,240.7 515.7,240.3 518.8,239.9 521.9,239.4 525.0,239.3 528.0,239.1 534.2,239.0 537.2,237.3 540.3,236.0 543.4,235.8 546.5,235.7 552.6,235.5 555.7,235.3 568.0,235.2 574.1,235.0 583.3,234.9 586.4,232.9 589.5,231.0 592.5,230.5 595.6,228.9 598.7,227.7 601.7,226.9 604.8,226.5 607.9,225.7 611.0,225.3 614.0,225.2 617.1,224.8 620.2,224.6 638.6,223.2 641.7,221.5 644.7,221.2 647.8,221.0 650.9,220.9 672.4,220.8 700.0,219.0 703.1,217.6 706.2,215.9 709.2,213.5 712.3,213.0 715.4,212.3 718.4,210.9 721.5,209.8 724.6,207.5 727.7,204.0 730.7,200.6 733.8,196.6 736.9,192.4 739.9,188.8 743.0,186.5 746.1,183.8 749.2,179.8 752.2,176.4 755.3,174.1 758.4,171.8 761.4,168.5 764.5,166.4 767.6,164.3 770.7,162.5 773.7,161.1 776.8,159.2 779.9,158.1 782.9,156.9 786.0,155.8 789.1,152.7 792.1,150.2 795.2,148.8 798.3,148.3 801.4,147.6 804.4,146.3 807.5,145.1 810.6,143.0 813.6,141.7 816.7,140.5 819.8,140.3 822.9,139.8 825.9,138.9 829.0,136.3 832.1,132.2 835.1,128.0 838.2,123.7 841.3,120.2 844.4,116.1 847.4,111.8 850.5,107.3 853.6,103.2 856.6,100.3 859.7,97.9 862.8,95.2 865.9,92.6 868.9,90.9 872.0,90.0 872.0,272.0" fill="#e0f2fe" opacity="0.55"/>
<polyline points="52.0,271.9 55.1,271.7 91.9,270.9 95.0,270.6 98.1,270.5 107.3,270.4 125.7,270.3 165.6,270.3 168.7,269.5 171.8,269.4 181.0,269.2 184.1,269.1 187.1,269.0 190.2,268.8 196.3,268.7 199.4,268.3 208.6,267.9 220.9,267.7 224.0,267.5 227.1,267.3 251.6,267.2 257.8,267.1 273.1,267.0 276.2,266.9 279.3,266.8 291.6,266.7 294.6,266.2 297.7,265.7 300.8,264.6 303.8,264.4 325.3,264.3 334.5,264.2 340.7,264.2 343.8,264.1 346.8,263.6 349.9,263.6 353.0,263.5 356.0,263.2 359.1,262.9 371.4,262.5 377.5,262.4 389.8,262.3 392.9,261.9 396.0,261.8 399.0,261.6 405.2,261.6 408.3,259.8 411.3,258.1 414.4,257.5 417.5,257.0 420.5,256.8 423.6,256.4 426.7,255.8 429.8,255.4 432.8,255.1 435.9,254.9 442.0,254.7 445.1,254.0 448.2,253.3 451.3,252.6 454.3,252.1 460.5,252.0 466.6,251.9 469.7,251.3 472.7,250.8 475.8,249.6 478.9,248.9 482.0,248.2 485.0,247.5 488.1,246.7 491.2,246.0 494.2,245.1 497.3,244.1 500.4,243.3 503.5,242.5 506.5,242.0 509.6,241.3 512.7,240.7 515.7,240.3 518.8,239.9 521.9,239.4 525.0,239.3 528.0,239.1 534.2,239.0 537.2,237.3 540.3,236.0 543.4,235.8 546.5,235.7 552.6,235.5 555.7,235.3 568.0,235.2 574.1,235.0 583.3,234.9 586.4,232.9 589.5,231.0 592.5,230.5 595.6,228.9 598.7,227.7 601.7,226.9 604.8,226.5 607.9,225.7 611.0,225.3 614.0,225.2 617.1,224.8 620.2,224.6 638.6,223.2 641.7,221.5 644.7,221.2 647.8,221.0 650.9,220.9 672.4,220.8 700.0,219.0 703.1,217.6 706.2,215.9 709.2,213.5 712.3,213.0 715.4,212.3 718.4,210.9 721.5,209.8 724.6,207.5 727.7,204.0 730.7,200.6 733.8,196.6 736.9,192.4 739.9,188.8 743.0,186.5 746.1,183.8 749.2,179.8 752.2,176.4 755.3,174.1 758.4,171.8 761.4,168.5 764.5,166.4 767.6,164.3 770.7,162.5 773.7,161.1 776.8,159.2 779.9,158.1 782.9,156.9 786.0,155.8 789.1,152.7 792.1,150.2 795.2,148.8 798.3,148.3 801.4,147.6 804.4,146.3 807.5,145.1 810.6,143.0 813.6,141.7 816.7,140.5 819.8,140.3 822.9,139.8 825.9,138.9 829.0,136.3 832.1,132.2 835.1,128.0 838.2,123.7 841.3,120.2 844.4,116.1 847.4,111.8 850.5,107.3 853.6,103.2 856.6,100.3 859.7,97.9 862.8,95.2 865.9,92.6 868.9,90.9 872.0,90.0" fill="none" stroke="#38bdf8" stroke-width="2.5" stroke-linejoin="round" stroke-linecap="round"/>
<circle cx="872.0" cy="90.0" r="4" fill="#0ea5e9"/>
<text x="866.0" y="80.0" text-anchor="end" font-family="Inter, system-ui, sans-serif" font-size="13" font-weight="700" fill="#334155">2090</text>
<text x="52.0" y="294" text-anchor="middle" font-family="Inter, system-ui, sans-serif" font-size="11" fill="#94a3b8">Jun 10 05:00</text>
<text x="537.2" y="294" text-anchor="middle" font-family="Inter, system-ui, sans-serif" font-size="11" fill="#94a3b8">Jun 16 19:00</text>
<text x="872.0" y="294" text-anchor="middle" font-family="Inter, system-ui, sans-serif" font-size="11" fill="#94a3b8">Jun 21 08:00</text>
</svg>
