<svg xmlns="http://www.w3.org/2000/svg" width="900" height="320" viewBox="0 0 900 320" role="img" aria-labelledby="title desc">
<title id="title">Unsorry proofs over time</title>
<desc id="desc">Cumulative kernel-verified proofs over time, by the hour each proof was merged.</desc>
<rect width="900" height="100%" rx="18" fill="#ffffff"/>
<rect x="0.5" y="0.5" width="899" height="319" rx="18" fill="none" stroke="#e2e8f0"/>
<text x="32" y="44" font-family="Inter, system-ui, sans-serif" font-size="28" font-weight="700" fill="#334155">Unsorry — Proofs Over Time</text>
<text x="32" y="72" font-family="Inter, system-ui, sans-serif" font-size="13" fill="#64748b">2533 cumulative kernel-verified proofs · merged, hourly</text>
<line x1="52" y1="272.0" x2="872" y2="272.0" stroke="#f1f5f9"/>
<text x="44" y="276.0" text-anchor="end" font-family="Inter, system-ui, sans-serif" font-size="11" fill="#94a3b8">0</text>
<line x1="52" y1="226.5" x2="872" y2="226.5" stroke="#f1f5f9"/>
<text x="44" y="230.5" text-anchor="end" font-family="Inter, system-ui, sans-serif" font-size="11" fill="#94a3b8">633</text>
<line x1="52" y1="181.0" x2="872" y2="181.0" stroke="#f1f5f9"/>
<text x="44" y="185.0" text-anchor="end" font-family="Inter, system-ui, sans-serif" font-size="11" fill="#94a3b8">1266</text>
<line x1="52" y1="135.5" x2="872" y2="135.5" stroke="#f1f5f9"/>
<text x="44" y="139.5" text-anchor="end" font-family="Inter, system-ui, sans-serif" font-size="11" fill="#94a3b8">1900</text>
<line x1="52" y1="90.0" x2="872" y2="90.0" stroke="#f1f5f9"/>
<text x="44" y="94.0" text-anchor="end" font-family="Inter, system-ui, sans-serif" font-size="11" fill="#94a3b8">2533</text>
<polygon points="52.0,272.0 52.0,271.9 54.9,271.8 89.7,271.1 92.6,270.9 95.5,270.8 104.2,270.7 121.5,270.6 159.2,270.6 162.1,269.9 165.0,269.8 173.7,269.7 176.6,269.6 179.5,269.6 182.4,269.3 188.2,269.3 191.1,268.9 199.8,268.6 211.4,268.5 214.3,268.3 217.2,268.1 240.3,268.0 246.1,268.0 260.6,267.9 263.5,267.8 266.4,267.7 278.0,267.6 280.9,267.2 283.8,266.8 286.7,265.9 289.6,265.7 309.9,265.7 318.6,265.6 324.4,265.5 327.3,265.5 330.2,265.1 333.1,265.0 336.0,265.0 338.9,264.7 341.8,264.5 353.3,264.2 359.1,264.1 370.7,264.0 373.6,263.7 376.5,263.6 379.4,263.4 385.2,263.4 388.1,261.9 391.0,260.5 393.9,260.0 396.8,259.6 399.7,259.5 402.6,259.1 405.5,258.6 408.4,258.3 411.3,258.1 414.2,257.9 420.0,257.7 422.9,257.1 425.8,256.6 428.7,256.0 431.6,255.6 437.4,255.5 443.2,255.4 446.1,254.9 449.0,254.5 451.9,253.5 454.8,253.0 457.7,252.4 460.6,251.8 463.4,251.2 466.3,250.5 469.2,249.8 472.1,249.0 475.0,248.3 477.9,247.6 480.8,247.2 483.7,246.7 486.6,246.1 489.5,245.8 492.4,245.5 495.3,245.1 498.2,245.0 501.1,244.8 506.9,244.8 509.8,243.3 512.7,242.3 515.6,242.1 518.5,242.0 524.3,241.9 527.2,241.7 538.8,241.6 544.6,241.5 553.3,241.4 556.2,239.7 559.1,238.2 562.0,237.7 564.9,236.4 567.8,235.4 570.7,234.8 573.6,234.4 576.5,233.8 579.3,233.5 582.2,233.3 585.1,233.1 588.0,232.9 605.4,231.8 608.3,230.3 611.2,230.1 614.1,229.9 617.0,229.8 637.3,229.8 663.4,228.2 666.3,227.1 669.2,225.7 672.1,223.7 675.0,223.4 677.9,222.7 680.8,221.6 683.7,220.7 686.6,218.8 689.5,215.9 692.4,213.1 695.3,209.8 698.1,206.3 701.0,203.3 703.9,201.4 706.8,199.2 709.7,195.9 712.6,193.1 715.5,191.2 718.4,189.3 721.3,186.6 724.2,184.8 727.1,183.1 730.0,181.6 732.9,180.5 735.8,179.0 738.7,178.0 741.6,177.0 744.5,176.2 747.4,173.6 750.3,171.5 753.2,170.3 756.1,170.0 759.0,169.3 761.9,168.2 764.8,167.3 767.7,165.6 770.6,164.5 773.5,163.5 776.4,163.4 779.3,162.9 782.2,162.1 785.1,160.1 788.0,156.7 790.9,153.2 793.8,149.6 796.7,146.8 799.6,143.4 802.5,139.8 805.4,136.1 808.3,132.8 811.2,130.3 814.0,128.4 816.9,126.1 819.8,124.0 822.7,122.5 825.6,120.8 828.5,119.5 831.4,117.7 834.3,115.1 837.2,112.1 840.1,109.6 843.0,107.4 845.9,106.0 848.8,104.7 851.7,103.4 854.6,101.9 857.5,99.5 860.4,97.4 863.3,94.9 866.2,92.3 869.1,90.1 872.0,90.0 872.0,272.0" fill="#e0f2fe" opacity="0.55"/>
<polyline points="52.0,271.9 54.9,271.8 89.7,271.1 92.6,270.9 95.5,270.8 104.2,270.7 121.5,270.6 159.2,270.6 162.1,269.9 165.0,269.8 173.7,269.7 176.6,269.6 179.5,269.6 182.4,269.3 188.2,269.3 191.1,268.9 199.8,268.6 211.4,268.5 214.3,268.3 217.2,268.1 240.3,268.0 246.1,268.0 260.6,267.9 263.5,267.8 266.4,267.7 278.0,267.6 280.9,267.2 283.8,266.8 286.7,265.9 289.6,265.7 309.9,265.7 318.6,265.6 324.4,265.5 327.3,265.5 330.2,265.1 333.1,265.0 336.0,265.0 338.9,264.7 341.8,264.5 353.3,264.2 359.1,264.1 370.7,264.0 373.6,263.7 376.5,263.6 379.4,263.4 385.2,263.4 388.1,261.9 391.0,260.5 393.9,260.0 396.8,259.6 399.7,259.5 402.6,259.1 405.5,258.6 408.4,258.3 411.3,258.1 414.2,257.9 420.0,257.7 422.9,257.1 425.8,256.6 428.7,256.0 431.6,255.6 437.4,255.5 443.2,255.4 446.1,254.9 449.0,254.5 451.9,253.5 454.8,253.0 457.7,252.4 460.6,251.8 463.4,251.2 466.3,250.5 469.2,249.8 472.1,249.0 475.0,248.3 477.9,247.6 480.8,247.2 483.7,246.7 486.6,246.1 489.5,245.8 492.4,245.5 495.3,245.1 498.2,245.0 501.1,244.8 506.9,244.8 509.8,243.3 512.7,242.3 515.6,242.1 518.5,242.0 524.3,241.9 527.2,241.7 538.8,241.6 544.6,241.5 553.3,241.4 556.2,239.7 559.1,238.2 562.0,237.7 564.9,236.4 567.8,235.4 570.7,234.8 573.6,234.4 576.5,233.8 579.3,233.5 582.2,233.3 585.1,233.1 588.0,232.9 605.4,231.8 608.3,230.3 611.2,230.1 614.1,229.9 617.0,229.8 637.3,229.8 663.4,228.2 666.3,227.1 669.2,225.7 672.1,223.7 675.0,223.4 677.9,222.7 680.8,221.6 683.7,220.7 686.6,218.8 689.5,215.9 692.4,213.1 695.3,209.8 698.1,206.3 701.0,203.3 703.9,201.4 706.8,199.2 709.7,195.9 712.6,193.1 715.5,191.2 718.4,189.3 721.3,186.6 724.2,184.8 727.1,183.1 730.0,181.6 732.9,180.5 735.8,179.0 738.7,178.0 741.6,177.0 744.5,176.2 747.4,173.6 750.3,171.5 753.2,170.3 756.1,170.0 759.0,169.3 761.9,168.2 764.8,167.3 767.7,165.6 770.6,164.5 773.5,163.5 776.4,163.4 779.3,162.9 782.2,162.1 785.1,160.1 788.0,156.7 790.9,153.2 793.8,149.6 796.7,146.8 799.6,143.4 802.5,139.8 805.4,136.1 808.3,132.8 811.2,130.3 814.0,128.4 816.9,126.1 819.8,124.0 822.7,122.5 825.6,120.8 828.5,119.5 831.4,117.7 834.3,115.1 837.2,112.1 840.1,109.6 843.0,107.4 845.9,106.0 848.8,104.7 851.7,103.4 854.6,101.9 857.5,99.5 860.4,97.4 863.3,94.9 866.2,92.3 869.1,90.1 872.0,90.0" fill="none" stroke="#38bdf8" stroke-width="2.5" stroke-linejoin="round" stroke-linecap="round"/>
<circle cx="872.0" cy="90.0" r="4" fill="#0ea5e9"/>
<text x="866.0" y="80.0" text-anchor="end" font-family="Inter, system-ui, sans-serif" font-size="13" font-weight="700" fill="#334155">2533</text>
<text x="52.0" y="294" text-anchor="middle" font-family="Inter, system-ui, sans-serif" font-size="11" fill="#94a3b8">Jun 10 05:00</text>
<text x="553.3" y="294" text-anchor="middle" font-family="Inter, system-ui, sans-serif" font-size="11" fill="#94a3b8">Jun 17 10:00</text>
<text x="872.0" y="294" text-anchor="middle" font-family="Inter, system-ui, sans-serif" font-size="11" fill="#94a3b8">Jun 22 00:00</text>
</svg>
