<svg xmlns="http://www.w3.org/2000/svg" width="900" height="320" viewBox="0 0 900 320" role="img" aria-labelledby="title desc">
<title id="title">Unsorry proofs over time</title>
<desc id="desc">Cumulative kernel-verified proofs over time, by the hour each proof was merged.</desc>
<rect width="900" height="100%" rx="18" fill="#ffffff"/>
<rect x="0.5" y="0.5" width="899" height="319" rx="18" fill="none" stroke="#e2e8f0"/>
<text x="32" y="44" font-family="Inter, system-ui, sans-serif" font-size="28" font-weight="700" fill="#334155">Unsorry — Proofs Over Time</text>
<text x="32" y="72" font-family="Inter, system-ui, sans-serif" font-size="13" fill="#64748b">2021 cumulative kernel-verified proofs · merged, hourly</text>
<line x1="52" y1="272.0" x2="872" y2="272.0" stroke="#f1f5f9"/>
<text x="44" y="276.0" text-anchor="end" font-family="Inter, system-ui, sans-serif" font-size="11" fill="#94a3b8">0</text>
<line x1="52" y1="226.5" x2="872" y2="226.5" stroke="#f1f5f9"/>
<text x="44" y="230.5" text-anchor="end" font-family="Inter, system-ui, sans-serif" font-size="11" fill="#94a3b8">505</text>
<line x1="52" y1="181.0" x2="872" y2="181.0" stroke="#f1f5f9"/>
<text x="44" y="185.0" text-anchor="end" font-family="Inter, system-ui, sans-serif" font-size="11" fill="#94a3b8">1010</text>
<line x1="52" y1="135.5" x2="872" y2="135.5" stroke="#f1f5f9"/>
<text x="44" y="139.5" text-anchor="end" font-family="Inter, system-ui, sans-serif" font-size="11" fill="#94a3b8">1516</text>
<line x1="52" y1="90.0" x2="872" y2="90.0" stroke="#f1f5f9"/>
<text x="44" y="94.0" text-anchor="end" font-family="Inter, system-ui, sans-serif" font-size="11" fill="#94a3b8">2021</text>
<polygon points="52.0,272.0 52.0,271.9 55.1,271.7 92.4,270.8 95.5,270.6 98.6,270.5 107.9,270.4 126.5,270.3 166.9,270.2 170.0,269.4 173.1,269.3 182.5,269.1 185.6,269.0 188.7,268.9 191.8,268.7 198.0,268.6 201.1,268.1 210.4,267.8 222.8,267.6 225.9,267.3 229.0,267.1 253.9,267.0 260.1,267.0 275.6,266.9 278.7,266.8 281.8,266.6 294.3,266.5 297.4,266.0 300.5,265.5 303.6,264.3 306.7,264.2 328.4,264.1 337.8,264.0 344.0,263.9 347.1,263.8 350.2,263.4 353.3,263.3 356.4,263.2 359.5,262.9 362.6,262.6 375.0,262.2 381.2,262.1 393.7,262.0 396.8,261.6 399.9,261.5 403.0,261.3 409.2,261.2 412.3,259.4 415.4,257.6 418.5,257.0 421.6,256.5 424.7,256.3 427.8,255.9 430.9,255.2 434.0,254.8 437.2,254.5 440.3,254.3 446.5,254.1 449.6,253.4 452.7,252.6 455.8,251.9 458.9,251.5 465.1,251.3 471.3,251.2 474.4,250.6 477.5,250.1 480.6,248.9 483.7,248.1 486.8,247.4 490.0,246.7 493.1,245.9 496.2,245.1 499.3,244.2 502.4,243.2 505.5,242.3 508.6,241.5 511.7,240.9 514.8,240.3 517.9,239.6 521.0,239.2 524.1,238.8 527.2,238.3 530.3,238.1 533.4,238.0 539.7,237.9 542.8,236.1 545.9,234.8 549.0,234.5 552.1,234.4 558.3,234.3 561.4,234.0 573.8,233.9 580.0,233.7 589.3,233.6 592.5,231.6 595.6,229.6 598.7,229.0 601.8,227.4 604.9,226.2 608.0,225.4 611.1,224.9 614.2,224.1 617.3,223.7 620.4,223.6 623.5,223.2 626.6,223.0 645.3,221.6 648.4,219.8 651.5,219.5 654.6,219.2 657.7,219.1 679.4,219.0 707.4,217.2 710.5,215.7 713.6,214.0 716.7,211.5 719.8,211.0 722.9,210.2 726.0,208.8 729.1,207.7 732.2,205.3 735.3,201.7 738.4,198.2 741.5,194.0 744.7,189.7 747.8,185.9 750.9,183.6 754.0,180.8 757.1,176.6 760.2,173.1 763.3,170.8 766.4,168.3 769.5,164.9 772.6,162.8 775.7,160.6 778.8,158.7 781.9,157.3 785.0,155.4 788.1,154.2 791.2,152.9 794.3,151.9 797.5,148.6 800.6,146.0 803.7,144.6 806.8,144.1 809.9,143.3 813.0,142.0 816.1,140.8 819.2,138.6 822.3,137.3 825.4,136.0 828.5,135.8 831.6,135.3 834.7,134.3 837.8,131.7 840.9,127.5 844.0,123.0 847.2,118.6 850.3,115.0 853.4,110.8 856.5,106.3 859.6,101.7 862.7,97.5 865.8,94.4 868.9,92.0 872.0,90.0 872.0,272.0" fill="#e0f2fe" opacity="0.55"/>
<polyline points="52.0,271.9 55.1,271.7 92.4,270.8 95.5,270.6 98.6,270.5 107.9,270.4 126.5,270.3 166.9,270.2 170.0,269.4 173.1,269.3 182.5,269.1 185.6,269.0 188.7,268.9 191.8,268.7 198.0,268.6 201.1,268.1 210.4,267.8 222.8,267.6 225.9,267.3 229.0,267.1 253.9,267.0 260.1,267.0 275.6,266.9 278.7,266.8 281.8,266.6 294.3,266.5 297.4,266.0 300.5,265.5 303.6,264.3 306.7,264.2 328.4,264.1 337.8,264.0 344.0,263.9 347.1,263.8 350.2,263.4 353.3,263.3 356.4,263.2 359.5,262.9 362.6,262.6 375.0,262.2 381.2,262.1 393.7,262.0 396.8,261.6 399.9,261.5 403.0,261.3 409.2,261.2 412.3,259.4 415.4,257.6 418.5,257.0 421.6,256.5 424.7,256.3 427.8,255.9 430.9,255.2 434.0,254.8 437.2,254.5 440.3,254.3 446.5,254.1 449.6,253.4 452.7,252.6 455.8,251.9 458.9,251.5 465.1,251.3 471.3,251.2 474.4,250.6 477.5,250.1 480.6,248.9 483.7,248.1 486.8,247.4 490.0,246.7 493.1,245.9 496.2,245.1 499.3,244.2 502.4,243.2 505.5,242.3 508.6,241.5 511.7,240.9 514.8,240.3 517.9,239.6 521.0,239.2 524.1,238.8 527.2,238.3 530.3,238.1 533.4,238.0 539.7,237.9 542.8,236.1 545.9,234.8 549.0,234.5 552.1,234.4 558.3,234.3 561.4,234.0 573.8,233.9 580.0,233.7 589.3,233.6 592.5,231.6 595.6,229.6 598.7,229.0 601.8,227.4 604.9,226.2 608.0,225.4 611.1,224.9 614.2,224.1 617.3,223.7 620.4,223.6 623.5,223.2 626.6,223.0 645.3,221.6 648.4,219.8 651.5,219.5 654.6,219.2 657.7,219.1 679.4,219.0 707.4,217.2 710.5,215.7 713.6,214.0 716.7,211.5 719.8,211.0 722.9,210.2 726.0,208.8 729.1,207.7 732.2,205.3 735.3,201.7 738.4,198.2 741.5,194.0 744.7,189.7 747.8,185.9 750.9,183.6 754.0,180.8 757.1,176.6 760.2,173.1 763.3,170.8 766.4,168.3 769.5,164.9 772.6,162.8 775.7,160.6 778.8,158.7 781.9,157.3 785.0,155.4 788.1,154.2 791.2,152.9 794.3,151.9 797.5,148.6 800.6,146.0 803.7,144.6 806.8,144.1 809.9,143.3 813.0,142.0 816.1,140.8 819.2,138.6 822.3,137.3 825.4,136.0 828.5,135.8 831.6,135.3 834.7,134.3 837.8,131.7 840.9,127.5 844.0,123.0 847.2,118.6 850.3,115.0 853.4,110.8 856.5,106.3 859.6,101.7 862.7,97.5 865.8,94.4 868.9,92.0 872.0,90.0" fill="none" stroke="#38bdf8" stroke-width="2.5" stroke-linejoin="round" stroke-linecap="round"/>
<circle cx="872.0" cy="90.0" r="4" fill="#0ea5e9"/>
<text x="866.0" y="80.0" text-anchor="end" font-family="Inter, system-ui, sans-serif" font-size="13" font-weight="700" fill="#334155">2021</text>
<text x="52.0" y="294" text-anchor="middle" font-family="Inter, system-ui, sans-serif" font-size="11" fill="#94a3b8">Jun 10 05:00</text>
<text x="533.4" y="294" text-anchor="middle" font-family="Inter, system-ui, sans-serif" font-size="11" fill="#94a3b8">Jun 16 16:00</text>
<text x="872.0" y="294" text-anchor="middle" font-family="Inter, system-ui, sans-serif" font-size="11" fill="#94a3b8">Jun 21 05:00</text>
</svg>
