<svg xmlns="http://www.w3.org/2000/svg" width="900" height="320" viewBox="0 0 900 320" role="img" aria-labelledby="title desc">
<title id="title">unsorry proofs over time</title>
<desc id="desc">Cumulative kernel-verified proofs over time, by the hour each proof was merged.</desc>
<rect width="900" height="100%" rx="18" fill="#ffffff"/>
<rect x="0.5" y="0.5" width="899" height="319" rx="18" fill="none" stroke="#e2e8f0"/>
<text x="32" y="44" font-family="Inter, system-ui, sans-serif" font-size="28" font-weight="700" fill="#334155">unsorry — Proofs Over Time</text>
<text x="32" y="72" font-family="Inter, system-ui, sans-serif" font-size="13" fill="#64748b">4592 cumulative kernel-verified proofs · merged, hourly</text>
<line x1="52" y1="272.0" x2="872" y2="272.0" stroke="#f1f5f9"/>
<text x="44" y="276.0" text-anchor="end" font-family="Inter, system-ui, sans-serif" font-size="11" fill="#94a3b8">0</text>
<line x1="52" y1="226.5" x2="872" y2="226.5" stroke="#f1f5f9"/>
<text x="44" y="230.5" text-anchor="end" font-family="Inter, system-ui, sans-serif" font-size="11" fill="#94a3b8">1148</text>
<line x1="52" y1="181.0" x2="872" y2="181.0" stroke="#f1f5f9"/>
<text x="44" y="185.0" text-anchor="end" font-family="Inter, system-ui, sans-serif" font-size="11" fill="#94a3b8">2296</text>
<line x1="52" y1="135.5" x2="872" y2="135.5" stroke="#f1f5f9"/>
<text x="44" y="139.5" text-anchor="end" font-family="Inter, system-ui, sans-serif" font-size="11" fill="#94a3b8">3444</text>
<line x1="52" y1="90.0" x2="872" y2="90.0" stroke="#f1f5f9"/>
<text x="44" y="94.0" text-anchor="end" font-family="Inter, system-ui, sans-serif" font-size="11" fill="#94a3b8">4592</text>
<polygon points="52.0,272.0 52.0,272.0 54.1,271.9 79.1,271.5 81.2,271.4 83.3,271.3 89.6,271.3 102.1,271.2 129.2,271.2 131.3,270.9 133.4,270.8 139.6,270.7 141.7,270.7 143.8,270.7 145.9,270.5 150.1,270.5 152.2,270.3 158.4,270.1 166.8,270.1 168.8,269.9 170.9,269.9 187.6,269.8 191.8,269.8 202.2,269.7 204.3,269.7 206.4,269.6 214.7,269.6 216.8,269.3 218.9,269.1 221.0,268.6 223.1,268.6 237.7,268.5 244.0,268.5 248.1,268.4 250.2,268.4 252.3,268.2 254.4,268.2 256.5,268.1 258.6,268.0 260.7,267.9 269.0,267.7 273.2,267.6 281.5,267.6 283.6,267.4 285.7,267.4 287.8,267.3 291.9,267.2 294.0,266.5 296.1,265.7 298.2,265.4 300.3,265.2 302.4,265.1 304.5,264.9 306.6,264.6 308.6,264.4 310.7,264.3 312.8,264.2 317.0,264.1 319.1,263.8 321.2,263.5 323.2,263.2 325.3,263.0 329.5,262.9 333.7,262.8 335.8,262.6 337.9,262.4 339.9,261.8 342.0,261.5 344.1,261.2 346.2,260.9 348.3,260.5 350.4,260.1 352.5,259.8 354.5,259.3 356.6,258.9 358.7,258.6 360.8,258.3 362.9,258.0 365.0,257.7 367.1,257.6 369.2,257.4 371.2,257.2 373.3,257.1 375.4,257.0 379.6,257.0 381.7,256.2 383.8,255.6 385.8,255.5 387.9,255.5 392.1,255.4 394.2,255.3 402.5,255.2 406.7,255.2 413.0,255.1 415.1,254.2 417.1,253.3 419.2,253.1 421.3,252.4 423.4,251.8 425.5,251.5 427.6,251.3 429.7,250.9 431.7,250.8 433.8,250.7 435.9,250.5 438.0,250.4 450.5,249.8 452.6,249.0 454.7,248.9 456.8,248.8 458.9,248.7 473.5,248.7 492.3,247.9 494.3,247.2 496.4,246.5 498.5,245.4 500.6,245.2 502.7,244.8 504.8,244.2 506.9,243.7 508.9,242.6 511.0,241.0 513.1,239.5 515.2,237.7 517.3,235.8 519.4,234.1 521.5,233.1 523.6,231.9 525.6,230.0 527.7,228.5 529.8,227.5 531.9,226.4 534.0,224.9 536.1,223.9 538.2,223.0 540.2,222.1 542.3,221.5 544.4,220.7 546.5,220.2 548.6,219.6 550.7,219.1 552.8,217.7 554.8,216.6 556.9,215.9 559.0,215.7 561.1,215.4 563.2,214.8 565.3,214.3 567.4,213.3 569.5,212.7 571.5,212.2 573.6,212.1 575.7,211.8 577.8,211.4 579.9,210.2 582.0,208.4 584.1,206.4 586.1,204.5 588.2,202.9 590.3,201.1 592.4,199.1 594.5,197.1 596.6,195.2 598.7,193.8 600.8,192.8 602.8,191.5 604.9,190.4 607.0,189.6 609.1,188.6 611.2,187.9 613.3,186.9 615.4,185.5 617.4,183.8 619.5,182.4 621.6,181.2 623.7,180.4 625.8,179.7 627.9,179.0 630.0,178.2 632.1,176.8 634.1,175.7 636.2,174.3 638.3,172.9 640.4,171.7 642.5,170.7 644.6,170.3 646.7,169.8 648.7,169.2 650.8,169.1 652.9,169.1 655.0,168.8 657.1,168.7 659.2,168.6 661.3,168.4 663.3,168.4 669.6,168.3 671.7,168.3 673.8,168.0 675.9,166.4 678.0,165.0 680.0,163.8 682.1,162.4 684.2,161.2 686.3,160.0 688.4,158.6 690.5,157.5 692.6,156.1 694.6,155.0 696.7,153.7 698.8,152.5 700.9,151.4 703.0,150.2 705.1,149.1 707.2,148.1 709.3,147.0 711.3,145.8 713.4,144.7 715.5,143.7 717.6,142.6 719.7,141.9 721.8,141.2 723.9,140.5 725.9,139.5 728.0,138.6 730.1,137.7 732.2,136.6 734.3,135.7 736.4,134.9 738.5,133.9 740.5,133.0 742.6,132.1 744.7,131.2 746.8,130.1 748.9,129.4 751.0,128.4 753.1,127.7 755.2,126.9 757.2,126.0 759.3,125.2 761.4,124.4 763.5,123.8 765.6,123.2 767.7,122.8 769.8,122.7 771.8,121.9 773.9,121.1 776.0,120.3 778.1,119.5 780.2,118.8 782.3,118.0 784.4,117.3 786.5,116.5 788.5,115.8 790.6,115.1 792.7,114.5 794.8,113.8 796.9,113.0 799.0,112.4 801.1,111.6 803.1,110.9 805.2,110.3 807.3,109.7 809.4,108.9 811.5,108.3 813.6,107.8 815.7,106.9 817.8,106.1 819.8,105.5 821.9,104.7 824.0,104.0 826.1,103.5 828.2,102.8 830.3,102.0 832.4,101.5 834.4,101.1 836.5,100.5 838.6,99.8 840.7,99.1 842.8,98.2 844.9,97.6 847.0,96.9 849.0,96.3 851.1,95.7 853.2,95.0 855.3,94.4 857.4,93.7 859.5,93.1 861.6,92.3 863.7,91.9 865.7,91.2 867.8,90.6 869.9,90.3 872.0,90.0 872.0,272.0" fill="#e0f2fe" opacity="0.55"/>
<polyline points="52.0,272.0 54.1,271.9 79.1,271.5 81.2,271.4 83.3,271.3 89.6,271.3 102.1,271.2 129.2,271.2 131.3,270.9 133.4,270.8 139.6,270.7 141.7,270.7 143.8,270.7 145.9,270.5 150.1,270.5 152.2,270.3 158.4,270.1 166.8,270.1 168.8,269.9 170.9,269.9 187.6,269.8 191.8,269.8 202.2,269.7 204.3,269.7 206.4,269.6 214.7,269.6 216.8,269.3 218.9,269.1 221.0,268.6 223.1,268.6 237.7,268.5 244.0,268.5 248.1,268.4 250.2,268.4 252.3,268.2 254.4,268.2 256.5,268.1 258.6,268.0 260.7,267.9 269.0,267.7 273.2,267.6 281.5,267.6 283.6,267.4 285.7,267.4 287.8,267.3 291.9,267.2 294.0,266.5 296.1,265.7 298.2,265.4 300.3,265.2 302.4,265.1 304.5,264.9 306.6,264.6 308.6,264.4 310.7,264.3 312.8,264.2 317.0,264.1 319.1,263.8 321.2,263.5 323.2,263.2 325.3,263.0 329.5,262.9 333.7,262.8 335.8,262.6 337.9,262.4 339.9,261.8 342.0,261.5 344.1,261.2 346.2,260.9 348.3,260.5 350.4,260.1 352.5,259.8 354.5,259.3 356.6,258.9 358.7,258.6 360.8,258.3 362.9,258.0 365.0,257.7 367.1,257.6 369.2,257.4 371.2,257.2 373.3,257.1 375.4,257.0 379.6,257.0 381.7,256.2 383.8,255.6 385.8,255.5 387.9,255.5 392.1,255.4 394.2,255.3 402.5,255.2 406.7,255.2 413.0,255.1 415.1,254.2 417.1,253.3 419.2,253.1 421.3,252.4 423.4,251.8 425.5,251.5 427.6,251.3 429.7,250.9 431.7,250.8 433.8,250.7 435.9,250.5 438.0,250.4 450.5,249.8 452.6,249.0 454.7,248.9 456.8,248.8 458.9,248.7 473.5,248.7 492.3,247.9 494.3,247.2 496.4,246.5 498.5,245.4 500.6,245.2 502.7,244.8 504.8,244.2 506.9,243.7 508.9,242.6 511.0,241.0 513.1,239.5 515.2,237.7 517.3,235.8 519.4,234.1 521.5,233.1 523.6,231.9 525.6,230.0 527.7,228.5 529.8,227.5 531.9,226.4 534.0,224.9 536.1,223.9 538.2,223.0 540.2,222.1 542.3,221.5 544.4,220.7 546.5,220.2 548.6,219.6 550.7,219.1 552.8,217.7 554.8,216.6 556.9,215.9 559.0,215.7 561.1,215.4 563.2,214.8 565.3,214.3 567.4,213.3 569.5,212.7 571.5,212.2 573.6,212.1 575.7,211.8 577.8,211.4 579.9,210.2 582.0,208.4 584.1,206.4 586.1,204.5 588.2,202.9 590.3,201.1 592.4,199.1 594.5,197.1 596.6,195.2 598.7,193.8 600.8,192.8 602.8,191.5 604.9,190.4 607.0,189.6 609.1,188.6 611.2,187.9 613.3,186.9 615.4,185.5 617.4,183.8 619.5,182.4 621.6,181.2 623.7,180.4 625.8,179.7 627.9,179.0 630.0,178.2 632.1,176.8 634.1,175.7 636.2,174.3 638.3,172.9 640.4,171.7 642.5,170.7 644.6,170.3 646.7,169.8 648.7,169.2 650.8,169.1 652.9,169.1 655.0,168.8 657.1,168.7 659.2,168.6 661.3,168.4 663.3,168.4 669.6,168.3 671.7,168.3 673.8,168.0 675.9,166.4 678.0,165.0 680.0,163.8 682.1,162.4 684.2,161.2 686.3,160.0 688.4,158.6 690.5,157.5 692.6,156.1 694.6,155.0 696.7,153.7 698.8,152.5 700.9,151.4 703.0,150.2 705.1,149.1 707.2,148.1 709.3,147.0 711.3,145.8 713.4,144.7 715.5,143.7 717.6,142.6 719.7,141.9 721.8,141.2 723.9,140.5 725.9,139.5 728.0,138.6 730.1,137.7 732.2,136.6 734.3,135.7 736.4,134.9 738.5,133.9 740.5,133.0 742.6,132.1 744.7,131.2 746.8,130.1 748.9,129.4 751.0,128.4 753.1,127.7 755.2,126.9 757.2,126.0 759.3,125.2 761.4,124.4 763.5,123.8 765.6,123.2 767.7,122.8 769.8,122.7 771.8,121.9 773.9,121.1 776.0,120.3 778.1,119.5 780.2,118.8 782.3,118.0 784.4,117.3 786.5,116.5 788.5,115.8 790.6,115.1 792.7,114.5 794.8,113.8 796.9,113.0 799.0,112.4 801.1,111.6 803.1,110.9 805.2,110.3 807.3,109.7 809.4,108.9 811.5,108.3 813.6,107.8 815.7,106.9 817.8,106.1 819.8,105.5 821.9,104.7 824.0,104.0 826.1,103.5 828.2,102.8 830.3,102.0 832.4,101.5 834.4,101.1 836.5,100.5 838.6,99.8 840.7,99.1 842.8,98.2 844.9,97.6 847.0,96.9 849.0,96.3 851.1,95.7 853.2,95.0 855.3,94.4 857.4,93.7 859.5,93.1 861.6,92.3 863.7,91.9 865.7,91.2 867.8,90.6 869.9,90.3 872.0,90.0" fill="none" stroke="#38bdf8" stroke-width="2.5" stroke-linejoin="round" stroke-linecap="round"/>
<circle cx="872.0" cy="90.0" r="4" fill="#0ea5e9"/>
<text x="866.0" y="80.0" text-anchor="end" font-family="Inter, system-ui, sans-serif" font-size="13" font-weight="700" fill="#334155">4592</text>
<text x="52.0" y="294" text-anchor="middle" font-family="Inter, system-ui, sans-serif" font-size="11" fill="#94a3b8">Jun 10 05:00</text>
<text x="565.3" y="294" text-anchor="middle" font-family="Inter, system-ui, sans-serif" font-size="11" fill="#94a3b8">Jun 20 11:00</text>
<text x="872.0" y="294" text-anchor="middle" font-family="Inter, system-ui, sans-serif" font-size="11" fill="#94a3b8">Jun 26 14:00</text>
</svg>
