<svg xmlns="http://www.w3.org/2000/svg" width="900" height="320" viewBox="0 0 900 320" role="img" aria-labelledby="title desc">
<title id="title">unsorry proofs over time</title>
<desc id="desc">Cumulative kernel-verified proofs over time, by the hour each proof was merged.</desc>
<rect width="900" height="100%" rx="18" fill="#ffffff"/>
<rect x="0.5" y="0.5" width="899" height="319" rx="18" fill="none" stroke="#e2e8f0"/>
<text x="32" y="44" font-family="Inter, system-ui, sans-serif" font-size="28" font-weight="700" fill="#334155">unsorry — Proofs Over Time</text>
<text x="32" y="72" font-family="Inter, system-ui, sans-serif" font-size="13" fill="#64748b">4536 cumulative kernel-verified proofs · merged, hourly</text>
<line x1="52" y1="272.0" x2="872" y2="272.0" stroke="#f1f5f9"/>
<text x="44" y="276.0" text-anchor="end" font-family="Inter, system-ui, sans-serif" font-size="11" fill="#94a3b8">0</text>
<line x1="52" y1="226.5" x2="872" y2="226.5" stroke="#f1f5f9"/>
<text x="44" y="230.5" text-anchor="end" font-family="Inter, system-ui, sans-serif" font-size="11" fill="#94a3b8">1134</text>
<line x1="52" y1="181.0" x2="872" y2="181.0" stroke="#f1f5f9"/>
<text x="44" y="185.0" text-anchor="end" font-family="Inter, system-ui, sans-serif" font-size="11" fill="#94a3b8">2268</text>
<line x1="52" y1="135.5" x2="872" y2="135.5" stroke="#f1f5f9"/>
<text x="44" y="139.5" text-anchor="end" font-family="Inter, system-ui, sans-serif" font-size="11" fill="#94a3b8">3402</text>
<line x1="52" y1="90.0" x2="872" y2="90.0" stroke="#f1f5f9"/>
<text x="44" y="94.0" text-anchor="end" font-family="Inter, system-ui, sans-serif" font-size="11" fill="#94a3b8">4536</text>
<polygon points="52.0,272.0 52.0,272.0 54.1,271.9 79.4,271.5 81.5,271.4 83.6,271.3 89.9,271.3 102.6,271.2 130.0,271.2 132.1,270.8 134.2,270.8 140.5,270.7 142.6,270.7 144.8,270.6 146.9,270.5 151.1,270.5 153.2,270.3 159.5,270.1 167.9,270.0 170.0,269.9 172.2,269.8 189.0,269.8 193.2,269.8 203.8,269.7 205.9,269.7 208.0,269.6 216.4,269.6 218.5,269.3 220.6,269.1 222.7,268.6 224.9,268.5 239.6,268.5 245.9,268.4 250.1,268.4 252.3,268.3 254.4,268.1 256.5,268.1 258.6,268.1 260.7,267.9 262.8,267.8 271.2,267.6 275.4,267.6 283.9,267.5 286.0,267.3 288.1,267.3 290.2,267.2 294.4,267.2 296.5,266.4 298.6,265.6 300.7,265.3 302.8,265.1 305.0,265.0 307.1,264.8 309.2,264.5 311.3,264.3 313.4,264.2 315.5,264.1 319.7,264.0 321.8,263.7 323.9,263.4 326.0,263.1 328.1,262.9 332.4,262.8 336.6,262.7 338.7,262.5 340.8,262.2 342.9,261.7 345.0,261.4 347.1,261.0 349.2,260.7 351.3,260.4 353.4,260.0 355.5,259.6 357.7,259.2 359.8,258.8 361.9,258.4 364.0,258.2 366.1,257.9 368.2,257.6 370.3,257.4 372.4,257.2 374.5,257.0 376.6,256.9 378.7,256.8 383.0,256.8 385.1,256.0 387.2,255.4 389.3,255.3 391.4,255.3 395.6,255.2 397.7,255.1 406.1,255.0 410.4,254.9 416.7,254.9 418.8,254.0 420.9,253.1 423.0,252.9 425.1,252.1 427.2,251.6 429.3,251.2 431.4,251.0 433.5,250.7 435.7,250.5 437.8,250.4 439.9,250.3 442.0,250.2 454.6,249.5 456.7,248.7 458.8,248.6 460.9,248.5 463.1,248.4 477.8,248.4 496.8,247.6 498.9,246.9 501.0,246.2 503.1,245.0 505.2,244.8 507.3,244.5 509.4,243.8 511.5,243.4 513.6,242.3 515.8,240.7 517.9,239.1 520.0,237.3 522.1,235.3 524.2,233.6 526.3,232.6 528.4,231.4 530.5,229.5 532.6,227.9 534.7,226.9 536.8,225.8 538.9,224.3 541.0,223.3 543.2,222.4 545.3,221.5 547.4,220.9 549.5,220.0 551.6,219.5 553.7,219.0 555.8,218.5 557.9,217.0 560.0,215.9 562.1,215.2 564.2,215.0 566.3,214.7 568.5,214.1 570.6,213.5 572.7,212.6 574.8,212.0 576.9,211.4 579.0,211.3 581.1,211.1 583.2,210.7 585.3,209.5 587.4,207.6 589.5,205.6 591.6,203.7 593.7,202.1 595.9,200.2 598.0,198.2 600.1,196.1 602.2,194.2 604.3,192.9 606.4,191.8 608.5,190.5 610.6,189.3 612.7,188.5 614.8,187.6 616.9,186.9 619.0,185.8 621.2,184.4 623.3,182.7 625.4,181.3 627.5,180.1 629.6,179.3 631.7,178.6 633.8,177.8 635.9,177.0 638.0,175.7 640.1,174.5 642.2,173.1 644.3,171.7 646.4,170.4 648.6,169.5 650.7,169.1 652.8,168.5 654.9,168.0 657.0,167.9 659.1,167.8 661.2,167.5 663.3,167.4 665.4,167.4 667.5,167.2 669.6,167.1 676.0,167.0 678.1,167.0 680.2,166.8 682.3,165.1 684.4,163.7 686.5,162.5 688.6,161.1 690.7,159.8 692.8,158.6 694.9,157.2 697.0,156.0 699.1,154.7 701.3,153.5 703.4,152.3 705.5,151.1 707.6,149.9 709.7,148.7 711.8,147.5 713.9,146.5 716.0,145.4 718.1,144.3 720.2,143.2 722.3,142.1 724.4,141.0 726.6,140.3 728.7,139.6 730.8,138.9 732.9,137.8 735.0,136.9 737.1,136.0 739.2,134.9 741.3,134.0 743.4,133.2 745.5,132.2 747.6,131.2 749.7,130.3 751.8,129.4 754.0,128.4 756.1,127.6 758.2,126.6 760.3,125.9 762.4,125.1 764.5,124.2 766.6,123.3 768.7,122.6 770.8,121.9 772.9,121.3 775.0,121.0 777.1,120.9 779.2,120.0 781.4,119.2 783.5,118.4 785.6,117.6 787.7,116.9 789.8,116.1 791.9,115.4 794.0,114.6 796.1,113.9 798.2,113.2 800.3,112.5 802.4,111.8 804.5,111.0 806.7,110.4 808.8,109.7 810.9,108.9 813.0,108.3 815.1,107.7 817.2,106.9 819.3,106.3 821.4,105.7 823.5,104.9 825.6,104.1 827.7,103.4 829.8,102.7 831.9,102.0 834.1,101.4 836.2,100.8 838.3,100.0 840.4,99.4 842.5,99.0 844.6,98.3 846.7,97.7 848.8,96.9 850.9,96.1 853.0,95.4 855.1,94.7 857.2,94.1 859.4,93.5 861.5,92.8 863.6,92.2 865.7,91.5 867.8,90.9 869.9,90.1 872.0,90.0 872.0,272.0" fill="#e0f2fe" opacity="0.55"/>
<polyline points="52.0,272.0 54.1,271.9 79.4,271.5 81.5,271.4 83.6,271.3 89.9,271.3 102.6,271.2 130.0,271.2 132.1,270.8 134.2,270.8 140.5,270.7 142.6,270.7 144.8,270.6 146.9,270.5 151.1,270.5 153.2,270.3 159.5,270.1 167.9,270.0 170.0,269.9 172.2,269.8 189.0,269.8 193.2,269.8 203.8,269.7 205.9,269.7 208.0,269.6 216.4,269.6 218.5,269.3 220.6,269.1 222.7,268.6 224.9,268.5 239.6,268.5 245.9,268.4 250.1,268.4 252.3,268.3 254.4,268.1 256.5,268.1 258.6,268.1 260.7,267.9 262.8,267.8 271.2,267.6 275.4,267.6 283.9,267.5 286.0,267.3 288.1,267.3 290.2,267.2 294.4,267.2 296.5,266.4 298.6,265.6 300.7,265.3 302.8,265.1 305.0,265.0 307.1,264.8 309.2,264.5 311.3,264.3 313.4,264.2 315.5,264.1 319.7,264.0 321.8,263.7 323.9,263.4 326.0,263.1 328.1,262.9 332.4,262.8 336.6,262.7 338.7,262.5 340.8,262.2 342.9,261.7 345.0,261.4 347.1,261.0 349.2,260.7 351.3,260.4 353.4,260.0 355.5,259.6 357.7,259.2 359.8,258.8 361.9,258.4 364.0,258.2 366.1,257.9 368.2,257.6 370.3,257.4 372.4,257.2 374.5,257.0 376.6,256.9 378.7,256.8 383.0,256.8 385.1,256.0 387.2,255.4 389.3,255.3 391.4,255.3 395.6,255.2 397.7,255.1 406.1,255.0 410.4,254.9 416.7,254.9 418.8,254.0 420.9,253.1 423.0,252.9 425.1,252.1 427.2,251.6 429.3,251.2 431.4,251.0 433.5,250.7 435.7,250.5 437.8,250.4 439.9,250.3 442.0,250.2 454.6,249.5 456.7,248.7 458.8,248.6 460.9,248.5 463.1,248.4 477.8,248.4 496.8,247.6 498.9,246.9 501.0,246.2 503.1,245.0 505.2,244.8 507.3,244.5 509.4,243.8 511.5,243.4 513.6,242.3 515.8,240.7 517.9,239.1 520.0,237.3 522.1,235.3 524.2,233.6 526.3,232.6 528.4,231.4 530.5,229.5 532.6,227.9 534.7,226.9 536.8,225.8 538.9,224.3 541.0,223.3 543.2,222.4 545.3,221.5 547.4,220.9 549.5,220.0 551.6,219.5 553.7,219.0 555.8,218.5 557.9,217.0 560.0,215.9 562.1,215.2 564.2,215.0 566.3,214.7 568.5,214.1 570.6,213.5 572.7,212.6 574.8,212.0 576.9,211.4 579.0,211.3 581.1,211.1 583.2,210.7 585.3,209.5 587.4,207.6 589.5,205.6 591.6,203.7 593.7,202.1 595.9,200.2 598.0,198.2 600.1,196.1 602.2,194.2 604.3,192.9 606.4,191.8 608.5,190.5 610.6,189.3 612.7,188.5 614.8,187.6 616.9,186.9 619.0,185.8 621.2,184.4 623.3,182.7 625.4,181.3 627.5,180.1 629.6,179.3 631.7,178.6 633.8,177.8 635.9,177.0 638.0,175.7 640.1,174.5 642.2,173.1 644.3,171.7 646.4,170.4 648.6,169.5 650.7,169.1 652.8,168.5 654.9,168.0 657.0,167.9 659.1,167.8 661.2,167.5 663.3,167.4 665.4,167.4 667.5,167.2 669.6,167.1 676.0,167.0 678.1,167.0 680.2,166.8 682.3,165.1 684.4,163.7 686.5,162.5 688.6,161.1 690.7,159.8 692.8,158.6 694.9,157.2 697.0,156.0 699.1,154.7 701.3,153.5 703.4,152.3 705.5,151.1 707.6,149.9 709.7,148.7 711.8,147.5 713.9,146.5 716.0,145.4 718.1,144.3 720.2,143.2 722.3,142.1 724.4,141.0 726.6,140.3 728.7,139.6 730.8,138.9 732.9,137.8 735.0,136.9 737.1,136.0 739.2,134.9 741.3,134.0 743.4,133.2 745.5,132.2 747.6,131.2 749.7,130.3 751.8,129.4 754.0,128.4 756.1,127.6 758.2,126.6 760.3,125.9 762.4,125.1 764.5,124.2 766.6,123.3 768.7,122.6 770.8,121.9 772.9,121.3 775.0,121.0 777.1,120.9 779.2,120.0 781.4,119.2 783.5,118.4 785.6,117.6 787.7,116.9 789.8,116.1 791.9,115.4 794.0,114.6 796.1,113.9 798.2,113.2 800.3,112.5 802.4,111.8 804.5,111.0 806.7,110.4 808.8,109.7 810.9,108.9 813.0,108.3 815.1,107.7 817.2,106.9 819.3,106.3 821.4,105.7 823.5,104.9 825.6,104.1 827.7,103.4 829.8,102.7 831.9,102.0 834.1,101.4 836.2,100.8 838.3,100.0 840.4,99.4 842.5,99.0 844.6,98.3 846.7,97.7 848.8,96.9 850.9,96.1 853.0,95.4 855.1,94.7 857.2,94.1 859.4,93.5 861.5,92.8 863.6,92.2 865.7,91.5 867.8,90.9 869.9,90.1 872.0,90.0" fill="none" stroke="#38bdf8" stroke-width="2.5" stroke-linejoin="round" stroke-linecap="round"/>
<circle cx="872.0" cy="90.0" r="4" fill="#0ea5e9"/>
<text x="866.0" y="80.0" text-anchor="end" font-family="Inter, system-ui, sans-serif" font-size="13" font-weight="700" fill="#334155">4536</text>
<text x="52.0" y="294" text-anchor="middle" font-family="Inter, system-ui, sans-serif" font-size="11" fill="#94a3b8">Jun 10 05:00</text>
<text x="566.3" y="294" text-anchor="middle" font-family="Inter, system-ui, sans-serif" font-size="11" fill="#94a3b8">Jun 20 09:00</text>
<text x="872.0" y="294" text-anchor="middle" font-family="Inter, system-ui, sans-serif" font-size="11" fill="#94a3b8">Jun 26 10:00</text>
</svg>
