<svg xmlns="http://www.w3.org/2000/svg" width="900" height="320" viewBox="0 0 900 320" role="img" aria-labelledby="title desc">
<title id="title">unsorry proofs over time</title>
<desc id="desc">Cumulative kernel-verified proofs over time, by the hour each proof was merged.</desc>
<rect width="900" height="100%" rx="18" fill="#ffffff"/>
<rect x="0.5" y="0.5" width="899" height="319" rx="18" fill="none" stroke="#e2e8f0"/>
<text x="32" y="44" font-family="Inter, system-ui, sans-serif" font-size="28" font-weight="700" fill="#334155">unsorry — Proofs Over Time</text>
<text x="32" y="72" font-family="Inter, system-ui, sans-serif" font-size="13" fill="#64748b">3028 cumulative kernel-verified proofs · merged, hourly</text>
<line x1="52" y1="272.0" x2="872" y2="272.0" stroke="#f1f5f9"/>
<text x="44" y="276.0" text-anchor="end" font-family="Inter, system-ui, sans-serif" font-size="11" fill="#94a3b8">0</text>
<line x1="52" y1="226.5" x2="872" y2="226.5" stroke="#f1f5f9"/>
<text x="44" y="230.5" text-anchor="end" font-family="Inter, system-ui, sans-serif" font-size="11" fill="#94a3b8">757</text>
<line x1="52" y1="181.0" x2="872" y2="181.0" stroke="#f1f5f9"/>
<text x="44" y="185.0" text-anchor="end" font-family="Inter, system-ui, sans-serif" font-size="11" fill="#94a3b8">1514</text>
<line x1="52" y1="135.5" x2="872" y2="135.5" stroke="#f1f5f9"/>
<text x="44" y="139.5" text-anchor="end" font-family="Inter, system-ui, sans-serif" font-size="11" fill="#94a3b8">2271</text>
<line x1="52" y1="90.0" x2="872" y2="90.0" stroke="#f1f5f9"/>
<text x="44" y="94.0" text-anchor="end" font-family="Inter, system-ui, sans-serif" font-size="11" fill="#94a3b8">3028</text>
<polygon points="52.0,272.0 52.0,271.9 54.6,271.8 86.3,271.2 88.9,271.0 91.5,271.0 99.5,270.9 115.3,270.9 149.6,270.8 152.2,270.3 154.8,270.2 162.7,270.1 165.4,270.0 168.0,270.0 170.6,269.8 175.9,269.7 178.6,269.4 186.5,269.2 197.0,269.1 199.7,268.9 202.3,268.8 223.4,268.7 228.7,268.6 241.8,268.6 244.5,268.5 247.1,268.4 257.7,268.3 260.3,268.0 262.9,267.7 265.6,266.9 268.2,266.8 286.7,266.7 294.6,266.7 299.8,266.6 302.5,266.5 305.1,266.2 307.8,266.2 310.4,266.1 313.0,265.9 315.7,265.7 326.2,265.4 331.5,265.4 342.0,265.3 344.7,265.0 347.3,265.0 349.9,264.8 355.2,264.8 357.9,263.6 360.5,262.4 363.1,262.0 365.8,261.7 368.4,261.5 371.0,261.2 373.7,260.8 376.3,260.5 378.9,260.3 381.6,260.2 386.9,260.0 389.5,259.6 392.1,259.1 394.8,258.6 397.4,258.3 402.7,258.2 407.9,258.1 410.6,257.7 413.2,257.4 415.9,256.6 418.5,256.1 421.1,255.6 423.8,255.1 426.4,254.6 429.0,254.0 431.7,253.4 434.3,252.8 437.0,252.2 439.6,251.6 442.2,251.3 444.9,250.8 447.5,250.4 450.1,250.1 452.8,249.8 455.4,249.5 458.0,249.4 460.7,249.3 466.0,249.2 468.6,248.0 471.2,247.2 473.9,247.0 476.5,246.9 481.8,246.8 484.4,246.6 495.0,246.6 500.2,246.5 508.1,246.4 510.8,245.0 513.4,243.7 516.1,243.3 518.7,242.2 521.3,241.4 524.0,240.9 526.6,240.6 529.2,240.0 531.9,239.8 534.5,239.7 537.1,239.4 539.8,239.3 555.6,238.3 558.2,237.1 560.9,237.0 563.5,236.8 566.1,236.7 584.6,236.7 608.3,235.4 611.0,234.4 613.6,233.3 616.2,231.6 618.9,231.3 621.5,230.8 624.2,229.8 626.8,229.1 629.4,227.5 632.1,225.1 634.7,222.7 637.3,219.9 640.0,217.1 642.6,214.5 645.2,213.0 647.9,211.1 650.5,208.3 653.2,206.0 655.8,204.4 658.4,202.8 661.1,200.5 663.7,199.1 666.3,197.6 669.0,196.4 671.6,195.4 674.3,194.2 676.9,193.4 679.5,192.5 682.2,191.8 684.8,189.7 687.4,187.9 690.1,187.0 692.7,186.6 695.3,186.1 698.0,185.2 700.6,184.4 703.3,183.0 705.9,182.1 708.5,181.2 711.2,181.1 713.8,180.8 716.4,180.1 719.1,178.4 721.7,175.5 724.3,172.6 727.0,169.6 729.6,167.2 732.3,164.4 734.9,161.4 737.5,158.3 740.2,155.5 742.8,153.5 745.4,151.8 748.1,150.0 750.7,148.2 753.4,147.0 756.0,145.5 758.6,144.5 761.3,142.9 763.9,140.8 766.5,138.3 769.2,136.2 771.8,134.3 774.4,133.1 777.1,132.0 779.7,130.9 782.4,129.7 785.0,127.7 787.6,125.9 790.3,123.8 792.9,121.7 795.5,119.9 798.2,118.4 800.8,117.8 803.4,117.0 806.1,116.1 808.7,116.0 811.4,115.9 814.0,115.5 816.6,115.3 819.3,115.2 821.9,114.9 824.5,114.8 832.5,114.8 835.1,114.7 837.7,114.3 840.4,111.9 843.0,109.8 845.6,107.9 848.3,105.8 850.9,103.9 853.5,102.1 856.2,100.1 858.8,98.3 861.5,96.3 864.1,94.5 866.7,92.6 869.4,90.8 872.0,90.0 872.0,272.0" fill="#e0f2fe" opacity="0.55"/>
<polyline points="52.0,271.9 54.6,271.8 86.3,271.2 88.9,271.0 91.5,271.0 99.5,270.9 115.3,270.9 149.6,270.8 152.2,270.3 154.8,270.2 162.7,270.1 165.4,270.0 168.0,270.0 170.6,269.8 175.9,269.7 178.6,269.4 186.5,269.2 197.0,269.1 199.7,268.9 202.3,268.8 223.4,268.7 228.7,268.6 241.8,268.6 244.5,268.5 247.1,268.4 257.7,268.3 260.3,268.0 262.9,267.7 265.6,266.9 268.2,266.8 286.7,266.7 294.6,266.7 299.8,266.6 302.5,266.5 305.1,266.2 307.8,266.2 310.4,266.1 313.0,265.9 315.7,265.7 326.2,265.4 331.5,265.4 342.0,265.3 344.7,265.0 347.3,265.0 349.9,264.8 355.2,264.8 357.9,263.6 360.5,262.4 363.1,262.0 365.8,261.7 368.4,261.5 371.0,261.2 373.7,260.8 376.3,260.5 378.9,260.3 381.6,260.2 386.9,260.0 389.5,259.6 392.1,259.1 394.8,258.6 397.4,258.3 402.7,258.2 407.9,258.1 410.6,257.7 413.2,257.4 415.9,256.6 418.5,256.1 421.1,255.6 423.8,255.1 426.4,254.6 429.0,254.0 431.7,253.4 434.3,252.8 437.0,252.2 439.6,251.6 442.2,251.3 444.9,250.8 447.5,250.4 450.1,250.1 452.8,249.8 455.4,249.5 458.0,249.4 460.7,249.3 466.0,249.2 468.6,248.0 471.2,247.2 473.9,247.0 476.5,246.9 481.8,246.8 484.4,246.6 495.0,246.6 500.2,246.5 508.1,246.4 510.8,245.0 513.4,243.7 516.1,243.3 518.7,242.2 521.3,241.4 524.0,240.9 526.6,240.6 529.2,240.0 531.9,239.8 534.5,239.7 537.1,239.4 539.8,239.3 555.6,238.3 558.2,237.1 560.9,237.0 563.5,236.8 566.1,236.7 584.6,236.7 608.3,235.4 611.0,234.4 613.6,233.3 616.2,231.6 618.9,231.3 621.5,230.8 624.2,229.8 626.8,229.1 629.4,227.5 632.1,225.1 634.7,222.7 637.3,219.9 640.0,217.1 642.6,214.5 645.2,213.0 647.9,211.1 650.5,208.3 653.2,206.0 655.8,204.4 658.4,202.8 661.1,200.5 663.7,199.1 666.3,197.6 669.0,196.4 671.6,195.4 674.3,194.2 676.9,193.4 679.5,192.5 682.2,191.8 684.8,189.7 687.4,187.9 690.1,187.0 692.7,186.6 695.3,186.1 698.0,185.2 700.6,184.4 703.3,183.0 705.9,182.1 708.5,181.2 711.2,181.1 713.8,180.8 716.4,180.1 719.1,178.4 721.7,175.5 724.3,172.6 727.0,169.6 729.6,167.2 732.3,164.4 734.9,161.4 737.5,158.3 740.2,155.5 742.8,153.5 745.4,151.8 748.1,150.0 750.7,148.2 753.4,147.0 756.0,145.5 758.6,144.5 761.3,142.9 763.9,140.8 766.5,138.3 769.2,136.2 771.8,134.3 774.4,133.1 777.1,132.0 779.7,130.9 782.4,129.7 785.0,127.7 787.6,125.9 790.3,123.8 792.9,121.7 795.5,119.9 798.2,118.4 800.8,117.8 803.4,117.0 806.1,116.1 808.7,116.0 811.4,115.9 814.0,115.5 816.6,115.3 819.3,115.2 821.9,114.9 824.5,114.8 832.5,114.8 835.1,114.7 837.7,114.3 840.4,111.9 843.0,109.8 845.6,107.9 848.3,105.8 850.9,103.9 853.5,102.1 856.2,100.1 858.8,98.3 861.5,96.3 864.1,94.5 866.7,92.6 869.4,90.8 872.0,90.0" fill="none" stroke="#38bdf8" stroke-width="2.5" stroke-linejoin="round" stroke-linecap="round"/>
<circle cx="872.0" cy="90.0" r="4" fill="#0ea5e9"/>
<text x="866.0" y="80.0" text-anchor="end" font-family="Inter, system-ui, sans-serif" font-size="13" font-weight="700" fill="#334155">3028</text>
<text x="52.0" y="294" text-anchor="middle" font-family="Inter, system-ui, sans-serif" font-size="11" fill="#94a3b8">Jun 10 05:00</text>
<text x="555.6" y="294" text-anchor="middle" font-family="Inter, system-ui, sans-serif" font-size="11" fill="#94a3b8">Jun 18 04:00</text>
<text x="872.0" y="294" text-anchor="middle" font-family="Inter, system-ui, sans-serif" font-size="11" fill="#94a3b8">Jun 23 04:00</text>
</svg>
