<svg xmlns="http://www.w3.org/2000/svg" width="900" height="320" viewBox="0 0 900 320" role="img" aria-labelledby="title desc">
<title id="title">unsorry proofs over time</title>
<desc id="desc">Cumulative kernel-verified proofs over time, by the hour each proof was merged.</desc>
<rect width="900" height="100%" rx="18" fill="#ffffff"/>
<rect x="0.5" y="0.5" width="899" height="319" rx="18" fill="none" stroke="#e2e8f0"/>
<text x="32" y="44" font-family="Inter, system-ui, sans-serif" font-size="28" font-weight="700" fill="#334155">unsorry — Proofs Over Time</text>
<text x="32" y="72" font-family="Inter, system-ui, sans-serif" font-size="13" fill="#64748b">2855 cumulative kernel-verified proofs · merged, hourly</text>
<line x1="52" y1="272.0" x2="872" y2="272.0" stroke="#f1f5f9"/>
<text x="44" y="276.0" text-anchor="end" font-family="Inter, system-ui, sans-serif" font-size="11" fill="#94a3b8">0</text>
<line x1="52" y1="226.5" x2="872" y2="226.5" stroke="#f1f5f9"/>
<text x="44" y="230.5" text-anchor="end" font-family="Inter, system-ui, sans-serif" font-size="11" fill="#94a3b8">714</text>
<line x1="52" y1="181.0" x2="872" y2="181.0" stroke="#f1f5f9"/>
<text x="44" y="185.0" text-anchor="end" font-family="Inter, system-ui, sans-serif" font-size="11" fill="#94a3b8">1428</text>
<line x1="52" y1="135.5" x2="872" y2="135.5" stroke="#f1f5f9"/>
<text x="44" y="139.5" text-anchor="end" font-family="Inter, system-ui, sans-serif" font-size="11" fill="#94a3b8">2141</text>
<line x1="52" y1="90.0" x2="872" y2="90.0" stroke="#f1f5f9"/>
<text x="44" y="94.0" text-anchor="end" font-family="Inter, system-ui, sans-serif" font-size="11" fill="#94a3b8">2855</text>
<polygon points="52.0,272.0 52.0,271.9 54.7,271.8 87.0,271.2 89.6,271.0 92.3,270.9 100.4,270.9 116.5,270.8 151.5,270.7 154.2,270.2 156.9,270.1 164.9,270.0 167.6,269.9 170.3,269.8 173.0,269.6 178.4,269.6 181.0,269.3 189.1,269.0 199.9,268.9 202.6,268.7 205.2,268.6 226.8,268.5 232.1,268.4 245.6,268.4 248.3,268.3 251.0,268.2 261.7,268.1 264.4,267.7 267.1,267.4 269.8,266.6 272.5,266.5 291.3,266.4 299.3,266.3 304.7,266.3 307.4,266.2 310.1,265.9 312.8,265.8 315.5,265.8 318.2,265.6 320.9,265.4 331.6,265.1 337.0,265.0 347.7,264.9 350.4,264.6 353.1,264.5 355.8,264.4 361.2,264.4 363.9,263.1 366.6,261.8 369.2,261.4 371.9,261.0 374.6,260.9 377.3,260.6 380.0,260.1 382.7,259.8 385.4,259.6 388.1,259.5 393.4,259.3 396.1,258.8 398.8,258.3 401.5,257.8 404.2,257.5 409.6,257.3 415.0,257.3 417.6,256.8 420.3,256.5 423.0,255.6 425.7,255.1 428.4,254.6 431.1,254.1 433.8,253.5 436.5,252.9 439.1,252.3 441.8,251.6 444.5,251.0 447.2,250.4 449.9,250.0 452.6,249.6 455.3,249.1 458.0,248.8 460.7,248.5 463.3,248.2 466.0,248.0 468.7,247.9 474.1,247.8 476.8,246.6 479.5,245.7 482.2,245.5 484.9,245.4 490.2,245.3 492.9,245.1 503.7,245.0 509.0,244.9 517.1,244.8 519.8,243.4 522.5,242.0 525.2,241.6 527.9,240.4 530.6,239.6 533.2,239.0 535.9,238.7 538.6,238.1 541.3,237.8 544.0,237.7 546.7,237.4 549.4,237.3 565.5,236.3 568.2,235.0 570.9,234.8 573.6,234.6 576.3,234.6 595.1,234.5 619.3,233.2 622.0,232.2 624.7,230.9 627.3,229.2 630.0,228.8 632.7,228.3 635.4,227.2 638.1,226.5 640.8,224.8 643.5,222.2 646.2,219.7 648.9,216.8 651.5,213.7 654.2,211.1 656.9,209.4 659.6,207.4 662.3,204.5 665.0,202.0 667.7,200.3 670.4,198.6 673.0,196.2 675.7,194.7 678.4,193.1 681.1,191.8 683.8,190.8 686.5,189.4 689.2,188.6 691.9,187.7 694.6,187.0 697.2,184.7 699.9,182.8 702.6,181.8 705.3,181.5 708.0,180.9 710.7,179.9 713.4,179.1 716.1,177.6 718.8,176.6 721.4,175.7 724.1,175.6 726.8,175.2 729.5,174.5 732.2,172.7 734.9,169.7 737.6,166.6 740.3,163.4 743.0,160.9 745.6,157.9 748.3,154.7 751.0,151.5 753.7,148.5 756.4,146.3 759.1,144.6 761.8,142.6 764.5,140.7 767.1,139.4 769.8,137.9 772.5,136.7 775.2,135.1 777.9,132.8 780.6,130.2 783.3,127.9 786.0,126.0 788.7,124.7 791.3,123.5 794.0,122.4 796.7,121.1 799.4,118.9 802.1,117.1 804.8,114.9 807.5,112.6 810.2,110.7 812.9,109.1 815.5,108.5 818.2,107.6 820.9,106.7 823.6,106.6 826.3,106.4 829.0,106.0 831.7,105.8 834.4,105.7 837.0,105.4 839.7,105.3 847.8,105.2 850.5,105.2 853.2,104.8 855.9,102.2 858.6,99.9 861.2,98.0 863.9,95.7 866.6,93.8 869.3,91.8 872.0,90.0 872.0,272.0" fill="#e0f2fe" opacity="0.55"/>
<polyline points="52.0,271.9 54.7,271.8 87.0,271.2 89.6,271.0 92.3,270.9 100.4,270.9 116.5,270.8 151.5,270.7 154.2,270.2 156.9,270.1 164.9,270.0 167.6,269.9 170.3,269.8 173.0,269.6 178.4,269.6 181.0,269.3 189.1,269.0 199.9,268.9 202.6,268.7 205.2,268.6 226.8,268.5 232.1,268.4 245.6,268.4 248.3,268.3 251.0,268.2 261.7,268.1 264.4,267.7 267.1,267.4 269.8,266.6 272.5,266.5 291.3,266.4 299.3,266.3 304.7,266.3 307.4,266.2 310.1,265.9 312.8,265.8 315.5,265.8 318.2,265.6 320.9,265.4 331.6,265.1 337.0,265.0 347.7,264.9 350.4,264.6 353.1,264.5 355.8,264.4 361.2,264.4 363.9,263.1 366.6,261.8 369.2,261.4 371.9,261.0 374.6,260.9 377.3,260.6 380.0,260.1 382.7,259.8 385.4,259.6 388.1,259.5 393.4,259.3 396.1,258.8 398.8,258.3 401.5,257.8 404.2,257.5 409.6,257.3 415.0,257.3 417.6,256.8 420.3,256.5 423.0,255.6 425.7,255.1 428.4,254.6 431.1,254.1 433.8,253.5 436.5,252.9 439.1,252.3 441.8,251.6 444.5,251.0 447.2,250.4 449.9,250.0 452.6,249.6 455.3,249.1 458.0,248.8 460.7,248.5 463.3,248.2 466.0,248.0 468.7,247.9 474.1,247.8 476.8,246.6 479.5,245.7 482.2,245.5 484.9,245.4 490.2,245.3 492.9,245.1 503.7,245.0 509.0,244.9 517.1,244.8 519.8,243.4 522.5,242.0 525.2,241.6 527.9,240.4 530.6,239.6 533.2,239.0 535.9,238.7 538.6,238.1 541.3,237.8 544.0,237.7 546.7,237.4 549.4,237.3 565.5,236.3 568.2,235.0 570.9,234.8 573.6,234.6 576.3,234.6 595.1,234.5 619.3,233.2 622.0,232.2 624.7,230.9 627.3,229.2 630.0,228.8 632.7,228.3 635.4,227.2 638.1,226.5 640.8,224.8 643.5,222.2 646.2,219.7 648.9,216.8 651.5,213.7 654.2,211.1 656.9,209.4 659.6,207.4 662.3,204.5 665.0,202.0 667.7,200.3 670.4,198.6 673.0,196.2 675.7,194.7 678.4,193.1 681.1,191.8 683.8,190.8 686.5,189.4 689.2,188.6 691.9,187.7 694.6,187.0 697.2,184.7 699.9,182.8 702.6,181.8 705.3,181.5 708.0,180.9 710.7,179.9 713.4,179.1 716.1,177.6 718.8,176.6 721.4,175.7 724.1,175.6 726.8,175.2 729.5,174.5 732.2,172.7 734.9,169.7 737.6,166.6 740.3,163.4 743.0,160.9 745.6,157.9 748.3,154.7 751.0,151.5 753.7,148.5 756.4,146.3 759.1,144.6 761.8,142.6 764.5,140.7 767.1,139.4 769.8,137.9 772.5,136.7 775.2,135.1 777.9,132.8 780.6,130.2 783.3,127.9 786.0,126.0 788.7,124.7 791.3,123.5 794.0,122.4 796.7,121.1 799.4,118.9 802.1,117.1 804.8,114.9 807.5,112.6 810.2,110.7 812.9,109.1 815.5,108.5 818.2,107.6 820.9,106.7 823.6,106.6 826.3,106.4 829.0,106.0 831.7,105.8 834.4,105.7 837.0,105.4 839.7,105.3 847.8,105.2 850.5,105.2 853.2,104.8 855.9,102.2 858.6,99.9 861.2,98.0 863.9,95.7 866.6,93.8 869.3,91.8 872.0,90.0" fill="none" stroke="#38bdf8" stroke-width="2.5" stroke-linejoin="round" stroke-linecap="round"/>
<circle cx="872.0" cy="90.0" r="4" fill="#0ea5e9"/>
<text x="866.0" y="80.0" text-anchor="end" font-family="Inter, system-ui, sans-serif" font-size="13" font-weight="700" fill="#334155">2855</text>
<text x="52.0" y="294" text-anchor="middle" font-family="Inter, system-ui, sans-serif" font-size="11" fill="#94a3b8">Jun 10 05:00</text>
<text x="544.0" y="294" text-anchor="middle" font-family="Inter, system-ui, sans-serif" font-size="11" fill="#94a3b8">Jun 17 20:00</text>
<text x="872.0" y="294" text-anchor="middle" font-family="Inter, system-ui, sans-serif" font-size="11" fill="#94a3b8">Jun 22 22:00</text>
</svg>
