<svg xmlns="http://www.w3.org/2000/svg" width="900" height="320" viewBox="0 0 900 320" role="img" aria-labelledby="title desc">
<title id="title">unsorry proofs over time</title>
<desc id="desc">Cumulative kernel-verified proofs over time, by the hour each proof was merged.</desc>
<rect width="900" height="100%" rx="18" fill="#ffffff"/>
<rect x="0.5" y="0.5" width="899" height="319" rx="18" fill="none" stroke="#e2e8f0"/>
<text x="32" y="44" font-family="Inter, system-ui, sans-serif" font-size="28" font-weight="700" fill="#334155">unsorry — Proofs Over Time</text>
<text x="32" y="72" font-family="Inter, system-ui, sans-serif" font-size="13" fill="#64748b">2676 cumulative kernel-verified proofs · merged, hourly</text>
<line x1="52" y1="272.0" x2="872" y2="272.0" stroke="#f1f5f9"/>
<text x="44" y="276.0" text-anchor="end" font-family="Inter, system-ui, sans-serif" font-size="11" fill="#94a3b8">0</text>
<line x1="52" y1="226.5" x2="872" y2="226.5" stroke="#f1f5f9"/>
<text x="44" y="230.5" text-anchor="end" font-family="Inter, system-ui, sans-serif" font-size="11" fill="#94a3b8">669</text>
<line x1="52" y1="181.0" x2="872" y2="181.0" stroke="#f1f5f9"/>
<text x="44" y="185.0" text-anchor="end" font-family="Inter, system-ui, sans-serif" font-size="11" fill="#94a3b8">1338</text>
<line x1="52" y1="135.5" x2="872" y2="135.5" stroke="#f1f5f9"/>
<text x="44" y="139.5" text-anchor="end" font-family="Inter, system-ui, sans-serif" font-size="11" fill="#94a3b8">2007</text>
<line x1="52" y1="90.0" x2="872" y2="90.0" stroke="#f1f5f9"/>
<text x="44" y="94.0" text-anchor="end" font-family="Inter, system-ui, sans-serif" font-size="11" fill="#94a3b8">2676</text>
<polygon points="52.0,272.0 52.0,271.9 54.7,271.8 87.5,271.1 90.3,270.9 93.0,270.8 101.2,270.8 117.6,270.7 153.1,270.6 155.9,270.0 158.6,270.0 166.8,269.8 169.5,269.8 172.3,269.7 175.0,269.5 180.5,269.4 183.2,269.1 191.4,268.8 202.3,268.7 205.1,268.5 207.8,268.3 229.7,268.3 235.1,268.2 248.8,268.1 251.5,268.1 254.3,267.9 265.2,267.9 267.9,267.4 270.7,267.1 273.4,266.2 276.1,266.1 295.3,266.0 303.5,265.9 308.9,265.9 311.7,265.8 314.4,265.5 317.1,265.4 319.9,265.3 322.6,265.1 325.3,264.9 336.3,264.6 341.7,264.5 352.7,264.5 355.4,264.1 358.1,264.0 360.9,263.9 366.3,263.8 369.1,262.5 371.8,261.1 374.5,260.6 377.3,260.3 380.0,260.2 382.7,259.8 385.5,259.3 388.2,259.0 390.9,258.8 393.7,258.7 399.1,258.5 401.9,257.9 404.6,257.4 407.3,256.8 410.1,256.5 415.5,256.4 421.0,256.3 423.7,255.8 426.5,255.5 429.2,254.5 431.9,254.0 434.7,253.4 437.4,252.9 440.1,252.3 442.9,251.7 445.6,251.0 448.3,250.2 451.1,249.6 453.8,248.9 456.5,248.5 459.3,248.1 462.0,247.5 464.7,247.2 467.5,246.9 470.2,246.6 472.9,246.4 475.7,246.3 481.1,246.2 483.9,244.9 486.6,243.9 489.3,243.7 492.1,243.6 497.5,243.5 500.3,243.3 511.2,243.2 516.7,243.1 524.9,243.0 527.6,241.5 530.3,240.0 533.1,239.6 535.8,238.3 538.5,237.4 541.3,236.8 544.0,236.4 546.7,235.8 549.5,235.5 552.2,235.4 554.9,235.1 557.7,235.0 574.1,233.9 576.8,232.6 579.5,232.3 582.3,232.1 585.0,232.1 604.1,232.0 628.7,230.6 631.5,229.5 634.2,228.2 636.9,226.3 639.7,226.0 642.4,225.3 645.1,224.3 647.9,223.4 650.6,221.6 653.3,218.9 656.1,216.2 658.8,213.1 661.5,209.8 664.3,207.0 667.0,205.2 669.7,203.1 672.5,200.0 675.2,197.3 677.9,195.6 680.7,193.7 683.4,191.1 686.1,189.5 688.9,187.9 691.6,186.4 694.3,185.4 697.1,183.9 699.8,183.0 702.5,182.1 705.3,181.3 708.0,178.8 710.7,176.9 713.5,175.8 716.2,175.4 718.9,174.8 721.7,173.8 724.4,172.9 727.1,171.3 729.9,170.3 732.6,169.3 735.3,169.2 738.1,168.8 740.8,168.0 743.5,166.0 746.3,162.8 749.0,159.5 751.7,156.2 754.5,153.5 757.2,150.3 759.9,146.9 762.7,143.4 765.4,140.2 768.1,137.9 770.9,136.0 773.6,133.9 776.3,131.9 779.1,130.5 781.8,128.9 784.5,127.7 787.3,125.9 790.0,123.5 792.7,120.7 795.5,118.3 798.2,116.2 800.9,114.8 803.7,113.6 806.4,112.4 809.1,111.0 811.9,108.7 814.6,106.7 817.3,104.4 820.1,101.9 822.8,99.9 825.5,98.2 828.3,97.5 831.0,96.6 833.7,95.6 836.5,95.5 839.2,95.4 841.9,94.9 844.7,94.7 847.4,94.6 850.1,94.3 852.9,94.1 861.1,94.1 863.8,94.0 866.5,93.6 869.3,90.8 872.0,90.0 872.0,272.0" fill="#e0f2fe" opacity="0.55"/>
<polyline points="52.0,271.9 54.7,271.8 87.5,271.1 90.3,270.9 93.0,270.8 101.2,270.8 117.6,270.7 153.1,270.6 155.9,270.0 158.6,270.0 166.8,269.8 169.5,269.8 172.3,269.7 175.0,269.5 180.5,269.4 183.2,269.1 191.4,268.8 202.3,268.7 205.1,268.5 207.8,268.3 229.7,268.3 235.1,268.2 248.8,268.1 251.5,268.1 254.3,267.9 265.2,267.9 267.9,267.4 270.7,267.1 273.4,266.2 276.1,266.1 295.3,266.0 303.5,265.9 308.9,265.9 311.7,265.8 314.4,265.5 317.1,265.4 319.9,265.3 322.6,265.1 325.3,264.9 336.3,264.6 341.7,264.5 352.7,264.5 355.4,264.1 358.1,264.0 360.9,263.9 366.3,263.8 369.1,262.5 371.8,261.1 374.5,260.6 377.3,260.3 380.0,260.2 382.7,259.8 385.5,259.3 388.2,259.0 390.9,258.8 393.7,258.7 399.1,258.5 401.9,257.9 404.6,257.4 407.3,256.8 410.1,256.5 415.5,256.4 421.0,256.3 423.7,255.8 426.5,255.5 429.2,254.5 431.9,254.0 434.7,253.4 437.4,252.9 440.1,252.3 442.9,251.7 445.6,251.0 448.3,250.2 451.1,249.6 453.8,248.9 456.5,248.5 459.3,248.1 462.0,247.5 464.7,247.2 467.5,246.9 470.2,246.6 472.9,246.4 475.7,246.3 481.1,246.2 483.9,244.9 486.6,243.9 489.3,243.7 492.1,243.6 497.5,243.5 500.3,243.3 511.2,243.2 516.7,243.1 524.9,243.0 527.6,241.5 530.3,240.0 533.1,239.6 535.8,238.3 538.5,237.4 541.3,236.8 544.0,236.4 546.7,235.8 549.5,235.5 552.2,235.4 554.9,235.1 557.7,235.0 574.1,233.9 576.8,232.6 579.5,232.3 582.3,232.1 585.0,232.1 604.1,232.0 628.7,230.6 631.5,229.5 634.2,228.2 636.9,226.3 639.7,226.0 642.4,225.3 645.1,224.3 647.9,223.4 650.6,221.6 653.3,218.9 656.1,216.2 658.8,213.1 661.5,209.8 664.3,207.0 667.0,205.2 669.7,203.1 672.5,200.0 675.2,197.3 677.9,195.6 680.7,193.7 683.4,191.1 686.1,189.5 688.9,187.9 691.6,186.4 694.3,185.4 697.1,183.9 699.8,183.0 702.5,182.1 705.3,181.3 708.0,178.8 710.7,176.9 713.5,175.8 716.2,175.4 718.9,174.8 721.7,173.8 724.4,172.9 727.1,171.3 729.9,170.3 732.6,169.3 735.3,169.2 738.1,168.8 740.8,168.0 743.5,166.0 746.3,162.8 749.0,159.5 751.7,156.2 754.5,153.5 757.2,150.3 759.9,146.9 762.7,143.4 765.4,140.2 768.1,137.9 770.9,136.0 773.6,133.9 776.3,131.9 779.1,130.5 781.8,128.9 784.5,127.7 787.3,125.9 790.0,123.5 792.7,120.7 795.5,118.3 798.2,116.2 800.9,114.8 803.7,113.6 806.4,112.4 809.1,111.0 811.9,108.7 814.6,106.7 817.3,104.4 820.1,101.9 822.8,99.9 825.5,98.2 828.3,97.5 831.0,96.6 833.7,95.6 836.5,95.5 839.2,95.4 841.9,94.9 844.7,94.7 847.4,94.6 850.1,94.3 852.9,94.1 861.1,94.1 863.8,94.0 866.5,93.6 869.3,90.8 872.0,90.0" fill="none" stroke="#38bdf8" stroke-width="2.5" stroke-linejoin="round" stroke-linecap="round"/>
<circle cx="872.0" cy="90.0" r="4" fill="#0ea5e9"/>
<text x="866.0" y="80.0" text-anchor="end" font-family="Inter, system-ui, sans-serif" font-size="13" font-weight="700" fill="#334155">2676</text>
<text x="52.0" y="294" text-anchor="middle" font-family="Inter, system-ui, sans-serif" font-size="11" fill="#94a3b8">Jun 10 05:00</text>
<text x="544.0" y="294" text-anchor="middle" font-family="Inter, system-ui, sans-serif" font-size="11" fill="#94a3b8">Jun 17 17:00</text>
<text x="872.0" y="294" text-anchor="middle" font-family="Inter, system-ui, sans-serif" font-size="11" fill="#94a3b8">Jun 22 17:00</text>
</svg>
