<svg xmlns="http://www.w3.org/2000/svg" width="900" height="320" viewBox="0 0 900 320" role="img" aria-labelledby="title desc">
<title id="title">unsorry proofs over time</title>
<desc id="desc">Cumulative kernel-verified proofs over time, by the hour each proof was merged.</desc>
<rect width="900" height="100%" rx="18" fill="#ffffff"/>
<rect x="0.5" y="0.5" width="899" height="319" rx="18" fill="none" stroke="#e2e8f0"/>
<text x="32" y="44" font-family="Inter, system-ui, sans-serif" font-size="28" font-weight="700" fill="#334155">unsorry — Proofs Over Time</text>
<text x="32" y="72" font-family="Inter, system-ui, sans-serif" font-size="13" fill="#64748b">2619 cumulative kernel-verified proofs · merged, hourly</text>
<line x1="52" y1="272.0" x2="872" y2="272.0" stroke="#f1f5f9"/>
<text x="44" y="276.0" text-anchor="end" font-family="Inter, system-ui, sans-serif" font-size="11" fill="#94a3b8">0</text>
<line x1="52" y1="226.5" x2="872" y2="226.5" stroke="#f1f5f9"/>
<text x="44" y="230.5" text-anchor="end" font-family="Inter, system-ui, sans-serif" font-size="11" fill="#94a3b8">655</text>
<line x1="52" y1="181.0" x2="872" y2="181.0" stroke="#f1f5f9"/>
<text x="44" y="185.0" text-anchor="end" font-family="Inter, system-ui, sans-serif" font-size="11" fill="#94a3b8">1310</text>
<line x1="52" y1="135.5" x2="872" y2="135.5" stroke="#f1f5f9"/>
<text x="44" y="139.5" text-anchor="end" font-family="Inter, system-ui, sans-serif" font-size="11" fill="#94a3b8">1964</text>
<line x1="52" y1="90.0" x2="872" y2="90.0" stroke="#f1f5f9"/>
<text x="44" y="94.0" text-anchor="end" font-family="Inter, system-ui, sans-serif" font-size="11" fill="#94a3b8">2619</text>
<polygon points="52.0,272.0 52.0,271.9 54.8,271.8 87.8,271.1 90.5,270.9 93.3,270.8 101.5,270.7 118.0,270.7 153.8,270.6 156.6,270.0 159.3,269.9 167.6,269.8 170.3,269.7 173.1,269.6 175.8,269.4 181.3,269.4 184.1,269.0 192.3,268.7 203.3,268.6 206.1,268.4 208.8,268.2 230.9,268.2 236.4,268.1 250.1,268.0 252.9,268.0 255.6,267.8 266.6,267.8 269.4,267.3 272.1,267.0 274.9,266.1 277.6,266.0 296.9,265.9 305.2,265.8 310.7,265.7 313.4,265.7 316.2,265.3 318.9,265.3 321.7,265.2 324.4,265.0 327.2,264.8 338.2,264.4 343.7,264.4 354.7,264.3 357.4,263.9 360.2,263.9 362.9,263.7 368.4,263.7 371.2,262.3 373.9,260.9 376.7,260.4 379.4,260.0 382.2,259.9 385.0,259.6 387.7,259.1 390.5,258.7 393.2,258.5 396.0,258.4 401.5,258.2 404.2,257.6 407.0,257.1 409.7,256.5 412.5,256.2 418.0,256.0 423.5,255.9 426.2,255.5 429.0,255.1 431.7,254.1 434.5,253.6 437.2,253.0 440.0,252.5 442.7,251.8 445.5,251.2 448.2,250.5 451.0,249.8 453.7,249.1 456.5,248.4 459.2,248.0 462.0,247.5 464.8,247.0 467.5,246.7 470.3,246.4 473.0,246.0 475.8,245.9 478.5,245.7 484.0,245.7 486.8,244.3 489.5,243.3 492.3,243.1 495.0,243.0 500.5,242.9 503.3,242.7 514.3,242.6 519.8,242.5 528.0,242.4 530.8,240.8 533.5,239.3 536.3,238.9 539.0,237.6 541.8,236.6 544.6,236.0 547.3,235.7 550.1,235.0 552.8,234.8 555.6,234.6 558.3,234.3 561.1,234.2 577.6,233.1 580.3,231.7 583.1,231.5 585.8,231.3 588.6,231.2 607.8,231.1 632.6,229.7 635.4,228.6 638.1,227.2 640.9,225.3 643.6,225.0 646.4,224.3 649.1,223.2 651.9,222.4 654.6,220.5 657.4,217.7 660.1,215.0 662.9,211.8 665.6,208.5 668.4,205.6 671.1,203.8 673.9,201.6 676.6,198.4 679.4,195.7 682.1,193.9 684.9,192.0 687.6,189.4 690.4,187.7 693.1,186.0 695.9,184.6 698.6,183.5 701.4,182.0 704.1,181.1 706.9,180.1 709.7,179.3 712.4,176.8 715.2,174.8 717.9,173.7 720.7,173.3 723.4,172.7 726.2,171.7 728.9,170.7 731.7,169.1 734.4,168.0 737.2,167.1 739.9,166.9 742.7,166.5 745.4,165.7 748.2,163.7 750.9,160.5 753.7,157.1 756.4,153.7 759.2,150.9 761.9,147.6 764.7,144.1 767.4,140.6 770.2,137.3 772.9,135.0 775.7,133.1 778.4,130.9 781.2,128.8 783.9,127.5 786.7,125.8 789.4,124.5 792.2,122.7 795.0,120.3 797.7,117.4 800.5,114.9 803.2,112.8 806.0,111.4 808.7,110.2 811.5,108.9 814.2,107.5 817.0,105.1 819.7,103.1 822.5,100.7 825.2,98.2 828.0,96.1 830.7,94.4 833.5,93.8 836.2,92.8 839.0,91.8 841.7,91.7 844.5,91.5 847.2,91.0 850.0,90.8 852.7,90.8 855.5,90.4 858.2,90.3 866.5,90.2 869.2,90.1 872.0,90.0 872.0,272.0" fill="#e0f2fe" opacity="0.55"/>
<polyline points="52.0,271.9 54.8,271.8 87.8,271.1 90.5,270.9 93.3,270.8 101.5,270.7 118.0,270.7 153.8,270.6 156.6,270.0 159.3,269.9 167.6,269.8 170.3,269.7 173.1,269.6 175.8,269.4 181.3,269.4 184.1,269.0 192.3,268.7 203.3,268.6 206.1,268.4 208.8,268.2 230.9,268.2 236.4,268.1 250.1,268.0 252.9,268.0 255.6,267.8 266.6,267.8 269.4,267.3 272.1,267.0 274.9,266.1 277.6,266.0 296.9,265.9 305.2,265.8 310.7,265.7 313.4,265.7 316.2,265.3 318.9,265.3 321.7,265.2 324.4,265.0 327.2,264.8 338.2,264.4 343.7,264.4 354.7,264.3 357.4,263.9 360.2,263.9 362.9,263.7 368.4,263.7 371.2,262.3 373.9,260.9 376.7,260.4 379.4,260.0 382.2,259.9 385.0,259.6 387.7,259.1 390.5,258.7 393.2,258.5 396.0,258.4 401.5,258.2 404.2,257.6 407.0,257.1 409.7,256.5 412.5,256.2 418.0,256.0 423.5,255.9 426.2,255.5 429.0,255.1 431.7,254.1 434.5,253.6 437.2,253.0 440.0,252.5 442.7,251.8 445.5,251.2 448.2,250.5 451.0,249.8 453.7,249.1 456.5,248.4 459.2,248.0 462.0,247.5 464.8,247.0 467.5,246.7 470.3,246.4 473.0,246.0 475.8,245.9 478.5,245.7 484.0,245.7 486.8,244.3 489.5,243.3 492.3,243.1 495.0,243.0 500.5,242.9 503.3,242.7 514.3,242.6 519.8,242.5 528.0,242.4 530.8,240.8 533.5,239.3 536.3,238.9 539.0,237.6 541.8,236.6 544.6,236.0 547.3,235.7 550.1,235.0 552.8,234.8 555.6,234.6 558.3,234.3 561.1,234.2 577.6,233.1 580.3,231.7 583.1,231.5 585.8,231.3 588.6,231.2 607.8,231.1 632.6,229.7 635.4,228.6 638.1,227.2 640.9,225.3 643.6,225.0 646.4,224.3 649.1,223.2 651.9,222.4 654.6,220.5 657.4,217.7 660.1,215.0 662.9,211.8 665.6,208.5 668.4,205.6 671.1,203.8 673.9,201.6 676.6,198.4 679.4,195.7 682.1,193.9 684.9,192.0 687.6,189.4 690.4,187.7 693.1,186.0 695.9,184.6 698.6,183.5 701.4,182.0 704.1,181.1 706.9,180.1 709.7,179.3 712.4,176.8 715.2,174.8 717.9,173.7 720.7,173.3 723.4,172.7 726.2,171.7 728.9,170.7 731.7,169.1 734.4,168.0 737.2,167.1 739.9,166.9 742.7,166.5 745.4,165.7 748.2,163.7 750.9,160.5 753.7,157.1 756.4,153.7 759.2,150.9 761.9,147.6 764.7,144.1 767.4,140.6 770.2,137.3 772.9,135.0 775.7,133.1 778.4,130.9 781.2,128.8 783.9,127.5 786.7,125.8 789.4,124.5 792.2,122.7 795.0,120.3 797.7,117.4 800.5,114.9 803.2,112.8 806.0,111.4 808.7,110.2 811.5,108.9 814.2,107.5 817.0,105.1 819.7,103.1 822.5,100.7 825.2,98.2 828.0,96.1 830.7,94.4 833.5,93.8 836.2,92.8 839.0,91.8 841.7,91.7 844.5,91.5 847.2,91.0 850.0,90.8 852.7,90.8 855.5,90.4 858.2,90.3 866.5,90.2 869.2,90.1 872.0,90.0" fill="none" stroke="#38bdf8" stroke-width="2.5" stroke-linejoin="round" stroke-linecap="round"/>
<circle cx="872.0" cy="90.0" r="4" fill="#0ea5e9"/>
<text x="866.0" y="80.0" text-anchor="end" font-family="Inter, system-ui, sans-serif" font-size="13" font-weight="700" fill="#334155">2619</text>
<text x="52.0" y="294" text-anchor="middle" font-family="Inter, system-ui, sans-serif" font-size="11" fill="#94a3b8">Jun 10 05:00</text>
<text x="544.6" y="294" text-anchor="middle" font-family="Inter, system-ui, sans-serif" font-size="11" fill="#94a3b8">Jun 17 16:00</text>
<text x="872.0" y="294" text-anchor="middle" font-family="Inter, system-ui, sans-serif" font-size="11" fill="#94a3b8">Jun 22 15:00</text>
</svg>
