<svg xmlns="http://www.w3.org/2000/svg" width="900" height="320" viewBox="0 0 900 320" role="img" aria-labelledby="title desc">
<title id="title">unsorry proofs over time</title>
<desc id="desc">Cumulative kernel-verified proofs over time, by the hour each proof was merged.</desc>
<rect width="900" height="100%" rx="18" fill="#ffffff"/>
<rect x="0.5" y="0.5" width="899" height="319" rx="18" fill="none" stroke="#e2e8f0"/>
<text x="32" y="44" font-family="Inter, system-ui, sans-serif" font-size="28" font-weight="700" fill="#334155">unsorry — Proofs Over Time</text>
<text x="32" y="72" font-family="Inter, system-ui, sans-serif" font-size="13" fill="#64748b">4408 cumulative kernel-verified proofs · merged, hourly</text>
<line x1="52" y1="272.0" x2="872" y2="272.0" stroke="#f1f5f9"/>
<text x="44" y="276.0" text-anchor="end" font-family="Inter, system-ui, sans-serif" font-size="11" fill="#94a3b8">0</text>
<line x1="52" y1="226.5" x2="872" y2="226.5" stroke="#f1f5f9"/>
<text x="44" y="230.5" text-anchor="end" font-family="Inter, system-ui, sans-serif" font-size="11" fill="#94a3b8">1102</text>
<line x1="52" y1="181.0" x2="872" y2="181.0" stroke="#f1f5f9"/>
<text x="44" y="185.0" text-anchor="end" font-family="Inter, system-ui, sans-serif" font-size="11" fill="#94a3b8">2204</text>
<line x1="52" y1="135.5" x2="872" y2="135.5" stroke="#f1f5f9"/>
<text x="44" y="139.5" text-anchor="end" font-family="Inter, system-ui, sans-serif" font-size="11" fill="#94a3b8">3306</text>
<line x1="52" y1="90.0" x2="872" y2="90.0" stroke="#f1f5f9"/>
<text x="44" y="94.0" text-anchor="end" font-family="Inter, system-ui, sans-serif" font-size="11" fill="#94a3b8">4408</text>
<polygon points="52.0,272.0 52.0,272.0 54.2,271.9 80.0,271.5 82.1,271.3 84.3,271.3 90.7,271.3 103.7,271.2 131.6,271.2 133.8,270.8 135.9,270.8 142.4,270.7 144.5,270.6 146.7,270.6 148.9,270.5 153.2,270.4 155.3,270.2 161.8,270.1 170.4,270.0 172.5,269.9 174.7,269.8 191.9,269.7 196.2,269.7 207.0,269.6 209.1,269.6 211.3,269.5 219.9,269.5 222.0,269.2 224.2,269.0 226.3,268.5 228.5,268.4 243.5,268.4 250.0,268.3 254.3,268.3 256.5,268.2 258.6,268.0 260.8,268.0 262.9,268.0 265.1,267.8 267.2,267.7 275.8,267.5 280.1,267.5 288.7,267.4 290.9,267.2 293.0,267.2 295.2,267.1 299.5,267.0 301.7,266.2 303.8,265.4 306.0,265.1 308.1,264.9 310.3,264.8 312.4,264.6 314.6,264.3 316.7,264.1 318.9,264.0 321.0,263.9 325.3,263.8 327.5,263.5 329.6,263.1 331.8,262.8 333.9,262.6 338.2,262.5 342.6,262.5 344.7,262.2 346.9,262.0 349.0,261.4 351.2,261.1 353.3,260.7 355.5,260.4 357.6,260.0 359.8,259.7 361.9,259.2 364.1,258.8 366.2,258.4 368.4,258.0 370.5,257.8 372.7,257.5 374.8,257.1 377.0,257.0 379.1,256.8 381.3,256.6 383.4,256.5 385.6,256.4 389.9,256.4 392.1,255.5 394.2,254.9 396.4,254.8 398.5,254.8 402.8,254.7 405.0,254.6 413.6,254.5 417.9,254.5 424.3,254.4 426.5,253.5 428.6,252.6 430.8,252.3 432.9,251.6 435.1,251.0 437.2,250.6 439.4,250.4 441.6,250.0 443.7,249.9 445.9,249.8 448.0,249.6 450.2,249.5 463.1,248.9 465.2,248.1 467.4,247.9 469.5,247.8 471.7,247.8 486.8,247.7 506.1,246.9 508.3,246.2 510.4,245.4 512.6,244.3 514.7,244.0 516.9,243.7 519.0,243.0 521.2,242.5 523.3,241.4 525.5,239.8 527.6,238.1 529.8,236.2 531.9,234.3 534.1,232.5 536.3,231.5 538.4,230.2 540.6,228.3 542.7,226.7 544.9,225.6 547.0,224.5 549.2,222.9 551.3,221.9 553.5,220.9 555.6,220.1 557.8,219.4 559.9,218.5 562.1,218.0 564.2,217.4 566.4,216.9 568.5,215.4 570.7,214.2 572.8,213.6 575.0,213.4 577.1,213.0 579.3,212.4 581.4,211.8 583.6,210.9 585.8,210.2 587.9,209.7 590.1,209.6 592.2,209.3 594.4,208.9 596.5,207.7 598.7,205.7 600.8,203.7 603.0,201.7 605.1,200.0 607.3,198.1 609.4,196.0 611.6,193.9 613.7,192.0 615.9,190.6 618.0,189.5 620.2,188.2 622.3,186.9 624.5,186.1 626.6,185.1 628.8,184.4 631.0,183.3 633.1,181.9 635.3,180.1 637.4,178.7 639.6,177.4 641.7,176.6 643.9,175.8 646.0,175.1 648.2,174.3 650.3,172.9 652.5,171.7 654.6,170.2 656.8,168.7 658.9,167.5 661.1,166.5 663.2,166.1 665.4,165.5 667.5,164.9 669.7,164.9 671.8,164.8 674.0,164.5 676.1,164.4 678.3,164.3 680.5,164.1 682.6,164.0 689.1,164.0 691.2,163.9 693.4,163.7 695.5,162.0 697.7,160.6 699.8,159.3 702.0,157.8 704.1,156.6 706.3,155.3 708.4,153.9 710.6,152.7 712.7,151.3 714.9,150.1 717.0,148.8 719.2,147.6 721.3,146.4 723.5,145.1 725.6,143.9 727.8,142.9 730.0,141.7 732.1,140.6 734.3,139.4 736.4,138.3 738.6,137.2 740.7,136.5 742.9,135.7 745.0,135.0 747.2,133.9 749.3,133.0 751.5,132.1 753.6,131.0 755.8,130.0 757.9,129.1 760.1,128.2 762.2,127.2 764.4,126.2 766.5,125.3 768.7,124.2 770.8,123.4 773.0,122.4 775.1,121.6 777.3,120.8 779.5,119.9 781.6,119.0 783.8,118.2 785.9,117.6 788.1,117.0 790.2,116.6 792.4,116.5 794.5,115.6 796.7,114.8 798.8,114.0 801.0,113.1 803.1,112.4 805.3,111.6 807.4,110.8 809.6,110.0 811.7,109.3 813.9,108.6 816.0,107.9 818.2,107.2 820.3,106.4 822.5,105.7 824.7,104.9 826.8,104.2 829.0,103.5 831.1,102.9 833.3,102.1 835.4,101.5 837.6,100.9 839.7,100.0 841.9,99.2 844.0,98.5 846.2,97.8 848.3,97.0 850.5,96.4 852.6,95.8 854.8,95.0 856.9,94.4 859.1,94.0 861.2,93.3 863.4,92.6 865.5,91.9 867.7,91.0 869.8,90.3 872.0,90.0 872.0,272.0" fill="#e0f2fe" opacity="0.55"/>
<polyline points="52.0,272.0 54.2,271.9 80.0,271.5 82.1,271.3 84.3,271.3 90.7,271.3 103.7,271.2 131.6,271.2 133.8,270.8 135.9,270.8 142.4,270.7 144.5,270.6 146.7,270.6 148.9,270.5 153.2,270.4 155.3,270.2 161.8,270.1 170.4,270.0 172.5,269.9 174.7,269.8 191.9,269.7 196.2,269.7 207.0,269.6 209.1,269.6 211.3,269.5 219.9,269.5 222.0,269.2 224.2,269.0 226.3,268.5 228.5,268.4 243.5,268.4 250.0,268.3 254.3,268.3 256.5,268.2 258.6,268.0 260.8,268.0 262.9,268.0 265.1,267.8 267.2,267.7 275.8,267.5 280.1,267.5 288.7,267.4 290.9,267.2 293.0,267.2 295.2,267.1 299.5,267.0 301.7,266.2 303.8,265.4 306.0,265.1 308.1,264.9 310.3,264.8 312.4,264.6 314.6,264.3 316.7,264.1 318.9,264.0 321.0,263.9 325.3,263.8 327.5,263.5 329.6,263.1 331.8,262.8 333.9,262.6 338.2,262.5 342.6,262.5 344.7,262.2 346.9,262.0 349.0,261.4 351.2,261.1 353.3,260.7 355.5,260.4 357.6,260.0 359.8,259.7 361.9,259.2 364.1,258.8 366.2,258.4 368.4,258.0 370.5,257.8 372.7,257.5 374.8,257.1 377.0,257.0 379.1,256.8 381.3,256.6 383.4,256.5 385.6,256.4 389.9,256.4 392.1,255.5 394.2,254.9 396.4,254.8 398.5,254.8 402.8,254.7 405.0,254.6 413.6,254.5 417.9,254.5 424.3,254.4 426.5,253.5 428.6,252.6 430.8,252.3 432.9,251.6 435.1,251.0 437.2,250.6 439.4,250.4 441.6,250.0 443.7,249.9 445.9,249.8 448.0,249.6 450.2,249.5 463.1,248.9 465.2,248.1 467.4,247.9 469.5,247.8 471.7,247.8 486.8,247.7 506.1,246.9 508.3,246.2 510.4,245.4 512.6,244.3 514.7,244.0 516.9,243.7 519.0,243.0 521.2,242.5 523.3,241.4 525.5,239.8 527.6,238.1 529.8,236.2 531.9,234.3 534.1,232.5 536.3,231.5 538.4,230.2 540.6,228.3 542.7,226.7 544.9,225.6 547.0,224.5 549.2,222.9 551.3,221.9 553.5,220.9 555.6,220.1 557.8,219.4 559.9,218.5 562.1,218.0 564.2,217.4 566.4,216.9 568.5,215.4 570.7,214.2 572.8,213.6 575.0,213.4 577.1,213.0 579.3,212.4 581.4,211.8 583.6,210.9 585.8,210.2 587.9,209.7 590.1,209.6 592.2,209.3 594.4,208.9 596.5,207.7 598.7,205.7 600.8,203.7 603.0,201.7 605.1,200.0 607.3,198.1 609.4,196.0 611.6,193.9 613.7,192.0 615.9,190.6 618.0,189.5 620.2,188.2 622.3,186.9 624.5,186.1 626.6,185.1 628.8,184.4 631.0,183.3 633.1,181.9 635.3,180.1 637.4,178.7 639.6,177.4 641.7,176.6 643.9,175.8 646.0,175.1 648.2,174.3 650.3,172.9 652.5,171.7 654.6,170.2 656.8,168.7 658.9,167.5 661.1,166.5 663.2,166.1 665.4,165.5 667.5,164.9 669.7,164.9 671.8,164.8 674.0,164.5 676.1,164.4 678.3,164.3 680.5,164.1 682.6,164.0 689.1,164.0 691.2,163.9 693.4,163.7 695.5,162.0 697.7,160.6 699.8,159.3 702.0,157.8 704.1,156.6 706.3,155.3 708.4,153.9 710.6,152.7 712.7,151.3 714.9,150.1 717.0,148.8 719.2,147.6 721.3,146.4 723.5,145.1 725.6,143.9 727.8,142.9 730.0,141.7 732.1,140.6 734.3,139.4 736.4,138.3 738.6,137.2 740.7,136.5 742.9,135.7 745.0,135.0 747.2,133.9 749.3,133.0 751.5,132.1 753.6,131.0 755.8,130.0 757.9,129.1 760.1,128.2 762.2,127.2 764.4,126.2 766.5,125.3 768.7,124.2 770.8,123.4 773.0,122.4 775.1,121.6 777.3,120.8 779.5,119.9 781.6,119.0 783.8,118.2 785.9,117.6 788.1,117.0 790.2,116.6 792.4,116.5 794.5,115.6 796.7,114.8 798.8,114.0 801.0,113.1 803.1,112.4 805.3,111.6 807.4,110.8 809.6,110.0 811.7,109.3 813.9,108.6 816.0,107.9 818.2,107.2 820.3,106.4 822.5,105.7 824.7,104.9 826.8,104.2 829.0,103.5 831.1,102.9 833.3,102.1 835.4,101.5 837.6,100.9 839.7,100.0 841.9,99.2 844.0,98.5 846.2,97.8 848.3,97.0 850.5,96.4 852.6,95.8 854.8,95.0 856.9,94.4 859.1,94.0 861.2,93.3 863.4,92.6 865.5,91.9 867.7,91.0 869.8,90.3 872.0,90.0" fill="none" stroke="#38bdf8" stroke-width="2.5" stroke-linejoin="round" stroke-linecap="round"/>
<circle cx="872.0" cy="90.0" r="4" fill="#0ea5e9"/>
<text x="866.0" y="80.0" text-anchor="end" font-family="Inter, system-ui, sans-serif" font-size="13" font-weight="700" fill="#334155">4408</text>
<text x="52.0" y="294" text-anchor="middle" font-family="Inter, system-ui, sans-serif" font-size="11" fill="#94a3b8">Jun 10 05:00</text>
<text x="568.5" y="294" text-anchor="middle" font-family="Inter, system-ui, sans-serif" font-size="11" fill="#94a3b8">Jun 20 05:00</text>
<text x="872.0" y="294" text-anchor="middle" font-family="Inter, system-ui, sans-serif" font-size="11" fill="#94a3b8">Jun 26 02:00</text>
</svg>
