<svg xmlns="http://www.w3.org/2000/svg" width="900" height="320" viewBox="0 0 900 320" role="img" aria-labelledby="title desc">
<title id="title">Unsorry proofs over time</title>
<desc id="desc">Cumulative kernel-verified proofs over time, by the hour each proof was merged.</desc>
<rect width="900" height="100%" rx="18" fill="#ffffff"/>
<rect x="0.5" y="0.5" width="899" height="319" rx="18" fill="none" stroke="#e2e8f0"/>
<text x="32" y="44" font-family="Inter, system-ui, sans-serif" font-size="28" font-weight="700" fill="#334155">Unsorry — Proofs Over Time</text>
<text x="32" y="72" font-family="Inter, system-ui, sans-serif" font-size="13" fill="#64748b">2169 cumulative kernel-verified proofs · merged, hourly</text>
<line x1="52" y1="272.0" x2="872" y2="272.0" stroke="#f1f5f9"/>
<text x="44" y="276.0" text-anchor="end" font-family="Inter, system-ui, sans-serif" font-size="11" fill="#94a3b8">0</text>
<line x1="52" y1="226.5" x2="872" y2="226.5" stroke="#f1f5f9"/>
<text x="44" y="230.5" text-anchor="end" font-family="Inter, system-ui, sans-serif" font-size="11" fill="#94a3b8">542</text>
<line x1="52" y1="181.0" x2="872" y2="181.0" stroke="#f1f5f9"/>
<text x="44" y="185.0" text-anchor="end" font-family="Inter, system-ui, sans-serif" font-size="11" fill="#94a3b8">1084</text>
<line x1="52" y1="135.5" x2="872" y2="135.5" stroke="#f1f5f9"/>
<text x="44" y="139.5" text-anchor="end" font-family="Inter, system-ui, sans-serif" font-size="11" fill="#94a3b8">1627</text>
<line x1="52" y1="90.0" x2="872" y2="90.0" stroke="#f1f5f9"/>
<text x="44" y="94.0" text-anchor="end" font-family="Inter, system-ui, sans-serif" font-size="11" fill="#94a3b8">2169</text>
<polygon points="52.0,272.0 52.0,271.9 55.0,271.7 91.5,270.9 94.5,270.7 97.6,270.6 106.7,270.5 124.9,270.4 164.4,270.3 167.4,269.6 170.4,269.5 179.6,269.3 182.6,269.2 185.6,269.1 188.7,268.9 194.7,268.8 197.8,268.4 206.9,268.1 219.0,267.9 222.1,267.6 225.1,267.5 249.4,267.4 255.5,267.3 270.7,267.2 273.7,267.1 276.7,267.0 288.9,266.9 291.9,266.4 295.0,266.0 298.0,264.9 301.0,264.7 322.3,264.6 331.4,264.5 337.5,264.4 340.5,264.4 343.6,263.9 346.6,263.9 349.6,263.8 352.7,263.5 355.7,263.3 367.9,262.9 373.9,262.8 386.1,262.7 389.1,262.3 392.1,262.2 395.2,262.0 401.3,261.9 404.3,260.3 407.3,258.6 410.4,258.0 413.4,257.6 416.4,257.4 419.5,257.0 422.5,256.4 425.6,256.0 428.6,255.7 431.6,255.6 437.7,255.3 440.7,254.6 443.8,254.0 446.8,253.3 449.9,252.9 455.9,252.7 462.0,252.6 465.0,252.0 468.1,251.6 471.1,250.4 474.1,249.8 477.2,249.1 480.2,248.4 483.3,247.7 486.3,246.9 489.3,246.1 492.4,245.1 495.4,244.3 498.4,243.6 501.5,243.1 504.5,242.5 507.6,241.8 510.6,241.5 513.6,241.0 516.7,240.6 519.7,240.4 522.7,240.3 528.8,240.2 531.9,238.5 534.9,237.3 537.9,237.1 541.0,237.0 547.0,236.8 550.1,236.6 562.2,236.5 568.3,236.3 577.4,236.3 580.4,234.3 583.5,232.5 586.5,232.0 589.6,230.5 592.6,229.3 595.6,228.5 598.7,228.1 601.7,227.4 604.7,227.0 607.8,226.9 610.8,226.5 613.9,226.4 632.1,225.0 635.1,223.3 638.1,223.1 641.2,222.8 644.2,222.7 665.5,222.7 692.8,220.9 695.9,219.6 698.9,218.0 701.9,215.6 705.0,215.2 708.0,214.4 711.0,213.1 714.1,212.1 717.1,209.8 720.1,206.5 723.2,203.2 726.2,199.3 729.3,195.3 732.3,191.8 735.3,189.6 738.4,187.0 741.4,183.1 744.4,179.9 747.5,177.7 750.5,175.4 753.6,172.2 756.6,170.2 759.6,168.2 762.7,166.4 765.7,165.1 768.7,163.3 771.8,162.2 774.8,161.1 777.9,160.1 780.9,157.0 783.9,154.6 787.0,153.3 790.0,152.8 793.0,152.1 796.1,150.8 799.1,149.7 802.1,147.7 805.2,146.5 808.2,145.3 811.3,145.1 814.3,144.6 817.3,143.7 820.4,141.3 823.4,137.3 826.4,133.2 829.5,129.1 832.5,125.7 835.6,121.8 838.6,117.6 841.6,113.3 844.7,109.4 847.7,106.5 850.7,104.3 853.8,101.7 856.8,99.1 859.9,97.5 862.9,95.5 865.9,93.9 869.0,91.8 872.0,90.0 872.0,272.0" fill="#e0f2fe" opacity="0.55"/>
<polyline points="52.0,271.9 55.0,271.7 91.5,270.9 94.5,270.7 97.6,270.6 106.7,270.5 124.9,270.4 164.4,270.3 167.4,269.6 170.4,269.5 179.6,269.3 182.6,269.2 185.6,269.1 188.7,268.9 194.7,268.8 197.8,268.4 206.9,268.1 219.0,267.9 222.1,267.6 225.1,267.5 249.4,267.4 255.5,267.3 270.7,267.2 273.7,267.1 276.7,267.0 288.9,266.9 291.9,266.4 295.0,266.0 298.0,264.9 301.0,264.7 322.3,264.6 331.4,264.5 337.5,264.4 340.5,264.4 343.6,263.9 346.6,263.9 349.6,263.8 352.7,263.5 355.7,263.3 367.9,262.9 373.9,262.8 386.1,262.7 389.1,262.3 392.1,262.2 395.2,262.0 401.3,261.9 404.3,260.3 407.3,258.6 410.4,258.0 413.4,257.6 416.4,257.4 419.5,257.0 422.5,256.4 425.6,256.0 428.6,255.7 431.6,255.6 437.7,255.3 440.7,254.6 443.8,254.0 446.8,253.3 449.9,252.9 455.9,252.7 462.0,252.6 465.0,252.0 468.1,251.6 471.1,250.4 474.1,249.8 477.2,249.1 480.2,248.4 483.3,247.7 486.3,246.9 489.3,246.1 492.4,245.1 495.4,244.3 498.4,243.6 501.5,243.1 504.5,242.5 507.6,241.8 510.6,241.5 513.6,241.0 516.7,240.6 519.7,240.4 522.7,240.3 528.8,240.2 531.9,238.5 534.9,237.3 537.9,237.1 541.0,237.0 547.0,236.8 550.1,236.6 562.2,236.5 568.3,236.3 577.4,236.3 580.4,234.3 583.5,232.5 586.5,232.0 589.6,230.5 592.6,229.3 595.6,228.5 598.7,228.1 601.7,227.4 604.7,227.0 607.8,226.9 610.8,226.5 613.9,226.4 632.1,225.0 635.1,223.3 638.1,223.1 641.2,222.8 644.2,222.7 665.5,222.7 692.8,220.9 695.9,219.6 698.9,218.0 701.9,215.6 705.0,215.2 708.0,214.4 711.0,213.1 714.1,212.1 717.1,209.8 720.1,206.5 723.2,203.2 726.2,199.3 729.3,195.3 732.3,191.8 735.3,189.6 738.4,187.0 741.4,183.1 744.4,179.9 747.5,177.7 750.5,175.4 753.6,172.2 756.6,170.2 759.6,168.2 762.7,166.4 765.7,165.1 768.7,163.3 771.8,162.2 774.8,161.1 777.9,160.1 780.9,157.0 783.9,154.6 787.0,153.3 790.0,152.8 793.0,152.1 796.1,150.8 799.1,149.7 802.1,147.7 805.2,146.5 808.2,145.3 811.3,145.1 814.3,144.6 817.3,143.7 820.4,141.3 823.4,137.3 826.4,133.2 829.5,129.1 832.5,125.7 835.6,121.8 838.6,117.6 841.6,113.3 844.7,109.4 847.7,106.5 850.7,104.3 853.8,101.7 856.8,99.1 859.9,97.5 862.9,95.5 865.9,93.9 869.0,91.8 872.0,90.0" fill="none" stroke="#38bdf8" stroke-width="2.5" stroke-linejoin="round" stroke-linecap="round"/>
<circle cx="872.0" cy="90.0" r="4" fill="#0ea5e9"/>
<text x="866.0" y="80.0" text-anchor="end" font-family="Inter, system-ui, sans-serif" font-size="13" font-weight="700" fill="#334155">2169</text>
<text x="52.0" y="294" text-anchor="middle" font-family="Inter, system-ui, sans-serif" font-size="11" fill="#94a3b8">Jun 10 05:00</text>
<text x="534.9" y="294" text-anchor="middle" font-family="Inter, system-ui, sans-serif" font-size="11" fill="#94a3b8">Jun 16 20:00</text>
<text x="872.0" y="294" text-anchor="middle" font-family="Inter, system-ui, sans-serif" font-size="11" fill="#94a3b8">Jun 21 11:00</text>
</svg>
