<svg xmlns="http://www.w3.org/2000/svg" width="900" height="320" viewBox="0 0 900 320" role="img" aria-labelledby="title desc">
<title id="title">unsorry proofs over time</title>
<desc id="desc">Cumulative kernel-verified proofs over time, by the hour each proof was merged.</desc>
<rect width="900" height="100%" rx="18" fill="#ffffff"/>
<rect x="0.5" y="0.5" width="899" height="319" rx="18" fill="none" stroke="#e2e8f0"/>
<text x="32" y="44" font-family="Inter, system-ui, sans-serif" font-size="28" font-weight="700" fill="#334155">unsorry — Proofs Over Time</text>
<text x="32" y="72" font-family="Inter, system-ui, sans-serif" font-size="13" fill="#64748b">4065 cumulative kernel-verified proofs · merged, hourly</text>
<line x1="52" y1="272.0" x2="872" y2="272.0" stroke="#f1f5f9"/>
<text x="44" y="276.0" text-anchor="end" font-family="Inter, system-ui, sans-serif" font-size="11" fill="#94a3b8">0</text>
<line x1="52" y1="226.5" x2="872" y2="226.5" stroke="#f1f5f9"/>
<text x="44" y="230.5" text-anchor="end" font-family="Inter, system-ui, sans-serif" font-size="11" fill="#94a3b8">1016</text>
<line x1="52" y1="181.0" x2="872" y2="181.0" stroke="#f1f5f9"/>
<text x="44" y="185.0" text-anchor="end" font-family="Inter, system-ui, sans-serif" font-size="11" fill="#94a3b8">2032</text>
<line x1="52" y1="135.5" x2="872" y2="135.5" stroke="#f1f5f9"/>
<text x="44" y="139.5" text-anchor="end" font-family="Inter, system-ui, sans-serif" font-size="11" fill="#94a3b8">3049</text>
<line x1="52" y1="90.0" x2="872" y2="90.0" stroke="#f1f5f9"/>
<text x="44" y="94.0" text-anchor="end" font-family="Inter, system-ui, sans-serif" font-size="11" fill="#94a3b8">4065</text>
<polygon points="52.0,272.0 52.0,272.0 54.3,271.9 81.5,271.4 83.8,271.3 86.1,271.2 92.9,271.2 106.5,271.1 136.0,271.1 138.3,270.7 140.6,270.7 147.4,270.6 149.7,270.5 151.9,270.5 154.2,270.3 158.8,270.3 161.0,270.1 167.8,269.9 176.9,269.8 179.2,269.7 181.5,269.6 199.6,269.5 204.2,269.5 215.5,269.4 217.8,269.4 220.1,269.3 229.2,269.3 231.4,269.0 233.7,268.8 236.0,268.2 238.3,268.1 254.2,268.1 261.0,268.0 265.5,268.0 267.8,267.9 270.1,267.7 272.3,267.7 274.6,267.6 276.9,267.5 279.1,267.3 288.2,267.1 292.8,267.1 301.9,267.0 304.1,266.8 306.4,266.8 308.7,266.7 313.2,266.6 315.5,265.7 317.8,264.8 320.0,264.5 322.3,264.3 324.6,264.2 326.8,264.0 329.1,263.7 331.4,263.4 333.7,263.3 335.9,263.2 340.5,263.1 342.7,262.7 345.0,262.4 347.3,262.0 349.6,261.8 354.1,261.7 358.6,261.7 360.9,261.3 363.2,261.1 365.5,260.5 367.7,260.1 370.0,259.8 372.3,259.4 374.5,259.0 376.8,258.6 379.1,258.2 381.4,257.7 383.6,257.2 385.9,256.8 388.2,256.6 390.4,256.2 392.7,255.9 395.0,255.7 397.3,255.5 399.5,255.3 401.8,255.2 404.1,255.1 408.6,255.0 410.9,254.1 413.2,253.5 415.4,253.4 417.7,253.3 422.2,253.2 424.5,253.1 433.6,253.1 438.1,253.0 445.0,252.9 447.2,251.9 449.5,250.9 451.8,250.6 454.0,249.8 456.3,249.2 458.6,248.8 460.9,248.6 463.1,248.2 465.4,248.0 467.7,247.9 470.0,247.7 472.2,247.6 485.9,246.9 488.1,246.0 490.4,245.9 492.7,245.8 494.9,245.7 510.8,245.7 531.3,244.7 533.6,244.0 535.8,243.2 538.1,241.9 540.4,241.7 542.6,241.3 544.9,240.6 547.2,240.0 549.5,238.8 551.7,237.0 554.0,235.3 556.3,233.2 558.5,231.1 560.8,229.2 563.1,228.0 565.4,226.6 567.6,224.6 569.9,222.8 572.2,221.7 574.4,220.5 576.7,218.8 579.0,217.7 581.3,216.6 583.5,215.7 585.8,215.0 588.1,214.0 590.3,213.4 592.6,212.8 594.9,212.3 597.2,210.7 599.4,209.4 601.7,208.6 604.0,208.4 606.2,208.0 608.5,207.3 610.8,206.8 613.1,205.7 615.3,205.0 617.6,204.4 619.9,204.3 622.1,204.0 624.4,203.5 626.7,202.2 629.0,200.1 631.2,197.9 633.5,195.8 635.8,194.0 638.0,191.9 640.3,189.6 642.6,187.3 644.9,185.2 647.1,183.7 649.4,182.5 651.7,181.1 653.9,179.8 656.2,178.9 658.5,177.8 660.8,177.0 663.0,175.8 665.3,174.3 667.6,172.4 669.8,170.8 672.1,169.4 674.4,168.5 676.7,167.7 678.9,166.9 681.2,166.0 683.5,164.5 685.7,163.2 688.0,161.6 690.3,160.0 692.6,158.7 694.8,157.6 697.1,157.2 699.4,156.5 701.6,155.9 703.9,155.8 706.2,155.7 708.5,155.4 710.7,155.3 713.0,155.2 715.3,155.0 717.5,154.9 724.4,154.9 726.6,154.8 728.9,154.6 731.2,152.7 733.4,151.2 735.7,149.8 738.0,148.2 740.3,146.8 742.5,145.4 744.8,144.0 747.1,142.6 749.3,141.1 751.6,139.8 753.9,138.4 756.2,137.1 758.4,135.8 760.7,134.4 763.0,133.1 765.2,132.0 767.5,130.7 769.8,129.5 772.1,128.2 774.3,127.1 776.6,125.9 778.9,125.1 781.1,124.3 783.4,123.4 785.7,122.3 788.0,121.3 790.2,120.3 792.5,119.1 794.8,118.0 797.0,117.1 799.3,116.0 801.6,114.9 803.9,113.9 806.1,112.9 808.4,111.8 810.7,110.9 812.9,109.8 815.2,108.9 817.5,108.1 819.8,107.1 822.0,106.1 824.3,105.3 826.6,104.6 828.8,103.9 831.1,103.5 833.4,103.3 835.7,102.4 837.9,101.6 840.2,100.7 842.5,99.7 844.7,99.0 847.0,98.1 849.3,97.2 851.6,96.4 853.8,95.6 856.1,94.8 858.4,94.0 860.6,93.3 862.9,92.4 865.2,91.7 867.5,90.9 869.7,90.0 872.0,90.0 872.0,272.0" fill="#e0f2fe" opacity="0.55"/>
<polyline points="52.0,272.0 54.3,271.9 81.5,271.4 83.8,271.3 86.1,271.2 92.9,271.2 106.5,271.1 136.0,271.1 138.3,270.7 140.6,270.7 147.4,270.6 149.7,270.5 151.9,270.5 154.2,270.3 158.8,270.3 161.0,270.1 167.8,269.9 176.9,269.8 179.2,269.7 181.5,269.6 199.6,269.5 204.2,269.5 215.5,269.4 217.8,269.4 220.1,269.3 229.2,269.3 231.4,269.0 233.7,268.8 236.0,268.2 238.3,268.1 254.2,268.1 261.0,268.0 265.5,268.0 267.8,267.9 270.1,267.7 272.3,267.7 274.6,267.6 276.9,267.5 279.1,267.3 288.2,267.1 292.8,267.1 301.9,267.0 304.1,266.8 306.4,266.8 308.7,266.7 313.2,266.6 315.5,265.7 317.8,264.8 320.0,264.5 322.3,264.3 324.6,264.2 326.8,264.0 329.1,263.7 331.4,263.4 333.7,263.3 335.9,263.2 340.5,263.1 342.7,262.7 345.0,262.4 347.3,262.0 349.6,261.8 354.1,261.7 358.6,261.7 360.9,261.3 363.2,261.1 365.5,260.5 367.7,260.1 370.0,259.8 372.3,259.4 374.5,259.0 376.8,258.6 379.1,258.2 381.4,257.7 383.6,257.2 385.9,256.8 388.2,256.6 390.4,256.2 392.7,255.9 395.0,255.7 397.3,255.5 399.5,255.3 401.8,255.2 404.1,255.1 408.6,255.0 410.9,254.1 413.2,253.5 415.4,253.4 417.7,253.3 422.2,253.2 424.5,253.1 433.6,253.1 438.1,253.0 445.0,252.9 447.2,251.9 449.5,250.9 451.8,250.6 454.0,249.8 456.3,249.2 458.6,248.8 460.9,248.6 463.1,248.2 465.4,248.0 467.7,247.9 470.0,247.7 472.2,247.6 485.9,246.9 488.1,246.0 490.4,245.9 492.7,245.8 494.9,245.7 510.8,245.7 531.3,244.7 533.6,244.0 535.8,243.2 538.1,241.9 540.4,241.7 542.6,241.3 544.9,240.6 547.2,240.0 549.5,238.8 551.7,237.0 554.0,235.3 556.3,233.2 558.5,231.1 560.8,229.2 563.1,228.0 565.4,226.6 567.6,224.6 569.9,222.8 572.2,221.7 574.4,220.5 576.7,218.8 579.0,217.7 581.3,216.6 583.5,215.7 585.8,215.0 588.1,214.0 590.3,213.4 592.6,212.8 594.9,212.3 597.2,210.7 599.4,209.4 601.7,208.6 604.0,208.4 606.2,208.0 608.5,207.3 610.8,206.8 613.1,205.7 615.3,205.0 617.6,204.4 619.9,204.3 622.1,204.0 624.4,203.5 626.7,202.2 629.0,200.1 631.2,197.9 633.5,195.8 635.8,194.0 638.0,191.9 640.3,189.6 642.6,187.3 644.9,185.2 647.1,183.7 649.4,182.5 651.7,181.1 653.9,179.8 656.2,178.9 658.5,177.8 660.8,177.0 663.0,175.8 665.3,174.3 667.6,172.4 669.8,170.8 672.1,169.4 674.4,168.5 676.7,167.7 678.9,166.9 681.2,166.0 683.5,164.5 685.7,163.2 688.0,161.6 690.3,160.0 692.6,158.7 694.8,157.6 697.1,157.2 699.4,156.5 701.6,155.9 703.9,155.8 706.2,155.7 708.5,155.4 710.7,155.3 713.0,155.2 715.3,155.0 717.5,154.9 724.4,154.9 726.6,154.8 728.9,154.6 731.2,152.7 733.4,151.2 735.7,149.8 738.0,148.2 740.3,146.8 742.5,145.4 744.8,144.0 747.1,142.6 749.3,141.1 751.6,139.8 753.9,138.4 756.2,137.1 758.4,135.8 760.7,134.4 763.0,133.1 765.2,132.0 767.5,130.7 769.8,129.5 772.1,128.2 774.3,127.1 776.6,125.9 778.9,125.1 781.1,124.3 783.4,123.4 785.7,122.3 788.0,121.3 790.2,120.3 792.5,119.1 794.8,118.0 797.0,117.1 799.3,116.0 801.6,114.9 803.9,113.9 806.1,112.9 808.4,111.8 810.7,110.9 812.9,109.8 815.2,108.9 817.5,108.1 819.8,107.1 822.0,106.1 824.3,105.3 826.6,104.6 828.8,103.9 831.1,103.5 833.4,103.3 835.7,102.4 837.9,101.6 840.2,100.7 842.5,99.7 844.7,99.0 847.0,98.1 849.3,97.2 851.6,96.4 853.8,95.6 856.1,94.8 858.4,94.0 860.6,93.3 862.9,92.4 865.2,91.7 867.5,90.9 869.7,90.0 872.0,90.0" fill="none" stroke="#38bdf8" stroke-width="2.5" stroke-linejoin="round" stroke-linecap="round"/>
<circle cx="872.0" cy="90.0" r="4" fill="#0ea5e9"/>
<text x="866.0" y="80.0" text-anchor="end" font-family="Inter, system-ui, sans-serif" font-size="13" font-weight="700" fill="#334155">4065</text>
<text x="52.0" y="294" text-anchor="middle" font-family="Inter, system-ui, sans-serif" font-size="11" fill="#94a3b8">Jun 10 05:00</text>
<text x="574.4" y="294" text-anchor="middle" font-family="Inter, system-ui, sans-serif" font-size="11" fill="#94a3b8">Jun 19 19:00</text>
<text x="872.0" y="294" text-anchor="middle" font-family="Inter, system-ui, sans-serif" font-size="11" fill="#94a3b8">Jun 25 06:00</text>
</svg>
