<svg xmlns="http://www.w3.org/2000/svg" width="900" height="320" viewBox="0 0 900 320" role="img" aria-labelledby="title desc">
<title id="title">unsorry proofs over time</title>
<desc id="desc">Cumulative kernel-verified proofs over time, by the hour each proof was merged.</desc>
<rect width="900" height="100%" rx="18" fill="#ffffff"/>
<rect x="0.5" y="0.5" width="899" height="319" rx="18" fill="none" stroke="#e2e8f0"/>
<text x="32" y="44" font-family="Inter, system-ui, sans-serif" font-size="28" font-weight="700" fill="#334155">unsorry — Proofs Over Time</text>
<text x="32" y="72" font-family="Inter, system-ui, sans-serif" font-size="13" fill="#64748b">3487 cumulative kernel-verified proofs · merged, hourly</text>
<line x1="52" y1="272.0" x2="872" y2="272.0" stroke="#f1f5f9"/>
<text x="44" y="276.0" text-anchor="end" font-family="Inter, system-ui, sans-serif" font-size="11" fill="#94a3b8">0</text>
<line x1="52" y1="226.5" x2="872" y2="226.5" stroke="#f1f5f9"/>
<text x="44" y="230.5" text-anchor="end" font-family="Inter, system-ui, sans-serif" font-size="11" fill="#94a3b8">872</text>
<line x1="52" y1="181.0" x2="872" y2="181.0" stroke="#f1f5f9"/>
<text x="44" y="185.0" text-anchor="end" font-family="Inter, system-ui, sans-serif" font-size="11" fill="#94a3b8">1744</text>
<line x1="52" y1="135.5" x2="872" y2="135.5" stroke="#f1f5f9"/>
<text x="44" y="139.5" text-anchor="end" font-family="Inter, system-ui, sans-serif" font-size="11" fill="#94a3b8">2615</text>
<line x1="52" y1="90.0" x2="872" y2="90.0" stroke="#f1f5f9"/>
<text x="44" y="94.0" text-anchor="end" font-family="Inter, system-ui, sans-serif" font-size="11" fill="#94a3b8">3487</text>
<polygon points="52.0,272.0 52.0,271.9 54.5,271.8 84.3,271.3 86.8,271.2 89.3,271.1 96.7,271.1 111.6,271.0 143.9,271.0 146.4,270.5 148.9,270.4 156.4,270.3 158.8,270.3 161.3,270.2 163.8,270.1 168.8,270.0 171.3,269.8 178.7,269.5 188.7,269.4 191.2,269.3 193.6,269.2 213.5,269.1 218.5,269.1 230.9,269.0 233.4,269.0 235.9,268.9 245.8,268.8 248.3,268.5 250.8,268.2 253.3,267.6 255.8,267.5 273.2,267.4 280.6,267.4 285.6,267.3 288.1,267.3 290.5,267.0 293.0,266.9 295.5,266.9 298.0,266.7 300.5,266.6 310.4,266.3 315.4,266.3 325.3,266.2 327.8,265.9 330.3,265.9 332.8,265.8 337.8,265.7 340.2,264.7 342.7,263.6 345.2,263.3 347.7,263.0 350.2,262.9 352.7,262.7 355.2,262.3 357.6,262.0 360.1,261.9 362.6,261.8 367.6,261.6 370.1,261.2 372.5,260.8 375.0,260.4 377.5,260.1 382.5,260.0 387.5,259.9 389.9,259.6 392.4,259.3 394.9,258.6 397.4,258.2 399.9,257.8 402.4,257.3 404.8,256.9 407.3,256.4 409.8,255.9 412.3,255.3 414.8,254.8 417.3,254.3 419.8,254.0 422.2,253.6 424.7,253.2 427.2,253.0 429.7,252.7 432.2,252.5 434.7,252.4 437.2,252.3 442.1,252.2 444.6,251.2 447.1,250.4 449.6,250.3 452.1,250.2 457.0,250.1 459.5,250.0 469.5,249.9 474.4,249.8 481.9,249.8 484.4,248.6 486.8,247.4 489.3,247.1 491.8,246.2 494.3,245.4 496.8,245.0 499.3,244.7 501.8,244.2 504.2,244.0 506.7,243.9 509.2,243.7 511.7,243.6 526.6,242.8 529.1,241.7 531.6,241.6 534.1,241.4 536.5,241.4 553.9,241.3 576.3,240.2 578.8,239.4 581.3,238.4 583.8,236.9 586.2,236.7 588.7,236.2 591.2,235.4 593.7,234.7 596.2,233.3 598.7,231.2 601.2,229.2 603.6,226.8 606.1,224.3 608.6,222.1 611.1,220.7 613.6,219.1 616.1,216.7 618.5,214.7 621.0,213.3 623.5,211.9 626.0,209.9 628.5,208.7 631.0,207.4 633.5,206.3 635.9,205.5 638.4,204.4 640.9,203.7 643.4,203.0 645.9,202.4 648.4,200.5 650.8,199.0 653.3,198.1 655.8,197.9 658.3,197.4 660.8,196.6 663.3,196.0 665.8,194.7 668.2,193.9 670.7,193.2 673.2,193.1 675.7,192.8 678.2,192.2 680.7,190.7 683.2,188.2 685.6,185.7 688.1,183.1 690.6,181.0 693.1,178.6 695.6,176.0 698.1,173.3 700.5,170.8 703.0,169.1 705.5,167.7 708.0,166.0 710.5,164.5 713.0,163.4 715.5,162.2 717.9,161.2 720.4,159.9 722.9,158.1 725.4,155.9 727.9,154.0 730.4,152.4 732.8,151.4 735.3,150.4 737.8,149.5 740.3,148.5 742.8,146.7 745.3,145.2 747.8,143.3 750.2,141.5 752.7,139.9 755.2,138.6 757.7,138.1 760.2,137.4 762.7,136.7 765.2,136.6 767.6,136.5 770.1,136.1 772.6,135.9 775.1,135.9 777.6,135.6 780.1,135.5 787.5,135.5 790.0,135.4 792.5,135.1 795.0,133.0 797.5,131.1 799.9,129.5 802.4,127.7 804.9,126.1 807.4,124.4 809.9,122.7 812.4,121.2 814.8,119.4 817.3,117.9 819.8,116.3 822.3,114.7 824.8,113.2 827.3,111.6 829.8,110.1 832.2,108.8 834.7,107.3 837.2,105.9 839.7,104.4 842.2,103.0 844.7,101.6 847.2,100.7 849.6,99.8 852.1,98.8 854.6,97.5 857.1,96.3 859.6,95.1 862.1,93.7 864.5,92.5 867.0,91.4 869.5,90.2 872.0,90.0 872.0,272.0" fill="#e0f2fe" opacity="0.55"/>
<polyline points="52.0,271.9 54.5,271.8 84.3,271.3 86.8,271.2 89.3,271.1 96.7,271.1 111.6,271.0 143.9,271.0 146.4,270.5 148.9,270.4 156.4,270.3 158.8,270.3 161.3,270.2 163.8,270.1 168.8,270.0 171.3,269.8 178.7,269.5 188.7,269.4 191.2,269.3 193.6,269.2 213.5,269.1 218.5,269.1 230.9,269.0 233.4,269.0 235.9,268.9 245.8,268.8 248.3,268.5 250.8,268.2 253.3,267.6 255.8,267.5 273.2,267.4 280.6,267.4 285.6,267.3 288.1,267.3 290.5,267.0 293.0,266.9 295.5,266.9 298.0,266.7 300.5,266.6 310.4,266.3 315.4,266.3 325.3,266.2 327.8,265.9 330.3,265.9 332.8,265.8 337.8,265.7 340.2,264.7 342.7,263.6 345.2,263.3 347.7,263.0 350.2,262.9 352.7,262.7 355.2,262.3 357.6,262.0 360.1,261.9 362.6,261.8 367.6,261.6 370.1,261.2 372.5,260.8 375.0,260.4 377.5,260.1 382.5,260.0 387.5,259.9 389.9,259.6 392.4,259.3 394.9,258.6 397.4,258.2 399.9,257.8 402.4,257.3 404.8,256.9 407.3,256.4 409.8,255.9 412.3,255.3 414.8,254.8 417.3,254.3 419.8,254.0 422.2,253.6 424.7,253.2 427.2,253.0 429.7,252.7 432.2,252.5 434.7,252.4 437.2,252.3 442.1,252.2 444.6,251.2 447.1,250.4 449.6,250.3 452.1,250.2 457.0,250.1 459.5,250.0 469.5,249.9 474.4,249.8 481.9,249.8 484.4,248.6 486.8,247.4 489.3,247.1 491.8,246.2 494.3,245.4 496.8,245.0 499.3,244.7 501.8,244.2 504.2,244.0 506.7,243.9 509.2,243.7 511.7,243.6 526.6,242.8 529.1,241.7 531.6,241.6 534.1,241.4 536.5,241.4 553.9,241.3 576.3,240.2 578.8,239.4 581.3,238.4 583.8,236.9 586.2,236.7 588.7,236.2 591.2,235.4 593.7,234.7 596.2,233.3 598.7,231.2 601.2,229.2 603.6,226.8 606.1,224.3 608.6,222.1 611.1,220.7 613.6,219.1 616.1,216.7 618.5,214.7 621.0,213.3 623.5,211.9 626.0,209.9 628.5,208.7 631.0,207.4 633.5,206.3 635.9,205.5 638.4,204.4 640.9,203.7 643.4,203.0 645.9,202.4 648.4,200.5 650.8,199.0 653.3,198.1 655.8,197.9 658.3,197.4 660.8,196.6 663.3,196.0 665.8,194.7 668.2,193.9 670.7,193.2 673.2,193.1 675.7,192.8 678.2,192.2 680.7,190.7 683.2,188.2 685.6,185.7 688.1,183.1 690.6,181.0 693.1,178.6 695.6,176.0 698.1,173.3 700.5,170.8 703.0,169.1 705.5,167.7 708.0,166.0 710.5,164.5 713.0,163.4 715.5,162.2 717.9,161.2 720.4,159.9 722.9,158.1 725.4,155.9 727.9,154.0 730.4,152.4 732.8,151.4 735.3,150.4 737.8,149.5 740.3,148.5 742.8,146.7 745.3,145.2 747.8,143.3 750.2,141.5 752.7,139.9 755.2,138.6 757.7,138.1 760.2,137.4 762.7,136.7 765.2,136.6 767.6,136.5 770.1,136.1 772.6,135.9 775.1,135.9 777.6,135.6 780.1,135.5 787.5,135.5 790.0,135.4 792.5,135.1 795.0,133.0 797.5,131.1 799.9,129.5 802.4,127.7 804.9,126.1 807.4,124.4 809.9,122.7 812.4,121.2 814.8,119.4 817.3,117.9 819.8,116.3 822.3,114.7 824.8,113.2 827.3,111.6 829.8,110.1 832.2,108.8 834.7,107.3 837.2,105.9 839.7,104.4 842.2,103.0 844.7,101.6 847.2,100.7 849.6,99.8 852.1,98.8 854.6,97.5 857.1,96.3 859.6,95.1 862.1,93.7 864.5,92.5 867.0,91.4 869.5,90.2 872.0,90.0" fill="none" stroke="#38bdf8" stroke-width="2.5" stroke-linejoin="round" stroke-linecap="round"/>
<circle cx="872.0" cy="90.0" r="4" fill="#0ea5e9"/>
<text x="866.0" y="80.0" text-anchor="end" font-family="Inter, system-ui, sans-serif" font-size="13" font-weight="700" fill="#334155">3487</text>
<text x="52.0" y="294" text-anchor="middle" font-family="Inter, system-ui, sans-serif" font-size="11" fill="#94a3b8">Jun 10 05:00</text>
<text x="583.8" y="294" text-anchor="middle" font-family="Inter, system-ui, sans-serif" font-size="11" fill="#94a3b8">Jun 19 03:00</text>
<text x="872.0" y="294" text-anchor="middle" font-family="Inter, system-ui, sans-serif" font-size="11" fill="#94a3b8">Jun 23 23:00</text>
</svg>
