<svg xmlns="http://www.w3.org/2000/svg" width="900" height="320" viewBox="0 0 900 320" role="img" aria-labelledby="title desc">
<title id="title">unsorry proofs over time</title>
<desc id="desc">Cumulative kernel-verified proofs over time, by the hour each proof was merged.</desc>
<rect width="900" height="100%" rx="18" fill="#ffffff"/>
<rect x="0.5" y="0.5" width="899" height="319" rx="18" fill="none" stroke="#e2e8f0"/>
<text x="32" y="44" font-family="Inter, system-ui, sans-serif" font-size="28" font-weight="700" fill="#334155">unsorry — Proofs Over Time</text>
<text x="32" y="72" font-family="Inter, system-ui, sans-serif" font-size="13" fill="#64748b">3209 cumulative kernel-verified proofs · merged, hourly</text>
<line x1="52" y1="272.0" x2="872" y2="272.0" stroke="#f1f5f9"/>
<text x="44" y="276.0" text-anchor="end" font-family="Inter, system-ui, sans-serif" font-size="11" fill="#94a3b8">0</text>
<line x1="52" y1="226.5" x2="872" y2="226.5" stroke="#f1f5f9"/>
<text x="44" y="230.5" text-anchor="end" font-family="Inter, system-ui, sans-serif" font-size="11" fill="#94a3b8">802</text>
<line x1="52" y1="181.0" x2="872" y2="181.0" stroke="#f1f5f9"/>
<text x="44" y="185.0" text-anchor="end" font-family="Inter, system-ui, sans-serif" font-size="11" fill="#94a3b8">1604</text>
<line x1="52" y1="135.5" x2="872" y2="135.5" stroke="#f1f5f9"/>
<text x="44" y="139.5" text-anchor="end" font-family="Inter, system-ui, sans-serif" font-size="11" fill="#94a3b8">2407</text>
<line x1="52" y1="90.0" x2="872" y2="90.0" stroke="#f1f5f9"/>
<text x="44" y="94.0" text-anchor="end" font-family="Inter, system-ui, sans-serif" font-size="11" fill="#94a3b8">3209</text>
<polygon points="52.0,272.0 52.0,271.9 54.6,271.8 85.6,271.3 88.2,271.1 90.8,271.0 98.6,271.0 114.1,270.9 147.7,270.9 150.3,270.4 152.9,270.3 160.6,270.2 163.2,270.1 165.8,270.1 168.4,269.9 173.6,269.8 176.2,269.6 183.9,269.3 194.3,269.2 196.9,269.1 199.4,268.9 220.1,268.9 225.3,268.8 238.2,268.8 240.8,268.7 243.4,268.6 253.8,268.5 256.4,268.2 258.9,267.9 261.5,267.2 264.1,267.1 282.2,267.0 290.0,267.0 295.2,266.9 297.7,266.8 300.3,266.6 302.9,266.5 305.5,266.4 308.1,266.3 310.7,266.1 321.0,265.8 326.2,265.8 336.5,265.7 339.1,265.4 341.7,265.4 344.3,265.3 349.5,265.2 352.1,264.1 354.6,262.9 357.2,262.5 359.8,262.2 362.4,262.1 365.0,261.8 367.6,261.5 370.2,261.2 372.8,261.0 375.3,260.9 380.5,260.7 383.1,260.3 385.7,259.8 388.3,259.4 390.9,259.1 396.0,259.0 401.2,258.9 403.8,258.5 406.4,258.2 409.0,257.4 411.6,257.0 414.1,256.5 416.7,256.1 419.3,255.6 421.9,255.0 424.5,254.5 427.1,253.9 429.7,253.3 432.3,252.8 434.8,252.4 437.4,252.0 440.0,251.6 442.6,251.4 445.2,251.1 447.8,250.8 450.4,250.7 452.9,250.6 458.1,250.5 460.7,249.4 463.3,248.6 465.9,248.4 468.5,248.3 473.6,248.2 476.2,248.1 486.6,248.0 491.7,247.9 499.5,247.8 502.1,246.5 504.7,245.3 507.3,244.9 509.9,243.9 512.4,243.1 515.0,242.6 517.6,242.3 520.2,241.8 522.8,241.6 525.4,241.5 528.0,241.3 530.5,241.1 546.1,240.2 548.7,239.1 551.2,238.9 553.8,238.8 556.4,238.7 574.5,238.7 597.8,237.5 600.4,236.6 603.0,235.5 605.6,233.9 608.2,233.6 610.7,233.1 613.3,232.2 615.9,231.5 618.5,230.0 621.1,227.7 623.7,225.5 626.3,222.9 628.8,220.2 631.4,217.8 634.0,216.3 636.6,214.5 639.2,211.9 641.8,209.7 644.4,208.3 647.0,206.7 649.5,204.6 652.1,203.2 654.7,201.8 657.3,200.7 659.9,199.7 662.5,198.6 665.1,197.8 667.6,197.0 670.2,196.3 672.8,194.3 675.4,192.7 678.0,191.7 680.6,191.5 683.2,191.0 685.8,190.1 688.3,189.4 690.9,188.0 693.5,187.2 696.1,186.4 698.7,186.2 701.3,185.9 703.9,185.3 706.4,183.6 709.0,181.0 711.6,178.2 714.2,175.4 716.8,173.1 719.4,170.5 722.0,167.6 724.6,164.8 727.1,162.1 729.7,160.2 732.3,158.6 734.9,156.9 737.5,155.2 740.1,154.0 742.7,152.7 745.2,151.6 747.8,150.2 750.4,148.2 753.0,145.8 755.6,143.8 758.2,142.1 760.8,140.9 763.4,139.9 765.9,138.9 768.5,137.8 771.1,135.8 773.7,134.2 776.3,132.2 778.9,130.2 781.5,128.5 784.1,127.1 786.6,126.5 789.2,125.7 791.8,124.9 794.4,124.8 797.0,124.7 799.6,124.3 802.2,124.1 804.7,124.1 807.3,123.8 809.9,123.7 817.7,123.6 820.3,123.6 822.9,123.2 825.4,120.9 828.0,118.9 830.6,117.2 833.2,115.2 835.8,113.4 838.4,111.7 841.0,109.8 843.5,108.1 846.1,106.2 848.7,104.5 851.3,102.8 853.9,101.1 856.5,99.4 859.1,97.7 861.7,96.1 864.2,94.7 866.8,93.1 869.4,91.5 872.0,90.0 872.0,272.0" fill="#e0f2fe" opacity="0.55"/>
<polyline points="52.0,271.9 54.6,271.8 85.6,271.3 88.2,271.1 90.8,271.0 98.6,271.0 114.1,270.9 147.7,270.9 150.3,270.4 152.9,270.3 160.6,270.2 163.2,270.1 165.8,270.1 168.4,269.9 173.6,269.8 176.2,269.6 183.9,269.3 194.3,269.2 196.9,269.1 199.4,268.9 220.1,268.9 225.3,268.8 238.2,268.8 240.8,268.7 243.4,268.6 253.8,268.5 256.4,268.2 258.9,267.9 261.5,267.2 264.1,267.1 282.2,267.0 290.0,267.0 295.2,266.9 297.7,266.8 300.3,266.6 302.9,266.5 305.5,266.4 308.1,266.3 310.7,266.1 321.0,265.8 326.2,265.8 336.5,265.7 339.1,265.4 341.7,265.4 344.3,265.3 349.5,265.2 352.1,264.1 354.6,262.9 357.2,262.5 359.8,262.2 362.4,262.1 365.0,261.8 367.6,261.5 370.2,261.2 372.8,261.0 375.3,260.9 380.5,260.7 383.1,260.3 385.7,259.8 388.3,259.4 390.9,259.1 396.0,259.0 401.2,258.9 403.8,258.5 406.4,258.2 409.0,257.4 411.6,257.0 414.1,256.5 416.7,256.1 419.3,255.6 421.9,255.0 424.5,254.5 427.1,253.9 429.7,253.3 432.3,252.8 434.8,252.4 437.4,252.0 440.0,251.6 442.6,251.4 445.2,251.1 447.8,250.8 450.4,250.7 452.9,250.6 458.1,250.5 460.7,249.4 463.3,248.6 465.9,248.4 468.5,248.3 473.6,248.2 476.2,248.1 486.6,248.0 491.7,247.9 499.5,247.8 502.1,246.5 504.7,245.3 507.3,244.9 509.9,243.9 512.4,243.1 515.0,242.6 517.6,242.3 520.2,241.8 522.8,241.6 525.4,241.5 528.0,241.3 530.5,241.1 546.1,240.2 548.7,239.1 551.2,238.9 553.8,238.8 556.4,238.7 574.5,238.7 597.8,237.5 600.4,236.6 603.0,235.5 605.6,233.9 608.2,233.6 610.7,233.1 613.3,232.2 615.9,231.5 618.5,230.0 621.1,227.7 623.7,225.5 626.3,222.9 628.8,220.2 631.4,217.8 634.0,216.3 636.6,214.5 639.2,211.9 641.8,209.7 644.4,208.3 647.0,206.7 649.5,204.6 652.1,203.2 654.7,201.8 657.3,200.7 659.9,199.7 662.5,198.6 665.1,197.8 667.6,197.0 670.2,196.3 672.8,194.3 675.4,192.7 678.0,191.7 680.6,191.5 683.2,191.0 685.8,190.1 688.3,189.4 690.9,188.0 693.5,187.2 696.1,186.4 698.7,186.2 701.3,185.9 703.9,185.3 706.4,183.6 709.0,181.0 711.6,178.2 714.2,175.4 716.8,173.1 719.4,170.5 722.0,167.6 724.6,164.8 727.1,162.1 729.7,160.2 732.3,158.6 734.9,156.9 737.5,155.2 740.1,154.0 742.7,152.7 745.2,151.6 747.8,150.2 750.4,148.2 753.0,145.8 755.6,143.8 758.2,142.1 760.8,140.9 763.4,139.9 765.9,138.9 768.5,137.8 771.1,135.8 773.7,134.2 776.3,132.2 778.9,130.2 781.5,128.5 784.1,127.1 786.6,126.5 789.2,125.7 791.8,124.9 794.4,124.8 797.0,124.7 799.6,124.3 802.2,124.1 804.7,124.1 807.3,123.8 809.9,123.7 817.7,123.6 820.3,123.6 822.9,123.2 825.4,120.9 828.0,118.9 830.6,117.2 833.2,115.2 835.8,113.4 838.4,111.7 841.0,109.8 843.5,108.1 846.1,106.2 848.7,104.5 851.3,102.8 853.9,101.1 856.5,99.4 859.1,97.7 861.7,96.1 864.2,94.7 866.8,93.1 869.4,91.5 872.0,90.0" fill="none" stroke="#38bdf8" stroke-width="2.5" stroke-linejoin="round" stroke-linecap="round"/>
<circle cx="872.0" cy="90.0" r="4" fill="#0ea5e9"/>
<text x="866.0" y="80.0" text-anchor="end" font-family="Inter, system-ui, sans-serif" font-size="13" font-weight="700" fill="#334155">3209</text>
<text x="52.0" y="294" text-anchor="middle" font-family="Inter, system-ui, sans-serif" font-size="11" fill="#94a3b8">Jun 10 05:00</text>
<text x="553.8" y="294" text-anchor="middle" font-family="Inter, system-ui, sans-serif" font-size="11" fill="#94a3b8">Jun 18 07:00</text>
<text x="872.0" y="294" text-anchor="middle" font-family="Inter, system-ui, sans-serif" font-size="11" fill="#94a3b8">Jun 23 10:00</text>
</svg>
