<svg xmlns="http://www.w3.org/2000/svg" width="900" height="320" viewBox="0 0 900 320" role="img" aria-labelledby="title desc">
<title id="title">unsorry proofs over time</title>
<desc id="desc">Cumulative kernel-verified proofs over time, by the hour each proof was merged.</desc>
<rect width="900" height="100%" rx="18" fill="#ffffff"/>
<rect x="0.5" y="0.5" width="899" height="319" rx="18" fill="none" stroke="#e2e8f0"/>
<text x="32" y="44" font-family="Inter, system-ui, sans-serif" font-size="28" font-weight="700" fill="#334155">unsorry — Proofs Over Time</text>
<text x="32" y="72" font-family="Inter, system-ui, sans-serif" font-size="13" fill="#64748b">3003 cumulative kernel-verified proofs · merged, hourly</text>
<line x1="52" y1="272.0" x2="872" y2="272.0" stroke="#f1f5f9"/>
<text x="44" y="276.0" text-anchor="end" font-family="Inter, system-ui, sans-serif" font-size="11" fill="#94a3b8">0</text>
<line x1="52" y1="226.5" x2="872" y2="226.5" stroke="#f1f5f9"/>
<text x="44" y="230.5" text-anchor="end" font-family="Inter, system-ui, sans-serif" font-size="11" fill="#94a3b8">751</text>
<line x1="52" y1="181.0" x2="872" y2="181.0" stroke="#f1f5f9"/>
<text x="44" y="185.0" text-anchor="end" font-family="Inter, system-ui, sans-serif" font-size="11" fill="#94a3b8">1502</text>
<line x1="52" y1="135.5" x2="872" y2="135.5" stroke="#f1f5f9"/>
<text x="44" y="139.5" text-anchor="end" font-family="Inter, system-ui, sans-serif" font-size="11" fill="#94a3b8">2252</text>
<line x1="52" y1="90.0" x2="872" y2="90.0" stroke="#f1f5f9"/>
<text x="44" y="94.0" text-anchor="end" font-family="Inter, system-ui, sans-serif" font-size="11" fill="#94a3b8">3003</text>
<polygon points="52.0,272.0 52.0,271.9 54.6,271.8 86.4,271.2 89.0,271.0 91.7,271.0 99.6,270.9 115.5,270.8 149.9,270.8 152.5,270.2 155.2,270.2 163.1,270.1 165.7,270.0 168.4,269.9 171.0,269.8 176.3,269.7 179.0,269.4 186.9,269.2 197.5,269.0 200.1,268.8 202.8,268.7 223.9,268.7 229.2,268.6 242.5,268.5 245.1,268.5 247.7,268.4 258.3,268.3 261.0,267.9 263.6,267.6 266.3,266.8 268.9,266.7 287.4,266.7 295.4,266.6 300.6,266.5 303.3,266.5 305.9,266.2 308.6,266.1 311.2,266.1 313.9,265.9 316.5,265.7 327.1,265.4 332.4,265.3 343.0,265.3 345.6,265.0 348.3,264.9 350.9,264.8 356.2,264.7 358.8,263.5 361.5,262.3 364.1,261.9 366.8,261.6 369.4,261.5 372.1,261.2 374.7,260.7 377.4,260.4 380.0,260.2 382.6,260.1 387.9,259.9 390.6,259.5 393.2,259.0 395.9,258.5 398.5,258.2 403.8,258.1 409.1,258.0 411.7,257.6 414.4,257.3 417.0,256.4 419.7,255.9 422.3,255.5 425.0,255.0 427.6,254.4 430.3,253.9 432.9,253.3 435.5,252.6 438.2,252.0 440.8,251.5 443.5,251.1 446.1,250.7 448.8,250.2 451.4,249.9 454.1,249.6 456.7,249.3 459.4,249.2 462.0,249.1 467.3,249.0 469.9,247.8 472.6,247.0 475.2,246.8 477.9,246.7 483.2,246.6 485.8,246.4 496.4,246.4 501.7,246.2 509.6,246.2 512.3,244.8 514.9,243.5 517.5,243.1 520.2,242.0 522.8,241.2 525.5,240.6 528.1,240.3 530.8,239.8 533.4,239.5 536.1,239.4 538.7,239.2 541.4,239.0 557.2,238.1 559.9,236.8 562.5,236.7 565.2,236.5 567.8,236.4 586.3,236.4 610.1,235.1 612.8,234.1 615.4,233.0 618.1,231.3 620.7,231.0 623.4,230.4 626.0,229.5 628.6,228.7 631.3,227.1 633.9,224.7 636.6,222.3 639.2,219.5 641.9,216.6 644.5,214.1 647.2,212.5 649.8,210.6 652.5,207.8 655.1,205.5 657.7,203.9 660.4,202.2 663.0,199.9 665.7,198.5 668.3,197.0 671.0,195.8 673.6,194.8 676.3,193.5 678.9,192.7 681.5,191.9 684.2,191.2 686.8,189.0 689.5,187.2 692.1,186.2 694.8,185.9 697.4,185.4 700.1,184.5 702.7,183.7 705.4,182.2 708.0,181.3 710.6,180.5 713.3,180.4 715.9,180.0 718.6,179.3 721.2,177.6 723.9,174.7 726.5,171.8 729.2,168.8 731.8,166.4 734.5,163.5 737.1,160.5 739.7,157.4 742.4,154.5 745.0,152.5 747.7,150.8 750.3,149.0 753.0,147.2 755.6,145.9 758.3,144.5 760.9,143.4 763.5,141.8 766.2,139.7 768.8,137.2 771.5,135.0 774.1,133.2 776.8,131.9 779.4,130.8 782.1,129.8 784.7,128.5 787.4,126.5 790.0,124.7 792.6,122.6 795.3,120.4 797.9,118.6 800.6,117.2 803.2,116.5 805.9,115.7 808.5,114.8 811.2,114.7 813.8,114.6 816.5,114.2 819.1,114.0 821.7,113.9 824.4,113.6 827.0,113.5 835.0,113.5 837.6,113.4 840.3,113.0 842.9,110.5 845.5,108.4 848.2,106.5 850.8,104.4 853.5,102.5 856.1,100.7 858.8,98.7 861.4,96.8 864.1,94.8 866.7,93.0 869.4,91.2 872.0,90.0 872.0,272.0" fill="#e0f2fe" opacity="0.55"/>
<polyline points="52.0,271.9 54.6,271.8 86.4,271.2 89.0,271.0 91.7,271.0 99.6,270.9 115.5,270.8 149.9,270.8 152.5,270.2 155.2,270.2 163.1,270.1 165.7,270.0 168.4,269.9 171.0,269.8 176.3,269.7 179.0,269.4 186.9,269.2 197.5,269.0 200.1,268.8 202.8,268.7 223.9,268.7 229.2,268.6 242.5,268.5 245.1,268.5 247.7,268.4 258.3,268.3 261.0,267.9 263.6,267.6 266.3,266.8 268.9,266.7 287.4,266.7 295.4,266.6 300.6,266.5 303.3,266.5 305.9,266.2 308.6,266.1 311.2,266.1 313.9,265.9 316.5,265.7 327.1,265.4 332.4,265.3 343.0,265.3 345.6,265.0 348.3,264.9 350.9,264.8 356.2,264.7 358.8,263.5 361.5,262.3 364.1,261.9 366.8,261.6 369.4,261.5 372.1,261.2 374.7,260.7 377.4,260.4 380.0,260.2 382.6,260.1 387.9,259.9 390.6,259.5 393.2,259.0 395.9,258.5 398.5,258.2 403.8,258.1 409.1,258.0 411.7,257.6 414.4,257.3 417.0,256.4 419.7,255.9 422.3,255.5 425.0,255.0 427.6,254.4 430.3,253.9 432.9,253.3 435.5,252.6 438.2,252.0 440.8,251.5 443.5,251.1 446.1,250.7 448.8,250.2 451.4,249.9 454.1,249.6 456.7,249.3 459.4,249.2 462.0,249.1 467.3,249.0 469.9,247.8 472.6,247.0 475.2,246.8 477.9,246.7 483.2,246.6 485.8,246.4 496.4,246.4 501.7,246.2 509.6,246.2 512.3,244.8 514.9,243.5 517.5,243.1 520.2,242.0 522.8,241.2 525.5,240.6 528.1,240.3 530.8,239.8 533.4,239.5 536.1,239.4 538.7,239.2 541.4,239.0 557.2,238.1 559.9,236.8 562.5,236.7 565.2,236.5 567.8,236.4 586.3,236.4 610.1,235.1 612.8,234.1 615.4,233.0 618.1,231.3 620.7,231.0 623.4,230.4 626.0,229.5 628.6,228.7 631.3,227.1 633.9,224.7 636.6,222.3 639.2,219.5 641.9,216.6 644.5,214.1 647.2,212.5 649.8,210.6 652.5,207.8 655.1,205.5 657.7,203.9 660.4,202.2 663.0,199.9 665.7,198.5 668.3,197.0 671.0,195.8 673.6,194.8 676.3,193.5 678.9,192.7 681.5,191.9 684.2,191.2 686.8,189.0 689.5,187.2 692.1,186.2 694.8,185.9 697.4,185.4 700.1,184.5 702.7,183.7 705.4,182.2 708.0,181.3 710.6,180.5 713.3,180.4 715.9,180.0 718.6,179.3 721.2,177.6 723.9,174.7 726.5,171.8 729.2,168.8 731.8,166.4 734.5,163.5 737.1,160.5 739.7,157.4 742.4,154.5 745.0,152.5 747.7,150.8 750.3,149.0 753.0,147.2 755.6,145.9 758.3,144.5 760.9,143.4 763.5,141.8 766.2,139.7 768.8,137.2 771.5,135.0 774.1,133.2 776.8,131.9 779.4,130.8 782.1,129.8 784.7,128.5 787.4,126.5 790.0,124.7 792.6,122.6 795.3,120.4 797.9,118.6 800.6,117.2 803.2,116.5 805.9,115.7 808.5,114.8 811.2,114.7 813.8,114.6 816.5,114.2 819.1,114.0 821.7,113.9 824.4,113.6 827.0,113.5 835.0,113.5 837.6,113.4 840.3,113.0 842.9,110.5 845.5,108.4 848.2,106.5 850.8,104.4 853.5,102.5 856.1,100.7 858.8,98.7 861.4,96.8 864.1,94.8 866.7,93.0 869.4,91.2 872.0,90.0" fill="none" stroke="#38bdf8" stroke-width="2.5" stroke-linejoin="round" stroke-linecap="round"/>
<circle cx="872.0" cy="90.0" r="4" fill="#0ea5e9"/>
<text x="866.0" y="80.0" text-anchor="end" font-family="Inter, system-ui, sans-serif" font-size="13" font-weight="700" fill="#334155">3003</text>
<text x="52.0" y="294" text-anchor="middle" font-family="Inter, system-ui, sans-serif" font-size="11" fill="#94a3b8">Jun 10 05:00</text>
<text x="541.4" y="294" text-anchor="middle" font-family="Inter, system-ui, sans-serif" font-size="11" fill="#94a3b8">Jun 17 22:00</text>
<text x="872.0" y="294" text-anchor="middle" font-family="Inter, system-ui, sans-serif" font-size="11" fill="#94a3b8">Jun 23 03:00</text>
</svg>
