<svg xmlns="http://www.w3.org/2000/svg" width="900" height="320" viewBox="0 0 900 320" role="img" aria-labelledby="title desc">
<title id="title">unsorry proofs over time</title>
<desc id="desc">Cumulative kernel-verified proofs over time, by the hour each proof was merged.</desc>
<rect width="900" height="100%" rx="18" fill="#ffffff"/>
<rect x="0.5" y="0.5" width="899" height="319" rx="18" fill="none" stroke="#e2e8f0"/>
<text x="32" y="44" font-family="Inter, system-ui, sans-serif" font-size="28" font-weight="700" fill="#334155">unsorry — Proofs Over Time</text>
<text x="32" y="72" font-family="Inter, system-ui, sans-serif" font-size="13" fill="#64748b">3285 cumulative kernel-verified proofs · merged, hourly</text>
<line x1="52" y1="272.0" x2="872" y2="272.0" stroke="#f1f5f9"/>
<text x="44" y="276.0" text-anchor="end" font-family="Inter, system-ui, sans-serif" font-size="11" fill="#94a3b8">0</text>
<line x1="52" y1="226.5" x2="872" y2="226.5" stroke="#f1f5f9"/>
<text x="44" y="230.5" text-anchor="end" font-family="Inter, system-ui, sans-serif" font-size="11" fill="#94a3b8">821</text>
<line x1="52" y1="181.0" x2="872" y2="181.0" stroke="#f1f5f9"/>
<text x="44" y="185.0" text-anchor="end" font-family="Inter, system-ui, sans-serif" font-size="11" fill="#94a3b8">1642</text>
<line x1="52" y1="135.5" x2="872" y2="135.5" stroke="#f1f5f9"/>
<text x="44" y="139.5" text-anchor="end" font-family="Inter, system-ui, sans-serif" font-size="11" fill="#94a3b8">2464</text>
<line x1="52" y1="90.0" x2="872" y2="90.0" stroke="#f1f5f9"/>
<text x="44" y="94.0" text-anchor="end" font-family="Inter, system-ui, sans-serif" font-size="11" fill="#94a3b8">3285</text>
<polygon points="52.0,272.0 52.0,271.9 54.6,271.8 85.2,271.3 87.8,271.1 90.3,271.1 98.0,271.0 113.3,270.9 146.5,270.9 149.1,270.4 151.6,270.3 159.3,270.2 161.8,270.2 164.4,270.1 167.0,270.0 172.1,269.9 174.6,269.6 182.3,269.4 192.5,269.3 195.1,269.1 197.6,269.0 218.0,269.0 223.2,268.9 235.9,268.8 238.5,268.8 241.0,268.7 251.3,268.6 253.8,268.3 256.4,268.0 258.9,267.3 261.5,267.2 279.4,267.1 287.0,267.1 292.1,267.0 294.7,267.0 297.2,266.7 299.8,266.6 302.3,266.6 304.9,266.4 307.5,266.2 317.7,266.0 322.8,265.9 333.0,265.9 335.6,265.6 338.1,265.5 340.7,265.4 345.8,265.4 348.3,264.2 350.9,263.1 353.4,262.7 356.0,262.5 358.5,262.4 361.1,262.1 363.7,261.7 366.2,261.4 368.8,261.3 371.3,261.1 376.4,261.0 379.0,260.5 381.5,260.1 384.1,259.6 386.6,259.4 391.8,259.3 396.9,259.2 399.4,258.8 402.0,258.5 404.5,257.8 407.1,257.3 409.6,256.9 412.2,256.4 414.7,255.9 417.3,255.4 419.9,254.9 422.4,254.3 425.0,253.7 427.5,253.2 430.1,252.9 432.6,252.5 435.2,252.1 437.7,251.8 440.3,251.6 442.8,251.3 445.4,251.2 448.0,251.1 453.1,251.0 455.6,249.9 458.2,249.1 460.7,249.0 463.3,248.9 468.4,248.8 470.9,248.6 481.2,248.6 486.3,248.5 493.9,248.4 496.5,247.1 499.0,245.9 501.6,245.6 504.1,244.6 506.7,243.8 509.3,243.3 511.8,243.0 514.4,242.5 516.9,242.3 519.5,242.2 522.0,242.0 524.6,241.9 539.9,241.0 542.5,239.9 545.0,239.7 547.6,239.5 550.1,239.5 568.0,239.4 591.0,238.3 593.6,237.4 596.1,236.3 598.7,234.8 601.2,234.5 603.8,234.0 606.3,233.1 608.9,232.4 611.4,230.9 614.0,228.7 616.5,226.6 619.1,224.0 621.7,221.4 624.2,219.0 626.8,217.6 629.3,215.9 631.9,213.3 634.4,211.2 637.0,209.7 639.5,208.2 642.1,206.1 644.6,204.8 647.2,203.5 649.8,202.3 652.3,201.4 654.9,200.3 657.4,199.5 660.0,198.8 662.5,198.1 665.1,196.1 667.6,194.5 670.2,193.6 672.7,193.3 675.3,192.8 677.9,192.0 680.4,191.3 683.0,189.9 685.5,189.1 688.1,188.3 690.6,188.2 693.2,187.9 695.7,187.3 698.3,185.7 700.8,183.1 703.4,180.4 706.0,177.6 708.5,175.4 711.1,172.8 713.6,170.1 716.2,167.2 718.7,164.6 721.3,162.7 723.8,161.2 726.4,159.5 728.9,157.9 731.5,156.8 734.1,155.4 736.6,154.4 739.2,153.0 741.7,151.1 744.3,148.7 746.8,146.8 749.4,145.1 751.9,144.0 754.5,143.0 757.0,142.0 759.6,140.9 762.2,139.0 764.7,137.4 767.3,135.4 769.8,133.4 772.4,131.8 774.9,130.4 777.5,129.9 780.0,129.1 782.6,128.3 785.1,128.2 787.7,128.1 790.3,127.7 792.8,127.6 795.4,127.5 797.9,127.2 800.5,127.1 808.1,127.1 810.7,127.0 813.2,126.7 815.8,124.4 818.4,122.5 820.9,120.7 823.5,118.8 826.0,117.1 828.6,115.4 831.1,113.5 833.7,111.9 836.2,110.1 838.8,108.4 841.3,106.7 843.9,105.0 846.5,103.4 849.0,101.7 851.6,100.1 854.1,98.8 856.7,97.2 859.2,95.7 861.8,94.1 864.3,92.7 866.9,91.2 869.4,90.2 872.0,90.0 872.0,272.0" fill="#e0f2fe" opacity="0.55"/>
<polyline points="52.0,271.9 54.6,271.8 85.2,271.3 87.8,271.1 90.3,271.1 98.0,271.0 113.3,270.9 146.5,270.9 149.1,270.4 151.6,270.3 159.3,270.2 161.8,270.2 164.4,270.1 167.0,270.0 172.1,269.9 174.6,269.6 182.3,269.4 192.5,269.3 195.1,269.1 197.6,269.0 218.0,269.0 223.2,268.9 235.9,268.8 238.5,268.8 241.0,268.7 251.3,268.6 253.8,268.3 256.4,268.0 258.9,267.3 261.5,267.2 279.4,267.1 287.0,267.1 292.1,267.0 294.7,267.0 297.2,266.7 299.8,266.6 302.3,266.6 304.9,266.4 307.5,266.2 317.7,266.0 322.8,265.9 333.0,265.9 335.6,265.6 338.1,265.5 340.7,265.4 345.8,265.4 348.3,264.2 350.9,263.1 353.4,262.7 356.0,262.5 358.5,262.4 361.1,262.1 363.7,261.7 366.2,261.4 368.8,261.3 371.3,261.1 376.4,261.0 379.0,260.5 381.5,260.1 384.1,259.6 386.6,259.4 391.8,259.3 396.9,259.2 399.4,258.8 402.0,258.5 404.5,257.8 407.1,257.3 409.6,256.9 412.2,256.4 414.7,255.9 417.3,255.4 419.9,254.9 422.4,254.3 425.0,253.7 427.5,253.2 430.1,252.9 432.6,252.5 435.2,252.1 437.7,251.8 440.3,251.6 442.8,251.3 445.4,251.2 448.0,251.1 453.1,251.0 455.6,249.9 458.2,249.1 460.7,249.0 463.3,248.9 468.4,248.8 470.9,248.6 481.2,248.6 486.3,248.5 493.9,248.4 496.5,247.1 499.0,245.9 501.6,245.6 504.1,244.6 506.7,243.8 509.3,243.3 511.8,243.0 514.4,242.5 516.9,242.3 519.5,242.2 522.0,242.0 524.6,241.9 539.9,241.0 542.5,239.9 545.0,239.7 547.6,239.5 550.1,239.5 568.0,239.4 591.0,238.3 593.6,237.4 596.1,236.3 598.7,234.8 601.2,234.5 603.8,234.0 606.3,233.1 608.9,232.4 611.4,230.9 614.0,228.7 616.5,226.6 619.1,224.0 621.7,221.4 624.2,219.0 626.8,217.6 629.3,215.9 631.9,213.3 634.4,211.2 637.0,209.7 639.5,208.2 642.1,206.1 644.6,204.8 647.2,203.5 649.8,202.3 652.3,201.4 654.9,200.3 657.4,199.5 660.0,198.8 662.5,198.1 665.1,196.1 667.6,194.5 670.2,193.6 672.7,193.3 675.3,192.8 677.9,192.0 680.4,191.3 683.0,189.9 685.5,189.1 688.1,188.3 690.6,188.2 693.2,187.9 695.7,187.3 698.3,185.7 700.8,183.1 703.4,180.4 706.0,177.6 708.5,175.4 711.1,172.8 713.6,170.1 716.2,167.2 718.7,164.6 721.3,162.7 723.8,161.2 726.4,159.5 728.9,157.9 731.5,156.8 734.1,155.4 736.6,154.4 739.2,153.0 741.7,151.1 744.3,148.7 746.8,146.8 749.4,145.1 751.9,144.0 754.5,143.0 757.0,142.0 759.6,140.9 762.2,139.0 764.7,137.4 767.3,135.4 769.8,133.4 772.4,131.8 774.9,130.4 777.5,129.9 780.0,129.1 782.6,128.3 785.1,128.2 787.7,128.1 790.3,127.7 792.8,127.6 795.4,127.5 797.9,127.2 800.5,127.1 808.1,127.1 810.7,127.0 813.2,126.7 815.8,124.4 818.4,122.5 820.9,120.7 823.5,118.8 826.0,117.1 828.6,115.4 831.1,113.5 833.7,111.9 836.2,110.1 838.8,108.4 841.3,106.7 843.9,105.0 846.5,103.4 849.0,101.7 851.6,100.1 854.1,98.8 856.7,97.2 859.2,95.7 861.8,94.1 864.3,92.7 866.9,91.2 869.4,90.2 872.0,90.0" fill="none" stroke="#38bdf8" stroke-width="2.5" stroke-linejoin="round" stroke-linecap="round"/>
<circle cx="872.0" cy="90.0" r="4" fill="#0ea5e9"/>
<text x="866.0" y="80.0" text-anchor="end" font-family="Inter, system-ui, sans-serif" font-size="13" font-weight="700" fill="#334155">3285</text>
<text x="52.0" y="294" text-anchor="middle" font-family="Inter, system-ui, sans-serif" font-size="11" fill="#94a3b8">Jun 10 05:00</text>
<text x="568.0" y="294" text-anchor="middle" font-family="Inter, system-ui, sans-serif" font-size="11" fill="#94a3b8">Jun 18 15:00</text>
<text x="872.0" y="294" text-anchor="middle" font-family="Inter, system-ui, sans-serif" font-size="11" fill="#94a3b8">Jun 23 14:00</text>
</svg>
