<svg xmlns="http://www.w3.org/2000/svg" width="900" height="320" viewBox="0 0 900 320" role="img" aria-labelledby="title desc">
<title id="title">unsorry proofs over time</title>
<desc id="desc">Cumulative kernel-verified proofs over time, by the hour each proof was merged.</desc>
<rect width="900" height="100%" rx="18" fill="#ffffff"/>
<rect x="0.5" y="0.5" width="899" height="319" rx="18" fill="none" stroke="#e2e8f0"/>
<text x="32" y="44" font-family="Inter, system-ui, sans-serif" font-size="28" font-weight="700" fill="#334155">unsorry — Proofs Over Time</text>
<text x="32" y="72" font-family="Inter, system-ui, sans-serif" font-size="13" fill="#64748b">4355 cumulative kernel-verified proofs · merged, hourly</text>
<line x1="52" y1="272.0" x2="872" y2="272.0" stroke="#f1f5f9"/>
<text x="44" y="276.0" text-anchor="end" font-family="Inter, system-ui, sans-serif" font-size="11" fill="#94a3b8">0</text>
<line x1="52" y1="226.5" x2="872" y2="226.5" stroke="#f1f5f9"/>
<text x="44" y="230.5" text-anchor="end" font-family="Inter, system-ui, sans-serif" font-size="11" fill="#94a3b8">1089</text>
<line x1="52" y1="181.0" x2="872" y2="181.0" stroke="#f1f5f9"/>
<text x="44" y="185.0" text-anchor="end" font-family="Inter, system-ui, sans-serif" font-size="11" fill="#94a3b8">2178</text>
<line x1="52" y1="135.5" x2="872" y2="135.5" stroke="#f1f5f9"/>
<text x="44" y="139.5" text-anchor="end" font-family="Inter, system-ui, sans-serif" font-size="11" fill="#94a3b8">3266</text>
<line x1="52" y1="90.0" x2="872" y2="90.0" stroke="#f1f5f9"/>
<text x="44" y="94.0" text-anchor="end" font-family="Inter, system-ui, sans-serif" font-size="11" fill="#94a3b8">4355</text>
<polygon points="52.0,272.0 52.0,272.0 54.2,271.9 80.2,271.5 82.4,271.3 84.5,271.3 91.0,271.2 104.1,271.2 132.3,271.2 134.4,270.8 136.6,270.7 143.1,270.7 145.3,270.6 147.4,270.6 149.6,270.5 154.0,270.4 156.1,270.2 162.6,270.0 171.3,270.0 173.5,269.8 175.7,269.7 193.0,269.7 197.3,269.7 208.2,269.6 210.4,269.6 212.5,269.5 221.2,269.5 223.4,269.2 225.5,269.0 227.7,268.4 229.9,268.4 245.1,268.3 251.6,268.3 255.9,268.2 258.1,268.2 260.3,268.0 262.4,267.9 264.6,267.9 266.8,267.8 268.9,267.7 277.6,267.4 281.9,267.4 290.6,267.4 292.8,267.2 295.0,267.1 297.1,267.0 301.5,267.0 303.6,266.1 305.8,265.3 308.0,265.0 310.1,264.8 312.3,264.7 314.5,264.5 316.7,264.2 318.8,264.0 321.0,263.9 323.2,263.8 327.5,263.7 329.7,263.3 331.8,263.0 334.0,262.7 336.2,262.5 340.5,262.4 344.9,262.3 347.0,262.1 349.2,261.8 351.4,261.3 353.5,260.9 355.7,260.6 357.9,260.3 360.0,259.9 362.2,259.5 364.4,259.1 366.6,258.6 368.7,258.2 370.9,257.8 373.1,257.6 375.2,257.3 377.4,257.0 379.6,256.8 381.7,256.6 383.9,256.4 386.1,256.3 388.2,256.2 392.6,256.2 394.8,255.3 396.9,254.7 399.1,254.6 401.3,254.6 405.6,254.5 407.8,254.4 416.4,254.3 420.8,254.2 427.3,254.2 429.5,253.2 431.6,252.3 433.8,252.1 436.0,251.3 438.1,250.7 440.3,250.4 442.5,250.1 444.6,249.8 446.8,249.6 449.0,249.5 451.2,249.3 453.3,249.3 466.3,248.6 468.5,247.8 470.7,247.6 472.8,247.5 475.0,247.5 490.2,247.4 509.7,246.5 511.9,245.9 514.1,245.1 516.2,243.9 518.4,243.7 520.6,243.3 522.7,242.7 524.9,242.2 527.1,241.0 529.2,239.4 531.4,237.7 533.6,235.8 535.8,233.8 537.9,232.0 540.1,231.0 542.3,229.7 544.4,227.7 546.6,226.1 548.8,225.0 550.9,223.9 553.1,222.3 555.3,221.3 557.4,220.3 559.6,219.4 561.8,218.8 564.0,217.9 566.1,217.3 568.3,216.8 570.5,216.3 572.6,214.7 574.8,213.5 577.0,212.9 579.1,212.7 581.3,212.3 583.5,211.7 585.7,211.1 587.8,210.1 590.0,209.5 592.2,208.9 594.3,208.8 596.5,208.6 598.7,208.1 600.8,206.9 603.0,204.9 605.2,202.9 607.3,200.8 609.5,199.2 611.7,197.2 613.9,195.1 616.0,193.0 618.2,191.0 620.4,189.6 622.5,188.5 624.7,187.2 626.9,185.9 629.0,185.1 631.2,184.1 633.4,183.3 635.5,182.2 637.7,180.8 639.9,179.0 642.1,177.6 644.2,176.3 646.4,175.4 648.6,174.7 650.7,173.9 652.9,173.1 655.1,171.7 657.2,170.4 659.4,169.0 661.6,167.5 663.7,166.2 665.9,165.2 668.1,164.8 670.3,164.2 672.4,163.6 674.6,163.6 676.8,163.5 678.9,163.2 681.1,163.1 683.3,163.0 685.4,162.8 687.6,162.7 694.1,162.7 696.3,162.6 698.5,162.4 700.6,160.7 702.8,159.2 705.0,157.9 707.1,156.4 709.3,155.2 711.5,153.9 713.6,152.5 715.8,151.2 718.0,149.8 720.1,148.6 722.3,147.3 724.5,146.0 726.7,144.8 728.8,143.6 731.0,142.4 733.2,141.3 735.3,140.1 737.5,139.0 739.7,137.8 741.8,136.7 744.0,135.6 746.2,134.8 748.3,134.1 750.5,133.3 752.7,132.3 754.9,131.3 757.0,130.4 759.2,129.2 761.4,128.3 763.5,127.4 765.7,126.4 767.9,125.4 770.0,124.4 772.2,123.5 774.4,122.4 776.6,121.6 778.7,120.6 780.9,119.8 783.1,119.0 785.2,118.0 787.4,117.2 789.6,116.4 791.7,115.7 793.9,115.1 796.1,114.7 798.2,114.6 800.4,113.7 802.6,112.9 804.8,112.1 806.9,111.2 809.1,110.5 811.3,109.6 813.4,108.8 815.6,108.1 817.8,107.3 819.9,106.6 822.1,105.9 824.3,105.2 826.4,104.3 828.6,103.7 830.8,102.9 833.0,102.2 835.1,101.5 837.3,100.8 839.5,100.0 841.6,99.4 843.8,98.8 846.0,97.9 848.1,97.1 850.3,96.4 852.5,95.6 854.6,94.9 856.8,94.3 859.0,93.6 861.2,92.8 863.3,92.2 865.5,91.8 867.7,91.1 869.8,90.4 872.0,90.0 872.0,272.0" fill="#e0f2fe" opacity="0.55"/>
<polyline points="52.0,272.0 54.2,271.9 80.2,271.5 82.4,271.3 84.5,271.3 91.0,271.2 104.1,271.2 132.3,271.2 134.4,270.8 136.6,270.7 143.1,270.7 145.3,270.6 147.4,270.6 149.6,270.5 154.0,270.4 156.1,270.2 162.6,270.0 171.3,270.0 173.5,269.8 175.7,269.7 193.0,269.7 197.3,269.7 208.2,269.6 210.4,269.6 212.5,269.5 221.2,269.5 223.4,269.2 225.5,269.0 227.7,268.4 229.9,268.4 245.1,268.3 251.6,268.3 255.9,268.2 258.1,268.2 260.3,268.0 262.4,267.9 264.6,267.9 266.8,267.8 268.9,267.7 277.6,267.4 281.9,267.4 290.6,267.4 292.8,267.2 295.0,267.1 297.1,267.0 301.5,267.0 303.6,266.1 305.8,265.3 308.0,265.0 310.1,264.8 312.3,264.7 314.5,264.5 316.7,264.2 318.8,264.0 321.0,263.9 323.2,263.8 327.5,263.7 329.7,263.3 331.8,263.0 334.0,262.7 336.2,262.5 340.5,262.4 344.9,262.3 347.0,262.1 349.2,261.8 351.4,261.3 353.5,260.9 355.7,260.6 357.9,260.3 360.0,259.9 362.2,259.5 364.4,259.1 366.6,258.6 368.7,258.2 370.9,257.8 373.1,257.6 375.2,257.3 377.4,257.0 379.6,256.8 381.7,256.6 383.9,256.4 386.1,256.3 388.2,256.2 392.6,256.2 394.8,255.3 396.9,254.7 399.1,254.6 401.3,254.6 405.6,254.5 407.8,254.4 416.4,254.3 420.8,254.2 427.3,254.2 429.5,253.2 431.6,252.3 433.8,252.1 436.0,251.3 438.1,250.7 440.3,250.4 442.5,250.1 444.6,249.8 446.8,249.6 449.0,249.5 451.2,249.3 453.3,249.3 466.3,248.6 468.5,247.8 470.7,247.6 472.8,247.5 475.0,247.5 490.2,247.4 509.7,246.5 511.9,245.9 514.1,245.1 516.2,243.9 518.4,243.7 520.6,243.3 522.7,242.7 524.9,242.2 527.1,241.0 529.2,239.4 531.4,237.7 533.6,235.8 535.8,233.8 537.9,232.0 540.1,231.0 542.3,229.7 544.4,227.7 546.6,226.1 548.8,225.0 550.9,223.9 553.1,222.3 555.3,221.3 557.4,220.3 559.6,219.4 561.8,218.8 564.0,217.9 566.1,217.3 568.3,216.8 570.5,216.3 572.6,214.7 574.8,213.5 577.0,212.9 579.1,212.7 581.3,212.3 583.5,211.7 585.7,211.1 587.8,210.1 590.0,209.5 592.2,208.9 594.3,208.8 596.5,208.6 598.7,208.1 600.8,206.9 603.0,204.9 605.2,202.9 607.3,200.8 609.5,199.2 611.7,197.2 613.9,195.1 616.0,193.0 618.2,191.0 620.4,189.6 622.5,188.5 624.7,187.2 626.9,185.9 629.0,185.1 631.2,184.1 633.4,183.3 635.5,182.2 637.7,180.8 639.9,179.0 642.1,177.6 644.2,176.3 646.4,175.4 648.6,174.7 650.7,173.9 652.9,173.1 655.1,171.7 657.2,170.4 659.4,169.0 661.6,167.5 663.7,166.2 665.9,165.2 668.1,164.8 670.3,164.2 672.4,163.6 674.6,163.6 676.8,163.5 678.9,163.2 681.1,163.1 683.3,163.0 685.4,162.8 687.6,162.7 694.1,162.7 696.3,162.6 698.5,162.4 700.6,160.7 702.8,159.2 705.0,157.9 707.1,156.4 709.3,155.2 711.5,153.9 713.6,152.5 715.8,151.2 718.0,149.8 720.1,148.6 722.3,147.3 724.5,146.0 726.7,144.8 728.8,143.6 731.0,142.4 733.2,141.3 735.3,140.1 737.5,139.0 739.7,137.8 741.8,136.7 744.0,135.6 746.2,134.8 748.3,134.1 750.5,133.3 752.7,132.3 754.9,131.3 757.0,130.4 759.2,129.2 761.4,128.3 763.5,127.4 765.7,126.4 767.9,125.4 770.0,124.4 772.2,123.5 774.4,122.4 776.6,121.6 778.7,120.6 780.9,119.8 783.1,119.0 785.2,118.0 787.4,117.2 789.6,116.4 791.7,115.7 793.9,115.1 796.1,114.7 798.2,114.6 800.4,113.7 802.6,112.9 804.8,112.1 806.9,111.2 809.1,110.5 811.3,109.6 813.4,108.8 815.6,108.1 817.8,107.3 819.9,106.6 822.1,105.9 824.3,105.2 826.4,104.3 828.6,103.7 830.8,102.9 833.0,102.2 835.1,101.5 837.3,100.8 839.5,100.0 841.6,99.4 843.8,98.8 846.0,97.9 848.1,97.1 850.3,96.4 852.5,95.6 854.6,94.9 856.8,94.3 859.0,93.6 861.2,92.8 863.3,92.2 865.5,91.8 867.7,91.1 869.8,90.4 872.0,90.0" fill="none" stroke="#38bdf8" stroke-width="2.5" stroke-linejoin="round" stroke-linecap="round"/>
<circle cx="872.0" cy="90.0" r="4" fill="#0ea5e9"/>
<text x="866.0" y="80.0" text-anchor="end" font-family="Inter, system-ui, sans-serif" font-size="13" font-weight="700" fill="#334155">4355</text>
<text x="52.0" y="294" text-anchor="middle" font-family="Inter, system-ui, sans-serif" font-size="11" fill="#94a3b8">Jun 10 05:00</text>
<text x="568.3" y="294" text-anchor="middle" font-family="Inter, system-ui, sans-serif" font-size="11" fill="#94a3b8">Jun 20 03:00</text>
<text x="872.0" y="294" text-anchor="middle" font-family="Inter, system-ui, sans-serif" font-size="11" fill="#94a3b8">Jun 25 23:00</text>
</svg>
