<svg xmlns="http://www.w3.org/2000/svg" width="900" height="320" viewBox="0 0 900 320" role="img" aria-labelledby="title desc">
<title id="title">unsorry proofs over time</title>
<desc id="desc">Cumulative kernel-verified proofs over time, by the hour each proof was merged.</desc>
<rect width="900" height="100%" rx="18" fill="#ffffff"/>
<rect x="0.5" y="0.5" width="899" height="319" rx="18" fill="none" stroke="#e2e8f0"/>
<text x="32" y="44" font-family="Inter, system-ui, sans-serif" font-size="28" font-weight="700" fill="#334155">unsorry — Proofs Over Time</text>
<text x="32" y="72" font-family="Inter, system-ui, sans-serif" font-size="13" fill="#64748b">3649 cumulative kernel-verified proofs · merged, hourly</text>
<line x1="52" y1="272.0" x2="872" y2="272.0" stroke="#f1f5f9"/>
<text x="44" y="276.0" text-anchor="end" font-family="Inter, system-ui, sans-serif" font-size="11" fill="#94a3b8">0</text>
<line x1="52" y1="226.5" x2="872" y2="226.5" stroke="#f1f5f9"/>
<text x="44" y="230.5" text-anchor="end" font-family="Inter, system-ui, sans-serif" font-size="11" fill="#94a3b8">912</text>
<line x1="52" y1="181.0" x2="872" y2="181.0" stroke="#f1f5f9"/>
<text x="44" y="185.0" text-anchor="end" font-family="Inter, system-ui, sans-serif" font-size="11" fill="#94a3b8">1824</text>
<line x1="52" y1="135.5" x2="872" y2="135.5" stroke="#f1f5f9"/>
<text x="44" y="139.5" text-anchor="end" font-family="Inter, system-ui, sans-serif" font-size="11" fill="#94a3b8">2737</text>
<line x1="52" y1="90.0" x2="872" y2="90.0" stroke="#f1f5f9"/>
<text x="44" y="94.0" text-anchor="end" font-family="Inter, system-ui, sans-serif" font-size="11" fill="#94a3b8">3649</text>
<polygon points="52.0,272.0 52.0,272.0 54.4,271.9 83.6,271.4 86.1,271.2 88.5,271.2 95.8,271.1 110.4,271.1 142.0,271.0 144.5,270.6 146.9,270.5 154.2,270.4 156.6,270.4 159.1,270.3 161.5,270.2 166.4,270.1 168.8,269.9 176.1,269.7 185.8,269.6 188.3,269.4 190.7,269.3 210.2,269.3 215.0,269.2 227.2,269.2 229.6,269.1 232.1,269.0 241.8,269.0 244.2,268.7 246.7,268.4 249.1,267.8 251.5,267.7 268.6,267.6 275.9,267.6 280.7,267.5 283.2,267.5 285.6,267.2 288.0,267.2 290.5,267.1 292.9,267.0 295.3,266.8 305.1,266.6 309.9,266.5 319.7,266.5 322.1,266.2 324.5,266.2 327.0,266.1 331.8,266.0 334.3,265.0 336.7,264.0 339.1,263.7 341.6,263.4 344.0,263.3 346.4,263.1 348.9,262.7 351.3,262.5 353.7,262.3 356.2,262.2 361.0,262.1 363.5,261.7 365.9,261.3 368.3,260.9 370.8,260.6 375.6,260.5 380.5,260.5 382.9,260.1 385.4,259.9 387.8,259.2 390.2,258.8 392.7,258.4 395.1,258.0 397.5,257.5 400.0,257.1 402.4,256.6 404.8,256.0 407.3,255.5 409.7,255.1 412.1,254.8 414.6,254.4 417.0,254.0 419.4,253.8 421.9,253.6 424.3,253.3 426.7,253.2 429.2,253.1 434.0,253.1 436.5,252.1 438.9,251.4 441.3,251.3 443.8,251.2 448.6,251.1 451.1,251.0 460.8,250.9 465.6,250.8 472.9,250.8 475.4,249.6 477.8,248.5 480.2,248.2 482.7,247.3 485.1,246.6 487.5,246.2 490.0,245.9 492.4,245.5 494.8,245.3 497.3,245.2 499.7,245.0 502.1,244.9 516.7,244.1 519.2,243.1 521.6,242.9 524.0,242.8 526.5,242.7 543.5,242.7 565.4,241.6 567.8,240.8 570.3,239.9 572.7,238.5 575.1,238.2 577.6,237.8 580.0,237.0 582.4,236.4 584.9,235.0 587.3,233.0 589.7,231.1 592.2,228.8 594.6,226.4 597.0,224.3 599.5,223.0 601.9,221.5 604.3,219.2 606.8,217.2 609.2,215.9 611.6,214.6 614.1,212.7 616.5,211.5 618.9,210.3 621.4,209.3 623.8,208.5 626.2,207.4 628.7,206.8 631.1,206.1 633.5,205.5 636.0,203.7 638.4,202.2 640.8,201.4 643.3,201.2 645.7,200.7 648.1,200.0 650.6,199.3 653.0,198.1 655.4,197.4 657.9,196.7 660.3,196.6 662.7,196.3 665.2,195.7 667.6,194.3 670.0,191.9 672.5,189.5 674.9,187.1 677.3,185.1 679.8,182.7 682.2,180.2 684.6,177.7 687.1,175.3 689.5,173.6 691.9,172.3 694.4,170.8 696.8,169.3 699.2,168.3 701.7,167.1 704.1,166.2 706.5,164.9 709.0,163.1 711.4,161.0 713.8,159.3 716.3,157.7 718.7,156.7 721.1,155.8 723.6,154.9 726.0,153.9 728.4,152.2 730.9,150.8 733.3,149.1 735.7,147.3 738.2,145.8 740.6,144.6 743.0,144.1 745.5,143.4 747.9,142.7 750.3,142.6 752.8,142.5 755.2,142.1 757.6,142.0 760.1,141.9 762.5,141.7 764.9,141.6 772.2,141.5 774.7,141.5 777.1,141.2 779.5,139.1 782.0,137.4 784.4,135.8 786.8,134.1 789.3,132.5 791.7,131.0 794.1,129.4 796.6,127.9 799.0,126.2 801.4,124.7 803.9,123.2 806.3,121.7 808.7,120.2 811.2,118.7 813.6,117.3 816.0,116.0 818.5,114.6 820.9,113.2 823.3,111.8 825.8,110.5 828.2,109.2 830.6,108.3 833.1,107.4 835.5,106.5 837.9,105.2 840.4,104.1 842.8,103.0 845.2,101.6 847.7,100.5 850.1,99.4 852.5,98.2 855.0,97.0 857.4,95.9 859.8,94.8 862.3,93.5 864.7,92.5 867.1,91.3 869.6,90.3 872.0,90.0 872.0,272.0" fill="#e0f2fe" opacity="0.55"/>
<polyline points="52.0,272.0 54.4,271.9 83.6,271.4 86.1,271.2 88.5,271.2 95.8,271.1 110.4,271.1 142.0,271.0 144.5,270.6 146.9,270.5 154.2,270.4 156.6,270.4 159.1,270.3 161.5,270.2 166.4,270.1 168.8,269.9 176.1,269.7 185.8,269.6 188.3,269.4 190.7,269.3 210.2,269.3 215.0,269.2 227.2,269.2 229.6,269.1 232.1,269.0 241.8,269.0 244.2,268.7 246.7,268.4 249.1,267.8 251.5,267.7 268.6,267.6 275.9,267.6 280.7,267.5 283.2,267.5 285.6,267.2 288.0,267.2 290.5,267.1 292.9,267.0 295.3,266.8 305.1,266.6 309.9,266.5 319.7,266.5 322.1,266.2 324.5,266.2 327.0,266.1 331.8,266.0 334.3,265.0 336.7,264.0 339.1,263.7 341.6,263.4 344.0,263.3 346.4,263.1 348.9,262.7 351.3,262.5 353.7,262.3 356.2,262.2 361.0,262.1 363.5,261.7 365.9,261.3 368.3,260.9 370.8,260.6 375.6,260.5 380.5,260.5 382.9,260.1 385.4,259.9 387.8,259.2 390.2,258.8 392.7,258.4 395.1,258.0 397.5,257.5 400.0,257.1 402.4,256.6 404.8,256.0 407.3,255.5 409.7,255.1 412.1,254.8 414.6,254.4 417.0,254.0 419.4,253.8 421.9,253.6 424.3,253.3 426.7,253.2 429.2,253.1 434.0,253.1 436.5,252.1 438.9,251.4 441.3,251.3 443.8,251.2 448.6,251.1 451.1,251.0 460.8,250.9 465.6,250.8 472.9,250.8 475.4,249.6 477.8,248.5 480.2,248.2 482.7,247.3 485.1,246.6 487.5,246.2 490.0,245.9 492.4,245.5 494.8,245.3 497.3,245.2 499.7,245.0 502.1,244.9 516.7,244.1 519.2,243.1 521.6,242.9 524.0,242.8 526.5,242.7 543.5,242.7 565.4,241.6 567.8,240.8 570.3,239.9 572.7,238.5 575.1,238.2 577.6,237.8 580.0,237.0 582.4,236.4 584.9,235.0 587.3,233.0 589.7,231.1 592.2,228.8 594.6,226.4 597.0,224.3 599.5,223.0 601.9,221.5 604.3,219.2 606.8,217.2 609.2,215.9 611.6,214.6 614.1,212.7 616.5,211.5 618.9,210.3 621.4,209.3 623.8,208.5 626.2,207.4 628.7,206.8 631.1,206.1 633.5,205.5 636.0,203.7 638.4,202.2 640.8,201.4 643.3,201.2 645.7,200.7 648.1,200.0 650.6,199.3 653.0,198.1 655.4,197.4 657.9,196.7 660.3,196.6 662.7,196.3 665.2,195.7 667.6,194.3 670.0,191.9 672.5,189.5 674.9,187.1 677.3,185.1 679.8,182.7 682.2,180.2 684.6,177.7 687.1,175.3 689.5,173.6 691.9,172.3 694.4,170.8 696.8,169.3 699.2,168.3 701.7,167.1 704.1,166.2 706.5,164.9 709.0,163.1 711.4,161.0 713.8,159.3 716.3,157.7 718.7,156.7 721.1,155.8 723.6,154.9 726.0,153.9 728.4,152.2 730.9,150.8 733.3,149.1 735.7,147.3 738.2,145.8 740.6,144.6 743.0,144.1 745.5,143.4 747.9,142.7 750.3,142.6 752.8,142.5 755.2,142.1 757.6,142.0 760.1,141.9 762.5,141.7 764.9,141.6 772.2,141.5 774.7,141.5 777.1,141.2 779.5,139.1 782.0,137.4 784.4,135.8 786.8,134.1 789.3,132.5 791.7,131.0 794.1,129.4 796.6,127.9 799.0,126.2 801.4,124.7 803.9,123.2 806.3,121.7 808.7,120.2 811.2,118.7 813.6,117.3 816.0,116.0 818.5,114.6 820.9,113.2 823.3,111.8 825.8,110.5 828.2,109.2 830.6,108.3 833.1,107.4 835.5,106.5 837.9,105.2 840.4,104.1 842.8,103.0 845.2,101.6 847.7,100.5 850.1,99.4 852.5,98.2 855.0,97.0 857.4,95.9 859.8,94.8 862.3,93.5 864.7,92.5 867.1,91.3 869.6,90.3 872.0,90.0" fill="none" stroke="#38bdf8" stroke-width="2.5" stroke-linejoin="round" stroke-linecap="round"/>
<circle cx="872.0" cy="90.0" r="4" fill="#0ea5e9"/>
<text x="866.0" y="80.0" text-anchor="end" font-family="Inter, system-ui, sans-serif" font-size="13" font-weight="700" fill="#334155">3649</text>
<text x="52.0" y="294" text-anchor="middle" font-family="Inter, system-ui, sans-serif" font-size="11" fill="#94a3b8">Jun 10 05:00</text>
<text x="582.4" y="294" text-anchor="middle" font-family="Inter, system-ui, sans-serif" font-size="11" fill="#94a3b8">Jun 19 07:00</text>
<text x="872.0" y="294" text-anchor="middle" font-family="Inter, system-ui, sans-serif" font-size="11" fill="#94a3b8">Jun 24 06:00</text>
</svg>
