<svg xmlns="http://www.w3.org/2000/svg" width="900" height="320" viewBox="0 0 900 320" role="img" aria-labelledby="title desc">
<title id="title">unsorry proofs over time</title>
<desc id="desc">Cumulative kernel-verified proofs over time, by the hour each proof was merged.</desc>
<rect width="900" height="100%" rx="18" fill="#ffffff"/>
<rect x="0.5" y="0.5" width="899" height="319" rx="18" fill="none" stroke="#e2e8f0"/>
<text x="32" y="44" font-family="Inter, system-ui, sans-serif" font-size="28" font-weight="700" fill="#334155">unsorry — Proofs Over Time</text>
<text x="32" y="72" font-family="Inter, system-ui, sans-serif" font-size="13" fill="#64748b">2940 cumulative kernel-verified proofs · merged, hourly</text>
<line x1="52" y1="272.0" x2="872" y2="272.0" stroke="#f1f5f9"/>
<text x="44" y="276.0" text-anchor="end" font-family="Inter, system-ui, sans-serif" font-size="11" fill="#94a3b8">0</text>
<line x1="52" y1="226.5" x2="872" y2="226.5" stroke="#f1f5f9"/>
<text x="44" y="230.5" text-anchor="end" font-family="Inter, system-ui, sans-serif" font-size="11" fill="#94a3b8">735</text>
<line x1="52" y1="181.0" x2="872" y2="181.0" stroke="#f1f5f9"/>
<text x="44" y="185.0" text-anchor="end" font-family="Inter, system-ui, sans-serif" font-size="11" fill="#94a3b8">1470</text>
<line x1="52" y1="135.5" x2="872" y2="135.5" stroke="#f1f5f9"/>
<text x="44" y="139.5" text-anchor="end" font-family="Inter, system-ui, sans-serif" font-size="11" fill="#94a3b8">2205</text>
<line x1="52" y1="90.0" x2="872" y2="90.0" stroke="#f1f5f9"/>
<text x="44" y="94.0" text-anchor="end" font-family="Inter, system-ui, sans-serif" font-size="11" fill="#94a3b8">2940</text>
<polygon points="52.0,272.0 52.0,271.9 54.7,271.8 86.6,271.2 89.3,271.0 91.9,270.9 99.9,270.9 115.9,270.8 150.5,270.8 153.2,270.2 155.8,270.1 163.8,270.0 166.5,270.0 169.1,269.9 171.8,269.7 177.1,269.6 179.8,269.3 187.8,269.1 198.4,269.0 201.1,268.8 203.8,268.7 225.1,268.6 230.4,268.5 243.7,268.5 246.4,268.4 249.0,268.3 259.7,268.2 262.3,267.9 265.0,267.5 267.6,266.7 270.3,266.6 288.9,266.6 296.9,266.5 302.3,266.4 304.9,266.4 307.6,266.1 310.2,266.0 312.9,265.9 315.6,265.7 318.2,265.6 328.9,265.3 334.2,265.2 344.9,265.1 347.5,264.8 350.2,264.8 352.8,264.6 358.2,264.6 360.8,263.3 363.5,262.1 366.2,261.7 368.8,261.4 371.5,261.2 374.1,260.9 376.8,260.5 379.5,260.2 382.1,260.0 384.8,259.9 390.1,259.7 392.8,259.2 395.4,258.7 398.1,258.2 400.8,257.9 406.1,257.8 411.4,257.7 414.1,257.3 416.7,257.0 419.4,256.1 422.1,255.6 424.7,255.1 427.4,254.6 430.1,254.0 432.7,253.5 435.4,252.9 438.0,252.2 440.7,251.6 443.4,251.0 446.0,250.6 448.7,250.2 451.4,249.7 454.0,249.5 456.7,249.2 459.3,248.8 462.0,248.7 464.7,248.6 470.0,248.5 472.6,247.3 475.3,246.4 478.0,246.2 480.6,246.2 486.0,246.1 488.6,245.9 499.3,245.8 504.6,245.7 512.6,245.6 515.2,244.2 517.9,242.8 520.6,242.5 523.2,241.4 525.9,240.5 528.6,239.9 531.2,239.6 533.9,239.1 536.5,238.8 539.2,238.7 541.9,238.4 544.5,238.3 560.5,237.3 563.2,236.1 565.8,235.9 568.5,235.7 571.2,235.7 589.8,235.6 613.8,234.3 616.4,233.3 619.1,232.1 621.7,230.4 624.4,230.1 627.1,229.5 629.7,228.5 632.4,227.8 635.1,226.1 637.7,223.7 640.4,221.2 643.0,218.4 645.7,215.4 648.4,212.8 651.0,211.2 653.7,209.3 656.4,206.4 659.0,204.0 661.7,202.4 664.3,200.7 667.0,198.4 669.7,196.9 672.3,195.4 675.0,194.1 677.6,193.1 680.3,191.8 683.0,191.0 685.6,190.2 688.3,189.4 691.0,187.2 693.6,185.4 696.3,184.4 698.9,184.1 701.6,183.5 704.3,182.6 706.9,181.8 709.6,180.3 712.3,179.4 714.9,178.5 717.6,178.4 720.2,178.0 722.9,177.3 725.6,175.6 728.2,172.6 730.9,169.6 733.6,166.6 736.2,164.1 738.9,161.2 741.5,158.1 744.2,154.9 746.9,152.0 749.5,149.9 752.2,148.3 754.9,146.3 757.5,144.5 760.2,143.2 762.8,141.8 765.5,140.6 768.2,139.0 770.8,136.9 773.5,134.3 776.2,132.1 778.8,130.2 781.5,128.9 784.1,127.8 786.8,126.7 789.5,125.5 792.1,123.4 794.8,121.6 797.5,119.4 800.1,117.2 802.8,115.3 805.4,113.8 808.1,113.2 810.8,112.3 813.4,111.5 816.1,111.4 818.8,111.2 821.4,110.8 824.1,110.6 826.7,110.6 829.4,110.2 832.1,110.1 840.1,110.1 842.7,110.0 845.4,109.6 848.0,107.1 850.7,104.9 853.4,103.0 856.0,100.8 858.7,98.9 861.4,97.0 864.0,95.0 866.7,93.1 869.3,91.1 872.0,90.0 872.0,272.0" fill="#e0f2fe" opacity="0.55"/>
<polyline points="52.0,271.9 54.7,271.8 86.6,271.2 89.3,271.0 91.9,270.9 99.9,270.9 115.9,270.8 150.5,270.8 153.2,270.2 155.8,270.1 163.8,270.0 166.5,270.0 169.1,269.9 171.8,269.7 177.1,269.6 179.8,269.3 187.8,269.1 198.4,269.0 201.1,268.8 203.8,268.7 225.1,268.6 230.4,268.5 243.7,268.5 246.4,268.4 249.0,268.3 259.7,268.2 262.3,267.9 265.0,267.5 267.6,266.7 270.3,266.6 288.9,266.6 296.9,266.5 302.3,266.4 304.9,266.4 307.6,266.1 310.2,266.0 312.9,265.9 315.6,265.7 318.2,265.6 328.9,265.3 334.2,265.2 344.9,265.1 347.5,264.8 350.2,264.8 352.8,264.6 358.2,264.6 360.8,263.3 363.5,262.1 366.2,261.7 368.8,261.4 371.5,261.2 374.1,260.9 376.8,260.5 379.5,260.2 382.1,260.0 384.8,259.9 390.1,259.7 392.8,259.2 395.4,258.7 398.1,258.2 400.8,257.9 406.1,257.8 411.4,257.7 414.1,257.3 416.7,257.0 419.4,256.1 422.1,255.6 424.7,255.1 427.4,254.6 430.1,254.0 432.7,253.5 435.4,252.9 438.0,252.2 440.7,251.6 443.4,251.0 446.0,250.6 448.7,250.2 451.4,249.7 454.0,249.5 456.7,249.2 459.3,248.8 462.0,248.7 464.7,248.6 470.0,248.5 472.6,247.3 475.3,246.4 478.0,246.2 480.6,246.2 486.0,246.1 488.6,245.9 499.3,245.8 504.6,245.7 512.6,245.6 515.2,244.2 517.9,242.8 520.6,242.5 523.2,241.4 525.9,240.5 528.6,239.9 531.2,239.6 533.9,239.1 536.5,238.8 539.2,238.7 541.9,238.4 544.5,238.3 560.5,237.3 563.2,236.1 565.8,235.9 568.5,235.7 571.2,235.7 589.8,235.6 613.8,234.3 616.4,233.3 619.1,232.1 621.7,230.4 624.4,230.1 627.1,229.5 629.7,228.5 632.4,227.8 635.1,226.1 637.7,223.7 640.4,221.2 643.0,218.4 645.7,215.4 648.4,212.8 651.0,211.2 653.7,209.3 656.4,206.4 659.0,204.0 661.7,202.4 664.3,200.7 667.0,198.4 669.7,196.9 672.3,195.4 675.0,194.1 677.6,193.1 680.3,191.8 683.0,191.0 685.6,190.2 688.3,189.4 691.0,187.2 693.6,185.4 696.3,184.4 698.9,184.1 701.6,183.5 704.3,182.6 706.9,181.8 709.6,180.3 712.3,179.4 714.9,178.5 717.6,178.4 720.2,178.0 722.9,177.3 725.6,175.6 728.2,172.6 730.9,169.6 733.6,166.6 736.2,164.1 738.9,161.2 741.5,158.1 744.2,154.9 746.9,152.0 749.5,149.9 752.2,148.3 754.9,146.3 757.5,144.5 760.2,143.2 762.8,141.8 765.5,140.6 768.2,139.0 770.8,136.9 773.5,134.3 776.2,132.1 778.8,130.2 781.5,128.9 784.1,127.8 786.8,126.7 789.5,125.5 792.1,123.4 794.8,121.6 797.5,119.4 800.1,117.2 802.8,115.3 805.4,113.8 808.1,113.2 810.8,112.3 813.4,111.5 816.1,111.4 818.8,111.2 821.4,110.8 824.1,110.6 826.7,110.6 829.4,110.2 832.1,110.1 840.1,110.1 842.7,110.0 845.4,109.6 848.0,107.1 850.7,104.9 853.4,103.0 856.0,100.8 858.7,98.9 861.4,97.0 864.0,95.0 866.7,93.1 869.3,91.1 872.0,90.0" fill="none" stroke="#38bdf8" stroke-width="2.5" stroke-linejoin="round" stroke-linecap="round"/>
<circle cx="872.0" cy="90.0" r="4" fill="#0ea5e9"/>
<text x="866.0" y="80.0" text-anchor="end" font-family="Inter, system-ui, sans-serif" font-size="13" font-weight="700" fill="#334155">2940</text>
<text x="52.0" y="294" text-anchor="middle" font-family="Inter, system-ui, sans-serif" font-size="11" fill="#94a3b8">Jun 10 05:00</text>
<text x="541.9" y="294" text-anchor="middle" font-family="Inter, system-ui, sans-serif" font-size="11" fill="#94a3b8">Jun 17 21:00</text>
<text x="872.0" y="294" text-anchor="middle" font-family="Inter, system-ui, sans-serif" font-size="11" fill="#94a3b8">Jun 23 01:00</text>
</svg>
