<svg xmlns="http://www.w3.org/2000/svg" width="900" height="320" viewBox="0 0 900 320" role="img" aria-labelledby="title desc">
<title id="title">unsorry proofs over time</title>
<desc id="desc">Cumulative kernel-verified proofs over time, by the hour each proof was merged.</desc>
<rect width="900" height="100%" rx="18" fill="#ffffff"/>
<rect x="0.5" y="0.5" width="899" height="319" rx="18" fill="none" stroke="#e2e8f0"/>
<text x="32" y="44" font-family="Inter, system-ui, sans-serif" font-size="28" font-weight="700" fill="#334155">unsorry — Proofs Over Time</text>
<text x="32" y="72" font-family="Inter, system-ui, sans-serif" font-size="13" fill="#64748b">4485 cumulative kernel-verified proofs · merged, hourly</text>
<line x1="52" y1="272.0" x2="872" y2="272.0" stroke="#f1f5f9"/>
<text x="44" y="276.0" text-anchor="end" font-family="Inter, system-ui, sans-serif" font-size="11" fill="#94a3b8">0</text>
<line x1="52" y1="226.5" x2="872" y2="226.5" stroke="#f1f5f9"/>
<text x="44" y="230.5" text-anchor="end" font-family="Inter, system-ui, sans-serif" font-size="11" fill="#94a3b8">1121</text>
<line x1="52" y1="181.0" x2="872" y2="181.0" stroke="#f1f5f9"/>
<text x="44" y="185.0" text-anchor="end" font-family="Inter, system-ui, sans-serif" font-size="11" fill="#94a3b8">2242</text>
<line x1="52" y1="135.5" x2="872" y2="135.5" stroke="#f1f5f9"/>
<text x="44" y="139.5" text-anchor="end" font-family="Inter, system-ui, sans-serif" font-size="11" fill="#94a3b8">3364</text>
<line x1="52" y1="90.0" x2="872" y2="90.0" stroke="#f1f5f9"/>
<text x="44" y="94.0" text-anchor="end" font-family="Inter, system-ui, sans-serif" font-size="11" fill="#94a3b8">4485</text>
<polygon points="52.0,272.0 52.0,272.0 54.1,271.9 79.6,271.5 81.7,271.4 83.9,271.3 90.2,271.3 103.0,271.2 130.6,271.2 132.7,270.8 134.8,270.8 141.2,270.7 143.3,270.7 145.5,270.6 147.6,270.5 151.8,270.5 154.0,270.3 160.3,270.1 168.8,270.0 171.0,269.9 173.1,269.8 190.1,269.8 194.3,269.7 205.0,269.7 207.1,269.6 209.2,269.6 217.7,269.5 219.8,269.3 221.9,269.1 224.1,268.6 226.2,268.5 241.1,268.4 247.4,268.4 251.7,268.3 253.8,268.3 255.9,268.1 258.1,268.1 260.2,268.0 262.3,267.9 264.4,267.8 272.9,267.6 277.2,267.5 285.7,267.5 287.8,267.3 289.9,267.3 292.1,267.2 296.3,267.1 298.4,266.3 300.5,265.5 302.7,265.2 304.8,265.0 306.9,264.9 309.0,264.7 311.2,264.5 313.3,264.2 315.4,264.1 317.5,264.0 321.8,263.9 323.9,263.6 326.0,263.3 328.2,263.0 330.3,262.7 334.5,262.7 338.8,262.6 340.9,262.3 343.0,262.1 345.2,261.6 347.3,261.2 349.4,260.9 351.5,260.6 353.7,260.2 355.8,259.9 357.9,259.5 360.0,259.0 362.2,258.6 364.3,258.2 366.4,258.0 368.5,257.7 370.7,257.4 372.8,257.2 374.9,257.0 377.0,256.8 379.2,256.7 381.3,256.7 385.5,256.6 387.6,255.8 389.8,255.2 391.9,255.1 394.0,255.1 398.3,255.0 400.4,254.9 408.9,254.8 413.1,254.8 419.5,254.7 421.6,253.8 423.8,252.9 425.9,252.6 428.0,251.9 430.1,251.3 432.3,251.0 434.4,250.8 436.5,250.4 438.6,250.2 440.8,250.2 442.9,250.0 445.0,249.9 457.8,249.3 459.9,248.5 462.0,248.3 464.1,248.2 466.2,248.2 481.1,248.1 500.2,247.3 502.4,246.6 504.5,245.9 506.6,244.7 508.7,244.5 510.9,244.2 513.0,243.5 515.1,243.0 517.2,241.9 519.4,240.3 521.5,238.7 523.6,236.9 525.7,234.9 527.9,233.2 530.0,232.2 532.1,230.9 534.2,229.0 536.4,227.4 538.5,226.4 540.6,225.3 542.7,223.8 544.8,222.8 547.0,221.8 549.1,221.0 551.2,220.3 553.3,219.4 555.5,218.9 557.6,218.4 559.7,217.9 561.8,216.4 564.0,215.2 566.1,214.6 568.2,214.4 570.3,214.0 572.5,213.4 574.6,212.9 576.7,211.9 578.8,211.3 581.0,210.7 583.1,210.6 585.2,210.4 587.3,210.0 589.5,208.8 591.6,206.9 593.7,204.9 595.8,202.9 598.0,201.3 600.1,199.4 602.2,197.3 604.3,195.3 606.5,193.4 608.6,192.0 610.7,190.9 612.8,189.6 615.0,188.4 617.1,187.6 619.2,186.6 621.3,185.9 623.5,184.8 625.6,183.4 627.7,181.7 629.8,180.3 631.9,179.0 634.1,178.2 636.2,177.5 638.3,176.8 640.4,175.9 642.6,174.6 644.7,173.4 646.8,172.0 648.9,170.5 651.1,169.3 653.2,168.3 655.3,167.9 657.4,167.3 659.6,166.8 661.7,166.7 663.8,166.6 665.9,166.3 668.1,166.2 670.2,166.2 672.3,166.0 674.4,165.9 680.8,165.8 682.9,165.8 685.1,165.6 687.2,163.9 689.3,162.5 691.4,161.2 693.6,159.8 695.7,158.5 697.8,157.3 699.9,155.9 702.1,154.7 704.2,153.4 706.3,152.2 708.4,150.9 710.5,149.7 712.7,148.5 714.8,147.3 716.9,146.1 719.0,145.1 721.2,144.0 723.3,142.8 725.4,141.7 727.5,140.6 729.7,139.5 731.8,138.8 733.9,138.1 736.0,137.4 738.2,136.3 740.3,135.4 742.4,134.5 744.5,133.4 746.7,132.4 748.8,131.6 750.9,130.6 753.0,129.6 755.2,128.7 757.3,127.8 759.4,126.8 761.5,126.0 763.7,125.0 765.8,124.2 767.9,123.4 770.0,122.5 772.2,121.7 774.3,120.9 776.4,120.2 778.5,119.6 780.7,119.3 782.8,119.1 784.9,118.3 787.0,117.5 789.2,116.7 791.3,115.8 793.4,115.2 795.5,114.3 797.6,113.6 799.8,112.8 801.9,112.1 804.0,111.4 806.1,110.7 808.3,110.0 810.4,109.2 812.5,108.5 814.6,107.8 816.8,107.1 818.9,106.4 821.0,105.8 823.1,105.0 825.3,104.4 827.4,103.8 829.5,103.0 831.6,102.2 833.8,101.5 835.9,100.8 838.0,100.0 840.1,99.5 842.3,98.8 844.4,98.0 846.5,97.4 848.6,97.0 850.8,96.4 852.9,95.7 855.0,95.0 857.1,94.1 859.3,93.4 861.4,92.7 863.5,92.1 865.6,91.5 867.8,90.7 869.9,90.1 872.0,90.0 872.0,272.0" fill="#e0f2fe" opacity="0.55"/>
<polyline points="52.0,272.0 54.1,271.9 79.6,271.5 81.7,271.4 83.9,271.3 90.2,271.3 103.0,271.2 130.6,271.2 132.7,270.8 134.8,270.8 141.2,270.7 143.3,270.7 145.5,270.6 147.6,270.5 151.8,270.5 154.0,270.3 160.3,270.1 168.8,270.0 171.0,269.9 173.1,269.8 190.1,269.8 194.3,269.7 205.0,269.7 207.1,269.6 209.2,269.6 217.7,269.5 219.8,269.3 221.9,269.1 224.1,268.6 226.2,268.5 241.1,268.4 247.4,268.4 251.7,268.3 253.8,268.3 255.9,268.1 258.1,268.1 260.2,268.0 262.3,267.9 264.4,267.8 272.9,267.6 277.2,267.5 285.7,267.5 287.8,267.3 289.9,267.3 292.1,267.2 296.3,267.1 298.4,266.3 300.5,265.5 302.7,265.2 304.8,265.0 306.9,264.9 309.0,264.7 311.2,264.5 313.3,264.2 315.4,264.1 317.5,264.0 321.8,263.9 323.9,263.6 326.0,263.3 328.2,263.0 330.3,262.7 334.5,262.7 338.8,262.6 340.9,262.3 343.0,262.1 345.2,261.6 347.3,261.2 349.4,260.9 351.5,260.6 353.7,260.2 355.8,259.9 357.9,259.5 360.0,259.0 362.2,258.6 364.3,258.2 366.4,258.0 368.5,257.7 370.7,257.4 372.8,257.2 374.9,257.0 377.0,256.8 379.2,256.7 381.3,256.7 385.5,256.6 387.6,255.8 389.8,255.2 391.9,255.1 394.0,255.1 398.3,255.0 400.4,254.9 408.9,254.8 413.1,254.8 419.5,254.7 421.6,253.8 423.8,252.9 425.9,252.6 428.0,251.9 430.1,251.3 432.3,251.0 434.4,250.8 436.5,250.4 438.6,250.2 440.8,250.2 442.9,250.0 445.0,249.9 457.8,249.3 459.9,248.5 462.0,248.3 464.1,248.2 466.2,248.2 481.1,248.1 500.2,247.3 502.4,246.6 504.5,245.9 506.6,244.7 508.7,244.5 510.9,244.2 513.0,243.5 515.1,243.0 517.2,241.9 519.4,240.3 521.5,238.7 523.6,236.9 525.7,234.9 527.9,233.2 530.0,232.2 532.1,230.9 534.2,229.0 536.4,227.4 538.5,226.4 540.6,225.3 542.7,223.8 544.8,222.8 547.0,221.8 549.1,221.0 551.2,220.3 553.3,219.4 555.5,218.9 557.6,218.4 559.7,217.9 561.8,216.4 564.0,215.2 566.1,214.6 568.2,214.4 570.3,214.0 572.5,213.4 574.6,212.9 576.7,211.9 578.8,211.3 581.0,210.7 583.1,210.6 585.2,210.4 587.3,210.0 589.5,208.8 591.6,206.9 593.7,204.9 595.8,202.9 598.0,201.3 600.1,199.4 602.2,197.3 604.3,195.3 606.5,193.4 608.6,192.0 610.7,190.9 612.8,189.6 615.0,188.4 617.1,187.6 619.2,186.6 621.3,185.9 623.5,184.8 625.6,183.4 627.7,181.7 629.8,180.3 631.9,179.0 634.1,178.2 636.2,177.5 638.3,176.8 640.4,175.9 642.6,174.6 644.7,173.4 646.8,172.0 648.9,170.5 651.1,169.3 653.2,168.3 655.3,167.9 657.4,167.3 659.6,166.8 661.7,166.7 663.8,166.6 665.9,166.3 668.1,166.2 670.2,166.2 672.3,166.0 674.4,165.9 680.8,165.8 682.9,165.8 685.1,165.6 687.2,163.9 689.3,162.5 691.4,161.2 693.6,159.8 695.7,158.5 697.8,157.3 699.9,155.9 702.1,154.7 704.2,153.4 706.3,152.2 708.4,150.9 710.5,149.7 712.7,148.5 714.8,147.3 716.9,146.1 719.0,145.1 721.2,144.0 723.3,142.8 725.4,141.7 727.5,140.6 729.7,139.5 731.8,138.8 733.9,138.1 736.0,137.4 738.2,136.3 740.3,135.4 742.4,134.5 744.5,133.4 746.7,132.4 748.8,131.6 750.9,130.6 753.0,129.6 755.2,128.7 757.3,127.8 759.4,126.8 761.5,126.0 763.7,125.0 765.8,124.2 767.9,123.4 770.0,122.5 772.2,121.7 774.3,120.9 776.4,120.2 778.5,119.6 780.7,119.3 782.8,119.1 784.9,118.3 787.0,117.5 789.2,116.7 791.3,115.8 793.4,115.2 795.5,114.3 797.6,113.6 799.8,112.8 801.9,112.1 804.0,111.4 806.1,110.7 808.3,110.0 810.4,109.2 812.5,108.5 814.6,107.8 816.8,107.1 818.9,106.4 821.0,105.8 823.1,105.0 825.3,104.4 827.4,103.8 829.5,103.0 831.6,102.2 833.8,101.5 835.9,100.8 838.0,100.0 840.1,99.5 842.3,98.8 844.4,98.0 846.5,97.4 848.6,97.0 850.8,96.4 852.9,95.7 855.0,95.0 857.1,94.1 859.3,93.4 861.4,92.7 863.5,92.1 865.6,91.5 867.8,90.7 869.9,90.1 872.0,90.0" fill="none" stroke="#38bdf8" stroke-width="2.5" stroke-linejoin="round" stroke-linecap="round"/>
<circle cx="872.0" cy="90.0" r="4" fill="#0ea5e9"/>
<text x="866.0" y="80.0" text-anchor="end" font-family="Inter, system-ui, sans-serif" font-size="13" font-weight="700" fill="#334155">4485</text>
<text x="52.0" y="294" text-anchor="middle" font-family="Inter, system-ui, sans-serif" font-size="11" fill="#94a3b8">Jun 10 05:00</text>
<text x="566.1" y="294" text-anchor="middle" font-family="Inter, system-ui, sans-serif" font-size="11" fill="#94a3b8">Jun 20 07:00</text>
<text x="872.0" y="294" text-anchor="middle" font-family="Inter, system-ui, sans-serif" font-size="11" fill="#94a3b8">Jun 26 07:00</text>
</svg>
