<svg xmlns="http://www.w3.org/2000/svg" width="900" height="320" viewBox="0 0 900 320" role="img" aria-labelledby="title desc">
<title id="title">unsorry proofs over time</title>
<desc id="desc">Cumulative kernel-verified proofs over time, by the hour each proof was merged.</desc>
<rect width="900" height="100%" rx="18" fill="#ffffff"/>
<rect x="0.5" y="0.5" width="899" height="319" rx="18" fill="none" stroke="#e2e8f0"/>
<text x="32" y="44" font-family="Inter, system-ui, sans-serif" font-size="28" font-weight="700" fill="#334155">unsorry — Proofs Over Time</text>
<text x="32" y="72" font-family="Inter, system-ui, sans-serif" font-size="13" fill="#64748b">2892 cumulative kernel-verified proofs · merged, hourly</text>
<line x1="52" y1="272.0" x2="872" y2="272.0" stroke="#f1f5f9"/>
<text x="44" y="276.0" text-anchor="end" font-family="Inter, system-ui, sans-serif" font-size="11" fill="#94a3b8">0</text>
<line x1="52" y1="226.5" x2="872" y2="226.5" stroke="#f1f5f9"/>
<text x="44" y="230.5" text-anchor="end" font-family="Inter, system-ui, sans-serif" font-size="11" fill="#94a3b8">723</text>
<line x1="52" y1="181.0" x2="872" y2="181.0" stroke="#f1f5f9"/>
<text x="44" y="185.0" text-anchor="end" font-family="Inter, system-ui, sans-serif" font-size="11" fill="#94a3b8">1446</text>
<line x1="52" y1="135.5" x2="872" y2="135.5" stroke="#f1f5f9"/>
<text x="44" y="139.5" text-anchor="end" font-family="Inter, system-ui, sans-serif" font-size="11" fill="#94a3b8">2169</text>
<line x1="52" y1="90.0" x2="872" y2="90.0" stroke="#f1f5f9"/>
<text x="44" y="94.0" text-anchor="end" font-family="Inter, system-ui, sans-serif" font-size="11" fill="#94a3b8">2892</text>
<polygon points="52.0,272.0 52.0,271.9 54.7,271.8 86.7,271.2 89.4,271.0 92.1,270.9 100.1,270.9 116.1,270.8 150.8,270.7 153.5,270.2 156.2,270.1 164.2,270.0 166.9,269.9 169.5,269.9 172.2,269.7 177.5,269.6 180.2,269.3 188.2,269.0 198.9,268.9 201.6,268.7 204.2,268.6 225.6,268.5 231.0,268.5 244.3,268.4 247.0,268.3 249.7,268.2 260.3,268.2 263.0,267.8 265.7,267.5 268.4,266.7 271.0,266.5 289.7,266.5 297.7,266.4 303.1,266.3 305.7,266.3 308.4,266.0 311.1,265.9 313.8,265.8 316.4,265.6 319.1,265.5 329.8,265.1 335.1,265.1 345.8,265.0 348.5,264.7 351.2,264.6 353.8,264.5 359.2,264.4 361.8,263.2 364.5,261.9 367.2,261.5 369.9,261.2 372.5,261.0 375.2,260.7 377.9,260.3 380.5,260.0 383.2,259.8 385.9,259.7 391.2,259.5 393.9,259.0 396.6,258.5 399.2,258.0 401.9,257.7 407.2,257.5 412.6,257.5 415.3,257.0 417.9,256.7 420.6,255.8 423.3,255.3 425.9,254.8 428.6,254.3 431.3,253.7 434.0,253.2 436.6,252.6 439.3,251.9 442.0,251.2 444.6,250.7 447.3,250.3 450.0,249.8 452.7,249.3 455.3,249.1 458.0,248.8 460.7,248.5 463.3,248.3 466.0,248.2 471.3,248.1 474.0,246.9 476.7,246.0 479.4,245.8 482.0,245.8 487.4,245.6 490.0,245.4 500.7,245.4 506.1,245.3 514.1,245.2 516.8,243.7 519.4,242.4 522.1,242.0 524.8,240.8 527.4,240.0 530.1,239.4 532.8,239.1 535.5,238.5 538.1,238.3 540.8,238.1 543.5,237.9 546.1,237.8 562.2,236.8 564.8,235.5 567.5,235.3 570.2,235.1 572.8,235.1 591.5,235.0 615.6,233.7 618.3,232.7 620.9,231.5 623.6,229.7 626.3,229.4 628.9,228.8 631.6,227.8 634.3,227.1 637.0,225.4 639.6,222.8 642.3,220.4 645.0,217.5 647.6,214.5 650.3,211.8 653.0,210.2 655.6,208.2 658.3,205.4 661.0,202.9 663.7,201.3 666.3,199.6 669.0,197.2 671.7,195.7 674.3,194.2 677.0,192.8 679.7,191.8 682.4,190.5 685.0,189.7 687.7,188.8 690.4,188.0 693.0,185.8 695.7,184.0 698.4,183.0 701.1,182.6 703.7,182.1 706.4,181.1 709.1,180.3 711.7,178.8 714.4,177.9 717.1,177.0 719.8,176.8 722.4,176.5 725.1,175.8 727.8,174.0 730.4,171.0 733.1,167.9 735.8,164.8 738.4,162.3 741.1,159.4 743.8,156.2 746.5,153.0 749.1,150.0 751.8,147.9 754.5,146.2 757.1,144.2 759.8,142.4 762.5,141.1 765.2,139.6 767.8,138.5 770.5,136.8 773.2,134.6 775.8,132.0 778.5,129.8 781.2,127.8 783.9,126.6 786.5,125.4 789.2,124.3 791.9,123.0 794.5,120.9 797.2,119.1 799.9,116.9 802.6,114.6 805.2,112.7 807.9,111.2 810.6,110.6 813.2,109.7 815.9,108.8 818.6,108.7 821.3,108.6 823.9,108.1 826.6,107.9 829.3,107.9 831.9,107.6 834.6,107.4 842.6,107.4 845.3,107.3 848.0,106.9 850.6,104.3 853.3,102.1 856.0,100.2 858.6,98.0 861.3,96.0 864.0,94.1 866.7,92.0 869.3,90.1 872.0,90.0 872.0,272.0" fill="#e0f2fe" opacity="0.55"/>
<polyline points="52.0,271.9 54.7,271.8 86.7,271.2 89.4,271.0 92.1,270.9 100.1,270.9 116.1,270.8 150.8,270.7 153.5,270.2 156.2,270.1 164.2,270.0 166.9,269.9 169.5,269.9 172.2,269.7 177.5,269.6 180.2,269.3 188.2,269.0 198.9,268.9 201.6,268.7 204.2,268.6 225.6,268.5 231.0,268.5 244.3,268.4 247.0,268.3 249.7,268.2 260.3,268.2 263.0,267.8 265.7,267.5 268.4,266.7 271.0,266.5 289.7,266.5 297.7,266.4 303.1,266.3 305.7,266.3 308.4,266.0 311.1,265.9 313.8,265.8 316.4,265.6 319.1,265.5 329.8,265.1 335.1,265.1 345.8,265.0 348.5,264.7 351.2,264.6 353.8,264.5 359.2,264.4 361.8,263.2 364.5,261.9 367.2,261.5 369.9,261.2 372.5,261.0 375.2,260.7 377.9,260.3 380.5,260.0 383.2,259.8 385.9,259.7 391.2,259.5 393.9,259.0 396.6,258.5 399.2,258.0 401.9,257.7 407.2,257.5 412.6,257.5 415.3,257.0 417.9,256.7 420.6,255.8 423.3,255.3 425.9,254.8 428.6,254.3 431.3,253.7 434.0,253.2 436.6,252.6 439.3,251.9 442.0,251.2 444.6,250.7 447.3,250.3 450.0,249.8 452.7,249.3 455.3,249.1 458.0,248.8 460.7,248.5 463.3,248.3 466.0,248.2 471.3,248.1 474.0,246.9 476.7,246.0 479.4,245.8 482.0,245.8 487.4,245.6 490.0,245.4 500.7,245.4 506.1,245.3 514.1,245.2 516.8,243.7 519.4,242.4 522.1,242.0 524.8,240.8 527.4,240.0 530.1,239.4 532.8,239.1 535.5,238.5 538.1,238.3 540.8,238.1 543.5,237.9 546.1,237.8 562.2,236.8 564.8,235.5 567.5,235.3 570.2,235.1 572.8,235.1 591.5,235.0 615.6,233.7 618.3,232.7 620.9,231.5 623.6,229.7 626.3,229.4 628.9,228.8 631.6,227.8 634.3,227.1 637.0,225.4 639.6,222.8 642.3,220.4 645.0,217.5 647.6,214.5 650.3,211.8 653.0,210.2 655.6,208.2 658.3,205.4 661.0,202.9 663.7,201.3 666.3,199.6 669.0,197.2 671.7,195.7 674.3,194.2 677.0,192.8 679.7,191.8 682.4,190.5 685.0,189.7 687.7,188.8 690.4,188.0 693.0,185.8 695.7,184.0 698.4,183.0 701.1,182.6 703.7,182.1 706.4,181.1 709.1,180.3 711.7,178.8 714.4,177.9 717.1,177.0 719.8,176.8 722.4,176.5 725.1,175.8 727.8,174.0 730.4,171.0 733.1,167.9 735.8,164.8 738.4,162.3 741.1,159.4 743.8,156.2 746.5,153.0 749.1,150.0 751.8,147.9 754.5,146.2 757.1,144.2 759.8,142.4 762.5,141.1 765.2,139.6 767.8,138.5 770.5,136.8 773.2,134.6 775.8,132.0 778.5,129.8 781.2,127.8 783.9,126.6 786.5,125.4 789.2,124.3 791.9,123.0 794.5,120.9 797.2,119.1 799.9,116.9 802.6,114.6 805.2,112.7 807.9,111.2 810.6,110.6 813.2,109.7 815.9,108.8 818.6,108.7 821.3,108.6 823.9,108.1 826.6,107.9 829.3,107.9 831.9,107.6 834.6,107.4 842.6,107.4 845.3,107.3 848.0,106.9 850.6,104.3 853.3,102.1 856.0,100.2 858.6,98.0 861.3,96.0 864.0,94.1 866.7,92.0 869.3,90.1 872.0,90.0" fill="none" stroke="#38bdf8" stroke-width="2.5" stroke-linejoin="round" stroke-linecap="round"/>
<circle cx="872.0" cy="90.0" r="4" fill="#0ea5e9"/>
<text x="866.0" y="80.0" text-anchor="end" font-family="Inter, system-ui, sans-serif" font-size="13" font-weight="700" fill="#334155">2892</text>
<text x="52.0" y="294" text-anchor="middle" font-family="Inter, system-ui, sans-serif" font-size="11" fill="#94a3b8">Jun 10 05:00</text>
<text x="543.5" y="294" text-anchor="middle" font-family="Inter, system-ui, sans-serif" font-size="11" fill="#94a3b8">Jun 17 21:00</text>
<text x="872.0" y="294" text-anchor="middle" font-family="Inter, system-ui, sans-serif" font-size="11" fill="#94a3b8">Jun 23 00:00</text>
</svg>
