<svg xmlns="http://www.w3.org/2000/svg" width="900" height="320" viewBox="0 0 900 320" role="img" aria-labelledby="title desc">
<title id="title">unsorry proofs over time</title>
<desc id="desc">Cumulative kernel-verified proofs over time, by the hour each proof was merged.</desc>
<rect width="900" height="100%" rx="18" fill="#ffffff"/>
<rect x="0.5" y="0.5" width="899" height="319" rx="18" fill="none" stroke="#e2e8f0"/>
<text x="32" y="44" font-family="Inter, system-ui, sans-serif" font-size="28" font-weight="700" fill="#334155">unsorry — Proofs Over Time</text>
<text x="32" y="72" font-family="Inter, system-ui, sans-serif" font-size="13" fill="#64748b">3182 cumulative kernel-verified proofs · merged, hourly</text>
<line x1="52" y1="272.0" x2="872" y2="272.0" stroke="#f1f5f9"/>
<text x="44" y="276.0" text-anchor="end" font-family="Inter, system-ui, sans-serif" font-size="11" fill="#94a3b8">0</text>
<line x1="52" y1="226.5" x2="872" y2="226.5" stroke="#f1f5f9"/>
<text x="44" y="230.5" text-anchor="end" font-family="Inter, system-ui, sans-serif" font-size="11" fill="#94a3b8">796</text>
<line x1="52" y1="181.0" x2="872" y2="181.0" stroke="#f1f5f9"/>
<text x="44" y="185.0" text-anchor="end" font-family="Inter, system-ui, sans-serif" font-size="11" fill="#94a3b8">1591</text>
<line x1="52" y1="135.5" x2="872" y2="135.5" stroke="#f1f5f9"/>
<text x="44" y="139.5" text-anchor="end" font-family="Inter, system-ui, sans-serif" font-size="11" fill="#94a3b8">2386</text>
<line x1="52" y1="90.0" x2="872" y2="90.0" stroke="#f1f5f9"/>
<text x="44" y="94.0" text-anchor="end" font-family="Inter, system-ui, sans-serif" font-size="11" fill="#94a3b8">3182</text>
<polygon points="52.0,272.0 52.0,271.9 54.6,271.8 85.7,271.3 88.3,271.1 90.9,271.0 98.7,271.0 114.3,270.9 148.0,270.9 150.6,270.3 153.2,270.3 161.0,270.2 163.6,270.1 166.2,270.1 168.8,269.9 174.0,269.8 176.6,269.5 184.3,269.3 194.7,269.2 197.3,269.0 199.9,268.9 220.7,268.9 225.9,268.8 238.8,268.7 241.4,268.7 244.0,268.6 254.4,268.5 257.0,268.2 259.6,267.9 262.2,267.1 264.8,267.0 282.9,267.0 290.7,266.9 295.9,266.9 298.5,266.8 301.1,266.5 303.7,266.5 306.3,266.4 308.9,266.2 311.5,266.1 321.9,265.8 327.1,265.7 337.4,265.7 340.0,265.4 342.6,265.3 345.2,265.2 350.4,265.1 353.0,264.0 355.6,262.8 358.2,262.4 360.8,262.2 363.4,262.0 366.0,261.8 368.6,261.4 371.2,261.1 373.8,260.9 376.4,260.8 381.6,260.6 384.2,260.2 386.7,259.7 389.3,259.2 391.9,259.0 397.1,258.8 402.3,258.8 404.9,258.4 407.5,258.1 410.1,257.3 412.7,256.8 415.3,256.4 417.9,255.9 420.5,255.4 423.1,254.9 425.7,254.3 428.3,253.7 430.9,253.1 433.5,252.6 436.1,252.3 438.6,251.9 441.2,251.4 443.8,251.2 446.4,250.9 449.0,250.6 451.6,250.5 454.2,250.4 459.4,250.3 462.0,249.2 464.6,248.4 467.2,248.2 469.8,248.1 475.0,248.0 477.6,247.9 487.9,247.8 493.1,247.7 500.9,247.6 503.5,246.3 506.1,245.1 508.7,244.7 511.3,243.7 513.9,242.9 516.5,242.4 519.1,242.1 521.7,241.6 524.3,241.3 526.9,241.2 529.5,241.0 532.1,240.9 547.6,240.0 550.2,238.8 552.8,238.7 555.4,238.5 558.0,238.4 576.2,238.4 599.5,237.2 602.1,236.3 604.7,235.2 607.3,233.6 609.9,233.3 612.5,232.8 615.1,231.8 617.7,231.2 620.3,229.6 622.9,227.3 625.5,225.1 628.1,222.5 630.7,219.7 633.3,217.3 635.9,215.8 638.5,214.1 641.1,211.4 643.6,209.2 646.2,207.7 648.8,206.2 651.4,204.0 654.0,202.6 656.6,201.2 659.2,200.0 661.8,199.1 664.4,197.9 667.0,197.2 669.6,196.4 672.2,195.7 674.8,193.6 677.4,192.0 680.0,191.1 682.6,190.8 685.2,190.3 687.8,189.4 690.4,188.7 692.9,187.3 695.5,186.4 698.1,185.6 700.7,185.5 703.3,185.2 705.9,184.5 708.5,182.9 711.1,180.2 713.7,177.4 716.3,174.6 718.9,172.3 721.5,169.6 724.1,166.8 726.7,163.8 729.3,161.2 731.9,159.2 734.5,157.7 737.1,155.9 739.7,154.2 742.3,153.0 744.8,151.7 747.4,150.6 750.0,149.1 752.6,147.1 755.2,144.7 757.8,142.7 760.4,141.0 763.0,139.8 765.6,138.8 768.2,137.8 770.8,136.6 773.4,134.7 776.0,133.0 778.6,131.0 781.2,129.0 783.8,127.2 786.4,125.9 789.0,125.3 791.6,124.5 794.2,123.7 796.7,123.6 799.3,123.5 801.9,123.1 804.5,122.9 807.1,122.8 809.7,122.5 812.3,122.4 820.1,122.4 822.7,122.3 825.3,122.0 827.9,119.6 830.5,117.6 833.1,115.9 835.7,113.9 838.3,112.1 840.9,110.3 843.5,108.4 846.1,106.7 848.6,104.8 851.2,103.1 853.8,101.3 856.4,99.6 859.0,98.0 861.6,96.2 864.2,94.6 866.8,93.1 869.4,91.5 872.0,90.0 872.0,272.0" fill="#e0f2fe" opacity="0.55"/>
<polyline points="52.0,271.9 54.6,271.8 85.7,271.3 88.3,271.1 90.9,271.0 98.7,271.0 114.3,270.9 148.0,270.9 150.6,270.3 153.2,270.3 161.0,270.2 163.6,270.1 166.2,270.1 168.8,269.9 174.0,269.8 176.6,269.5 184.3,269.3 194.7,269.2 197.3,269.0 199.9,268.9 220.7,268.9 225.9,268.8 238.8,268.7 241.4,268.7 244.0,268.6 254.4,268.5 257.0,268.2 259.6,267.9 262.2,267.1 264.8,267.0 282.9,267.0 290.7,266.9 295.9,266.9 298.5,266.8 301.1,266.5 303.7,266.5 306.3,266.4 308.9,266.2 311.5,266.1 321.9,265.8 327.1,265.7 337.4,265.7 340.0,265.4 342.6,265.3 345.2,265.2 350.4,265.1 353.0,264.0 355.6,262.8 358.2,262.4 360.8,262.2 363.4,262.0 366.0,261.8 368.6,261.4 371.2,261.1 373.8,260.9 376.4,260.8 381.6,260.6 384.2,260.2 386.7,259.7 389.3,259.2 391.9,259.0 397.1,258.8 402.3,258.8 404.9,258.4 407.5,258.1 410.1,257.3 412.7,256.8 415.3,256.4 417.9,255.9 420.5,255.4 423.1,254.9 425.7,254.3 428.3,253.7 430.9,253.1 433.5,252.6 436.1,252.3 438.6,251.9 441.2,251.4 443.8,251.2 446.4,250.9 449.0,250.6 451.6,250.5 454.2,250.4 459.4,250.3 462.0,249.2 464.6,248.4 467.2,248.2 469.8,248.1 475.0,248.0 477.6,247.9 487.9,247.8 493.1,247.7 500.9,247.6 503.5,246.3 506.1,245.1 508.7,244.7 511.3,243.7 513.9,242.9 516.5,242.4 519.1,242.1 521.7,241.6 524.3,241.3 526.9,241.2 529.5,241.0 532.1,240.9 547.6,240.0 550.2,238.8 552.8,238.7 555.4,238.5 558.0,238.4 576.2,238.4 599.5,237.2 602.1,236.3 604.7,235.2 607.3,233.6 609.9,233.3 612.5,232.8 615.1,231.8 617.7,231.2 620.3,229.6 622.9,227.3 625.5,225.1 628.1,222.5 630.7,219.7 633.3,217.3 635.9,215.8 638.5,214.1 641.1,211.4 643.6,209.2 646.2,207.7 648.8,206.2 651.4,204.0 654.0,202.6 656.6,201.2 659.2,200.0 661.8,199.1 664.4,197.9 667.0,197.2 669.6,196.4 672.2,195.7 674.8,193.6 677.4,192.0 680.0,191.1 682.6,190.8 685.2,190.3 687.8,189.4 690.4,188.7 692.9,187.3 695.5,186.4 698.1,185.6 700.7,185.5 703.3,185.2 705.9,184.5 708.5,182.9 711.1,180.2 713.7,177.4 716.3,174.6 718.9,172.3 721.5,169.6 724.1,166.8 726.7,163.8 729.3,161.2 731.9,159.2 734.5,157.7 737.1,155.9 739.7,154.2 742.3,153.0 744.8,151.7 747.4,150.6 750.0,149.1 752.6,147.1 755.2,144.7 757.8,142.7 760.4,141.0 763.0,139.8 765.6,138.8 768.2,137.8 770.8,136.6 773.4,134.7 776.0,133.0 778.6,131.0 781.2,129.0 783.8,127.2 786.4,125.9 789.0,125.3 791.6,124.5 794.2,123.7 796.7,123.6 799.3,123.5 801.9,123.1 804.5,122.9 807.1,122.8 809.7,122.5 812.3,122.4 820.1,122.4 822.7,122.3 825.3,122.0 827.9,119.6 830.5,117.6 833.1,115.9 835.7,113.9 838.3,112.1 840.9,110.3 843.5,108.4 846.1,106.7 848.6,104.8 851.2,103.1 853.8,101.3 856.4,99.6 859.0,98.0 861.6,96.2 864.2,94.6 866.8,93.1 869.4,91.5 872.0,90.0" fill="none" stroke="#38bdf8" stroke-width="2.5" stroke-linejoin="round" stroke-linecap="round"/>
<circle cx="872.0" cy="90.0" r="4" fill="#0ea5e9"/>
<text x="866.0" y="80.0" text-anchor="end" font-family="Inter, system-ui, sans-serif" font-size="13" font-weight="700" fill="#334155">3182</text>
<text x="52.0" y="294" text-anchor="middle" font-family="Inter, system-ui, sans-serif" font-size="11" fill="#94a3b8">Jun 10 05:00</text>
<text x="552.8" y="294" text-anchor="middle" font-family="Inter, system-ui, sans-serif" font-size="11" fill="#94a3b8">Jun 18 06:00</text>
<text x="872.0" y="294" text-anchor="middle" font-family="Inter, system-ui, sans-serif" font-size="11" fill="#94a3b8">Jun 23 09:00</text>
</svg>
