<svg xmlns="http://www.w3.org/2000/svg" width="900" height="320" viewBox="0 0 900 320" role="img" aria-labelledby="title desc">
<title id="title">unsorry proofs over time</title>
<desc id="desc">Cumulative kernel-verified proofs over time, by the hour each proof was merged.</desc>
<rect width="900" height="100%" rx="18" fill="#ffffff"/>
<rect x="0.5" y="0.5" width="899" height="319" rx="18" fill="none" stroke="#e2e8f0"/>
<text x="32" y="44" font-family="Inter, system-ui, sans-serif" font-size="28" font-weight="700" fill="#334155">unsorry — Proofs Over Time</text>
<text x="32" y="72" font-family="Inter, system-ui, sans-serif" font-size="13" fill="#64748b">3222 cumulative kernel-verified proofs · merged, hourly</text>
<line x1="52" y1="272.0" x2="872" y2="272.0" stroke="#f1f5f9"/>
<text x="44" y="276.0" text-anchor="end" font-family="Inter, system-ui, sans-serif" font-size="11" fill="#94a3b8">0</text>
<line x1="52" y1="226.5" x2="872" y2="226.5" stroke="#f1f5f9"/>
<text x="44" y="230.5" text-anchor="end" font-family="Inter, system-ui, sans-serif" font-size="11" fill="#94a3b8">806</text>
<line x1="52" y1="181.0" x2="872" y2="181.0" stroke="#f1f5f9"/>
<text x="44" y="185.0" text-anchor="end" font-family="Inter, system-ui, sans-serif" font-size="11" fill="#94a3b8">1611</text>
<line x1="52" y1="135.5" x2="872" y2="135.5" stroke="#f1f5f9"/>
<text x="44" y="139.5" text-anchor="end" font-family="Inter, system-ui, sans-serif" font-size="11" fill="#94a3b8">2416</text>
<line x1="52" y1="90.0" x2="872" y2="90.0" stroke="#f1f5f9"/>
<text x="44" y="94.0" text-anchor="end" font-family="Inter, system-ui, sans-serif" font-size="11" fill="#94a3b8">3222</text>
<polygon points="52.0,272.0 52.0,271.9 54.6,271.8 85.5,271.3 88.1,271.1 90.7,271.0 98.4,271.0 113.9,270.9 147.4,270.9 150.0,270.4 152.6,270.3 160.3,270.2 162.9,270.1 165.5,270.1 168.0,269.9 173.2,269.9 175.8,269.6 183.5,269.3 193.8,269.2 196.4,269.1 199.0,268.9 219.6,268.9 224.8,268.8 237.7,268.8 240.2,268.7 242.8,268.6 253.1,268.6 255.7,268.2 258.3,267.9 260.9,267.2 263.4,267.1 281.5,267.0 289.2,267.0 294.4,266.9 297.0,266.9 299.5,266.6 302.1,266.5 304.7,266.5 307.3,266.3 309.9,266.1 320.2,265.8 325.3,265.8 335.6,265.7 338.2,265.4 340.8,265.4 343.4,265.3 348.5,265.2 351.1,264.1 353.7,263.0 356.3,262.6 358.9,262.3 361.4,262.2 364.0,261.9 366.6,261.5 369.2,261.2 371.7,261.0 374.3,260.9 379.5,260.8 382.1,260.3 384.6,259.9 387.2,259.4 389.8,259.1 395.0,259.0 400.1,259.0 402.7,258.6 405.3,258.3 407.8,257.5 410.4,257.0 413.0,256.6 415.6,256.1 418.2,255.6 420.7,255.1 423.3,254.5 425.9,253.9 428.5,253.4 431.1,252.9 433.6,252.5 436.2,252.1 438.8,251.7 441.4,251.4 443.9,251.2 446.5,250.9 449.1,250.8 451.7,250.6 456.8,250.6 459.4,249.5 462.0,248.7 464.6,248.5 467.2,248.4 472.3,248.3 474.9,248.2 485.2,248.1 490.4,248.0 498.1,247.9 500.7,246.6 503.3,245.4 505.8,245.1 508.4,244.0 511.0,243.2 513.6,242.7 516.2,242.5 518.7,241.9 521.3,241.7 523.9,241.6 526.5,241.4 529.0,241.3 544.5,240.4 547.1,239.2 549.7,239.1 552.3,238.9 554.8,238.8 572.9,238.8 596.1,237.6 598.7,236.7 601.2,235.6 603.8,234.0 606.4,233.8 609.0,233.3 611.6,232.3 614.1,231.7 616.7,230.1 619.3,227.9 621.9,225.7 624.5,223.1 627.0,220.4 629.6,218.0 632.2,216.5 634.8,214.8 637.3,212.2 639.9,210.0 642.5,208.5 645.1,207.0 647.7,204.8 650.2,203.5 652.8,202.1 655.4,200.9 658.0,200.0 660.6,198.8 663.1,198.1 665.7,197.3 668.3,196.6 670.9,194.6 673.4,193.0 676.0,192.1 678.6,191.8 681.2,191.3 683.8,190.4 686.3,189.7 688.9,188.3 691.5,187.5 694.1,186.7 696.7,186.6 699.2,186.3 701.8,185.6 704.4,184.0 707.0,181.3 709.5,178.6 712.1,175.8 714.7,173.5 717.3,170.9 719.9,168.1 722.4,165.2 725.0,162.5 727.6,160.6 730.2,159.1 732.8,157.3 735.3,155.6 737.9,154.5 740.5,153.2 743.1,152.1 745.6,150.7 748.2,148.7 750.8,146.3 753.4,144.3 756.0,142.6 758.5,141.5 761.1,140.4 763.7,139.4 766.3,138.3 768.9,136.4 771.4,134.7 774.0,132.8 776.6,130.7 779.2,129.0 781.7,127.7 784.3,127.1 786.9,126.3 789.5,125.5 792.1,125.4 794.6,125.3 797.2,124.9 799.8,124.7 802.4,124.7 805.0,124.4 807.5,124.3 815.3,124.2 817.8,124.2 820.4,123.8 823.0,121.5 825.6,119.5 828.2,117.8 830.7,115.8 833.3,114.1 835.9,112.3 838.5,110.4 841.1,108.8 843.6,106.9 846.2,105.2 848.8,103.4 851.4,101.7 853.9,100.1 856.5,98.4 859.1,96.8 861.7,95.4 864.3,93.8 866.8,92.2 869.4,90.6 872.0,90.0 872.0,272.0" fill="#e0f2fe" opacity="0.55"/>
<polyline points="52.0,271.9 54.6,271.8 85.5,271.3 88.1,271.1 90.7,271.0 98.4,271.0 113.9,270.9 147.4,270.9 150.0,270.4 152.6,270.3 160.3,270.2 162.9,270.1 165.5,270.1 168.0,269.9 173.2,269.9 175.8,269.6 183.5,269.3 193.8,269.2 196.4,269.1 199.0,268.9 219.6,268.9 224.8,268.8 237.7,268.8 240.2,268.7 242.8,268.6 253.1,268.6 255.7,268.2 258.3,267.9 260.9,267.2 263.4,267.1 281.5,267.0 289.2,267.0 294.4,266.9 297.0,266.9 299.5,266.6 302.1,266.5 304.7,266.5 307.3,266.3 309.9,266.1 320.2,265.8 325.3,265.8 335.6,265.7 338.2,265.4 340.8,265.4 343.4,265.3 348.5,265.2 351.1,264.1 353.7,263.0 356.3,262.6 358.9,262.3 361.4,262.2 364.0,261.9 366.6,261.5 369.2,261.2 371.7,261.0 374.3,260.9 379.5,260.8 382.1,260.3 384.6,259.9 387.2,259.4 389.8,259.1 395.0,259.0 400.1,259.0 402.7,258.6 405.3,258.3 407.8,257.5 410.4,257.0 413.0,256.6 415.6,256.1 418.2,255.6 420.7,255.1 423.3,254.5 425.9,253.9 428.5,253.4 431.1,252.9 433.6,252.5 436.2,252.1 438.8,251.7 441.4,251.4 443.9,251.2 446.5,250.9 449.1,250.8 451.7,250.6 456.8,250.6 459.4,249.5 462.0,248.7 464.6,248.5 467.2,248.4 472.3,248.3 474.9,248.2 485.2,248.1 490.4,248.0 498.1,247.9 500.7,246.6 503.3,245.4 505.8,245.1 508.4,244.0 511.0,243.2 513.6,242.7 516.2,242.5 518.7,241.9 521.3,241.7 523.9,241.6 526.5,241.4 529.0,241.3 544.5,240.4 547.1,239.2 549.7,239.1 552.3,238.9 554.8,238.8 572.9,238.8 596.1,237.6 598.7,236.7 601.2,235.6 603.8,234.0 606.4,233.8 609.0,233.3 611.6,232.3 614.1,231.7 616.7,230.1 619.3,227.9 621.9,225.7 624.5,223.1 627.0,220.4 629.6,218.0 632.2,216.5 634.8,214.8 637.3,212.2 639.9,210.0 642.5,208.5 645.1,207.0 647.7,204.8 650.2,203.5 652.8,202.1 655.4,200.9 658.0,200.0 660.6,198.8 663.1,198.1 665.7,197.3 668.3,196.6 670.9,194.6 673.4,193.0 676.0,192.1 678.6,191.8 681.2,191.3 683.8,190.4 686.3,189.7 688.9,188.3 691.5,187.5 694.1,186.7 696.7,186.6 699.2,186.3 701.8,185.6 704.4,184.0 707.0,181.3 709.5,178.6 712.1,175.8 714.7,173.5 717.3,170.9 719.9,168.1 722.4,165.2 725.0,162.5 727.6,160.6 730.2,159.1 732.8,157.3 735.3,155.6 737.9,154.5 740.5,153.2 743.1,152.1 745.6,150.7 748.2,148.7 750.8,146.3 753.4,144.3 756.0,142.6 758.5,141.5 761.1,140.4 763.7,139.4 766.3,138.3 768.9,136.4 771.4,134.7 774.0,132.8 776.6,130.7 779.2,129.0 781.7,127.7 784.3,127.1 786.9,126.3 789.5,125.5 792.1,125.4 794.6,125.3 797.2,124.9 799.8,124.7 802.4,124.7 805.0,124.4 807.5,124.3 815.3,124.2 817.8,124.2 820.4,123.8 823.0,121.5 825.6,119.5 828.2,117.8 830.7,115.8 833.3,114.1 835.9,112.3 838.5,110.4 841.1,108.8 843.6,106.9 846.2,105.2 848.8,103.4 851.4,101.7 853.9,100.1 856.5,98.4 859.1,96.8 861.7,95.4 864.3,93.8 866.8,92.2 869.4,90.6 872.0,90.0" fill="none" stroke="#38bdf8" stroke-width="2.5" stroke-linejoin="round" stroke-linecap="round"/>
<circle cx="872.0" cy="90.0" r="4" fill="#0ea5e9"/>
<text x="866.0" y="80.0" text-anchor="end" font-family="Inter, system-ui, sans-serif" font-size="13" font-weight="700" fill="#334155">3222</text>
<text x="52.0" y="294" text-anchor="middle" font-family="Inter, system-ui, sans-serif" font-size="11" fill="#94a3b8">Jun 10 05:00</text>
<text x="552.3" y="294" text-anchor="middle" font-family="Inter, system-ui, sans-serif" font-size="11" fill="#94a3b8">Jun 18 07:00</text>
<text x="872.0" y="294" text-anchor="middle" font-family="Inter, system-ui, sans-serif" font-size="11" fill="#94a3b8">Jun 23 11:00</text>
</svg>
