<svg xmlns="http://www.w3.org/2000/svg" width="900" height="320" viewBox="0 0 900 320" role="img" aria-labelledby="title desc">
<title id="title">unsorry proofs over time</title>
<desc id="desc">Cumulative kernel-verified proofs over time, by the hour each proof was merged.</desc>
<rect width="900" height="100%" rx="18" fill="#ffffff"/>
<rect x="0.5" y="0.5" width="899" height="319" rx="18" fill="none" stroke="#e2e8f0"/>
<text x="32" y="44" font-family="Inter, system-ui, sans-serif" font-size="28" font-weight="700" fill="#334155">unsorry — Proofs Over Time</text>
<text x="32" y="72" font-family="Inter, system-ui, sans-serif" font-size="13" fill="#64748b">3624 cumulative kernel-verified proofs · merged, hourly</text>
<line x1="52" y1="272.0" x2="872" y2="272.0" stroke="#f1f5f9"/>
<text x="44" y="276.0" text-anchor="end" font-family="Inter, system-ui, sans-serif" font-size="11" fill="#94a3b8">0</text>
<line x1="52" y1="226.5" x2="872" y2="226.5" stroke="#f1f5f9"/>
<text x="44" y="230.5" text-anchor="end" font-family="Inter, system-ui, sans-serif" font-size="11" fill="#94a3b8">906</text>
<line x1="52" y1="181.0" x2="872" y2="181.0" stroke="#f1f5f9"/>
<text x="44" y="185.0" text-anchor="end" font-family="Inter, system-ui, sans-serif" font-size="11" fill="#94a3b8">1812</text>
<line x1="52" y1="135.5" x2="872" y2="135.5" stroke="#f1f5f9"/>
<text x="44" y="139.5" text-anchor="end" font-family="Inter, system-ui, sans-serif" font-size="11" fill="#94a3b8">2718</text>
<line x1="52" y1="90.0" x2="872" y2="90.0" stroke="#f1f5f9"/>
<text x="44" y="94.0" text-anchor="end" font-family="Inter, system-ui, sans-serif" font-size="11" fill="#94a3b8">3624</text>
<polygon points="52.0,272.0 52.0,271.9 54.4,271.8 83.7,271.3 86.2,271.2 88.6,271.1 95.9,271.1 110.6,271.0 142.3,271.0 144.7,270.5 147.2,270.5 154.5,270.4 156.9,270.3 159.4,270.3 161.8,270.1 166.7,270.1 169.1,269.8 176.5,269.6 186.2,269.5 188.7,269.4 191.1,269.3 210.6,269.2 215.5,269.2 227.7,269.1 230.2,269.1 232.6,269.0 242.4,268.9 244.8,268.6 247.2,268.4 249.7,267.7 252.1,267.6 269.2,267.6 276.5,267.5 281.4,267.5 283.8,267.4 286.3,267.2 288.7,267.1 291.2,267.1 293.6,266.9 296.0,266.8 305.8,266.5 310.7,266.5 320.5,266.4 322.9,266.2 325.3,266.1 327.8,266.0 332.7,266.0 335.1,265.0 337.5,264.0 340.0,263.6 342.4,263.4 344.9,263.3 347.3,263.0 349.7,262.7 352.2,262.4 354.6,262.3 357.1,262.2 361.9,262.0 364.4,261.6 366.8,261.2 369.3,260.8 371.7,260.5 376.6,260.4 381.5,260.4 383.9,260.0 386.3,259.8 388.8,259.1 391.2,258.7 393.7,258.3 396.1,257.9 398.5,257.4 401.0,257.0 403.4,256.5 405.9,255.9 408.3,255.4 410.8,255.0 413.2,254.7 415.6,254.3 418.1,253.9 420.5,253.7 423.0,253.5 425.4,253.2 427.8,253.1 430.3,253.0 435.2,253.0 437.6,252.0 440.0,251.3 442.5,251.1 444.9,251.1 449.8,251.0 452.2,250.8 462.0,250.8 466.9,250.7 474.2,250.6 476.6,249.5 479.1,248.3 481.5,248.0 484.0,247.1 486.4,246.4 488.8,246.0 491.3,245.7 493.7,245.3 496.2,245.1 498.6,245.0 501.0,244.8 503.5,244.7 518.1,243.9 520.6,242.9 523.0,242.7 525.5,242.6 527.9,242.5 545.0,242.5 566.9,241.4 569.4,240.6 571.8,239.7 574.3,238.3 576.7,238.0 579.1,237.5 581.6,236.7 584.0,236.1 586.5,234.8 588.9,232.8 591.3,230.8 593.8,228.5 596.2,226.1 598.7,224.0 601.1,222.7 603.5,221.1 606.0,218.8 608.4,216.9 610.9,215.6 613.3,214.2 615.8,212.3 618.2,211.1 620.6,209.9 623.1,208.8 625.5,208.0 628.0,207.0 630.4,206.3 632.8,205.6 635.3,205.0 637.7,203.2 640.2,201.7 642.6,200.9 645.0,200.7 647.5,200.2 649.9,199.5 652.4,198.8 654.8,197.6 657.2,196.9 659.7,196.2 662.1,196.1 664.6,195.8 667.0,195.2 669.4,193.8 671.9,191.4 674.3,188.9 676.8,186.5 679.2,184.5 681.6,182.1 684.1,179.6 686.5,177.0 689.0,174.7 691.4,173.0 693.8,171.6 696.3,170.1 698.7,168.5 701.2,167.5 703.6,166.3 706.0,165.4 708.5,164.1 710.9,162.4 713.4,160.3 715.8,158.5 718.2,156.9 720.7,155.9 723.1,155.0 725.6,154.1 728.0,153.1 730.5,151.4 732.9,150.0 735.3,148.2 737.8,146.4 740.2,144.9 742.7,143.7 745.1,143.2 747.5,142.5 750.0,141.8 752.4,141.7 754.9,141.6 757.3,141.2 759.7,141.1 762.2,141.0 764.6,140.8 767.1,140.7 774.4,140.6 776.8,140.6 779.3,140.3 781.7,138.2 784.1,136.5 786.6,134.9 789.0,133.1 791.5,131.6 793.9,130.0 796.3,128.4 798.8,126.9 801.2,125.2 803.7,123.7 806.1,122.1 808.5,120.6 811.0,119.2 813.4,117.7 815.9,116.2 818.3,115.0 820.8,113.6 823.2,112.1 825.6,110.7 828.1,109.4 830.5,108.1 833.0,107.2 835.4,106.3 837.8,105.4 840.3,104.1 842.7,102.9 845.2,101.8 847.6,100.4 850.0,99.3 852.5,98.2 854.9,97.0 857.4,95.8 859.8,94.7 862.2,93.6 864.7,92.3 867.1,91.3 869.6,90.1 872.0,90.0 872.0,272.0" fill="#e0f2fe" opacity="0.55"/>
<polyline points="52.0,271.9 54.4,271.8 83.7,271.3 86.2,271.2 88.6,271.1 95.9,271.1 110.6,271.0 142.3,271.0 144.7,270.5 147.2,270.5 154.5,270.4 156.9,270.3 159.4,270.3 161.8,270.1 166.7,270.1 169.1,269.8 176.5,269.6 186.2,269.5 188.7,269.4 191.1,269.3 210.6,269.2 215.5,269.2 227.7,269.1 230.2,269.1 232.6,269.0 242.4,268.9 244.8,268.6 247.2,268.4 249.7,267.7 252.1,267.6 269.2,267.6 276.5,267.5 281.4,267.5 283.8,267.4 286.3,267.2 288.7,267.1 291.2,267.1 293.6,266.9 296.0,266.8 305.8,266.5 310.7,266.5 320.5,266.4 322.9,266.2 325.3,266.1 327.8,266.0 332.7,266.0 335.1,265.0 337.5,264.0 340.0,263.6 342.4,263.4 344.9,263.3 347.3,263.0 349.7,262.7 352.2,262.4 354.6,262.3 357.1,262.2 361.9,262.0 364.4,261.6 366.8,261.2 369.3,260.8 371.7,260.5 376.6,260.4 381.5,260.4 383.9,260.0 386.3,259.8 388.8,259.1 391.2,258.7 393.7,258.3 396.1,257.9 398.5,257.4 401.0,257.0 403.4,256.5 405.9,255.9 408.3,255.4 410.8,255.0 413.2,254.7 415.6,254.3 418.1,253.9 420.5,253.7 423.0,253.5 425.4,253.2 427.8,253.1 430.3,253.0 435.2,253.0 437.6,252.0 440.0,251.3 442.5,251.1 444.9,251.1 449.8,251.0 452.2,250.8 462.0,250.8 466.9,250.7 474.2,250.6 476.6,249.5 479.1,248.3 481.5,248.0 484.0,247.1 486.4,246.4 488.8,246.0 491.3,245.7 493.7,245.3 496.2,245.1 498.6,245.0 501.0,244.8 503.5,244.7 518.1,243.9 520.6,242.9 523.0,242.7 525.5,242.6 527.9,242.5 545.0,242.5 566.9,241.4 569.4,240.6 571.8,239.7 574.3,238.3 576.7,238.0 579.1,237.5 581.6,236.7 584.0,236.1 586.5,234.8 588.9,232.8 591.3,230.8 593.8,228.5 596.2,226.1 598.7,224.0 601.1,222.7 603.5,221.1 606.0,218.8 608.4,216.9 610.9,215.6 613.3,214.2 615.8,212.3 618.2,211.1 620.6,209.9 623.1,208.8 625.5,208.0 628.0,207.0 630.4,206.3 632.8,205.6 635.3,205.0 637.7,203.2 640.2,201.7 642.6,200.9 645.0,200.7 647.5,200.2 649.9,199.5 652.4,198.8 654.8,197.6 657.2,196.9 659.7,196.2 662.1,196.1 664.6,195.8 667.0,195.2 669.4,193.8 671.9,191.4 674.3,188.9 676.8,186.5 679.2,184.5 681.6,182.1 684.1,179.6 686.5,177.0 689.0,174.7 691.4,173.0 693.8,171.6 696.3,170.1 698.7,168.5 701.2,167.5 703.6,166.3 706.0,165.4 708.5,164.1 710.9,162.4 713.4,160.3 715.8,158.5 718.2,156.9 720.7,155.9 723.1,155.0 725.6,154.1 728.0,153.1 730.5,151.4 732.9,150.0 735.3,148.2 737.8,146.4 740.2,144.9 742.7,143.7 745.1,143.2 747.5,142.5 750.0,141.8 752.4,141.7 754.9,141.6 757.3,141.2 759.7,141.1 762.2,141.0 764.6,140.8 767.1,140.7 774.4,140.6 776.8,140.6 779.3,140.3 781.7,138.2 784.1,136.5 786.6,134.9 789.0,133.1 791.5,131.6 793.9,130.0 796.3,128.4 798.8,126.9 801.2,125.2 803.7,123.7 806.1,122.1 808.5,120.6 811.0,119.2 813.4,117.7 815.9,116.2 818.3,115.0 820.8,113.6 823.2,112.1 825.6,110.7 828.1,109.4 830.5,108.1 833.0,107.2 835.4,106.3 837.8,105.4 840.3,104.1 842.7,102.9 845.2,101.8 847.6,100.4 850.0,99.3 852.5,98.2 854.9,97.0 857.4,95.8 859.8,94.7 862.2,93.6 864.7,92.3 867.1,91.3 869.6,90.1 872.0,90.0" fill="none" stroke="#38bdf8" stroke-width="2.5" stroke-linejoin="round" stroke-linecap="round"/>
<circle cx="872.0" cy="90.0" r="4" fill="#0ea5e9"/>
<text x="866.0" y="80.0" text-anchor="end" font-family="Inter, system-ui, sans-serif" font-size="13" font-weight="700" fill="#334155">3624</text>
<text x="52.0" y="294" text-anchor="middle" font-family="Inter, system-ui, sans-serif" font-size="11" fill="#94a3b8">Jun 10 05:00</text>
<text x="581.6" y="294" text-anchor="middle" font-family="Inter, system-ui, sans-serif" font-size="11" fill="#94a3b8">Jun 19 06:00</text>
<text x="872.0" y="294" text-anchor="middle" font-family="Inter, system-ui, sans-serif" font-size="11" fill="#94a3b8">Jun 24 05:00</text>
</svg>
