<svg xmlns="http://www.w3.org/2000/svg" width="900" height="320" viewBox="0 0 900 320" role="img" aria-labelledby="title desc">
<title id="title">unsorry proofs over time</title>
<desc id="desc">Cumulative kernel-verified proofs over time, by the hour each proof was merged.</desc>
<rect width="900" height="100%" rx="18" fill="#ffffff"/>
<rect x="0.5" y="0.5" width="899" height="319" rx="18" fill="none" stroke="#e2e8f0"/>
<text x="32" y="44" font-family="Inter, system-ui, sans-serif" font-size="28" font-weight="700" fill="#334155">unsorry — Proofs Over Time</text>
<text x="32" y="72" font-family="Inter, system-ui, sans-serif" font-size="13" fill="#64748b">3300 cumulative kernel-verified proofs · merged, hourly</text>
<line x1="52" y1="272.0" x2="872" y2="272.0" stroke="#f1f5f9"/>
<text x="44" y="276.0" text-anchor="end" font-family="Inter, system-ui, sans-serif" font-size="11" fill="#94a3b8">0</text>
<line x1="52" y1="226.5" x2="872" y2="226.5" stroke="#f1f5f9"/>
<text x="44" y="230.5" text-anchor="end" font-family="Inter, system-ui, sans-serif" font-size="11" fill="#94a3b8">825</text>
<line x1="52" y1="181.0" x2="872" y2="181.0" stroke="#f1f5f9"/>
<text x="44" y="185.0" text-anchor="end" font-family="Inter, system-ui, sans-serif" font-size="11" fill="#94a3b8">1650</text>
<line x1="52" y1="135.5" x2="872" y2="135.5" stroke="#f1f5f9"/>
<text x="44" y="139.5" text-anchor="end" font-family="Inter, system-ui, sans-serif" font-size="11" fill="#94a3b8">2475</text>
<line x1="52" y1="90.0" x2="872" y2="90.0" stroke="#f1f5f9"/>
<text x="44" y="94.0" text-anchor="end" font-family="Inter, system-ui, sans-serif" font-size="11" fill="#94a3b8">3300</text>
<polygon points="52.0,272.0 52.0,271.9 54.6,271.8 85.2,271.3 87.8,271.1 90.3,271.1 98.0,271.0 113.3,271.0 146.5,270.9 149.1,270.4 151.6,270.3 159.3,270.2 161.8,270.2 164.4,270.1 167.0,270.0 172.1,269.9 174.6,269.6 182.3,269.4 192.5,269.3 195.1,269.1 197.6,269.0 218.0,269.0 223.2,268.9 235.9,268.9 238.5,268.8 241.0,268.7 251.3,268.6 253.8,268.3 256.4,268.0 258.9,267.3 261.5,267.2 279.4,267.1 287.0,267.1 292.1,267.0 294.7,267.0 297.2,266.7 299.8,266.7 302.3,266.6 304.9,266.4 307.5,266.3 317.7,266.0 322.8,265.9 333.0,265.9 335.6,265.6 338.1,265.5 340.7,265.4 345.8,265.4 348.3,264.3 350.9,263.2 353.4,262.8 356.0,262.5 358.5,262.4 361.1,262.1 363.7,261.7 366.2,261.5 368.8,261.3 371.3,261.2 376.4,261.0 379.0,260.6 381.5,260.1 384.1,259.7 386.6,259.4 391.8,259.3 396.9,259.3 399.4,258.9 402.0,258.6 404.5,257.8 407.1,257.4 409.6,256.9 412.2,256.5 414.7,256.0 417.3,255.5 419.9,255.0 422.4,254.4 425.0,253.8 427.5,253.3 430.1,253.0 432.6,252.6 435.2,252.1 437.7,251.9 440.3,251.6 442.8,251.4 445.4,251.3 448.0,251.2 453.1,251.1 455.6,250.0 458.2,249.2 460.7,249.1 463.3,249.0 468.4,248.9 470.9,248.7 481.2,248.7 486.3,248.6 493.9,248.5 496.5,247.2 499.0,246.0 501.6,245.7 504.1,244.7 506.7,243.9 509.3,243.4 511.8,243.2 514.4,242.7 516.9,242.4 519.5,242.3 522.0,242.1 524.6,242.0 539.9,241.1 542.5,240.0 545.0,239.8 547.6,239.7 550.1,239.6 568.0,239.6 591.0,238.4 593.6,237.5 596.1,236.5 598.7,234.9 601.2,234.7 603.8,234.2 606.3,233.3 608.9,232.6 611.4,231.1 614.0,228.9 616.5,226.8 619.1,224.2 621.7,221.6 624.2,219.3 626.8,217.8 629.3,216.1 631.9,213.6 634.4,211.4 637.0,210.0 639.5,208.5 642.1,206.4 644.6,205.1 647.2,203.8 649.8,202.6 652.3,201.7 654.9,200.6 657.4,199.9 660.0,199.1 662.5,198.4 665.1,196.4 667.6,194.8 670.2,194.0 672.7,193.7 675.3,193.2 677.9,192.4 680.4,191.6 683.0,190.3 685.5,189.5 688.1,188.7 690.6,188.6 693.2,188.3 695.7,187.7 698.3,186.1 700.8,183.5 703.4,180.8 706.0,178.1 708.5,175.9 711.1,173.3 713.6,170.5 716.2,167.7 718.7,165.1 721.3,163.2 723.8,161.8 726.4,160.0 728.9,158.4 731.5,157.3 734.1,156.0 736.6,155.0 739.2,153.5 741.7,151.6 744.3,149.3 746.8,147.4 749.4,145.6 751.9,144.5 754.5,143.6 757.0,142.6 759.6,141.5 762.2,139.6 764.7,138.0 767.3,136.1 769.8,134.1 772.4,132.4 774.9,131.1 777.5,130.5 780.0,129.8 782.6,129.0 785.1,128.9 787.7,128.8 790.3,128.4 792.8,128.2 795.4,128.2 797.9,127.9 800.5,127.8 808.1,127.7 810.7,127.7 813.2,127.3 815.8,125.1 818.4,123.1 820.9,121.4 823.5,119.5 826.0,117.8 828.6,116.1 831.1,114.3 833.7,112.6 836.2,110.8 838.8,109.1 841.3,107.4 843.9,105.8 846.5,104.2 849.0,102.5 851.6,100.9 854.1,99.5 856.7,98.0 859.2,96.5 861.8,94.9 864.3,93.5 866.9,92.0 869.4,91.0 872.0,90.0 872.0,272.0" fill="#e0f2fe" opacity="0.55"/>
<polyline points="52.0,271.9 54.6,271.8 85.2,271.3 87.8,271.1 90.3,271.1 98.0,271.0 113.3,271.0 146.5,270.9 149.1,270.4 151.6,270.3 159.3,270.2 161.8,270.2 164.4,270.1 167.0,270.0 172.1,269.9 174.6,269.6 182.3,269.4 192.5,269.3 195.1,269.1 197.6,269.0 218.0,269.0 223.2,268.9 235.9,268.9 238.5,268.8 241.0,268.7 251.3,268.6 253.8,268.3 256.4,268.0 258.9,267.3 261.5,267.2 279.4,267.1 287.0,267.1 292.1,267.0 294.7,267.0 297.2,266.7 299.8,266.7 302.3,266.6 304.9,266.4 307.5,266.3 317.7,266.0 322.8,265.9 333.0,265.9 335.6,265.6 338.1,265.5 340.7,265.4 345.8,265.4 348.3,264.3 350.9,263.2 353.4,262.8 356.0,262.5 358.5,262.4 361.1,262.1 363.7,261.7 366.2,261.5 368.8,261.3 371.3,261.2 376.4,261.0 379.0,260.6 381.5,260.1 384.1,259.7 386.6,259.4 391.8,259.3 396.9,259.3 399.4,258.9 402.0,258.6 404.5,257.8 407.1,257.4 409.6,256.9 412.2,256.5 414.7,256.0 417.3,255.5 419.9,255.0 422.4,254.4 425.0,253.8 427.5,253.3 430.1,253.0 432.6,252.6 435.2,252.1 437.7,251.9 440.3,251.6 442.8,251.4 445.4,251.3 448.0,251.2 453.1,251.1 455.6,250.0 458.2,249.2 460.7,249.1 463.3,249.0 468.4,248.9 470.9,248.7 481.2,248.7 486.3,248.6 493.9,248.5 496.5,247.2 499.0,246.0 501.6,245.7 504.1,244.7 506.7,243.9 509.3,243.4 511.8,243.2 514.4,242.7 516.9,242.4 519.5,242.3 522.0,242.1 524.6,242.0 539.9,241.1 542.5,240.0 545.0,239.8 547.6,239.7 550.1,239.6 568.0,239.6 591.0,238.4 593.6,237.5 596.1,236.5 598.7,234.9 601.2,234.7 603.8,234.2 606.3,233.3 608.9,232.6 611.4,231.1 614.0,228.9 616.5,226.8 619.1,224.2 621.7,221.6 624.2,219.3 626.8,217.8 629.3,216.1 631.9,213.6 634.4,211.4 637.0,210.0 639.5,208.5 642.1,206.4 644.6,205.1 647.2,203.8 649.8,202.6 652.3,201.7 654.9,200.6 657.4,199.9 660.0,199.1 662.5,198.4 665.1,196.4 667.6,194.8 670.2,194.0 672.7,193.7 675.3,193.2 677.9,192.4 680.4,191.6 683.0,190.3 685.5,189.5 688.1,188.7 690.6,188.6 693.2,188.3 695.7,187.7 698.3,186.1 700.8,183.5 703.4,180.8 706.0,178.1 708.5,175.9 711.1,173.3 713.6,170.5 716.2,167.7 718.7,165.1 721.3,163.2 723.8,161.8 726.4,160.0 728.9,158.4 731.5,157.3 734.1,156.0 736.6,155.0 739.2,153.5 741.7,151.6 744.3,149.3 746.8,147.4 749.4,145.6 751.9,144.5 754.5,143.6 757.0,142.6 759.6,141.5 762.2,139.6 764.7,138.0 767.3,136.1 769.8,134.1 772.4,132.4 774.9,131.1 777.5,130.5 780.0,129.8 782.6,129.0 785.1,128.9 787.7,128.8 790.3,128.4 792.8,128.2 795.4,128.2 797.9,127.9 800.5,127.8 808.1,127.7 810.7,127.7 813.2,127.3 815.8,125.1 818.4,123.1 820.9,121.4 823.5,119.5 826.0,117.8 828.6,116.1 831.1,114.3 833.7,112.6 836.2,110.8 838.8,109.1 841.3,107.4 843.9,105.8 846.5,104.2 849.0,102.5 851.6,100.9 854.1,99.5 856.7,98.0 859.2,96.5 861.8,94.9 864.3,93.5 866.9,92.0 869.4,91.0 872.0,90.0" fill="none" stroke="#38bdf8" stroke-width="2.5" stroke-linejoin="round" stroke-linecap="round"/>
<circle cx="872.0" cy="90.0" r="4" fill="#0ea5e9"/>
<text x="866.0" y="80.0" text-anchor="end" font-family="Inter, system-ui, sans-serif" font-size="13" font-weight="700" fill="#334155">3300</text>
<text x="52.0" y="294" text-anchor="middle" font-family="Inter, system-ui, sans-serif" font-size="11" fill="#94a3b8">Jun 10 05:00</text>
<text x="568.0" y="294" text-anchor="middle" font-family="Inter, system-ui, sans-serif" font-size="11" fill="#94a3b8">Jun 18 15:00</text>
<text x="872.0" y="294" text-anchor="middle" font-family="Inter, system-ui, sans-serif" font-size="11" fill="#94a3b8">Jun 23 14:00</text>
</svg>
