<svg xmlns="http://www.w3.org/2000/svg" width="900" height="320" viewBox="0 0 900 320" role="img" aria-labelledby="title desc">
<title id="title">Unsorry proofs over time</title>
<desc id="desc">Cumulative kernel-verified proofs over time, by the hour each proof was merged.</desc>
<rect width="900" height="100%" rx="18" fill="#ffffff"/>
<rect x="0.5" y="0.5" width="899" height="319" rx="18" fill="none" stroke="#e2e8f0"/>
<text x="32" y="44" font-family="Inter, system-ui, sans-serif" font-size="28" font-weight="700" fill="#334155">Unsorry — Proofs Over Time</text>
<text x="32" y="72" font-family="Inter, system-ui, sans-serif" font-size="13" fill="#64748b">2543 cumulative kernel-verified proofs · merged, hourly</text>
<line x1="52" y1="272.0" x2="872" y2="272.0" stroke="#f1f5f9"/>
<text x="44" y="276.0" text-anchor="end" font-family="Inter, system-ui, sans-serif" font-size="11" fill="#94a3b8">0</text>
<line x1="52" y1="226.5" x2="872" y2="226.5" stroke="#f1f5f9"/>
<text x="44" y="230.5" text-anchor="end" font-family="Inter, system-ui, sans-serif" font-size="11" fill="#94a3b8">636</text>
<line x1="52" y1="181.0" x2="872" y2="181.0" stroke="#f1f5f9"/>
<text x="44" y="185.0" text-anchor="end" font-family="Inter, system-ui, sans-serif" font-size="11" fill="#94a3b8">1272</text>
<line x1="52" y1="135.5" x2="872" y2="135.5" stroke="#f1f5f9"/>
<text x="44" y="139.5" text-anchor="end" font-family="Inter, system-ui, sans-serif" font-size="11" fill="#94a3b8">1907</text>
<line x1="52" y1="90.0" x2="872" y2="90.0" stroke="#f1f5f9"/>
<text x="44" y="94.0" text-anchor="end" font-family="Inter, system-ui, sans-serif" font-size="11" fill="#94a3b8">2543</text>
<polygon points="52.0,272.0 52.0,271.9 54.9,271.8 89.7,271.1 92.6,270.9 95.5,270.8 104.2,270.7 121.5,270.6 159.2,270.6 162.1,269.9 165.0,269.9 173.7,269.7 176.6,269.6 179.5,269.6 182.4,269.4 188.2,269.3 191.1,268.9 199.8,268.6 211.4,268.5 214.3,268.3 217.2,268.1 240.3,268.1 246.1,268.0 260.6,267.9 263.5,267.8 266.4,267.7 278.0,267.6 280.9,267.2 283.8,266.8 286.7,265.9 289.6,265.8 309.9,265.7 318.6,265.6 324.4,265.6 327.3,265.5 330.2,265.1 333.1,265.1 336.0,265.0 338.9,264.8 341.8,264.6 353.3,264.2 359.1,264.1 370.7,264.1 373.6,263.7 376.5,263.6 379.4,263.5 385.2,263.4 388.1,262.0 391.0,260.5 393.9,260.0 396.8,259.7 399.7,259.5 402.6,259.2 405.5,258.7 408.4,258.3 411.3,258.1 414.2,258.0 420.0,257.8 422.9,257.2 425.8,256.6 428.7,256.0 431.6,255.7 437.4,255.5 443.2,255.5 446.1,255.0 449.0,254.6 451.9,253.6 454.8,253.0 457.7,252.5 460.6,251.9 463.4,251.2 466.3,250.6 469.2,249.9 472.1,249.1 475.0,248.4 477.9,247.7 480.8,247.3 483.7,246.8 486.6,246.2 489.5,245.9 492.4,245.6 495.3,245.2 498.2,245.1 501.1,244.9 506.9,244.9 509.8,243.4 512.7,242.4 515.6,242.2 518.5,242.2 524.3,242.0 527.2,241.8 538.8,241.7 544.6,241.6 553.3,241.5 556.2,239.9 559.1,238.3 562.0,237.9 564.9,236.6 567.8,235.6 570.7,234.9 573.6,234.6 576.5,233.9 579.3,233.6 582.2,233.5 585.1,233.2 588.0,233.1 605.4,231.9 608.3,230.5 611.2,230.3 614.1,230.1 617.0,230.0 637.3,229.9 663.4,228.4 666.3,227.3 669.2,225.9 672.1,223.9 675.0,223.5 677.9,222.9 680.8,221.8 683.7,220.9 686.6,219.0 689.5,216.1 692.4,213.3 695.3,210.0 698.1,206.6 701.0,203.6 703.9,201.7 706.8,199.5 709.7,196.2 712.6,193.4 715.5,191.6 718.4,189.6 721.3,186.9 724.2,185.2 727.1,183.5 730.0,182.0 732.9,180.8 735.8,179.3 738.7,178.4 741.6,177.4 744.5,176.5 747.4,174.0 750.3,171.9 753.2,170.7 756.1,170.4 759.0,169.7 761.9,168.7 764.8,167.7 767.7,166.0 770.6,164.9 773.5,163.9 776.4,163.8 779.3,163.4 782.2,162.6 785.1,160.5 788.0,157.1 790.9,153.6 793.8,150.1 796.7,147.3 799.6,143.9 802.5,140.3 805.4,136.7 808.3,133.3 811.2,130.9 814.0,128.9 816.9,126.7 819.8,124.6 822.7,123.1 825.6,121.4 828.5,120.1 831.4,118.3 834.3,115.8 837.2,112.8 840.1,110.3 843.0,108.0 845.9,106.6 848.8,105.3 851.7,104.0 854.6,102.6 857.5,100.2 860.4,98.1 863.3,95.6 866.2,93.0 869.1,90.9 872.0,90.0 872.0,272.0" fill="#e0f2fe" opacity="0.55"/>
<polyline points="52.0,271.9 54.9,271.8 89.7,271.1 92.6,270.9 95.5,270.8 104.2,270.7 121.5,270.6 159.2,270.6 162.1,269.9 165.0,269.9 173.7,269.7 176.6,269.6 179.5,269.6 182.4,269.4 188.2,269.3 191.1,268.9 199.8,268.6 211.4,268.5 214.3,268.3 217.2,268.1 240.3,268.1 246.1,268.0 260.6,267.9 263.5,267.8 266.4,267.7 278.0,267.6 280.9,267.2 283.8,266.8 286.7,265.9 289.6,265.8 309.9,265.7 318.6,265.6 324.4,265.6 327.3,265.5 330.2,265.1 333.1,265.1 336.0,265.0 338.9,264.8 341.8,264.6 353.3,264.2 359.1,264.1 370.7,264.1 373.6,263.7 376.5,263.6 379.4,263.5 385.2,263.4 388.1,262.0 391.0,260.5 393.9,260.0 396.8,259.7 399.7,259.5 402.6,259.2 405.5,258.7 408.4,258.3 411.3,258.1 414.2,258.0 420.0,257.8 422.9,257.2 425.8,256.6 428.7,256.0 431.6,255.7 437.4,255.5 443.2,255.5 446.1,255.0 449.0,254.6 451.9,253.6 454.8,253.0 457.7,252.5 460.6,251.9 463.4,251.2 466.3,250.6 469.2,249.9 472.1,249.1 475.0,248.4 477.9,247.7 480.8,247.3 483.7,246.8 486.6,246.2 489.5,245.9 492.4,245.6 495.3,245.2 498.2,245.1 501.1,244.9 506.9,244.9 509.8,243.4 512.7,242.4 515.6,242.2 518.5,242.2 524.3,242.0 527.2,241.8 538.8,241.7 544.6,241.6 553.3,241.5 556.2,239.9 559.1,238.3 562.0,237.9 564.9,236.6 567.8,235.6 570.7,234.9 573.6,234.6 576.5,233.9 579.3,233.6 582.2,233.5 585.1,233.2 588.0,233.1 605.4,231.9 608.3,230.5 611.2,230.3 614.1,230.1 617.0,230.0 637.3,229.9 663.4,228.4 666.3,227.3 669.2,225.9 672.1,223.9 675.0,223.5 677.9,222.9 680.8,221.8 683.7,220.9 686.6,219.0 689.5,216.1 692.4,213.3 695.3,210.0 698.1,206.6 701.0,203.6 703.9,201.7 706.8,199.5 709.7,196.2 712.6,193.4 715.5,191.6 718.4,189.6 721.3,186.9 724.2,185.2 727.1,183.5 730.0,182.0 732.9,180.8 735.8,179.3 738.7,178.4 741.6,177.4 744.5,176.5 747.4,174.0 750.3,171.9 753.2,170.7 756.1,170.4 759.0,169.7 761.9,168.7 764.8,167.7 767.7,166.0 770.6,164.9 773.5,163.9 776.4,163.8 779.3,163.4 782.2,162.6 785.1,160.5 788.0,157.1 790.9,153.6 793.8,150.1 796.7,147.3 799.6,143.9 802.5,140.3 805.4,136.7 808.3,133.3 811.2,130.9 814.0,128.9 816.9,126.7 819.8,124.6 822.7,123.1 825.6,121.4 828.5,120.1 831.4,118.3 834.3,115.8 837.2,112.8 840.1,110.3 843.0,108.0 845.9,106.6 848.8,105.3 851.7,104.0 854.6,102.6 857.5,100.2 860.4,98.1 863.3,95.6 866.2,93.0 869.1,90.9 872.0,90.0" fill="none" stroke="#38bdf8" stroke-width="2.5" stroke-linejoin="round" stroke-linecap="round"/>
<circle cx="872.0" cy="90.0" r="4" fill="#0ea5e9"/>
<text x="866.0" y="80.0" text-anchor="end" font-family="Inter, system-ui, sans-serif" font-size="13" font-weight="700" fill="#334155">2543</text>
<text x="52.0" y="294" text-anchor="middle" font-family="Inter, system-ui, sans-serif" font-size="11" fill="#94a3b8">Jun 10 05:00</text>
<text x="553.3" y="294" text-anchor="middle" font-family="Inter, system-ui, sans-serif" font-size="11" fill="#94a3b8">Jun 17 10:00</text>
<text x="872.0" y="294" text-anchor="middle" font-family="Inter, system-ui, sans-serif" font-size="11" fill="#94a3b8">Jun 22 00:00</text>
</svg>
