<svg xmlns="http://www.w3.org/2000/svg" width="900" height="320" viewBox="0 0 900 320" role="img" aria-labelledby="title desc">
<title id="title">unsorry proofs over time</title>
<desc id="desc">Cumulative kernel-verified proofs over time, by the hour each proof was merged.</desc>
<rect width="900" height="100%" rx="18" fill="#ffffff"/>
<rect x="0.5" y="0.5" width="899" height="319" rx="18" fill="none" stroke="#e2e8f0"/>
<text x="32" y="44" font-family="Inter, system-ui, sans-serif" font-size="28" font-weight="700" fill="#334155">unsorry — Proofs Over Time</text>
<text x="32" y="72" font-family="Inter, system-ui, sans-serif" font-size="13" fill="#64748b">4234 cumulative kernel-verified proofs · merged, hourly</text>
<line x1="52" y1="272.0" x2="872" y2="272.0" stroke="#f1f5f9"/>
<text x="44" y="276.0" text-anchor="end" font-family="Inter, system-ui, sans-serif" font-size="11" fill="#94a3b8">0</text>
<line x1="52" y1="226.5" x2="872" y2="226.5" stroke="#f1f5f9"/>
<text x="44" y="230.5" text-anchor="end" font-family="Inter, system-ui, sans-serif" font-size="11" fill="#94a3b8">1058</text>
<line x1="52" y1="181.0" x2="872" y2="181.0" stroke="#f1f5f9"/>
<text x="44" y="185.0" text-anchor="end" font-family="Inter, system-ui, sans-serif" font-size="11" fill="#94a3b8">2117</text>
<line x1="52" y1="135.5" x2="872" y2="135.5" stroke="#f1f5f9"/>
<text x="44" y="139.5" text-anchor="end" font-family="Inter, system-ui, sans-serif" font-size="11" fill="#94a3b8">3176</text>
<line x1="52" y1="90.0" x2="872" y2="90.0" stroke="#f1f5f9"/>
<text x="44" y="94.0" text-anchor="end" font-family="Inter, system-ui, sans-serif" font-size="11" fill="#94a3b8">4234</text>
<polygon points="52.0,272.0 52.0,272.0 54.2,271.9 80.8,271.4 83.0,271.3 85.2,271.3 91.9,271.2 105.2,271.2 134.0,271.1 136.2,270.8 138.4,270.7 145.1,270.6 147.3,270.6 149.5,270.5 151.7,270.4 156.2,270.4 158.4,270.2 165.0,270.0 173.9,269.9 176.1,269.8 178.3,269.7 196.1,269.6 200.5,269.6 211.6,269.5 213.8,269.5 216.0,269.4 224.9,269.4 227.1,269.1 229.3,268.9 231.5,268.3 233.7,268.3 249.2,268.2 255.9,268.2 260.3,268.1 262.5,268.1 264.8,267.9 267.0,267.8 269.2,267.8 271.4,267.7 273.6,267.5 282.5,267.3 286.9,267.3 295.8,267.2 298.0,267.0 300.2,267.0 302.4,266.9 306.9,266.8 309.1,266.0 311.3,265.1 313.5,264.8 315.7,264.6 317.9,264.5 320.2,264.3 322.4,264.0 324.6,263.8 326.8,263.7 329.0,263.6 333.5,263.4 335.7,263.1 337.9,262.8 340.1,262.4 342.3,262.2 346.8,262.1 351.2,262.1 353.4,261.8 355.6,261.6 357.8,261.0 360.1,260.6 362.3,260.3 364.5,259.9 366.7,259.5 368.9,259.1 371.1,258.7 373.4,258.2 375.6,257.8 377.8,257.4 380.0,257.2 382.2,256.9 384.4,256.5 386.6,256.4 388.9,256.1 391.1,255.9 393.3,255.8 395.5,255.8 399.9,255.7 402.2,254.8 404.4,254.2 406.6,254.1 408.8,254.1 413.2,254.0 415.5,253.9 424.3,253.8 428.8,253.7 435.4,253.7 437.6,252.7 439.8,251.8 442.1,251.5 444.3,250.7 446.5,250.1 448.7,249.7 450.9,249.5 453.1,249.1 455.4,249.0 457.6,248.9 459.8,248.7 462.0,248.6 475.3,247.9 477.5,247.1 479.7,246.9 481.9,246.8 484.2,246.8 499.7,246.7 519.6,245.8 521.8,245.1 524.1,244.3 526.3,243.1 528.5,242.9 530.7,242.5 532.9,241.8 535.1,241.3 537.4,240.1 539.6,238.4 541.8,236.8 544.0,234.8 546.2,232.7 548.4,230.9 550.6,229.8 552.9,228.5 555.1,226.5 557.3,224.8 559.5,223.7 561.7,222.5 563.9,220.9 566.2,219.9 568.4,218.8 570.6,217.9 572.8,217.2 575.0,216.3 577.2,215.8 579.5,215.2 581.7,214.7 583.9,213.1 586.1,211.9 588.3,211.2 590.5,211.0 592.8,210.6 595.0,209.9 597.2,209.4 599.4,208.3 601.6,207.7 603.8,207.1 606.1,207.0 608.3,206.7 610.5,206.3 612.7,205.0 614.9,203.0 617.1,200.9 619.4,198.8 621.6,197.1 623.8,195.1 626.0,192.9 628.2,190.7 630.4,188.7 632.6,187.2 634.9,186.1 637.1,184.7 639.3,183.5 641.5,182.6 643.7,181.6 645.9,180.8 648.2,179.7 650.4,178.2 652.6,176.4 654.8,174.9 657.0,173.5 659.2,172.7 661.5,171.9 663.7,171.1 665.9,170.3 668.1,168.8 670.3,167.5 672.5,166.0 674.8,164.5 677.0,163.2 679.2,162.2 681.4,161.7 683.6,161.1 685.8,160.5 688.1,160.5 690.3,160.4 692.5,160.1 694.7,159.9 696.9,159.9 699.1,159.7 701.4,159.6 708.0,159.6 710.2,159.5 712.4,159.2 714.6,157.5 716.9,156.0 719.1,154.6 721.3,153.1 723.5,151.8 725.7,150.5 727.9,149.1 730.2,147.8 732.4,146.4 734.6,145.1 736.8,143.7 739.0,142.4 741.2,141.2 743.5,139.9 745.7,138.7 747.9,137.6 750.1,136.4 752.3,135.2 754.5,134.0 756.8,132.9 759.0,131.7 761.2,130.9 763.4,130.1 765.6,129.4 767.8,128.3 770.1,127.3 772.3,126.3 774.5,125.2 776.7,124.2 778.9,123.3 781.1,122.2 783.4,121.2 785.6,120.2 787.8,119.3 790.0,118.2 792.2,117.3 794.4,116.3 796.6,115.4 798.9,114.6 801.1,113.6 803.3,112.7 805.5,111.9 807.7,111.2 809.9,110.6 812.2,110.2 814.4,110.1 816.6,109.2 818.8,108.4 821.0,107.5 823.2,106.6 825.5,105.9 827.7,105.0 829.9,104.2 832.1,103.4 834.3,102.6 836.5,101.9 838.8,101.1 841.0,100.4 843.2,99.5 845.4,98.9 847.6,98.1 849.8,97.3 852.1,96.6 854.3,95.9 856.5,95.1 858.7,94.5 860.9,93.9 863.1,93.0 865.4,92.1 867.6,91.4 869.8,90.6 872.0,90.0 872.0,272.0" fill="#e0f2fe" opacity="0.55"/>
<polyline points="52.0,272.0 54.2,271.9 80.8,271.4 83.0,271.3 85.2,271.3 91.9,271.2 105.2,271.2 134.0,271.1 136.2,270.8 138.4,270.7 145.1,270.6 147.3,270.6 149.5,270.5 151.7,270.4 156.2,270.4 158.4,270.2 165.0,270.0 173.9,269.9 176.1,269.8 178.3,269.7 196.1,269.6 200.5,269.6 211.6,269.5 213.8,269.5 216.0,269.4 224.9,269.4 227.1,269.1 229.3,268.9 231.5,268.3 233.7,268.3 249.2,268.2 255.9,268.2 260.3,268.1 262.5,268.1 264.8,267.9 267.0,267.8 269.2,267.8 271.4,267.7 273.6,267.5 282.5,267.3 286.9,267.3 295.8,267.2 298.0,267.0 300.2,267.0 302.4,266.9 306.9,266.8 309.1,266.0 311.3,265.1 313.5,264.8 315.7,264.6 317.9,264.5 320.2,264.3 322.4,264.0 324.6,263.8 326.8,263.7 329.0,263.6 333.5,263.4 335.7,263.1 337.9,262.8 340.1,262.4 342.3,262.2 346.8,262.1 351.2,262.1 353.4,261.8 355.6,261.6 357.8,261.0 360.1,260.6 362.3,260.3 364.5,259.9 366.7,259.5 368.9,259.1 371.1,258.7 373.4,258.2 375.6,257.8 377.8,257.4 380.0,257.2 382.2,256.9 384.4,256.5 386.6,256.4 388.9,256.1 391.1,255.9 393.3,255.8 395.5,255.8 399.9,255.7 402.2,254.8 404.4,254.2 406.6,254.1 408.8,254.1 413.2,254.0 415.5,253.9 424.3,253.8 428.8,253.7 435.4,253.7 437.6,252.7 439.8,251.8 442.1,251.5 444.3,250.7 446.5,250.1 448.7,249.7 450.9,249.5 453.1,249.1 455.4,249.0 457.6,248.9 459.8,248.7 462.0,248.6 475.3,247.9 477.5,247.1 479.7,246.9 481.9,246.8 484.2,246.8 499.7,246.7 519.6,245.8 521.8,245.1 524.1,244.3 526.3,243.1 528.5,242.9 530.7,242.5 532.9,241.8 535.1,241.3 537.4,240.1 539.6,238.4 541.8,236.8 544.0,234.8 546.2,232.7 548.4,230.9 550.6,229.8 552.9,228.5 555.1,226.5 557.3,224.8 559.5,223.7 561.7,222.5 563.9,220.9 566.2,219.9 568.4,218.8 570.6,217.9 572.8,217.2 575.0,216.3 577.2,215.8 579.5,215.2 581.7,214.7 583.9,213.1 586.1,211.9 588.3,211.2 590.5,211.0 592.8,210.6 595.0,209.9 597.2,209.4 599.4,208.3 601.6,207.7 603.8,207.1 606.1,207.0 608.3,206.7 610.5,206.3 612.7,205.0 614.9,203.0 617.1,200.9 619.4,198.8 621.6,197.1 623.8,195.1 626.0,192.9 628.2,190.7 630.4,188.7 632.6,187.2 634.9,186.1 637.1,184.7 639.3,183.5 641.5,182.6 643.7,181.6 645.9,180.8 648.2,179.7 650.4,178.2 652.6,176.4 654.8,174.9 657.0,173.5 659.2,172.7 661.5,171.9 663.7,171.1 665.9,170.3 668.1,168.8 670.3,167.5 672.5,166.0 674.8,164.5 677.0,163.2 679.2,162.2 681.4,161.7 683.6,161.1 685.8,160.5 688.1,160.5 690.3,160.4 692.5,160.1 694.7,159.9 696.9,159.9 699.1,159.7 701.4,159.6 708.0,159.6 710.2,159.5 712.4,159.2 714.6,157.5 716.9,156.0 719.1,154.6 721.3,153.1 723.5,151.8 725.7,150.5 727.9,149.1 730.2,147.8 732.4,146.4 734.6,145.1 736.8,143.7 739.0,142.4 741.2,141.2 743.5,139.9 745.7,138.7 747.9,137.6 750.1,136.4 752.3,135.2 754.5,134.0 756.8,132.9 759.0,131.7 761.2,130.9 763.4,130.1 765.6,129.4 767.8,128.3 770.1,127.3 772.3,126.3 774.5,125.2 776.7,124.2 778.9,123.3 781.1,122.2 783.4,121.2 785.6,120.2 787.8,119.3 790.0,118.2 792.2,117.3 794.4,116.3 796.6,115.4 798.9,114.6 801.1,113.6 803.3,112.7 805.5,111.9 807.7,111.2 809.9,110.6 812.2,110.2 814.4,110.1 816.6,109.2 818.8,108.4 821.0,107.5 823.2,106.6 825.5,105.9 827.7,105.0 829.9,104.2 832.1,103.4 834.3,102.6 836.5,101.9 838.8,101.1 841.0,100.4 843.2,99.5 845.4,98.9 847.6,98.1 849.8,97.3 852.1,96.6 854.3,95.9 856.5,95.1 858.7,94.5 860.9,93.9 863.1,93.0 865.4,92.1 867.6,91.4 869.8,90.6 872.0,90.0" fill="none" stroke="#38bdf8" stroke-width="2.5" stroke-linejoin="round" stroke-linecap="round"/>
<circle cx="872.0" cy="90.0" r="4" fill="#0ea5e9"/>
<text x="866.0" y="80.0" text-anchor="end" font-family="Inter, system-ui, sans-serif" font-size="13" font-weight="700" fill="#334155">4234</text>
<text x="52.0" y="294" text-anchor="middle" font-family="Inter, system-ui, sans-serif" font-size="11" fill="#94a3b8">Jun 10 05:00</text>
<text x="570.6" y="294" text-anchor="middle" font-family="Inter, system-ui, sans-serif" font-size="11" fill="#94a3b8">Jun 19 23:00</text>
<text x="872.0" y="294" text-anchor="middle" font-family="Inter, system-ui, sans-serif" font-size="11" fill="#94a3b8">Jun 25 15:00</text>
</svg>
