<svg xmlns="http://www.w3.org/2000/svg" width="900" height="320" viewBox="0 0 900 320" role="img" aria-labelledby="title desc">
<title id="title">unsorry proofs over time</title>
<desc id="desc">Cumulative kernel-verified proofs over time, by the hour each proof was merged.</desc>
<rect width="900" height="100%" rx="18" fill="#ffffff"/>
<rect x="0.5" y="0.5" width="899" height="319" rx="18" fill="none" stroke="#e2e8f0"/>
<text x="32" y="44" font-family="Inter, system-ui, sans-serif" font-size="28" font-weight="700" fill="#334155">unsorry — Proofs Over Time</text>
<text x="32" y="72" font-family="Inter, system-ui, sans-serif" font-size="13" fill="#64748b">4492 cumulative kernel-verified proofs · merged, hourly</text>
<line x1="52" y1="272.0" x2="872" y2="272.0" stroke="#f1f5f9"/>
<text x="44" y="276.0" text-anchor="end" font-family="Inter, system-ui, sans-serif" font-size="11" fill="#94a3b8">0</text>
<line x1="52" y1="226.5" x2="872" y2="226.5" stroke="#f1f5f9"/>
<text x="44" y="230.5" text-anchor="end" font-family="Inter, system-ui, sans-serif" font-size="11" fill="#94a3b8">1123</text>
<line x1="52" y1="181.0" x2="872" y2="181.0" stroke="#f1f5f9"/>
<text x="44" y="185.0" text-anchor="end" font-family="Inter, system-ui, sans-serif" font-size="11" fill="#94a3b8">2246</text>
<line x1="52" y1="135.5" x2="872" y2="135.5" stroke="#f1f5f9"/>
<text x="44" y="139.5" text-anchor="end" font-family="Inter, system-ui, sans-serif" font-size="11" fill="#94a3b8">3369</text>
<line x1="52" y1="90.0" x2="872" y2="90.0" stroke="#f1f5f9"/>
<text x="44" y="94.0" text-anchor="end" font-family="Inter, system-ui, sans-serif" font-size="11" fill="#94a3b8">4492</text>
<polygon points="52.0,272.0 52.0,272.0 54.1,271.9 79.6,271.5 81.7,271.4 83.9,271.3 90.2,271.3 103.0,271.2 130.6,271.2 132.7,270.8 134.8,270.8 141.2,270.7 143.3,270.7 145.5,270.6 147.6,270.5 151.8,270.5 154.0,270.3 160.3,270.1 168.8,270.0 171.0,269.9 173.1,269.8 190.1,269.8 194.3,269.7 205.0,269.7 207.1,269.7 209.2,269.6 217.7,269.5 219.8,269.3 221.9,269.1 224.1,268.6 226.2,268.5 241.1,268.4 247.4,268.4 251.7,268.4 253.8,268.3 255.9,268.1 258.1,268.1 260.2,268.0 262.3,267.9 264.4,267.8 272.9,267.6 277.2,267.5 285.7,267.5 287.8,267.3 289.9,267.3 292.1,267.2 296.3,267.1 298.4,266.3 300.5,265.5 302.7,265.2 304.8,265.0 306.9,265.0 309.0,264.7 311.2,264.5 313.3,264.3 315.4,264.1 317.5,264.1 321.8,263.9 323.9,263.6 326.0,263.3 328.2,263.0 330.3,262.8 334.5,262.7 338.8,262.6 340.9,262.4 343.0,262.2 345.2,261.6 347.3,261.3 349.4,260.9 351.5,260.6 353.7,260.3 355.8,259.9 357.9,259.5 360.0,259.0 362.2,258.6 364.3,258.3 366.4,258.0 368.5,257.7 370.7,257.4 372.8,257.3 374.9,257.0 377.0,256.8 379.2,256.8 381.3,256.7 385.5,256.6 387.6,255.8 389.8,255.3 391.9,255.1 394.0,255.1 398.3,255.0 400.4,254.9 408.9,254.9 413.1,254.8 419.5,254.7 421.6,253.8 423.8,252.9 425.9,252.7 428.0,251.9 430.1,251.4 432.3,251.0 434.4,250.8 436.5,250.4 438.6,250.3 440.8,250.2 442.9,250.0 445.0,250.0 457.8,249.3 459.9,248.5 462.0,248.4 464.1,248.3 466.2,248.2 481.1,248.2 500.2,247.3 502.4,246.7 504.5,245.9 506.6,244.8 508.7,244.6 510.9,244.2 513.0,243.6 515.1,243.1 517.2,242.0 519.4,240.4 521.5,238.8 523.6,236.9 525.7,235.0 527.9,233.3 530.0,232.2 532.1,231.0 534.2,229.1 536.4,227.5 538.5,226.5 540.6,225.4 542.7,223.8 544.8,222.9 547.0,221.9 549.1,221.0 551.2,220.4 553.3,219.5 555.5,219.0 557.6,218.4 559.7,218.0 561.8,216.5 564.0,215.3 566.1,214.7 568.2,214.5 570.3,214.1 572.5,213.5 574.6,213.0 576.7,212.0 578.8,211.4 581.0,210.8 583.1,210.7 585.2,210.5 587.3,210.1 589.5,208.9 591.6,207.0 593.7,205.0 595.8,203.0 598.0,201.4 600.1,199.5 602.2,197.4 604.3,195.4 606.5,193.5 608.6,192.1 610.7,191.0 612.8,189.8 615.0,188.5 617.1,187.7 619.2,186.8 621.3,186.0 623.5,185.0 625.6,183.6 627.7,181.9 629.8,180.4 631.9,179.2 634.1,178.4 636.2,177.6 638.3,176.9 640.4,176.1 642.6,174.7 644.7,173.5 646.8,172.1 648.9,170.7 651.1,169.5 653.2,168.5 655.3,168.1 657.4,167.5 659.6,166.9 661.7,166.9 663.8,166.8 665.9,166.5 668.1,166.4 670.2,166.3 672.3,166.1 674.4,166.0 680.8,166.0 682.9,166.0 685.1,165.7 687.2,164.1 689.3,162.6 691.4,161.4 693.6,160.0 695.7,158.7 697.8,157.5 699.9,156.1 702.1,154.9 704.2,153.6 706.3,152.4 708.4,151.1 710.5,149.9 712.7,148.7 714.8,147.5 716.9,146.3 719.0,145.3 721.2,144.2 723.3,143.0 725.4,141.9 727.5,140.8 729.7,139.8 731.8,139.0 733.9,138.3 736.0,137.6 738.2,136.5 740.3,135.6 742.4,134.7 744.5,133.6 746.7,132.7 748.8,131.8 750.9,130.8 753.0,129.9 755.2,128.9 757.3,128.0 759.4,127.0 761.5,126.2 763.7,125.2 765.8,124.4 767.9,123.7 770.0,122.7 772.2,121.9 774.3,121.1 776.4,120.5 778.5,119.9 780.7,119.5 782.8,119.4 784.9,118.5 787.0,117.8 789.2,116.9 791.3,116.1 793.4,115.4 795.5,114.6 797.6,113.8 799.8,113.1 801.9,112.3 804.0,111.6 806.1,110.9 808.3,110.3 810.4,109.4 812.5,108.8 814.6,108.1 816.8,107.3 818.9,106.7 821.0,106.0 823.1,105.2 825.3,104.7 827.4,104.1 829.5,103.2 831.6,102.4 833.8,101.8 835.9,101.0 838.0,100.3 840.1,99.7 842.3,99.1 844.4,98.3 846.5,97.7 848.6,97.3 850.8,96.6 852.9,96.0 855.0,95.2 857.1,94.4 859.3,93.7 861.4,93.0 863.5,92.4 865.6,91.8 867.8,91.0 869.9,90.4 872.0,90.0 872.0,272.0" fill="#e0f2fe" opacity="0.55"/>
<polyline points="52.0,272.0 54.1,271.9 79.6,271.5 81.7,271.4 83.9,271.3 90.2,271.3 103.0,271.2 130.6,271.2 132.7,270.8 134.8,270.8 141.2,270.7 143.3,270.7 145.5,270.6 147.6,270.5 151.8,270.5 154.0,270.3 160.3,270.1 168.8,270.0 171.0,269.9 173.1,269.8 190.1,269.8 194.3,269.7 205.0,269.7 207.1,269.7 209.2,269.6 217.7,269.5 219.8,269.3 221.9,269.1 224.1,268.6 226.2,268.5 241.1,268.4 247.4,268.4 251.7,268.4 253.8,268.3 255.9,268.1 258.1,268.1 260.2,268.0 262.3,267.9 264.4,267.8 272.9,267.6 277.2,267.5 285.7,267.5 287.8,267.3 289.9,267.3 292.1,267.2 296.3,267.1 298.4,266.3 300.5,265.5 302.7,265.2 304.8,265.0 306.9,265.0 309.0,264.7 311.2,264.5 313.3,264.3 315.4,264.1 317.5,264.1 321.8,263.9 323.9,263.6 326.0,263.3 328.2,263.0 330.3,262.8 334.5,262.7 338.8,262.6 340.9,262.4 343.0,262.2 345.2,261.6 347.3,261.3 349.4,260.9 351.5,260.6 353.7,260.3 355.8,259.9 357.9,259.5 360.0,259.0 362.2,258.6 364.3,258.3 366.4,258.0 368.5,257.7 370.7,257.4 372.8,257.3 374.9,257.0 377.0,256.8 379.2,256.8 381.3,256.7 385.5,256.6 387.6,255.8 389.8,255.3 391.9,255.1 394.0,255.1 398.3,255.0 400.4,254.9 408.9,254.9 413.1,254.8 419.5,254.7 421.6,253.8 423.8,252.9 425.9,252.7 428.0,251.9 430.1,251.4 432.3,251.0 434.4,250.8 436.5,250.4 438.6,250.3 440.8,250.2 442.9,250.0 445.0,250.0 457.8,249.3 459.9,248.5 462.0,248.4 464.1,248.3 466.2,248.2 481.1,248.2 500.2,247.3 502.4,246.7 504.5,245.9 506.6,244.8 508.7,244.6 510.9,244.2 513.0,243.6 515.1,243.1 517.2,242.0 519.4,240.4 521.5,238.8 523.6,236.9 525.7,235.0 527.9,233.3 530.0,232.2 532.1,231.0 534.2,229.1 536.4,227.5 538.5,226.5 540.6,225.4 542.7,223.8 544.8,222.9 547.0,221.9 549.1,221.0 551.2,220.4 553.3,219.5 555.5,219.0 557.6,218.4 559.7,218.0 561.8,216.5 564.0,215.3 566.1,214.7 568.2,214.5 570.3,214.1 572.5,213.5 574.6,213.0 576.7,212.0 578.8,211.4 581.0,210.8 583.1,210.7 585.2,210.5 587.3,210.1 589.5,208.9 591.6,207.0 593.7,205.0 595.8,203.0 598.0,201.4 600.1,199.5 602.2,197.4 604.3,195.4 606.5,193.5 608.6,192.1 610.7,191.0 612.8,189.8 615.0,188.5 617.1,187.7 619.2,186.8 621.3,186.0 623.5,185.0 625.6,183.6 627.7,181.9 629.8,180.4 631.9,179.2 634.1,178.4 636.2,177.6 638.3,176.9 640.4,176.1 642.6,174.7 644.7,173.5 646.8,172.1 648.9,170.7 651.1,169.5 653.2,168.5 655.3,168.1 657.4,167.5 659.6,166.9 661.7,166.9 663.8,166.8 665.9,166.5 668.1,166.4 670.2,166.3 672.3,166.1 674.4,166.0 680.8,166.0 682.9,166.0 685.1,165.7 687.2,164.1 689.3,162.6 691.4,161.4 693.6,160.0 695.7,158.7 697.8,157.5 699.9,156.1 702.1,154.9 704.2,153.6 706.3,152.4 708.4,151.1 710.5,149.9 712.7,148.7 714.8,147.5 716.9,146.3 719.0,145.3 721.2,144.2 723.3,143.0 725.4,141.9 727.5,140.8 729.7,139.8 731.8,139.0 733.9,138.3 736.0,137.6 738.2,136.5 740.3,135.6 742.4,134.7 744.5,133.6 746.7,132.7 748.8,131.8 750.9,130.8 753.0,129.9 755.2,128.9 757.3,128.0 759.4,127.0 761.5,126.2 763.7,125.2 765.8,124.4 767.9,123.7 770.0,122.7 772.2,121.9 774.3,121.1 776.4,120.5 778.5,119.9 780.7,119.5 782.8,119.4 784.9,118.5 787.0,117.8 789.2,116.9 791.3,116.1 793.4,115.4 795.5,114.6 797.6,113.8 799.8,113.1 801.9,112.3 804.0,111.6 806.1,110.9 808.3,110.3 810.4,109.4 812.5,108.8 814.6,108.1 816.8,107.3 818.9,106.7 821.0,106.0 823.1,105.2 825.3,104.7 827.4,104.1 829.5,103.2 831.6,102.4 833.8,101.8 835.9,101.0 838.0,100.3 840.1,99.7 842.3,99.1 844.4,98.3 846.5,97.7 848.6,97.3 850.8,96.6 852.9,96.0 855.0,95.2 857.1,94.4 859.3,93.7 861.4,93.0 863.5,92.4 865.6,91.8 867.8,91.0 869.9,90.4 872.0,90.0" fill="none" stroke="#38bdf8" stroke-width="2.5" stroke-linejoin="round" stroke-linecap="round"/>
<circle cx="872.0" cy="90.0" r="4" fill="#0ea5e9"/>
<text x="866.0" y="80.0" text-anchor="end" font-family="Inter, system-ui, sans-serif" font-size="13" font-weight="700" fill="#334155">4492</text>
<text x="52.0" y="294" text-anchor="middle" font-family="Inter, system-ui, sans-serif" font-size="11" fill="#94a3b8">Jun 10 05:00</text>
<text x="566.1" y="294" text-anchor="middle" font-family="Inter, system-ui, sans-serif" font-size="11" fill="#94a3b8">Jun 20 07:00</text>
<text x="872.0" y="294" text-anchor="middle" font-family="Inter, system-ui, sans-serif" font-size="11" fill="#94a3b8">Jun 26 07:00</text>
</svg>
