<svg xmlns="http://www.w3.org/2000/svg" width="900" height="320" viewBox="0 0 900 320" role="img" aria-labelledby="title desc">
<title id="title">unsorry proofs over time</title>
<desc id="desc">Cumulative kernel-verified proofs over time, by the hour each proof was merged.</desc>
<rect width="900" height="100%" rx="18" fill="#ffffff"/>
<rect x="0.5" y="0.5" width="899" height="319" rx="18" fill="none" stroke="#e2e8f0"/>
<text x="32" y="44" font-family="Inter, system-ui, sans-serif" font-size="28" font-weight="700" fill="#334155">unsorry — Proofs Over Time</text>
<text x="32" y="72" font-family="Inter, system-ui, sans-serif" font-size="13" fill="#64748b">3250 cumulative kernel-verified proofs · merged, hourly</text>
<line x1="52" y1="272.0" x2="872" y2="272.0" stroke="#f1f5f9"/>
<text x="44" y="276.0" text-anchor="end" font-family="Inter, system-ui, sans-serif" font-size="11" fill="#94a3b8">0</text>
<line x1="52" y1="226.5" x2="872" y2="226.5" stroke="#f1f5f9"/>
<text x="44" y="230.5" text-anchor="end" font-family="Inter, system-ui, sans-serif" font-size="11" fill="#94a3b8">812</text>
<line x1="52" y1="181.0" x2="872" y2="181.0" stroke="#f1f5f9"/>
<text x="44" y="185.0" text-anchor="end" font-family="Inter, system-ui, sans-serif" font-size="11" fill="#94a3b8">1625</text>
<line x1="52" y1="135.5" x2="872" y2="135.5" stroke="#f1f5f9"/>
<text x="44" y="139.5" text-anchor="end" font-family="Inter, system-ui, sans-serif" font-size="11" fill="#94a3b8">2438</text>
<line x1="52" y1="90.0" x2="872" y2="90.0" stroke="#f1f5f9"/>
<text x="44" y="94.0" text-anchor="end" font-family="Inter, system-ui, sans-serif" font-size="11" fill="#94a3b8">3250</text>
<polygon points="52.0,272.0 52.0,271.9 54.6,271.8 85.4,271.3 88.0,271.1 90.6,271.0 98.3,271.0 113.7,270.9 147.1,270.9 149.7,270.4 152.3,270.3 160.0,270.2 162.5,270.2 165.1,270.1 167.7,269.9 172.8,269.9 175.4,269.6 183.1,269.4 193.4,269.3 195.9,269.1 198.5,269.0 219.1,268.9 224.2,268.9 237.1,268.8 239.6,268.8 242.2,268.6 252.5,268.6 255.1,268.2 257.6,268.0 260.2,267.2 262.8,267.1 280.8,267.1 288.5,267.0 293.6,267.0 296.2,266.9 298.8,266.6 301.3,266.6 303.9,266.5 306.5,266.3 309.1,266.2 319.3,265.9 324.5,265.8 334.8,265.8 337.3,265.5 339.9,265.4 342.5,265.3 347.6,265.3 350.2,264.2 352.8,263.0 355.3,262.6 357.9,262.4 360.5,262.3 363.0,262.0 365.6,261.6 368.2,261.3 370.7,261.1 373.3,261.0 378.5,260.9 381.0,260.4 383.6,260.0 386.2,259.5 388.7,259.2 393.9,259.1 399.0,259.1 401.6,258.7 404.2,258.4 406.7,257.6 409.3,257.2 411.9,256.7 414.4,256.3 417.0,255.8 419.6,255.3 422.2,254.7 424.7,254.1 427.3,253.5 429.9,253.0 432.4,252.7 435.0,252.3 437.6,251.8 440.2,251.6 442.7,251.3 445.3,251.1 447.9,250.9 450.4,250.8 455.6,250.8 458.1,249.7 460.7,248.9 463.3,248.7 465.9,248.6 471.0,248.5 473.6,248.4 483.8,248.3 489.0,248.2 496.7,248.1 499.3,246.9 501.8,245.6 504.4,245.3 507.0,244.3 509.6,243.5 512.1,243.0 514.7,242.7 517.3,242.2 519.8,242.0 522.4,241.9 525.0,241.6 527.5,241.5 543.0,240.6 545.5,239.5 548.1,239.4 550.7,239.2 553.3,239.1 571.2,239.1 594.4,237.9 597.0,237.0 599.5,235.9 602.1,234.4 604.7,234.1 607.2,233.6 609.8,232.7 612.4,232.0 614.9,230.5 617.5,228.3 620.1,226.1 622.7,223.5 625.2,220.8 627.8,218.5 630.4,217.0 632.9,215.3 635.5,212.7 638.1,210.5 640.7,209.1 643.2,207.5 645.8,205.4 648.4,204.1 650.9,202.7 653.5,201.6 656.1,200.7 658.6,199.5 661.2,198.8 663.8,198.0 666.4,197.3 668.9,195.3 671.5,193.7 674.1,192.8 676.6,192.5 679.2,192.0 681.8,191.1 684.4,190.4 686.9,189.1 689.5,188.2 692.1,187.4 694.6,187.3 697.2,187.0 699.8,186.4 702.3,184.8 704.9,182.1 707.5,179.4 710.1,176.6 712.6,174.4 715.2,171.8 717.8,169.0 720.3,166.1 722.9,163.5 725.5,161.6 728.1,160.1 730.6,158.3 733.2,156.6 735.8,155.5 738.3,154.2 740.9,153.2 743.5,151.7 746.0,149.8 748.6,147.4 751.2,145.4 753.8,143.7 756.3,142.6 758.9,141.6 761.5,140.6 764.0,139.4 766.6,137.5 769.2,135.9 771.7,134.0 774.3,131.9 776.9,130.3 779.5,128.9 782.0,128.4 784.6,127.6 787.2,126.8 789.7,126.7 792.3,126.6 794.9,126.2 797.5,126.0 800.0,126.0 802.6,125.7 805.2,125.6 812.9,125.5 815.4,125.4 818.0,125.1 820.6,122.8 823.2,120.9 825.7,119.1 828.3,117.2 830.9,115.4 833.4,113.7 836.0,111.8 838.6,110.2 841.2,108.3 843.7,106.6 846.3,104.9 848.9,103.2 851.4,101.6 854.0,99.9 856.6,98.3 859.1,96.9 861.7,95.3 864.3,93.8 866.9,92.2 869.4,90.7 872.0,90.0 872.0,272.0" fill="#e0f2fe" opacity="0.55"/>
<polyline points="52.0,271.9 54.6,271.8 85.4,271.3 88.0,271.1 90.6,271.0 98.3,271.0 113.7,270.9 147.1,270.9 149.7,270.4 152.3,270.3 160.0,270.2 162.5,270.2 165.1,270.1 167.7,269.9 172.8,269.9 175.4,269.6 183.1,269.4 193.4,269.3 195.9,269.1 198.5,269.0 219.1,268.9 224.2,268.9 237.1,268.8 239.6,268.8 242.2,268.6 252.5,268.6 255.1,268.2 257.6,268.0 260.2,267.2 262.8,267.1 280.8,267.1 288.5,267.0 293.6,267.0 296.2,266.9 298.8,266.6 301.3,266.6 303.9,266.5 306.5,266.3 309.1,266.2 319.3,265.9 324.5,265.8 334.8,265.8 337.3,265.5 339.9,265.4 342.5,265.3 347.6,265.3 350.2,264.2 352.8,263.0 355.3,262.6 357.9,262.4 360.5,262.3 363.0,262.0 365.6,261.6 368.2,261.3 370.7,261.1 373.3,261.0 378.5,260.9 381.0,260.4 383.6,260.0 386.2,259.5 388.7,259.2 393.9,259.1 399.0,259.1 401.6,258.7 404.2,258.4 406.7,257.6 409.3,257.2 411.9,256.7 414.4,256.3 417.0,255.8 419.6,255.3 422.2,254.7 424.7,254.1 427.3,253.5 429.9,253.0 432.4,252.7 435.0,252.3 437.6,251.8 440.2,251.6 442.7,251.3 445.3,251.1 447.9,250.9 450.4,250.8 455.6,250.8 458.1,249.7 460.7,248.9 463.3,248.7 465.9,248.6 471.0,248.5 473.6,248.4 483.8,248.3 489.0,248.2 496.7,248.1 499.3,246.9 501.8,245.6 504.4,245.3 507.0,244.3 509.6,243.5 512.1,243.0 514.7,242.7 517.3,242.2 519.8,242.0 522.4,241.9 525.0,241.6 527.5,241.5 543.0,240.6 545.5,239.5 548.1,239.4 550.7,239.2 553.3,239.1 571.2,239.1 594.4,237.9 597.0,237.0 599.5,235.9 602.1,234.4 604.7,234.1 607.2,233.6 609.8,232.7 612.4,232.0 614.9,230.5 617.5,228.3 620.1,226.1 622.7,223.5 625.2,220.8 627.8,218.5 630.4,217.0 632.9,215.3 635.5,212.7 638.1,210.5 640.7,209.1 643.2,207.5 645.8,205.4 648.4,204.1 650.9,202.7 653.5,201.6 656.1,200.7 658.6,199.5 661.2,198.8 663.8,198.0 666.4,197.3 668.9,195.3 671.5,193.7 674.1,192.8 676.6,192.5 679.2,192.0 681.8,191.1 684.4,190.4 686.9,189.1 689.5,188.2 692.1,187.4 694.6,187.3 697.2,187.0 699.8,186.4 702.3,184.8 704.9,182.1 707.5,179.4 710.1,176.6 712.6,174.4 715.2,171.8 717.8,169.0 720.3,166.1 722.9,163.5 725.5,161.6 728.1,160.1 730.6,158.3 733.2,156.6 735.8,155.5 738.3,154.2 740.9,153.2 743.5,151.7 746.0,149.8 748.6,147.4 751.2,145.4 753.8,143.7 756.3,142.6 758.9,141.6 761.5,140.6 764.0,139.4 766.6,137.5 769.2,135.9 771.7,134.0 774.3,131.9 776.9,130.3 779.5,128.9 782.0,128.4 784.6,127.6 787.2,126.8 789.7,126.7 792.3,126.6 794.9,126.2 797.5,126.0 800.0,126.0 802.6,125.7 805.2,125.6 812.9,125.5 815.4,125.4 818.0,125.1 820.6,122.8 823.2,120.9 825.7,119.1 828.3,117.2 830.9,115.4 833.4,113.7 836.0,111.8 838.6,110.2 841.2,108.3 843.7,106.6 846.3,104.9 848.9,103.2 851.4,101.6 854.0,99.9 856.6,98.3 859.1,96.9 861.7,95.3 864.3,93.8 866.9,92.2 869.4,90.7 872.0,90.0" fill="none" stroke="#38bdf8" stroke-width="2.5" stroke-linejoin="round" stroke-linecap="round"/>
<circle cx="872.0" cy="90.0" r="4" fill="#0ea5e9"/>
<text x="866.0" y="80.0" text-anchor="end" font-family="Inter, system-ui, sans-serif" font-size="13" font-weight="700" fill="#334155">3250</text>
<text x="52.0" y="294" text-anchor="middle" font-family="Inter, system-ui, sans-serif" font-size="11" fill="#94a3b8">Jun 10 05:00</text>
<text x="553.3" y="294" text-anchor="middle" font-family="Inter, system-ui, sans-serif" font-size="11" fill="#94a3b8">Jun 18 08:00</text>
<text x="872.0" y="294" text-anchor="middle" font-family="Inter, system-ui, sans-serif" font-size="11" fill="#94a3b8">Jun 23 12:00</text>
</svg>
