<svg xmlns="http://www.w3.org/2000/svg" width="900" height="320" viewBox="0 0 900 320" role="img" aria-labelledby="title desc">
<title id="title">unsorry proofs over time</title>
<desc id="desc">Cumulative kernel-verified proofs over time, by the hour each proof was merged.</desc>
<rect width="900" height="100%" rx="18" fill="#ffffff"/>
<rect x="0.5" y="0.5" width="899" height="319" rx="18" fill="none" stroke="#e2e8f0"/>
<text x="32" y="44" font-family="Inter, system-ui, sans-serif" font-size="28" font-weight="700" fill="#334155">unsorry — Proofs Over Time</text>
<text x="32" y="72" font-family="Inter, system-ui, sans-serif" font-size="13" fill="#64748b">4542 cumulative kernel-verified proofs · merged, hourly</text>
<line x1="52" y1="272.0" x2="872" y2="272.0" stroke="#f1f5f9"/>
<text x="44" y="276.0" text-anchor="end" font-family="Inter, system-ui, sans-serif" font-size="11" fill="#94a3b8">0</text>
<line x1="52" y1="226.5" x2="872" y2="226.5" stroke="#f1f5f9"/>
<text x="44" y="230.5" text-anchor="end" font-family="Inter, system-ui, sans-serif" font-size="11" fill="#94a3b8">1136</text>
<line x1="52" y1="181.0" x2="872" y2="181.0" stroke="#f1f5f9"/>
<text x="44" y="185.0" text-anchor="end" font-family="Inter, system-ui, sans-serif" font-size="11" fill="#94a3b8">2271</text>
<line x1="52" y1="135.5" x2="872" y2="135.5" stroke="#f1f5f9"/>
<text x="44" y="139.5" text-anchor="end" font-family="Inter, system-ui, sans-serif" font-size="11" fill="#94a3b8">3406</text>
<line x1="52" y1="90.0" x2="872" y2="90.0" stroke="#f1f5f9"/>
<text x="44" y="94.0" text-anchor="end" font-family="Inter, system-ui, sans-serif" font-size="11" fill="#94a3b8">4542</text>
<polygon points="52.0,272.0 52.0,272.0 54.1,271.9 79.4,271.5 81.5,271.4 83.6,271.3 89.9,271.3 102.6,271.2 130.0,271.2 132.1,270.8 134.2,270.8 140.5,270.7 142.6,270.7 144.8,270.6 146.9,270.5 151.1,270.5 153.2,270.3 159.5,270.1 167.9,270.0 170.0,269.9 172.2,269.8 189.0,269.8 193.2,269.8 203.8,269.7 205.9,269.7 208.0,269.6 216.4,269.6 218.5,269.3 220.6,269.1 222.7,268.6 224.9,268.5 239.6,268.5 245.9,268.4 250.1,268.4 252.3,268.4 254.4,268.2 256.5,268.1 258.6,268.1 260.7,268.0 262.8,267.8 271.2,267.6 275.4,267.6 283.9,267.6 286.0,267.4 288.1,267.3 290.2,267.2 294.4,267.2 296.5,266.4 298.6,265.6 300.7,265.3 302.8,265.1 305.0,265.0 307.1,264.8 309.2,264.5 311.3,264.3 313.4,264.2 315.5,264.1 319.7,264.0 321.8,263.7 323.9,263.4 326.0,263.1 328.1,262.9 332.4,262.8 336.6,262.7 338.7,262.5 340.8,262.3 342.9,261.7 345.0,261.4 347.1,261.1 349.2,260.7 351.3,260.4 353.4,260.0 355.5,259.6 357.7,259.2 359.8,258.8 361.9,258.4 364.0,258.2 366.1,257.9 368.2,257.6 370.3,257.4 372.4,257.2 374.5,257.0 376.6,256.9 378.7,256.9 383.0,256.8 385.1,256.0 387.2,255.5 389.3,255.3 391.4,255.3 395.6,255.2 397.7,255.1 406.1,255.1 410.4,255.0 416.7,254.9 418.8,254.0 420.9,253.1 423.0,252.9 425.1,252.2 427.2,251.6 429.3,251.2 431.4,251.0 433.5,250.7 435.7,250.5 437.8,250.4 439.9,250.3 442.0,250.2 454.6,249.6 456.7,248.8 458.8,248.6 460.9,248.5 463.1,248.5 477.8,248.4 496.8,247.6 498.9,247.0 501.0,246.2 503.1,245.1 505.2,244.9 507.3,244.5 509.4,243.9 511.5,243.4 513.6,242.3 515.8,240.7 517.9,239.1 520.0,237.3 522.1,235.4 524.2,233.7 526.3,232.7 528.4,231.4 530.5,229.6 532.6,228.0 534.7,227.0 536.8,225.9 538.9,224.4 541.0,223.4 543.2,222.4 545.3,221.6 547.4,221.0 549.5,220.1 551.6,219.6 553.7,219.0 555.8,218.5 557.9,217.1 560.0,215.9 562.1,215.3 564.2,215.1 566.3,214.7 568.5,214.1 570.6,213.6 572.7,212.7 574.8,212.1 576.9,211.5 579.0,211.4 581.1,211.2 583.2,210.7 585.3,209.6 587.4,207.7 589.5,205.7 591.6,203.8 593.7,202.2 595.9,200.3 598.0,198.3 600.1,196.2 602.2,194.3 604.3,193.0 606.4,191.9 608.5,190.7 610.6,189.5 612.7,188.7 614.8,187.7 616.9,187.0 619.0,185.9 621.2,184.5 623.3,182.8 625.4,181.4 627.5,180.2 629.6,179.4 631.7,178.7 633.8,178.0 635.9,177.2 638.0,175.8 640.1,174.6 642.2,173.2 644.3,171.8 646.4,170.6 648.6,169.6 650.7,169.2 652.8,168.7 654.9,168.1 657.0,168.0 659.1,167.9 661.2,167.7 663.3,167.5 665.4,167.5 667.5,167.3 669.6,167.2 676.0,167.2 678.1,167.1 680.2,166.9 682.3,165.3 684.4,163.8 686.5,162.6 688.6,161.2 690.7,160.0 692.8,158.7 694.9,157.4 697.0,156.2 699.1,154.9 701.3,153.7 703.4,152.4 705.5,151.2 707.6,150.1 709.7,148.9 711.8,147.7 713.9,146.7 716.0,145.6 718.1,144.5 720.2,143.3 722.3,142.3 724.4,141.2 726.6,140.5 728.7,139.8 730.8,139.0 732.9,138.0 735.0,137.1 737.1,136.2 739.2,135.1 741.3,134.2 743.4,133.4 745.5,132.4 747.6,131.4 749.7,130.5 751.8,129.6 754.0,128.6 756.1,127.8 758.2,126.8 760.3,126.1 762.4,125.3 764.5,124.4 766.6,123.5 768.7,122.8 770.8,122.1 772.9,121.5 775.0,121.2 777.1,121.1 779.2,120.2 781.4,119.5 783.5,118.7 785.6,117.8 787.7,117.1 789.8,116.3 791.9,115.6 794.0,114.8 796.1,114.1 798.2,113.4 800.3,112.7 802.4,112.0 804.5,111.2 806.7,110.6 808.8,109.9 810.9,109.2 813.0,108.5 815.1,107.9 817.2,107.1 819.3,106.5 821.4,105.9 823.5,105.1 825.6,104.3 827.7,103.7 829.8,102.9 831.9,102.2 834.1,101.6 836.2,101.0 838.3,100.2 840.4,99.6 842.5,99.2 844.6,98.6 846.7,97.9 848.8,97.2 850.9,96.3 853.0,95.6 855.1,95.0 857.2,94.4 859.4,93.8 861.5,93.0 863.6,92.4 865.7,91.8 867.8,91.2 869.9,90.4 872.0,90.0 872.0,272.0" fill="#e0f2fe" opacity="0.55"/>
<polyline points="52.0,272.0 54.1,271.9 79.4,271.5 81.5,271.4 83.6,271.3 89.9,271.3 102.6,271.2 130.0,271.2 132.1,270.8 134.2,270.8 140.5,270.7 142.6,270.7 144.8,270.6 146.9,270.5 151.1,270.5 153.2,270.3 159.5,270.1 167.9,270.0 170.0,269.9 172.2,269.8 189.0,269.8 193.2,269.8 203.8,269.7 205.9,269.7 208.0,269.6 216.4,269.6 218.5,269.3 220.6,269.1 222.7,268.6 224.9,268.5 239.6,268.5 245.9,268.4 250.1,268.4 252.3,268.4 254.4,268.2 256.5,268.1 258.6,268.1 260.7,268.0 262.8,267.8 271.2,267.6 275.4,267.6 283.9,267.6 286.0,267.4 288.1,267.3 290.2,267.2 294.4,267.2 296.5,266.4 298.6,265.6 300.7,265.3 302.8,265.1 305.0,265.0 307.1,264.8 309.2,264.5 311.3,264.3 313.4,264.2 315.5,264.1 319.7,264.0 321.8,263.7 323.9,263.4 326.0,263.1 328.1,262.9 332.4,262.8 336.6,262.7 338.7,262.5 340.8,262.3 342.9,261.7 345.0,261.4 347.1,261.1 349.2,260.7 351.3,260.4 353.4,260.0 355.5,259.6 357.7,259.2 359.8,258.8 361.9,258.4 364.0,258.2 366.1,257.9 368.2,257.6 370.3,257.4 372.4,257.2 374.5,257.0 376.6,256.9 378.7,256.9 383.0,256.8 385.1,256.0 387.2,255.5 389.3,255.3 391.4,255.3 395.6,255.2 397.7,255.1 406.1,255.1 410.4,255.0 416.7,254.9 418.8,254.0 420.9,253.1 423.0,252.9 425.1,252.2 427.2,251.6 429.3,251.2 431.4,251.0 433.5,250.7 435.7,250.5 437.8,250.4 439.9,250.3 442.0,250.2 454.6,249.6 456.7,248.8 458.8,248.6 460.9,248.5 463.1,248.5 477.8,248.4 496.8,247.6 498.9,247.0 501.0,246.2 503.1,245.1 505.2,244.9 507.3,244.5 509.4,243.9 511.5,243.4 513.6,242.3 515.8,240.7 517.9,239.1 520.0,237.3 522.1,235.4 524.2,233.7 526.3,232.7 528.4,231.4 530.5,229.6 532.6,228.0 534.7,227.0 536.8,225.9 538.9,224.4 541.0,223.4 543.2,222.4 545.3,221.6 547.4,221.0 549.5,220.1 551.6,219.6 553.7,219.0 555.8,218.5 557.9,217.1 560.0,215.9 562.1,215.3 564.2,215.1 566.3,214.7 568.5,214.1 570.6,213.6 572.7,212.7 574.8,212.1 576.9,211.5 579.0,211.4 581.1,211.2 583.2,210.7 585.3,209.6 587.4,207.7 589.5,205.7 591.6,203.8 593.7,202.2 595.9,200.3 598.0,198.3 600.1,196.2 602.2,194.3 604.3,193.0 606.4,191.9 608.5,190.7 610.6,189.5 612.7,188.7 614.8,187.7 616.9,187.0 619.0,185.9 621.2,184.5 623.3,182.8 625.4,181.4 627.5,180.2 629.6,179.4 631.7,178.7 633.8,178.0 635.9,177.2 638.0,175.8 640.1,174.6 642.2,173.2 644.3,171.8 646.4,170.6 648.6,169.6 650.7,169.2 652.8,168.7 654.9,168.1 657.0,168.0 659.1,167.9 661.2,167.7 663.3,167.5 665.4,167.5 667.5,167.3 669.6,167.2 676.0,167.2 678.1,167.1 680.2,166.9 682.3,165.3 684.4,163.8 686.5,162.6 688.6,161.2 690.7,160.0 692.8,158.7 694.9,157.4 697.0,156.2 699.1,154.9 701.3,153.7 703.4,152.4 705.5,151.2 707.6,150.1 709.7,148.9 711.8,147.7 713.9,146.7 716.0,145.6 718.1,144.5 720.2,143.3 722.3,142.3 724.4,141.2 726.6,140.5 728.7,139.8 730.8,139.0 732.9,138.0 735.0,137.1 737.1,136.2 739.2,135.1 741.3,134.2 743.4,133.4 745.5,132.4 747.6,131.4 749.7,130.5 751.8,129.6 754.0,128.6 756.1,127.8 758.2,126.8 760.3,126.1 762.4,125.3 764.5,124.4 766.6,123.5 768.7,122.8 770.8,122.1 772.9,121.5 775.0,121.2 777.1,121.1 779.2,120.2 781.4,119.5 783.5,118.7 785.6,117.8 787.7,117.1 789.8,116.3 791.9,115.6 794.0,114.8 796.1,114.1 798.2,113.4 800.3,112.7 802.4,112.0 804.5,111.2 806.7,110.6 808.8,109.9 810.9,109.2 813.0,108.5 815.1,107.9 817.2,107.1 819.3,106.5 821.4,105.9 823.5,105.1 825.6,104.3 827.7,103.7 829.8,102.9 831.9,102.2 834.1,101.6 836.2,101.0 838.3,100.2 840.4,99.6 842.5,99.2 844.6,98.6 846.7,97.9 848.8,97.2 850.9,96.3 853.0,95.6 855.1,95.0 857.2,94.4 859.4,93.8 861.5,93.0 863.6,92.4 865.7,91.8 867.8,91.2 869.9,90.4 872.0,90.0" fill="none" stroke="#38bdf8" stroke-width="2.5" stroke-linejoin="round" stroke-linecap="round"/>
<circle cx="872.0" cy="90.0" r="4" fill="#0ea5e9"/>
<text x="866.0" y="80.0" text-anchor="end" font-family="Inter, system-ui, sans-serif" font-size="13" font-weight="700" fill="#334155">4542</text>
<text x="52.0" y="294" text-anchor="middle" font-family="Inter, system-ui, sans-serif" font-size="11" fill="#94a3b8">Jun 10 05:00</text>
<text x="566.3" y="294" text-anchor="middle" font-family="Inter, system-ui, sans-serif" font-size="11" fill="#94a3b8">Jun 20 09:00</text>
<text x="872.0" y="294" text-anchor="middle" font-family="Inter, system-ui, sans-serif" font-size="11" fill="#94a3b8">Jun 26 10:00</text>
</svg>
