<svg xmlns="http://www.w3.org/2000/svg" width="900" height="320" viewBox="0 0 900 320" role="img" aria-labelledby="title desc">
<title id="title">Unsorry proofs over time</title>
<desc id="desc">Cumulative kernel-verified proofs over time, by the hour each proof was merged.</desc>
<rect width="900" height="100%" rx="18" fill="#ffffff"/>
<rect x="0.5" y="0.5" width="899" height="319" rx="18" fill="none" stroke="#e2e8f0"/>
<text x="32" y="44" font-family="Inter, system-ui, sans-serif" font-size="28" font-weight="700" fill="#334155">Unsorry — Proofs Over Time</text>
<text x="32" y="72" font-family="Inter, system-ui, sans-serif" font-size="13" fill="#64748b">1952 cumulative kernel-verified proofs · merged, hourly</text>
<line x1="52" y1="272.0" x2="872" y2="272.0" stroke="#f1f5f9"/>
<text x="44" y="276.0" text-anchor="end" font-family="Inter, system-ui, sans-serif" font-size="11" fill="#94a3b8">0</text>
<line x1="52" y1="226.5" x2="872" y2="226.5" stroke="#f1f5f9"/>
<text x="44" y="230.5" text-anchor="end" font-family="Inter, system-ui, sans-serif" font-size="11" fill="#94a3b8">488</text>
<line x1="52" y1="181.0" x2="872" y2="181.0" stroke="#f1f5f9"/>
<text x="44" y="185.0" text-anchor="end" font-family="Inter, system-ui, sans-serif" font-size="11" fill="#94a3b8">976</text>
<line x1="52" y1="135.5" x2="872" y2="135.5" stroke="#f1f5f9"/>
<text x="44" y="139.5" text-anchor="end" font-family="Inter, system-ui, sans-serif" font-size="11" fill="#94a3b8">1464</text>
<line x1="52" y1="90.0" x2="872" y2="90.0" stroke="#f1f5f9"/>
<text x="44" y="94.0" text-anchor="end" font-family="Inter, system-ui, sans-serif" font-size="11" fill="#94a3b8">1952</text>
<polygon points="52.0,272.0 52.0,271.9 55.1,271.7 92.7,270.8 95.8,270.5 98.9,270.4 108.3,270.3 127.1,270.2 167.8,270.1 170.9,269.3 174.1,269.2 183.5,269.0 186.6,268.9 189.7,268.8 192.8,268.6 199.1,268.5 202.2,268.0 211.6,267.6 224.1,267.4 227.3,267.2 230.4,267.0 255.4,266.9 261.7,266.8 277.3,266.7 280.5,266.6 283.6,266.4 296.1,266.3 299.3,265.8 302.4,265.3 305.5,264.1 308.6,263.9 330.5,263.8 339.9,263.7 346.2,263.6 349.3,263.5 352.5,263.0 355.6,263.0 358.7,262.9 361.8,262.6 365.0,262.3 377.5,261.8 383.8,261.7 396.3,261.7 399.4,261.2 402.5,261.1 405.7,260.9 411.9,260.8 415.1,258.9 418.2,257.1 421.3,256.4 424.4,256.0 427.6,255.8 430.7,255.3 433.8,254.7 437.0,254.2 440.1,253.9 443.2,253.7 449.5,253.4 452.6,252.7 455.7,252.0 458.9,251.2 462.0,250.7 468.3,250.6 474.5,250.5 477.6,249.8 480.8,249.3 483.9,248.0 487.0,247.3 490.2,246.5 493.3,245.8 496.4,245.0 499.6,244.1 502.7,243.2 505.8,242.2 508.9,241.2 512.1,240.4 515.2,239.8 518.3,239.2 521.5,238.4 524.6,238.1 527.7,237.6 530.9,237.1 534.0,236.9 537.1,236.8 543.4,236.7 546.5,234.8 549.6,233.5 552.8,233.2 555.9,233.1 562.2,232.9 565.3,232.7 577.8,232.6 584.1,232.4 593.5,232.3 596.6,230.1 599.7,228.1 602.8,227.5 606.0,225.8 609.1,224.5 612.2,223.7 615.4,223.2 618.5,222.4 621.6,222.0 624.7,221.8 627.9,221.5 631.0,221.3 649.8,219.8 652.9,217.9 656.0,217.6 659.2,217.4 662.3,217.3 684.2,217.2 712.4,215.2 715.5,213.7 718.6,212.0 721.8,209.3 724.9,208.9 728.0,208.0 731.2,206.5 734.3,205.4 737.4,202.9 740.5,199.2 743.7,195.5 746.8,191.3 749.9,186.8 753.1,182.9 756.2,180.4 759.3,177.6 762.5,173.3 765.6,169.6 768.7,167.2 771.8,164.7 775.0,161.1 778.1,158.9 781.2,156.7 784.4,154.7 787.5,153.2 790.6,151.3 793.8,150.0 796.9,148.7 800.0,147.6 803.1,144.3 806.3,141.6 809.4,140.1 812.5,139.6 815.7,138.8 818.8,137.4 821.9,136.2 825.1,133.9 828.2,132.5 831.3,131.2 834.4,131.0 837.6,130.5 840.7,129.4 843.8,126.7 847.0,122.4 850.1,117.8 853.2,113.2 856.4,109.5 859.5,105.1 862.6,100.4 865.7,95.7 868.9,91.3 872.0,90.0 872.0,272.0" fill="#e0f2fe" opacity="0.55"/>
<polyline points="52.0,271.9 55.1,271.7 92.7,270.8 95.8,270.5 98.9,270.4 108.3,270.3 127.1,270.2 167.8,270.1 170.9,269.3 174.1,269.2 183.5,269.0 186.6,268.9 189.7,268.8 192.8,268.6 199.1,268.5 202.2,268.0 211.6,267.6 224.1,267.4 227.3,267.2 230.4,267.0 255.4,266.9 261.7,266.8 277.3,266.7 280.5,266.6 283.6,266.4 296.1,266.3 299.3,265.8 302.4,265.3 305.5,264.1 308.6,263.9 330.5,263.8 339.9,263.7 346.2,263.6 349.3,263.5 352.5,263.0 355.6,263.0 358.7,262.9 361.8,262.6 365.0,262.3 377.5,261.8 383.8,261.7 396.3,261.7 399.4,261.2 402.5,261.1 405.7,260.9 411.9,260.8 415.1,258.9 418.2,257.1 421.3,256.4 424.4,256.0 427.6,255.8 430.7,255.3 433.8,254.7 437.0,254.2 440.1,253.9 443.2,253.7 449.5,253.4 452.6,252.7 455.7,252.0 458.9,251.2 462.0,250.7 468.3,250.6 474.5,250.5 477.6,249.8 480.8,249.3 483.9,248.0 487.0,247.3 490.2,246.5 493.3,245.8 496.4,245.0 499.6,244.1 502.7,243.2 505.8,242.2 508.9,241.2 512.1,240.4 515.2,239.8 518.3,239.2 521.5,238.4 524.6,238.1 527.7,237.6 530.9,237.1 534.0,236.9 537.1,236.8 543.4,236.7 546.5,234.8 549.6,233.5 552.8,233.2 555.9,233.1 562.2,232.9 565.3,232.7 577.8,232.6 584.1,232.4 593.5,232.3 596.6,230.1 599.7,228.1 602.8,227.5 606.0,225.8 609.1,224.5 612.2,223.7 615.4,223.2 618.5,222.4 621.6,222.0 624.7,221.8 627.9,221.5 631.0,221.3 649.8,219.8 652.9,217.9 656.0,217.6 659.2,217.4 662.3,217.3 684.2,217.2 712.4,215.2 715.5,213.7 718.6,212.0 721.8,209.3 724.9,208.9 728.0,208.0 731.2,206.5 734.3,205.4 737.4,202.9 740.5,199.2 743.7,195.5 746.8,191.3 749.9,186.8 753.1,182.9 756.2,180.4 759.3,177.6 762.5,173.3 765.6,169.6 768.7,167.2 771.8,164.7 775.0,161.1 778.1,158.9 781.2,156.7 784.4,154.7 787.5,153.2 790.6,151.3 793.8,150.0 796.9,148.7 800.0,147.6 803.1,144.3 806.3,141.6 809.4,140.1 812.5,139.6 815.7,138.8 818.8,137.4 821.9,136.2 825.1,133.9 828.2,132.5 831.3,131.2 834.4,131.0 837.6,130.5 840.7,129.4 843.8,126.7 847.0,122.4 850.1,117.8 853.2,113.2 856.4,109.5 859.5,105.1 862.6,100.4 865.7,95.7 868.9,91.3 872.0,90.0" fill="none" stroke="#38bdf8" stroke-width="2.5" stroke-linejoin="round" stroke-linecap="round"/>
<circle cx="872.0" cy="90.0" r="4" fill="#0ea5e9"/>
<text x="866.0" y="80.0" text-anchor="end" font-family="Inter, system-ui, sans-serif" font-size="13" font-weight="700" fill="#334155">1952</text>
<text x="52.0" y="294" text-anchor="middle" font-family="Inter, system-ui, sans-serif" font-size="11" fill="#94a3b8">Jun 10 05:00</text>
<text x="534.0" y="294" text-anchor="middle" font-family="Inter, system-ui, sans-serif" font-size="11" fill="#94a3b8">Jun 16 15:00</text>
<text x="872.0" y="294" text-anchor="middle" font-family="Inter, system-ui, sans-serif" font-size="11" fill="#94a3b8">Jun 21 03:00</text>
</svg>
