<svg xmlns="http://www.w3.org/2000/svg" width="900" height="320" viewBox="0 0 900 320" role="img" aria-labelledby="title desc">
<title id="title">unsorry proofs over time</title>
<desc id="desc">Cumulative kernel-verified proofs over time, by the hour each proof was merged.</desc>
<rect width="900" height="100%" rx="18" fill="#ffffff"/>
<rect x="0.5" y="0.5" width="899" height="319" rx="18" fill="none" stroke="#e2e8f0"/>
<text x="32" y="44" font-family="Inter, system-ui, sans-serif" font-size="28" font-weight="700" fill="#334155">unsorry — Proofs Over Time</text>
<text x="32" y="72" font-family="Inter, system-ui, sans-serif" font-size="13" fill="#64748b">3772 cumulative kernel-verified proofs · merged, hourly</text>
<line x1="52" y1="272.0" x2="872" y2="272.0" stroke="#f1f5f9"/>
<text x="44" y="276.0" text-anchor="end" font-family="Inter, system-ui, sans-serif" font-size="11" fill="#94a3b8">0</text>
<line x1="52" y1="226.5" x2="872" y2="226.5" stroke="#f1f5f9"/>
<text x="44" y="230.5" text-anchor="end" font-family="Inter, system-ui, sans-serif" font-size="11" fill="#94a3b8">943</text>
<line x1="52" y1="181.0" x2="872" y2="181.0" stroke="#f1f5f9"/>
<text x="44" y="185.0" text-anchor="end" font-family="Inter, system-ui, sans-serif" font-size="11" fill="#94a3b8">1886</text>
<line x1="52" y1="135.5" x2="872" y2="135.5" stroke="#f1f5f9"/>
<text x="44" y="139.5" text-anchor="end" font-family="Inter, system-ui, sans-serif" font-size="11" fill="#94a3b8">2829</text>
<line x1="52" y1="90.0" x2="872" y2="90.0" stroke="#f1f5f9"/>
<text x="44" y="94.0" text-anchor="end" font-family="Inter, system-ui, sans-serif" font-size="11" fill="#94a3b8">3772</text>
<polygon points="52.0,272.0 52.0,272.0 54.4,271.9 82.9,271.4 85.3,271.2 87.7,271.2 94.8,271.1 109.0,271.1 139.9,271.0 142.3,270.6 144.7,270.6 151.8,270.5 154.2,270.4 156.6,270.4 159.0,270.2 163.7,270.2 166.1,269.9 173.2,269.7 182.7,269.6 185.1,269.5 187.5,269.4 206.5,269.3 211.2,269.3 223.1,269.2 225.5,269.2 227.9,269.1 237.4,269.1 239.8,268.8 242.1,268.5 244.5,267.9 246.9,267.8 263.5,267.8 270.7,267.7 275.4,267.7 277.8,267.6 280.2,267.4 282.6,267.3 284.9,267.3 287.3,267.1 289.7,267.0 299.2,266.7 303.9,266.7 313.4,266.6 315.8,266.4 318.2,266.4 320.6,266.3 325.3,266.2 327.7,265.2 330.1,264.3 332.5,263.9 334.8,263.7 337.2,263.6 339.6,263.4 342.0,263.0 344.3,262.8 346.7,262.6 349.1,262.5 353.9,262.4 356.2,262.0 358.6,261.6 361.0,261.2 363.4,261.0 368.1,260.9 372.9,260.9 375.2,260.5 377.6,260.3 380.0,259.6 382.4,259.2 384.8,258.8 387.1,258.4 389.5,258.0 391.9,257.6 394.3,257.1 396.6,256.6 399.0,256.1 401.4,255.6 403.8,255.4 406.1,255.0 408.5,254.6 410.9,254.4 413.3,254.2 415.7,254.0 418.0,253.9 420.4,253.8 425.2,253.7 427.5,252.7 429.9,252.1 432.3,251.9 434.7,251.9 439.4,251.8 441.8,251.6 451.3,251.6 456.1,251.5 463.2,251.4 465.6,250.3 467.9,249.3 470.3,249.0 472.7,248.1 475.1,247.4 477.4,247.0 479.8,246.8 482.2,246.3 484.6,246.1 487.0,246.0 489.3,245.8 491.7,245.8 506.0,245.0 508.3,244.0 510.7,243.9 513.1,243.7 515.5,243.7 532.1,243.6 553.5,242.6 555.9,241.8 558.3,240.9 560.6,239.6 563.0,239.3 565.4,238.9 567.8,238.1 570.1,237.5 572.5,236.2 574.9,234.3 577.3,232.4 579.7,230.2 582.0,227.9 584.4,225.9 586.8,224.6 589.2,223.1 591.5,220.9 593.9,219.0 596.3,217.8 598.7,216.5 601.0,214.6 603.4,213.5 605.8,212.3 608.2,211.3 610.6,210.5 612.9,209.5 615.3,208.9 617.7,208.2 620.1,207.6 622.4,205.9 624.8,204.5 627.2,203.7 629.6,203.5 631.9,203.1 634.3,202.3 636.7,201.7 639.1,200.5 641.4,199.8 643.8,199.1 646.2,199.0 648.6,198.8 651.0,198.2 653.3,196.8 655.7,194.6 658.1,192.2 660.5,189.8 662.8,187.9 665.2,185.6 667.6,183.2 670.0,180.8 672.3,178.5 674.7,176.9 677.1,175.5 679.5,174.1 681.9,172.6 684.2,171.6 686.6,170.5 689.0,169.6 691.4,168.4 693.7,166.7 696.1,164.6 698.5,163.0 700.9,161.5 703.2,160.5 705.6,159.6 708.0,158.8 710.4,157.8 712.8,156.2 715.1,154.8 717.5,153.1 719.9,151.3 722.3,149.9 724.6,148.7 727.0,148.2 729.4,147.6 731.8,146.9 734.1,146.8 736.5,146.7 738.9,146.4 741.3,146.2 743.7,146.2 746.0,145.9 748.4,145.8 755.5,145.8 757.9,145.7 760.3,145.4 762.7,143.5 765.0,141.8 767.4,140.3 769.8,138.6 772.2,137.1 774.6,135.6 776.9,134.0 779.3,132.6 781.7,131.0 784.1,129.5 786.4,128.0 788.8,126.6 791.2,125.2 793.6,123.7 795.9,122.3 798.3,121.1 800.7,119.8 803.1,118.4 805.4,117.1 807.8,115.8 810.2,114.5 812.6,113.6 815.0,112.8 817.3,111.9 819.7,110.7 822.1,109.5 824.5,108.5 826.8,107.2 829.2,106.1 831.6,105.1 834.0,103.9 836.3,102.7 838.7,101.6 841.1,100.6 843.5,99.3 845.9,98.3 848.2,97.2 850.6,96.3 853.0,95.4 855.4,94.2 857.7,93.2 860.1,92.3 862.5,91.5 864.9,90.8 867.2,90.4 869.6,90.2 872.0,90.0 872.0,272.0" fill="#e0f2fe" opacity="0.55"/>
<polyline points="52.0,272.0 54.4,271.9 82.9,271.4 85.3,271.2 87.7,271.2 94.8,271.1 109.0,271.1 139.9,271.0 142.3,270.6 144.7,270.6 151.8,270.5 154.2,270.4 156.6,270.4 159.0,270.2 163.7,270.2 166.1,269.9 173.2,269.7 182.7,269.6 185.1,269.5 187.5,269.4 206.5,269.3 211.2,269.3 223.1,269.2 225.5,269.2 227.9,269.1 237.4,269.1 239.8,268.8 242.1,268.5 244.5,267.9 246.9,267.8 263.5,267.8 270.7,267.7 275.4,267.7 277.8,267.6 280.2,267.4 282.6,267.3 284.9,267.3 287.3,267.1 289.7,267.0 299.2,266.7 303.9,266.7 313.4,266.6 315.8,266.4 318.2,266.4 320.6,266.3 325.3,266.2 327.7,265.2 330.1,264.3 332.5,263.9 334.8,263.7 337.2,263.6 339.6,263.4 342.0,263.0 344.3,262.8 346.7,262.6 349.1,262.5 353.9,262.4 356.2,262.0 358.6,261.6 361.0,261.2 363.4,261.0 368.1,260.9 372.9,260.9 375.2,260.5 377.6,260.3 380.0,259.6 382.4,259.2 384.8,258.8 387.1,258.4 389.5,258.0 391.9,257.6 394.3,257.1 396.6,256.6 399.0,256.1 401.4,255.6 403.8,255.4 406.1,255.0 408.5,254.6 410.9,254.4 413.3,254.2 415.7,254.0 418.0,253.9 420.4,253.8 425.2,253.7 427.5,252.7 429.9,252.1 432.3,251.9 434.7,251.9 439.4,251.8 441.8,251.6 451.3,251.6 456.1,251.5 463.2,251.4 465.6,250.3 467.9,249.3 470.3,249.0 472.7,248.1 475.1,247.4 477.4,247.0 479.8,246.8 482.2,246.3 484.6,246.1 487.0,246.0 489.3,245.8 491.7,245.8 506.0,245.0 508.3,244.0 510.7,243.9 513.1,243.7 515.5,243.7 532.1,243.6 553.5,242.6 555.9,241.8 558.3,240.9 560.6,239.6 563.0,239.3 565.4,238.9 567.8,238.1 570.1,237.5 572.5,236.2 574.9,234.3 577.3,232.4 579.7,230.2 582.0,227.9 584.4,225.9 586.8,224.6 589.2,223.1 591.5,220.9 593.9,219.0 596.3,217.8 598.7,216.5 601.0,214.6 603.4,213.5 605.8,212.3 608.2,211.3 610.6,210.5 612.9,209.5 615.3,208.9 617.7,208.2 620.1,207.6 622.4,205.9 624.8,204.5 627.2,203.7 629.6,203.5 631.9,203.1 634.3,202.3 636.7,201.7 639.1,200.5 641.4,199.8 643.8,199.1 646.2,199.0 648.6,198.8 651.0,198.2 653.3,196.8 655.7,194.6 658.1,192.2 660.5,189.8 662.8,187.9 665.2,185.6 667.6,183.2 670.0,180.8 672.3,178.5 674.7,176.9 677.1,175.5 679.5,174.1 681.9,172.6 684.2,171.6 686.6,170.5 689.0,169.6 691.4,168.4 693.7,166.7 696.1,164.6 698.5,163.0 700.9,161.5 703.2,160.5 705.6,159.6 708.0,158.8 710.4,157.8 712.8,156.2 715.1,154.8 717.5,153.1 719.9,151.3 722.3,149.9 724.6,148.7 727.0,148.2 729.4,147.6 731.8,146.9 734.1,146.8 736.5,146.7 738.9,146.4 741.3,146.2 743.7,146.2 746.0,145.9 748.4,145.8 755.5,145.8 757.9,145.7 760.3,145.4 762.7,143.5 765.0,141.8 767.4,140.3 769.8,138.6 772.2,137.1 774.6,135.6 776.9,134.0 779.3,132.6 781.7,131.0 784.1,129.5 786.4,128.0 788.8,126.6 791.2,125.2 793.6,123.7 795.9,122.3 798.3,121.1 800.7,119.8 803.1,118.4 805.4,117.1 807.8,115.8 810.2,114.5 812.6,113.6 815.0,112.8 817.3,111.9 819.7,110.7 822.1,109.5 824.5,108.5 826.8,107.2 829.2,106.1 831.6,105.1 834.0,103.9 836.3,102.7 838.7,101.6 841.1,100.6 843.5,99.3 845.9,98.3 848.2,97.2 850.6,96.3 853.0,95.4 855.4,94.2 857.7,93.2 860.1,92.3 862.5,91.5 864.9,90.8 867.2,90.4 869.6,90.2 872.0,90.0" fill="none" stroke="#38bdf8" stroke-width="2.5" stroke-linejoin="round" stroke-linecap="round"/>
<circle cx="872.0" cy="90.0" r="4" fill="#0ea5e9"/>
<text x="866.0" y="80.0" text-anchor="end" font-family="Inter, system-ui, sans-serif" font-size="13" font-weight="700" fill="#334155">3772</text>
<text x="52.0" y="294" text-anchor="middle" font-family="Inter, system-ui, sans-serif" font-size="11" fill="#94a3b8">Jun 10 05:00</text>
<text x="579.7" y="294" text-anchor="middle" font-family="Inter, system-ui, sans-serif" font-size="11" fill="#94a3b8">Jun 19 11:00</text>
<text x="872.0" y="294" text-anchor="middle" font-family="Inter, system-ui, sans-serif" font-size="11" fill="#94a3b8">Jun 24 14:00</text>
</svg>
