<svg xmlns="http://www.w3.org/2000/svg" width="900" height="320" viewBox="0 0 900 320" role="img" aria-labelledby="title desc">
<title id="title">unsorry proofs over time</title>
<desc id="desc">Cumulative kernel-verified proofs over time, by the hour each proof was merged.</desc>
<rect width="900" height="100%" rx="18" fill="#ffffff"/>
<rect x="0.5" y="0.5" width="899" height="319" rx="18" fill="none" stroke="#e2e8f0"/>
<text x="32" y="44" font-family="Inter, system-ui, sans-serif" font-size="28" font-weight="700" fill="#334155">unsorry — Proofs Over Time</text>
<text x="32" y="72" font-family="Inter, system-ui, sans-serif" font-size="13" fill="#64748b">3830 cumulative kernel-verified proofs · merged, hourly</text>
<line x1="52" y1="272.0" x2="872" y2="272.0" stroke="#f1f5f9"/>
<text x="44" y="276.0" text-anchor="end" font-family="Inter, system-ui, sans-serif" font-size="11" fill="#94a3b8">0</text>
<line x1="52" y1="226.5" x2="872" y2="226.5" stroke="#f1f5f9"/>
<text x="44" y="230.5" text-anchor="end" font-family="Inter, system-ui, sans-serif" font-size="11" fill="#94a3b8">958</text>
<line x1="52" y1="181.0" x2="872" y2="181.0" stroke="#f1f5f9"/>
<text x="44" y="185.0" text-anchor="end" font-family="Inter, system-ui, sans-serif" font-size="11" fill="#94a3b8">1915</text>
<line x1="52" y1="135.5" x2="872" y2="135.5" stroke="#f1f5f9"/>
<text x="44" y="139.5" text-anchor="end" font-family="Inter, system-ui, sans-serif" font-size="11" fill="#94a3b8">2872</text>
<line x1="52" y1="90.0" x2="872" y2="90.0" stroke="#f1f5f9"/>
<text x="44" y="94.0" text-anchor="end" font-family="Inter, system-ui, sans-serif" font-size="11" fill="#94a3b8">3830</text>
<polygon points="52.0,272.0 52.0,272.0 54.4,271.9 82.6,271.4 85.0,271.2 87.3,271.2 94.4,271.1 108.6,271.1 139.2,271.0 141.5,270.6 143.9,270.6 151.0,270.5 153.3,270.4 155.7,270.4 158.0,270.2 162.7,270.2 165.1,270.0 172.2,269.8 181.6,269.7 184.0,269.5 186.3,269.4 205.2,269.4 209.9,269.3 221.7,269.3 224.0,269.2 226.4,269.1 235.8,269.1 238.1,268.8 240.5,268.6 242.9,268.0 245.2,267.9 261.7,267.8 268.8,267.8 273.5,267.7 275.9,267.7 278.2,267.4 280.6,267.4 282.9,267.3 285.3,267.2 287.6,267.1 297.1,266.8 301.8,266.8 311.2,266.7 313.6,266.5 315.9,266.4 318.3,266.3 323.0,266.3 325.3,265.3 327.7,264.4 330.0,264.1 332.4,263.8 334.8,263.7 337.1,263.5 339.5,263.2 341.8,262.9 344.2,262.8 346.5,262.7 351.3,262.5 353.6,262.2 356.0,261.8 358.3,261.4 360.7,261.2 365.4,261.1 370.1,261.0 372.5,260.7 374.8,260.5 377.2,259.8 379.5,259.4 381.9,259.0 384.2,258.6 386.6,258.2 389.0,257.8 391.3,257.3 393.7,256.8 396.0,256.3 398.4,255.9 400.7,255.6 403.1,255.3 405.4,254.9 407.8,254.7 410.2,254.5 412.5,254.2 414.9,254.1 417.2,254.0 421.9,254.0 424.3,253.0 426.7,252.4 429.0,252.2 431.4,252.2 436.1,252.1 438.4,251.9 447.9,251.9 452.6,251.8 459.6,251.8 462.0,250.7 464.4,249.6 466.7,249.3 469.1,248.5 471.4,247.8 473.8,247.4 476.1,247.1 478.5,246.7 480.9,246.5 483.2,246.4 485.6,246.2 487.9,246.1 502.1,245.4 504.4,244.4 506.8,244.3 509.1,244.2 511.5,244.1 528.0,244.1 549.2,243.1 551.5,242.3 553.9,241.4 556.3,240.1 558.6,239.8 561.0,239.4 563.3,238.6 565.7,238.1 568.0,236.8 570.4,234.9 572.7,233.0 575.1,230.8 577.5,228.6 579.8,226.6 582.2,225.3 584.5,223.9 586.9,221.7 589.2,219.8 591.6,218.6 594.0,217.3 596.3,215.5 598.7,214.4 601.0,213.2 603.4,212.2 605.7,211.5 608.1,210.5 610.4,209.8 612.8,209.2 615.2,208.6 617.5,206.9 619.9,205.5 622.2,204.8 624.6,204.5 626.9,204.1 629.3,203.4 631.7,202.8 634.0,201.6 636.4,200.9 638.7,200.2 641.1,200.2 643.4,199.9 645.8,199.3 648.1,198.0 650.5,195.7 652.9,193.4 655.2,191.1 657.6,189.2 659.9,186.9 662.3,184.6 664.6,182.1 667.0,179.9 669.4,178.3 671.7,177.0 674.1,175.5 676.4,174.1 678.8,173.2 681.1,172.0 683.5,171.2 685.9,169.9 688.2,168.3 690.6,166.3 692.9,164.6 695.3,163.1 697.6,162.2 700.0,161.3 702.3,160.5 704.7,159.5 707.1,157.9 709.4,156.5 711.8,154.9 714.1,153.2 716.5,151.7 718.8,150.6 721.2,150.1 723.6,149.4 725.9,148.8 728.3,148.7 730.6,148.6 733.0,148.3 735.3,148.1 737.7,148.1 740.0,147.8 742.4,147.7 749.5,147.7 751.8,147.6 754.2,147.4 756.5,145.4 758.9,143.7 761.3,142.3 763.6,140.6 766.0,139.1 768.3,137.7 770.7,136.1 773.0,134.7 775.4,133.1 777.7,131.7 780.1,130.2 782.5,128.8 784.8,127.4 787.2,126.0 789.5,124.6 791.9,123.4 794.2,122.1 796.6,120.7 799.0,119.4 801.3,118.2 803.7,116.9 806.0,116.0 808.4,115.2 810.7,114.3 813.1,113.1 815.4,112.0 817.8,111.0 820.2,109.7 822.5,108.6 824.9,107.6 827.2,106.4 829.6,105.3 831.9,104.2 834.3,103.2 836.7,101.9 839.0,101.0 841.4,99.8 843.7,98.9 846.1,98.0 848.4,96.9 850.8,95.9 853.1,95.0 855.5,94.3 857.9,93.6 860.2,93.1 862.6,93.0 864.9,92.0 867.3,91.1 869.6,90.1 872.0,90.0 872.0,272.0" fill="#e0f2fe" opacity="0.55"/>
<polyline points="52.0,272.0 54.4,271.9 82.6,271.4 85.0,271.2 87.3,271.2 94.4,271.1 108.6,271.1 139.2,271.0 141.5,270.6 143.9,270.6 151.0,270.5 153.3,270.4 155.7,270.4 158.0,270.2 162.7,270.2 165.1,270.0 172.2,269.8 181.6,269.7 184.0,269.5 186.3,269.4 205.2,269.4 209.9,269.3 221.7,269.3 224.0,269.2 226.4,269.1 235.8,269.1 238.1,268.8 240.5,268.6 242.9,268.0 245.2,267.9 261.7,267.8 268.8,267.8 273.5,267.7 275.9,267.7 278.2,267.4 280.6,267.4 282.9,267.3 285.3,267.2 287.6,267.1 297.1,266.8 301.8,266.8 311.2,266.7 313.6,266.5 315.9,266.4 318.3,266.3 323.0,266.3 325.3,265.3 327.7,264.4 330.0,264.1 332.4,263.8 334.8,263.7 337.1,263.5 339.5,263.2 341.8,262.9 344.2,262.8 346.5,262.7 351.3,262.5 353.6,262.2 356.0,261.8 358.3,261.4 360.7,261.2 365.4,261.1 370.1,261.0 372.5,260.7 374.8,260.5 377.2,259.8 379.5,259.4 381.9,259.0 384.2,258.6 386.6,258.2 389.0,257.8 391.3,257.3 393.7,256.8 396.0,256.3 398.4,255.9 400.7,255.6 403.1,255.3 405.4,254.9 407.8,254.7 410.2,254.5 412.5,254.2 414.9,254.1 417.2,254.0 421.9,254.0 424.3,253.0 426.7,252.4 429.0,252.2 431.4,252.2 436.1,252.1 438.4,251.9 447.9,251.9 452.6,251.8 459.6,251.8 462.0,250.7 464.4,249.6 466.7,249.3 469.1,248.5 471.4,247.8 473.8,247.4 476.1,247.1 478.5,246.7 480.9,246.5 483.2,246.4 485.6,246.2 487.9,246.1 502.1,245.4 504.4,244.4 506.8,244.3 509.1,244.2 511.5,244.1 528.0,244.1 549.2,243.1 551.5,242.3 553.9,241.4 556.3,240.1 558.6,239.8 561.0,239.4 563.3,238.6 565.7,238.1 568.0,236.8 570.4,234.9 572.7,233.0 575.1,230.8 577.5,228.6 579.8,226.6 582.2,225.3 584.5,223.9 586.9,221.7 589.2,219.8 591.6,218.6 594.0,217.3 596.3,215.5 598.7,214.4 601.0,213.2 603.4,212.2 605.7,211.5 608.1,210.5 610.4,209.8 612.8,209.2 615.2,208.6 617.5,206.9 619.9,205.5 622.2,204.8 624.6,204.5 626.9,204.1 629.3,203.4 631.7,202.8 634.0,201.6 636.4,200.9 638.7,200.2 641.1,200.2 643.4,199.9 645.8,199.3 648.1,198.0 650.5,195.7 652.9,193.4 655.2,191.1 657.6,189.2 659.9,186.9 662.3,184.6 664.6,182.1 667.0,179.9 669.4,178.3 671.7,177.0 674.1,175.5 676.4,174.1 678.8,173.2 681.1,172.0 683.5,171.2 685.9,169.9 688.2,168.3 690.6,166.3 692.9,164.6 695.3,163.1 697.6,162.2 700.0,161.3 702.3,160.5 704.7,159.5 707.1,157.9 709.4,156.5 711.8,154.9 714.1,153.2 716.5,151.7 718.8,150.6 721.2,150.1 723.6,149.4 725.9,148.8 728.3,148.7 730.6,148.6 733.0,148.3 735.3,148.1 737.7,148.1 740.0,147.8 742.4,147.7 749.5,147.7 751.8,147.6 754.2,147.4 756.5,145.4 758.9,143.7 761.3,142.3 763.6,140.6 766.0,139.1 768.3,137.7 770.7,136.1 773.0,134.7 775.4,133.1 777.7,131.7 780.1,130.2 782.5,128.8 784.8,127.4 787.2,126.0 789.5,124.6 791.9,123.4 794.2,122.1 796.6,120.7 799.0,119.4 801.3,118.2 803.7,116.9 806.0,116.0 808.4,115.2 810.7,114.3 813.1,113.1 815.4,112.0 817.8,111.0 820.2,109.7 822.5,108.6 824.9,107.6 827.2,106.4 829.6,105.3 831.9,104.2 834.3,103.2 836.7,101.9 839.0,101.0 841.4,99.8 843.7,98.9 846.1,98.0 848.4,96.9 850.8,95.9 853.1,95.0 855.5,94.3 857.9,93.6 860.2,93.1 862.6,93.0 864.9,92.0 867.3,91.1 869.6,90.1 872.0,90.0" fill="none" stroke="#38bdf8" stroke-width="2.5" stroke-linejoin="round" stroke-linecap="round"/>
<circle cx="872.0" cy="90.0" r="4" fill="#0ea5e9"/>
<text x="866.0" y="80.0" text-anchor="end" font-family="Inter, system-ui, sans-serif" font-size="13" font-weight="700" fill="#334155">3830</text>
<text x="52.0" y="294" text-anchor="middle" font-family="Inter, system-ui, sans-serif" font-size="11" fill="#94a3b8">Jun 10 05:00</text>
<text x="577.5" y="294" text-anchor="middle" font-family="Inter, system-ui, sans-serif" font-size="11" fill="#94a3b8">Jun 19 12:00</text>
<text x="872.0" y="294" text-anchor="middle" font-family="Inter, system-ui, sans-serif" font-size="11" fill="#94a3b8">Jun 24 17:00</text>
</svg>
