<svg xmlns="http://www.w3.org/2000/svg" width="900" height="320" viewBox="0 0 900 320" role="img" aria-labelledby="title desc">
<title id="title">unsorry proofs over time</title>
<desc id="desc">Cumulative kernel-verified proofs over time, by the hour each proof was merged.</desc>
<rect width="900" height="100%" rx="18" fill="#ffffff"/>
<rect x="0.5" y="0.5" width="899" height="319" rx="18" fill="none" stroke="#e2e8f0"/>
<text x="32" y="44" font-family="Inter, system-ui, sans-serif" font-size="28" font-weight="700" fill="#334155">unsorry — Proofs Over Time</text>
<text x="32" y="72" font-family="Inter, system-ui, sans-serif" font-size="13" fill="#64748b">3354 cumulative kernel-verified proofs · merged, hourly</text>
<line x1="52" y1="272.0" x2="872" y2="272.0" stroke="#f1f5f9"/>
<text x="44" y="276.0" text-anchor="end" font-family="Inter, system-ui, sans-serif" font-size="11" fill="#94a3b8">0</text>
<line x1="52" y1="226.5" x2="872" y2="226.5" stroke="#f1f5f9"/>
<text x="44" y="230.5" text-anchor="end" font-family="Inter, system-ui, sans-serif" font-size="11" fill="#94a3b8">838</text>
<line x1="52" y1="181.0" x2="872" y2="181.0" stroke="#f1f5f9"/>
<text x="44" y="185.0" text-anchor="end" font-family="Inter, system-ui, sans-serif" font-size="11" fill="#94a3b8">1677</text>
<line x1="52" y1="135.5" x2="872" y2="135.5" stroke="#f1f5f9"/>
<text x="44" y="139.5" text-anchor="end" font-family="Inter, system-ui, sans-serif" font-size="11" fill="#94a3b8">2516</text>
<line x1="52" y1="90.0" x2="872" y2="90.0" stroke="#f1f5f9"/>
<text x="44" y="94.0" text-anchor="end" font-family="Inter, system-ui, sans-serif" font-size="11" fill="#94a3b8">3354</text>
<polygon points="52.0,272.0 52.0,271.9 54.5,271.8 84.9,271.3 87.4,271.1 90.0,271.1 97.6,271.0 112.7,271.0 145.6,270.9 148.2,270.4 150.7,270.4 158.3,270.3 160.8,270.2 163.4,270.2 165.9,270.0 171.0,269.9 173.5,269.7 181.1,269.4 191.2,269.3 193.7,269.2 196.3,269.1 216.5,269.0 221.6,269.0 234.2,268.9 236.8,268.9 239.3,268.7 249.4,268.7 251.9,268.4 254.5,268.1 257.0,267.4 259.5,267.3 277.2,267.2 284.8,267.2 289.9,267.1 292.4,267.1 295.0,266.8 297.5,266.7 300.0,266.7 302.6,266.5 305.1,266.4 315.2,266.1 320.3,266.0 330.4,266.0 332.9,265.7 335.5,265.7 338.0,265.5 343.0,265.5 345.6,264.4 348.1,263.3 350.6,262.9 353.2,262.7 355.7,262.6 358.2,262.3 360.8,261.9 363.3,261.6 365.8,261.5 368.4,261.4 373.4,261.2 376.0,260.8 378.5,260.3 381.0,259.9 383.5,259.6 388.6,259.5 393.7,259.5 396.2,259.1 398.7,258.8 401.3,258.1 403.8,257.6 406.3,257.2 408.9,256.8 411.4,256.3 413.9,255.8 416.4,255.2 419.0,254.6 421.5,254.1 424.0,253.6 426.6,253.3 429.1,252.9 431.6,252.5 434.2,252.2 436.7,252.0 439.2,251.7 441.8,251.6 444.3,251.5 449.3,251.4 451.9,250.3 454.4,249.6 456.9,249.4 459.5,249.4 464.5,249.3 467.1,249.1 477.2,249.0 482.2,248.9 489.8,248.9 492.4,247.6 494.9,246.4 497.4,246.1 500.0,245.1 502.5,244.4 505.0,243.9 507.6,243.6 510.1,243.1 512.6,242.9 515.1,242.8 517.7,242.6 520.2,242.5 535.4,241.6 537.9,240.5 540.5,240.4 543.0,240.2 545.5,240.1 563.2,240.1 586.0,239.0 588.5,238.1 591.1,237.1 593.6,235.5 596.1,235.3 598.7,234.8 601.2,233.9 603.7,233.3 606.3,231.8 608.8,229.6 611.3,227.5 613.9,225.0 616.4,222.4 618.9,220.1 621.4,218.7 624.0,217.0 626.5,214.5 629.0,212.4 631.6,211.0 634.1,209.5 636.6,207.5 639.2,206.2 641.7,204.9 644.2,203.7 646.8,202.9 649.3,201.7 651.8,201.0 654.3,200.3 656.9,199.6 659.4,197.7 661.9,196.1 664.5,195.2 667.0,194.9 669.5,194.5 672.1,193.6 674.6,192.9 677.1,191.6 679.7,190.8 682.2,190.1 684.7,190.0 687.2,189.6 689.8,189.0 692.3,187.5 694.8,184.9 697.4,182.2 699.9,179.6 702.4,177.4 705.0,174.9 707.5,172.2 710.0,169.4 712.6,166.8 715.1,165.0 717.6,163.5 720.1,161.8 722.7,160.2 725.2,159.1 727.7,157.8 730.3,156.9 732.8,155.4 735.3,153.5 737.9,151.3 740.4,149.4 742.9,147.7 745.5,146.6 748.0,145.6 750.5,144.6 753.0,143.6 755.6,141.7 758.1,140.1 760.6,138.2 763.2,136.3 765.7,134.7 768.2,133.4 770.8,132.8 773.3,132.1 775.8,131.3 778.4,131.2 780.9,131.1 783.4,130.7 786.0,130.5 788.5,130.5 791.0,130.2 793.5,130.1 801.1,130.0 803.7,130.0 806.2,129.7 808.7,127.4 811.3,125.5 813.8,123.9 816.3,122.0 818.9,120.3 821.4,118.6 823.9,116.8 826.4,115.2 829.0,113.4 831.5,111.8 834.0,110.1 836.6,108.4 839.1,106.9 841.6,105.2 844.2,103.7 846.7,102.3 849.2,100.8 851.8,99.3 854.3,97.8 856.8,96.3 859.3,94.9 861.9,93.9 864.4,92.9 866.9,92.0 869.5,90.5 872.0,90.0 872.0,272.0" fill="#e0f2fe" opacity="0.55"/>
<polyline points="52.0,271.9 54.5,271.8 84.9,271.3 87.4,271.1 90.0,271.1 97.6,271.0 112.7,271.0 145.6,270.9 148.2,270.4 150.7,270.4 158.3,270.3 160.8,270.2 163.4,270.2 165.9,270.0 171.0,269.9 173.5,269.7 181.1,269.4 191.2,269.3 193.7,269.2 196.3,269.1 216.5,269.0 221.6,269.0 234.2,268.9 236.8,268.9 239.3,268.7 249.4,268.7 251.9,268.4 254.5,268.1 257.0,267.4 259.5,267.3 277.2,267.2 284.8,267.2 289.9,267.1 292.4,267.1 295.0,266.8 297.5,266.7 300.0,266.7 302.6,266.5 305.1,266.4 315.2,266.1 320.3,266.0 330.4,266.0 332.9,265.7 335.5,265.7 338.0,265.5 343.0,265.5 345.6,264.4 348.1,263.3 350.6,262.9 353.2,262.7 355.7,262.6 358.2,262.3 360.8,261.9 363.3,261.6 365.8,261.5 368.4,261.4 373.4,261.2 376.0,260.8 378.5,260.3 381.0,259.9 383.5,259.6 388.6,259.5 393.7,259.5 396.2,259.1 398.7,258.8 401.3,258.1 403.8,257.6 406.3,257.2 408.9,256.8 411.4,256.3 413.9,255.8 416.4,255.2 419.0,254.6 421.5,254.1 424.0,253.6 426.6,253.3 429.1,252.9 431.6,252.5 434.2,252.2 436.7,252.0 439.2,251.7 441.8,251.6 444.3,251.5 449.3,251.4 451.9,250.3 454.4,249.6 456.9,249.4 459.5,249.4 464.5,249.3 467.1,249.1 477.2,249.0 482.2,248.9 489.8,248.9 492.4,247.6 494.9,246.4 497.4,246.1 500.0,245.1 502.5,244.4 505.0,243.9 507.6,243.6 510.1,243.1 512.6,242.9 515.1,242.8 517.7,242.6 520.2,242.5 535.4,241.6 537.9,240.5 540.5,240.4 543.0,240.2 545.5,240.1 563.2,240.1 586.0,239.0 588.5,238.1 591.1,237.1 593.6,235.5 596.1,235.3 598.7,234.8 601.2,233.9 603.7,233.3 606.3,231.8 608.8,229.6 611.3,227.5 613.9,225.0 616.4,222.4 618.9,220.1 621.4,218.7 624.0,217.0 626.5,214.5 629.0,212.4 631.6,211.0 634.1,209.5 636.6,207.5 639.2,206.2 641.7,204.9 644.2,203.7 646.8,202.9 649.3,201.7 651.8,201.0 654.3,200.3 656.9,199.6 659.4,197.7 661.9,196.1 664.5,195.2 667.0,194.9 669.5,194.5 672.1,193.6 674.6,192.9 677.1,191.6 679.7,190.8 682.2,190.1 684.7,190.0 687.2,189.6 689.8,189.0 692.3,187.5 694.8,184.9 697.4,182.2 699.9,179.6 702.4,177.4 705.0,174.9 707.5,172.2 710.0,169.4 712.6,166.8 715.1,165.0 717.6,163.5 720.1,161.8 722.7,160.2 725.2,159.1 727.7,157.8 730.3,156.9 732.8,155.4 735.3,153.5 737.9,151.3 740.4,149.4 742.9,147.7 745.5,146.6 748.0,145.6 750.5,144.6 753.0,143.6 755.6,141.7 758.1,140.1 760.6,138.2 763.2,136.3 765.7,134.7 768.2,133.4 770.8,132.8 773.3,132.1 775.8,131.3 778.4,131.2 780.9,131.1 783.4,130.7 786.0,130.5 788.5,130.5 791.0,130.2 793.5,130.1 801.1,130.0 803.7,130.0 806.2,129.7 808.7,127.4 811.3,125.5 813.8,123.9 816.3,122.0 818.9,120.3 821.4,118.6 823.9,116.8 826.4,115.2 829.0,113.4 831.5,111.8 834.0,110.1 836.6,108.4 839.1,106.9 841.6,105.2 844.2,103.7 846.7,102.3 849.2,100.8 851.8,99.3 854.3,97.8 856.8,96.3 859.3,94.9 861.9,93.9 864.4,92.9 866.9,92.0 869.5,90.5 872.0,90.0" fill="none" stroke="#38bdf8" stroke-width="2.5" stroke-linejoin="round" stroke-linecap="round"/>
<circle cx="872.0" cy="90.0" r="4" fill="#0ea5e9"/>
<text x="866.0" y="80.0" text-anchor="end" font-family="Inter, system-ui, sans-serif" font-size="13" font-weight="700" fill="#334155">3354</text>
<text x="52.0" y="294" text-anchor="middle" font-family="Inter, system-ui, sans-serif" font-size="11" fill="#94a3b8">Jun 10 05:00</text>
<text x="586.0" y="294" text-anchor="middle" font-family="Inter, system-ui, sans-serif" font-size="11" fill="#94a3b8">Jun 19 00:00</text>
<text x="872.0" y="294" text-anchor="middle" font-family="Inter, system-ui, sans-serif" font-size="11" fill="#94a3b8">Jun 23 17:00</text>
</svg>
