<svg xmlns="http://www.w3.org/2000/svg" width="900" height="320" viewBox="0 0 900 320" role="img" aria-labelledby="title desc">
<title id="title">unsorry proofs over time</title>
<desc id="desc">Cumulative kernel-verified proofs over time, by the hour each proof was merged.</desc>
<rect width="900" height="100%" rx="18" fill="#ffffff"/>
<rect x="0.5" y="0.5" width="899" height="319" rx="18" fill="none" stroke="#e2e8f0"/>
<text x="32" y="44" font-family="Inter, system-ui, sans-serif" font-size="28" font-weight="700" fill="#334155">unsorry — Proofs Over Time</text>
<text x="32" y="72" font-family="Inter, system-ui, sans-serif" font-size="13" fill="#64748b">3111 cumulative kernel-verified proofs · merged, hourly</text>
<line x1="52" y1="272.0" x2="872" y2="272.0" stroke="#f1f5f9"/>
<text x="44" y="276.0" text-anchor="end" font-family="Inter, system-ui, sans-serif" font-size="11" fill="#94a3b8">0</text>
<line x1="52" y1="226.5" x2="872" y2="226.5" stroke="#f1f5f9"/>
<text x="44" y="230.5" text-anchor="end" font-family="Inter, system-ui, sans-serif" font-size="11" fill="#94a3b8">778</text>
<line x1="52" y1="181.0" x2="872" y2="181.0" stroke="#f1f5f9"/>
<text x="44" y="185.0" text-anchor="end" font-family="Inter, system-ui, sans-serif" font-size="11" fill="#94a3b8">1556</text>
<line x1="52" y1="135.5" x2="872" y2="135.5" stroke="#f1f5f9"/>
<text x="44" y="139.5" text-anchor="end" font-family="Inter, system-ui, sans-serif" font-size="11" fill="#94a3b8">2333</text>
<line x1="52" y1="90.0" x2="872" y2="90.0" stroke="#f1f5f9"/>
<text x="44" y="94.0" text-anchor="end" font-family="Inter, system-ui, sans-serif" font-size="11" fill="#94a3b8">3111</text>
<polygon points="52.0,272.0 52.0,271.9 54.6,271.8 85.9,271.2 88.6,271.1 91.2,271.0 99.0,270.9 114.7,270.9 148.6,270.8 151.2,270.3 153.8,270.2 161.7,270.1 164.3,270.1 166.9,270.0 169.5,269.8 174.7,269.8 177.4,269.5 185.2,269.3 195.6,269.1 198.2,269.0 200.9,268.8 221.7,268.8 227.0,268.7 240.0,268.7 242.6,268.6 245.2,268.5 255.7,268.4 258.3,268.1 260.9,267.8 263.5,267.0 266.1,266.9 284.4,266.9 292.3,266.8 297.5,266.7 300.1,266.7 302.7,266.4 305.3,266.3 307.9,266.3 310.5,266.1 313.1,265.9 323.6,265.6 328.8,265.6 339.3,265.5 341.9,265.2 344.5,265.2 347.1,265.0 352.3,265.0 354.9,263.8 357.5,262.6 360.2,262.2 362.8,261.9 365.4,261.8 368.0,261.5 370.6,261.1 373.2,260.8 375.8,260.7 378.4,260.5 383.7,260.4 386.3,259.9 388.9,259.4 391.5,259.0 394.1,258.7 399.3,258.5 404.5,258.5 407.2,258.1 409.8,257.8 412.4,257.0 415.0,256.5 417.6,256.0 420.2,255.6 422.8,255.0 425.4,254.5 428.1,253.9 430.7,253.3 433.3,252.7 435.9,252.2 438.5,251.8 441.1,251.4 443.7,250.9 446.3,250.7 448.9,250.4 451.6,250.1 454.2,250.0 456.8,249.9 462.0,249.8 464.6,248.7 467.2,247.8 469.8,247.7 472.4,247.6 477.7,247.5 480.3,247.3 490.7,247.3 495.9,247.1 503.8,247.1 506.4,245.7 509.0,244.4 511.6,244.1 514.2,243.0 516.8,242.2 519.5,241.7 522.1,241.4 524.7,240.9 527.3,240.6 529.9,240.5 532.5,240.3 535.1,240.2 550.8,239.2 553.4,238.1 556.0,237.9 558.6,237.7 561.2,237.7 579.5,237.6 603.0,236.4 605.6,235.4 608.2,234.3 610.9,232.7 613.5,232.4 616.1,231.9 618.7,230.9 621.3,230.2 623.9,228.6 626.5,226.3 629.1,224.0 631.7,221.3 634.4,218.5 637.0,216.1 639.6,214.6 642.2,212.7 644.8,210.0 647.4,207.8 650.0,206.2 652.6,204.7 655.2,202.4 657.9,201.0 660.5,199.6 663.1,198.4 665.7,197.5 668.3,196.2 670.9,195.5 673.5,194.7 676.1,194.0 678.8,191.9 681.4,190.2 684.0,189.2 686.6,188.9 689.2,188.4 691.8,187.5 694.4,186.8 697.0,185.4 699.6,184.5 702.3,183.7 704.9,183.5 707.5,183.2 710.1,182.6 712.7,180.9 715.3,178.1 717.9,175.2 720.5,172.4 723.1,170.0 725.8,167.3 728.4,164.4 731.0,161.4 733.6,158.6 736.2,156.6 738.8,155.1 741.4,153.2 744.0,151.5 746.6,150.3 749.3,148.9 751.9,147.9 754.5,146.3 757.1,144.3 759.7,141.8 762.3,139.8 764.9,138.0 767.5,136.8 770.2,135.7 772.8,134.7 775.4,133.5 778.0,131.5 780.6,129.8 783.2,127.8 785.8,125.7 788.4,123.9 791.0,122.5 793.7,121.9 796.3,121.1 798.9,120.3 801.5,120.2 804.1,120.1 806.7,119.7 809.3,119.5 811.9,119.4 814.5,119.1 817.2,119.0 825.0,119.0 827.6,118.9 830.2,118.5 832.8,116.2 835.4,114.1 838.1,112.3 840.7,110.2 843.3,108.4 845.9,106.6 848.5,104.7 851.1,102.9 853.7,101.0 856.3,99.2 858.9,97.4 861.6,95.7 864.2,94.0 866.8,92.2 869.4,90.5 872.0,90.0 872.0,272.0" fill="#e0f2fe" opacity="0.55"/>
<polyline points="52.0,271.9 54.6,271.8 85.9,271.2 88.6,271.1 91.2,271.0 99.0,270.9 114.7,270.9 148.6,270.8 151.2,270.3 153.8,270.2 161.7,270.1 164.3,270.1 166.9,270.0 169.5,269.8 174.7,269.8 177.4,269.5 185.2,269.3 195.6,269.1 198.2,269.0 200.9,268.8 221.7,268.8 227.0,268.7 240.0,268.7 242.6,268.6 245.2,268.5 255.7,268.4 258.3,268.1 260.9,267.8 263.5,267.0 266.1,266.9 284.4,266.9 292.3,266.8 297.5,266.7 300.1,266.7 302.7,266.4 305.3,266.3 307.9,266.3 310.5,266.1 313.1,265.9 323.6,265.6 328.8,265.6 339.3,265.5 341.9,265.2 344.5,265.2 347.1,265.0 352.3,265.0 354.9,263.8 357.5,262.6 360.2,262.2 362.8,261.9 365.4,261.8 368.0,261.5 370.6,261.1 373.2,260.8 375.8,260.7 378.4,260.5 383.7,260.4 386.3,259.9 388.9,259.4 391.5,259.0 394.1,258.7 399.3,258.5 404.5,258.5 407.2,258.1 409.8,257.8 412.4,257.0 415.0,256.5 417.6,256.0 420.2,255.6 422.8,255.0 425.4,254.5 428.1,253.9 430.7,253.3 433.3,252.7 435.9,252.2 438.5,251.8 441.1,251.4 443.7,250.9 446.3,250.7 448.9,250.4 451.6,250.1 454.2,250.0 456.8,249.9 462.0,249.8 464.6,248.7 467.2,247.8 469.8,247.7 472.4,247.6 477.7,247.5 480.3,247.3 490.7,247.3 495.9,247.1 503.8,247.1 506.4,245.7 509.0,244.4 511.6,244.1 514.2,243.0 516.8,242.2 519.5,241.7 522.1,241.4 524.7,240.9 527.3,240.6 529.9,240.5 532.5,240.3 535.1,240.2 550.8,239.2 553.4,238.1 556.0,237.9 558.6,237.7 561.2,237.7 579.5,237.6 603.0,236.4 605.6,235.4 608.2,234.3 610.9,232.7 613.5,232.4 616.1,231.9 618.7,230.9 621.3,230.2 623.9,228.6 626.5,226.3 629.1,224.0 631.7,221.3 634.4,218.5 637.0,216.1 639.6,214.6 642.2,212.7 644.8,210.0 647.4,207.8 650.0,206.2 652.6,204.7 655.2,202.4 657.9,201.0 660.5,199.6 663.1,198.4 665.7,197.5 668.3,196.2 670.9,195.5 673.5,194.7 676.1,194.0 678.8,191.9 681.4,190.2 684.0,189.2 686.6,188.9 689.2,188.4 691.8,187.5 694.4,186.8 697.0,185.4 699.6,184.5 702.3,183.7 704.9,183.5 707.5,183.2 710.1,182.6 712.7,180.9 715.3,178.1 717.9,175.2 720.5,172.4 723.1,170.0 725.8,167.3 728.4,164.4 731.0,161.4 733.6,158.6 736.2,156.6 738.8,155.1 741.4,153.2 744.0,151.5 746.6,150.3 749.3,148.9 751.9,147.9 754.5,146.3 757.1,144.3 759.7,141.8 762.3,139.8 764.9,138.0 767.5,136.8 770.2,135.7 772.8,134.7 775.4,133.5 778.0,131.5 780.6,129.8 783.2,127.8 785.8,125.7 788.4,123.9 791.0,122.5 793.7,121.9 796.3,121.1 798.9,120.3 801.5,120.2 804.1,120.1 806.7,119.7 809.3,119.5 811.9,119.4 814.5,119.1 817.2,119.0 825.0,119.0 827.6,118.9 830.2,118.5 832.8,116.2 835.4,114.1 838.1,112.3 840.7,110.2 843.3,108.4 845.9,106.6 848.5,104.7 851.1,102.9 853.7,101.0 856.3,99.2 858.9,97.4 861.6,95.7 864.2,94.0 866.8,92.2 869.4,90.5 872.0,90.0" fill="none" stroke="#38bdf8" stroke-width="2.5" stroke-linejoin="round" stroke-linecap="round"/>
<circle cx="872.0" cy="90.0" r="4" fill="#0ea5e9"/>
<text x="866.0" y="80.0" text-anchor="end" font-family="Inter, system-ui, sans-serif" font-size="13" font-weight="700" fill="#334155">3111</text>
<text x="52.0" y="294" text-anchor="middle" font-family="Inter, system-ui, sans-serif" font-size="11" fill="#94a3b8">Jun 10 05:00</text>
<text x="553.4" y="294" text-anchor="middle" font-family="Inter, system-ui, sans-serif" font-size="11" fill="#94a3b8">Jun 18 05:00</text>
<text x="872.0" y="294" text-anchor="middle" font-family="Inter, system-ui, sans-serif" font-size="11" fill="#94a3b8">Jun 23 07:00</text>
</svg>
