<svg xmlns="http://www.w3.org/2000/svg" width="900" height="320" viewBox="0 0 900 320" role="img" aria-labelledby="title desc">
<title id="title">Unsorry proofs over time</title>
<desc id="desc">Cumulative kernel-verified proofs over time, by the hour each proof was merged.</desc>
<rect width="900" height="100%" rx="18" fill="#ffffff"/>
<rect x="0.5" y="0.5" width="899" height="319" rx="18" fill="none" stroke="#e2e8f0"/>
<text x="32" y="44" font-family="Inter, system-ui, sans-serif" font-size="28" font-weight="700" fill="#334155">Unsorry — Proofs Over Time</text>
<text x="32" y="72" font-family="Inter, system-ui, sans-serif" font-size="13" fill="#64748b">2193 cumulative kernel-verified proofs · merged, hourly</text>
<line x1="52" y1="272.0" x2="872" y2="272.0" stroke="#f1f5f9"/>
<text x="44" y="276.0" text-anchor="end" font-family="Inter, system-ui, sans-serif" font-size="11" fill="#94a3b8">0</text>
<line x1="52" y1="226.5" x2="872" y2="226.5" stroke="#f1f5f9"/>
<text x="44" y="230.5" text-anchor="end" font-family="Inter, system-ui, sans-serif" font-size="11" fill="#94a3b8">548</text>
<line x1="52" y1="181.0" x2="872" y2="181.0" stroke="#f1f5f9"/>
<text x="44" y="185.0" text-anchor="end" font-family="Inter, system-ui, sans-serif" font-size="11" fill="#94a3b8">1096</text>
<line x1="52" y1="135.5" x2="872" y2="135.5" stroke="#f1f5f9"/>
<text x="44" y="139.5" text-anchor="end" font-family="Inter, system-ui, sans-serif" font-size="11" fill="#94a3b8">1645</text>
<line x1="52" y1="90.0" x2="872" y2="90.0" stroke="#f1f5f9"/>
<text x="44" y="94.0" text-anchor="end" font-family="Inter, system-ui, sans-serif" font-size="11" fill="#94a3b8">2193</text>
<polygon points="52.0,272.0 52.0,271.9 55.0,271.8 91.3,270.9 94.4,270.7 97.4,270.6 106.5,270.5 124.6,270.4 164.0,270.3 167.0,269.6 170.0,269.5 179.1,269.3 182.1,269.3 185.1,269.2 188.2,268.9 194.2,268.8 197.2,268.4 206.3,268.1 218.4,267.9 221.4,267.7 224.5,267.5 248.7,267.4 254.7,267.4 269.9,267.3 272.9,267.2 275.9,267.0 288.0,266.9 291.0,266.4 294.1,266.0 297.1,264.9 300.1,264.8 321.3,264.7 330.4,264.6 336.4,264.5 339.5,264.4 342.5,264.0 345.5,263.9 348.5,263.9 351.6,263.6 354.6,263.4 366.7,263.0 372.7,262.9 384.8,262.8 387.9,262.4 390.9,262.3 393.9,262.1 400.0,262.0 403.0,260.4 406.0,258.7 409.0,258.1 412.1,257.7 415.1,257.6 418.1,257.1 421.2,256.6 424.2,256.1 427.2,255.9 430.2,255.7 436.3,255.5 439.3,254.8 442.3,254.2 445.4,253.5 448.4,253.1 454.4,252.9 460.5,252.8 463.5,252.2 466.5,251.8 469.6,250.7 472.6,250.0 475.6,249.3 478.6,248.7 481.7,247.9 484.7,247.2 487.7,246.4 490.7,245.4 493.8,244.6 496.8,243.9 499.8,243.4 502.8,242.8 505.9,242.1 508.9,241.8 511.9,241.4 515.0,241.0 518.0,240.8 521.0,240.6 527.1,240.5 530.1,238.9 533.1,237.7 536.1,237.5 539.2,237.4 545.2,237.2 548.2,237.0 560.3,236.9 566.4,236.7 575.5,236.6 578.5,234.7 581.5,232.9 584.5,232.4 587.6,230.9 590.6,229.8 593.6,229.0 596.6,228.6 599.7,227.8 602.7,227.5 605.7,227.4 608.8,227.0 611.8,226.9 629.9,225.5 633.0,223.9 636.0,223.6 639.0,223.4 642.0,223.3 663.2,223.2 690.5,221.5 693.5,220.1 696.5,218.6 699.5,216.2 702.6,215.8 705.6,215.1 708.6,213.7 711.6,212.7 714.7,210.5 717.7,207.2 720.7,203.9 723.7,200.1 726.8,196.1 729.8,192.7 732.8,190.5 735.8,187.9 738.9,184.1 741.9,180.9 744.9,178.7 747.9,176.5 751.0,173.3 754.0,171.3 757.0,169.3 760.0,167.6 763.1,166.3 766.1,164.5 769.1,163.4 772.1,162.3 775.2,161.3 778.2,158.3 781.2,155.9 784.3,154.6 787.3,154.2 790.3,153.4 793.3,152.2 796.4,151.1 799.4,149.1 802.4,147.8 805.4,146.7 808.5,146.5 811.5,146.0 814.5,145.1 817.5,142.7 820.6,138.8 823.6,134.7 826.6,130.7 829.6,127.3 832.7,123.4 835.7,119.3 838.7,115.1 841.7,111.2 844.8,108.3 847.8,106.1 850.8,103.5 853.8,101.0 856.9,99.4 859.9,97.4 862.9,95.9 865.9,93.7 869.0,90.8 872.0,90.0 872.0,272.0" fill="#e0f2fe" opacity="0.55"/>
<polyline points="52.0,271.9 55.0,271.8 91.3,270.9 94.4,270.7 97.4,270.6 106.5,270.5 124.6,270.4 164.0,270.3 167.0,269.6 170.0,269.5 179.1,269.3 182.1,269.3 185.1,269.2 188.2,268.9 194.2,268.8 197.2,268.4 206.3,268.1 218.4,267.9 221.4,267.7 224.5,267.5 248.7,267.4 254.7,267.4 269.9,267.3 272.9,267.2 275.9,267.0 288.0,266.9 291.0,266.4 294.1,266.0 297.1,264.9 300.1,264.8 321.3,264.7 330.4,264.6 336.4,264.5 339.5,264.4 342.5,264.0 345.5,263.9 348.5,263.9 351.6,263.6 354.6,263.4 366.7,263.0 372.7,262.9 384.8,262.8 387.9,262.4 390.9,262.3 393.9,262.1 400.0,262.0 403.0,260.4 406.0,258.7 409.0,258.1 412.1,257.7 415.1,257.6 418.1,257.1 421.2,256.6 424.2,256.1 427.2,255.9 430.2,255.7 436.3,255.5 439.3,254.8 442.3,254.2 445.4,253.5 448.4,253.1 454.4,252.9 460.5,252.8 463.5,252.2 466.5,251.8 469.6,250.7 472.6,250.0 475.6,249.3 478.6,248.7 481.7,247.9 484.7,247.2 487.7,246.4 490.7,245.4 493.8,244.6 496.8,243.9 499.8,243.4 502.8,242.8 505.9,242.1 508.9,241.8 511.9,241.4 515.0,241.0 518.0,240.8 521.0,240.6 527.1,240.5 530.1,238.9 533.1,237.7 536.1,237.5 539.2,237.4 545.2,237.2 548.2,237.0 560.3,236.9 566.4,236.7 575.5,236.6 578.5,234.7 581.5,232.9 584.5,232.4 587.6,230.9 590.6,229.8 593.6,229.0 596.6,228.6 599.7,227.8 602.7,227.5 605.7,227.4 608.8,227.0 611.8,226.9 629.9,225.5 633.0,223.9 636.0,223.6 639.0,223.4 642.0,223.3 663.2,223.2 690.5,221.5 693.5,220.1 696.5,218.6 699.5,216.2 702.6,215.8 705.6,215.1 708.6,213.7 711.6,212.7 714.7,210.5 717.7,207.2 720.7,203.9 723.7,200.1 726.8,196.1 729.8,192.7 732.8,190.5 735.8,187.9 738.9,184.1 741.9,180.9 744.9,178.7 747.9,176.5 751.0,173.3 754.0,171.3 757.0,169.3 760.0,167.6 763.1,166.3 766.1,164.5 769.1,163.4 772.1,162.3 775.2,161.3 778.2,158.3 781.2,155.9 784.3,154.6 787.3,154.2 790.3,153.4 793.3,152.2 796.4,151.1 799.4,149.1 802.4,147.8 805.4,146.7 808.5,146.5 811.5,146.0 814.5,145.1 817.5,142.7 820.6,138.8 823.6,134.7 826.6,130.7 829.6,127.3 832.7,123.4 835.7,119.3 838.7,115.1 841.7,111.2 844.8,108.3 847.8,106.1 850.8,103.5 853.8,101.0 856.9,99.4 859.9,97.4 862.9,95.9 865.9,93.7 869.0,90.8 872.0,90.0" fill="none" stroke="#38bdf8" stroke-width="2.5" stroke-linejoin="round" stroke-linecap="round"/>
<circle cx="872.0" cy="90.0" r="4" fill="#0ea5e9"/>
<text x="866.0" y="80.0" text-anchor="end" font-family="Inter, system-ui, sans-serif" font-size="13" font-weight="700" fill="#334155">2193</text>
<text x="52.0" y="294" text-anchor="middle" font-family="Inter, system-ui, sans-serif" font-size="11" fill="#94a3b8">Jun 10 05:00</text>
<text x="536.1" y="294" text-anchor="middle" font-family="Inter, system-ui, sans-serif" font-size="11" fill="#94a3b8">Jun 16 21:00</text>
<text x="872.0" y="294" text-anchor="middle" font-family="Inter, system-ui, sans-serif" font-size="11" fill="#94a3b8">Jun 21 12:00</text>
</svg>
