<svg xmlns="http://www.w3.org/2000/svg" width="900" height="320" viewBox="0 0 900 320" role="img" aria-labelledby="title desc">
<title id="title">Unsorry proofs over time</title>
<desc id="desc">Cumulative kernel-verified proofs over time, by the hour each proof was merged.</desc>
<rect width="900" height="100%" rx="18" fill="#ffffff"/>
<rect x="0.5" y="0.5" width="899" height="319" rx="18" fill="none" stroke="#e2e8f0"/>
<text x="32" y="44" font-family="Inter, system-ui, sans-serif" font-size="28" font-weight="700" fill="#334155">Unsorry — Proofs Over Time</text>
<text x="32" y="72" font-family="Inter, system-ui, sans-serif" font-size="13" fill="#64748b">1995 cumulative kernel-verified proofs · merged, hourly</text>
<line x1="52" y1="272.0" x2="872" y2="272.0" stroke="#f1f5f9"/>
<text x="44" y="276.0" text-anchor="end" font-family="Inter, system-ui, sans-serif" font-size="11" fill="#94a3b8">0</text>
<line x1="52" y1="226.5" x2="872" y2="226.5" stroke="#f1f5f9"/>
<text x="44" y="230.5" text-anchor="end" font-family="Inter, system-ui, sans-serif" font-size="11" fill="#94a3b8">499</text>
<line x1="52" y1="181.0" x2="872" y2="181.0" stroke="#f1f5f9"/>
<text x="44" y="185.0" text-anchor="end" font-family="Inter, system-ui, sans-serif" font-size="11" fill="#94a3b8">998</text>
<line x1="52" y1="135.5" x2="872" y2="135.5" stroke="#f1f5f9"/>
<text x="44" y="139.5" text-anchor="end" font-family="Inter, system-ui, sans-serif" font-size="11" fill="#94a3b8">1496</text>
<line x1="52" y1="90.0" x2="872" y2="90.0" stroke="#f1f5f9"/>
<text x="44" y="94.0" text-anchor="end" font-family="Inter, system-ui, sans-serif" font-size="11" fill="#94a3b8">1995</text>
<polygon points="52.0,272.0 52.0,271.9 55.1,271.7 92.5,270.8 95.7,270.5 98.8,270.4 108.1,270.4 126.8,270.3 167.4,270.2 170.5,269.4 173.6,269.3 183.0,269.1 186.1,269.0 189.2,268.9 192.3,268.6 198.5,268.5 201.7,268.1 211.0,267.7 223.5,267.5 226.6,267.3 229.7,267.1 254.7,267.0 260.9,266.9 276.5,266.8 279.6,266.7 282.7,266.5 295.2,266.4 298.3,265.9 301.4,265.4 304.5,264.2 307.7,264.1 329.5,264.0 338.8,263.9 345.1,263.8 348.2,263.7 351.3,263.2 354.4,263.2 357.6,263.1 360.7,262.8 363.8,262.5 376.3,262.1 382.5,262.0 395.0,261.9 398.1,261.4 401.2,261.3 404.3,261.1 410.6,261.1 413.7,259.2 416.8,257.4 419.9,256.8 423.0,256.3 426.1,256.1 429.3,255.7 432.4,255.0 435.5,254.6 438.6,254.3 441.7,254.1 448.0,253.8 451.1,253.1 454.2,252.4 457.3,251.7 460.4,251.2 466.7,251.0 472.9,250.9 476.0,250.3 479.1,249.8 482.3,248.6 485.4,247.8 488.5,247.1 491.6,246.4 494.7,245.5 497.9,244.7 501.0,243.8 504.1,242.8 507.2,241.9 510.3,241.1 513.4,240.5 516.6,239.9 519.7,239.2 522.8,238.8 525.9,238.3 529.0,237.9 532.2,237.7 535.3,237.5 541.5,237.4 544.6,235.6 547.7,234.3 550.9,234.0 554.0,234.0 560.2,233.8 563.3,233.5 575.8,233.4 582.0,233.2 591.4,233.1 594.5,231.0 597.6,229.0 600.7,228.5 603.9,226.8 607.0,225.6 610.1,224.7 613.2,224.3 616.3,223.5 619.5,223.1 622.6,222.9 625.7,222.6 628.8,222.4 647.5,220.9 650.6,219.1 653.7,218.8 656.9,218.5 660.0,218.4 681.8,218.4 709.9,216.4 713.0,215.0 716.1,213.2 719.2,210.7 722.3,210.2 725.5,209.4 728.6,208.0 731.7,206.9 734.8,204.4 737.9,200.8 741.0,197.2 744.2,193.0 747.3,188.6 750.4,184.8 753.5,182.4 756.6,179.6 759.8,175.4 762.9,171.8 766.0,169.5 769.1,167.0 772.2,163.5 775.3,161.3 778.5,159.2 781.6,157.2 784.7,155.8 787.8,153.9 790.9,152.7 794.1,151.4 797.2,150.3 800.3,147.0 803.4,144.4 806.5,142.9 809.6,142.5 812.8,141.6 815.9,140.3 819.0,139.1 822.1,136.9 825.2,135.5 828.3,134.2 831.5,134.1 834.6,133.5 837.7,132.5 840.8,129.9 843.9,125.6 847.1,121.1 850.2,116.6 853.3,113.0 856.4,108.7 859.5,104.1 862.6,99.5 865.8,95.2 868.9,92.1 872.0,90.0 872.0,272.0" fill="#e0f2fe" opacity="0.55"/>
<polyline points="52.0,271.9 55.1,271.7 92.5,270.8 95.7,270.5 98.8,270.4 108.1,270.4 126.8,270.3 167.4,270.2 170.5,269.4 173.6,269.3 183.0,269.1 186.1,269.0 189.2,268.9 192.3,268.6 198.5,268.5 201.7,268.1 211.0,267.7 223.5,267.5 226.6,267.3 229.7,267.1 254.7,267.0 260.9,266.9 276.5,266.8 279.6,266.7 282.7,266.5 295.2,266.4 298.3,265.9 301.4,265.4 304.5,264.2 307.7,264.1 329.5,264.0 338.8,263.9 345.1,263.8 348.2,263.7 351.3,263.2 354.4,263.2 357.6,263.1 360.7,262.8 363.8,262.5 376.3,262.1 382.5,262.0 395.0,261.9 398.1,261.4 401.2,261.3 404.3,261.1 410.6,261.1 413.7,259.2 416.8,257.4 419.9,256.8 423.0,256.3 426.1,256.1 429.3,255.7 432.4,255.0 435.5,254.6 438.6,254.3 441.7,254.1 448.0,253.8 451.1,253.1 454.2,252.4 457.3,251.7 460.4,251.2 466.7,251.0 472.9,250.9 476.0,250.3 479.1,249.8 482.3,248.6 485.4,247.8 488.5,247.1 491.6,246.4 494.7,245.5 497.9,244.7 501.0,243.8 504.1,242.8 507.2,241.9 510.3,241.1 513.4,240.5 516.6,239.9 519.7,239.2 522.8,238.8 525.9,238.3 529.0,237.9 532.2,237.7 535.3,237.5 541.5,237.4 544.6,235.6 547.7,234.3 550.9,234.0 554.0,234.0 560.2,233.8 563.3,233.5 575.8,233.4 582.0,233.2 591.4,233.1 594.5,231.0 597.6,229.0 600.7,228.5 603.9,226.8 607.0,225.6 610.1,224.7 613.2,224.3 616.3,223.5 619.5,223.1 622.6,222.9 625.7,222.6 628.8,222.4 647.5,220.9 650.6,219.1 653.7,218.8 656.9,218.5 660.0,218.4 681.8,218.4 709.9,216.4 713.0,215.0 716.1,213.2 719.2,210.7 722.3,210.2 725.5,209.4 728.6,208.0 731.7,206.9 734.8,204.4 737.9,200.8 741.0,197.2 744.2,193.0 747.3,188.6 750.4,184.8 753.5,182.4 756.6,179.6 759.8,175.4 762.9,171.8 766.0,169.5 769.1,167.0 772.2,163.5 775.3,161.3 778.5,159.2 781.6,157.2 784.7,155.8 787.8,153.9 790.9,152.7 794.1,151.4 797.2,150.3 800.3,147.0 803.4,144.4 806.5,142.9 809.6,142.5 812.8,141.6 815.9,140.3 819.0,139.1 822.1,136.9 825.2,135.5 828.3,134.2 831.5,134.1 834.6,133.5 837.7,132.5 840.8,129.9 843.9,125.6 847.1,121.1 850.2,116.6 853.3,113.0 856.4,108.7 859.5,104.1 862.6,99.5 865.8,95.2 868.9,92.1 872.0,90.0" fill="none" stroke="#38bdf8" stroke-width="2.5" stroke-linejoin="round" stroke-linecap="round"/>
<circle cx="872.0" cy="90.0" r="4" fill="#0ea5e9"/>
<text x="866.0" y="80.0" text-anchor="end" font-family="Inter, system-ui, sans-serif" font-size="13" font-weight="700" fill="#334155">1995</text>
<text x="52.0" y="294" text-anchor="middle" font-family="Inter, system-ui, sans-serif" font-size="11" fill="#94a3b8">Jun 10 05:00</text>
<text x="535.3" y="294" text-anchor="middle" font-family="Inter, system-ui, sans-serif" font-size="11" fill="#94a3b8">Jun 16 16:00</text>
<text x="872.0" y="294" text-anchor="middle" font-family="Inter, system-ui, sans-serif" font-size="11" fill="#94a3b8">Jun 21 04:00</text>
</svg>
