<svg xmlns="http://www.w3.org/2000/svg" width="900" height="320" viewBox="0 0 900 320" role="img" aria-labelledby="title desc">
<title id="title">Unsorry proofs over time</title>
<desc id="desc">Cumulative kernel-verified proofs over time, by the hour each proof was merged.</desc>
<rect width="900" height="100%" rx="18" fill="#ffffff"/>
<rect x="0.5" y="0.5" width="899" height="319" rx="18" fill="none" stroke="#e2e8f0"/>
<text x="32" y="44" font-family="Inter, system-ui, sans-serif" font-size="28" font-weight="700" fill="#334155">Unsorry — Proofs Over Time</text>
<text x="32" y="72" font-family="Inter, system-ui, sans-serif" font-size="13" fill="#64748b">2010 cumulative kernel-verified proofs · merged, hourly</text>
<line x1="52" y1="272.0" x2="872" y2="272.0" stroke="#f1f5f9"/>
<text x="44" y="276.0" text-anchor="end" font-family="Inter, system-ui, sans-serif" font-size="11" fill="#94a3b8">0</text>
<line x1="52" y1="226.5" x2="872" y2="226.5" stroke="#f1f5f9"/>
<text x="44" y="230.5" text-anchor="end" font-family="Inter, system-ui, sans-serif" font-size="11" fill="#94a3b8">502</text>
<line x1="52" y1="181.0" x2="872" y2="181.0" stroke="#f1f5f9"/>
<text x="44" y="185.0" text-anchor="end" font-family="Inter, system-ui, sans-serif" font-size="11" fill="#94a3b8">1005</text>
<line x1="52" y1="135.5" x2="872" y2="135.5" stroke="#f1f5f9"/>
<text x="44" y="139.5" text-anchor="end" font-family="Inter, system-ui, sans-serif" font-size="11" fill="#94a3b8">1508</text>
<line x1="52" y1="90.0" x2="872" y2="90.0" stroke="#f1f5f9"/>
<text x="44" y="94.0" text-anchor="end" font-family="Inter, system-ui, sans-serif" font-size="11" fill="#94a3b8">2010</text>
<polygon points="52.0,272.0 52.0,271.9 55.1,271.7 92.4,270.8 95.5,270.6 98.6,270.5 107.9,270.4 126.5,270.3 166.9,270.2 170.0,269.4 173.1,269.3 182.5,269.1 185.6,269.0 188.7,268.9 191.8,268.6 198.0,268.6 201.1,268.1 210.4,267.7 222.8,267.6 225.9,267.3 229.0,267.1 253.9,267.0 260.1,266.9 275.6,266.8 278.7,266.7 281.8,266.6 294.3,266.5 297.4,265.9 300.5,265.5 303.6,264.3 306.7,264.1 328.4,264.0 337.8,263.9 344.0,263.9 347.1,263.8 350.2,263.3 353.3,263.2 356.4,263.1 359.5,262.9 362.6,262.6 375.0,262.1 381.2,262.0 393.7,261.9 396.8,261.5 399.9,261.4 403.0,261.2 409.2,261.1 412.3,259.3 415.4,257.5 418.5,256.9 421.6,256.4 424.7,256.2 427.8,255.8 430.9,255.2 434.0,254.7 437.2,254.4 440.3,254.3 446.5,254.0 449.6,253.3 452.7,252.5 455.8,251.8 458.9,251.4 465.1,251.2 471.3,251.1 474.4,250.4 477.5,250.0 480.6,248.7 483.7,248.0 486.8,247.3 490.0,246.6 493.1,245.7 496.2,244.9 499.3,244.0 502.4,243.0 505.5,242.1 508.6,241.3 511.7,240.8 514.8,240.1 517.9,239.4 521.0,239.0 524.1,238.6 527.2,238.1 530.3,238.0 533.4,237.8 539.7,237.7 542.8,235.9 545.9,234.6 549.0,234.3 552.1,234.2 558.3,234.1 561.4,233.8 573.8,233.7 580.0,233.5 589.3,233.4 592.5,231.3 595.6,229.4 598.7,228.8 601.8,227.2 604.9,225.9 608.0,225.1 611.1,224.6 614.2,223.8 617.3,223.5 620.4,223.3 623.5,222.9 626.6,222.7 645.3,221.3 648.4,219.5 651.5,219.2 654.6,218.9 657.7,218.8 679.4,218.8 707.4,216.9 710.5,215.4 713.6,213.7 716.7,211.2 719.8,210.7 722.9,209.9 726.0,208.4 729.1,207.3 732.2,204.9 735.3,201.3 738.4,197.8 741.5,193.6 744.7,189.2 747.8,185.4 750.9,183.1 754.0,180.3 757.1,176.1 760.2,172.6 763.3,170.2 766.4,167.8 769.5,164.3 772.6,162.2 775.7,160.0 778.8,158.1 781.9,156.6 785.0,154.7 788.1,153.6 791.2,152.3 794.3,151.2 797.5,148.0 800.6,145.3 803.7,143.9 806.8,143.4 809.9,142.6 813.0,141.2 816.1,140.1 819.2,137.9 822.3,136.5 825.4,135.3 828.5,135.1 831.6,134.5 834.7,133.6 837.8,130.9 840.9,126.7 844.0,122.2 847.2,117.8 850.3,114.2 853.4,109.9 856.5,105.4 859.6,100.8 862.7,96.5 865.8,93.4 868.9,91.0 872.0,90.0 872.0,272.0" fill="#e0f2fe" opacity="0.55"/>
<polyline points="52.0,271.9 55.1,271.7 92.4,270.8 95.5,270.6 98.6,270.5 107.9,270.4 126.5,270.3 166.9,270.2 170.0,269.4 173.1,269.3 182.5,269.1 185.6,269.0 188.7,268.9 191.8,268.6 198.0,268.6 201.1,268.1 210.4,267.7 222.8,267.6 225.9,267.3 229.0,267.1 253.9,267.0 260.1,266.9 275.6,266.8 278.7,266.7 281.8,266.6 294.3,266.5 297.4,265.9 300.5,265.5 303.6,264.3 306.7,264.1 328.4,264.0 337.8,263.9 344.0,263.9 347.1,263.8 350.2,263.3 353.3,263.2 356.4,263.1 359.5,262.9 362.6,262.6 375.0,262.1 381.2,262.0 393.7,261.9 396.8,261.5 399.9,261.4 403.0,261.2 409.2,261.1 412.3,259.3 415.4,257.5 418.5,256.9 421.6,256.4 424.7,256.2 427.8,255.8 430.9,255.2 434.0,254.7 437.2,254.4 440.3,254.3 446.5,254.0 449.6,253.3 452.7,252.5 455.8,251.8 458.9,251.4 465.1,251.2 471.3,251.1 474.4,250.4 477.5,250.0 480.6,248.7 483.7,248.0 486.8,247.3 490.0,246.6 493.1,245.7 496.2,244.9 499.3,244.0 502.4,243.0 505.5,242.1 508.6,241.3 511.7,240.8 514.8,240.1 517.9,239.4 521.0,239.0 524.1,238.6 527.2,238.1 530.3,238.0 533.4,237.8 539.7,237.7 542.8,235.9 545.9,234.6 549.0,234.3 552.1,234.2 558.3,234.1 561.4,233.8 573.8,233.7 580.0,233.5 589.3,233.4 592.5,231.3 595.6,229.4 598.7,228.8 601.8,227.2 604.9,225.9 608.0,225.1 611.1,224.6 614.2,223.8 617.3,223.5 620.4,223.3 623.5,222.9 626.6,222.7 645.3,221.3 648.4,219.5 651.5,219.2 654.6,218.9 657.7,218.8 679.4,218.8 707.4,216.9 710.5,215.4 713.6,213.7 716.7,211.2 719.8,210.7 722.9,209.9 726.0,208.4 729.1,207.3 732.2,204.9 735.3,201.3 738.4,197.8 741.5,193.6 744.7,189.2 747.8,185.4 750.9,183.1 754.0,180.3 757.1,176.1 760.2,172.6 763.3,170.2 766.4,167.8 769.5,164.3 772.6,162.2 775.7,160.0 778.8,158.1 781.9,156.6 785.0,154.7 788.1,153.6 791.2,152.3 794.3,151.2 797.5,148.0 800.6,145.3 803.7,143.9 806.8,143.4 809.9,142.6 813.0,141.2 816.1,140.1 819.2,137.9 822.3,136.5 825.4,135.3 828.5,135.1 831.6,134.5 834.7,133.6 837.8,130.9 840.9,126.7 844.0,122.2 847.2,117.8 850.3,114.2 853.4,109.9 856.5,105.4 859.6,100.8 862.7,96.5 865.8,93.4 868.9,91.0 872.0,90.0" fill="none" stroke="#38bdf8" stroke-width="2.5" stroke-linejoin="round" stroke-linecap="round"/>
<circle cx="872.0" cy="90.0" r="4" fill="#0ea5e9"/>
<text x="866.0" y="80.0" text-anchor="end" font-family="Inter, system-ui, sans-serif" font-size="13" font-weight="700" fill="#334155">2010</text>
<text x="52.0" y="294" text-anchor="middle" font-family="Inter, system-ui, sans-serif" font-size="11" fill="#94a3b8">Jun 10 05:00</text>
<text x="533.4" y="294" text-anchor="middle" font-family="Inter, system-ui, sans-serif" font-size="11" fill="#94a3b8">Jun 16 16:00</text>
<text x="872.0" y="294" text-anchor="middle" font-family="Inter, system-ui, sans-serif" font-size="11" fill="#94a3b8">Jun 21 05:00</text>
</svg>
