<svg xmlns="http://www.w3.org/2000/svg" width="900" height="320" viewBox="0 0 900 320" role="img" aria-labelledby="title desc">
<title id="title">Unsorry proofs over time</title>
<desc id="desc">Cumulative kernel-verified proofs over time, by the hour each proof was merged.</desc>
<rect width="900" height="100%" rx="18" fill="#ffffff"/>
<rect x="0.5" y="0.5" width="899" height="319" rx="18" fill="none" stroke="#e2e8f0"/>
<text x="32" y="44" font-family="Inter, system-ui, sans-serif" font-size="28" font-weight="700" fill="#334155">Unsorry — Proofs Over Time</text>
<text x="32" y="72" font-family="Inter, system-ui, sans-serif" font-size="13" fill="#64748b">2152 cumulative kernel-verified proofs · merged, hourly</text>
<line x1="52" y1="272.0" x2="872" y2="272.0" stroke="#f1f5f9"/>
<text x="44" y="276.0" text-anchor="end" font-family="Inter, system-ui, sans-serif" font-size="11" fill="#94a3b8">0</text>
<line x1="52" y1="226.5" x2="872" y2="226.5" stroke="#f1f5f9"/>
<text x="44" y="230.5" text-anchor="end" font-family="Inter, system-ui, sans-serif" font-size="11" fill="#94a3b8">538</text>
<line x1="52" y1="181.0" x2="872" y2="181.0" stroke="#f1f5f9"/>
<text x="44" y="185.0" text-anchor="end" font-family="Inter, system-ui, sans-serif" font-size="11" fill="#94a3b8">1076</text>
<line x1="52" y1="135.5" x2="872" y2="135.5" stroke="#f1f5f9"/>
<text x="44" y="139.5" text-anchor="end" font-family="Inter, system-ui, sans-serif" font-size="11" fill="#94a3b8">1614</text>
<line x1="52" y1="90.0" x2="872" y2="90.0" stroke="#f1f5f9"/>
<text x="44" y="94.0" text-anchor="end" font-family="Inter, system-ui, sans-serif" font-size="11" fill="#94a3b8">2152</text>
<polygon points="52.0,272.0 52.0,271.9 55.0,271.7 91.5,270.9 94.5,270.6 97.6,270.6 106.7,270.5 124.9,270.4 164.4,270.3 167.4,269.5 170.4,269.5 179.6,269.3 182.6,269.2 185.6,269.1 188.7,268.9 194.7,268.8 197.8,268.4 206.9,268.0 219.0,267.9 222.1,267.6 225.1,267.4 249.4,267.3 255.5,267.3 270.7,267.2 273.7,267.1 276.7,266.9 288.9,266.8 291.9,266.3 295.0,265.9 298.0,264.8 301.0,264.6 322.3,264.6 331.4,264.5 337.5,264.4 340.5,264.3 343.6,263.9 346.6,263.8 349.6,263.7 352.7,263.5 355.7,263.2 367.9,262.8 373.9,262.7 386.1,262.6 389.1,262.2 392.1,262.1 395.2,261.9 401.3,261.9 404.3,260.2 407.3,258.5 410.4,257.9 413.4,257.5 416.4,257.3 419.5,256.9 422.5,256.3 425.6,255.8 428.6,255.6 431.6,255.4 437.7,255.2 440.7,254.5 443.8,253.8 446.8,253.1 449.9,252.7 455.9,252.5 462.0,252.5 465.0,251.9 468.1,251.4 471.1,250.3 474.1,249.6 477.2,248.9 480.2,248.2 483.3,247.5 486.3,246.7 489.3,245.9 492.4,244.9 495.4,244.1 498.4,243.3 501.5,242.8 504.5,242.2 507.6,241.6 510.6,241.2 513.6,240.8 516.7,240.4 519.7,240.2 522.7,240.0 528.8,239.9 531.9,238.3 534.9,237.1 537.9,236.8 541.0,236.7 547.0,236.6 550.1,236.3 562.2,236.2 568.3,236.1 577.4,236.0 580.4,234.0 583.5,232.2 586.5,231.7 589.6,230.1 592.6,229.0 595.6,228.2 598.7,227.8 601.7,227.0 604.7,226.7 607.8,226.5 610.8,226.2 613.9,226.0 632.1,224.6 635.1,222.9 638.1,222.7 641.2,222.4 644.2,222.4 665.5,222.3 692.8,220.5 695.9,219.1 698.9,217.5 701.9,215.2 705.0,214.7 708.0,214.0 711.0,212.6 714.1,211.6 717.1,209.3 720.1,205.9 723.2,202.7 726.2,198.8 729.3,194.7 732.3,191.1 735.3,188.9 738.4,186.3 741.4,182.4 744.4,179.1 747.5,176.9 750.5,174.7 753.6,171.4 756.6,169.4 759.6,167.4 762.7,165.6 765.7,164.3 768.7,162.5 771.8,161.4 774.8,160.2 777.9,159.2 780.9,156.1 783.9,153.7 787.0,152.3 790.0,151.9 793.0,151.1 796.1,149.9 799.1,148.8 802.1,146.7 805.2,145.5 808.2,144.3 811.3,144.1 814.3,143.6 817.3,142.7 820.4,140.2 823.4,136.3 826.4,132.1 829.5,128.0 832.5,124.6 835.6,120.6 838.6,116.4 841.6,112.1 844.7,108.1 847.7,105.2 850.7,102.9 853.8,100.3 856.8,97.8 859.9,96.1 862.9,94.1 865.9,92.5 869.0,90.3 872.0,90.0 872.0,272.0" fill="#e0f2fe" opacity="0.55"/>
<polyline points="52.0,271.9 55.0,271.7 91.5,270.9 94.5,270.6 97.6,270.6 106.7,270.5 124.9,270.4 164.4,270.3 167.4,269.5 170.4,269.5 179.6,269.3 182.6,269.2 185.6,269.1 188.7,268.9 194.7,268.8 197.8,268.4 206.9,268.0 219.0,267.9 222.1,267.6 225.1,267.4 249.4,267.3 255.5,267.3 270.7,267.2 273.7,267.1 276.7,266.9 288.9,266.8 291.9,266.3 295.0,265.9 298.0,264.8 301.0,264.6 322.3,264.6 331.4,264.5 337.5,264.4 340.5,264.3 343.6,263.9 346.6,263.8 349.6,263.7 352.7,263.5 355.7,263.2 367.9,262.8 373.9,262.7 386.1,262.6 389.1,262.2 392.1,262.1 395.2,261.9 401.3,261.9 404.3,260.2 407.3,258.5 410.4,257.9 413.4,257.5 416.4,257.3 419.5,256.9 422.5,256.3 425.6,255.8 428.6,255.6 431.6,255.4 437.7,255.2 440.7,254.5 443.8,253.8 446.8,253.1 449.9,252.7 455.9,252.5 462.0,252.5 465.0,251.9 468.1,251.4 471.1,250.3 474.1,249.6 477.2,248.9 480.2,248.2 483.3,247.5 486.3,246.7 489.3,245.9 492.4,244.9 495.4,244.1 498.4,243.3 501.5,242.8 504.5,242.2 507.6,241.6 510.6,241.2 513.6,240.8 516.7,240.4 519.7,240.2 522.7,240.0 528.8,239.9 531.9,238.3 534.9,237.1 537.9,236.8 541.0,236.7 547.0,236.6 550.1,236.3 562.2,236.2 568.3,236.1 577.4,236.0 580.4,234.0 583.5,232.2 586.5,231.7 589.6,230.1 592.6,229.0 595.6,228.2 598.7,227.8 601.7,227.0 604.7,226.7 607.8,226.5 610.8,226.2 613.9,226.0 632.1,224.6 635.1,222.9 638.1,222.7 641.2,222.4 644.2,222.4 665.5,222.3 692.8,220.5 695.9,219.1 698.9,217.5 701.9,215.2 705.0,214.7 708.0,214.0 711.0,212.6 714.1,211.6 717.1,209.3 720.1,205.9 723.2,202.7 726.2,198.8 729.3,194.7 732.3,191.1 735.3,188.9 738.4,186.3 741.4,182.4 744.4,179.1 747.5,176.9 750.5,174.7 753.6,171.4 756.6,169.4 759.6,167.4 762.7,165.6 765.7,164.3 768.7,162.5 771.8,161.4 774.8,160.2 777.9,159.2 780.9,156.1 783.9,153.7 787.0,152.3 790.0,151.9 793.0,151.1 796.1,149.9 799.1,148.8 802.1,146.7 805.2,145.5 808.2,144.3 811.3,144.1 814.3,143.6 817.3,142.7 820.4,140.2 823.4,136.3 826.4,132.1 829.5,128.0 832.5,124.6 835.6,120.6 838.6,116.4 841.6,112.1 844.7,108.1 847.7,105.2 850.7,102.9 853.8,100.3 856.8,97.8 859.9,96.1 862.9,94.1 865.9,92.5 869.0,90.3 872.0,90.0" fill="none" stroke="#38bdf8" stroke-width="2.5" stroke-linejoin="round" stroke-linecap="round"/>
<circle cx="872.0" cy="90.0" r="4" fill="#0ea5e9"/>
<text x="866.0" y="80.0" text-anchor="end" font-family="Inter, system-ui, sans-serif" font-size="13" font-weight="700" fill="#334155">2152</text>
<text x="52.0" y="294" text-anchor="middle" font-family="Inter, system-ui, sans-serif" font-size="11" fill="#94a3b8">Jun 10 05:00</text>
<text x="534.9" y="294" text-anchor="middle" font-family="Inter, system-ui, sans-serif" font-size="11" fill="#94a3b8">Jun 16 20:00</text>
<text x="872.0" y="294" text-anchor="middle" font-family="Inter, system-ui, sans-serif" font-size="11" fill="#94a3b8">Jun 21 11:00</text>
</svg>
