<svg xmlns="http://www.w3.org/2000/svg" width="900" height="320" viewBox="0 0 900 320" role="img" aria-labelledby="title desc">
<title id="title">unsorry proofs over time</title>
<desc id="desc">Cumulative kernel-verified proofs over time, by the hour each proof was merged.</desc>
<rect width="900" height="100%" rx="18" fill="#ffffff"/>
<rect x="0.5" y="0.5" width="899" height="319" rx="18" fill="none" stroke="#e2e8f0"/>
<text x="32" y="44" font-family="Inter, system-ui, sans-serif" font-size="28" font-weight="700" fill="#334155">unsorry — Proofs Over Time</text>
<text x="32" y="72" font-family="Inter, system-ui, sans-serif" font-size="13" fill="#64748b">4084 cumulative kernel-verified proofs · merged, hourly</text>
<line x1="52" y1="272.0" x2="872" y2="272.0" stroke="#f1f5f9"/>
<text x="44" y="276.0" text-anchor="end" font-family="Inter, system-ui, sans-serif" font-size="11" fill="#94a3b8">0</text>
<line x1="52" y1="226.5" x2="872" y2="226.5" stroke="#f1f5f9"/>
<text x="44" y="230.5" text-anchor="end" font-family="Inter, system-ui, sans-serif" font-size="11" fill="#94a3b8">1021</text>
<line x1="52" y1="181.0" x2="872" y2="181.0" stroke="#f1f5f9"/>
<text x="44" y="185.0" text-anchor="end" font-family="Inter, system-ui, sans-serif" font-size="11" fill="#94a3b8">2042</text>
<line x1="52" y1="135.5" x2="872" y2="135.5" stroke="#f1f5f9"/>
<text x="44" y="139.5" text-anchor="end" font-family="Inter, system-ui, sans-serif" font-size="11" fill="#94a3b8">3063</text>
<line x1="52" y1="90.0" x2="872" y2="90.0" stroke="#f1f5f9"/>
<text x="44" y="94.0" text-anchor="end" font-family="Inter, system-ui, sans-serif" font-size="11" fill="#94a3b8">4084</text>
<polygon points="52.0,272.0 52.0,272.0 54.3,271.9 81.4,271.4 83.7,271.3 86.0,271.2 92.8,271.2 106.4,271.2 135.8,271.1 138.1,270.7 140.3,270.7 147.1,270.6 149.4,270.5 151.7,270.5 153.9,270.4 158.5,270.3 160.7,270.1 167.5,269.9 176.6,269.8 178.9,269.7 181.1,269.6 199.2,269.5 203.8,269.5 215.1,269.5 217.4,269.4 219.6,269.3 228.7,269.3 231.0,269.0 233.2,268.8 235.5,268.2 237.7,268.1 253.6,268.1 260.4,268.0 264.9,268.0 267.2,267.9 269.5,267.7 271.7,267.7 274.0,267.6 276.3,267.5 278.5,267.4 287.6,267.1 292.1,267.1 301.2,267.1 303.4,266.8 305.7,266.8 308.0,266.7 312.5,266.7 314.8,265.8 317.0,264.9 319.3,264.6 321.6,264.3 323.8,264.2 326.1,264.0 328.4,263.7 330.6,263.5 332.9,263.4 335.1,263.3 339.7,263.1 341.9,262.8 344.2,262.4 346.5,262.1 348.7,261.8 353.3,261.8 357.8,261.7 360.1,261.4 362.3,261.2 364.6,260.5 366.9,260.2 369.1,259.8 371.4,259.5 373.7,259.1 375.9,258.7 378.2,258.2 380.5,257.7 382.7,257.3 385.0,256.9 387.2,256.6 389.5,256.3 391.8,256.0 394.0,255.8 396.3,255.6 398.6,255.3 400.8,255.2 403.1,255.2 407.6,255.1 409.9,254.2 412.2,253.6 414.4,253.5 416.7,253.4 421.2,253.3 423.5,253.2 432.6,253.1 437.1,253.1 443.9,253.0 446.1,252.0 448.4,251.0 450.7,250.7 452.9,249.9 455.2,249.3 457.5,248.9 459.7,248.7 462.0,248.3 464.3,248.1 466.5,248.0 468.8,247.8 471.1,247.8 484.7,247.0 486.9,246.2 489.2,246.0 491.4,245.9 493.7,245.8 509.6,245.8 530.0,244.9 532.2,244.1 534.5,243.3 536.8,242.1 539.0,241.8 541.3,241.4 543.5,240.7 545.8,240.2 548.1,239.0 550.3,237.2 552.6,235.5 554.9,233.4 557.1,231.3 559.4,229.4 561.7,228.2 563.9,226.9 566.2,224.8 568.5,223.1 570.7,221.9 573.0,220.7 575.3,219.0 577.5,217.9 579.8,216.9 582.1,215.9 584.3,215.2 586.6,214.3 588.9,213.7 591.1,213.1 593.4,212.6 595.6,210.9 597.9,209.7 600.2,208.9 602.4,208.7 604.7,208.3 607.0,207.6 609.2,207.1 611.5,206.0 613.8,205.3 616.0,204.7 618.3,204.6 620.6,204.4 622.8,203.9 625.1,202.6 627.4,200.5 629.6,198.3 631.9,196.1 634.2,194.3 636.4,192.2 638.7,190.0 641.0,187.7 643.2,185.6 645.5,184.1 647.7,182.9 650.0,181.5 652.3,180.2 654.5,179.3 656.8,178.2 659.1,177.4 661.3,176.3 663.6,174.7 665.9,172.8 668.1,171.3 670.4,169.9 672.7,169.0 674.9,168.2 677.2,167.4 679.5,166.5 681.7,165.0 684.0,163.7 686.3,162.1 688.5,160.5 690.8,159.2 693.0,158.1 695.3,157.7 697.6,157.1 699.8,156.4 702.1,156.4 704.4,156.3 706.6,156.0 708.9,155.8 711.2,155.8 713.4,155.6 715.7,155.5 722.5,155.4 724.8,155.4 727.0,155.1 729.3,153.3 731.6,151.7 733.8,150.3 736.1,148.8 738.4,147.4 740.6,146.0 742.9,144.5 745.1,143.2 747.4,141.7 749.7,140.4 751.9,139.0 754.2,137.7 756.5,136.4 758.7,135.1 761.0,133.8 763.3,132.6 765.5,131.4 767.8,130.2 770.1,128.9 772.3,127.7 774.6,126.5 776.9,125.7 779.1,124.9 781.4,124.1 783.7,123.0 785.9,122.0 788.2,121.0 790.5,119.8 792.7,118.7 795.0,117.8 797.2,116.7 799.5,115.7 801.8,114.6 804.0,113.7 806.3,112.5 808.6,111.6 810.8,110.5 813.1,109.7 815.4,108.9 817.6,107.8 819.9,106.9 822.2,106.0 824.4,105.3 826.7,104.7 829.0,104.3 831.2,104.1 833.5,103.2 835.8,102.3 838.0,101.5 840.3,100.5 842.6,99.8 844.8,98.9 847.1,98.0 849.3,97.2 851.6,96.4 853.9,95.6 856.1,94.9 858.4,94.1 860.7,93.2 862.9,92.5 865.2,91.7 867.5,90.9 869.7,90.1 872.0,90.0 872.0,272.0" fill="#e0f2fe" opacity="0.55"/>
<polyline points="52.0,272.0 54.3,271.9 81.4,271.4 83.7,271.3 86.0,271.2 92.8,271.2 106.4,271.2 135.8,271.1 138.1,270.7 140.3,270.7 147.1,270.6 149.4,270.5 151.7,270.5 153.9,270.4 158.5,270.3 160.7,270.1 167.5,269.9 176.6,269.8 178.9,269.7 181.1,269.6 199.2,269.5 203.8,269.5 215.1,269.5 217.4,269.4 219.6,269.3 228.7,269.3 231.0,269.0 233.2,268.8 235.5,268.2 237.7,268.1 253.6,268.1 260.4,268.0 264.9,268.0 267.2,267.9 269.5,267.7 271.7,267.7 274.0,267.6 276.3,267.5 278.5,267.4 287.6,267.1 292.1,267.1 301.2,267.1 303.4,266.8 305.7,266.8 308.0,266.7 312.5,266.7 314.8,265.8 317.0,264.9 319.3,264.6 321.6,264.3 323.8,264.2 326.1,264.0 328.4,263.7 330.6,263.5 332.9,263.4 335.1,263.3 339.7,263.1 341.9,262.8 344.2,262.4 346.5,262.1 348.7,261.8 353.3,261.8 357.8,261.7 360.1,261.4 362.3,261.2 364.6,260.5 366.9,260.2 369.1,259.8 371.4,259.5 373.7,259.1 375.9,258.7 378.2,258.2 380.5,257.7 382.7,257.3 385.0,256.9 387.2,256.6 389.5,256.3 391.8,256.0 394.0,255.8 396.3,255.6 398.6,255.3 400.8,255.2 403.1,255.2 407.6,255.1 409.9,254.2 412.2,253.6 414.4,253.5 416.7,253.4 421.2,253.3 423.5,253.2 432.6,253.1 437.1,253.1 443.9,253.0 446.1,252.0 448.4,251.0 450.7,250.7 452.9,249.9 455.2,249.3 457.5,248.9 459.7,248.7 462.0,248.3 464.3,248.1 466.5,248.0 468.8,247.8 471.1,247.8 484.7,247.0 486.9,246.2 489.2,246.0 491.4,245.9 493.7,245.8 509.6,245.8 530.0,244.9 532.2,244.1 534.5,243.3 536.8,242.1 539.0,241.8 541.3,241.4 543.5,240.7 545.8,240.2 548.1,239.0 550.3,237.2 552.6,235.5 554.9,233.4 557.1,231.3 559.4,229.4 561.7,228.2 563.9,226.9 566.2,224.8 568.5,223.1 570.7,221.9 573.0,220.7 575.3,219.0 577.5,217.9 579.8,216.9 582.1,215.9 584.3,215.2 586.6,214.3 588.9,213.7 591.1,213.1 593.4,212.6 595.6,210.9 597.9,209.7 600.2,208.9 602.4,208.7 604.7,208.3 607.0,207.6 609.2,207.1 611.5,206.0 613.8,205.3 616.0,204.7 618.3,204.6 620.6,204.4 622.8,203.9 625.1,202.6 627.4,200.5 629.6,198.3 631.9,196.1 634.2,194.3 636.4,192.2 638.7,190.0 641.0,187.7 643.2,185.6 645.5,184.1 647.7,182.9 650.0,181.5 652.3,180.2 654.5,179.3 656.8,178.2 659.1,177.4 661.3,176.3 663.6,174.7 665.9,172.8 668.1,171.3 670.4,169.9 672.7,169.0 674.9,168.2 677.2,167.4 679.5,166.5 681.7,165.0 684.0,163.7 686.3,162.1 688.5,160.5 690.8,159.2 693.0,158.1 695.3,157.7 697.6,157.1 699.8,156.4 702.1,156.4 704.4,156.3 706.6,156.0 708.9,155.8 711.2,155.8 713.4,155.6 715.7,155.5 722.5,155.4 724.8,155.4 727.0,155.1 729.3,153.3 731.6,151.7 733.8,150.3 736.1,148.8 738.4,147.4 740.6,146.0 742.9,144.5 745.1,143.2 747.4,141.7 749.7,140.4 751.9,139.0 754.2,137.7 756.5,136.4 758.7,135.1 761.0,133.8 763.3,132.6 765.5,131.4 767.8,130.2 770.1,128.9 772.3,127.7 774.6,126.5 776.9,125.7 779.1,124.9 781.4,124.1 783.7,123.0 785.9,122.0 788.2,121.0 790.5,119.8 792.7,118.7 795.0,117.8 797.2,116.7 799.5,115.7 801.8,114.6 804.0,113.7 806.3,112.5 808.6,111.6 810.8,110.5 813.1,109.7 815.4,108.9 817.6,107.8 819.9,106.9 822.2,106.0 824.4,105.3 826.7,104.7 829.0,104.3 831.2,104.1 833.5,103.2 835.8,102.3 838.0,101.5 840.3,100.5 842.6,99.8 844.8,98.9 847.1,98.0 849.3,97.2 851.6,96.4 853.9,95.6 856.1,94.9 858.4,94.1 860.7,93.2 862.9,92.5 865.2,91.7 867.5,90.9 869.7,90.1 872.0,90.0" fill="none" stroke="#38bdf8" stroke-width="2.5" stroke-linejoin="round" stroke-linecap="round"/>
<circle cx="872.0" cy="90.0" r="4" fill="#0ea5e9"/>
<text x="866.0" y="80.0" text-anchor="end" font-family="Inter, system-ui, sans-serif" font-size="13" font-weight="700" fill="#334155">4084</text>
<text x="52.0" y="294" text-anchor="middle" font-family="Inter, system-ui, sans-serif" font-size="11" fill="#94a3b8">Jun 10 05:00</text>
<text x="573.0" y="294" text-anchor="middle" font-family="Inter, system-ui, sans-serif" font-size="11" fill="#94a3b8">Jun 19 19:00</text>
<text x="872.0" y="294" text-anchor="middle" font-family="Inter, system-ui, sans-serif" font-size="11" fill="#94a3b8">Jun 25 07:00</text>
</svg>
