<svg xmlns="http://www.w3.org/2000/svg" width="900" height="320" viewBox="0 0 900 320" role="img" aria-labelledby="title desc">
<title id="title">unsorry proofs over time</title>
<desc id="desc">Cumulative kernel-verified proofs over time, by the hour each proof was merged.</desc>
<rect width="900" height="100%" rx="18" fill="#ffffff"/>
<rect x="0.5" y="0.5" width="899" height="319" rx="18" fill="none" stroke="#e2e8f0"/>
<text x="32" y="44" font-family="Inter, system-ui, sans-serif" font-size="28" font-weight="700" fill="#334155">unsorry — Proofs Over Time</text>
<text x="32" y="72" font-family="Inter, system-ui, sans-serif" font-size="13" fill="#64748b">3815 cumulative kernel-verified proofs · merged, hourly</text>
<line x1="52" y1="272.0" x2="872" y2="272.0" stroke="#f1f5f9"/>
<text x="44" y="276.0" text-anchor="end" font-family="Inter, system-ui, sans-serif" font-size="11" fill="#94a3b8">0</text>
<line x1="52" y1="226.5" x2="872" y2="226.5" stroke="#f1f5f9"/>
<text x="44" y="230.5" text-anchor="end" font-family="Inter, system-ui, sans-serif" font-size="11" fill="#94a3b8">954</text>
<line x1="52" y1="181.0" x2="872" y2="181.0" stroke="#f1f5f9"/>
<text x="44" y="185.0" text-anchor="end" font-family="Inter, system-ui, sans-serif" font-size="11" fill="#94a3b8">1908</text>
<line x1="52" y1="135.5" x2="872" y2="135.5" stroke="#f1f5f9"/>
<text x="44" y="139.5" text-anchor="end" font-family="Inter, system-ui, sans-serif" font-size="11" fill="#94a3b8">2861</text>
<line x1="52" y1="90.0" x2="872" y2="90.0" stroke="#f1f5f9"/>
<text x="44" y="94.0" text-anchor="end" font-family="Inter, system-ui, sans-serif" font-size="11" fill="#94a3b8">3815</text>
<polygon points="52.0,272.0 52.0,272.0 54.4,271.9 82.7,271.4 85.1,271.2 87.4,271.2 94.5,271.1 108.7,271.1 139.4,271.0 141.8,270.6 144.2,270.6 151.3,270.5 153.6,270.4 156.0,270.4 158.3,270.2 163.1,270.2 165.4,269.9 172.5,269.8 182.0,269.7 184.3,269.5 186.7,269.4 205.6,269.4 210.3,269.3 222.1,269.3 224.5,269.2 226.9,269.1 236.3,269.1 238.7,268.8 241.0,268.6 243.4,267.9 245.8,267.8 262.3,267.8 269.4,267.8 274.1,267.7 276.5,267.7 278.9,267.4 281.2,267.4 283.6,267.3 285.9,267.2 288.3,267.0 297.8,266.8 302.5,266.8 311.9,266.7 314.3,266.5 316.7,266.4 319.0,266.3 323.8,266.3 326.1,265.3 328.5,264.4 330.8,264.0 333.2,263.8 335.6,263.7 337.9,263.5 340.3,263.1 342.7,262.9 345.0,262.7 347.4,262.6 352.1,262.5 354.5,262.1 356.8,261.7 359.2,261.4 361.6,261.1 366.3,261.0 371.0,261.0 373.4,260.6 375.7,260.4 378.1,259.7 380.5,259.4 382.8,259.0 385.2,258.6 387.6,258.2 389.9,257.7 392.3,257.3 394.7,256.7 397.0,256.3 399.4,255.8 401.7,255.5 404.1,255.2 406.5,254.8 408.8,254.6 411.2,254.4 413.6,254.2 415.9,254.1 418.3,254.0 423.0,253.9 425.4,253.0 427.7,252.3 430.1,252.2 432.5,252.1 437.2,252.0 439.6,251.9 449.0,251.8 453.7,251.7 460.8,251.7 463.2,250.6 465.5,249.5 467.9,249.2 470.3,248.4 472.6,247.7 475.0,247.3 477.4,247.0 479.7,246.6 482.1,246.4 484.4,246.3 486.8,246.1 489.2,246.0 503.4,245.3 505.7,244.3 508.1,244.2 510.4,244.0 512.8,244.0 529.3,243.9 550.6,242.9 553.0,242.2 555.3,241.3 557.7,239.9 560.1,239.7 562.4,239.3 564.8,238.5 567.2,237.9 569.5,236.6 571.9,234.7 574.2,232.9 576.6,230.7 579.0,228.4 581.3,226.4 583.7,225.2 586.1,223.7 588.4,221.5 590.8,219.6 593.2,218.4 595.5,217.1 597.9,215.3 600.2,214.1 602.6,213.0 605.0,212.0 607.3,211.2 609.7,210.2 612.1,209.6 614.4,208.9 616.8,208.4 619.1,206.6 621.5,205.3 623.9,204.5 626.2,204.3 628.6,203.8 631.0,203.1 633.3,202.5 635.7,201.3 638.1,200.6 640.4,200.0 642.8,199.9 645.1,199.6 647.5,199.1 649.9,197.7 652.2,195.4 654.6,193.1 657.0,190.8 659.3,188.8 661.7,186.6 664.0,184.2 666.4,181.8 668.8,179.5 671.1,177.9 673.5,176.6 675.9,175.2 678.2,173.7 680.6,172.8 683.0,171.6 685.3,170.8 687.7,169.5 690.0,167.9 692.4,165.9 694.8,164.2 697.1,162.7 699.5,161.8 701.9,160.9 704.2,160.0 706.6,159.1 708.9,157.5 711.3,156.1 713.7,154.4 716.0,152.7 718.4,151.3 720.8,150.1 723.1,149.6 725.5,149.0 727.9,148.3 730.2,148.2 732.6,148.1 734.9,147.8 737.3,147.6 739.7,147.6 742.0,147.3 744.4,147.2 751.5,147.2 753.8,147.2 756.2,146.9 758.6,144.9 760.9,143.2 763.3,141.8 765.7,140.1 768.0,138.6 770.4,137.1 772.7,135.6 775.1,134.1 777.5,132.6 779.8,131.1 782.2,129.6 784.6,128.2 786.9,126.8 789.3,125.4 791.7,124.0 794.0,122.8 796.4,121.5 798.7,120.2 801.1,118.8 803.5,117.6 805.8,116.3 808.2,115.4 810.6,114.6 812.9,113.7 815.3,112.5 817.6,111.4 820.0,110.3 822.4,109.0 824.7,107.9 827.1,106.9 829.5,105.8 831.8,104.6 834.2,103.5 836.6,102.5 838.9,101.3 841.3,100.3 843.6,99.2 846.0,98.3 848.4,97.3 850.7,96.2 853.1,95.2 855.5,94.3 857.8,93.6 860.2,92.9 862.5,92.4 864.9,92.3 867.3,91.3 869.6,90.4 872.0,90.0 872.0,272.0" fill="#e0f2fe" opacity="0.55"/>
<polyline points="52.0,272.0 54.4,271.9 82.7,271.4 85.1,271.2 87.4,271.2 94.5,271.1 108.7,271.1 139.4,271.0 141.8,270.6 144.2,270.6 151.3,270.5 153.6,270.4 156.0,270.4 158.3,270.2 163.1,270.2 165.4,269.9 172.5,269.8 182.0,269.7 184.3,269.5 186.7,269.4 205.6,269.4 210.3,269.3 222.1,269.3 224.5,269.2 226.9,269.1 236.3,269.1 238.7,268.8 241.0,268.6 243.4,267.9 245.8,267.8 262.3,267.8 269.4,267.8 274.1,267.7 276.5,267.7 278.9,267.4 281.2,267.4 283.6,267.3 285.9,267.2 288.3,267.0 297.8,266.8 302.5,266.8 311.9,266.7 314.3,266.5 316.7,266.4 319.0,266.3 323.8,266.3 326.1,265.3 328.5,264.4 330.8,264.0 333.2,263.8 335.6,263.7 337.9,263.5 340.3,263.1 342.7,262.9 345.0,262.7 347.4,262.6 352.1,262.5 354.5,262.1 356.8,261.7 359.2,261.4 361.6,261.1 366.3,261.0 371.0,261.0 373.4,260.6 375.7,260.4 378.1,259.7 380.5,259.4 382.8,259.0 385.2,258.6 387.6,258.2 389.9,257.7 392.3,257.3 394.7,256.7 397.0,256.3 399.4,255.8 401.7,255.5 404.1,255.2 406.5,254.8 408.8,254.6 411.2,254.4 413.6,254.2 415.9,254.1 418.3,254.0 423.0,253.9 425.4,253.0 427.7,252.3 430.1,252.2 432.5,252.1 437.2,252.0 439.6,251.9 449.0,251.8 453.7,251.7 460.8,251.7 463.2,250.6 465.5,249.5 467.9,249.2 470.3,248.4 472.6,247.7 475.0,247.3 477.4,247.0 479.7,246.6 482.1,246.4 484.4,246.3 486.8,246.1 489.2,246.0 503.4,245.3 505.7,244.3 508.1,244.2 510.4,244.0 512.8,244.0 529.3,243.9 550.6,242.9 553.0,242.2 555.3,241.3 557.7,239.9 560.1,239.7 562.4,239.3 564.8,238.5 567.2,237.9 569.5,236.6 571.9,234.7 574.2,232.9 576.6,230.7 579.0,228.4 581.3,226.4 583.7,225.2 586.1,223.7 588.4,221.5 590.8,219.6 593.2,218.4 595.5,217.1 597.9,215.3 600.2,214.1 602.6,213.0 605.0,212.0 607.3,211.2 609.7,210.2 612.1,209.6 614.4,208.9 616.8,208.4 619.1,206.6 621.5,205.3 623.9,204.5 626.2,204.3 628.6,203.8 631.0,203.1 633.3,202.5 635.7,201.3 638.1,200.6 640.4,200.0 642.8,199.9 645.1,199.6 647.5,199.1 649.9,197.7 652.2,195.4 654.6,193.1 657.0,190.8 659.3,188.8 661.7,186.6 664.0,184.2 666.4,181.8 668.8,179.5 671.1,177.9 673.5,176.6 675.9,175.2 678.2,173.7 680.6,172.8 683.0,171.6 685.3,170.8 687.7,169.5 690.0,167.9 692.4,165.9 694.8,164.2 697.1,162.7 699.5,161.8 701.9,160.9 704.2,160.0 706.6,159.1 708.9,157.5 711.3,156.1 713.7,154.4 716.0,152.7 718.4,151.3 720.8,150.1 723.1,149.6 725.5,149.0 727.9,148.3 730.2,148.2 732.6,148.1 734.9,147.8 737.3,147.6 739.7,147.6 742.0,147.3 744.4,147.2 751.5,147.2 753.8,147.2 756.2,146.9 758.6,144.9 760.9,143.2 763.3,141.8 765.7,140.1 768.0,138.6 770.4,137.1 772.7,135.6 775.1,134.1 777.5,132.6 779.8,131.1 782.2,129.6 784.6,128.2 786.9,126.8 789.3,125.4 791.7,124.0 794.0,122.8 796.4,121.5 798.7,120.2 801.1,118.8 803.5,117.6 805.8,116.3 808.2,115.4 810.6,114.6 812.9,113.7 815.3,112.5 817.6,111.4 820.0,110.3 822.4,109.0 824.7,107.9 827.1,106.9 829.5,105.8 831.8,104.6 834.2,103.5 836.6,102.5 838.9,101.3 841.3,100.3 843.6,99.2 846.0,98.3 848.4,97.3 850.7,96.2 853.1,95.2 855.5,94.3 857.8,93.6 860.2,92.9 862.5,92.4 864.9,92.3 867.3,91.3 869.6,90.4 872.0,90.0" fill="none" stroke="#38bdf8" stroke-width="2.5" stroke-linejoin="round" stroke-linecap="round"/>
<circle cx="872.0" cy="90.0" r="4" fill="#0ea5e9"/>
<text x="866.0" y="80.0" text-anchor="end" font-family="Inter, system-ui, sans-serif" font-size="13" font-weight="700" fill="#334155">3815</text>
<text x="52.0" y="294" text-anchor="middle" font-family="Inter, system-ui, sans-serif" font-size="11" fill="#94a3b8">Jun 10 05:00</text>
<text x="579.0" y="294" text-anchor="middle" font-family="Inter, system-ui, sans-serif" font-size="11" fill="#94a3b8">Jun 19 12:00</text>
<text x="872.0" y="294" text-anchor="middle" font-family="Inter, system-ui, sans-serif" font-size="11" fill="#94a3b8">Jun 24 16:00</text>
</svg>
