<svg xmlns="http://www.w3.org/2000/svg" width="900" height="320" viewBox="0 0 900 320" role="img" aria-labelledby="title desc">
<title id="title">unsorry proofs over time</title>
<desc id="desc">Cumulative kernel-verified proofs over time, by the hour each proof was merged.</desc>
<rect width="900" height="100%" rx="18" fill="#ffffff"/>
<rect x="0.5" y="0.5" width="899" height="319" rx="18" fill="none" stroke="#e2e8f0"/>
<text x="32" y="44" font-family="Inter, system-ui, sans-serif" font-size="28" font-weight="700" fill="#334155">unsorry — Proofs Over Time</text>
<text x="32" y="72" font-family="Inter, system-ui, sans-serif" font-size="13" fill="#64748b">3416 cumulative kernel-verified proofs · merged, hourly</text>
<line x1="52" y1="272.0" x2="872" y2="272.0" stroke="#f1f5f9"/>
<text x="44" y="276.0" text-anchor="end" font-family="Inter, system-ui, sans-serif" font-size="11" fill="#94a3b8">0</text>
<line x1="52" y1="226.5" x2="872" y2="226.5" stroke="#f1f5f9"/>
<text x="44" y="230.5" text-anchor="end" font-family="Inter, system-ui, sans-serif" font-size="11" fill="#94a3b8">854</text>
<line x1="52" y1="181.0" x2="872" y2="181.0" stroke="#f1f5f9"/>
<text x="44" y="185.0" text-anchor="end" font-family="Inter, system-ui, sans-serif" font-size="11" fill="#94a3b8">1708</text>
<line x1="52" y1="135.5" x2="872" y2="135.5" stroke="#f1f5f9"/>
<text x="44" y="139.5" text-anchor="end" font-family="Inter, system-ui, sans-serif" font-size="11" fill="#94a3b8">2562</text>
<line x1="52" y1="90.0" x2="872" y2="90.0" stroke="#f1f5f9"/>
<text x="44" y="94.0" text-anchor="end" font-family="Inter, system-ui, sans-serif" font-size="11" fill="#94a3b8">3416</text>
<polygon points="52.0,272.0 52.0,271.9 54.5,271.8 84.7,271.3 87.2,271.1 89.7,271.1 97.3,271.0 112.4,271.0 145.1,270.9 147.6,270.5 150.1,270.4 157.6,270.3 160.2,270.2 162.7,270.2 165.2,270.0 170.2,270.0 172.7,269.7 180.3,269.5 190.3,269.4 192.9,269.2 195.4,269.1 215.5,269.1 220.5,269.0 233.1,269.0 235.6,268.9 238.1,268.8 248.2,268.8 250.7,268.4 253.2,268.2 255.7,267.5 258.3,267.4 275.9,267.3 283.4,267.3 288.4,267.2 291.0,267.2 293.5,266.9 296.0,266.8 298.5,266.8 301.0,266.6 303.5,266.5 313.6,266.2 318.6,266.1 328.7,266.1 331.2,265.8 333.7,265.8 336.2,265.7 341.3,265.6 343.8,264.5 346.3,263.5 348.8,263.1 351.3,262.8 353.8,262.7 356.4,262.5 358.9,262.1 361.4,261.8 363.9,261.7 366.4,261.6 371.4,261.4 374.0,261.0 376.5,260.5 379.0,260.1 381.5,259.9 386.5,259.7 391.6,259.7 394.1,259.3 396.6,259.1 399.1,258.3 401.6,257.9 404.1,257.5 406.7,257.0 409.2,256.5 411.7,256.1 414.2,255.5 416.7,255.0 419.2,254.4 421.8,253.9 424.3,253.6 426.8,253.2 429.3,252.8 431.8,252.6 434.3,252.3 436.8,252.1 439.4,252.0 441.9,251.9 446.9,251.8 449.4,250.7 451.9,250.0 454.5,249.8 457.0,249.8 462.0,249.7 464.5,249.5 474.6,249.5 479.6,249.4 487.2,249.3 489.7,248.1 492.2,246.9 494.7,246.6 497.2,245.6 499.7,244.9 502.2,244.4 504.8,244.1 507.3,243.7 509.8,243.4 512.3,243.3 514.8,243.1 517.3,243.0 532.4,242.2 534.9,241.1 537.5,240.9 540.0,240.8 542.5,240.7 560.1,240.7 582.7,239.6 585.3,238.7 587.8,237.7 590.3,236.2 592.8,235.9 595.3,235.5 597.8,234.6 600.3,234.0 602.9,232.5 605.4,230.4 607.9,228.3 610.4,225.9 612.9,223.3 615.4,221.1 618.0,219.7 620.5,218.0 623.0,215.6 625.5,213.5 628.0,212.1 630.5,210.7 633.0,208.7 635.6,207.4 638.1,206.1 640.6,205.0 643.1,204.1 645.6,203.0 648.1,202.3 650.7,201.6 653.2,200.9 655.7,199.0 658.2,197.5 660.7,196.6 663.2,196.3 665.7,195.9 668.3,195.1 670.8,194.4 673.3,193.1 675.8,192.3 678.3,191.5 680.8,191.4 683.3,191.1 685.9,190.5 688.4,189.0 690.9,186.5 693.4,183.9 695.9,181.3 698.4,179.1 701.0,176.6 703.5,174.0 706.0,171.2 708.5,168.7 711.0,166.9 713.5,165.5 716.0,163.8 718.6,162.2 721.1,161.2 723.6,159.9 726.1,158.9 728.6,157.6 731.1,155.7 733.7,153.5 736.2,151.6 738.7,149.9 741.2,148.9 743.7,147.9 746.2,147.0 748.7,145.9 751.3,144.1 753.8,142.5 756.3,140.7 758.8,138.8 761.3,137.2 763.8,135.9 766.4,135.3 768.9,134.6 771.4,133.8 773.9,133.7 776.4,133.6 778.9,133.3 781.4,133.1 784.0,133.0 786.5,132.8 789.0,132.7 796.5,132.6 799.1,132.6 801.6,132.2 804.1,130.1 806.6,128.2 809.1,126.5 811.6,124.7 814.1,123.0 816.7,121.4 819.2,119.6 821.7,118.0 824.2,116.3 826.7,114.7 829.2,113.0 831.8,111.4 834.3,109.9 836.8,108.3 839.3,106.7 841.8,105.4 844.3,103.9 846.8,102.4 849.4,100.9 851.9,99.5 854.4,98.1 856.9,97.1 859.4,96.2 861.9,95.2 864.5,93.8 867.0,92.6 869.5,91.4 872.0,90.0 872.0,272.0" fill="#e0f2fe" opacity="0.55"/>
<polyline points="52.0,271.9 54.5,271.8 84.7,271.3 87.2,271.1 89.7,271.1 97.3,271.0 112.4,271.0 145.1,270.9 147.6,270.5 150.1,270.4 157.6,270.3 160.2,270.2 162.7,270.2 165.2,270.0 170.2,270.0 172.7,269.7 180.3,269.5 190.3,269.4 192.9,269.2 195.4,269.1 215.5,269.1 220.5,269.0 233.1,269.0 235.6,268.9 238.1,268.8 248.2,268.8 250.7,268.4 253.2,268.2 255.7,267.5 258.3,267.4 275.9,267.3 283.4,267.3 288.4,267.2 291.0,267.2 293.5,266.9 296.0,266.8 298.5,266.8 301.0,266.6 303.5,266.5 313.6,266.2 318.6,266.1 328.7,266.1 331.2,265.8 333.7,265.8 336.2,265.7 341.3,265.6 343.8,264.5 346.3,263.5 348.8,263.1 351.3,262.8 353.8,262.7 356.4,262.5 358.9,262.1 361.4,261.8 363.9,261.7 366.4,261.6 371.4,261.4 374.0,261.0 376.5,260.5 379.0,260.1 381.5,259.9 386.5,259.7 391.6,259.7 394.1,259.3 396.6,259.1 399.1,258.3 401.6,257.9 404.1,257.5 406.7,257.0 409.2,256.5 411.7,256.1 414.2,255.5 416.7,255.0 419.2,254.4 421.8,253.9 424.3,253.6 426.8,253.2 429.3,252.8 431.8,252.6 434.3,252.3 436.8,252.1 439.4,252.0 441.9,251.9 446.9,251.8 449.4,250.7 451.9,250.0 454.5,249.8 457.0,249.8 462.0,249.7 464.5,249.5 474.6,249.5 479.6,249.4 487.2,249.3 489.7,248.1 492.2,246.9 494.7,246.6 497.2,245.6 499.7,244.9 502.2,244.4 504.8,244.1 507.3,243.7 509.8,243.4 512.3,243.3 514.8,243.1 517.3,243.0 532.4,242.2 534.9,241.1 537.5,240.9 540.0,240.8 542.5,240.7 560.1,240.7 582.7,239.6 585.3,238.7 587.8,237.7 590.3,236.2 592.8,235.9 595.3,235.5 597.8,234.6 600.3,234.0 602.9,232.5 605.4,230.4 607.9,228.3 610.4,225.9 612.9,223.3 615.4,221.1 618.0,219.7 620.5,218.0 623.0,215.6 625.5,213.5 628.0,212.1 630.5,210.7 633.0,208.7 635.6,207.4 638.1,206.1 640.6,205.0 643.1,204.1 645.6,203.0 648.1,202.3 650.7,201.6 653.2,200.9 655.7,199.0 658.2,197.5 660.7,196.6 663.2,196.3 665.7,195.9 668.3,195.1 670.8,194.4 673.3,193.1 675.8,192.3 678.3,191.5 680.8,191.4 683.3,191.1 685.9,190.5 688.4,189.0 690.9,186.5 693.4,183.9 695.9,181.3 698.4,179.1 701.0,176.6 703.5,174.0 706.0,171.2 708.5,168.7 711.0,166.9 713.5,165.5 716.0,163.8 718.6,162.2 721.1,161.2 723.6,159.9 726.1,158.9 728.6,157.6 731.1,155.7 733.7,153.5 736.2,151.6 738.7,149.9 741.2,148.9 743.7,147.9 746.2,147.0 748.7,145.9 751.3,144.1 753.8,142.5 756.3,140.7 758.8,138.8 761.3,137.2 763.8,135.9 766.4,135.3 768.9,134.6 771.4,133.8 773.9,133.7 776.4,133.6 778.9,133.3 781.4,133.1 784.0,133.0 786.5,132.8 789.0,132.7 796.5,132.6 799.1,132.6 801.6,132.2 804.1,130.1 806.6,128.2 809.1,126.5 811.6,124.7 814.1,123.0 816.7,121.4 819.2,119.6 821.7,118.0 824.2,116.3 826.7,114.7 829.2,113.0 831.8,111.4 834.3,109.9 836.8,108.3 839.3,106.7 841.8,105.4 844.3,103.9 846.8,102.4 849.4,100.9 851.9,99.5 854.4,98.1 856.9,97.1 859.4,96.2 861.9,95.2 864.5,93.8 867.0,92.6 869.5,91.4 872.0,90.0" fill="none" stroke="#38bdf8" stroke-width="2.5" stroke-linejoin="round" stroke-linecap="round"/>
<circle cx="872.0" cy="90.0" r="4" fill="#0ea5e9"/>
<text x="866.0" y="80.0" text-anchor="end" font-family="Inter, system-ui, sans-serif" font-size="13" font-weight="700" fill="#334155">3416</text>
<text x="52.0" y="294" text-anchor="middle" font-family="Inter, system-ui, sans-serif" font-size="11" fill="#94a3b8">Jun 10 05:00</text>
<text x="585.3" y="294" text-anchor="middle" font-family="Inter, system-ui, sans-serif" font-size="11" fill="#94a3b8">Jun 19 01:00</text>
<text x="872.0" y="294" text-anchor="middle" font-family="Inter, system-ui, sans-serif" font-size="11" fill="#94a3b8">Jun 23 19:00</text>
</svg>
