<svg xmlns="http://www.w3.org/2000/svg" width="900" height="320" viewBox="0 0 900 320" role="img" aria-labelledby="title desc">
<title id="title">unsorry proofs over time</title>
<desc id="desc">Cumulative kernel-verified proofs over time, by the hour each proof was merged.</desc>
<rect width="900" height="100%" rx="18" fill="#ffffff"/>
<rect x="0.5" y="0.5" width="899" height="319" rx="18" fill="none" stroke="#e2e8f0"/>
<text x="32" y="44" font-family="Inter, system-ui, sans-serif" font-size="28" font-weight="700" fill="#334155">unsorry — Proofs Over Time</text>
<text x="32" y="72" font-family="Inter, system-ui, sans-serif" font-size="13" fill="#64748b">4180 cumulative kernel-verified proofs · merged, hourly</text>
<line x1="52" y1="272.0" x2="872" y2="272.0" stroke="#f1f5f9"/>
<text x="44" y="276.0" text-anchor="end" font-family="Inter, system-ui, sans-serif" font-size="11" fill="#94a3b8">0</text>
<line x1="52" y1="226.5" x2="872" y2="226.5" stroke="#f1f5f9"/>
<text x="44" y="230.5" text-anchor="end" font-family="Inter, system-ui, sans-serif" font-size="11" fill="#94a3b8">1045</text>
<line x1="52" y1="181.0" x2="872" y2="181.0" stroke="#f1f5f9"/>
<text x="44" y="185.0" text-anchor="end" font-family="Inter, system-ui, sans-serif" font-size="11" fill="#94a3b8">2090</text>
<line x1="52" y1="135.5" x2="872" y2="135.5" stroke="#f1f5f9"/>
<text x="44" y="139.5" text-anchor="end" font-family="Inter, system-ui, sans-serif" font-size="11" fill="#94a3b8">3135</text>
<line x1="52" y1="90.0" x2="872" y2="90.0" stroke="#f1f5f9"/>
<text x="44" y="94.0" text-anchor="end" font-family="Inter, system-ui, sans-serif" font-size="11" fill="#94a3b8">4180</text>
<polygon points="52.0,272.0 52.0,272.0 54.2,271.9 81.0,271.4 83.3,271.3 85.5,271.3 92.2,271.2 105.6,271.2 134.7,271.1 136.9,270.7 139.1,270.7 145.8,270.6 148.1,270.6 150.3,270.5 152.5,270.4 157.0,270.3 159.2,270.1 166.0,270.0 174.9,269.9 177.1,269.7 179.4,269.6 197.2,269.6 201.7,269.6 212.9,269.5 215.1,269.5 217.3,269.4 226.3,269.3 228.5,269.1 230.7,268.9 233.0,268.3 235.2,268.2 250.9,268.2 257.6,268.1 262.0,268.1 264.3,268.0 266.5,267.8 268.7,267.8 271.0,267.7 273.2,267.6 275.4,267.5 284.4,267.3 288.8,267.2 297.8,267.2 300.0,266.9 302.2,266.9 304.5,266.8 308.9,266.8 311.2,265.9 313.4,265.0 315.7,264.7 317.9,264.5 320.1,264.4 322.4,264.2 324.6,263.9 326.8,263.7 329.1,263.6 331.3,263.5 335.8,263.3 338.0,263.0 340.2,262.6 342.5,262.3 344.7,262.1 349.2,262.0 353.6,261.9 355.9,261.6 358.1,261.4 360.3,260.8 362.6,260.5 364.8,260.1 367.0,259.8 369.3,259.4 371.5,259.0 373.7,258.5 376.0,258.1 378.2,257.6 380.4,257.2 382.7,257.0 384.9,256.7 387.1,256.3 389.4,256.2 391.6,255.9 393.9,255.7 396.1,255.6 398.3,255.5 402.8,255.5 405.0,254.6 407.3,254.0 409.5,253.9 411.7,253.8 416.2,253.8 418.4,253.6 427.4,253.6 431.8,253.5 438.5,253.5 440.8,252.5 443.0,251.5 445.2,251.2 447.5,250.4 449.7,249.8 451.9,249.4 454.2,249.2 456.4,248.8 458.6,248.7 460.9,248.6 463.1,248.4 465.4,248.3 478.8,247.6 481.0,246.7 483.2,246.6 485.5,246.5 487.7,246.4 503.3,246.4 523.4,245.5 525.7,244.8 527.9,244.0 530.1,242.7 532.4,242.5 534.6,242.1 536.9,241.4 539.1,240.9 541.3,239.7 543.6,238.0 545.8,236.3 548.0,234.3 550.3,232.2 552.5,230.4 554.7,229.2 557.0,227.9 559.2,225.9 561.4,224.2 563.7,223.1 565.9,221.9 568.1,220.2 570.4,219.2 572.6,218.1 574.8,217.2 577.1,216.5 579.3,215.6 581.5,215.0 583.8,214.4 586.0,213.9 588.2,212.3 590.5,211.1 592.7,210.4 594.9,210.2 597.2,209.8 599.4,209.1 601.6,208.6 603.9,207.5 606.1,206.9 608.3,206.3 610.6,206.2 612.8,205.9 615.1,205.4 617.3,204.2 619.5,202.1 621.8,200.0 624.0,197.9 626.2,196.1 628.5,194.1 630.7,191.9 632.9,189.7 635.2,187.6 637.4,186.1 639.6,185.0 641.9,183.6 644.1,182.3 646.3,181.4 648.6,180.4 650.8,179.6 653.0,178.5 655.3,177.0 657.5,175.1 659.7,173.6 662.0,172.2 664.2,171.4 666.4,170.6 668.7,169.8 670.9,168.9 673.1,167.5 675.4,166.2 677.6,164.7 679.8,163.1 682.1,161.8 684.3,160.8 686.6,160.3 688.8,159.7 691.0,159.1 693.3,159.0 695.5,158.9 697.7,158.6 700.0,158.5 702.2,158.4 704.4,158.2 706.7,158.1 713.4,158.1 715.6,158.1 717.8,157.8 720.1,156.0 722.3,154.5 724.5,153.1 726.8,151.6 729.0,150.3 731.2,148.9 733.5,147.5 735.7,146.2 737.9,144.7 740.2,143.4 742.4,142.1 744.6,140.8 746.9,139.5 749.1,138.2 751.3,136.9 753.6,135.8 755.8,134.6 758.0,133.4 760.3,132.2 762.5,131.1 764.8,129.9 767.0,129.1 769.2,128.3 771.5,127.5 773.7,126.4 775.9,125.4 778.2,124.4 780.4,123.3 782.6,122.3 784.9,121.3 787.1,120.3 789.3,119.3 791.6,118.3 793.8,117.3 796.0,116.2 798.3,115.3 800.5,114.3 802.7,113.4 805.0,112.6 807.2,111.6 809.4,110.7 811.7,109.9 813.9,109.2 816.1,108.5 818.4,108.1 820.6,108.0 822.8,107.1 825.1,106.2 827.3,105.4 829.5,104.5 831.8,103.7 834.0,102.8 836.3,102.0 838.5,101.2 840.7,100.4 843.0,99.7 845.2,98.9 847.4,98.2 849.7,97.3 851.9,96.6 854.1,95.8 856.4,95.1 858.6,94.3 860.8,93.7 863.1,92.8 865.3,92.2 867.5,91.6 869.8,90.7 872.0,90.0 872.0,272.0" fill="#e0f2fe" opacity="0.55"/>
<polyline points="52.0,272.0 54.2,271.9 81.0,271.4 83.3,271.3 85.5,271.3 92.2,271.2 105.6,271.2 134.7,271.1 136.9,270.7 139.1,270.7 145.8,270.6 148.1,270.6 150.3,270.5 152.5,270.4 157.0,270.3 159.2,270.1 166.0,270.0 174.9,269.9 177.1,269.7 179.4,269.6 197.2,269.6 201.7,269.6 212.9,269.5 215.1,269.5 217.3,269.4 226.3,269.3 228.5,269.1 230.7,268.9 233.0,268.3 235.2,268.2 250.9,268.2 257.6,268.1 262.0,268.1 264.3,268.0 266.5,267.8 268.7,267.8 271.0,267.7 273.2,267.6 275.4,267.5 284.4,267.3 288.8,267.2 297.8,267.2 300.0,266.9 302.2,266.9 304.5,266.8 308.9,266.8 311.2,265.9 313.4,265.0 315.7,264.7 317.9,264.5 320.1,264.4 322.4,264.2 324.6,263.9 326.8,263.7 329.1,263.6 331.3,263.5 335.8,263.3 338.0,263.0 340.2,262.6 342.5,262.3 344.7,262.1 349.2,262.0 353.6,261.9 355.9,261.6 358.1,261.4 360.3,260.8 362.6,260.5 364.8,260.1 367.0,259.8 369.3,259.4 371.5,259.0 373.7,258.5 376.0,258.1 378.2,257.6 380.4,257.2 382.7,257.0 384.9,256.7 387.1,256.3 389.4,256.2 391.6,255.9 393.9,255.7 396.1,255.6 398.3,255.5 402.8,255.5 405.0,254.6 407.3,254.0 409.5,253.9 411.7,253.8 416.2,253.8 418.4,253.6 427.4,253.6 431.8,253.5 438.5,253.5 440.8,252.5 443.0,251.5 445.2,251.2 447.5,250.4 449.7,249.8 451.9,249.4 454.2,249.2 456.4,248.8 458.6,248.7 460.9,248.6 463.1,248.4 465.4,248.3 478.8,247.6 481.0,246.7 483.2,246.6 485.5,246.5 487.7,246.4 503.3,246.4 523.4,245.5 525.7,244.8 527.9,244.0 530.1,242.7 532.4,242.5 534.6,242.1 536.9,241.4 539.1,240.9 541.3,239.7 543.6,238.0 545.8,236.3 548.0,234.3 550.3,232.2 552.5,230.4 554.7,229.2 557.0,227.9 559.2,225.9 561.4,224.2 563.7,223.1 565.9,221.9 568.1,220.2 570.4,219.2 572.6,218.1 574.8,217.2 577.1,216.5 579.3,215.6 581.5,215.0 583.8,214.4 586.0,213.9 588.2,212.3 590.5,211.1 592.7,210.4 594.9,210.2 597.2,209.8 599.4,209.1 601.6,208.6 603.9,207.5 606.1,206.9 608.3,206.3 610.6,206.2 612.8,205.9 615.1,205.4 617.3,204.2 619.5,202.1 621.8,200.0 624.0,197.9 626.2,196.1 628.5,194.1 630.7,191.9 632.9,189.7 635.2,187.6 637.4,186.1 639.6,185.0 641.9,183.6 644.1,182.3 646.3,181.4 648.6,180.4 650.8,179.6 653.0,178.5 655.3,177.0 657.5,175.1 659.7,173.6 662.0,172.2 664.2,171.4 666.4,170.6 668.7,169.8 670.9,168.9 673.1,167.5 675.4,166.2 677.6,164.7 679.8,163.1 682.1,161.8 684.3,160.8 686.6,160.3 688.8,159.7 691.0,159.1 693.3,159.0 695.5,158.9 697.7,158.6 700.0,158.5 702.2,158.4 704.4,158.2 706.7,158.1 713.4,158.1 715.6,158.1 717.8,157.8 720.1,156.0 722.3,154.5 724.5,153.1 726.8,151.6 729.0,150.3 731.2,148.9 733.5,147.5 735.7,146.2 737.9,144.7 740.2,143.4 742.4,142.1 744.6,140.8 746.9,139.5 749.1,138.2 751.3,136.9 753.6,135.8 755.8,134.6 758.0,133.4 760.3,132.2 762.5,131.1 764.8,129.9 767.0,129.1 769.2,128.3 771.5,127.5 773.7,126.4 775.9,125.4 778.2,124.4 780.4,123.3 782.6,122.3 784.9,121.3 787.1,120.3 789.3,119.3 791.6,118.3 793.8,117.3 796.0,116.2 798.3,115.3 800.5,114.3 802.7,113.4 805.0,112.6 807.2,111.6 809.4,110.7 811.7,109.9 813.9,109.2 816.1,108.5 818.4,108.1 820.6,108.0 822.8,107.1 825.1,106.2 827.3,105.4 829.5,104.5 831.8,103.7 834.0,102.8 836.3,102.0 838.5,101.2 840.7,100.4 843.0,99.7 845.2,98.9 847.4,98.2 849.7,97.3 851.9,96.6 854.1,95.8 856.4,95.1 858.6,94.3 860.8,93.7 863.1,92.8 865.3,92.2 867.5,91.6 869.8,90.7 872.0,90.0" fill="none" stroke="#38bdf8" stroke-width="2.5" stroke-linejoin="round" stroke-linecap="round"/>
<circle cx="872.0" cy="90.0" r="4" fill="#0ea5e9"/>
<text x="866.0" y="80.0" text-anchor="end" font-family="Inter, system-ui, sans-serif" font-size="13" font-weight="700" fill="#334155">4180</text>
<text x="52.0" y="294" text-anchor="middle" font-family="Inter, system-ui, sans-serif" font-size="11" fill="#94a3b8">Jun 10 05:00</text>
<text x="572.6" y="294" text-anchor="middle" font-family="Inter, system-ui, sans-serif" font-size="11" fill="#94a3b8">Jun 19 22:00</text>
<text x="872.0" y="294" text-anchor="middle" font-family="Inter, system-ui, sans-serif" font-size="11" fill="#94a3b8">Jun 25 12:00</text>
</svg>
