<svg xmlns="http://www.w3.org/2000/svg" width="900" height="320" viewBox="0 0 900 320" role="img" aria-labelledby="title desc">
<title id="title">unsorry proofs over time</title>
<desc id="desc">Cumulative kernel-verified proofs over time, by the hour each proof was merged.</desc>
<rect width="900" height="100%" rx="18" fill="#ffffff"/>
<rect x="0.5" y="0.5" width="899" height="319" rx="18" fill="none" stroke="#e2e8f0"/>
<text x="32" y="44" font-family="Inter, system-ui, sans-serif" font-size="28" font-weight="700" fill="#334155">unsorry — Proofs Over Time</text>
<text x="32" y="72" font-family="Inter, system-ui, sans-serif" font-size="13" fill="#64748b">3682 cumulative kernel-verified proofs · merged, hourly</text>
<line x1="52" y1="272.0" x2="872" y2="272.0" stroke="#f1f5f9"/>
<text x="44" y="276.0" text-anchor="end" font-family="Inter, system-ui, sans-serif" font-size="11" fill="#94a3b8">0</text>
<line x1="52" y1="226.5" x2="872" y2="226.5" stroke="#f1f5f9"/>
<text x="44" y="230.5" text-anchor="end" font-family="Inter, system-ui, sans-serif" font-size="11" fill="#94a3b8">920</text>
<line x1="52" y1="181.0" x2="872" y2="181.0" stroke="#f1f5f9"/>
<text x="44" y="185.0" text-anchor="end" font-family="Inter, system-ui, sans-serif" font-size="11" fill="#94a3b8">1841</text>
<line x1="52" y1="135.5" x2="872" y2="135.5" stroke="#f1f5f9"/>
<text x="44" y="139.5" text-anchor="end" font-family="Inter, system-ui, sans-serif" font-size="11" fill="#94a3b8">2762</text>
<line x1="52" y1="90.0" x2="872" y2="90.0" stroke="#f1f5f9"/>
<text x="44" y="94.0" text-anchor="end" font-family="Inter, system-ui, sans-serif" font-size="11" fill="#94a3b8">3682</text>
<polygon points="52.0,272.0 52.0,272.0 54.4,271.9 83.5,271.4 86.0,271.2 88.4,271.2 95.7,271.1 110.2,271.1 141.8,271.0 144.2,270.6 146.6,270.5 153.9,270.4 156.3,270.4 158.7,270.3 161.2,270.2 166.0,270.1 168.4,269.9 175.7,269.7 185.4,269.6 187.9,269.4 190.3,269.3 209.7,269.3 214.5,269.2 226.7,269.2 229.1,269.1 231.5,269.0 241.2,269.0 243.7,268.7 246.1,268.4 248.5,267.8 250.9,267.7 267.9,267.7 275.2,267.6 280.0,267.6 282.5,267.5 284.9,267.3 287.3,267.2 289.8,267.2 292.2,267.0 294.6,266.9 304.3,266.6 309.2,266.6 318.9,266.5 321.3,266.3 323.7,266.2 326.1,266.1 331.0,266.1 333.4,265.1 335.8,264.1 338.3,263.7 340.7,263.5 343.1,263.4 345.6,263.2 348.0,262.8 350.4,262.6 352.8,262.4 355.3,262.3 360.1,262.2 362.5,261.8 365.0,261.4 367.4,261.0 369.8,260.7 374.7,260.6 379.5,260.6 381.9,260.2 384.4,260.0 386.8,259.3 389.2,258.9 391.6,258.5 394.1,258.1 396.5,257.7 398.9,257.2 401.3,256.7 403.8,256.2 406.2,255.7 408.6,255.2 411.1,254.9 413.5,254.6 415.9,254.2 418.3,254.0 420.8,253.8 423.2,253.5 425.6,253.4 428.0,253.3 432.9,253.3 435.3,252.3 437.7,251.6 440.2,251.4 442.6,251.4 447.4,251.3 449.9,251.1 459.6,251.1 464.4,251.0 471.7,250.9 474.1,249.8 476.6,248.7 479.0,248.4 481.4,247.5 483.8,246.8 486.3,246.4 488.7,246.1 491.1,245.7 493.5,245.5 496.0,245.4 498.4,245.2 500.8,245.1 515.4,244.3 517.8,243.3 520.2,243.2 522.7,243.0 525.1,243.0 542.1,242.9 563.9,241.9 566.3,241.1 568.7,240.2 571.2,238.8 573.6,238.5 576.0,238.1 578.4,237.3 580.9,236.7 583.3,235.4 585.7,233.4 588.2,231.5 590.6,229.2 593.0,226.8 595.4,224.7 597.9,223.5 600.3,221.9 602.7,219.7 605.1,217.7 607.6,216.4 610.0,215.1 612.4,213.2 614.8,212.0 617.3,210.9 619.7,209.8 622.1,209.0 624.5,208.0 627.0,207.3 629.4,206.7 631.8,206.1 634.2,204.3 636.7,202.8 639.1,202.1 641.5,201.8 644.0,201.4 646.4,200.6 648.8,200.0 651.2,198.8 653.7,198.1 656.1,197.4 658.5,197.3 660.9,197.0 663.4,196.4 665.8,195.0 668.2,192.7 670.6,190.2 673.1,187.8 675.5,185.8 677.9,183.5 680.3,181.0 682.8,178.5 685.2,176.2 687.6,174.5 690.0,173.2 692.5,171.7 694.9,170.2 697.3,169.2 699.8,168.0 702.2,167.1 704.6,165.8 707.0,164.1 709.5,162.0 711.9,160.3 714.3,158.8 716.7,157.8 719.2,156.9 721.6,156.0 724.0,155.0 726.4,153.3 728.9,151.9 731.3,150.2 733.7,148.4 736.1,146.9 738.6,145.7 741.0,145.2 743.4,144.5 745.8,143.8 748.3,143.7 750.7,143.6 753.1,143.3 755.6,143.1 758.0,143.1 760.4,142.8 762.8,142.7 770.1,142.7 772.5,142.6 775.0,142.3 777.4,140.3 779.8,138.6 782.2,137.1 784.7,135.3 787.1,133.8 789.5,132.3 791.9,130.6 794.4,129.1 796.8,127.5 799.2,126.0 801.6,124.5 804.1,123.0 806.5,121.6 808.9,120.1 811.3,118.7 813.8,117.4 816.2,116.0 818.6,114.7 821.1,113.3 823.5,112.0 825.9,110.7 828.3,109.8 830.8,108.9 833.2,108.0 835.6,106.7 838.0,105.6 840.5,104.5 842.9,103.1 845.3,102.0 847.7,101.0 850.2,99.8 852.6,98.6 855.0,97.5 857.4,96.4 859.9,95.1 862.3,94.1 864.7,92.9 867.1,92.0 869.6,91.0 872.0,90.0 872.0,272.0" fill="#e0f2fe" opacity="0.55"/>
<polyline points="52.0,272.0 54.4,271.9 83.5,271.4 86.0,271.2 88.4,271.2 95.7,271.1 110.2,271.1 141.8,271.0 144.2,270.6 146.6,270.5 153.9,270.4 156.3,270.4 158.7,270.3 161.2,270.2 166.0,270.1 168.4,269.9 175.7,269.7 185.4,269.6 187.9,269.4 190.3,269.3 209.7,269.3 214.5,269.2 226.7,269.2 229.1,269.1 231.5,269.0 241.2,269.0 243.7,268.7 246.1,268.4 248.5,267.8 250.9,267.7 267.9,267.7 275.2,267.6 280.0,267.6 282.5,267.5 284.9,267.3 287.3,267.2 289.8,267.2 292.2,267.0 294.6,266.9 304.3,266.6 309.2,266.6 318.9,266.5 321.3,266.3 323.7,266.2 326.1,266.1 331.0,266.1 333.4,265.1 335.8,264.1 338.3,263.7 340.7,263.5 343.1,263.4 345.6,263.2 348.0,262.8 350.4,262.6 352.8,262.4 355.3,262.3 360.1,262.2 362.5,261.8 365.0,261.4 367.4,261.0 369.8,260.7 374.7,260.6 379.5,260.6 381.9,260.2 384.4,260.0 386.8,259.3 389.2,258.9 391.6,258.5 394.1,258.1 396.5,257.7 398.9,257.2 401.3,256.7 403.8,256.2 406.2,255.7 408.6,255.2 411.1,254.9 413.5,254.6 415.9,254.2 418.3,254.0 420.8,253.8 423.2,253.5 425.6,253.4 428.0,253.3 432.9,253.3 435.3,252.3 437.7,251.6 440.2,251.4 442.6,251.4 447.4,251.3 449.9,251.1 459.6,251.1 464.4,251.0 471.7,250.9 474.1,249.8 476.6,248.7 479.0,248.4 481.4,247.5 483.8,246.8 486.3,246.4 488.7,246.1 491.1,245.7 493.5,245.5 496.0,245.4 498.4,245.2 500.8,245.1 515.4,244.3 517.8,243.3 520.2,243.2 522.7,243.0 525.1,243.0 542.1,242.9 563.9,241.9 566.3,241.1 568.7,240.2 571.2,238.8 573.6,238.5 576.0,238.1 578.4,237.3 580.9,236.7 583.3,235.4 585.7,233.4 588.2,231.5 590.6,229.2 593.0,226.8 595.4,224.7 597.9,223.5 600.3,221.9 602.7,219.7 605.1,217.7 607.6,216.4 610.0,215.1 612.4,213.2 614.8,212.0 617.3,210.9 619.7,209.8 622.1,209.0 624.5,208.0 627.0,207.3 629.4,206.7 631.8,206.1 634.2,204.3 636.7,202.8 639.1,202.1 641.5,201.8 644.0,201.4 646.4,200.6 648.8,200.0 651.2,198.8 653.7,198.1 656.1,197.4 658.5,197.3 660.9,197.0 663.4,196.4 665.8,195.0 668.2,192.7 670.6,190.2 673.1,187.8 675.5,185.8 677.9,183.5 680.3,181.0 682.8,178.5 685.2,176.2 687.6,174.5 690.0,173.2 692.5,171.7 694.9,170.2 697.3,169.2 699.8,168.0 702.2,167.1 704.6,165.8 707.0,164.1 709.5,162.0 711.9,160.3 714.3,158.8 716.7,157.8 719.2,156.9 721.6,156.0 724.0,155.0 726.4,153.3 728.9,151.9 731.3,150.2 733.7,148.4 736.1,146.9 738.6,145.7 741.0,145.2 743.4,144.5 745.8,143.8 748.3,143.7 750.7,143.6 753.1,143.3 755.6,143.1 758.0,143.1 760.4,142.8 762.8,142.7 770.1,142.7 772.5,142.6 775.0,142.3 777.4,140.3 779.8,138.6 782.2,137.1 784.7,135.3 787.1,133.8 789.5,132.3 791.9,130.6 794.4,129.1 796.8,127.5 799.2,126.0 801.6,124.5 804.1,123.0 806.5,121.6 808.9,120.1 811.3,118.7 813.8,117.4 816.2,116.0 818.6,114.7 821.1,113.3 823.5,112.0 825.9,110.7 828.3,109.8 830.8,108.9 833.2,108.0 835.6,106.7 838.0,105.6 840.5,104.5 842.9,103.1 845.3,102.0 847.7,101.0 850.2,99.8 852.6,98.6 855.0,97.5 857.4,96.4 859.9,95.1 862.3,94.1 864.7,92.9 867.1,92.0 869.6,91.0 872.0,90.0" fill="none" stroke="#38bdf8" stroke-width="2.5" stroke-linejoin="round" stroke-linecap="round"/>
<circle cx="872.0" cy="90.0" r="4" fill="#0ea5e9"/>
<text x="866.0" y="80.0" text-anchor="end" font-family="Inter, system-ui, sans-serif" font-size="13" font-weight="700" fill="#334155">3682</text>
<text x="52.0" y="294" text-anchor="middle" font-family="Inter, system-ui, sans-serif" font-size="11" fill="#94a3b8">Jun 10 05:00</text>
<text x="580.9" y="294" text-anchor="middle" font-family="Inter, system-ui, sans-serif" font-size="11" fill="#94a3b8">Jun 19 07:00</text>
<text x="872.0" y="294" text-anchor="middle" font-family="Inter, system-ui, sans-serif" font-size="11" fill="#94a3b8">Jun 24 07:00</text>
</svg>
