<svg xmlns="http://www.w3.org/2000/svg" width="900" height="320" viewBox="0 0 900 320" role="img" aria-labelledby="title desc">
<title id="title">Unsorry proofs over time</title>
<desc id="desc">Cumulative kernel-verified proofs over time, by the hour each proof was merged.</desc>
<rect width="900" height="100%" rx="18" fill="#ffffff"/>
<rect x="0.5" y="0.5" width="899" height="319" rx="18" fill="none" stroke="#e2e8f0"/>
<text x="32" y="44" font-family="Inter, system-ui, sans-serif" font-size="28" font-weight="700" fill="#334155">Unsorry — Proofs Over Time</text>
<text x="32" y="72" font-family="Inter, system-ui, sans-serif" font-size="13" fill="#64748b">2326 cumulative kernel-verified proofs · merged, hourly</text>
<line x1="52" y1="272.0" x2="872" y2="272.0" stroke="#f1f5f9"/>
<text x="44" y="276.0" text-anchor="end" font-family="Inter, system-ui, sans-serif" font-size="11" fill="#94a3b8">0</text>
<line x1="52" y1="226.5" x2="872" y2="226.5" stroke="#f1f5f9"/>
<text x="44" y="230.5" text-anchor="end" font-family="Inter, system-ui, sans-serif" font-size="11" fill="#94a3b8">582</text>
<line x1="52" y1="181.0" x2="872" y2="181.0" stroke="#f1f5f9"/>
<text x="44" y="185.0" text-anchor="end" font-family="Inter, system-ui, sans-serif" font-size="11" fill="#94a3b8">1163</text>
<line x1="52" y1="135.5" x2="872" y2="135.5" stroke="#f1f5f9"/>
<text x="44" y="139.5" text-anchor="end" font-family="Inter, system-ui, sans-serif" font-size="11" fill="#94a3b8">1744</text>
<line x1="52" y1="90.0" x2="872" y2="90.0" stroke="#f1f5f9"/>
<text x="44" y="94.0" text-anchor="end" font-family="Inter, system-ui, sans-serif" font-size="11" fill="#94a3b8">2326</text>
<polygon points="52.0,272.0 52.0,271.9 55.0,271.8 90.8,271.0 93.7,270.7 96.7,270.7 105.7,270.6 123.6,270.5 162.3,270.4 165.3,269.7 168.3,269.7 177.2,269.5 180.2,269.4 183.2,269.3 186.2,269.1 192.1,269.0 195.1,268.6 204.1,268.3 216.0,268.2 219.0,267.9 222.0,267.8 245.8,267.7 251.8,267.6 266.7,267.5 269.7,267.5 272.7,267.3 284.6,267.2 287.6,266.8 290.5,266.4 293.5,265.3 296.5,265.2 317.4,265.1 326.3,265.0 332.3,265.0 335.3,264.9 338.3,264.5 341.2,264.4 344.2,264.3 347.2,264.1 350.2,263.9 362.1,263.5 368.1,263.4 380.0,263.3 383.0,262.9 386.0,262.8 388.9,262.7 394.9,262.6 397.9,261.0 400.9,259.5 403.9,258.9 406.8,258.5 409.8,258.4 412.8,258.0 415.8,257.4 418.8,257.1 421.7,256.8 424.7,256.7 430.7,256.4 433.7,255.8 436.7,255.2 439.6,254.6 442.6,254.2 448.6,254.0 454.5,253.9 457.5,253.4 460.5,253.0 463.5,251.9 466.5,251.3 469.5,250.6 472.4,250.0 475.4,249.3 478.4,248.6 481.4,247.8 484.4,247.0 487.3,246.2 490.3,245.5 493.3,245.0 496.3,244.5 499.3,243.8 502.3,243.5 505.2,243.1 508.2,242.7 511.2,242.6 514.2,242.4 520.1,242.3 523.1,240.8 526.1,239.7 529.1,239.4 532.1,239.4 538.0,239.2 541.0,239.0 552.9,238.9 558.9,238.7 567.9,238.7 570.8,236.9 573.8,235.1 576.8,234.7 579.8,233.3 582.8,232.2 585.7,231.5 588.7,231.1 591.7,230.4 594.7,230.1 597.7,229.9 600.7,229.6 603.6,229.4 621.5,228.2 624.5,226.6 627.5,226.4 630.5,226.1 633.5,226.1 654.3,226.0 681.2,224.3 684.1,223.1 687.1,221.6 690.1,219.4 693.1,219.0 696.1,218.3 699.1,217.1 702.0,216.1 705.0,214.0 708.0,210.9 711.0,207.8 714.0,204.2 716.9,200.5 719.9,197.2 722.9,195.2 725.9,192.7 728.9,189.1 731.9,186.1 734.8,184.1 737.8,181.9 740.8,179.0 743.8,177.1 746.8,175.2 749.7,173.6 752.7,172.3 755.7,170.7 758.7,169.7 761.7,168.6 764.7,167.6 767.6,164.8 770.6,162.5 773.6,161.3 776.6,160.9 779.6,160.2 782.5,159.0 785.5,158.0 788.5,156.1 791.5,154.9 794.5,153.8 797.5,153.7 800.4,153.2 803.4,152.4 806.4,150.1 809.4,146.4 812.4,142.6 815.3,138.7 818.3,135.6 821.3,131.9 824.3,128.0 827.3,124.0 830.3,120.4 833.2,117.7 836.2,115.6 839.2,113.2 842.2,110.8 845.2,109.2 848.1,107.4 851.1,106.0 854.1,103.9 857.1,101.2 860.1,97.9 863.1,95.2 866.0,92.7 869.0,91.2 872.0,90.0 872.0,272.0" fill="#e0f2fe" opacity="0.55"/>
<polyline points="52.0,271.9 55.0,271.8 90.8,271.0 93.7,270.7 96.7,270.7 105.7,270.6 123.6,270.5 162.3,270.4 165.3,269.7 168.3,269.7 177.2,269.5 180.2,269.4 183.2,269.3 186.2,269.1 192.1,269.0 195.1,268.6 204.1,268.3 216.0,268.2 219.0,267.9 222.0,267.8 245.8,267.7 251.8,267.6 266.7,267.5 269.7,267.5 272.7,267.3 284.6,267.2 287.6,266.8 290.5,266.4 293.5,265.3 296.5,265.2 317.4,265.1 326.3,265.0 332.3,265.0 335.3,264.9 338.3,264.5 341.2,264.4 344.2,264.3 347.2,264.1 350.2,263.9 362.1,263.5 368.1,263.4 380.0,263.3 383.0,262.9 386.0,262.8 388.9,262.7 394.9,262.6 397.9,261.0 400.9,259.5 403.9,258.9 406.8,258.5 409.8,258.4 412.8,258.0 415.8,257.4 418.8,257.1 421.7,256.8 424.7,256.7 430.7,256.4 433.7,255.8 436.7,255.2 439.6,254.6 442.6,254.2 448.6,254.0 454.5,253.9 457.5,253.4 460.5,253.0 463.5,251.9 466.5,251.3 469.5,250.6 472.4,250.0 475.4,249.3 478.4,248.6 481.4,247.8 484.4,247.0 487.3,246.2 490.3,245.5 493.3,245.0 496.3,244.5 499.3,243.8 502.3,243.5 505.2,243.1 508.2,242.7 511.2,242.6 514.2,242.4 520.1,242.3 523.1,240.8 526.1,239.7 529.1,239.4 532.1,239.4 538.0,239.2 541.0,239.0 552.9,238.9 558.9,238.7 567.9,238.7 570.8,236.9 573.8,235.1 576.8,234.7 579.8,233.3 582.8,232.2 585.7,231.5 588.7,231.1 591.7,230.4 594.7,230.1 597.7,229.9 600.7,229.6 603.6,229.4 621.5,228.2 624.5,226.6 627.5,226.4 630.5,226.1 633.5,226.1 654.3,226.0 681.2,224.3 684.1,223.1 687.1,221.6 690.1,219.4 693.1,219.0 696.1,218.3 699.1,217.1 702.0,216.1 705.0,214.0 708.0,210.9 711.0,207.8 714.0,204.2 716.9,200.5 719.9,197.2 722.9,195.2 725.9,192.7 728.9,189.1 731.9,186.1 734.8,184.1 737.8,181.9 740.8,179.0 743.8,177.1 746.8,175.2 749.7,173.6 752.7,172.3 755.7,170.7 758.7,169.7 761.7,168.6 764.7,167.6 767.6,164.8 770.6,162.5 773.6,161.3 776.6,160.9 779.6,160.2 782.5,159.0 785.5,158.0 788.5,156.1 791.5,154.9 794.5,153.8 797.5,153.7 800.4,153.2 803.4,152.4 806.4,150.1 809.4,146.4 812.4,142.6 815.3,138.7 818.3,135.6 821.3,131.9 824.3,128.0 827.3,124.0 830.3,120.4 833.2,117.7 836.2,115.6 839.2,113.2 842.2,110.8 845.2,109.2 848.1,107.4 851.1,106.0 854.1,103.9 857.1,101.2 860.1,97.9 863.1,95.2 866.0,92.7 869.0,91.2 872.0,90.0" fill="none" stroke="#38bdf8" stroke-width="2.5" stroke-linejoin="round" stroke-linecap="round"/>
<circle cx="872.0" cy="90.0" r="4" fill="#0ea5e9"/>
<text x="866.0" y="80.0" text-anchor="end" font-family="Inter, system-ui, sans-serif" font-size="13" font-weight="700" fill="#334155">2326</text>
<text x="52.0" y="294" text-anchor="middle" font-family="Inter, system-ui, sans-serif" font-size="11" fill="#94a3b8">Jun 10 05:00</text>
<text x="538.0" y="294" text-anchor="middle" font-family="Inter, system-ui, sans-serif" font-size="11" fill="#94a3b8">Jun 17 00:00</text>
<text x="872.0" y="294" text-anchor="middle" font-family="Inter, system-ui, sans-serif" font-size="11" fill="#94a3b8">Jun 21 16:00</text>
</svg>
