<svg xmlns="http://www.w3.org/2000/svg" width="900" height="320" viewBox="0 0 900 320" role="img" aria-labelledby="title desc">
<title id="title">unsorry proofs over time</title>
<desc id="desc">Cumulative kernel-verified proofs over time, by the hour each proof was merged.</desc>
<rect width="900" height="100%" rx="18" fill="#ffffff"/>
<rect x="0.5" y="0.5" width="899" height="319" rx="18" fill="none" stroke="#e2e8f0"/>
<text x="32" y="44" font-family="Inter, system-ui, sans-serif" font-size="28" font-weight="700" fill="#334155">unsorry — Proofs Over Time</text>
<text x="32" y="72" font-family="Inter, system-ui, sans-serif" font-size="13" fill="#64748b">4172 cumulative kernel-verified proofs · merged, hourly</text>
<line x1="52" y1="272.0" x2="872" y2="272.0" stroke="#f1f5f9"/>
<text x="44" y="276.0" text-anchor="end" font-family="Inter, system-ui, sans-serif" font-size="11" fill="#94a3b8">0</text>
<line x1="52" y1="226.5" x2="872" y2="226.5" stroke="#f1f5f9"/>
<text x="44" y="230.5" text-anchor="end" font-family="Inter, system-ui, sans-serif" font-size="11" fill="#94a3b8">1043</text>
<line x1="52" y1="181.0" x2="872" y2="181.0" stroke="#f1f5f9"/>
<text x="44" y="185.0" text-anchor="end" font-family="Inter, system-ui, sans-serif" font-size="11" fill="#94a3b8">2086</text>
<line x1="52" y1="135.5" x2="872" y2="135.5" stroke="#f1f5f9"/>
<text x="44" y="139.5" text-anchor="end" font-family="Inter, system-ui, sans-serif" font-size="11" fill="#94a3b8">3129</text>
<line x1="52" y1="90.0" x2="872" y2="90.0" stroke="#f1f5f9"/>
<text x="44" y="94.0" text-anchor="end" font-family="Inter, system-ui, sans-serif" font-size="11" fill="#94a3b8">4172</text>
<polygon points="52.0,272.0 52.0,272.0 54.2,271.9 81.0,271.4 83.3,271.3 85.5,271.3 92.2,271.2 105.6,271.2 134.7,271.1 136.9,270.7 139.1,270.7 145.8,270.6 148.1,270.6 150.3,270.5 152.5,270.4 157.0,270.3 159.2,270.1 166.0,269.9 174.9,269.9 177.1,269.7 179.4,269.6 197.2,269.6 201.7,269.6 212.9,269.5 215.1,269.5 217.3,269.4 226.3,269.3 228.5,269.1 230.7,268.9 233.0,268.3 235.2,268.2 250.9,268.2 257.6,268.1 262.0,268.1 264.3,268.0 266.5,267.8 268.7,267.8 271.0,267.7 273.2,267.6 275.4,267.5 284.4,267.2 288.8,267.2 297.8,267.2 300.0,266.9 302.2,266.9 304.5,266.8 308.9,266.8 311.2,265.9 313.4,265.0 315.7,264.7 317.9,264.5 320.1,264.4 322.4,264.2 324.6,263.9 326.8,263.7 329.1,263.5 331.3,263.4 335.8,263.3 338.0,263.0 340.2,262.6 342.5,262.3 344.7,262.1 349.2,262.0 353.6,261.9 355.9,261.6 358.1,261.4 360.3,260.8 362.6,260.4 364.8,260.1 367.0,259.7 369.3,259.3 371.5,259.0 373.7,258.5 376.0,258.0 378.2,257.6 380.4,257.2 382.7,256.9 384.9,256.6 387.1,256.3 389.4,256.1 391.6,255.9 393.9,255.7 396.1,255.6 398.3,255.5 402.8,255.5 405.0,254.6 407.3,254.0 409.5,253.9 411.7,253.8 416.2,253.7 418.4,253.6 427.4,253.5 431.8,253.5 438.5,253.4 440.8,252.4 443.0,251.5 445.2,251.2 447.5,250.4 449.7,249.8 451.9,249.4 454.2,249.2 456.4,248.8 458.6,248.6 460.9,248.5 463.1,248.4 465.4,248.3 478.8,247.6 481.0,246.7 483.2,246.6 485.5,246.4 487.7,246.4 503.3,246.3 523.4,245.4 525.7,244.7 527.9,243.9 530.1,242.7 532.4,242.5 534.6,242.1 536.9,241.4 539.1,240.9 541.3,239.7 543.6,237.9 545.8,236.2 548.0,234.2 550.3,232.1 552.5,230.3 554.7,229.2 557.0,227.8 559.2,225.8 561.4,224.1 563.7,223.0 565.9,221.8 568.1,220.1 570.4,219.1 572.6,218.0 574.8,217.1 577.1,216.4 579.3,215.5 581.5,214.9 583.8,214.3 586.0,213.8 588.2,212.2 590.5,211.0 592.7,210.3 594.9,210.1 597.2,209.7 599.4,209.0 601.6,208.4 603.9,207.4 606.1,206.7 608.3,206.1 610.6,206.0 612.8,205.8 615.1,205.3 617.3,204.0 619.5,202.0 621.8,199.8 624.0,197.7 626.2,196.0 628.5,193.9 630.7,191.7 632.9,189.5 635.2,187.5 637.4,186.0 639.6,184.8 641.9,183.4 644.1,182.1 646.3,181.3 648.6,180.2 650.8,179.4 653.0,178.3 655.3,176.8 657.5,174.9 659.7,173.4 662.0,172.1 664.2,171.2 666.4,170.4 668.7,169.6 670.9,168.7 673.1,167.3 675.4,166.0 677.6,164.5 679.8,162.9 682.1,161.6 684.3,160.5 686.6,160.1 688.8,159.5 691.0,158.9 693.3,158.8 695.5,158.7 697.7,158.4 700.0,158.3 702.2,158.2 704.4,158.0 706.7,157.9 713.4,157.9 715.6,157.8 717.8,157.6 720.1,155.8 722.3,154.3 724.5,152.9 726.8,151.4 729.0,150.0 731.2,148.7 733.5,147.2 735.7,145.9 737.9,144.5 740.2,143.2 742.4,141.8 744.6,140.5 746.9,139.3 749.1,137.9 751.3,136.7 753.6,135.6 755.8,134.4 758.0,133.1 760.3,131.9 762.5,130.8 764.8,129.6 767.0,128.8 769.2,128.0 771.5,127.3 773.7,126.1 775.9,125.1 778.2,124.2 780.4,123.0 782.6,122.0 784.9,121.1 787.1,120.0 789.3,119.0 791.6,118.0 793.8,117.0 796.0,115.9 798.3,115.0 800.5,113.9 802.7,113.1 805.0,112.3 807.2,111.3 809.4,110.4 811.7,109.5 813.9,108.8 816.1,108.2 818.4,107.8 820.6,107.7 822.8,106.8 825.1,105.9 827.3,105.1 829.5,104.1 831.8,103.4 834.0,102.5 836.3,101.7 838.5,100.9 840.7,100.1 843.0,99.3 845.2,98.6 847.4,97.9 849.7,97.0 851.9,96.3 854.1,95.5 856.4,94.7 858.6,94.0 860.8,93.3 863.1,92.4 865.3,91.8 867.5,91.2 869.8,90.3 872.0,90.0 872.0,272.0" fill="#e0f2fe" opacity="0.55"/>
<polyline points="52.0,272.0 54.2,271.9 81.0,271.4 83.3,271.3 85.5,271.3 92.2,271.2 105.6,271.2 134.7,271.1 136.9,270.7 139.1,270.7 145.8,270.6 148.1,270.6 150.3,270.5 152.5,270.4 157.0,270.3 159.2,270.1 166.0,269.9 174.9,269.9 177.1,269.7 179.4,269.6 197.2,269.6 201.7,269.6 212.9,269.5 215.1,269.5 217.3,269.4 226.3,269.3 228.5,269.1 230.7,268.9 233.0,268.3 235.2,268.2 250.9,268.2 257.6,268.1 262.0,268.1 264.3,268.0 266.5,267.8 268.7,267.8 271.0,267.7 273.2,267.6 275.4,267.5 284.4,267.2 288.8,267.2 297.8,267.2 300.0,266.9 302.2,266.9 304.5,266.8 308.9,266.8 311.2,265.9 313.4,265.0 315.7,264.7 317.9,264.5 320.1,264.4 322.4,264.2 324.6,263.9 326.8,263.7 329.1,263.5 331.3,263.4 335.8,263.3 338.0,263.0 340.2,262.6 342.5,262.3 344.7,262.1 349.2,262.0 353.6,261.9 355.9,261.6 358.1,261.4 360.3,260.8 362.6,260.4 364.8,260.1 367.0,259.7 369.3,259.3 371.5,259.0 373.7,258.5 376.0,258.0 378.2,257.6 380.4,257.2 382.7,256.9 384.9,256.6 387.1,256.3 389.4,256.1 391.6,255.9 393.9,255.7 396.1,255.6 398.3,255.5 402.8,255.5 405.0,254.6 407.3,254.0 409.5,253.9 411.7,253.8 416.2,253.7 418.4,253.6 427.4,253.5 431.8,253.5 438.5,253.4 440.8,252.4 443.0,251.5 445.2,251.2 447.5,250.4 449.7,249.8 451.9,249.4 454.2,249.2 456.4,248.8 458.6,248.6 460.9,248.5 463.1,248.4 465.4,248.3 478.8,247.6 481.0,246.7 483.2,246.6 485.5,246.4 487.7,246.4 503.3,246.3 523.4,245.4 525.7,244.7 527.9,243.9 530.1,242.7 532.4,242.5 534.6,242.1 536.9,241.4 539.1,240.9 541.3,239.7 543.6,237.9 545.8,236.2 548.0,234.2 550.3,232.1 552.5,230.3 554.7,229.2 557.0,227.8 559.2,225.8 561.4,224.1 563.7,223.0 565.9,221.8 568.1,220.1 570.4,219.1 572.6,218.0 574.8,217.1 577.1,216.4 579.3,215.5 581.5,214.9 583.8,214.3 586.0,213.8 588.2,212.2 590.5,211.0 592.7,210.3 594.9,210.1 597.2,209.7 599.4,209.0 601.6,208.4 603.9,207.4 606.1,206.7 608.3,206.1 610.6,206.0 612.8,205.8 615.1,205.3 617.3,204.0 619.5,202.0 621.8,199.8 624.0,197.7 626.2,196.0 628.5,193.9 630.7,191.7 632.9,189.5 635.2,187.5 637.4,186.0 639.6,184.8 641.9,183.4 644.1,182.1 646.3,181.3 648.6,180.2 650.8,179.4 653.0,178.3 655.3,176.8 657.5,174.9 659.7,173.4 662.0,172.1 664.2,171.2 666.4,170.4 668.7,169.6 670.9,168.7 673.1,167.3 675.4,166.0 677.6,164.5 679.8,162.9 682.1,161.6 684.3,160.5 686.6,160.1 688.8,159.5 691.0,158.9 693.3,158.8 695.5,158.7 697.7,158.4 700.0,158.3 702.2,158.2 704.4,158.0 706.7,157.9 713.4,157.9 715.6,157.8 717.8,157.6 720.1,155.8 722.3,154.3 724.5,152.9 726.8,151.4 729.0,150.0 731.2,148.7 733.5,147.2 735.7,145.9 737.9,144.5 740.2,143.2 742.4,141.8 744.6,140.5 746.9,139.3 749.1,137.9 751.3,136.7 753.6,135.6 755.8,134.4 758.0,133.1 760.3,131.9 762.5,130.8 764.8,129.6 767.0,128.8 769.2,128.0 771.5,127.3 773.7,126.1 775.9,125.1 778.2,124.2 780.4,123.0 782.6,122.0 784.9,121.1 787.1,120.0 789.3,119.0 791.6,118.0 793.8,117.0 796.0,115.9 798.3,115.0 800.5,113.9 802.7,113.1 805.0,112.3 807.2,111.3 809.4,110.4 811.7,109.5 813.9,108.8 816.1,108.2 818.4,107.8 820.6,107.7 822.8,106.8 825.1,105.9 827.3,105.1 829.5,104.1 831.8,103.4 834.0,102.5 836.3,101.7 838.5,100.9 840.7,100.1 843.0,99.3 845.2,98.6 847.4,97.9 849.7,97.0 851.9,96.3 854.1,95.5 856.4,94.7 858.6,94.0 860.8,93.3 863.1,92.4 865.3,91.8 867.5,91.2 869.8,90.3 872.0,90.0" fill="none" stroke="#38bdf8" stroke-width="2.5" stroke-linejoin="round" stroke-linecap="round"/>
<circle cx="872.0" cy="90.0" r="4" fill="#0ea5e9"/>
<text x="866.0" y="80.0" text-anchor="end" font-family="Inter, system-ui, sans-serif" font-size="13" font-weight="700" fill="#334155">4172</text>
<text x="52.0" y="294" text-anchor="middle" font-family="Inter, system-ui, sans-serif" font-size="11" fill="#94a3b8">Jun 10 05:00</text>
<text x="572.6" y="294" text-anchor="middle" font-family="Inter, system-ui, sans-serif" font-size="11" fill="#94a3b8">Jun 19 22:00</text>
<text x="872.0" y="294" text-anchor="middle" font-family="Inter, system-ui, sans-serif" font-size="11" fill="#94a3b8">Jun 25 12:00</text>
</svg>
