<svg xmlns="http://www.w3.org/2000/svg" width="900" height="320" viewBox="0 0 900 320" role="img" aria-labelledby="title desc">
<title id="title">unsorry proofs over time</title>
<desc id="desc">Cumulative kernel-verified proofs over time, by the hour each proof was merged.</desc>
<rect width="900" height="100%" rx="18" fill="#ffffff"/>
<rect x="0.5" y="0.5" width="899" height="319" rx="18" fill="none" stroke="#e2e8f0"/>
<text x="32" y="44" font-family="Inter, system-ui, sans-serif" font-size="28" font-weight="700" fill="#334155">unsorry — Proofs Over Time</text>
<text x="32" y="72" font-family="Inter, system-ui, sans-serif" font-size="13" fill="#64748b">2881 cumulative kernel-verified proofs · merged, hourly</text>
<line x1="52" y1="272.0" x2="872" y2="272.0" stroke="#f1f5f9"/>
<text x="44" y="276.0" text-anchor="end" font-family="Inter, system-ui, sans-serif" font-size="11" fill="#94a3b8">0</text>
<line x1="52" y1="226.5" x2="872" y2="226.5" stroke="#f1f5f9"/>
<text x="44" y="230.5" text-anchor="end" font-family="Inter, system-ui, sans-serif" font-size="11" fill="#94a3b8">720</text>
<line x1="52" y1="181.0" x2="872" y2="181.0" stroke="#f1f5f9"/>
<text x="44" y="185.0" text-anchor="end" font-family="Inter, system-ui, sans-serif" font-size="11" fill="#94a3b8">1440</text>
<line x1="52" y1="135.5" x2="872" y2="135.5" stroke="#f1f5f9"/>
<text x="44" y="139.5" text-anchor="end" font-family="Inter, system-ui, sans-serif" font-size="11" fill="#94a3b8">2161</text>
<line x1="52" y1="90.0" x2="872" y2="90.0" stroke="#f1f5f9"/>
<text x="44" y="94.0" text-anchor="end" font-family="Inter, system-ui, sans-serif" font-size="11" fill="#94a3b8">2881</text>
<polygon points="52.0,272.0 52.0,271.9 54.7,271.8 86.8,271.2 89.5,271.0 92.2,270.9 100.2,270.9 116.3,270.8 151.2,270.7 153.8,270.2 156.5,270.1 164.5,270.0 167.2,269.9 169.9,269.9 172.6,269.7 177.9,269.6 180.6,269.3 188.7,269.0 199.4,268.9 202.1,268.7 204.7,268.6 226.2,268.5 231.5,268.5 244.9,268.4 247.6,268.3 250.3,268.2 261.0,268.1 263.7,267.8 266.4,267.5 269.1,266.6 271.7,266.5 290.5,266.4 298.5,266.4 303.9,266.3 306.6,266.3 309.3,265.9 311.9,265.9 314.6,265.8 317.3,265.6 320.0,265.4 330.7,265.1 336.1,265.1 346.8,265.0 349.5,264.7 352.1,264.6 354.8,264.5 360.2,264.4 362.8,263.2 365.5,261.9 368.2,261.5 370.9,261.1 373.6,261.0 376.2,260.7 378.9,260.2 381.6,259.9 384.3,259.7 387.0,259.6 392.3,259.4 395.0,258.9 397.7,258.4 400.4,257.9 403.0,257.6 408.4,257.5 413.8,257.4 416.4,257.0 419.1,256.6 421.8,255.8 424.5,255.3 427.2,254.8 429.8,254.2 432.5,253.7 435.2,253.1 437.9,252.5 440.6,251.8 443.2,251.2 445.9,250.6 448.6,250.2 451.3,249.8 454.0,249.3 456.6,249.0 459.3,248.7 462.0,248.4 464.7,248.2 467.4,248.1 472.7,248.1 475.4,246.8 478.1,245.9 480.8,245.7 483.4,245.7 488.8,245.5 491.5,245.3 502.2,245.3 507.6,245.2 515.6,245.1 518.3,243.6 521.0,242.2 523.6,241.9 526.3,240.7 529.0,239.8 531.7,239.3 534.4,239.0 537.0,238.4 539.7,238.1 542.4,238.0 545.1,237.8 547.8,237.6 563.8,236.6 566.5,235.4 569.2,235.2 571.9,235.0 574.5,234.9 593.3,234.9 617.4,233.5 620.1,232.5 622.8,231.3 625.5,229.5 628.1,229.2 630.8,228.7 633.5,227.7 636.2,226.9 638.9,225.2 641.5,222.7 644.2,220.2 646.9,217.3 649.6,214.3 652.3,211.6 654.9,210.0 657.6,208.0 660.3,205.1 663.0,202.6 665.7,201.0 668.3,199.3 671.0,196.9 673.7,195.4 676.4,193.9 679.1,192.5 681.7,191.5 684.4,190.2 687.1,189.4 689.8,188.5 692.5,187.7 695.1,185.5 697.8,183.6 700.5,182.6 703.2,182.3 705.9,181.7 708.5,180.8 711.2,180.0 713.9,178.4 716.6,177.5 719.3,176.6 721.9,176.5 724.6,176.1 727.3,175.4 730.0,173.6 732.7,170.6 735.3,167.5 738.0,164.4 740.7,161.9 743.4,158.9 746.1,155.8 748.7,152.5 751.4,149.6 754.1,147.4 756.8,145.7 759.5,143.8 762.1,141.9 764.8,140.6 767.5,139.1 770.2,137.9 772.8,136.3 775.5,134.1 778.2,131.4 780.9,129.2 783.6,127.3 786.2,126.0 788.9,124.9 791.6,123.7 794.3,122.5 797.0,120.3 799.6,118.5 802.3,116.3 805.0,114.0 807.7,112.1 810.4,110.6 813.0,110.0 815.7,109.1 818.4,108.2 821.1,108.1 823.8,107.9 826.4,107.5 829.1,107.3 831.8,107.2 834.5,106.9 837.2,106.8 845.2,106.7 847.9,106.7 850.6,106.3 853.2,103.7 855.9,101.5 858.6,99.5 861.3,97.3 864.0,95.4 866.6,93.4 869.3,91.3 872.0,90.0 872.0,272.0" fill="#e0f2fe" opacity="0.55"/>
<polyline points="52.0,271.9 54.7,271.8 86.8,271.2 89.5,271.0 92.2,270.9 100.2,270.9 116.3,270.8 151.2,270.7 153.8,270.2 156.5,270.1 164.5,270.0 167.2,269.9 169.9,269.9 172.6,269.7 177.9,269.6 180.6,269.3 188.7,269.0 199.4,268.9 202.1,268.7 204.7,268.6 226.2,268.5 231.5,268.5 244.9,268.4 247.6,268.3 250.3,268.2 261.0,268.1 263.7,267.8 266.4,267.5 269.1,266.6 271.7,266.5 290.5,266.4 298.5,266.4 303.9,266.3 306.6,266.3 309.3,265.9 311.9,265.9 314.6,265.8 317.3,265.6 320.0,265.4 330.7,265.1 336.1,265.1 346.8,265.0 349.5,264.7 352.1,264.6 354.8,264.5 360.2,264.4 362.8,263.2 365.5,261.9 368.2,261.5 370.9,261.1 373.6,261.0 376.2,260.7 378.9,260.2 381.6,259.9 384.3,259.7 387.0,259.6 392.3,259.4 395.0,258.9 397.7,258.4 400.4,257.9 403.0,257.6 408.4,257.5 413.8,257.4 416.4,257.0 419.1,256.6 421.8,255.8 424.5,255.3 427.2,254.8 429.8,254.2 432.5,253.7 435.2,253.1 437.9,252.5 440.6,251.8 443.2,251.2 445.9,250.6 448.6,250.2 451.3,249.8 454.0,249.3 456.6,249.0 459.3,248.7 462.0,248.4 464.7,248.2 467.4,248.1 472.7,248.1 475.4,246.8 478.1,245.9 480.8,245.7 483.4,245.7 488.8,245.5 491.5,245.3 502.2,245.3 507.6,245.2 515.6,245.1 518.3,243.6 521.0,242.2 523.6,241.9 526.3,240.7 529.0,239.8 531.7,239.3 534.4,239.0 537.0,238.4 539.7,238.1 542.4,238.0 545.1,237.8 547.8,237.6 563.8,236.6 566.5,235.4 569.2,235.2 571.9,235.0 574.5,234.9 593.3,234.9 617.4,233.5 620.1,232.5 622.8,231.3 625.5,229.5 628.1,229.2 630.8,228.7 633.5,227.7 636.2,226.9 638.9,225.2 641.5,222.7 644.2,220.2 646.9,217.3 649.6,214.3 652.3,211.6 654.9,210.0 657.6,208.0 660.3,205.1 663.0,202.6 665.7,201.0 668.3,199.3 671.0,196.9 673.7,195.4 676.4,193.9 679.1,192.5 681.7,191.5 684.4,190.2 687.1,189.4 689.8,188.5 692.5,187.7 695.1,185.5 697.8,183.6 700.5,182.6 703.2,182.3 705.9,181.7 708.5,180.8 711.2,180.0 713.9,178.4 716.6,177.5 719.3,176.6 721.9,176.5 724.6,176.1 727.3,175.4 730.0,173.6 732.7,170.6 735.3,167.5 738.0,164.4 740.7,161.9 743.4,158.9 746.1,155.8 748.7,152.5 751.4,149.6 754.1,147.4 756.8,145.7 759.5,143.8 762.1,141.9 764.8,140.6 767.5,139.1 770.2,137.9 772.8,136.3 775.5,134.1 778.2,131.4 780.9,129.2 783.6,127.3 786.2,126.0 788.9,124.9 791.6,123.7 794.3,122.5 797.0,120.3 799.6,118.5 802.3,116.3 805.0,114.0 807.7,112.1 810.4,110.6 813.0,110.0 815.7,109.1 818.4,108.2 821.1,108.1 823.8,107.9 826.4,107.5 829.1,107.3 831.8,107.2 834.5,106.9 837.2,106.8 845.2,106.7 847.9,106.7 850.6,106.3 853.2,103.7 855.9,101.5 858.6,99.5 861.3,97.3 864.0,95.4 866.6,93.4 869.3,91.3 872.0,90.0" fill="none" stroke="#38bdf8" stroke-width="2.5" stroke-linejoin="round" stroke-linecap="round"/>
<circle cx="872.0" cy="90.0" r="4" fill="#0ea5e9"/>
<text x="866.0" y="80.0" text-anchor="end" font-family="Inter, system-ui, sans-serif" font-size="13" font-weight="700" fill="#334155">2881</text>
<text x="52.0" y="294" text-anchor="middle" font-family="Inter, system-ui, sans-serif" font-size="11" fill="#94a3b8">Jun 10 05:00</text>
<text x="542.4" y="294" text-anchor="middle" font-family="Inter, system-ui, sans-serif" font-size="11" fill="#94a3b8">Jun 17 20:00</text>
<text x="872.0" y="294" text-anchor="middle" font-family="Inter, system-ui, sans-serif" font-size="11" fill="#94a3b8">Jun 22 23:00</text>
</svg>
