<svg xmlns="http://www.w3.org/2000/svg" width="900" height="320" viewBox="0 0 900 320" role="img" aria-labelledby="title desc">
<title id="title">unsorry proofs over time</title>
<desc id="desc">Cumulative kernel-verified proofs over time, by the hour each proof was merged.</desc>
<rect width="900" height="100%" rx="18" fill="#ffffff"/>
<rect x="0.5" y="0.5" width="899" height="319" rx="18" fill="none" stroke="#e2e8f0"/>
<text x="32" y="44" font-family="Inter, system-ui, sans-serif" font-size="28" font-weight="700" fill="#334155">unsorry — Proofs Over Time</text>
<text x="32" y="72" font-family="Inter, system-ui, sans-serif" font-size="13" fill="#64748b">2635 cumulative kernel-verified proofs · merged, hourly</text>
<line x1="52" y1="272.0" x2="872" y2="272.0" stroke="#f1f5f9"/>
<text x="44" y="276.0" text-anchor="end" font-family="Inter, system-ui, sans-serif" font-size="11" fill="#94a3b8">0</text>
<line x1="52" y1="226.5" x2="872" y2="226.5" stroke="#f1f5f9"/>
<text x="44" y="230.5" text-anchor="end" font-family="Inter, system-ui, sans-serif" font-size="11" fill="#94a3b8">659</text>
<line x1="52" y1="181.0" x2="872" y2="181.0" stroke="#f1f5f9"/>
<text x="44" y="185.0" text-anchor="end" font-family="Inter, system-ui, sans-serif" font-size="11" fill="#94a3b8">1318</text>
<line x1="52" y1="135.5" x2="872" y2="135.5" stroke="#f1f5f9"/>
<text x="44" y="139.5" text-anchor="end" font-family="Inter, system-ui, sans-serif" font-size="11" fill="#94a3b8">1976</text>
<line x1="52" y1="90.0" x2="872" y2="90.0" stroke="#f1f5f9"/>
<text x="44" y="94.0" text-anchor="end" font-family="Inter, system-ui, sans-serif" font-size="11" fill="#94a3b8">2635</text>
<polygon points="52.0,272.0 52.0,271.9 54.7,271.8 87.7,271.1 90.4,270.9 93.1,270.8 101.4,270.8 117.8,270.7 153.5,270.6 156.2,270.0 159.0,269.9 167.2,269.8 169.9,269.7 172.7,269.7 175.4,269.4 180.9,269.4 183.6,269.0 191.9,268.8 202.8,268.6 205.6,268.4 208.3,268.3 230.3,268.2 235.7,268.1 249.5,268.1 252.2,268.0 254.9,267.9 265.9,267.8 268.7,267.4 271.4,267.0 274.1,266.1 276.9,266.0 296.1,265.9 304.3,265.9 309.8,265.8 312.5,265.7 315.3,265.4 318.0,265.3 320.8,265.2 323.5,265.0 326.2,264.8 337.2,264.5 342.7,264.4 353.7,264.3 356.4,264.0 359.2,263.9 361.9,263.8 367.4,263.7 370.1,262.3 372.9,260.9 375.6,260.5 378.4,260.1 381.1,260.0 383.8,259.6 386.6,259.2 389.3,258.8 392.1,258.6 394.8,258.5 400.3,258.3 403.0,257.7 405.8,257.1 408.5,256.6 411.3,256.3 416.7,256.1 422.2,256.0 425.0,255.6 427.7,255.2 430.5,254.2 433.2,253.7 435.9,253.1 438.7,252.6 441.4,252.0 444.2,251.3 446.9,250.7 449.7,249.9 452.4,249.2 455.1,248.6 457.9,248.2 460.6,247.7 463.4,247.1 466.1,246.9 468.9,246.5 471.6,246.2 474.3,246.0 477.1,245.9 482.6,245.8 485.3,244.4 488.1,243.5 490.8,243.3 493.5,243.2 499.0,243.1 501.8,242.9 512.7,242.8 518.2,242.6 526.4,242.6 529.2,241.0 531.9,239.5 534.7,239.1 537.4,237.8 540.2,236.8 542.9,236.2 545.6,235.9 548.4,235.3 551.1,235.0 553.9,234.8 556.6,234.6 559.4,234.4 575.8,233.3 578.6,231.9 581.3,231.7 584.0,231.5 586.8,231.5 606.0,231.4 630.7,229.9 633.4,228.8 636.1,227.5 638.9,225.6 641.6,225.2 644.4,224.6 647.1,223.5 649.9,222.7 652.6,220.8 655.3,218.1 658.1,215.4 660.8,212.2 663.6,208.9 666.3,206.0 669.1,204.2 671.8,202.0 674.5,198.9 677.3,196.2 680.0,194.4 682.8,192.5 685.5,189.9 688.3,188.2 691.0,186.6 693.7,185.1 696.5,184.0 699.2,182.6 702.0,181.7 704.7,180.7 707.5,179.9 710.2,177.4 712.9,175.4 715.7,174.3 718.4,173.9 721.2,173.3 723.9,172.3 726.6,171.4 729.4,169.7 732.1,168.7 734.9,167.7 737.6,167.6 740.4,167.2 743.1,166.4 745.8,164.4 748.6,161.1 751.3,157.8 754.1,154.4 756.8,151.6 759.6,148.4 762.3,144.9 765.0,141.4 767.8,138.1 770.5,135.8 773.3,133.9 776.0,131.8 778.8,129.7 781.5,128.3 784.2,126.7 787.0,125.4 789.7,123.6 792.5,121.2 795.2,118.3 798.0,115.9 800.7,113.8 803.4,112.4 806.2,111.1 808.9,109.9 811.7,108.5 814.4,106.2 817.2,104.2 819.9,101.7 822.6,99.3 825.4,97.2 828.1,95.5 830.9,94.8 833.6,93.9 836.3,92.9 839.1,92.8 841.8,92.6 844.6,92.1 847.3,91.9 850.1,91.9 852.8,91.5 855.5,91.4 863.8,91.3 866.5,91.2 869.3,90.8 872.0,90.0 872.0,272.0" fill="#e0f2fe" opacity="0.55"/>
<polyline points="52.0,271.9 54.7,271.8 87.7,271.1 90.4,270.9 93.1,270.8 101.4,270.8 117.8,270.7 153.5,270.6 156.2,270.0 159.0,269.9 167.2,269.8 169.9,269.7 172.7,269.7 175.4,269.4 180.9,269.4 183.6,269.0 191.9,268.8 202.8,268.6 205.6,268.4 208.3,268.3 230.3,268.2 235.7,268.1 249.5,268.1 252.2,268.0 254.9,267.9 265.9,267.8 268.7,267.4 271.4,267.0 274.1,266.1 276.9,266.0 296.1,265.9 304.3,265.9 309.8,265.8 312.5,265.7 315.3,265.4 318.0,265.3 320.8,265.2 323.5,265.0 326.2,264.8 337.2,264.5 342.7,264.4 353.7,264.3 356.4,264.0 359.2,263.9 361.9,263.8 367.4,263.7 370.1,262.3 372.9,260.9 375.6,260.5 378.4,260.1 381.1,260.0 383.8,259.6 386.6,259.2 389.3,258.8 392.1,258.6 394.8,258.5 400.3,258.3 403.0,257.7 405.8,257.1 408.5,256.6 411.3,256.3 416.7,256.1 422.2,256.0 425.0,255.6 427.7,255.2 430.5,254.2 433.2,253.7 435.9,253.1 438.7,252.6 441.4,252.0 444.2,251.3 446.9,250.7 449.7,249.9 452.4,249.2 455.1,248.6 457.9,248.2 460.6,247.7 463.4,247.1 466.1,246.9 468.9,246.5 471.6,246.2 474.3,246.0 477.1,245.9 482.6,245.8 485.3,244.4 488.1,243.5 490.8,243.3 493.5,243.2 499.0,243.1 501.8,242.9 512.7,242.8 518.2,242.6 526.4,242.6 529.2,241.0 531.9,239.5 534.7,239.1 537.4,237.8 540.2,236.8 542.9,236.2 545.6,235.9 548.4,235.3 551.1,235.0 553.9,234.8 556.6,234.6 559.4,234.4 575.8,233.3 578.6,231.9 581.3,231.7 584.0,231.5 586.8,231.5 606.0,231.4 630.7,229.9 633.4,228.8 636.1,227.5 638.9,225.6 641.6,225.2 644.4,224.6 647.1,223.5 649.9,222.7 652.6,220.8 655.3,218.1 658.1,215.4 660.8,212.2 663.6,208.9 666.3,206.0 669.1,204.2 671.8,202.0 674.5,198.9 677.3,196.2 680.0,194.4 682.8,192.5 685.5,189.9 688.3,188.2 691.0,186.6 693.7,185.1 696.5,184.0 699.2,182.6 702.0,181.7 704.7,180.7 707.5,179.9 710.2,177.4 712.9,175.4 715.7,174.3 718.4,173.9 721.2,173.3 723.9,172.3 726.6,171.4 729.4,169.7 732.1,168.7 734.9,167.7 737.6,167.6 740.4,167.2 743.1,166.4 745.8,164.4 748.6,161.1 751.3,157.8 754.1,154.4 756.8,151.6 759.6,148.4 762.3,144.9 765.0,141.4 767.8,138.1 770.5,135.8 773.3,133.9 776.0,131.8 778.8,129.7 781.5,128.3 784.2,126.7 787.0,125.4 789.7,123.6 792.5,121.2 795.2,118.3 798.0,115.9 800.7,113.8 803.4,112.4 806.2,111.1 808.9,109.9 811.7,108.5 814.4,106.2 817.2,104.2 819.9,101.7 822.6,99.3 825.4,97.2 828.1,95.5 830.9,94.8 833.6,93.9 836.3,92.9 839.1,92.8 841.8,92.6 844.6,92.1 847.3,91.9 850.1,91.9 852.8,91.5 855.5,91.4 863.8,91.3 866.5,91.2 869.3,90.8 872.0,90.0" fill="none" stroke="#38bdf8" stroke-width="2.5" stroke-linejoin="round" stroke-linecap="round"/>
<circle cx="872.0" cy="90.0" r="4" fill="#0ea5e9"/>
<text x="866.0" y="80.0" text-anchor="end" font-family="Inter, system-ui, sans-serif" font-size="13" font-weight="700" fill="#334155">2635</text>
<text x="52.0" y="294" text-anchor="middle" font-family="Inter, system-ui, sans-serif" font-size="11" fill="#94a3b8">Jun 10 05:00</text>
<text x="545.6" y="294" text-anchor="middle" font-family="Inter, system-ui, sans-serif" font-size="11" fill="#94a3b8">Jun 17 17:00</text>
<text x="872.0" y="294" text-anchor="middle" font-family="Inter, system-ui, sans-serif" font-size="11" fill="#94a3b8">Jun 22 16:00</text>
</svg>
