<svg xmlns="http://www.w3.org/2000/svg" width="900" height="320" viewBox="0 0 900 320" role="img" aria-labelledby="title desc">
<title id="title">unsorry proofs over time</title>
<desc id="desc">Cumulative kernel-verified proofs over time, by the hour each proof was merged.</desc>
<rect width="900" height="100%" rx="18" fill="#ffffff"/>
<rect x="0.5" y="0.5" width="899" height="319" rx="18" fill="none" stroke="#e2e8f0"/>
<text x="32" y="44" font-family="Inter, system-ui, sans-serif" font-size="28" font-weight="700" fill="#334155">unsorry — Proofs Over Time</text>
<text x="32" y="72" font-family="Inter, system-ui, sans-serif" font-size="13" fill="#64748b">3398 cumulative kernel-verified proofs · merged, hourly</text>
<line x1="52" y1="272.0" x2="872" y2="272.0" stroke="#f1f5f9"/>
<text x="44" y="276.0" text-anchor="end" font-family="Inter, system-ui, sans-serif" font-size="11" fill="#94a3b8">0</text>
<line x1="52" y1="226.5" x2="872" y2="226.5" stroke="#f1f5f9"/>
<text x="44" y="230.5" text-anchor="end" font-family="Inter, system-ui, sans-serif" font-size="11" fill="#94a3b8">850</text>
<line x1="52" y1="181.0" x2="872" y2="181.0" stroke="#f1f5f9"/>
<text x="44" y="185.0" text-anchor="end" font-family="Inter, system-ui, sans-serif" font-size="11" fill="#94a3b8">1699</text>
<line x1="52" y1="135.5" x2="872" y2="135.5" stroke="#f1f5f9"/>
<text x="44" y="139.5" text-anchor="end" font-family="Inter, system-ui, sans-serif" font-size="11" fill="#94a3b8">2548</text>
<line x1="52" y1="90.0" x2="872" y2="90.0" stroke="#f1f5f9"/>
<text x="44" y="94.0" text-anchor="end" font-family="Inter, system-ui, sans-serif" font-size="11" fill="#94a3b8">3398</text>
<polygon points="52.0,272.0 52.0,271.9 54.5,271.8 84.7,271.3 87.2,271.1 89.7,271.1 97.3,271.0 112.4,271.0 145.1,270.9 147.6,270.4 150.1,270.4 157.6,270.3 160.2,270.2 162.7,270.2 165.2,270.0 170.2,270.0 172.7,269.7 180.3,269.5 190.3,269.4 192.9,269.2 195.4,269.1 215.5,269.1 220.5,269.0 233.1,268.9 235.6,268.9 238.1,268.8 248.2,268.7 250.7,268.4 253.2,268.1 255.7,267.4 258.3,267.3 275.9,267.3 283.4,267.2 288.4,267.2 291.0,267.1 293.5,266.9 296.0,266.8 298.5,266.8 301.0,266.6 303.5,266.4 313.6,266.2 318.6,266.1 328.7,266.1 331.2,265.8 333.7,265.7 336.2,265.6 341.3,265.6 343.8,264.5 346.3,263.4 348.8,263.1 351.3,262.8 353.8,262.7 356.4,262.4 358.9,262.0 361.4,261.8 363.9,261.6 366.4,261.5 371.4,261.3 374.0,260.9 376.5,260.5 379.0,260.1 381.5,259.8 386.5,259.7 391.6,259.6 394.1,259.3 396.6,259.0 399.1,258.2 401.6,257.8 404.1,257.4 406.7,256.9 409.2,256.5 411.7,256.0 414.2,255.4 416.7,254.9 419.2,254.3 421.8,253.8 424.3,253.5 426.8,253.1 429.3,252.7 431.8,252.5 434.3,252.2 436.8,252.0 439.4,251.9 441.9,251.8 446.9,251.7 449.4,250.6 451.9,249.9 454.5,249.7 457.0,249.7 462.0,249.6 464.5,249.4 474.6,249.3 479.6,249.2 487.2,249.2 489.7,248.0 492.2,246.8 494.7,246.5 497.2,245.5 499.7,244.7 502.2,244.3 504.8,244.0 507.3,243.5 509.8,243.3 512.3,243.2 514.8,243.0 517.3,242.9 532.4,242.0 534.9,240.9 537.5,240.8 540.0,240.6 542.5,240.6 560.1,240.5 582.7,239.4 585.3,238.5 587.8,237.5 590.3,236.0 592.8,235.7 595.3,235.3 597.8,234.4 600.3,233.8 602.9,232.3 605.4,230.2 607.9,228.1 610.4,225.6 612.9,223.0 615.4,220.8 618.0,219.4 620.5,217.7 623.0,215.3 625.5,213.2 628.0,211.8 630.5,210.4 633.0,208.3 635.6,207.0 638.1,205.7 640.6,204.6 643.1,203.8 645.6,202.6 648.1,201.9 650.7,201.2 653.2,200.5 655.7,198.6 658.2,197.1 660.7,196.2 663.2,195.9 665.7,195.5 668.3,194.7 670.8,194.0 673.3,192.7 675.8,191.9 678.3,191.1 680.8,191.0 683.3,190.7 685.9,190.1 688.4,188.6 690.9,186.0 693.4,183.4 695.9,180.8 698.4,178.6 701.0,176.1 703.5,173.4 706.0,170.7 708.5,168.2 711.0,166.4 713.5,164.9 716.0,163.3 718.6,161.7 721.1,160.6 723.6,159.3 726.1,158.3 728.6,157.0 731.1,155.1 733.7,152.8 736.2,151.0 738.7,149.3 741.2,148.2 743.7,147.3 746.2,146.3 748.7,145.2 751.3,143.4 753.8,141.8 756.3,140.0 758.8,138.0 761.3,136.4 763.8,135.2 766.4,134.6 768.9,133.9 771.4,133.1 773.9,133.0 776.4,132.9 778.9,132.5 781.4,132.4 784.0,132.3 786.5,132.0 789.0,131.9 796.5,131.9 799.1,131.8 801.6,131.5 804.1,129.3 806.6,127.4 809.1,125.8 811.6,123.9 814.1,122.2 816.7,120.6 819.2,118.8 821.7,117.2 824.2,115.4 826.7,113.8 829.2,112.2 831.8,110.6 834.3,109.0 836.8,107.4 839.3,105.9 841.8,104.5 844.3,103.0 846.8,101.5 849.4,100.0 851.9,98.6 854.4,97.2 856.9,96.2 859.4,95.2 861.9,94.3 864.5,92.9 867.0,91.7 869.5,90.5 872.0,90.0 872.0,272.0" fill="#e0f2fe" opacity="0.55"/>
<polyline points="52.0,271.9 54.5,271.8 84.7,271.3 87.2,271.1 89.7,271.1 97.3,271.0 112.4,271.0 145.1,270.9 147.6,270.4 150.1,270.4 157.6,270.3 160.2,270.2 162.7,270.2 165.2,270.0 170.2,270.0 172.7,269.7 180.3,269.5 190.3,269.4 192.9,269.2 195.4,269.1 215.5,269.1 220.5,269.0 233.1,268.9 235.6,268.9 238.1,268.8 248.2,268.7 250.7,268.4 253.2,268.1 255.7,267.4 258.3,267.3 275.9,267.3 283.4,267.2 288.4,267.2 291.0,267.1 293.5,266.9 296.0,266.8 298.5,266.8 301.0,266.6 303.5,266.4 313.6,266.2 318.6,266.1 328.7,266.1 331.2,265.8 333.7,265.7 336.2,265.6 341.3,265.6 343.8,264.5 346.3,263.4 348.8,263.1 351.3,262.8 353.8,262.7 356.4,262.4 358.9,262.0 361.4,261.8 363.9,261.6 366.4,261.5 371.4,261.3 374.0,260.9 376.5,260.5 379.0,260.1 381.5,259.8 386.5,259.7 391.6,259.6 394.1,259.3 396.6,259.0 399.1,258.2 401.6,257.8 404.1,257.4 406.7,256.9 409.2,256.5 411.7,256.0 414.2,255.4 416.7,254.9 419.2,254.3 421.8,253.8 424.3,253.5 426.8,253.1 429.3,252.7 431.8,252.5 434.3,252.2 436.8,252.0 439.4,251.9 441.9,251.8 446.9,251.7 449.4,250.6 451.9,249.9 454.5,249.7 457.0,249.7 462.0,249.6 464.5,249.4 474.6,249.3 479.6,249.2 487.2,249.2 489.7,248.0 492.2,246.8 494.7,246.5 497.2,245.5 499.7,244.7 502.2,244.3 504.8,244.0 507.3,243.5 509.8,243.3 512.3,243.2 514.8,243.0 517.3,242.9 532.4,242.0 534.9,240.9 537.5,240.8 540.0,240.6 542.5,240.6 560.1,240.5 582.7,239.4 585.3,238.5 587.8,237.5 590.3,236.0 592.8,235.7 595.3,235.3 597.8,234.4 600.3,233.8 602.9,232.3 605.4,230.2 607.9,228.1 610.4,225.6 612.9,223.0 615.4,220.8 618.0,219.4 620.5,217.7 623.0,215.3 625.5,213.2 628.0,211.8 630.5,210.4 633.0,208.3 635.6,207.0 638.1,205.7 640.6,204.6 643.1,203.8 645.6,202.6 648.1,201.9 650.7,201.2 653.2,200.5 655.7,198.6 658.2,197.1 660.7,196.2 663.2,195.9 665.7,195.5 668.3,194.7 670.8,194.0 673.3,192.7 675.8,191.9 678.3,191.1 680.8,191.0 683.3,190.7 685.9,190.1 688.4,188.6 690.9,186.0 693.4,183.4 695.9,180.8 698.4,178.6 701.0,176.1 703.5,173.4 706.0,170.7 708.5,168.2 711.0,166.4 713.5,164.9 716.0,163.3 718.6,161.7 721.1,160.6 723.6,159.3 726.1,158.3 728.6,157.0 731.1,155.1 733.7,152.8 736.2,151.0 738.7,149.3 741.2,148.2 743.7,147.3 746.2,146.3 748.7,145.2 751.3,143.4 753.8,141.8 756.3,140.0 758.8,138.0 761.3,136.4 763.8,135.2 766.4,134.6 768.9,133.9 771.4,133.1 773.9,133.0 776.4,132.9 778.9,132.5 781.4,132.4 784.0,132.3 786.5,132.0 789.0,131.9 796.5,131.9 799.1,131.8 801.6,131.5 804.1,129.3 806.6,127.4 809.1,125.8 811.6,123.9 814.1,122.2 816.7,120.6 819.2,118.8 821.7,117.2 824.2,115.4 826.7,113.8 829.2,112.2 831.8,110.6 834.3,109.0 836.8,107.4 839.3,105.9 841.8,104.5 844.3,103.0 846.8,101.5 849.4,100.0 851.9,98.6 854.4,97.2 856.9,96.2 859.4,95.2 861.9,94.3 864.5,92.9 867.0,91.7 869.5,90.5 872.0,90.0" fill="none" stroke="#38bdf8" stroke-width="2.5" stroke-linejoin="round" stroke-linecap="round"/>
<circle cx="872.0" cy="90.0" r="4" fill="#0ea5e9"/>
<text x="866.0" y="80.0" text-anchor="end" font-family="Inter, system-ui, sans-serif" font-size="13" font-weight="700" fill="#334155">3398</text>
<text x="52.0" y="294" text-anchor="middle" font-family="Inter, system-ui, sans-serif" font-size="11" fill="#94a3b8">Jun 10 05:00</text>
<text x="585.3" y="294" text-anchor="middle" font-family="Inter, system-ui, sans-serif" font-size="11" fill="#94a3b8">Jun 19 01:00</text>
<text x="872.0" y="294" text-anchor="middle" font-family="Inter, system-ui, sans-serif" font-size="11" fill="#94a3b8">Jun 23 19:00</text>
</svg>
