<svg xmlns="http://www.w3.org/2000/svg" width="900" height="320" viewBox="0 0 900 320" role="img" aria-labelledby="title desc">
<title id="title">unsorry proofs over time</title>
<desc id="desc">Cumulative kernel-verified proofs over time, by the hour each proof was merged.</desc>
<rect width="900" height="100%" rx="18" fill="#ffffff"/>
<rect x="0.5" y="0.5" width="899" height="319" rx="18" fill="none" stroke="#e2e8f0"/>
<text x="32" y="44" font-family="Inter, system-ui, sans-serif" font-size="28" font-weight="700" fill="#334155">unsorry — Proofs Over Time</text>
<text x="32" y="72" font-family="Inter, system-ui, sans-serif" font-size="13" fill="#64748b">3041 cumulative kernel-verified proofs · merged, hourly</text>
<line x1="52" y1="272.0" x2="872" y2="272.0" stroke="#f1f5f9"/>
<text x="44" y="276.0" text-anchor="end" font-family="Inter, system-ui, sans-serif" font-size="11" fill="#94a3b8">0</text>
<line x1="52" y1="226.5" x2="872" y2="226.5" stroke="#f1f5f9"/>
<text x="44" y="230.5" text-anchor="end" font-family="Inter, system-ui, sans-serif" font-size="11" fill="#94a3b8">760</text>
<line x1="52" y1="181.0" x2="872" y2="181.0" stroke="#f1f5f9"/>
<text x="44" y="185.0" text-anchor="end" font-family="Inter, system-ui, sans-serif" font-size="11" fill="#94a3b8">1520</text>
<line x1="52" y1="135.5" x2="872" y2="135.5" stroke="#f1f5f9"/>
<text x="44" y="139.5" text-anchor="end" font-family="Inter, system-ui, sans-serif" font-size="11" fill="#94a3b8">2281</text>
<line x1="52" y1="90.0" x2="872" y2="90.0" stroke="#f1f5f9"/>
<text x="44" y="94.0" text-anchor="end" font-family="Inter, system-ui, sans-serif" font-size="11" fill="#94a3b8">3041</text>
<polygon points="52.0,272.0 52.0,271.9 54.6,271.8 86.3,271.2 88.9,271.0 91.5,271.0 99.5,270.9 115.3,270.9 149.6,270.8 152.2,270.3 154.8,270.2 162.7,270.1 165.4,270.0 168.0,270.0 170.6,269.8 175.9,269.7 178.6,269.4 186.5,269.2 197.0,269.1 199.7,268.9 202.3,268.8 223.4,268.7 228.7,268.6 241.8,268.6 244.5,268.5 247.1,268.4 257.7,268.3 260.3,268.0 262.9,267.7 265.6,266.9 268.2,266.8 286.7,266.7 294.6,266.7 299.8,266.6 302.5,266.6 305.1,266.3 307.8,266.2 310.4,266.1 313.0,266.0 315.7,265.8 326.2,265.5 331.5,265.4 342.0,265.4 344.7,265.1 347.3,265.0 349.9,264.9 355.2,264.8 357.9,263.6 360.5,262.4 363.1,262.0 365.8,261.7 368.4,261.6 371.0,261.3 373.7,260.9 376.3,260.6 378.9,260.4 381.6,260.3 386.9,260.1 389.5,259.6 392.1,259.1 394.8,258.7 397.4,258.4 402.7,258.2 407.9,258.2 410.6,257.8 413.2,257.5 415.9,256.6 418.5,256.1 421.1,255.7 423.8,255.2 426.4,254.6 429.0,254.1 431.7,253.5 434.3,252.8 437.0,252.2 439.6,251.7 442.2,251.4 444.9,250.9 447.5,250.5 450.1,250.2 452.8,249.9 455.4,249.6 458.0,249.5 460.7,249.4 466.0,249.3 468.6,248.1 471.2,247.3 473.9,247.1 476.5,247.0 481.8,246.9 484.4,246.7 495.0,246.7 500.2,246.6 508.1,246.5 510.8,245.1 513.4,243.8 516.1,243.5 518.7,242.4 521.3,241.5 524.0,241.0 526.6,240.7 529.2,240.2 531.9,239.9 534.5,239.8 537.1,239.6 539.8,239.4 555.6,238.5 558.2,237.3 560.9,237.1 563.5,236.9 566.1,236.9 584.6,236.8 608.3,235.6 611.0,234.6 613.6,233.5 616.2,231.8 618.9,231.5 621.5,230.9 624.2,230.0 626.8,229.3 629.4,227.7 632.1,225.3 634.7,222.9 637.3,220.2 640.0,217.3 642.6,214.8 645.2,213.2 647.9,211.4 650.5,208.6 653.2,206.3 655.8,204.7 658.4,203.1 661.1,200.8 663.7,199.4 666.3,198.0 669.0,196.7 671.6,195.8 674.3,194.5 676.9,193.7 679.5,192.9 682.2,192.2 684.8,190.0 687.4,188.3 690.1,187.3 692.7,187.0 695.3,186.5 698.0,185.6 700.6,184.8 703.3,183.4 705.9,182.5 708.5,181.6 711.2,181.5 713.8,181.1 716.4,180.5 719.1,178.8 721.7,175.9 724.3,173.0 727.0,170.1 729.6,167.7 732.3,164.9 734.9,161.9 737.5,158.8 740.2,156.0 742.8,154.0 745.4,152.4 748.1,150.5 750.7,148.7 753.4,147.5 756.0,146.1 758.6,145.0 761.3,143.4 763.9,141.4 766.5,138.8 769.2,136.7 771.8,134.9 774.4,133.7 777.1,132.6 779.7,131.5 782.4,130.3 785.0,128.3 787.6,126.6 790.3,124.5 792.9,122.3 795.5,120.5 798.2,119.1 800.8,118.5 803.4,117.7 806.1,116.8 808.7,116.7 811.4,116.6 814.0,116.2 816.6,116.0 819.3,115.9 821.9,115.6 824.5,115.5 832.5,115.4 835.1,115.4 837.7,115.0 840.4,112.6 843.0,110.5 845.6,108.6 848.3,106.5 850.9,104.7 853.5,102.8 856.2,100.8 858.8,99.0 861.5,97.1 864.1,95.3 866.7,93.4 869.4,91.6 872.0,90.0 872.0,272.0" fill="#e0f2fe" opacity="0.55"/>
<polyline points="52.0,271.9 54.6,271.8 86.3,271.2 88.9,271.0 91.5,271.0 99.5,270.9 115.3,270.9 149.6,270.8 152.2,270.3 154.8,270.2 162.7,270.1 165.4,270.0 168.0,270.0 170.6,269.8 175.9,269.7 178.6,269.4 186.5,269.2 197.0,269.1 199.7,268.9 202.3,268.8 223.4,268.7 228.7,268.6 241.8,268.6 244.5,268.5 247.1,268.4 257.7,268.3 260.3,268.0 262.9,267.7 265.6,266.9 268.2,266.8 286.7,266.7 294.6,266.7 299.8,266.6 302.5,266.6 305.1,266.3 307.8,266.2 310.4,266.1 313.0,266.0 315.7,265.8 326.2,265.5 331.5,265.4 342.0,265.4 344.7,265.1 347.3,265.0 349.9,264.9 355.2,264.8 357.9,263.6 360.5,262.4 363.1,262.0 365.8,261.7 368.4,261.6 371.0,261.3 373.7,260.9 376.3,260.6 378.9,260.4 381.6,260.3 386.9,260.1 389.5,259.6 392.1,259.1 394.8,258.7 397.4,258.4 402.7,258.2 407.9,258.2 410.6,257.8 413.2,257.5 415.9,256.6 418.5,256.1 421.1,255.7 423.8,255.2 426.4,254.6 429.0,254.1 431.7,253.5 434.3,252.8 437.0,252.2 439.6,251.7 442.2,251.4 444.9,250.9 447.5,250.5 450.1,250.2 452.8,249.9 455.4,249.6 458.0,249.5 460.7,249.4 466.0,249.3 468.6,248.1 471.2,247.3 473.9,247.1 476.5,247.0 481.8,246.9 484.4,246.7 495.0,246.7 500.2,246.6 508.1,246.5 510.8,245.1 513.4,243.8 516.1,243.5 518.7,242.4 521.3,241.5 524.0,241.0 526.6,240.7 529.2,240.2 531.9,239.9 534.5,239.8 537.1,239.6 539.8,239.4 555.6,238.5 558.2,237.3 560.9,237.1 563.5,236.9 566.1,236.9 584.6,236.8 608.3,235.6 611.0,234.6 613.6,233.5 616.2,231.8 618.9,231.5 621.5,230.9 624.2,230.0 626.8,229.3 629.4,227.7 632.1,225.3 634.7,222.9 637.3,220.2 640.0,217.3 642.6,214.8 645.2,213.2 647.9,211.4 650.5,208.6 653.2,206.3 655.8,204.7 658.4,203.1 661.1,200.8 663.7,199.4 666.3,198.0 669.0,196.7 671.6,195.8 674.3,194.5 676.9,193.7 679.5,192.9 682.2,192.2 684.8,190.0 687.4,188.3 690.1,187.3 692.7,187.0 695.3,186.5 698.0,185.6 700.6,184.8 703.3,183.4 705.9,182.5 708.5,181.6 711.2,181.5 713.8,181.1 716.4,180.5 719.1,178.8 721.7,175.9 724.3,173.0 727.0,170.1 729.6,167.7 732.3,164.9 734.9,161.9 737.5,158.8 740.2,156.0 742.8,154.0 745.4,152.4 748.1,150.5 750.7,148.7 753.4,147.5 756.0,146.1 758.6,145.0 761.3,143.4 763.9,141.4 766.5,138.8 769.2,136.7 771.8,134.9 774.4,133.7 777.1,132.6 779.7,131.5 782.4,130.3 785.0,128.3 787.6,126.6 790.3,124.5 792.9,122.3 795.5,120.5 798.2,119.1 800.8,118.5 803.4,117.7 806.1,116.8 808.7,116.7 811.4,116.6 814.0,116.2 816.6,116.0 819.3,115.9 821.9,115.6 824.5,115.5 832.5,115.4 835.1,115.4 837.7,115.0 840.4,112.6 843.0,110.5 845.6,108.6 848.3,106.5 850.9,104.7 853.5,102.8 856.2,100.8 858.8,99.0 861.5,97.1 864.1,95.3 866.7,93.4 869.4,91.6 872.0,90.0" fill="none" stroke="#38bdf8" stroke-width="2.5" stroke-linejoin="round" stroke-linecap="round"/>
<circle cx="872.0" cy="90.0" r="4" fill="#0ea5e9"/>
<text x="866.0" y="80.0" text-anchor="end" font-family="Inter, system-ui, sans-serif" font-size="13" font-weight="700" fill="#334155">3041</text>
<text x="52.0" y="294" text-anchor="middle" font-family="Inter, system-ui, sans-serif" font-size="11" fill="#94a3b8">Jun 10 05:00</text>
<text x="555.6" y="294" text-anchor="middle" font-family="Inter, system-ui, sans-serif" font-size="11" fill="#94a3b8">Jun 18 04:00</text>
<text x="872.0" y="294" text-anchor="middle" font-family="Inter, system-ui, sans-serif" font-size="11" fill="#94a3b8">Jun 23 04:00</text>
</svg>
