<svg xmlns="http://www.w3.org/2000/svg" width="900" height="320" viewBox="0 0 900 320" role="img" aria-labelledby="title desc">
<title id="title">unsorry proofs over time</title>
<desc id="desc">Cumulative kernel-verified proofs over time, by the hour each proof was merged.</desc>
<rect width="900" height="100%" rx="18" fill="#ffffff"/>
<rect x="0.5" y="0.5" width="899" height="319" rx="18" fill="none" stroke="#e2e8f0"/>
<text x="32" y="44" font-family="Inter, system-ui, sans-serif" font-size="28" font-weight="700" fill="#334155">unsorry — Proofs Over Time</text>
<text x="32" y="72" font-family="Inter, system-ui, sans-serif" font-size="13" fill="#64748b">4533 cumulative kernel-verified proofs · merged, hourly</text>
<line x1="52" y1="272.0" x2="872" y2="272.0" stroke="#f1f5f9"/>
<text x="44" y="276.0" text-anchor="end" font-family="Inter, system-ui, sans-serif" font-size="11" fill="#94a3b8">0</text>
<line x1="52" y1="226.5" x2="872" y2="226.5" stroke="#f1f5f9"/>
<text x="44" y="230.5" text-anchor="end" font-family="Inter, system-ui, sans-serif" font-size="11" fill="#94a3b8">1133</text>
<line x1="52" y1="181.0" x2="872" y2="181.0" stroke="#f1f5f9"/>
<text x="44" y="185.0" text-anchor="end" font-family="Inter, system-ui, sans-serif" font-size="11" fill="#94a3b8">2266</text>
<line x1="52" y1="135.5" x2="872" y2="135.5" stroke="#f1f5f9"/>
<text x="44" y="139.5" text-anchor="end" font-family="Inter, system-ui, sans-serif" font-size="11" fill="#94a3b8">3400</text>
<line x1="52" y1="90.0" x2="872" y2="90.0" stroke="#f1f5f9"/>
<text x="44" y="94.0" text-anchor="end" font-family="Inter, system-ui, sans-serif" font-size="11" fill="#94a3b8">4533</text>
<polygon points="52.0,272.0 52.0,272.0 54.1,271.9 79.5,271.5 81.6,271.4 83.7,271.3 90.0,271.3 102.7,271.2 130.2,271.2 132.3,270.8 134.4,270.8 140.8,270.7 142.9,270.7 145.0,270.6 147.1,270.5 151.3,270.5 153.4,270.3 159.8,270.1 168.2,270.0 170.4,269.9 172.5,269.8 189.4,269.8 193.6,269.8 204.2,269.7 206.3,269.7 208.4,269.6 216.8,269.6 219.0,269.3 221.1,269.1 223.2,268.6 225.3,268.5 240.1,268.5 246.4,268.4 250.7,268.4 252.8,268.3 254.9,268.1 257.0,268.1 259.1,268.1 261.2,267.9 263.3,267.8 271.8,267.6 276.0,267.6 284.5,267.5 286.6,267.3 288.7,267.3 290.8,267.2 295.0,267.2 297.2,266.4 299.3,265.6 301.4,265.3 303.5,265.1 305.6,265.0 307.7,264.8 309.8,264.5 311.9,264.3 314.1,264.2 316.2,264.1 320.4,264.0 322.5,263.7 324.6,263.4 326.7,263.0 328.9,262.8 333.1,262.8 337.3,262.7 339.4,262.4 341.5,262.2 343.6,261.7 345.8,261.4 347.9,261.0 350.0,260.7 352.1,260.4 354.2,260.0 356.3,259.6 358.4,259.2 360.6,258.8 362.7,258.4 364.8,258.1 366.9,257.9 369.0,257.5 371.1,257.4 373.2,257.2 375.4,257.0 377.5,256.9 379.6,256.8 383.8,256.8 385.9,256.0 388.0,255.4 390.1,255.3 392.3,255.3 396.5,255.2 398.6,255.1 407.1,255.0 411.3,254.9 417.6,254.9 419.7,254.0 421.8,253.1 424.0,252.8 426.1,252.1 428.2,251.6 430.3,251.2 432.4,251.0 434.5,250.6 436.6,250.5 438.8,250.4 440.9,250.2 443.0,250.2 455.7,249.5 457.8,248.7 459.9,248.6 462.0,248.5 464.1,248.4 478.9,248.4 497.9,247.5 500.0,246.9 502.2,246.1 504.3,245.0 506.4,244.8 508.5,244.5 510.6,243.8 512.7,243.3 514.8,242.2 516.9,240.6 519.1,239.1 521.2,237.2 523.3,235.3 525.4,233.6 527.5,232.6 529.6,231.3 531.7,229.5 533.9,227.9 536.0,226.9 538.1,225.8 540.2,224.3 542.3,223.3 544.4,222.3 546.5,221.5 548.6,220.8 550.8,220.0 552.9,219.5 555.0,218.9 557.1,218.4 559.2,217.0 561.3,215.8 563.4,215.2 565.6,215.0 567.7,214.6 569.8,214.0 571.9,213.5 574.0,212.5 576.1,211.9 578.2,211.4 580.4,211.3 582.5,211.1 584.6,210.6 586.7,209.4 588.8,207.6 590.9,205.6 593.0,203.6 595.1,202.0 597.3,200.1 599.4,198.1 601.5,196.1 603.6,194.2 605.7,192.8 607.8,191.7 609.9,190.5 612.1,189.3 614.2,188.5 616.3,187.5 618.4,186.8 620.5,185.8 622.6,184.4 624.7,182.7 626.8,181.3 629.0,180.0 631.1,179.2 633.2,178.5 635.3,177.8 637.4,177.0 639.5,175.6 641.6,174.4 643.8,173.0 645.9,171.6 648.0,170.4 650.1,169.4 652.2,169.0 654.3,168.5 656.4,167.9 658.5,167.8 660.7,167.7 662.8,167.4 664.9,167.3 667.0,167.3 669.1,167.1 671.2,167.0 677.6,167.0 679.7,166.9 681.8,166.7 683.9,165.0 686.0,163.6 688.1,162.4 690.2,161.0 692.4,159.7 694.5,158.5 696.6,157.2 698.7,156.0 700.8,154.6 702.9,153.4 705.0,152.2 707.2,151.0 709.3,149.8 711.4,148.6 713.5,147.5 715.6,146.5 717.7,145.3 719.8,144.2 721.9,143.1 724.1,142.0 726.2,141.0 728.3,140.2 730.4,139.5 732.5,138.8 734.6,137.7 736.7,136.8 738.9,135.9 741.0,134.8 743.1,133.9 745.2,133.1 747.3,132.1 749.4,131.2 751.5,130.2 753.6,129.3 755.8,128.3 757.9,127.5 760.0,126.5 762.1,125.8 764.2,125.0 766.3,124.1 768.4,123.2 770.6,122.5 772.7,121.8 774.8,121.2 776.9,120.9 779.0,120.8 781.1,119.9 783.2,119.1 785.4,118.3 787.5,117.5 789.6,116.8 791.7,116.0 793.8,115.3 795.9,114.5 798.0,113.8 800.1,113.1 802.3,112.4 804.4,111.7 806.5,110.9 808.6,110.3 810.7,109.6 812.8,108.8 814.9,108.1 817.1,107.5 819.2,106.7 821.3,106.2 823.4,105.6 825.5,104.8 827.6,104.0 829.7,103.3 831.8,102.6 834.0,101.8 836.1,101.3 838.2,100.6 840.3,99.8 842.4,99.3 844.5,98.9 846.6,98.2 848.8,97.5 850.9,96.8 853.0,96.0 855.1,95.3 857.2,94.6 859.3,94.0 861.4,93.4 863.5,92.6 865.7,92.0 867.8,91.4 869.9,90.8 872.0,90.0 872.0,272.0" fill="#e0f2fe" opacity="0.55"/>
<polyline points="52.0,272.0 54.1,271.9 79.5,271.5 81.6,271.4 83.7,271.3 90.0,271.3 102.7,271.2 130.2,271.2 132.3,270.8 134.4,270.8 140.8,270.7 142.9,270.7 145.0,270.6 147.1,270.5 151.3,270.5 153.4,270.3 159.8,270.1 168.2,270.0 170.4,269.9 172.5,269.8 189.4,269.8 193.6,269.8 204.2,269.7 206.3,269.7 208.4,269.6 216.8,269.6 219.0,269.3 221.1,269.1 223.2,268.6 225.3,268.5 240.1,268.5 246.4,268.4 250.7,268.4 252.8,268.3 254.9,268.1 257.0,268.1 259.1,268.1 261.2,267.9 263.3,267.8 271.8,267.6 276.0,267.6 284.5,267.5 286.6,267.3 288.7,267.3 290.8,267.2 295.0,267.2 297.2,266.4 299.3,265.6 301.4,265.3 303.5,265.1 305.6,265.0 307.7,264.8 309.8,264.5 311.9,264.3 314.1,264.2 316.2,264.1 320.4,264.0 322.5,263.7 324.6,263.4 326.7,263.0 328.9,262.8 333.1,262.8 337.3,262.7 339.4,262.4 341.5,262.2 343.6,261.7 345.8,261.4 347.9,261.0 350.0,260.7 352.1,260.4 354.2,260.0 356.3,259.6 358.4,259.2 360.6,258.8 362.7,258.4 364.8,258.1 366.9,257.9 369.0,257.5 371.1,257.4 373.2,257.2 375.4,257.0 377.5,256.9 379.6,256.8 383.8,256.8 385.9,256.0 388.0,255.4 390.1,255.3 392.3,255.3 396.5,255.2 398.6,255.1 407.1,255.0 411.3,254.9 417.6,254.9 419.7,254.0 421.8,253.1 424.0,252.8 426.1,252.1 428.2,251.6 430.3,251.2 432.4,251.0 434.5,250.6 436.6,250.5 438.8,250.4 440.9,250.2 443.0,250.2 455.7,249.5 457.8,248.7 459.9,248.6 462.0,248.5 464.1,248.4 478.9,248.4 497.9,247.5 500.0,246.9 502.2,246.1 504.3,245.0 506.4,244.8 508.5,244.5 510.6,243.8 512.7,243.3 514.8,242.2 516.9,240.6 519.1,239.1 521.2,237.2 523.3,235.3 525.4,233.6 527.5,232.6 529.6,231.3 531.7,229.5 533.9,227.9 536.0,226.9 538.1,225.8 540.2,224.3 542.3,223.3 544.4,222.3 546.5,221.5 548.6,220.8 550.8,220.0 552.9,219.5 555.0,218.9 557.1,218.4 559.2,217.0 561.3,215.8 563.4,215.2 565.6,215.0 567.7,214.6 569.8,214.0 571.9,213.5 574.0,212.5 576.1,211.9 578.2,211.4 580.4,211.3 582.5,211.1 584.6,210.6 586.7,209.4 588.8,207.6 590.9,205.6 593.0,203.6 595.1,202.0 597.3,200.1 599.4,198.1 601.5,196.1 603.6,194.2 605.7,192.8 607.8,191.7 609.9,190.5 612.1,189.3 614.2,188.5 616.3,187.5 618.4,186.8 620.5,185.8 622.6,184.4 624.7,182.7 626.8,181.3 629.0,180.0 631.1,179.2 633.2,178.5 635.3,177.8 637.4,177.0 639.5,175.6 641.6,174.4 643.8,173.0 645.9,171.6 648.0,170.4 650.1,169.4 652.2,169.0 654.3,168.5 656.4,167.9 658.5,167.8 660.7,167.7 662.8,167.4 664.9,167.3 667.0,167.3 669.1,167.1 671.2,167.0 677.6,167.0 679.7,166.9 681.8,166.7 683.9,165.0 686.0,163.6 688.1,162.4 690.2,161.0 692.4,159.7 694.5,158.5 696.6,157.2 698.7,156.0 700.8,154.6 702.9,153.4 705.0,152.2 707.2,151.0 709.3,149.8 711.4,148.6 713.5,147.5 715.6,146.5 717.7,145.3 719.8,144.2 721.9,143.1 724.1,142.0 726.2,141.0 728.3,140.2 730.4,139.5 732.5,138.8 734.6,137.7 736.7,136.8 738.9,135.9 741.0,134.8 743.1,133.9 745.2,133.1 747.3,132.1 749.4,131.2 751.5,130.2 753.6,129.3 755.8,128.3 757.9,127.5 760.0,126.5 762.1,125.8 764.2,125.0 766.3,124.1 768.4,123.2 770.6,122.5 772.7,121.8 774.8,121.2 776.9,120.9 779.0,120.8 781.1,119.9 783.2,119.1 785.4,118.3 787.5,117.5 789.6,116.8 791.7,116.0 793.8,115.3 795.9,114.5 798.0,113.8 800.1,113.1 802.3,112.4 804.4,111.7 806.5,110.9 808.6,110.3 810.7,109.6 812.8,108.8 814.9,108.1 817.1,107.5 819.2,106.7 821.3,106.2 823.4,105.6 825.5,104.8 827.6,104.0 829.7,103.3 831.8,102.6 834.0,101.8 836.1,101.3 838.2,100.6 840.3,99.8 842.4,99.3 844.5,98.9 846.6,98.2 848.8,97.5 850.9,96.8 853.0,96.0 855.1,95.3 857.2,94.6 859.3,94.0 861.4,93.4 863.5,92.6 865.7,92.0 867.8,91.4 869.9,90.8 872.0,90.0" fill="none" stroke="#38bdf8" stroke-width="2.5" stroke-linejoin="round" stroke-linecap="round"/>
<circle cx="872.0" cy="90.0" r="4" fill="#0ea5e9"/>
<text x="866.0" y="80.0" text-anchor="end" font-family="Inter, system-ui, sans-serif" font-size="13" font-weight="700" fill="#334155">4533</text>
<text x="52.0" y="294" text-anchor="middle" font-family="Inter, system-ui, sans-serif" font-size="11" fill="#94a3b8">Jun 10 05:00</text>
<text x="565.6" y="294" text-anchor="middle" font-family="Inter, system-ui, sans-serif" font-size="11" fill="#94a3b8">Jun 20 08:00</text>
<text x="872.0" y="294" text-anchor="middle" font-family="Inter, system-ui, sans-serif" font-size="11" fill="#94a3b8">Jun 26 09:00</text>
</svg>
