<svg xmlns="http://www.w3.org/2000/svg" width="900" height="320" viewBox="0 0 900 320" role="img" aria-labelledby="title desc">
<title id="title">unsorry proofs over time</title>
<desc id="desc">Cumulative kernel-verified proofs over time, by the hour each proof was merged.</desc>
<rect width="900" height="100%" rx="18" fill="#ffffff"/>
<rect x="0.5" y="0.5" width="899" height="319" rx="18" fill="none" stroke="#e2e8f0"/>
<text x="32" y="44" font-family="Inter, system-ui, sans-serif" font-size="28" font-weight="700" fill="#334155">unsorry — Proofs Over Time</text>
<text x="32" y="72" font-family="Inter, system-ui, sans-serif" font-size="13" fill="#64748b">3139 cumulative kernel-verified proofs · merged, hourly</text>
<line x1="52" y1="272.0" x2="872" y2="272.0" stroke="#f1f5f9"/>
<text x="44" y="276.0" text-anchor="end" font-family="Inter, system-ui, sans-serif" font-size="11" fill="#94a3b8">0</text>
<line x1="52" y1="226.5" x2="872" y2="226.5" stroke="#f1f5f9"/>
<text x="44" y="230.5" text-anchor="end" font-family="Inter, system-ui, sans-serif" font-size="11" fill="#94a3b8">785</text>
<line x1="52" y1="181.0" x2="872" y2="181.0" stroke="#f1f5f9"/>
<text x="44" y="185.0" text-anchor="end" font-family="Inter, system-ui, sans-serif" font-size="11" fill="#94a3b8">1570</text>
<line x1="52" y1="135.5" x2="872" y2="135.5" stroke="#f1f5f9"/>
<text x="44" y="139.5" text-anchor="end" font-family="Inter, system-ui, sans-serif" font-size="11" fill="#94a3b8">2354</text>
<line x1="52" y1="90.0" x2="872" y2="90.0" stroke="#f1f5f9"/>
<text x="44" y="94.0" text-anchor="end" font-family="Inter, system-ui, sans-serif" font-size="11" fill="#94a3b8">3139</text>
<polygon points="52.0,272.0 52.0,271.9 54.6,271.8 85.8,271.2 88.4,271.1 91.0,271.0 98.9,271.0 114.5,270.9 148.3,270.8 150.9,270.3 153.5,270.3 161.3,270.1 163.9,270.1 166.5,270.0 169.1,269.9 174.3,269.8 177.0,269.5 184.8,269.3 195.2,269.2 197.8,269.0 200.4,268.9 221.2,268.8 226.4,268.8 239.4,268.7 242.0,268.6 244.6,268.5 255.0,268.5 257.7,268.1 260.3,267.8 262.9,267.1 265.5,267.0 283.7,266.9 291.5,266.8 296.7,266.8 299.3,266.7 301.9,266.4 304.5,266.4 307.1,266.3 309.7,266.1 312.3,266.0 322.7,265.7 327.9,265.6 338.3,265.6 341.0,265.3 343.6,265.2 346.2,265.1 351.4,265.0 354.0,263.9 356.6,262.7 359.2,262.3 361.8,262.0 364.4,261.9 367.0,261.6 369.6,261.2 372.2,260.9 374.8,260.8 377.4,260.6 382.6,260.5 385.2,260.0 387.8,259.5 390.4,259.1 393.0,258.8 398.2,258.7 403.4,258.6 406.0,258.2 408.6,257.9 411.2,257.1 413.8,256.6 416.4,256.2 419.0,255.7 421.7,255.2 424.3,254.7 426.9,254.1 429.5,253.4 432.1,252.9 434.7,252.3 437.3,252.0 439.9,251.6 442.5,251.1 445.1,250.9 447.7,250.6 450.3,250.3 452.9,250.2 455.5,250.1 460.7,250.0 463.3,248.9 465.9,248.1 468.5,247.9 471.1,247.8 476.3,247.7 478.9,247.5 489.3,247.5 494.5,247.4 502.3,247.3 505.0,246.0 507.6,244.7 510.2,244.3 512.8,243.3 515.4,242.5 518.0,242.0 520.6,241.7 523.2,241.2 525.8,240.9 528.4,240.8 531.0,240.6 533.6,240.5 549.2,239.5 551.8,238.4 554.4,238.2 557.0,238.0 559.6,238.0 577.8,237.9 601.3,236.7 603.9,235.8 606.5,234.7 609.1,233.0 611.7,232.7 614.3,232.2 616.9,231.3 619.5,230.6 622.1,229.0 624.7,226.7 627.3,224.5 629.9,221.8 632.5,219.0 635.1,216.6 637.7,215.1 640.3,213.3 642.9,210.6 645.5,208.3 648.1,206.8 650.7,205.3 653.3,203.1 655.9,201.7 658.5,200.3 661.1,199.1 663.7,198.1 666.3,196.9 669.0,196.2 671.6,195.4 674.2,194.7 676.8,192.6 679.4,190.9 682.0,190.0 684.6,189.7 687.2,189.1 689.8,188.3 692.4,187.5 695.0,186.1 697.6,185.3 700.2,184.4 702.8,184.3 705.4,184.0 708.0,183.3 710.6,181.7 713.2,178.9 715.8,176.1 718.4,173.3 721.0,170.9 723.6,168.2 726.2,165.3 728.8,162.4 731.4,159.6 734.0,157.7 736.6,156.1 739.2,154.3 741.8,152.6 744.4,151.4 747.0,150.0 749.7,149.0 752.3,147.5 754.9,145.4 757.5,143.0 760.1,141.0 762.7,139.2 765.3,138.0 767.9,137.0 770.5,135.9 773.1,134.8 775.7,132.8 778.3,131.1 780.9,129.1 783.5,127.0 786.1,125.3 788.7,123.9 791.3,123.3 793.9,122.5 796.5,121.7 799.1,121.5 801.7,121.4 804.3,121.0 806.9,120.8 809.5,120.8 812.1,120.5 814.7,120.4 822.5,120.3 825.1,120.3 827.7,119.9 830.3,117.5 833.0,115.5 835.6,113.7 838.2,111.7 840.8,109.9 843.4,108.1 846.0,106.2 848.6,104.4 851.2,102.5 853.8,100.8 856.4,99.0 859.0,97.2 861.6,95.6 864.2,93.8 866.8,92.1 869.4,90.7 872.0,90.0 872.0,272.0" fill="#e0f2fe" opacity="0.55"/>
<polyline points="52.0,271.9 54.6,271.8 85.8,271.2 88.4,271.1 91.0,271.0 98.9,271.0 114.5,270.9 148.3,270.8 150.9,270.3 153.5,270.3 161.3,270.1 163.9,270.1 166.5,270.0 169.1,269.9 174.3,269.8 177.0,269.5 184.8,269.3 195.2,269.2 197.8,269.0 200.4,268.9 221.2,268.8 226.4,268.8 239.4,268.7 242.0,268.6 244.6,268.5 255.0,268.5 257.7,268.1 260.3,267.8 262.9,267.1 265.5,267.0 283.7,266.9 291.5,266.8 296.7,266.8 299.3,266.7 301.9,266.4 304.5,266.4 307.1,266.3 309.7,266.1 312.3,266.0 322.7,265.7 327.9,265.6 338.3,265.6 341.0,265.3 343.6,265.2 346.2,265.1 351.4,265.0 354.0,263.9 356.6,262.7 359.2,262.3 361.8,262.0 364.4,261.9 367.0,261.6 369.6,261.2 372.2,260.9 374.8,260.8 377.4,260.6 382.6,260.5 385.2,260.0 387.8,259.5 390.4,259.1 393.0,258.8 398.2,258.7 403.4,258.6 406.0,258.2 408.6,257.9 411.2,257.1 413.8,256.6 416.4,256.2 419.0,255.7 421.7,255.2 424.3,254.7 426.9,254.1 429.5,253.4 432.1,252.9 434.7,252.3 437.3,252.0 439.9,251.6 442.5,251.1 445.1,250.9 447.7,250.6 450.3,250.3 452.9,250.2 455.5,250.1 460.7,250.0 463.3,248.9 465.9,248.1 468.5,247.9 471.1,247.8 476.3,247.7 478.9,247.5 489.3,247.5 494.5,247.4 502.3,247.3 505.0,246.0 507.6,244.7 510.2,244.3 512.8,243.3 515.4,242.5 518.0,242.0 520.6,241.7 523.2,241.2 525.8,240.9 528.4,240.8 531.0,240.6 533.6,240.5 549.2,239.5 551.8,238.4 554.4,238.2 557.0,238.0 559.6,238.0 577.8,237.9 601.3,236.7 603.9,235.8 606.5,234.7 609.1,233.0 611.7,232.7 614.3,232.2 616.9,231.3 619.5,230.6 622.1,229.0 624.7,226.7 627.3,224.5 629.9,221.8 632.5,219.0 635.1,216.6 637.7,215.1 640.3,213.3 642.9,210.6 645.5,208.3 648.1,206.8 650.7,205.3 653.3,203.1 655.9,201.7 658.5,200.3 661.1,199.1 663.7,198.1 666.3,196.9 669.0,196.2 671.6,195.4 674.2,194.7 676.8,192.6 679.4,190.9 682.0,190.0 684.6,189.7 687.2,189.1 689.8,188.3 692.4,187.5 695.0,186.1 697.6,185.3 700.2,184.4 702.8,184.3 705.4,184.0 708.0,183.3 710.6,181.7 713.2,178.9 715.8,176.1 718.4,173.3 721.0,170.9 723.6,168.2 726.2,165.3 728.8,162.4 731.4,159.6 734.0,157.7 736.6,156.1 739.2,154.3 741.8,152.6 744.4,151.4 747.0,150.0 749.7,149.0 752.3,147.5 754.9,145.4 757.5,143.0 760.1,141.0 762.7,139.2 765.3,138.0 767.9,137.0 770.5,135.9 773.1,134.8 775.7,132.8 778.3,131.1 780.9,129.1 783.5,127.0 786.1,125.3 788.7,123.9 791.3,123.3 793.9,122.5 796.5,121.7 799.1,121.5 801.7,121.4 804.3,121.0 806.9,120.8 809.5,120.8 812.1,120.5 814.7,120.4 822.5,120.3 825.1,120.3 827.7,119.9 830.3,117.5 833.0,115.5 835.6,113.7 838.2,111.7 840.8,109.9 843.4,108.1 846.0,106.2 848.6,104.4 851.2,102.5 853.8,100.8 856.4,99.0 859.0,97.2 861.6,95.6 864.2,93.8 866.8,92.1 869.4,90.7 872.0,90.0" fill="none" stroke="#38bdf8" stroke-width="2.5" stroke-linejoin="round" stroke-linecap="round"/>
<circle cx="872.0" cy="90.0" r="4" fill="#0ea5e9"/>
<text x="866.0" y="80.0" text-anchor="end" font-family="Inter, system-ui, sans-serif" font-size="13" font-weight="700" fill="#334155">3139</text>
<text x="52.0" y="294" text-anchor="middle" font-family="Inter, system-ui, sans-serif" font-size="11" fill="#94a3b8">Jun 10 05:00</text>
<text x="554.4" y="294" text-anchor="middle" font-family="Inter, system-ui, sans-serif" font-size="11" fill="#94a3b8">Jun 18 06:00</text>
<text x="872.0" y="294" text-anchor="middle" font-family="Inter, system-ui, sans-serif" font-size="11" fill="#94a3b8">Jun 23 08:00</text>
</svg>
