<svg xmlns="http://www.w3.org/2000/svg" width="900" height="320" viewBox="0 0 900 320" role="img" aria-labelledby="title desc">
<title id="title">unsorry proofs over time</title>
<desc id="desc">Cumulative kernel-verified proofs over time, by the hour each proof was merged.</desc>
<rect width="900" height="100%" rx="18" fill="#ffffff"/>
<rect x="0.5" y="0.5" width="899" height="319" rx="18" fill="none" stroke="#e2e8f0"/>
<text x="32" y="44" font-family="Inter, system-ui, sans-serif" font-size="28" font-weight="700" fill="#334155">unsorry — Proofs Over Time</text>
<text x="32" y="72" font-family="Inter, system-ui, sans-serif" font-size="13" fill="#64748b">3589 cumulative kernel-verified proofs · merged, hourly</text>
<line x1="52" y1="272.0" x2="872" y2="272.0" stroke="#f1f5f9"/>
<text x="44" y="276.0" text-anchor="end" font-family="Inter, system-ui, sans-serif" font-size="11" fill="#94a3b8">0</text>
<line x1="52" y1="226.5" x2="872" y2="226.5" stroke="#f1f5f9"/>
<text x="44" y="230.5" text-anchor="end" font-family="Inter, system-ui, sans-serif" font-size="11" fill="#94a3b8">897</text>
<line x1="52" y1="181.0" x2="872" y2="181.0" stroke="#f1f5f9"/>
<text x="44" y="185.0" text-anchor="end" font-family="Inter, system-ui, sans-serif" font-size="11" fill="#94a3b8">1794</text>
<line x1="52" y1="135.5" x2="872" y2="135.5" stroke="#f1f5f9"/>
<text x="44" y="139.5" text-anchor="end" font-family="Inter, system-ui, sans-serif" font-size="11" fill="#94a3b8">2692</text>
<line x1="52" y1="90.0" x2="872" y2="90.0" stroke="#f1f5f9"/>
<text x="44" y="94.0" text-anchor="end" font-family="Inter, system-ui, sans-serif" font-size="11" fill="#94a3b8">3589</text>
<polygon points="52.0,272.0 52.0,271.9 54.5,271.8 83.9,271.3 86.4,271.2 88.8,271.1 96.2,271.1 110.9,271.0 142.8,271.0 145.3,270.5 147.7,270.5 155.1,270.4 157.6,270.3 160.0,270.3 162.5,270.1 167.4,270.1 169.8,269.8 177.2,269.6 187.0,269.5 189.5,269.4 191.9,269.3 211.6,269.2 216.5,269.2 228.8,269.1 231.2,269.1 233.7,269.0 243.5,268.9 246.0,268.6 248.4,268.3 250.9,267.7 253.3,267.6 270.5,267.5 277.9,267.5 282.8,267.4 285.2,267.4 287.7,267.1 290.1,267.1 292.6,267.0 295.1,266.9 297.5,266.7 307.3,266.5 312.2,266.4 322.1,266.4 324.5,266.1 327.0,266.1 329.4,266.0 334.3,265.9 336.8,264.9 339.2,263.9 341.7,263.5 344.2,263.3 346.6,263.2 349.1,262.9 351.5,262.6 354.0,262.3 356.4,262.2 358.9,262.1 363.8,261.9 366.3,261.5 368.7,261.1 371.2,260.7 373.6,260.4 378.5,260.3 383.4,260.3 385.9,259.9 388.3,259.7 390.8,259.0 393.3,258.6 395.7,258.2 398.2,257.8 400.6,257.3 403.1,256.8 405.5,256.3 408.0,255.8 410.4,255.3 412.9,254.8 415.4,254.5 417.8,254.1 420.3,253.7 422.7,253.5 425.2,253.3 427.6,253.0 430.1,252.9 432.5,252.8 437.4,252.8 439.9,251.8 442.4,251.1 444.8,250.9 447.3,250.9 452.2,250.8 454.6,250.6 464.5,250.5 469.4,250.4 476.7,250.4 479.2,249.2 481.6,248.1 484.1,247.8 486.6,246.9 489.0,246.2 491.5,245.7 493.9,245.5 496.4,245.0 498.8,244.8 501.3,244.7 503.7,244.5 506.2,244.4 520.9,243.6 523.4,242.6 525.8,242.4 528.3,242.3 530.7,242.2 547.9,242.2 570.0,241.1 572.5,240.3 574.9,239.3 577.4,237.9 579.8,237.7 582.3,237.2 584.8,236.4 587.2,235.8 589.7,234.4 592.1,232.4 594.6,230.4 597.0,228.1 599.5,225.7 601.9,223.5 604.4,222.2 606.9,220.6 609.3,218.3 611.8,216.3 614.2,215.0 616.7,213.6 619.1,211.7 621.6,210.5 624.0,209.3 626.5,208.2 628.9,207.4 631.4,206.3 633.9,205.7 636.3,205.0 638.8,204.4 641.2,202.5 643.7,201.1 646.1,200.2 648.6,200.0 651.0,199.5 653.5,198.8 656.0,198.1 658.4,196.9 660.9,196.1 663.3,195.4 665.8,195.3 668.2,195.0 670.7,194.5 673.1,193.0 675.6,190.6 678.0,188.1 680.5,185.6 683.0,183.6 685.4,181.2 687.9,178.7 690.3,176.1 692.8,173.7 695.2,172.0 697.7,170.6 700.1,169.1 702.6,167.5 705.1,166.5 707.5,165.3 710.0,164.4 712.4,163.1 714.9,161.3 717.3,159.2 719.8,157.4 722.2,155.8 724.7,154.8 727.1,153.9 729.6,153.0 732.1,152.0 734.5,150.2 737.0,148.8 739.4,147.0 741.9,145.2 744.3,143.7 746.8,142.4 749.2,141.9 751.7,141.2 754.2,140.5 756.6,140.4 759.1,140.3 761.5,139.9 764.0,139.8 766.4,139.7 768.9,139.5 771.3,139.4 778.7,139.3 781.2,139.3 783.6,139.0 786.1,136.9 788.5,135.1 791.0,133.6 793.4,131.8 795.9,130.2 798.3,128.6 800.8,127.0 803.3,125.4 805.7,123.8 808.2,122.3 810.6,120.7 813.1,119.2 815.5,117.7 818.0,116.2 820.4,114.7 822.9,113.4 825.4,112.0 827.8,110.6 830.3,109.2 832.7,107.9 835.2,106.5 837.6,105.6 840.1,104.7 842.5,103.7 845.0,102.4 847.4,101.3 849.9,100.1 852.4,98.8 854.8,97.6 857.3,96.5 859.7,95.3 862.2,94.1 864.6,92.9 867.1,91.8 869.5,90.5 872.0,90.0 872.0,272.0" fill="#e0f2fe" opacity="0.55"/>
<polyline points="52.0,271.9 54.5,271.8 83.9,271.3 86.4,271.2 88.8,271.1 96.2,271.1 110.9,271.0 142.8,271.0 145.3,270.5 147.7,270.5 155.1,270.4 157.6,270.3 160.0,270.3 162.5,270.1 167.4,270.1 169.8,269.8 177.2,269.6 187.0,269.5 189.5,269.4 191.9,269.3 211.6,269.2 216.5,269.2 228.8,269.1 231.2,269.1 233.7,269.0 243.5,268.9 246.0,268.6 248.4,268.3 250.9,267.7 253.3,267.6 270.5,267.5 277.9,267.5 282.8,267.4 285.2,267.4 287.7,267.1 290.1,267.1 292.6,267.0 295.1,266.9 297.5,266.7 307.3,266.5 312.2,266.4 322.1,266.4 324.5,266.1 327.0,266.1 329.4,266.0 334.3,265.9 336.8,264.9 339.2,263.9 341.7,263.5 344.2,263.3 346.6,263.2 349.1,262.9 351.5,262.6 354.0,262.3 356.4,262.2 358.9,262.1 363.8,261.9 366.3,261.5 368.7,261.1 371.2,260.7 373.6,260.4 378.5,260.3 383.4,260.3 385.9,259.9 388.3,259.7 390.8,259.0 393.3,258.6 395.7,258.2 398.2,257.8 400.6,257.3 403.1,256.8 405.5,256.3 408.0,255.8 410.4,255.3 412.9,254.8 415.4,254.5 417.8,254.1 420.3,253.7 422.7,253.5 425.2,253.3 427.6,253.0 430.1,252.9 432.5,252.8 437.4,252.8 439.9,251.8 442.4,251.1 444.8,250.9 447.3,250.9 452.2,250.8 454.6,250.6 464.5,250.5 469.4,250.4 476.7,250.4 479.2,249.2 481.6,248.1 484.1,247.8 486.6,246.9 489.0,246.2 491.5,245.7 493.9,245.5 496.4,245.0 498.8,244.8 501.3,244.7 503.7,244.5 506.2,244.4 520.9,243.6 523.4,242.6 525.8,242.4 528.3,242.3 530.7,242.2 547.9,242.2 570.0,241.1 572.5,240.3 574.9,239.3 577.4,237.9 579.8,237.7 582.3,237.2 584.8,236.4 587.2,235.8 589.7,234.4 592.1,232.4 594.6,230.4 597.0,228.1 599.5,225.7 601.9,223.5 604.4,222.2 606.9,220.6 609.3,218.3 611.8,216.3 614.2,215.0 616.7,213.6 619.1,211.7 621.6,210.5 624.0,209.3 626.5,208.2 628.9,207.4 631.4,206.3 633.9,205.7 636.3,205.0 638.8,204.4 641.2,202.5 643.7,201.1 646.1,200.2 648.6,200.0 651.0,199.5 653.5,198.8 656.0,198.1 658.4,196.9 660.9,196.1 663.3,195.4 665.8,195.3 668.2,195.0 670.7,194.5 673.1,193.0 675.6,190.6 678.0,188.1 680.5,185.6 683.0,183.6 685.4,181.2 687.9,178.7 690.3,176.1 692.8,173.7 695.2,172.0 697.7,170.6 700.1,169.1 702.6,167.5 705.1,166.5 707.5,165.3 710.0,164.4 712.4,163.1 714.9,161.3 717.3,159.2 719.8,157.4 722.2,155.8 724.7,154.8 727.1,153.9 729.6,153.0 732.1,152.0 734.5,150.2 737.0,148.8 739.4,147.0 741.9,145.2 744.3,143.7 746.8,142.4 749.2,141.9 751.7,141.2 754.2,140.5 756.6,140.4 759.1,140.3 761.5,139.9 764.0,139.8 766.4,139.7 768.9,139.5 771.3,139.4 778.7,139.3 781.2,139.3 783.6,139.0 786.1,136.9 788.5,135.1 791.0,133.6 793.4,131.8 795.9,130.2 798.3,128.6 800.8,127.0 803.3,125.4 805.7,123.8 808.2,122.3 810.6,120.7 813.1,119.2 815.5,117.7 818.0,116.2 820.4,114.7 822.9,113.4 825.4,112.0 827.8,110.6 830.3,109.2 832.7,107.9 835.2,106.5 837.6,105.6 840.1,104.7 842.5,103.7 845.0,102.4 847.4,101.3 849.9,100.1 852.4,98.8 854.8,97.6 857.3,96.5 859.7,95.3 862.2,94.1 864.6,92.9 867.1,91.8 869.5,90.5 872.0,90.0" fill="none" stroke="#38bdf8" stroke-width="2.5" stroke-linejoin="round" stroke-linecap="round"/>
<circle cx="872.0" cy="90.0" r="4" fill="#0ea5e9"/>
<text x="866.0" y="80.0" text-anchor="end" font-family="Inter, system-ui, sans-serif" font-size="13" font-weight="700" fill="#334155">3589</text>
<text x="52.0" y="294" text-anchor="middle" font-family="Inter, system-ui, sans-serif" font-size="11" fill="#94a3b8">Jun 10 05:00</text>
<text x="582.3" y="294" text-anchor="middle" font-family="Inter, system-ui, sans-serif" font-size="11" fill="#94a3b8">Jun 19 05:00</text>
<text x="872.0" y="294" text-anchor="middle" font-family="Inter, system-ui, sans-serif" font-size="11" fill="#94a3b8">Jun 24 03:00</text>
</svg>
