<svg xmlns="http://www.w3.org/2000/svg" width="900" height="320" viewBox="0 0 900 320" role="img" aria-labelledby="title desc">
<title id="title">unsorry proofs over time</title>
<desc id="desc">Cumulative kernel-verified proofs over time, by the hour each proof was merged.</desc>
<rect width="900" height="100%" rx="18" fill="#ffffff"/>
<rect x="0.5" y="0.5" width="899" height="319" rx="18" fill="none" stroke="#e2e8f0"/>
<text x="32" y="44" font-family="Inter, system-ui, sans-serif" font-size="28" font-weight="700" fill="#334155">unsorry — Proofs Over Time</text>
<text x="32" y="72" font-family="Inter, system-ui, sans-serif" font-size="13" fill="#64748b">3096 cumulative kernel-verified proofs · merged, hourly</text>
<line x1="52" y1="272.0" x2="872" y2="272.0" stroke="#f1f5f9"/>
<text x="44" y="276.0" text-anchor="end" font-family="Inter, system-ui, sans-serif" font-size="11" fill="#94a3b8">0</text>
<line x1="52" y1="226.5" x2="872" y2="226.5" stroke="#f1f5f9"/>
<text x="44" y="230.5" text-anchor="end" font-family="Inter, system-ui, sans-serif" font-size="11" fill="#94a3b8">774</text>
<line x1="52" y1="181.0" x2="872" y2="181.0" stroke="#f1f5f9"/>
<text x="44" y="185.0" text-anchor="end" font-family="Inter, system-ui, sans-serif" font-size="11" fill="#94a3b8">1548</text>
<line x1="52" y1="135.5" x2="872" y2="135.5" stroke="#f1f5f9"/>
<text x="44" y="139.5" text-anchor="end" font-family="Inter, system-ui, sans-serif" font-size="11" fill="#94a3b8">2322</text>
<line x1="52" y1="90.0" x2="872" y2="90.0" stroke="#f1f5f9"/>
<text x="44" y="94.0" text-anchor="end" font-family="Inter, system-ui, sans-serif" font-size="11" fill="#94a3b8">3096</text>
<polygon points="52.0,272.0 52.0,271.9 54.6,271.8 86.1,271.2 88.7,271.1 91.3,271.0 99.2,270.9 114.9,270.9 148.9,270.8 151.6,270.3 154.2,270.2 162.0,270.1 164.7,270.1 167.3,270.0 169.9,269.8 175.1,269.8 177.8,269.5 185.6,269.2 196.1,269.1 198.7,268.9 201.3,268.8 222.3,268.8 227.5,268.7 240.6,268.6 243.2,268.6 245.9,268.5 256.3,268.4 259.0,268.1 261.6,267.8 264.2,267.0 266.8,266.9 285.2,266.8 293.0,266.8 298.3,266.7 300.9,266.7 303.5,266.4 306.1,266.3 308.7,266.2 311.4,266.1 314.0,265.9 324.5,265.6 329.7,265.5 340.2,265.5 342.8,265.2 345.4,265.1 348.0,265.0 353.3,264.9 355.9,263.8 358.5,262.6 361.1,262.2 363.8,261.9 366.4,261.8 369.0,261.5 371.6,261.1 374.2,260.8 376.9,260.6 379.5,260.5 384.7,260.3 387.3,259.8 390.0,259.4 392.6,258.9 395.2,258.6 400.4,258.5 405.7,258.4 408.3,258.0 410.9,257.7 413.5,256.9 416.2,256.4 418.8,256.0 421.4,255.5 424.0,255.0 426.6,254.4 429.3,253.8 431.9,253.2 434.5,252.6 437.1,252.1 439.7,251.7 442.4,251.3 445.0,250.8 447.6,250.6 450.2,250.3 452.8,250.0 455.5,249.9 458.1,249.8 463.3,249.7 465.9,248.5 468.5,247.7 471.2,247.5 473.8,247.5 479.0,247.4 481.6,247.2 492.1,247.1 497.4,247.0 505.2,247.0 507.8,245.6 510.5,244.3 513.1,244.0 515.7,242.9 518.3,242.1 520.9,241.5 523.6,241.3 526.2,240.7 528.8,240.5 531.4,240.4 534.0,240.1 536.7,240.0 552.4,239.1 555.0,237.9 557.6,237.7 560.2,237.6 562.9,237.5 581.2,237.4 604.8,236.2 607.4,235.3 610.0,234.1 612.6,232.5 615.3,232.2 617.9,231.7 620.5,230.7 623.1,230.0 625.7,228.4 628.4,226.1 631.0,223.8 633.6,221.1 636.2,218.3 638.8,215.8 641.5,214.3 644.1,212.5 646.7,209.7 649.3,207.5 651.9,205.9 654.6,204.3 657.2,202.1 659.8,200.7 662.4,199.3 665.0,198.0 667.7,197.1 670.3,195.9 672.9,195.1 675.5,194.3 678.1,193.6 680.8,191.5 683.4,189.8 686.0,188.8 688.6,188.5 691.2,188.0 693.9,187.1 696.5,186.3 699.1,184.9 701.7,184.1 704.3,183.2 707.0,183.1 709.6,182.8 712.2,182.1 714.8,180.4 717.4,177.6 720.1,174.8 722.7,171.9 725.3,169.5 727.9,166.8 730.5,163.8 733.2,160.8 735.8,158.1 738.4,156.1 741.0,154.5 743.6,152.7 746.2,150.9 748.9,149.7 751.5,148.3 754.1,147.3 756.7,145.7 759.3,143.7 762.0,141.2 764.6,139.1 767.2,137.3 769.8,136.1 772.4,135.1 775.1,134.0 777.7,132.9 780.3,130.9 782.9,129.2 785.5,127.1 788.2,125.0 790.8,123.2 793.4,121.8 796.0,121.2 798.6,120.4 801.3,119.6 803.9,119.5 806.5,119.3 809.1,118.9 811.7,118.7 814.4,118.7 817.0,118.4 819.6,118.3 827.5,118.2 830.1,118.2 832.7,117.8 835.3,115.4 837.9,113.3 840.6,111.5 843.2,109.5 845.8,107.6 848.4,105.8 851.0,103.9 853.7,102.1 856.3,100.2 858.9,98.4 861.5,96.6 864.1,94.8 866.8,93.1 869.4,91.4 872.0,90.0 872.0,272.0" fill="#e0f2fe" opacity="0.55"/>
<polyline points="52.0,271.9 54.6,271.8 86.1,271.2 88.7,271.1 91.3,271.0 99.2,270.9 114.9,270.9 148.9,270.8 151.6,270.3 154.2,270.2 162.0,270.1 164.7,270.1 167.3,270.0 169.9,269.8 175.1,269.8 177.8,269.5 185.6,269.2 196.1,269.1 198.7,268.9 201.3,268.8 222.3,268.8 227.5,268.7 240.6,268.6 243.2,268.6 245.9,268.5 256.3,268.4 259.0,268.1 261.6,267.8 264.2,267.0 266.8,266.9 285.2,266.8 293.0,266.8 298.3,266.7 300.9,266.7 303.5,266.4 306.1,266.3 308.7,266.2 311.4,266.1 314.0,265.9 324.5,265.6 329.7,265.5 340.2,265.5 342.8,265.2 345.4,265.1 348.0,265.0 353.3,264.9 355.9,263.8 358.5,262.6 361.1,262.2 363.8,261.9 366.4,261.8 369.0,261.5 371.6,261.1 374.2,260.8 376.9,260.6 379.5,260.5 384.7,260.3 387.3,259.8 390.0,259.4 392.6,258.9 395.2,258.6 400.4,258.5 405.7,258.4 408.3,258.0 410.9,257.7 413.5,256.9 416.2,256.4 418.8,256.0 421.4,255.5 424.0,255.0 426.6,254.4 429.3,253.8 431.9,253.2 434.5,252.6 437.1,252.1 439.7,251.7 442.4,251.3 445.0,250.8 447.6,250.6 450.2,250.3 452.8,250.0 455.5,249.9 458.1,249.8 463.3,249.7 465.9,248.5 468.5,247.7 471.2,247.5 473.8,247.5 479.0,247.4 481.6,247.2 492.1,247.1 497.4,247.0 505.2,247.0 507.8,245.6 510.5,244.3 513.1,244.0 515.7,242.9 518.3,242.1 520.9,241.5 523.6,241.3 526.2,240.7 528.8,240.5 531.4,240.4 534.0,240.1 536.7,240.0 552.4,239.1 555.0,237.9 557.6,237.7 560.2,237.6 562.9,237.5 581.2,237.4 604.8,236.2 607.4,235.3 610.0,234.1 612.6,232.5 615.3,232.2 617.9,231.7 620.5,230.7 623.1,230.0 625.7,228.4 628.4,226.1 631.0,223.8 633.6,221.1 636.2,218.3 638.8,215.8 641.5,214.3 644.1,212.5 646.7,209.7 649.3,207.5 651.9,205.9 654.6,204.3 657.2,202.1 659.8,200.7 662.4,199.3 665.0,198.0 667.7,197.1 670.3,195.9 672.9,195.1 675.5,194.3 678.1,193.6 680.8,191.5 683.4,189.8 686.0,188.8 688.6,188.5 691.2,188.0 693.9,187.1 696.5,186.3 699.1,184.9 701.7,184.1 704.3,183.2 707.0,183.1 709.6,182.8 712.2,182.1 714.8,180.4 717.4,177.6 720.1,174.8 722.7,171.9 725.3,169.5 727.9,166.8 730.5,163.8 733.2,160.8 735.8,158.1 738.4,156.1 741.0,154.5 743.6,152.7 746.2,150.9 748.9,149.7 751.5,148.3 754.1,147.3 756.7,145.7 759.3,143.7 762.0,141.2 764.6,139.1 767.2,137.3 769.8,136.1 772.4,135.1 775.1,134.0 777.7,132.9 780.3,130.9 782.9,129.2 785.5,127.1 788.2,125.0 790.8,123.2 793.4,121.8 796.0,121.2 798.6,120.4 801.3,119.6 803.9,119.5 806.5,119.3 809.1,118.9 811.7,118.7 814.4,118.7 817.0,118.4 819.6,118.3 827.5,118.2 830.1,118.2 832.7,117.8 835.3,115.4 837.9,113.3 840.6,111.5 843.2,109.5 845.8,107.6 848.4,105.8 851.0,103.9 853.7,102.1 856.3,100.2 858.9,98.4 861.5,96.6 864.1,94.8 866.8,93.1 869.4,91.4 872.0,90.0" fill="none" stroke="#38bdf8" stroke-width="2.5" stroke-linejoin="round" stroke-linecap="round"/>
<circle cx="872.0" cy="90.0" r="4" fill="#0ea5e9"/>
<text x="866.0" y="80.0" text-anchor="end" font-family="Inter, system-ui, sans-serif" font-size="13" font-weight="700" fill="#334155">3096</text>
<text x="52.0" y="294" text-anchor="middle" font-family="Inter, system-ui, sans-serif" font-size="11" fill="#94a3b8">Jun 10 05:00</text>
<text x="555.0" y="294" text-anchor="middle" font-family="Inter, system-ui, sans-serif" font-size="11" fill="#94a3b8">Jun 18 05:00</text>
<text x="872.0" y="294" text-anchor="middle" font-family="Inter, system-ui, sans-serif" font-size="11" fill="#94a3b8">Jun 23 06:00</text>
</svg>
