<svg xmlns="http://www.w3.org/2000/svg" width="900" height="320" viewBox="0 0 900 320" role="img" aria-labelledby="title desc">
<title id="title">unsorry proofs over time</title>
<desc id="desc">Cumulative kernel-verified proofs over time, by the hour each proof was merged.</desc>
<rect width="900" height="100%" rx="18" fill="#ffffff"/>
<rect x="0.5" y="0.5" width="899" height="319" rx="18" fill="none" stroke="#e2e8f0"/>
<text x="32" y="44" font-family="Inter, system-ui, sans-serif" font-size="28" font-weight="700" fill="#334155">unsorry — Proofs Over Time</text>
<text x="32" y="72" font-family="Inter, system-ui, sans-serif" font-size="13" fill="#64748b">3554 cumulative kernel-verified proofs · merged, hourly</text>
<line x1="52" y1="272.0" x2="872" y2="272.0" stroke="#f1f5f9"/>
<text x="44" y="276.0" text-anchor="end" font-family="Inter, system-ui, sans-serif" font-size="11" fill="#94a3b8">0</text>
<line x1="52" y1="226.5" x2="872" y2="226.5" stroke="#f1f5f9"/>
<text x="44" y="230.5" text-anchor="end" font-family="Inter, system-ui, sans-serif" font-size="11" fill="#94a3b8">888</text>
<line x1="52" y1="181.0" x2="872" y2="181.0" stroke="#f1f5f9"/>
<text x="44" y="185.0" text-anchor="end" font-family="Inter, system-ui, sans-serif" font-size="11" fill="#94a3b8">1777</text>
<line x1="52" y1="135.5" x2="872" y2="135.5" stroke="#f1f5f9"/>
<text x="44" y="139.5" text-anchor="end" font-family="Inter, system-ui, sans-serif" font-size="11" fill="#94a3b8">2666</text>
<line x1="52" y1="90.0" x2="872" y2="90.0" stroke="#f1f5f9"/>
<text x="44" y="94.0" text-anchor="end" font-family="Inter, system-ui, sans-serif" font-size="11" fill="#94a3b8">3554</text>
<polygon points="52.0,272.0 52.0,271.9 54.5,271.8 84.0,271.3 86.5,271.2 88.9,271.1 96.3,271.1 111.1,271.0 143.1,271.0 145.6,270.5 148.0,270.5 155.4,270.4 157.9,270.3 160.3,270.3 162.8,270.1 167.7,270.1 170.2,269.8 177.6,269.6 187.4,269.5 189.9,269.3 192.4,269.2 212.1,269.2 217.0,269.1 229.3,269.1 231.8,269.0 234.2,268.9 244.1,268.9 246.5,268.6 249.0,268.3 251.5,267.6 253.9,267.5 271.2,267.5 278.5,267.4 283.5,267.4 285.9,267.3 288.4,267.1 290.9,267.0 293.3,267.0 295.8,266.8 298.2,266.7 308.1,266.4 313.0,266.4 322.9,266.3 325.3,266.1 327.8,266.0 330.3,265.9 335.2,265.9 337.6,264.8 340.1,263.8 342.6,263.4 345.0,263.2 347.5,263.1 350.0,262.8 352.4,262.5 354.9,262.2 357.3,262.1 359.8,262.0 364.7,261.8 367.2,261.4 369.7,261.0 372.1,260.6 374.6,260.3 379.5,260.2 384.4,260.2 386.9,259.8 389.4,259.6 391.8,258.8 394.3,258.4 396.7,258.0 399.2,257.6 401.7,257.1 404.1,256.7 406.6,256.2 409.1,255.6 411.5,255.1 414.0,254.6 416.4,254.3 418.9,254.0 421.4,253.6 423.8,253.4 426.3,253.1 428.8,252.8 431.2,252.7 433.7,252.6 438.6,252.6 441.1,251.6 443.5,250.9 446.0,250.7 448.5,250.6 453.4,250.5 455.8,250.4 465.7,250.3 470.6,250.2 478.0,250.2 480.5,249.0 482.9,247.9 485.4,247.6 487.9,246.7 490.3,245.9 492.8,245.5 495.2,245.2 497.7,244.8 500.2,244.6 502.6,244.4 505.1,244.2 507.6,244.1 522.3,243.3 524.8,242.3 527.3,242.1 529.7,242.0 532.2,241.9 549.4,241.9 571.6,240.8 574.0,240.0 576.5,239.0 579.0,237.6 581.4,237.3 583.9,236.9 586.4,236.1 588.8,235.4 591.3,234.1 593.7,232.0 596.2,230.0 598.7,227.7 601.1,225.2 603.6,223.0 606.1,221.7 608.5,220.1 611.0,217.8 613.4,215.8 615.9,214.4 618.4,213.1 620.8,211.1 623.3,209.9 625.8,208.7 628.2,207.6 630.7,206.8 633.1,205.7 635.6,205.0 638.1,204.3 640.5,203.7 643.0,201.8 645.5,200.4 647.9,199.5 650.4,199.3 652.8,198.8 655.3,198.1 657.8,197.4 660.2,196.2 662.7,195.4 665.2,194.7 667.6,194.6 670.1,194.3 672.5,193.7 675.0,192.2 677.5,189.8 679.9,187.3 682.4,184.8 684.9,182.7 687.3,180.3 689.8,177.8 692.2,175.2 694.7,172.8 697.2,171.0 699.6,169.6 702.1,168.0 704.6,166.5 707.0,165.5 709.5,164.3 711.9,163.3 714.4,162.0 716.9,160.2 719.3,158.1 721.8,156.3 724.3,154.7 726.7,153.7 729.2,152.7 731.6,151.8 734.1,150.8 736.6,149.0 739.0,147.6 741.5,145.8 744.0,143.9 746.4,142.4 748.9,141.2 751.3,140.6 753.8,139.9 756.3,139.2 758.7,139.1 761.2,139.0 763.7,138.6 766.1,138.5 768.6,138.4 771.0,138.2 773.5,138.1 780.9,138.0 783.4,138.0 785.8,137.7 788.3,135.6 790.7,133.8 793.2,132.2 795.7,130.4 798.1,128.8 800.6,127.2 803.1,125.5 805.5,124.0 808.0,122.3 810.4,120.8 812.9,119.2 815.4,117.7 817.8,116.2 820.3,114.6 822.8,113.1 825.2,111.9 827.7,110.4 830.1,109.0 832.6,107.6 835.1,106.2 837.5,104.9 840.0,103.9 842.5,103.0 844.9,102.1 847.4,100.8 849.8,99.6 852.3,98.4 854.8,97.1 857.2,95.9 859.7,94.8 862.2,93.6 864.6,92.4 867.1,91.2 869.5,90.1 872.0,90.0 872.0,272.0" fill="#e0f2fe" opacity="0.55"/>
<polyline points="52.0,271.9 54.5,271.8 84.0,271.3 86.5,271.2 88.9,271.1 96.3,271.1 111.1,271.0 143.1,271.0 145.6,270.5 148.0,270.5 155.4,270.4 157.9,270.3 160.3,270.3 162.8,270.1 167.7,270.1 170.2,269.8 177.6,269.6 187.4,269.5 189.9,269.3 192.4,269.2 212.1,269.2 217.0,269.1 229.3,269.1 231.8,269.0 234.2,268.9 244.1,268.9 246.5,268.6 249.0,268.3 251.5,267.6 253.9,267.5 271.2,267.5 278.5,267.4 283.5,267.4 285.9,267.3 288.4,267.1 290.9,267.0 293.3,267.0 295.8,266.8 298.2,266.7 308.1,266.4 313.0,266.4 322.9,266.3 325.3,266.1 327.8,266.0 330.3,265.9 335.2,265.9 337.6,264.8 340.1,263.8 342.6,263.4 345.0,263.2 347.5,263.1 350.0,262.8 352.4,262.5 354.9,262.2 357.3,262.1 359.8,262.0 364.7,261.8 367.2,261.4 369.7,261.0 372.1,260.6 374.6,260.3 379.5,260.2 384.4,260.2 386.9,259.8 389.4,259.6 391.8,258.8 394.3,258.4 396.7,258.0 399.2,257.6 401.7,257.1 404.1,256.7 406.6,256.2 409.1,255.6 411.5,255.1 414.0,254.6 416.4,254.3 418.9,254.0 421.4,253.6 423.8,253.4 426.3,253.1 428.8,252.8 431.2,252.7 433.7,252.6 438.6,252.6 441.1,251.6 443.5,250.9 446.0,250.7 448.5,250.6 453.4,250.5 455.8,250.4 465.7,250.3 470.6,250.2 478.0,250.2 480.5,249.0 482.9,247.9 485.4,247.6 487.9,246.7 490.3,245.9 492.8,245.5 495.2,245.2 497.7,244.8 500.2,244.6 502.6,244.4 505.1,244.2 507.6,244.1 522.3,243.3 524.8,242.3 527.3,242.1 529.7,242.0 532.2,241.9 549.4,241.9 571.6,240.8 574.0,240.0 576.5,239.0 579.0,237.6 581.4,237.3 583.9,236.9 586.4,236.1 588.8,235.4 591.3,234.1 593.7,232.0 596.2,230.0 598.7,227.7 601.1,225.2 603.6,223.0 606.1,221.7 608.5,220.1 611.0,217.8 613.4,215.8 615.9,214.4 618.4,213.1 620.8,211.1 623.3,209.9 625.8,208.7 628.2,207.6 630.7,206.8 633.1,205.7 635.6,205.0 638.1,204.3 640.5,203.7 643.0,201.8 645.5,200.4 647.9,199.5 650.4,199.3 652.8,198.8 655.3,198.1 657.8,197.4 660.2,196.2 662.7,195.4 665.2,194.7 667.6,194.6 670.1,194.3 672.5,193.7 675.0,192.2 677.5,189.8 679.9,187.3 682.4,184.8 684.9,182.7 687.3,180.3 689.8,177.8 692.2,175.2 694.7,172.8 697.2,171.0 699.6,169.6 702.1,168.0 704.6,166.5 707.0,165.5 709.5,164.3 711.9,163.3 714.4,162.0 716.9,160.2 719.3,158.1 721.8,156.3 724.3,154.7 726.7,153.7 729.2,152.7 731.6,151.8 734.1,150.8 736.6,149.0 739.0,147.6 741.5,145.8 744.0,143.9 746.4,142.4 748.9,141.2 751.3,140.6 753.8,139.9 756.3,139.2 758.7,139.1 761.2,139.0 763.7,138.6 766.1,138.5 768.6,138.4 771.0,138.2 773.5,138.1 780.9,138.0 783.4,138.0 785.8,137.7 788.3,135.6 790.7,133.8 793.2,132.2 795.7,130.4 798.1,128.8 800.6,127.2 803.1,125.5 805.5,124.0 808.0,122.3 810.4,120.8 812.9,119.2 815.4,117.7 817.8,116.2 820.3,114.6 822.8,113.1 825.2,111.9 827.7,110.4 830.1,109.0 832.6,107.6 835.1,106.2 837.5,104.9 840.0,103.9 842.5,103.0 844.9,102.1 847.4,100.8 849.8,99.6 852.3,98.4 854.8,97.1 857.2,95.9 859.7,94.8 862.2,93.6 864.6,92.4 867.1,91.2 869.5,90.1 872.0,90.0" fill="none" stroke="#38bdf8" stroke-width="2.5" stroke-linejoin="round" stroke-linecap="round"/>
<circle cx="872.0" cy="90.0" r="4" fill="#0ea5e9"/>
<text x="866.0" y="80.0" text-anchor="end" font-family="Inter, system-ui, sans-serif" font-size="13" font-weight="700" fill="#334155">3554</text>
<text x="52.0" y="294" text-anchor="middle" font-family="Inter, system-ui, sans-serif" font-size="11" fill="#94a3b8">Jun 10 05:00</text>
<text x="583.9" y="294" text-anchor="middle" font-family="Inter, system-ui, sans-serif" font-size="11" fill="#94a3b8">Jun 19 05:00</text>
<text x="872.0" y="294" text-anchor="middle" font-family="Inter, system-ui, sans-serif" font-size="11" fill="#94a3b8">Jun 24 02:00</text>
</svg>
