<svg xmlns="http://www.w3.org/2000/svg" width="900" height="320" viewBox="0 0 900 320" role="img" aria-labelledby="title desc">
<title id="title">unsorry proofs over time</title>
<desc id="desc">Cumulative kernel-verified proofs over time, by the hour each proof was merged.</desc>
<rect width="900" height="100%" rx="18" fill="#ffffff"/>
<rect x="0.5" y="0.5" width="899" height="319" rx="18" fill="none" stroke="#e2e8f0"/>
<text x="32" y="44" font-family="Inter, system-ui, sans-serif" font-size="28" font-weight="700" fill="#334155">unsorry — Proofs Over Time</text>
<text x="32" y="72" font-family="Inter, system-ui, sans-serif" font-size="13" fill="#64748b">4460 cumulative kernel-verified proofs · merged, hourly</text>
<line x1="52" y1="272.0" x2="872" y2="272.0" stroke="#f1f5f9"/>
<text x="44" y="276.0" text-anchor="end" font-family="Inter, system-ui, sans-serif" font-size="11" fill="#94a3b8">0</text>
<line x1="52" y1="226.5" x2="872" y2="226.5" stroke="#f1f5f9"/>
<text x="44" y="230.5" text-anchor="end" font-family="Inter, system-ui, sans-serif" font-size="11" fill="#94a3b8">1115</text>
<line x1="52" y1="181.0" x2="872" y2="181.0" stroke="#f1f5f9"/>
<text x="44" y="185.0" text-anchor="end" font-family="Inter, system-ui, sans-serif" font-size="11" fill="#94a3b8">2230</text>
<line x1="52" y1="135.5" x2="872" y2="135.5" stroke="#f1f5f9"/>
<text x="44" y="139.5" text-anchor="end" font-family="Inter, system-ui, sans-serif" font-size="11" fill="#94a3b8">3345</text>
<line x1="52" y1="90.0" x2="872" y2="90.0" stroke="#f1f5f9"/>
<text x="44" y="94.0" text-anchor="end" font-family="Inter, system-ui, sans-serif" font-size="11" fill="#94a3b8">4460</text>
<polygon points="52.0,272.0 52.0,272.0 54.1,271.9 79.8,271.5 81.9,271.3 84.0,271.3 90.4,271.3 103.2,271.2 131.0,271.2 133.1,270.8 135.3,270.8 141.7,270.7 143.8,270.7 146.0,270.6 148.1,270.5 152.4,270.4 154.5,270.2 160.9,270.1 169.4,270.0 171.6,269.9 173.7,269.8 190.8,269.8 195.1,269.7 205.8,269.7 207.9,269.6 210.0,269.6 218.6,269.5 220.7,269.3 222.8,269.1 225.0,268.5 227.1,268.4 242.1,268.4 248.5,268.4 252.7,268.3 254.9,268.3 257.0,268.1 259.1,268.0 261.3,268.0 263.4,267.9 265.5,267.8 274.1,267.6 278.4,267.5 286.9,267.5 289.0,267.3 291.2,267.2 293.3,267.1 297.6,267.1 299.7,266.3 301.8,265.5 304.0,265.2 306.1,265.0 308.2,264.9 310.4,264.7 312.5,264.4 314.7,264.2 316.8,264.1 318.9,264.0 323.2,263.9 325.3,263.6 327.5,263.2 329.6,262.9 331.7,262.7 336.0,262.6 340.3,262.6 342.4,262.3 344.6,262.1 346.7,261.5 348.8,261.2 351.0,260.9 353.1,260.5 355.2,260.2 357.4,259.8 359.5,259.4 361.6,258.9 363.8,258.5 365.9,258.2 368.0,257.9 370.2,257.6 372.3,257.3 374.4,257.1 376.6,256.9 378.7,256.7 380.9,256.7 383.0,256.6 387.3,256.5 389.4,255.7 391.5,255.1 393.7,255.0 395.8,255.0 400.1,254.9 402.2,254.8 410.8,254.7 415.0,254.7 421.4,254.6 423.6,253.7 425.7,252.8 427.8,252.5 430.0,251.8 432.1,251.2 434.2,250.9 436.4,250.7 438.5,250.3 440.6,250.1 442.8,250.0 444.9,249.9 447.1,249.8 459.9,249.1 462.0,248.3 464.1,248.2 466.3,248.1 468.4,248.0 483.4,248.0 502.6,247.1 504.7,246.5 506.8,245.7 509.0,244.6 511.1,244.4 513.2,244.0 515.4,243.4 517.5,242.9 519.7,241.8 521.8,240.1 523.9,238.5 526.1,236.7 528.2,234.7 530.3,233.0 532.5,231.9 534.6,230.7 536.7,228.8 538.9,227.2 541.0,226.1 543.1,225.0 545.3,223.5 547.4,222.5 549.6,221.5 551.7,220.7 553.8,220.0 556.0,219.2 558.1,218.6 560.2,218.1 562.4,217.6 564.5,216.1 566.6,214.9 568.8,214.3 570.9,214.1 573.0,213.7 575.2,213.1 577.3,212.5 579.4,211.6 581.6,211.0 583.7,210.4 585.9,210.3 588.0,210.1 590.1,209.6 592.3,208.4 594.4,206.5 596.5,204.5 598.7,202.5 600.8,200.9 602.9,199.0 605.1,196.9 607.2,194.8 609.3,192.9 611.5,191.5 613.6,190.4 615.8,189.2 617.9,187.9 620.0,187.1 622.2,186.1 624.3,185.4 626.4,184.3 628.6,182.9 630.7,181.2 632.8,179.8 635.0,178.5 637.1,177.7 639.2,177.0 641.4,176.2 643.5,175.4 645.6,174.0 647.8,172.8 649.9,171.4 652.1,169.9 654.2,168.7 656.3,167.7 658.5,167.3 660.6,166.8 662.7,166.2 664.9,166.1 667.0,166.0 669.1,165.7 671.3,165.6 673.4,165.6 675.5,165.4 677.7,165.3 684.1,165.2 686.2,165.2 688.4,165.0 690.5,163.3 692.6,161.9 694.8,160.6 696.9,159.2 699.0,157.9 701.2,156.6 703.3,155.3 705.4,154.1 707.6,152.7 709.7,151.5 711.8,150.2 714.0,149.0 716.1,147.8 718.2,146.6 720.4,145.4 722.5,144.4 724.7,143.3 726.8,142.1 728.9,141.0 731.1,139.9 733.2,138.8 735.3,138.1 737.5,137.3 739.6,136.6 741.7,135.5 743.9,134.6 746.0,133.7 748.1,132.6 750.3,131.7 752.4,130.8 754.6,129.8 756.7,128.8 758.8,127.9 761.0,127.0 763.1,126.0 765.2,125.1 767.4,124.2 769.5,123.4 771.6,122.6 773.8,121.7 775.9,120.8 778.0,120.0 780.2,119.4 782.3,118.8 784.4,118.4 786.6,118.3 788.7,117.4 790.9,116.6 793.0,115.8 795.1,115.0 797.3,114.3 799.4,113.5 801.5,112.7 803.7,111.9 805.8,111.2 807.9,110.5 810.1,109.8 812.2,109.1 814.3,108.3 816.5,107.6 818.6,106.9 820.8,106.2 822.9,105.5 825.0,104.9 827.2,104.0 829.3,103.5 831.4,102.9 833.6,102.0 835.7,101.2 837.8,100.6 840.0,99.8 842.1,99.1 844.2,98.5 846.4,97.8 848.5,97.0 850.6,96.4 852.8,96.0 854.9,95.4 857.1,94.7 859.2,94.0 861.3,93.1 863.5,92.4 865.6,91.7 867.7,91.1 869.9,90.5 872.0,90.0 872.0,272.0" fill="#e0f2fe" opacity="0.55"/>
<polyline points="52.0,272.0 54.1,271.9 79.8,271.5 81.9,271.3 84.0,271.3 90.4,271.3 103.2,271.2 131.0,271.2 133.1,270.8 135.3,270.8 141.7,270.7 143.8,270.7 146.0,270.6 148.1,270.5 152.4,270.4 154.5,270.2 160.9,270.1 169.4,270.0 171.6,269.9 173.7,269.8 190.8,269.8 195.1,269.7 205.8,269.7 207.9,269.6 210.0,269.6 218.6,269.5 220.7,269.3 222.8,269.1 225.0,268.5 227.1,268.4 242.1,268.4 248.5,268.4 252.7,268.3 254.9,268.3 257.0,268.1 259.1,268.0 261.3,268.0 263.4,267.9 265.5,267.8 274.1,267.6 278.4,267.5 286.9,267.5 289.0,267.3 291.2,267.2 293.3,267.1 297.6,267.1 299.7,266.3 301.8,265.5 304.0,265.2 306.1,265.0 308.2,264.9 310.4,264.7 312.5,264.4 314.7,264.2 316.8,264.1 318.9,264.0 323.2,263.9 325.3,263.6 327.5,263.2 329.6,262.9 331.7,262.7 336.0,262.6 340.3,262.6 342.4,262.3 344.6,262.1 346.7,261.5 348.8,261.2 351.0,260.9 353.1,260.5 355.2,260.2 357.4,259.8 359.5,259.4 361.6,258.9 363.8,258.5 365.9,258.2 368.0,257.9 370.2,257.6 372.3,257.3 374.4,257.1 376.6,256.9 378.7,256.7 380.9,256.7 383.0,256.6 387.3,256.5 389.4,255.7 391.5,255.1 393.7,255.0 395.8,255.0 400.1,254.9 402.2,254.8 410.8,254.7 415.0,254.7 421.4,254.6 423.6,253.7 425.7,252.8 427.8,252.5 430.0,251.8 432.1,251.2 434.2,250.9 436.4,250.7 438.5,250.3 440.6,250.1 442.8,250.0 444.9,249.9 447.1,249.8 459.9,249.1 462.0,248.3 464.1,248.2 466.3,248.1 468.4,248.0 483.4,248.0 502.6,247.1 504.7,246.5 506.8,245.7 509.0,244.6 511.1,244.4 513.2,244.0 515.4,243.4 517.5,242.9 519.7,241.8 521.8,240.1 523.9,238.5 526.1,236.7 528.2,234.7 530.3,233.0 532.5,231.9 534.6,230.7 536.7,228.8 538.9,227.2 541.0,226.1 543.1,225.0 545.3,223.5 547.4,222.5 549.6,221.5 551.7,220.7 553.8,220.0 556.0,219.2 558.1,218.6 560.2,218.1 562.4,217.6 564.5,216.1 566.6,214.9 568.8,214.3 570.9,214.1 573.0,213.7 575.2,213.1 577.3,212.5 579.4,211.6 581.6,211.0 583.7,210.4 585.9,210.3 588.0,210.1 590.1,209.6 592.3,208.4 594.4,206.5 596.5,204.5 598.7,202.5 600.8,200.9 602.9,199.0 605.1,196.9 607.2,194.8 609.3,192.9 611.5,191.5 613.6,190.4 615.8,189.2 617.9,187.9 620.0,187.1 622.2,186.1 624.3,185.4 626.4,184.3 628.6,182.9 630.7,181.2 632.8,179.8 635.0,178.5 637.1,177.7 639.2,177.0 641.4,176.2 643.5,175.4 645.6,174.0 647.8,172.8 649.9,171.4 652.1,169.9 654.2,168.7 656.3,167.7 658.5,167.3 660.6,166.8 662.7,166.2 664.9,166.1 667.0,166.0 669.1,165.7 671.3,165.6 673.4,165.6 675.5,165.4 677.7,165.3 684.1,165.2 686.2,165.2 688.4,165.0 690.5,163.3 692.6,161.9 694.8,160.6 696.9,159.2 699.0,157.9 701.2,156.6 703.3,155.3 705.4,154.1 707.6,152.7 709.7,151.5 711.8,150.2 714.0,149.0 716.1,147.8 718.2,146.6 720.4,145.4 722.5,144.4 724.7,143.3 726.8,142.1 728.9,141.0 731.1,139.9 733.2,138.8 735.3,138.1 737.5,137.3 739.6,136.6 741.7,135.5 743.9,134.6 746.0,133.7 748.1,132.6 750.3,131.7 752.4,130.8 754.6,129.8 756.7,128.8 758.8,127.9 761.0,127.0 763.1,126.0 765.2,125.1 767.4,124.2 769.5,123.4 771.6,122.6 773.8,121.7 775.9,120.8 778.0,120.0 780.2,119.4 782.3,118.8 784.4,118.4 786.6,118.3 788.7,117.4 790.9,116.6 793.0,115.8 795.1,115.0 797.3,114.3 799.4,113.5 801.5,112.7 803.7,111.9 805.8,111.2 807.9,110.5 810.1,109.8 812.2,109.1 814.3,108.3 816.5,107.6 818.6,106.9 820.8,106.2 822.9,105.5 825.0,104.9 827.2,104.0 829.3,103.5 831.4,102.9 833.6,102.0 835.7,101.2 837.8,100.6 840.0,99.8 842.1,99.1 844.2,98.5 846.4,97.8 848.5,97.0 850.6,96.4 852.8,96.0 854.9,95.4 857.1,94.7 859.2,94.0 861.3,93.1 863.5,92.4 865.6,91.7 867.7,91.1 869.9,90.5 872.0,90.0" fill="none" stroke="#38bdf8" stroke-width="2.5" stroke-linejoin="round" stroke-linecap="round"/>
<circle cx="872.0" cy="90.0" r="4" fill="#0ea5e9"/>
<text x="866.0" y="80.0" text-anchor="end" font-family="Inter, system-ui, sans-serif" font-size="13" font-weight="700" fill="#334155">4460</text>
<text x="52.0" y="294" text-anchor="middle" font-family="Inter, system-ui, sans-serif" font-size="11" fill="#94a3b8">Jun 10 05:00</text>
<text x="566.6" y="294" text-anchor="middle" font-family="Inter, system-ui, sans-serif" font-size="11" fill="#94a3b8">Jun 20 06:00</text>
<text x="872.0" y="294" text-anchor="middle" font-family="Inter, system-ui, sans-serif" font-size="11" fill="#94a3b8">Jun 26 05:00</text>
</svg>
