<svg xmlns="http://www.w3.org/2000/svg" width="900" height="320" viewBox="0 0 900 320" role="img" aria-labelledby="title desc">
<title id="title">unsorry proofs over time</title>
<desc id="desc">Cumulative kernel-verified proofs over time, by the hour each proof was merged.</desc>
<rect width="900" height="100%" rx="18" fill="#ffffff"/>
<rect x="0.5" y="0.5" width="899" height="319" rx="18" fill="none" stroke="#e2e8f0"/>
<text x="32" y="44" font-family="Inter, system-ui, sans-serif" font-size="28" font-weight="700" fill="#334155">unsorry — Proofs Over Time</text>
<text x="32" y="72" font-family="Inter, system-ui, sans-serif" font-size="13" fill="#64748b">4292 cumulative kernel-verified proofs · merged, hourly</text>
<line x1="52" y1="272.0" x2="872" y2="272.0" stroke="#f1f5f9"/>
<text x="44" y="276.0" text-anchor="end" font-family="Inter, system-ui, sans-serif" font-size="11" fill="#94a3b8">0</text>
<line x1="52" y1="226.5" x2="872" y2="226.5" stroke="#f1f5f9"/>
<text x="44" y="230.5" text-anchor="end" font-family="Inter, system-ui, sans-serif" font-size="11" fill="#94a3b8">1073</text>
<line x1="52" y1="181.0" x2="872" y2="181.0" stroke="#f1f5f9"/>
<text x="44" y="185.0" text-anchor="end" font-family="Inter, system-ui, sans-serif" font-size="11" fill="#94a3b8">2146</text>
<line x1="52" y1="135.5" x2="872" y2="135.5" stroke="#f1f5f9"/>
<text x="44" y="139.5" text-anchor="end" font-family="Inter, system-ui, sans-serif" font-size="11" fill="#94a3b8">3219</text>
<line x1="52" y1="90.0" x2="872" y2="90.0" stroke="#f1f5f9"/>
<text x="44" y="94.0" text-anchor="end" font-family="Inter, system-ui, sans-serif" font-size="11" fill="#94a3b8">4292</text>
<polygon points="52.0,272.0 52.0,272.0 54.2,271.9 80.5,271.4 82.7,271.3 84.9,271.3 91.5,271.2 104.6,271.2 133.1,271.2 135.3,270.8 137.5,270.7 144.1,270.6 146.3,270.6 148.5,270.6 150.7,270.4 155.0,270.4 157.2,270.2 163.8,270.0 172.6,269.9 174.8,269.8 177.0,269.7 194.5,269.7 198.9,269.6 209.9,269.6 212.1,269.5 214.2,269.5 223.0,269.4 225.2,269.2 227.4,268.9 229.6,268.4 231.8,268.3 247.1,268.3 253.7,268.2 258.1,268.2 260.3,268.1 262.5,267.9 264.7,267.9 266.9,267.8 269.1,267.7 271.3,267.6 280.0,267.4 284.4,267.3 293.2,267.3 295.4,267.1 297.6,267.0 299.8,267.0 304.1,266.9 306.3,266.1 308.5,265.2 310.7,264.9 312.9,264.7 315.1,264.6 317.3,264.4 319.5,264.1 321.7,263.9 323.9,263.8 326.1,263.7 330.4,263.6 332.6,263.2 334.8,262.9 337.0,262.5 339.2,262.3 343.6,262.2 348.0,262.2 350.2,261.9 352.4,261.7 354.6,261.1 356.8,260.8 359.0,260.4 361.1,260.1 363.3,259.7 365.5,259.3 367.7,258.9 369.9,258.4 372.1,258.0 374.3,257.6 376.5,257.4 378.7,257.1 380.9,256.7 383.1,256.6 385.3,256.4 387.5,256.1 389.6,256.1 391.8,256.0 396.2,255.9 398.4,255.1 400.6,254.5 402.8,254.4 405.0,254.3 409.4,254.2 411.6,254.1 420.3,254.1 424.7,254.0 431.3,253.9 433.5,253.0 435.7,252.0 437.9,251.8 440.1,251.0 442.3,250.4 444.5,250.0 446.7,249.8 448.8,249.4 451.0,249.3 453.2,249.2 455.4,249.0 457.6,248.9 470.8,248.3 473.0,247.4 475.2,247.3 477.3,247.2 479.5,247.1 494.9,247.1 514.6,246.2 516.8,245.5 519.0,244.7 521.2,243.5 523.4,243.3 525.6,242.9 527.8,242.2 530.0,241.7 532.2,240.6 534.4,238.9 536.5,237.2 538.7,235.3 540.9,233.2 543.1,231.5 545.3,230.4 547.5,229.0 549.7,227.1 551.9,225.4 554.1,224.3 556.3,223.2 558.5,221.6 560.7,220.6 562.9,219.5 565.0,218.7 567.2,218.0 569.4,217.1 571.6,216.5 573.8,215.9 576.0,215.4 578.2,213.9 580.4,212.7 582.6,212.0 584.8,211.8 587.0,211.4 589.2,210.8 591.4,210.2 593.6,209.2 595.7,208.6 597.9,208.0 600.1,207.9 602.3,207.6 604.5,207.2 606.7,205.9 608.9,203.9 611.1,201.9 613.3,199.8 615.5,198.1 617.7,196.1 619.9,194.0 622.1,191.8 624.2,189.8 626.4,188.4 628.6,187.2 630.8,185.9 633.0,184.6 635.2,183.8 637.4,182.8 639.6,182.0 641.8,180.9 644.0,179.4 646.2,177.7 648.4,176.2 650.6,174.9 652.7,174.0 654.9,173.2 657.1,172.5 659.3,171.6 661.5,170.2 663.7,169.0 665.9,167.5 668.1,165.9 670.3,164.7 672.5,163.7 674.7,163.2 676.9,162.6 679.1,162.0 681.3,162.0 683.4,161.9 685.6,161.6 687.8,161.5 690.0,161.4 692.2,161.2 694.4,161.1 701.0,161.1 703.2,161.0 705.4,160.8 707.6,159.0 709.8,157.6 711.9,156.2 714.1,154.8 716.3,153.4 718.5,152.1 720.7,150.7 722.9,149.5 725.1,148.1 727.3,146.8 729.5,145.5 731.7,144.2 733.9,143.0 736.1,141.7 738.3,140.5 740.4,139.4 742.6,138.2 744.8,137.0 747.0,135.8 749.2,134.7 751.4,133.6 753.6,132.8 755.8,132.1 758.0,131.3 760.2,130.2 762.4,129.2 764.6,128.3 766.8,127.1 769.0,126.2 771.1,125.3 773.3,124.3 775.5,123.2 777.7,122.3 779.9,121.3 782.1,120.2 784.3,119.4 786.5,118.4 788.7,117.6 790.9,116.8 793.1,115.8 795.3,114.9 797.5,114.1 799.6,113.4 801.8,112.8 804.0,112.4 806.2,112.3 808.4,111.4 810.6,110.6 812.8,109.7 815.0,108.8 817.2,108.1 819.4,107.3 821.6,106.5 823.8,105.6 826.0,104.9 828.1,104.2 830.3,103.4 832.5,102.7 834.7,101.9 836.9,101.2 839.1,100.4 841.3,99.7 843.5,98.9 845.7,98.3 847.9,97.5 850.1,96.9 852.3,96.3 854.5,95.4 856.7,94.5 858.8,93.9 861.0,93.1 863.2,92.3 865.4,91.7 867.6,91.0 869.8,90.2 872.0,90.0 872.0,272.0" fill="#e0f2fe" opacity="0.55"/>
<polyline points="52.0,272.0 54.2,271.9 80.5,271.4 82.7,271.3 84.9,271.3 91.5,271.2 104.6,271.2 133.1,271.2 135.3,270.8 137.5,270.7 144.1,270.6 146.3,270.6 148.5,270.6 150.7,270.4 155.0,270.4 157.2,270.2 163.8,270.0 172.6,269.9 174.8,269.8 177.0,269.7 194.5,269.7 198.9,269.6 209.9,269.6 212.1,269.5 214.2,269.5 223.0,269.4 225.2,269.2 227.4,268.9 229.6,268.4 231.8,268.3 247.1,268.3 253.7,268.2 258.1,268.2 260.3,268.1 262.5,267.9 264.7,267.9 266.9,267.8 269.1,267.7 271.3,267.6 280.0,267.4 284.4,267.3 293.2,267.3 295.4,267.1 297.6,267.0 299.8,267.0 304.1,266.9 306.3,266.1 308.5,265.2 310.7,264.9 312.9,264.7 315.1,264.6 317.3,264.4 319.5,264.1 321.7,263.9 323.9,263.8 326.1,263.7 330.4,263.6 332.6,263.2 334.8,262.9 337.0,262.5 339.2,262.3 343.6,262.2 348.0,262.2 350.2,261.9 352.4,261.7 354.6,261.1 356.8,260.8 359.0,260.4 361.1,260.1 363.3,259.7 365.5,259.3 367.7,258.9 369.9,258.4 372.1,258.0 374.3,257.6 376.5,257.4 378.7,257.1 380.9,256.7 383.1,256.6 385.3,256.4 387.5,256.1 389.6,256.1 391.8,256.0 396.2,255.9 398.4,255.1 400.6,254.5 402.8,254.4 405.0,254.3 409.4,254.2 411.6,254.1 420.3,254.1 424.7,254.0 431.3,253.9 433.5,253.0 435.7,252.0 437.9,251.8 440.1,251.0 442.3,250.4 444.5,250.0 446.7,249.8 448.8,249.4 451.0,249.3 453.2,249.2 455.4,249.0 457.6,248.9 470.8,248.3 473.0,247.4 475.2,247.3 477.3,247.2 479.5,247.1 494.9,247.1 514.6,246.2 516.8,245.5 519.0,244.7 521.2,243.5 523.4,243.3 525.6,242.9 527.8,242.2 530.0,241.7 532.2,240.6 534.4,238.9 536.5,237.2 538.7,235.3 540.9,233.2 543.1,231.5 545.3,230.4 547.5,229.0 549.7,227.1 551.9,225.4 554.1,224.3 556.3,223.2 558.5,221.6 560.7,220.6 562.9,219.5 565.0,218.7 567.2,218.0 569.4,217.1 571.6,216.5 573.8,215.9 576.0,215.4 578.2,213.9 580.4,212.7 582.6,212.0 584.8,211.8 587.0,211.4 589.2,210.8 591.4,210.2 593.6,209.2 595.7,208.6 597.9,208.0 600.1,207.9 602.3,207.6 604.5,207.2 606.7,205.9 608.9,203.9 611.1,201.9 613.3,199.8 615.5,198.1 617.7,196.1 619.9,194.0 622.1,191.8 624.2,189.8 626.4,188.4 628.6,187.2 630.8,185.9 633.0,184.6 635.2,183.8 637.4,182.8 639.6,182.0 641.8,180.9 644.0,179.4 646.2,177.7 648.4,176.2 650.6,174.9 652.7,174.0 654.9,173.2 657.1,172.5 659.3,171.6 661.5,170.2 663.7,169.0 665.9,167.5 668.1,165.9 670.3,164.7 672.5,163.7 674.7,163.2 676.9,162.6 679.1,162.0 681.3,162.0 683.4,161.9 685.6,161.6 687.8,161.5 690.0,161.4 692.2,161.2 694.4,161.1 701.0,161.1 703.2,161.0 705.4,160.8 707.6,159.0 709.8,157.6 711.9,156.2 714.1,154.8 716.3,153.4 718.5,152.1 720.7,150.7 722.9,149.5 725.1,148.1 727.3,146.8 729.5,145.5 731.7,144.2 733.9,143.0 736.1,141.7 738.3,140.5 740.4,139.4 742.6,138.2 744.8,137.0 747.0,135.8 749.2,134.7 751.4,133.6 753.6,132.8 755.8,132.1 758.0,131.3 760.2,130.2 762.4,129.2 764.6,128.3 766.8,127.1 769.0,126.2 771.1,125.3 773.3,124.3 775.5,123.2 777.7,122.3 779.9,121.3 782.1,120.2 784.3,119.4 786.5,118.4 788.7,117.6 790.9,116.8 793.1,115.8 795.3,114.9 797.5,114.1 799.6,113.4 801.8,112.8 804.0,112.4 806.2,112.3 808.4,111.4 810.6,110.6 812.8,109.7 815.0,108.8 817.2,108.1 819.4,107.3 821.6,106.5 823.8,105.6 826.0,104.9 828.1,104.2 830.3,103.4 832.5,102.7 834.7,101.9 836.9,101.2 839.1,100.4 841.3,99.7 843.5,98.9 845.7,98.3 847.9,97.5 850.1,96.9 852.3,96.3 854.5,95.4 856.7,94.5 858.8,93.9 861.0,93.1 863.2,92.3 865.4,91.7 867.6,91.0 869.8,90.2 872.0,90.0" fill="none" stroke="#38bdf8" stroke-width="2.5" stroke-linejoin="round" stroke-linecap="round"/>
<circle cx="872.0" cy="90.0" r="4" fill="#0ea5e9"/>
<text x="866.0" y="80.0" text-anchor="end" font-family="Inter, system-ui, sans-serif" font-size="13" font-weight="700" fill="#334155">4292</text>
<text x="52.0" y="294" text-anchor="middle" font-family="Inter, system-ui, sans-serif" font-size="11" fill="#94a3b8">Jun 10 05:00</text>
<text x="569.4" y="294" text-anchor="middle" font-family="Inter, system-ui, sans-serif" font-size="11" fill="#94a3b8">Jun 20 01:00</text>
<text x="872.0" y="294" text-anchor="middle" font-family="Inter, system-ui, sans-serif" font-size="11" fill="#94a3b8">Jun 25 19:00</text>
</svg>
