<svg xmlns="http://www.w3.org/2000/svg" width="900" height="320" viewBox="0 0 900 320" role="img" aria-labelledby="title desc">
<title id="title">unsorry proofs over time</title>
<desc id="desc">Cumulative kernel-verified proofs over time, by the hour each proof was merged.</desc>
<rect width="900" height="100%" rx="18" fill="#ffffff"/>
<rect x="0.5" y="0.5" width="899" height="319" rx="18" fill="none" stroke="#e2e8f0"/>
<text x="32" y="44" font-family="Inter, system-ui, sans-serif" font-size="28" font-weight="700" fill="#334155">unsorry — Proofs Over Time</text>
<text x="32" y="72" font-family="Inter, system-ui, sans-serif" font-size="13" fill="#64748b">4131 cumulative kernel-verified proofs · merged, hourly</text>
<line x1="52" y1="272.0" x2="872" y2="272.0" stroke="#f1f5f9"/>
<text x="44" y="276.0" text-anchor="end" font-family="Inter, system-ui, sans-serif" font-size="11" fill="#94a3b8">0</text>
<line x1="52" y1="226.5" x2="872" y2="226.5" stroke="#f1f5f9"/>
<text x="44" y="230.5" text-anchor="end" font-family="Inter, system-ui, sans-serif" font-size="11" fill="#94a3b8">1033</text>
<line x1="52" y1="181.0" x2="872" y2="181.0" stroke="#f1f5f9"/>
<text x="44" y="185.0" text-anchor="end" font-family="Inter, system-ui, sans-serif" font-size="11" fill="#94a3b8">2066</text>
<line x1="52" y1="135.5" x2="872" y2="135.5" stroke="#f1f5f9"/>
<text x="44" y="139.5" text-anchor="end" font-family="Inter, system-ui, sans-serif" font-size="11" fill="#94a3b8">3098</text>
<line x1="52" y1="90.0" x2="872" y2="90.0" stroke="#f1f5f9"/>
<text x="44" y="94.0" text-anchor="end" font-family="Inter, system-ui, sans-serif" font-size="11" fill="#94a3b8">4131</text>
<polygon points="52.0,272.0 52.0,272.0 54.2,271.9 81.2,271.4 83.5,271.3 85.7,271.3 92.4,271.2 105.9,271.2 135.1,271.1 137.4,270.7 139.6,270.7 146.4,270.6 148.6,270.5 150.8,270.5 153.1,270.4 157.6,270.3 159.8,270.1 166.6,269.9 175.6,269.8 177.8,269.7 180.1,269.6 198.0,269.6 202.5,269.5 213.8,269.5 216.0,269.4 218.2,269.4 227.2,269.3 229.5,269.0 231.7,268.8 234.0,268.3 236.2,268.2 251.9,268.1 258.7,268.1 263.2,268.0 265.4,268.0 267.7,267.8 269.9,267.7 272.2,267.7 274.4,267.6 276.7,267.4 285.6,267.2 290.1,267.2 299.1,267.1 301.4,266.9 303.6,266.8 305.9,266.8 310.4,266.7 312.6,265.8 314.8,265.0 317.1,264.6 319.3,264.4 321.6,264.3 323.8,264.1 326.1,263.8 328.3,263.6 330.6,263.5 332.8,263.4 337.3,263.2 339.6,262.9 341.8,262.5 344.1,262.2 346.3,262.0 350.8,261.9 355.3,261.8 357.5,261.5 359.8,261.3 362.0,260.7 364.3,260.3 366.5,260.0 368.8,259.6 371.0,259.2 373.3,258.8 375.5,258.4 377.8,257.9 380.0,257.5 382.2,257.1 384.5,256.8 386.7,256.5 389.0,256.1 391.2,256.0 393.5,255.7 395.7,255.5 398.0,255.4 400.2,255.3 404.7,255.3 407.0,254.4 409.2,253.8 411.5,253.7 413.7,253.6 418.2,253.5 420.4,253.4 429.4,253.4 433.9,253.3 440.7,253.2 442.9,252.2 445.2,251.2 447.4,251.0 449.6,250.2 451.9,249.6 454.1,249.2 456.4,249.0 458.6,248.6 460.9,248.4 463.1,248.3 465.4,248.1 467.6,248.0 481.1,247.3 483.3,246.4 485.6,246.3 487.8,246.2 490.1,246.1 505.8,246.1 526.0,245.2 528.3,244.5 530.5,243.6 532.8,242.4 535.0,242.2 537.3,241.8 539.5,241.1 541.8,240.5 544.0,239.4 546.2,237.6 548.5,235.9 550.7,233.8 553.0,231.7 555.2,229.9 557.5,228.7 559.7,227.4 562.0,225.3 564.2,223.6 566.5,222.5 568.7,221.3 571.0,219.6 573.2,218.6 575.5,217.5 577.7,216.6 579.9,215.9 582.2,214.9 584.4,214.4 586.7,213.8 588.9,213.2 591.2,211.6 593.4,210.4 595.7,209.7 597.9,209.4 600.2,209.0 602.4,208.4 604.7,207.8 606.9,206.8 609.2,206.1 611.4,205.5 613.6,205.4 615.9,205.1 618.1,204.6 620.4,203.4 622.6,201.3 624.9,199.1 627.1,197.0 629.4,195.2 631.6,193.1 633.9,190.9 636.1,188.7 638.4,186.6 640.6,185.1 642.8,183.9 645.1,182.6 647.3,181.2 649.6,180.4 651.8,179.3 654.1,178.5 656.3,177.4 658.6,175.8 660.8,174.0 663.1,172.4 665.3,171.1 667.6,170.2 669.8,169.4 672.1,168.6 674.3,167.7 676.5,166.2 678.8,164.9 681.0,163.4 683.3,161.8 685.5,160.5 687.8,159.4 690.0,159.0 692.3,158.4 694.5,157.8 696.8,157.7 699.0,157.6 701.3,157.3 703.5,157.1 705.8,157.1 708.0,156.9 710.2,156.8 717.0,156.7 719.2,156.7 721.5,156.4 723.7,154.6 726.0,153.1 728.2,151.7 730.5,150.2 732.7,148.8 735.0,147.5 737.2,146.0 739.5,144.7 741.7,143.2 743.9,141.9 746.2,140.5 748.4,139.2 750.7,137.9 752.9,136.6 755.2,135.3 757.4,134.2 759.7,133.0 761.9,131.8 764.2,130.5 766.4,129.4 768.7,128.2 770.9,127.4 773.2,126.6 775.4,125.8 777.6,124.7 779.9,123.7 782.1,122.7 784.4,121.5 786.6,120.5 788.9,119.6 791.1,118.5 793.4,117.4 795.6,116.4 797.9,115.5 800.1,114.3 802.4,113.4 804.6,112.4 806.8,111.5 809.1,110.7 811.3,109.7 813.6,108.8 815.8,107.9 818.1,107.2 820.3,106.6 822.6,106.2 824.8,106.0 827.1,105.1 829.3,104.3 831.6,103.4 833.8,102.5 836.1,101.7 838.3,100.8 840.5,100.0 842.8,99.2 845.0,98.4 847.3,97.6 849.5,96.9 851.8,96.1 854.0,95.2 856.3,94.5 858.5,93.7 860.8,93.0 863.0,92.2 865.3,91.5 867.5,90.7 869.8,90.0 872.0,90.0 872.0,272.0" fill="#e0f2fe" opacity="0.55"/>
<polyline points="52.0,272.0 54.2,271.9 81.2,271.4 83.5,271.3 85.7,271.3 92.4,271.2 105.9,271.2 135.1,271.1 137.4,270.7 139.6,270.7 146.4,270.6 148.6,270.5 150.8,270.5 153.1,270.4 157.6,270.3 159.8,270.1 166.6,269.9 175.6,269.8 177.8,269.7 180.1,269.6 198.0,269.6 202.5,269.5 213.8,269.5 216.0,269.4 218.2,269.4 227.2,269.3 229.5,269.0 231.7,268.8 234.0,268.3 236.2,268.2 251.9,268.1 258.7,268.1 263.2,268.0 265.4,268.0 267.7,267.8 269.9,267.7 272.2,267.7 274.4,267.6 276.7,267.4 285.6,267.2 290.1,267.2 299.1,267.1 301.4,266.9 303.6,266.8 305.9,266.8 310.4,266.7 312.6,265.8 314.8,265.0 317.1,264.6 319.3,264.4 321.6,264.3 323.8,264.1 326.1,263.8 328.3,263.6 330.6,263.5 332.8,263.4 337.3,263.2 339.6,262.9 341.8,262.5 344.1,262.2 346.3,262.0 350.8,261.9 355.3,261.8 357.5,261.5 359.8,261.3 362.0,260.7 364.3,260.3 366.5,260.0 368.8,259.6 371.0,259.2 373.3,258.8 375.5,258.4 377.8,257.9 380.0,257.5 382.2,257.1 384.5,256.8 386.7,256.5 389.0,256.1 391.2,256.0 393.5,255.7 395.7,255.5 398.0,255.4 400.2,255.3 404.7,255.3 407.0,254.4 409.2,253.8 411.5,253.7 413.7,253.6 418.2,253.5 420.4,253.4 429.4,253.4 433.9,253.3 440.7,253.2 442.9,252.2 445.2,251.2 447.4,251.0 449.6,250.2 451.9,249.6 454.1,249.2 456.4,249.0 458.6,248.6 460.9,248.4 463.1,248.3 465.4,248.1 467.6,248.0 481.1,247.3 483.3,246.4 485.6,246.3 487.8,246.2 490.1,246.1 505.8,246.1 526.0,245.2 528.3,244.5 530.5,243.6 532.8,242.4 535.0,242.2 537.3,241.8 539.5,241.1 541.8,240.5 544.0,239.4 546.2,237.6 548.5,235.9 550.7,233.8 553.0,231.7 555.2,229.9 557.5,228.7 559.7,227.4 562.0,225.3 564.2,223.6 566.5,222.5 568.7,221.3 571.0,219.6 573.2,218.6 575.5,217.5 577.7,216.6 579.9,215.9 582.2,214.9 584.4,214.4 586.7,213.8 588.9,213.2 591.2,211.6 593.4,210.4 595.7,209.7 597.9,209.4 600.2,209.0 602.4,208.4 604.7,207.8 606.9,206.8 609.2,206.1 611.4,205.5 613.6,205.4 615.9,205.1 618.1,204.6 620.4,203.4 622.6,201.3 624.9,199.1 627.1,197.0 629.4,195.2 631.6,193.1 633.9,190.9 636.1,188.7 638.4,186.6 640.6,185.1 642.8,183.9 645.1,182.6 647.3,181.2 649.6,180.4 651.8,179.3 654.1,178.5 656.3,177.4 658.6,175.8 660.8,174.0 663.1,172.4 665.3,171.1 667.6,170.2 669.8,169.4 672.1,168.6 674.3,167.7 676.5,166.2 678.8,164.9 681.0,163.4 683.3,161.8 685.5,160.5 687.8,159.4 690.0,159.0 692.3,158.4 694.5,157.8 696.8,157.7 699.0,157.6 701.3,157.3 703.5,157.1 705.8,157.1 708.0,156.9 710.2,156.8 717.0,156.7 719.2,156.7 721.5,156.4 723.7,154.6 726.0,153.1 728.2,151.7 730.5,150.2 732.7,148.8 735.0,147.5 737.2,146.0 739.5,144.7 741.7,143.2 743.9,141.9 746.2,140.5 748.4,139.2 750.7,137.9 752.9,136.6 755.2,135.3 757.4,134.2 759.7,133.0 761.9,131.8 764.2,130.5 766.4,129.4 768.7,128.2 770.9,127.4 773.2,126.6 775.4,125.8 777.6,124.7 779.9,123.7 782.1,122.7 784.4,121.5 786.6,120.5 788.9,119.6 791.1,118.5 793.4,117.4 795.6,116.4 797.9,115.5 800.1,114.3 802.4,113.4 804.6,112.4 806.8,111.5 809.1,110.7 811.3,109.7 813.6,108.8 815.8,107.9 818.1,107.2 820.3,106.6 822.6,106.2 824.8,106.0 827.1,105.1 829.3,104.3 831.6,103.4 833.8,102.5 836.1,101.7 838.3,100.8 840.5,100.0 842.8,99.2 845.0,98.4 847.3,97.6 849.5,96.9 851.8,96.1 854.0,95.2 856.3,94.5 858.5,93.7 860.8,93.0 863.0,92.2 865.3,91.5 867.5,90.7 869.8,90.0 872.0,90.0" fill="none" stroke="#38bdf8" stroke-width="2.5" stroke-linejoin="round" stroke-linecap="round"/>
<circle cx="872.0" cy="90.0" r="4" fill="#0ea5e9"/>
<text x="866.0" y="80.0" text-anchor="end" font-family="Inter, system-ui, sans-serif" font-size="13" font-weight="700" fill="#334155">4131</text>
<text x="52.0" y="294" text-anchor="middle" font-family="Inter, system-ui, sans-serif" font-size="11" fill="#94a3b8">Jun 10 05:00</text>
<text x="573.2" y="294" text-anchor="middle" font-family="Inter, system-ui, sans-serif" font-size="11" fill="#94a3b8">Jun 19 21:00</text>
<text x="872.0" y="294" text-anchor="middle" font-family="Inter, system-ui, sans-serif" font-size="11" fill="#94a3b8">Jun 25 10:00</text>
</svg>
