<svg xmlns="http://www.w3.org/2000/svg" width="900" height="320" viewBox="0 0 900 320" role="img" aria-labelledby="title desc">
<title id="title">unsorry proofs over time</title>
<desc id="desc">Cumulative kernel-verified proofs over time, by the hour each proof was merged.</desc>
<rect width="900" height="100%" rx="18" fill="#ffffff"/>
<rect x="0.5" y="0.5" width="899" height="319" rx="18" fill="none" stroke="#e2e8f0"/>
<text x="32" y="44" font-family="Inter, system-ui, sans-serif" font-size="28" font-weight="700" fill="#334155">unsorry — Proofs Over Time</text>
<text x="32" y="72" font-family="Inter, system-ui, sans-serif" font-size="13" fill="#64748b">3473 cumulative kernel-verified proofs · merged, hourly</text>
<line x1="52" y1="272.0" x2="872" y2="272.0" stroke="#f1f5f9"/>
<text x="44" y="276.0" text-anchor="end" font-family="Inter, system-ui, sans-serif" font-size="11" fill="#94a3b8">0</text>
<line x1="52" y1="226.5" x2="872" y2="226.5" stroke="#f1f5f9"/>
<text x="44" y="230.5" text-anchor="end" font-family="Inter, system-ui, sans-serif" font-size="11" fill="#94a3b8">868</text>
<line x1="52" y1="181.0" x2="872" y2="181.0" stroke="#f1f5f9"/>
<text x="44" y="185.0" text-anchor="end" font-family="Inter, system-ui, sans-serif" font-size="11" fill="#94a3b8">1736</text>
<line x1="52" y1="135.5" x2="872" y2="135.5" stroke="#f1f5f9"/>
<text x="44" y="139.5" text-anchor="end" font-family="Inter, system-ui, sans-serif" font-size="11" fill="#94a3b8">2605</text>
<line x1="52" y1="90.0" x2="872" y2="90.0" stroke="#f1f5f9"/>
<text x="44" y="94.0" text-anchor="end" font-family="Inter, system-ui, sans-serif" font-size="11" fill="#94a3b8">3473</text>
<polygon points="52.0,272.0 52.0,271.9 54.5,271.8 84.4,271.3 86.9,271.2 89.4,271.1 96.9,271.1 111.8,271.0 144.2,271.0 146.7,270.5 149.2,270.4 156.7,270.3 159.2,270.3 161.7,270.2 164.2,270.1 169.1,270.0 171.6,269.7 179.1,269.5 189.1,269.4 191.6,269.3 194.1,269.2 214.0,269.1 219.0,269.1 231.5,269.0 233.9,269.0 236.4,268.9 246.4,268.8 248.9,268.5 251.4,268.2 253.9,267.5 256.4,267.4 273.8,267.4 281.3,267.3 286.3,267.3 288.8,267.2 291.3,267.0 293.8,266.9 296.3,266.9 298.7,266.7 301.2,266.5 311.2,266.3 316.2,266.2 326.2,266.2 328.7,265.9 331.1,265.9 333.6,265.8 338.6,265.7 341.1,264.7 343.6,263.6 346.1,263.2 348.6,263.0 351.1,262.9 353.6,262.6 356.1,262.3 358.6,262.0 361.1,261.8 363.6,261.7 368.5,261.6 371.0,261.2 373.5,260.7 376.0,260.3 378.5,260.1 383.5,259.9 388.5,259.9 391.0,259.5 393.5,259.3 396.0,258.5 398.4,258.1 400.9,257.7 403.4,257.3 405.9,256.8 408.4,256.3 410.9,255.8 413.4,255.2 415.9,254.7 418.4,254.2 420.9,253.9 423.4,253.6 425.9,253.1 428.4,252.9 430.8,252.7 433.3,252.4 435.8,252.3 438.3,252.2 443.3,252.1 445.8,251.1 448.3,250.4 450.8,250.2 453.3,250.1 458.3,250.0 460.8,249.9 470.7,249.8 475.7,249.7 483.2,249.7 485.7,248.5 488.2,247.3 490.7,247.0 493.2,246.1 495.6,245.3 498.1,244.9 500.6,244.6 503.1,244.1 505.6,243.9 508.1,243.8 510.6,243.6 513.1,243.5 528.0,242.7 530.5,241.6 533.0,241.4 535.5,241.3 538.0,241.2 555.5,241.2 577.9,240.1 580.4,239.2 582.9,238.3 585.4,236.8 587.9,236.5 590.4,236.1 592.9,235.2 595.3,234.6 597.8,233.2 600.3,231.1 602.8,229.0 605.3,226.6 607.8,224.1 610.3,221.9 612.8,220.5 615.3,218.9 617.8,216.5 620.3,214.5 622.8,213.1 625.3,211.7 627.7,209.7 630.2,208.4 632.7,207.2 635.2,206.1 637.7,205.2 640.2,204.1 642.7,203.5 645.2,202.7 647.7,202.1 650.2,200.2 652.7,198.7 655.2,197.8 657.7,197.6 660.1,197.1 662.6,196.3 665.1,195.6 667.6,194.4 670.1,193.6 672.6,192.9 675.1,192.8 677.6,192.5 680.1,191.9 682.6,190.4 685.1,187.9 687.6,185.3 690.1,182.8 692.5,180.7 695.0,178.2 697.5,175.6 700.0,172.9 702.5,170.4 705.0,168.7 707.5,167.2 710.0,165.6 712.5,164.0 715.0,163.0 717.5,161.7 720.0,160.8 722.5,159.4 724.9,157.6 727.4,155.4 729.9,153.6 732.4,151.9 734.9,150.9 737.4,150.0 739.9,149.0 742.4,148.0 744.9,146.2 747.4,144.7 749.9,142.8 752.4,140.9 754.9,139.4 757.3,138.1 759.8,137.6 762.3,136.8 764.8,136.1 767.3,136.0 769.8,135.9 772.3,135.5 774.8,135.4 777.3,135.3 779.8,135.1 782.3,135.0 789.8,134.9 792.2,134.9 794.7,134.5 797.2,132.4 799.7,130.6 802.2,128.9 804.7,127.1 807.2,125.5 809.7,123.9 812.2,122.1 814.7,120.6 817.2,118.8 819.7,117.3 822.2,115.6 824.6,114.1 827.1,112.5 829.6,111.0 832.1,109.4 834.6,108.1 837.1,106.7 839.6,105.2 842.1,103.7 844.6,102.4 847.1,101.0 849.6,100.0 852.1,99.1 854.6,98.1 857.0,96.8 859.5,95.6 862.0,94.4 864.5,93.0 867.0,91.8 869.5,90.7 872.0,90.0 872.0,272.0" fill="#e0f2fe" opacity="0.55"/>
<polyline points="52.0,271.9 54.5,271.8 84.4,271.3 86.9,271.2 89.4,271.1 96.9,271.1 111.8,271.0 144.2,271.0 146.7,270.5 149.2,270.4 156.7,270.3 159.2,270.3 161.7,270.2 164.2,270.1 169.1,270.0 171.6,269.7 179.1,269.5 189.1,269.4 191.6,269.3 194.1,269.2 214.0,269.1 219.0,269.1 231.5,269.0 233.9,269.0 236.4,268.9 246.4,268.8 248.9,268.5 251.4,268.2 253.9,267.5 256.4,267.4 273.8,267.4 281.3,267.3 286.3,267.3 288.8,267.2 291.3,267.0 293.8,266.9 296.3,266.9 298.7,266.7 301.2,266.5 311.2,266.3 316.2,266.2 326.2,266.2 328.7,265.9 331.1,265.9 333.6,265.8 338.6,265.7 341.1,264.7 343.6,263.6 346.1,263.2 348.6,263.0 351.1,262.9 353.6,262.6 356.1,262.3 358.6,262.0 361.1,261.8 363.6,261.7 368.5,261.6 371.0,261.2 373.5,260.7 376.0,260.3 378.5,260.1 383.5,259.9 388.5,259.9 391.0,259.5 393.5,259.3 396.0,258.5 398.4,258.1 400.9,257.7 403.4,257.3 405.9,256.8 408.4,256.3 410.9,255.8 413.4,255.2 415.9,254.7 418.4,254.2 420.9,253.9 423.4,253.6 425.9,253.1 428.4,252.9 430.8,252.7 433.3,252.4 435.8,252.3 438.3,252.2 443.3,252.1 445.8,251.1 448.3,250.4 450.8,250.2 453.3,250.1 458.3,250.0 460.8,249.9 470.7,249.8 475.7,249.7 483.2,249.7 485.7,248.5 488.2,247.3 490.7,247.0 493.2,246.1 495.6,245.3 498.1,244.9 500.6,244.6 503.1,244.1 505.6,243.9 508.1,243.8 510.6,243.6 513.1,243.5 528.0,242.7 530.5,241.6 533.0,241.4 535.5,241.3 538.0,241.2 555.5,241.2 577.9,240.1 580.4,239.2 582.9,238.3 585.4,236.8 587.9,236.5 590.4,236.1 592.9,235.2 595.3,234.6 597.8,233.2 600.3,231.1 602.8,229.0 605.3,226.6 607.8,224.1 610.3,221.9 612.8,220.5 615.3,218.9 617.8,216.5 620.3,214.5 622.8,213.1 625.3,211.7 627.7,209.7 630.2,208.4 632.7,207.2 635.2,206.1 637.7,205.2 640.2,204.1 642.7,203.5 645.2,202.7 647.7,202.1 650.2,200.2 652.7,198.7 655.2,197.8 657.7,197.6 660.1,197.1 662.6,196.3 665.1,195.6 667.6,194.4 670.1,193.6 672.6,192.9 675.1,192.8 677.6,192.5 680.1,191.9 682.6,190.4 685.1,187.9 687.6,185.3 690.1,182.8 692.5,180.7 695.0,178.2 697.5,175.6 700.0,172.9 702.5,170.4 705.0,168.7 707.5,167.2 710.0,165.6 712.5,164.0 715.0,163.0 717.5,161.7 720.0,160.8 722.5,159.4 724.9,157.6 727.4,155.4 729.9,153.6 732.4,151.9 734.9,150.9 737.4,150.0 739.9,149.0 742.4,148.0 744.9,146.2 747.4,144.7 749.9,142.8 752.4,140.9 754.9,139.4 757.3,138.1 759.8,137.6 762.3,136.8 764.8,136.1 767.3,136.0 769.8,135.9 772.3,135.5 774.8,135.4 777.3,135.3 779.8,135.1 782.3,135.0 789.8,134.9 792.2,134.9 794.7,134.5 797.2,132.4 799.7,130.6 802.2,128.9 804.7,127.1 807.2,125.5 809.7,123.9 812.2,122.1 814.7,120.6 817.2,118.8 819.7,117.3 822.2,115.6 824.6,114.1 827.1,112.5 829.6,111.0 832.1,109.4 834.6,108.1 837.1,106.7 839.6,105.2 842.1,103.7 844.6,102.4 847.1,101.0 849.6,100.0 852.1,99.1 854.6,98.1 857.0,96.8 859.5,95.6 862.0,94.4 864.5,93.0 867.0,91.8 869.5,90.7 872.0,90.0" fill="none" stroke="#38bdf8" stroke-width="2.5" stroke-linejoin="round" stroke-linecap="round"/>
<circle cx="872.0" cy="90.0" r="4" fill="#0ea5e9"/>
<text x="866.0" y="80.0" text-anchor="end" font-family="Inter, system-ui, sans-serif" font-size="13" font-weight="700" fill="#334155">3473</text>
<text x="52.0" y="294" text-anchor="middle" font-family="Inter, system-ui, sans-serif" font-size="11" fill="#94a3b8">Jun 10 05:00</text>
<text x="585.4" y="294" text-anchor="middle" font-family="Inter, system-ui, sans-serif" font-size="11" fill="#94a3b8">Jun 19 03:00</text>
<text x="872.0" y="294" text-anchor="middle" font-family="Inter, system-ui, sans-serif" font-size="11" fill="#94a3b8">Jun 23 22:00</text>
</svg>
