<svg xmlns="http://www.w3.org/2000/svg" width="900" height="320" viewBox="0 0 900 320" role="img" aria-labelledby="title desc">
<title id="title">unsorry proofs over time</title>
<desc id="desc">Cumulative kernel-verified proofs over time, by the hour each proof was merged.</desc>
<rect width="900" height="100%" rx="18" fill="#ffffff"/>
<rect x="0.5" y="0.5" width="899" height="319" rx="18" fill="none" stroke="#e2e8f0"/>
<text x="32" y="44" font-family="Inter, system-ui, sans-serif" font-size="28" font-weight="700" fill="#334155">unsorry — Proofs Over Time</text>
<text x="32" y="72" font-family="Inter, system-ui, sans-serif" font-size="13" fill="#64748b">3797 cumulative kernel-verified proofs · merged, hourly</text>
<line x1="52" y1="272.0" x2="872" y2="272.0" stroke="#f1f5f9"/>
<text x="44" y="276.0" text-anchor="end" font-family="Inter, system-ui, sans-serif" font-size="11" fill="#94a3b8">0</text>
<line x1="52" y1="226.5" x2="872" y2="226.5" stroke="#f1f5f9"/>
<text x="44" y="230.5" text-anchor="end" font-family="Inter, system-ui, sans-serif" font-size="11" fill="#94a3b8">949</text>
<line x1="52" y1="181.0" x2="872" y2="181.0" stroke="#f1f5f9"/>
<text x="44" y="185.0" text-anchor="end" font-family="Inter, system-ui, sans-serif" font-size="11" fill="#94a3b8">1898</text>
<line x1="52" y1="135.5" x2="872" y2="135.5" stroke="#f1f5f9"/>
<text x="44" y="139.5" text-anchor="end" font-family="Inter, system-ui, sans-serif" font-size="11" fill="#94a3b8">2848</text>
<line x1="52" y1="90.0" x2="872" y2="90.0" stroke="#f1f5f9"/>
<text x="44" y="94.0" text-anchor="end" font-family="Inter, system-ui, sans-serif" font-size="11" fill="#94a3b8">3797</text>
<polygon points="52.0,272.0 52.0,272.0 54.4,271.9 82.8,271.4 85.2,271.2 87.5,271.2 94.7,271.1 108.9,271.1 139.7,271.0 142.1,270.6 144.4,270.6 151.5,270.5 153.9,270.4 156.3,270.4 158.6,270.2 163.4,270.2 165.8,269.9 172.9,269.7 182.3,269.7 184.7,269.5 187.1,269.4 206.0,269.4 210.8,269.3 222.6,269.3 225.0,269.2 227.4,269.1 236.9,269.1 239.2,268.8 241.6,268.5 244.0,267.9 246.3,267.8 262.9,267.8 270.0,267.7 274.8,267.7 277.1,267.6 279.5,267.4 281.9,267.4 284.3,267.3 286.6,267.2 289.0,267.0 298.5,266.8 303.2,266.7 312.7,266.7 315.1,266.4 317.4,266.4 319.8,266.3 324.5,266.2 326.9,265.3 329.3,264.3 331.7,264.0 334.0,263.8 336.4,263.7 338.8,263.4 341.1,263.1 343.5,262.8 345.9,262.7 348.2,262.6 353.0,262.5 355.4,262.1 357.7,261.7 360.1,261.3 362.5,261.1 367.2,261.0 371.9,260.9 374.3,260.6 376.7,260.4 379.1,259.7 381.4,259.3 383.8,258.9 386.2,258.5 388.5,258.1 390.9,257.7 393.3,257.2 395.6,256.7 398.0,256.2 400.4,255.8 402.8,255.5 405.1,255.1 407.5,254.7 409.9,254.6 412.2,254.3 414.6,254.1 417.0,254.0 419.3,253.9 424.1,253.8 426.5,252.9 428.8,252.2 431.2,252.1 433.6,252.0 438.3,251.9 440.7,251.8 450.2,251.7 454.9,251.6 462.0,251.6 464.4,250.5 466.7,249.4 469.1,249.1 471.5,248.3 473.8,247.6 476.2,247.2 478.6,246.9 481.0,246.5 483.3,246.3 485.7,246.2 488.1,246.0 490.4,245.9 504.7,245.2 507.0,244.2 509.4,244.1 511.8,243.9 514.1,243.9 530.7,243.8 552.1,242.8 554.4,242.0 556.8,241.1 559.2,239.8 561.5,239.5 563.9,239.1 566.3,238.4 568.6,237.8 571.0,236.5 573.4,234.6 575.8,232.7 578.1,230.5 580.5,228.2 582.9,226.2 585.2,224.9 587.6,223.4 590.0,221.2 592.3,219.4 594.7,218.1 597.1,216.8 599.5,215.0 601.8,213.9 604.2,212.7 606.6,211.7 608.9,210.9 611.3,209.9 613.7,209.3 616.0,208.6 618.4,208.1 620.8,206.3 623.2,204.9 625.5,204.2 627.9,203.9 630.3,203.5 632.6,202.8 635.0,202.2 637.4,201.0 639.7,200.3 642.1,199.6 644.5,199.5 646.9,199.2 649.2,198.7 651.6,197.3 654.0,195.1 656.3,192.7 658.7,190.4 661.1,188.5 663.4,186.2 665.8,183.8 668.2,181.4 670.6,179.1 672.9,177.5 675.3,176.2 677.7,174.7 680.0,173.3 682.4,172.3 684.8,171.1 687.1,170.3 689.5,169.0 691.9,167.4 694.3,165.4 696.6,163.7 699.0,162.2 701.4,161.2 703.7,160.4 706.1,159.5 708.5,158.5 710.8,156.9 713.2,155.5 715.6,153.8 718.0,152.1 720.3,150.7 722.7,149.5 725.1,149.1 727.4,148.4 729.8,147.7 732.2,147.6 734.5,147.5 736.9,147.2 739.3,147.0 741.7,147.0 744.0,146.8 746.4,146.7 753.5,146.6 755.9,146.6 758.2,146.3 760.6,144.3 763.0,142.6 765.4,141.1 767.7,139.5 770.1,138.0 772.5,136.5 774.8,134.9 777.2,133.5 779.6,131.9 781.9,130.5 784.3,129.0 786.7,127.5 789.1,126.1 791.4,124.7 793.8,123.3 796.2,122.1 798.5,120.8 800.9,119.4 803.3,118.1 805.6,116.8 808.0,115.5 810.4,114.7 812.8,113.8 815.1,113.0 817.5,111.7 819.9,110.6 822.2,109.6 824.6,108.3 827.0,107.2 829.3,106.2 831.7,105.0 834.1,103.9 836.5,102.8 838.8,101.7 841.2,100.4 843.6,99.5 845.9,98.3 848.3,97.4 850.7,96.5 853.0,95.4 855.4,94.4 857.8,93.5 860.2,92.7 862.5,92.0 864.9,91.6 867.3,91.4 869.6,90.4 872.0,90.0 872.0,272.0" fill="#e0f2fe" opacity="0.55"/>
<polyline points="52.0,272.0 54.4,271.9 82.8,271.4 85.2,271.2 87.5,271.2 94.7,271.1 108.9,271.1 139.7,271.0 142.1,270.6 144.4,270.6 151.5,270.5 153.9,270.4 156.3,270.4 158.6,270.2 163.4,270.2 165.8,269.9 172.9,269.7 182.3,269.7 184.7,269.5 187.1,269.4 206.0,269.4 210.8,269.3 222.6,269.3 225.0,269.2 227.4,269.1 236.9,269.1 239.2,268.8 241.6,268.5 244.0,267.9 246.3,267.8 262.9,267.8 270.0,267.7 274.8,267.7 277.1,267.6 279.5,267.4 281.9,267.4 284.3,267.3 286.6,267.2 289.0,267.0 298.5,266.8 303.2,266.7 312.7,266.7 315.1,266.4 317.4,266.4 319.8,266.3 324.5,266.2 326.9,265.3 329.3,264.3 331.7,264.0 334.0,263.8 336.4,263.7 338.8,263.4 341.1,263.1 343.5,262.8 345.9,262.7 348.2,262.6 353.0,262.5 355.4,262.1 357.7,261.7 360.1,261.3 362.5,261.1 367.2,261.0 371.9,260.9 374.3,260.6 376.7,260.4 379.1,259.7 381.4,259.3 383.8,258.9 386.2,258.5 388.5,258.1 390.9,257.7 393.3,257.2 395.6,256.7 398.0,256.2 400.4,255.8 402.8,255.5 405.1,255.1 407.5,254.7 409.9,254.6 412.2,254.3 414.6,254.1 417.0,254.0 419.3,253.9 424.1,253.8 426.5,252.9 428.8,252.2 431.2,252.1 433.6,252.0 438.3,251.9 440.7,251.8 450.2,251.7 454.9,251.6 462.0,251.6 464.4,250.5 466.7,249.4 469.1,249.1 471.5,248.3 473.8,247.6 476.2,247.2 478.6,246.9 481.0,246.5 483.3,246.3 485.7,246.2 488.1,246.0 490.4,245.9 504.7,245.2 507.0,244.2 509.4,244.1 511.8,243.9 514.1,243.9 530.7,243.8 552.1,242.8 554.4,242.0 556.8,241.1 559.2,239.8 561.5,239.5 563.9,239.1 566.3,238.4 568.6,237.8 571.0,236.5 573.4,234.6 575.8,232.7 578.1,230.5 580.5,228.2 582.9,226.2 585.2,224.9 587.6,223.4 590.0,221.2 592.3,219.4 594.7,218.1 597.1,216.8 599.5,215.0 601.8,213.9 604.2,212.7 606.6,211.7 608.9,210.9 611.3,209.9 613.7,209.3 616.0,208.6 618.4,208.1 620.8,206.3 623.2,204.9 625.5,204.2 627.9,203.9 630.3,203.5 632.6,202.8 635.0,202.2 637.4,201.0 639.7,200.3 642.1,199.6 644.5,199.5 646.9,199.2 649.2,198.7 651.6,197.3 654.0,195.1 656.3,192.7 658.7,190.4 661.1,188.5 663.4,186.2 665.8,183.8 668.2,181.4 670.6,179.1 672.9,177.5 675.3,176.2 677.7,174.7 680.0,173.3 682.4,172.3 684.8,171.1 687.1,170.3 689.5,169.0 691.9,167.4 694.3,165.4 696.6,163.7 699.0,162.2 701.4,161.2 703.7,160.4 706.1,159.5 708.5,158.5 710.8,156.9 713.2,155.5 715.6,153.8 718.0,152.1 720.3,150.7 722.7,149.5 725.1,149.1 727.4,148.4 729.8,147.7 732.2,147.6 734.5,147.5 736.9,147.2 739.3,147.0 741.7,147.0 744.0,146.8 746.4,146.7 753.5,146.6 755.9,146.6 758.2,146.3 760.6,144.3 763.0,142.6 765.4,141.1 767.7,139.5 770.1,138.0 772.5,136.5 774.8,134.9 777.2,133.5 779.6,131.9 781.9,130.5 784.3,129.0 786.7,127.5 789.1,126.1 791.4,124.7 793.8,123.3 796.2,122.1 798.5,120.8 800.9,119.4 803.3,118.1 805.6,116.8 808.0,115.5 810.4,114.7 812.8,113.8 815.1,113.0 817.5,111.7 819.9,110.6 822.2,109.6 824.6,108.3 827.0,107.2 829.3,106.2 831.7,105.0 834.1,103.9 836.5,102.8 838.8,101.7 841.2,100.4 843.6,99.5 845.9,98.3 848.3,97.4 850.7,96.5 853.0,95.4 855.4,94.4 857.8,93.5 860.2,92.7 862.5,92.0 864.9,91.6 867.3,91.4 869.6,90.4 872.0,90.0" fill="none" stroke="#38bdf8" stroke-width="2.5" stroke-linejoin="round" stroke-linecap="round"/>
<circle cx="872.0" cy="90.0" r="4" fill="#0ea5e9"/>
<text x="866.0" y="80.0" text-anchor="end" font-family="Inter, system-ui, sans-serif" font-size="13" font-weight="700" fill="#334155">3797</text>
<text x="52.0" y="294" text-anchor="middle" font-family="Inter, system-ui, sans-serif" font-size="11" fill="#94a3b8">Jun 10 05:00</text>
<text x="578.1" y="294" text-anchor="middle" font-family="Inter, system-ui, sans-serif" font-size="11" fill="#94a3b8">Jun 19 11:00</text>
<text x="872.0" y="294" text-anchor="middle" font-family="Inter, system-ui, sans-serif" font-size="11" fill="#94a3b8">Jun 24 15:00</text>
</svg>
