<svg xmlns="http://www.w3.org/2000/svg" width="900" height="320" viewBox="0 0 900 320" role="img" aria-labelledby="title desc">
<title id="title">unsorry proofs over time</title>
<desc id="desc">Cumulative kernel-verified proofs over time, by the hour each proof was merged.</desc>
<rect width="900" height="100%" rx="18" fill="#ffffff"/>
<rect x="0.5" y="0.5" width="899" height="319" rx="18" fill="none" stroke="#e2e8f0"/>
<text x="32" y="44" font-family="Inter, system-ui, sans-serif" font-size="28" font-weight="700" fill="#334155">unsorry — Proofs Over Time</text>
<text x="32" y="72" font-family="Inter, system-ui, sans-serif" font-size="13" fill="#64748b">3635 cumulative kernel-verified proofs · merged, hourly</text>
<line x1="52" y1="272.0" x2="872" y2="272.0" stroke="#f1f5f9"/>
<text x="44" y="276.0" text-anchor="end" font-family="Inter, system-ui, sans-serif" font-size="11" fill="#94a3b8">0</text>
<line x1="52" y1="226.5" x2="872" y2="226.5" stroke="#f1f5f9"/>
<text x="44" y="230.5" text-anchor="end" font-family="Inter, system-ui, sans-serif" font-size="11" fill="#94a3b8">909</text>
<line x1="52" y1="181.0" x2="872" y2="181.0" stroke="#f1f5f9"/>
<text x="44" y="185.0" text-anchor="end" font-family="Inter, system-ui, sans-serif" font-size="11" fill="#94a3b8">1818</text>
<line x1="52" y1="135.5" x2="872" y2="135.5" stroke="#f1f5f9"/>
<text x="44" y="139.5" text-anchor="end" font-family="Inter, system-ui, sans-serif" font-size="11" fill="#94a3b8">2726</text>
<line x1="52" y1="90.0" x2="872" y2="90.0" stroke="#f1f5f9"/>
<text x="44" y="94.0" text-anchor="end" font-family="Inter, system-ui, sans-serif" font-size="11" fill="#94a3b8">3635</text>
<polygon points="52.0,272.0 52.0,271.9 54.4,271.8 83.7,271.3 86.2,271.2 88.6,271.1 95.9,271.1 110.6,271.0 142.3,271.0 144.7,270.5 147.2,270.5 154.5,270.4 156.9,270.3 159.4,270.3 161.8,270.1 166.7,270.1 169.1,269.8 176.5,269.6 186.2,269.5 188.7,269.4 191.1,269.3 210.6,269.2 215.5,269.2 227.7,269.1 230.2,269.1 232.6,269.0 242.4,268.9 244.8,268.6 247.2,268.4 249.7,267.7 252.1,267.6 269.2,267.6 276.5,267.5 281.4,267.5 283.8,267.4 286.3,267.2 288.7,267.1 291.2,267.1 293.6,266.9 296.0,266.8 305.8,266.5 310.7,266.5 320.5,266.4 322.9,266.2 325.3,266.1 327.8,266.0 332.7,266.0 335.1,265.0 337.5,264.0 340.0,263.6 342.4,263.4 344.9,263.3 347.3,263.0 349.7,262.7 352.2,262.4 354.6,262.3 357.1,262.2 361.9,262.0 364.4,261.6 366.8,261.2 369.3,260.8 371.7,260.6 376.6,260.5 381.5,260.4 383.9,260.1 386.3,259.8 388.8,259.1 391.2,258.7 393.7,258.3 396.1,257.9 398.5,257.5 401.0,257.0 403.4,256.5 405.9,256.0 408.3,255.5 410.8,255.0 413.2,254.7 415.6,254.4 418.1,254.0 420.5,253.8 423.0,253.5 425.4,253.3 427.8,253.2 430.3,253.1 435.2,253.0 437.6,252.0 440.0,251.3 442.5,251.2 444.9,251.1 449.8,251.0 452.2,250.9 462.0,250.8 466.9,250.7 474.2,250.7 476.6,249.5 479.1,248.4 481.5,248.1 484.0,247.2 486.4,246.5 488.8,246.1 491.3,245.8 493.7,245.4 496.2,245.2 498.6,245.1 501.0,244.9 503.5,244.8 518.1,244.0 520.6,243.0 523.0,242.8 525.5,242.7 527.9,242.6 545.0,242.6 566.9,241.5 569.4,240.7 571.8,239.8 574.3,238.4 576.7,238.1 579.1,237.7 581.6,236.9 584.0,236.3 586.5,234.9 588.9,232.9 591.3,230.9 593.8,228.6 596.2,226.2 598.7,224.1 601.1,222.8 603.5,221.3 606.0,219.0 608.4,217.0 610.9,215.7 613.3,214.4 615.8,212.5 618.2,211.3 620.6,210.1 623.1,209.0 625.5,208.2 628.0,207.2 630.4,206.5 632.8,205.8 635.3,205.2 637.7,203.4 640.2,202.0 642.6,201.2 645.0,200.9 647.5,200.5 649.9,199.7 652.4,199.0 654.8,197.8 657.2,197.1 659.7,196.4 662.1,196.3 664.6,196.0 667.0,195.4 669.4,194.0 671.9,191.6 674.3,189.2 676.8,186.7 679.2,184.7 681.6,182.4 684.1,179.9 686.5,177.3 689.0,175.0 691.4,173.3 693.8,171.9 696.3,170.4 698.7,168.9 701.2,167.9 703.6,166.7 706.0,165.8 708.5,164.5 710.9,162.7 713.4,160.6 715.8,158.8 718.2,157.3 720.7,156.3 723.1,155.4 725.6,154.5 728.0,153.5 730.5,151.8 732.9,150.3 735.3,148.6 737.8,146.8 740.2,145.3 742.7,144.1 745.1,143.6 747.5,142.9 750.0,142.2 752.4,142.1 754.9,142.0 757.3,141.6 759.7,141.5 762.2,141.4 764.6,141.2 767.1,141.1 774.4,141.0 776.8,141.0 779.3,140.7 781.7,138.6 784.1,136.9 786.6,135.3 789.0,133.6 791.5,132.0 793.9,130.5 796.3,128.8 798.8,127.3 801.2,125.6 803.7,124.1 806.1,122.6 808.5,121.1 811.0,119.6 813.4,118.1 815.9,116.7 818.3,115.4 820.8,114.0 823.2,112.6 825.6,111.2 828.1,109.9 830.5,108.6 833.0,107.7 835.4,106.8 837.8,105.9 840.3,104.6 842.7,103.4 845.2,102.3 847.6,101.0 850.0,99.8 852.5,98.8 854.9,97.6 857.4,96.4 859.8,95.2 862.2,94.1 864.7,92.8 867.1,91.8 869.6,90.6 872.0,90.0 872.0,272.0" fill="#e0f2fe" opacity="0.55"/>
<polyline points="52.0,271.9 54.4,271.8 83.7,271.3 86.2,271.2 88.6,271.1 95.9,271.1 110.6,271.0 142.3,271.0 144.7,270.5 147.2,270.5 154.5,270.4 156.9,270.3 159.4,270.3 161.8,270.1 166.7,270.1 169.1,269.8 176.5,269.6 186.2,269.5 188.7,269.4 191.1,269.3 210.6,269.2 215.5,269.2 227.7,269.1 230.2,269.1 232.6,269.0 242.4,268.9 244.8,268.6 247.2,268.4 249.7,267.7 252.1,267.6 269.2,267.6 276.5,267.5 281.4,267.5 283.8,267.4 286.3,267.2 288.7,267.1 291.2,267.1 293.6,266.9 296.0,266.8 305.8,266.5 310.7,266.5 320.5,266.4 322.9,266.2 325.3,266.1 327.8,266.0 332.7,266.0 335.1,265.0 337.5,264.0 340.0,263.6 342.4,263.4 344.9,263.3 347.3,263.0 349.7,262.7 352.2,262.4 354.6,262.3 357.1,262.2 361.9,262.0 364.4,261.6 366.8,261.2 369.3,260.8 371.7,260.6 376.6,260.5 381.5,260.4 383.9,260.1 386.3,259.8 388.8,259.1 391.2,258.7 393.7,258.3 396.1,257.9 398.5,257.5 401.0,257.0 403.4,256.5 405.9,256.0 408.3,255.5 410.8,255.0 413.2,254.7 415.6,254.4 418.1,254.0 420.5,253.8 423.0,253.5 425.4,253.3 427.8,253.2 430.3,253.1 435.2,253.0 437.6,252.0 440.0,251.3 442.5,251.2 444.9,251.1 449.8,251.0 452.2,250.9 462.0,250.8 466.9,250.7 474.2,250.7 476.6,249.5 479.1,248.4 481.5,248.1 484.0,247.2 486.4,246.5 488.8,246.1 491.3,245.8 493.7,245.4 496.2,245.2 498.6,245.1 501.0,244.9 503.5,244.8 518.1,244.0 520.6,243.0 523.0,242.8 525.5,242.7 527.9,242.6 545.0,242.6 566.9,241.5 569.4,240.7 571.8,239.8 574.3,238.4 576.7,238.1 579.1,237.7 581.6,236.9 584.0,236.3 586.5,234.9 588.9,232.9 591.3,230.9 593.8,228.6 596.2,226.2 598.7,224.1 601.1,222.8 603.5,221.3 606.0,219.0 608.4,217.0 610.9,215.7 613.3,214.4 615.8,212.5 618.2,211.3 620.6,210.1 623.1,209.0 625.5,208.2 628.0,207.2 630.4,206.5 632.8,205.8 635.3,205.2 637.7,203.4 640.2,202.0 642.6,201.2 645.0,200.9 647.5,200.5 649.9,199.7 652.4,199.0 654.8,197.8 657.2,197.1 659.7,196.4 662.1,196.3 664.6,196.0 667.0,195.4 669.4,194.0 671.9,191.6 674.3,189.2 676.8,186.7 679.2,184.7 681.6,182.4 684.1,179.9 686.5,177.3 689.0,175.0 691.4,173.3 693.8,171.9 696.3,170.4 698.7,168.9 701.2,167.9 703.6,166.7 706.0,165.8 708.5,164.5 710.9,162.7 713.4,160.6 715.8,158.8 718.2,157.3 720.7,156.3 723.1,155.4 725.6,154.5 728.0,153.5 730.5,151.8 732.9,150.3 735.3,148.6 737.8,146.8 740.2,145.3 742.7,144.1 745.1,143.6 747.5,142.9 750.0,142.2 752.4,142.1 754.9,142.0 757.3,141.6 759.7,141.5 762.2,141.4 764.6,141.2 767.1,141.1 774.4,141.0 776.8,141.0 779.3,140.7 781.7,138.6 784.1,136.9 786.6,135.3 789.0,133.6 791.5,132.0 793.9,130.5 796.3,128.8 798.8,127.3 801.2,125.6 803.7,124.1 806.1,122.6 808.5,121.1 811.0,119.6 813.4,118.1 815.9,116.7 818.3,115.4 820.8,114.0 823.2,112.6 825.6,111.2 828.1,109.9 830.5,108.6 833.0,107.7 835.4,106.8 837.8,105.9 840.3,104.6 842.7,103.4 845.2,102.3 847.6,101.0 850.0,99.8 852.5,98.8 854.9,97.6 857.4,96.4 859.8,95.2 862.2,94.1 864.7,92.8 867.1,91.8 869.6,90.6 872.0,90.0" fill="none" stroke="#38bdf8" stroke-width="2.5" stroke-linejoin="round" stroke-linecap="round"/>
<circle cx="872.0" cy="90.0" r="4" fill="#0ea5e9"/>
<text x="866.0" y="80.0" text-anchor="end" font-family="Inter, system-ui, sans-serif" font-size="13" font-weight="700" fill="#334155">3635</text>
<text x="52.0" y="294" text-anchor="middle" font-family="Inter, system-ui, sans-serif" font-size="11" fill="#94a3b8">Jun 10 05:00</text>
<text x="581.6" y="294" text-anchor="middle" font-family="Inter, system-ui, sans-serif" font-size="11" fill="#94a3b8">Jun 19 06:00</text>
<text x="872.0" y="294" text-anchor="middle" font-family="Inter, system-ui, sans-serif" font-size="11" fill="#94a3b8">Jun 24 05:00</text>
</svg>
