<svg xmlns="http://www.w3.org/2000/svg" width="900" height="320" viewBox="0 0 900 320" role="img" aria-labelledby="title desc">
<title id="title">unsorry proofs over time</title>
<desc id="desc">Cumulative kernel-verified proofs over time, by the hour each proof was merged.</desc>
<rect width="900" height="100%" rx="18" fill="#ffffff"/>
<rect x="0.5" y="0.5" width="899" height="319" rx="18" fill="none" stroke="#e2e8f0"/>
<text x="32" y="44" font-family="Inter, system-ui, sans-serif" font-size="28" font-weight="700" fill="#334155">unsorry — Proofs Over Time</text>
<text x="32" y="72" font-family="Inter, system-ui, sans-serif" font-size="13" fill="#64748b">4327 cumulative kernel-verified proofs · merged, hourly</text>
<line x1="52" y1="272.0" x2="872" y2="272.0" stroke="#f1f5f9"/>
<text x="44" y="276.0" text-anchor="end" font-family="Inter, system-ui, sans-serif" font-size="11" fill="#94a3b8">0</text>
<line x1="52" y1="226.5" x2="872" y2="226.5" stroke="#f1f5f9"/>
<text x="44" y="230.5" text-anchor="end" font-family="Inter, system-ui, sans-serif" font-size="11" fill="#94a3b8">1082</text>
<line x1="52" y1="181.0" x2="872" y2="181.0" stroke="#f1f5f9"/>
<text x="44" y="185.0" text-anchor="end" font-family="Inter, system-ui, sans-serif" font-size="11" fill="#94a3b8">2164</text>
<line x1="52" y1="135.5" x2="872" y2="135.5" stroke="#f1f5f9"/>
<text x="44" y="139.5" text-anchor="end" font-family="Inter, system-ui, sans-serif" font-size="11" fill="#94a3b8">3245</text>
<line x1="52" y1="90.0" x2="872" y2="90.0" stroke="#f1f5f9"/>
<text x="44" y="94.0" text-anchor="end" font-family="Inter, system-ui, sans-serif" font-size="11" fill="#94a3b8">4327</text>
<polygon points="52.0,272.0 52.0,272.0 54.2,271.9 80.4,271.5 82.5,271.3 84.7,271.3 91.3,271.2 104.3,271.2 132.7,271.2 134.9,270.8 137.1,270.7 143.6,270.7 145.8,270.6 148.0,270.6 150.1,270.4 154.5,270.4 156.7,270.2 163.2,270.0 171.9,269.9 174.1,269.8 176.3,269.7 193.8,269.7 198.1,269.6 209.0,269.6 211.2,269.6 213.4,269.5 222.1,269.4 224.3,269.2 226.5,269.0 228.6,268.4 230.8,268.3 246.1,268.3 252.6,268.3 257.0,268.2 259.2,268.2 261.4,268.0 263.5,267.9 265.7,267.9 267.9,267.8 270.1,267.6 278.8,267.4 283.2,267.4 291.9,267.3 294.1,267.1 296.3,267.1 298.4,267.0 302.8,267.0 305.0,266.1 307.2,265.3 309.3,265.0 311.5,264.8 313.7,264.7 315.9,264.5 318.1,264.2 320.2,264.0 322.4,263.8 324.6,263.8 329.0,263.6 331.1,263.3 333.3,263.0 335.5,262.6 337.7,262.4 342.1,262.3 346.4,262.3 348.6,262.0 350.8,261.8 353.0,261.2 355.1,260.9 357.3,260.5 359.5,260.2 361.7,259.8 363.9,259.4 366.0,259.0 368.2,258.5 370.4,258.1 372.6,257.7 374.8,257.5 376.9,257.2 379.1,256.9 381.3,256.7 383.5,256.5 385.7,256.3 387.9,256.2 390.0,256.1 394.4,256.1 396.6,255.2 398.8,254.6 400.9,254.5 403.1,254.5 407.5,254.4 409.7,254.3 418.4,254.2 422.7,254.1 429.3,254.1 431.5,253.1 433.6,252.2 435.8,251.9 438.0,251.2 440.2,250.6 442.4,250.2 444.6,250.0 446.7,249.6 448.9,249.5 451.1,249.4 453.3,249.2 455.5,249.1 468.5,248.4 470.7,247.6 472.9,247.5 475.1,247.4 477.3,247.3 492.5,247.3 512.2,246.4 514.3,245.7 516.5,244.9 518.7,243.7 520.9,243.5 523.1,243.1 525.2,242.5 527.4,242.0 529.6,240.8 531.8,239.1 534.0,237.5 536.1,235.6 538.3,233.6 540.5,231.8 542.7,230.7 544.9,229.4 547.1,227.5 549.2,225.8 551.4,224.7 553.6,223.6 555.8,222.0 558.0,221.0 560.1,220.0 562.3,219.1 564.5,218.4 566.7,217.5 568.9,217.0 571.0,216.4 573.2,215.9 575.4,214.4 577.6,213.2 579.8,212.5 581.9,212.3 584.1,211.9 586.3,211.3 588.5,210.7 590.7,209.7 592.9,209.1 595.0,208.5 597.2,208.4 599.4,208.2 601.6,207.7 603.8,206.5 605.9,204.5 608.1,202.4 610.3,200.4 612.5,198.7 614.7,196.7 616.8,194.6 619.0,192.5 621.2,190.5 623.4,189.1 625.6,187.9 627.7,186.6 629.9,185.4 632.1,184.5 634.3,183.5 636.5,182.7 638.6,181.7 640.8,180.2 643.0,178.4 645.2,176.9 647.4,175.6 649.6,174.8 651.7,174.0 653.9,173.3 656.1,172.4 658.3,171.0 660.5,169.8 662.6,168.3 664.8,166.8 667.0,165.5 669.2,164.5 671.4,164.1 673.5,163.5 675.7,162.9 677.9,162.9 680.1,162.8 682.3,162.5 684.4,162.3 686.6,162.3 688.8,162.1 691.0,162.0 697.5,162.0 699.7,161.9 701.9,161.7 704.1,159.9 706.3,158.5 708.4,157.2 710.6,155.7 712.8,154.4 715.0,153.1 717.2,151.7 719.3,150.4 721.5,149.1 723.7,147.8 725.9,146.5 728.1,145.2 730.2,144.0 732.4,142.7 734.6,141.5 736.8,140.5 739.0,139.3 741.1,138.1 743.3,136.9 745.5,135.8 747.7,134.7 749.9,134.0 752.1,133.2 754.2,132.4 756.4,131.3 758.6,130.4 760.8,129.5 763.0,128.3 765.1,127.4 767.3,126.5 769.5,125.5 771.7,124.4 773.9,123.5 776.0,122.6 778.2,121.5 780.4,120.6 782.6,119.6 784.8,118.8 786.9,118.0 789.1,117.0 791.3,116.2 793.5,115.4 795.7,114.7 797.9,114.1 800.0,113.7 802.2,113.6 804.4,112.7 806.6,111.9 808.8,111.0 810.9,110.1 813.1,109.4 815.3,108.6 817.5,107.8 819.7,107.0 821.8,106.2 824.0,105.5 826.2,104.8 828.4,104.1 830.6,103.2 832.7,102.6 834.9,101.8 837.1,101.1 839.3,100.3 841.5,99.7 843.6,98.9 845.8,98.3 848.0,97.7 850.2,96.8 852.4,96.0 854.6,95.3 856.7,94.5 858.9,93.7 861.1,93.2 863.3,92.5 865.5,91.6 867.6,91.1 869.8,90.6 872.0,90.0 872.0,272.0" fill="#e0f2fe" opacity="0.55"/>
<polyline points="52.0,272.0 54.2,271.9 80.4,271.5 82.5,271.3 84.7,271.3 91.3,271.2 104.3,271.2 132.7,271.2 134.9,270.8 137.1,270.7 143.6,270.7 145.8,270.6 148.0,270.6 150.1,270.4 154.5,270.4 156.7,270.2 163.2,270.0 171.9,269.9 174.1,269.8 176.3,269.7 193.8,269.7 198.1,269.6 209.0,269.6 211.2,269.6 213.4,269.5 222.1,269.4 224.3,269.2 226.5,269.0 228.6,268.4 230.8,268.3 246.1,268.3 252.6,268.3 257.0,268.2 259.2,268.2 261.4,268.0 263.5,267.9 265.7,267.9 267.9,267.8 270.1,267.6 278.8,267.4 283.2,267.4 291.9,267.3 294.1,267.1 296.3,267.1 298.4,267.0 302.8,267.0 305.0,266.1 307.2,265.3 309.3,265.0 311.5,264.8 313.7,264.7 315.9,264.5 318.1,264.2 320.2,264.0 322.4,263.8 324.6,263.8 329.0,263.6 331.1,263.3 333.3,263.0 335.5,262.6 337.7,262.4 342.1,262.3 346.4,262.3 348.6,262.0 350.8,261.8 353.0,261.2 355.1,260.9 357.3,260.5 359.5,260.2 361.7,259.8 363.9,259.4 366.0,259.0 368.2,258.5 370.4,258.1 372.6,257.7 374.8,257.5 376.9,257.2 379.1,256.9 381.3,256.7 383.5,256.5 385.7,256.3 387.9,256.2 390.0,256.1 394.4,256.1 396.6,255.2 398.8,254.6 400.9,254.5 403.1,254.5 407.5,254.4 409.7,254.3 418.4,254.2 422.7,254.1 429.3,254.1 431.5,253.1 433.6,252.2 435.8,251.9 438.0,251.2 440.2,250.6 442.4,250.2 444.6,250.0 446.7,249.6 448.9,249.5 451.1,249.4 453.3,249.2 455.5,249.1 468.5,248.4 470.7,247.6 472.9,247.5 475.1,247.4 477.3,247.3 492.5,247.3 512.2,246.4 514.3,245.7 516.5,244.9 518.7,243.7 520.9,243.5 523.1,243.1 525.2,242.5 527.4,242.0 529.6,240.8 531.8,239.1 534.0,237.5 536.1,235.6 538.3,233.6 540.5,231.8 542.7,230.7 544.9,229.4 547.1,227.5 549.2,225.8 551.4,224.7 553.6,223.6 555.8,222.0 558.0,221.0 560.1,220.0 562.3,219.1 564.5,218.4 566.7,217.5 568.9,217.0 571.0,216.4 573.2,215.9 575.4,214.4 577.6,213.2 579.8,212.5 581.9,212.3 584.1,211.9 586.3,211.3 588.5,210.7 590.7,209.7 592.9,209.1 595.0,208.5 597.2,208.4 599.4,208.2 601.6,207.7 603.8,206.5 605.9,204.5 608.1,202.4 610.3,200.4 612.5,198.7 614.7,196.7 616.8,194.6 619.0,192.5 621.2,190.5 623.4,189.1 625.6,187.9 627.7,186.6 629.9,185.4 632.1,184.5 634.3,183.5 636.5,182.7 638.6,181.7 640.8,180.2 643.0,178.4 645.2,176.9 647.4,175.6 649.6,174.8 651.7,174.0 653.9,173.3 656.1,172.4 658.3,171.0 660.5,169.8 662.6,168.3 664.8,166.8 667.0,165.5 669.2,164.5 671.4,164.1 673.5,163.5 675.7,162.9 677.9,162.9 680.1,162.8 682.3,162.5 684.4,162.3 686.6,162.3 688.8,162.1 691.0,162.0 697.5,162.0 699.7,161.9 701.9,161.7 704.1,159.9 706.3,158.5 708.4,157.2 710.6,155.7 712.8,154.4 715.0,153.1 717.2,151.7 719.3,150.4 721.5,149.1 723.7,147.8 725.9,146.5 728.1,145.2 730.2,144.0 732.4,142.7 734.6,141.5 736.8,140.5 739.0,139.3 741.1,138.1 743.3,136.9 745.5,135.8 747.7,134.7 749.9,134.0 752.1,133.2 754.2,132.4 756.4,131.3 758.6,130.4 760.8,129.5 763.0,128.3 765.1,127.4 767.3,126.5 769.5,125.5 771.7,124.4 773.9,123.5 776.0,122.6 778.2,121.5 780.4,120.6 782.6,119.6 784.8,118.8 786.9,118.0 789.1,117.0 791.3,116.2 793.5,115.4 795.7,114.7 797.9,114.1 800.0,113.7 802.2,113.6 804.4,112.7 806.6,111.9 808.8,111.0 810.9,110.1 813.1,109.4 815.3,108.6 817.5,107.8 819.7,107.0 821.8,106.2 824.0,105.5 826.2,104.8 828.4,104.1 830.6,103.2 832.7,102.6 834.9,101.8 837.1,101.1 839.3,100.3 841.5,99.7 843.6,98.9 845.8,98.3 848.0,97.7 850.2,96.8 852.4,96.0 854.6,95.3 856.7,94.5 858.9,93.7 861.1,93.2 863.3,92.5 865.5,91.6 867.6,91.1 869.8,90.6 872.0,90.0" fill="none" stroke="#38bdf8" stroke-width="2.5" stroke-linejoin="round" stroke-linecap="round"/>
<circle cx="872.0" cy="90.0" r="4" fill="#0ea5e9"/>
<text x="866.0" y="80.0" text-anchor="end" font-family="Inter, system-ui, sans-serif" font-size="13" font-weight="700" fill="#334155">4327</text>
<text x="52.0" y="294" text-anchor="middle" font-family="Inter, system-ui, sans-serif" font-size="11" fill="#94a3b8">Jun 10 05:00</text>
<text x="568.9" y="294" text-anchor="middle" font-family="Inter, system-ui, sans-serif" font-size="11" fill="#94a3b8">Jun 20 02:00</text>
<text x="872.0" y="294" text-anchor="middle" font-family="Inter, system-ui, sans-serif" font-size="11" fill="#94a3b8">Jun 25 21:00</text>
</svg>
