<svg xmlns="http://www.w3.org/2000/svg" width="900" height="320" viewBox="0 0 900 320" role="img" aria-labelledby="title desc">
<title id="title">unsorry proofs over time</title>
<desc id="desc">Cumulative kernel-verified proofs over time, by the hour each proof was merged.</desc>
<rect width="900" height="100%" rx="18" fill="#ffffff"/>
<rect x="0.5" y="0.5" width="899" height="319" rx="18" fill="none" stroke="#e2e8f0"/>
<text x="32" y="44" font-family="Inter, system-ui, sans-serif" font-size="28" font-weight="700" fill="#334155">unsorry — Proofs Over Time</text>
<text x="32" y="72" font-family="Inter, system-ui, sans-serif" font-size="13" fill="#64748b">4337 cumulative kernel-verified proofs · merged, hourly</text>
<line x1="52" y1="272.0" x2="872" y2="272.0" stroke="#f1f5f9"/>
<text x="44" y="276.0" text-anchor="end" font-family="Inter, system-ui, sans-serif" font-size="11" fill="#94a3b8">0</text>
<line x1="52" y1="226.5" x2="872" y2="226.5" stroke="#f1f5f9"/>
<text x="44" y="230.5" text-anchor="end" font-family="Inter, system-ui, sans-serif" font-size="11" fill="#94a3b8">1084</text>
<line x1="52" y1="181.0" x2="872" y2="181.0" stroke="#f1f5f9"/>
<text x="44" y="185.0" text-anchor="end" font-family="Inter, system-ui, sans-serif" font-size="11" fill="#94a3b8">2168</text>
<line x1="52" y1="135.5" x2="872" y2="135.5" stroke="#f1f5f9"/>
<text x="44" y="139.5" text-anchor="end" font-family="Inter, system-ui, sans-serif" font-size="11" fill="#94a3b8">3253</text>
<line x1="52" y1="90.0" x2="872" y2="90.0" stroke="#f1f5f9"/>
<text x="44" y="94.0" text-anchor="end" font-family="Inter, system-ui, sans-serif" font-size="11" fill="#94a3b8">4337</text>
<polygon points="52.0,272.0 52.0,272.0 54.2,271.9 80.3,271.5 82.5,271.3 84.6,271.3 91.2,271.2 104.2,271.2 132.5,271.2 134.7,270.8 136.8,270.7 143.4,270.7 145.5,270.6 147.7,270.6 149.9,270.4 154.2,270.4 156.4,270.2 162.9,270.0 171.6,269.9 173.8,269.8 176.0,269.7 193.4,269.7 197.7,269.6 208.6,269.6 210.8,269.6 213.0,269.5 221.7,269.4 223.8,269.2 226.0,269.0 228.2,268.4 230.4,268.3 245.6,268.3 252.1,268.3 256.5,268.2 258.6,268.2 260.8,268.0 263.0,267.9 265.2,267.9 267.3,267.8 269.5,267.6 278.2,267.4 282.6,267.4 291.3,267.3 293.4,267.1 295.6,267.1 297.8,267.0 302.1,267.0 304.3,266.1 306.5,265.3 308.7,265.0 310.8,264.8 313.0,264.7 315.2,264.5 317.4,264.2 319.5,264.0 321.7,263.9 323.9,263.8 328.2,263.6 330.4,263.3 332.6,263.0 334.8,262.6 336.9,262.4 341.3,262.3 345.6,262.3 347.8,262.0 350.0,261.8 352.2,261.2 354.3,260.9 356.5,260.5 358.7,260.2 360.9,259.8 363.0,259.5 365.2,259.0 367.4,258.6 369.6,258.2 371.7,257.8 373.9,257.5 376.1,257.2 378.3,256.9 380.4,256.7 382.6,256.5 384.8,256.3 387.0,256.2 389.1,256.1 393.5,256.1 395.7,255.3 397.8,254.7 400.0,254.5 402.2,254.5 406.5,254.4 408.7,254.3 417.4,254.2 421.8,254.2 428.3,254.1 430.5,253.2 432.6,252.2 434.8,252.0 437.0,251.2 439.2,250.6 441.3,250.3 443.5,250.1 445.7,249.7 447.9,249.5 450.0,249.4 452.2,249.3 454.4,249.2 467.4,248.5 469.6,247.7 471.8,247.5 474.0,247.4 476.1,247.4 491.4,247.3 510.9,246.4 513.1,245.8 515.3,245.0 517.5,243.8 519.6,243.6 521.8,243.2 524.0,242.5 526.2,242.0 528.3,240.9 530.5,239.2 532.7,237.6 534.9,235.7 537.0,233.6 539.2,231.9 541.4,230.8 543.6,229.5 545.7,227.6 547.9,225.9 550.1,224.8 552.3,223.7 554.4,222.1 556.6,221.1 558.8,220.1 561.0,219.2 563.1,218.5 565.3,217.7 567.5,217.1 569.7,216.5 571.8,216.0 574.0,214.5 576.2,213.3 578.4,212.6 580.5,212.4 582.7,212.0 584.9,211.4 587.1,210.9 589.2,209.9 591.4,209.2 593.6,208.6 595.8,208.5 597.9,208.3 600.1,207.8 602.3,206.6 604.5,204.6 606.6,202.6 608.8,200.5 611.0,198.9 613.2,196.9 615.3,194.8 617.5,192.6 619.7,190.7 621.9,189.2 624.0,188.1 626.2,186.8 628.4,185.6 630.6,184.7 632.7,183.7 634.9,183.0 637.1,181.9 639.3,180.4 641.4,178.6 643.6,177.2 645.8,175.9 648.0,175.0 650.1,174.3 652.3,173.5 654.5,172.7 656.7,171.2 658.8,170.0 661.0,168.6 663.2,167.0 665.4,165.8 667.5,164.8 669.7,164.4 671.9,163.8 674.1,163.2 676.2,163.1 678.4,163.0 680.6,162.7 682.8,162.6 684.9,162.6 687.1,162.3 689.3,162.3 695.8,162.2 698.0,162.2 700.2,161.9 702.3,160.2 704.5,158.7 706.7,157.4 708.9,156.0 711.0,154.7 713.2,153.4 715.4,152.0 717.6,150.7 719.7,149.3 721.9,148.1 724.1,146.8 726.3,145.5 728.4,144.3 730.6,143.0 732.8,141.8 735.0,140.8 737.1,139.6 739.3,138.4 741.5,137.3 743.7,136.2 745.8,135.0 748.0,134.3 750.2,133.5 752.4,132.8 754.5,131.7 756.7,130.7 758.9,129.8 761.1,128.6 763.2,127.7 765.4,126.8 767.6,125.8 769.8,124.8 771.9,123.8 774.1,122.9 776.3,121.8 778.5,121.0 780.6,120.0 782.8,119.2 785.0,118.4 787.2,117.4 789.3,116.5 791.5,115.7 793.7,115.1 795.9,114.4 798.0,114.0 800.2,113.9 802.4,113.0 804.6,112.2 806.7,111.4 808.9,110.5 811.1,109.8 813.3,109.0 815.4,108.2 817.6,107.4 819.8,106.6 822.0,105.9 824.1,105.2 826.3,104.5 828.5,103.6 830.7,103.0 832.8,102.2 835.0,101.5 837.2,100.7 839.4,100.1 841.5,99.3 843.7,98.7 845.9,98.1 848.1,97.2 850.2,96.4 852.4,95.7 854.6,94.9 856.8,94.2 858.9,93.6 861.1,92.9 863.3,92.1 865.5,91.5 867.6,91.0 869.8,90.4 872.0,90.0 872.0,272.0" fill="#e0f2fe" opacity="0.55"/>
<polyline points="52.0,272.0 54.2,271.9 80.3,271.5 82.5,271.3 84.6,271.3 91.2,271.2 104.2,271.2 132.5,271.2 134.7,270.8 136.8,270.7 143.4,270.7 145.5,270.6 147.7,270.6 149.9,270.4 154.2,270.4 156.4,270.2 162.9,270.0 171.6,269.9 173.8,269.8 176.0,269.7 193.4,269.7 197.7,269.6 208.6,269.6 210.8,269.6 213.0,269.5 221.7,269.4 223.8,269.2 226.0,269.0 228.2,268.4 230.4,268.3 245.6,268.3 252.1,268.3 256.5,268.2 258.6,268.2 260.8,268.0 263.0,267.9 265.2,267.9 267.3,267.8 269.5,267.6 278.2,267.4 282.6,267.4 291.3,267.3 293.4,267.1 295.6,267.1 297.8,267.0 302.1,267.0 304.3,266.1 306.5,265.3 308.7,265.0 310.8,264.8 313.0,264.7 315.2,264.5 317.4,264.2 319.5,264.0 321.7,263.9 323.9,263.8 328.2,263.6 330.4,263.3 332.6,263.0 334.8,262.6 336.9,262.4 341.3,262.3 345.6,262.3 347.8,262.0 350.0,261.8 352.2,261.2 354.3,260.9 356.5,260.5 358.7,260.2 360.9,259.8 363.0,259.5 365.2,259.0 367.4,258.6 369.6,258.2 371.7,257.8 373.9,257.5 376.1,257.2 378.3,256.9 380.4,256.7 382.6,256.5 384.8,256.3 387.0,256.2 389.1,256.1 393.5,256.1 395.7,255.3 397.8,254.7 400.0,254.5 402.2,254.5 406.5,254.4 408.7,254.3 417.4,254.2 421.8,254.2 428.3,254.1 430.5,253.2 432.6,252.2 434.8,252.0 437.0,251.2 439.2,250.6 441.3,250.3 443.5,250.1 445.7,249.7 447.9,249.5 450.0,249.4 452.2,249.3 454.4,249.2 467.4,248.5 469.6,247.7 471.8,247.5 474.0,247.4 476.1,247.4 491.4,247.3 510.9,246.4 513.1,245.8 515.3,245.0 517.5,243.8 519.6,243.6 521.8,243.2 524.0,242.5 526.2,242.0 528.3,240.9 530.5,239.2 532.7,237.6 534.9,235.7 537.0,233.6 539.2,231.9 541.4,230.8 543.6,229.5 545.7,227.6 547.9,225.9 550.1,224.8 552.3,223.7 554.4,222.1 556.6,221.1 558.8,220.1 561.0,219.2 563.1,218.5 565.3,217.7 567.5,217.1 569.7,216.5 571.8,216.0 574.0,214.5 576.2,213.3 578.4,212.6 580.5,212.4 582.7,212.0 584.9,211.4 587.1,210.9 589.2,209.9 591.4,209.2 593.6,208.6 595.8,208.5 597.9,208.3 600.1,207.8 602.3,206.6 604.5,204.6 606.6,202.6 608.8,200.5 611.0,198.9 613.2,196.9 615.3,194.8 617.5,192.6 619.7,190.7 621.9,189.2 624.0,188.1 626.2,186.8 628.4,185.6 630.6,184.7 632.7,183.7 634.9,183.0 637.1,181.9 639.3,180.4 641.4,178.6 643.6,177.2 645.8,175.9 648.0,175.0 650.1,174.3 652.3,173.5 654.5,172.7 656.7,171.2 658.8,170.0 661.0,168.6 663.2,167.0 665.4,165.8 667.5,164.8 669.7,164.4 671.9,163.8 674.1,163.2 676.2,163.1 678.4,163.0 680.6,162.7 682.8,162.6 684.9,162.6 687.1,162.3 689.3,162.3 695.8,162.2 698.0,162.2 700.2,161.9 702.3,160.2 704.5,158.7 706.7,157.4 708.9,156.0 711.0,154.7 713.2,153.4 715.4,152.0 717.6,150.7 719.7,149.3 721.9,148.1 724.1,146.8 726.3,145.5 728.4,144.3 730.6,143.0 732.8,141.8 735.0,140.8 737.1,139.6 739.3,138.4 741.5,137.3 743.7,136.2 745.8,135.0 748.0,134.3 750.2,133.5 752.4,132.8 754.5,131.7 756.7,130.7 758.9,129.8 761.1,128.6 763.2,127.7 765.4,126.8 767.6,125.8 769.8,124.8 771.9,123.8 774.1,122.9 776.3,121.8 778.5,121.0 780.6,120.0 782.8,119.2 785.0,118.4 787.2,117.4 789.3,116.5 791.5,115.7 793.7,115.1 795.9,114.4 798.0,114.0 800.2,113.9 802.4,113.0 804.6,112.2 806.7,111.4 808.9,110.5 811.1,109.8 813.3,109.0 815.4,108.2 817.6,107.4 819.8,106.6 822.0,105.9 824.1,105.2 826.3,104.5 828.5,103.6 830.7,103.0 832.8,102.2 835.0,101.5 837.2,100.7 839.4,100.1 841.5,99.3 843.7,98.7 845.9,98.1 848.1,97.2 850.2,96.4 852.4,95.7 854.6,94.9 856.8,94.2 858.9,93.6 861.1,92.9 863.3,92.1 865.5,91.5 867.6,91.0 869.8,90.4 872.0,90.0" fill="none" stroke="#38bdf8" stroke-width="2.5" stroke-linejoin="round" stroke-linecap="round"/>
<circle cx="872.0" cy="90.0" r="4" fill="#0ea5e9"/>
<text x="866.0" y="80.0" text-anchor="end" font-family="Inter, system-ui, sans-serif" font-size="13" font-weight="700" fill="#334155">4337</text>
<text x="52.0" y="294" text-anchor="middle" font-family="Inter, system-ui, sans-serif" font-size="11" fill="#94a3b8">Jun 10 05:00</text>
<text x="569.7" y="294" text-anchor="middle" font-family="Inter, system-ui, sans-serif" font-size="11" fill="#94a3b8">Jun 20 03:00</text>
<text x="872.0" y="294" text-anchor="middle" font-family="Inter, system-ui, sans-serif" font-size="11" fill="#94a3b8">Jun 25 22:00</text>
</svg>
