<svg xmlns="http://www.w3.org/2000/svg" width="900" height="320" viewBox="0 0 900 320" role="img" aria-labelledby="title desc">
<title id="title">unsorry proofs over time</title>
<desc id="desc">Cumulative kernel-verified proofs over time, by the hour each proof was merged.</desc>
<rect width="900" height="100%" rx="18" fill="#ffffff"/>
<rect x="0.5" y="0.5" width="899" height="319" rx="18" fill="none" stroke="#e2e8f0"/>
<text x="32" y="44" font-family="Inter, system-ui, sans-serif" font-size="28" font-weight="700" fill="#334155">unsorry — Proofs Over Time</text>
<text x="32" y="72" font-family="Inter, system-ui, sans-serif" font-size="13" fill="#64748b">3153 cumulative kernel-verified proofs · merged, hourly</text>
<line x1="52" y1="272.0" x2="872" y2="272.0" stroke="#f1f5f9"/>
<text x="44" y="276.0" text-anchor="end" font-family="Inter, system-ui, sans-serif" font-size="11" fill="#94a3b8">0</text>
<line x1="52" y1="226.5" x2="872" y2="226.5" stroke="#f1f5f9"/>
<text x="44" y="230.5" text-anchor="end" font-family="Inter, system-ui, sans-serif" font-size="11" fill="#94a3b8">788</text>
<line x1="52" y1="181.0" x2="872" y2="181.0" stroke="#f1f5f9"/>
<text x="44" y="185.0" text-anchor="end" font-family="Inter, system-ui, sans-serif" font-size="11" fill="#94a3b8">1576</text>
<line x1="52" y1="135.5" x2="872" y2="135.5" stroke="#f1f5f9"/>
<text x="44" y="139.5" text-anchor="end" font-family="Inter, system-ui, sans-serif" font-size="11" fill="#94a3b8">2365</text>
<line x1="52" y1="90.0" x2="872" y2="90.0" stroke="#f1f5f9"/>
<text x="44" y="94.0" text-anchor="end" font-family="Inter, system-ui, sans-serif" font-size="11" fill="#94a3b8">3153</text>
<polygon points="52.0,272.0 52.0,271.9 54.6,271.8 85.8,271.2 88.4,271.1 91.0,271.0 98.9,271.0 114.5,270.9 148.3,270.8 150.9,270.3 153.5,270.3 161.3,270.2 163.9,270.1 166.5,270.0 169.1,269.9 174.3,269.8 177.0,269.5 184.8,269.3 195.2,269.2 197.8,269.0 200.4,268.9 221.2,268.8 226.4,268.8 239.4,268.7 242.0,268.7 244.6,268.5 255.0,268.5 257.7,268.1 260.3,267.8 262.9,267.1 265.5,267.0 283.7,266.9 291.5,266.9 296.7,266.8 299.3,266.7 301.9,266.5 304.5,266.4 307.1,266.3 309.7,266.2 312.3,266.0 322.7,265.7 327.9,265.7 338.3,265.6 341.0,265.3 343.6,265.2 346.2,265.1 351.4,265.1 354.0,263.9 356.6,262.8 359.2,262.4 361.8,262.1 364.4,262.0 367.0,261.7 369.6,261.3 372.2,261.0 374.8,260.8 377.4,260.7 382.6,260.5 385.2,260.1 387.8,259.6 390.4,259.1 393.0,258.8 398.2,258.7 403.4,258.7 406.0,258.3 408.6,258.0 411.2,257.2 413.8,256.7 416.4,256.2 419.0,255.8 421.7,255.3 424.3,254.7 426.9,254.2 429.5,253.5 432.1,253.0 434.7,252.4 437.3,252.1 439.9,251.7 442.5,251.2 445.1,251.0 447.7,250.7 450.3,250.4 452.9,250.3 455.5,250.2 460.7,250.1 463.3,249.0 465.9,248.2 468.5,248.0 471.1,247.9 476.3,247.8 478.9,247.6 489.3,247.6 494.5,247.5 502.3,247.4 505.0,246.1 507.6,244.8 510.2,244.5 512.8,243.4 515.4,242.6 518.0,242.1 520.6,241.8 523.2,241.3 525.8,241.1 528.4,240.9 531.0,240.7 533.6,240.6 549.2,239.7 551.8,238.5 554.4,238.3 557.0,238.2 559.6,238.1 577.8,238.1 601.3,236.8 603.9,235.9 606.5,234.8 609.1,233.2 611.7,232.9 614.3,232.4 616.9,231.5 619.5,230.8 622.1,229.2 624.7,226.9 627.3,224.7 629.9,222.0 632.5,219.2 635.1,216.8 637.7,215.3 640.3,213.5 642.9,210.9 645.5,208.6 648.1,207.1 650.7,205.6 653.3,203.4 655.9,202.0 658.5,200.6 661.1,199.4 663.7,198.5 666.3,197.2 669.0,196.5 671.6,195.7 674.2,195.0 676.8,192.9 679.4,191.2 682.0,190.3 684.6,190.0 687.2,189.5 689.8,188.6 692.4,187.9 695.0,186.5 697.6,185.6 700.2,184.8 702.8,184.7 705.4,184.4 708.0,183.7 710.6,182.1 713.2,179.4 715.8,176.5 718.4,173.7 721.0,171.4 723.6,168.7 726.2,165.8 728.8,162.8 731.4,160.1 734.0,158.2 736.6,156.6 739.2,154.8 741.8,153.1 744.4,151.9 747.0,150.6 749.7,149.5 752.3,148.0 754.9,146.0 757.5,143.6 760.1,141.5 762.7,139.8 765.3,138.6 767.9,137.6 770.5,136.5 773.1,135.4 775.7,133.4 778.3,131.7 780.9,129.7 783.5,127.6 786.1,125.9 788.7,124.5 791.3,123.9 793.9,123.1 796.5,122.3 799.1,122.2 801.7,122.1 804.3,121.7 806.9,121.5 809.5,121.5 812.1,121.2 814.7,121.1 822.5,121.0 825.1,120.9 827.7,120.6 830.3,118.2 833.0,116.2 835.6,114.4 838.2,112.4 840.8,110.6 843.4,108.8 846.0,106.9 848.6,105.2 851.2,103.3 853.8,101.5 856.4,99.8 859.0,98.0 861.6,96.3 864.2,94.6 866.8,92.9 869.4,91.5 872.0,90.0 872.0,272.0" fill="#e0f2fe" opacity="0.55"/>
<polyline points="52.0,271.9 54.6,271.8 85.8,271.2 88.4,271.1 91.0,271.0 98.9,271.0 114.5,270.9 148.3,270.8 150.9,270.3 153.5,270.3 161.3,270.2 163.9,270.1 166.5,270.0 169.1,269.9 174.3,269.8 177.0,269.5 184.8,269.3 195.2,269.2 197.8,269.0 200.4,268.9 221.2,268.8 226.4,268.8 239.4,268.7 242.0,268.7 244.6,268.5 255.0,268.5 257.7,268.1 260.3,267.8 262.9,267.1 265.5,267.0 283.7,266.9 291.5,266.9 296.7,266.8 299.3,266.7 301.9,266.5 304.5,266.4 307.1,266.3 309.7,266.2 312.3,266.0 322.7,265.7 327.9,265.7 338.3,265.6 341.0,265.3 343.6,265.2 346.2,265.1 351.4,265.1 354.0,263.9 356.6,262.8 359.2,262.4 361.8,262.1 364.4,262.0 367.0,261.7 369.6,261.3 372.2,261.0 374.8,260.8 377.4,260.7 382.6,260.5 385.2,260.1 387.8,259.6 390.4,259.1 393.0,258.8 398.2,258.7 403.4,258.7 406.0,258.3 408.6,258.0 411.2,257.2 413.8,256.7 416.4,256.2 419.0,255.8 421.7,255.3 424.3,254.7 426.9,254.2 429.5,253.5 432.1,253.0 434.7,252.4 437.3,252.1 439.9,251.7 442.5,251.2 445.1,251.0 447.7,250.7 450.3,250.4 452.9,250.3 455.5,250.2 460.7,250.1 463.3,249.0 465.9,248.2 468.5,248.0 471.1,247.9 476.3,247.8 478.9,247.6 489.3,247.6 494.5,247.5 502.3,247.4 505.0,246.1 507.6,244.8 510.2,244.5 512.8,243.4 515.4,242.6 518.0,242.1 520.6,241.8 523.2,241.3 525.8,241.1 528.4,240.9 531.0,240.7 533.6,240.6 549.2,239.7 551.8,238.5 554.4,238.3 557.0,238.2 559.6,238.1 577.8,238.1 601.3,236.8 603.9,235.9 606.5,234.8 609.1,233.2 611.7,232.9 614.3,232.4 616.9,231.5 619.5,230.8 622.1,229.2 624.7,226.9 627.3,224.7 629.9,222.0 632.5,219.2 635.1,216.8 637.7,215.3 640.3,213.5 642.9,210.9 645.5,208.6 648.1,207.1 650.7,205.6 653.3,203.4 655.9,202.0 658.5,200.6 661.1,199.4 663.7,198.5 666.3,197.2 669.0,196.5 671.6,195.7 674.2,195.0 676.8,192.9 679.4,191.2 682.0,190.3 684.6,190.0 687.2,189.5 689.8,188.6 692.4,187.9 695.0,186.5 697.6,185.6 700.2,184.8 702.8,184.7 705.4,184.4 708.0,183.7 710.6,182.1 713.2,179.4 715.8,176.5 718.4,173.7 721.0,171.4 723.6,168.7 726.2,165.8 728.8,162.8 731.4,160.1 734.0,158.2 736.6,156.6 739.2,154.8 741.8,153.1 744.4,151.9 747.0,150.6 749.7,149.5 752.3,148.0 754.9,146.0 757.5,143.6 760.1,141.5 762.7,139.8 765.3,138.6 767.9,137.6 770.5,136.5 773.1,135.4 775.7,133.4 778.3,131.7 780.9,129.7 783.5,127.6 786.1,125.9 788.7,124.5 791.3,123.9 793.9,123.1 796.5,122.3 799.1,122.2 801.7,122.1 804.3,121.7 806.9,121.5 809.5,121.5 812.1,121.2 814.7,121.1 822.5,121.0 825.1,120.9 827.7,120.6 830.3,118.2 833.0,116.2 835.6,114.4 838.2,112.4 840.8,110.6 843.4,108.8 846.0,106.9 848.6,105.2 851.2,103.3 853.8,101.5 856.4,99.8 859.0,98.0 861.6,96.3 864.2,94.6 866.8,92.9 869.4,91.5 872.0,90.0" fill="none" stroke="#38bdf8" stroke-width="2.5" stroke-linejoin="round" stroke-linecap="round"/>
<circle cx="872.0" cy="90.0" r="4" fill="#0ea5e9"/>
<text x="866.0" y="80.0" text-anchor="end" font-family="Inter, system-ui, sans-serif" font-size="13" font-weight="700" fill="#334155">3153</text>
<text x="52.0" y="294" text-anchor="middle" font-family="Inter, system-ui, sans-serif" font-size="11" fill="#94a3b8">Jun 10 05:00</text>
<text x="554.4" y="294" text-anchor="middle" font-family="Inter, system-ui, sans-serif" font-size="11" fill="#94a3b8">Jun 18 06:00</text>
<text x="872.0" y="294" text-anchor="middle" font-family="Inter, system-ui, sans-serif" font-size="11" fill="#94a3b8">Jun 23 08:00</text>
</svg>
