<svg xmlns="http://www.w3.org/2000/svg" width="900" height="320" viewBox="0 0 900 320" role="img" aria-labelledby="title desc">
<title id="title">unsorry proofs over time</title>
<desc id="desc">Cumulative kernel-verified proofs over time, by the hour each proof was merged.</desc>
<rect width="900" height="100%" rx="18" fill="#ffffff"/>
<rect x="0.5" y="0.5" width="899" height="319" rx="18" fill="none" stroke="#e2e8f0"/>
<text x="32" y="44" font-family="Inter, system-ui, sans-serif" font-size="28" font-weight="700" fill="#334155">unsorry — Proofs Over Time</text>
<text x="32" y="72" font-family="Inter, system-ui, sans-serif" font-size="13" fill="#64748b">4437 cumulative kernel-verified proofs · merged, hourly</text>
<line x1="52" y1="272.0" x2="872" y2="272.0" stroke="#f1f5f9"/>
<text x="44" y="276.0" text-anchor="end" font-family="Inter, system-ui, sans-serif" font-size="11" fill="#94a3b8">0</text>
<line x1="52" y1="226.5" x2="872" y2="226.5" stroke="#f1f5f9"/>
<text x="44" y="230.5" text-anchor="end" font-family="Inter, system-ui, sans-serif" font-size="11" fill="#94a3b8">1109</text>
<line x1="52" y1="181.0" x2="872" y2="181.0" stroke="#f1f5f9"/>
<text x="44" y="185.0" text-anchor="end" font-family="Inter, system-ui, sans-serif" font-size="11" fill="#94a3b8">2218</text>
<line x1="52" y1="135.5" x2="872" y2="135.5" stroke="#f1f5f9"/>
<text x="44" y="139.5" text-anchor="end" font-family="Inter, system-ui, sans-serif" font-size="11" fill="#94a3b8">3328</text>
<line x1="52" y1="90.0" x2="872" y2="90.0" stroke="#f1f5f9"/>
<text x="44" y="94.0" text-anchor="end" font-family="Inter, system-ui, sans-serif" font-size="11" fill="#94a3b8">4437</text>
<polygon points="52.0,272.0 52.0,272.0 54.1,271.9 79.8,271.5 82.0,271.3 84.1,271.3 90.5,271.3 103.4,271.2 131.2,271.2 133.4,270.8 135.5,270.8 141.9,270.7 144.1,270.6 146.2,270.6 148.3,270.5 152.6,270.4 154.8,270.2 161.2,270.1 169.8,270.0 171.9,269.9 174.0,269.8 191.2,269.7 195.4,269.7 206.2,269.7 208.3,269.6 210.4,269.5 219.0,269.5 221.1,269.3 223.3,269.0 225.4,268.5 227.6,268.4 242.5,268.4 249.0,268.3 253.3,268.3 255.4,268.3 257.5,268.1 259.7,268.0 261.8,268.0 264.0,267.9 266.1,267.7 274.7,267.5 278.9,267.5 287.5,267.4 289.7,267.2 291.8,267.2 293.9,267.1 298.2,267.1 300.4,266.3 302.5,265.4 304.6,265.1 306.8,264.9 308.9,264.9 311.1,264.7 313.2,264.4 315.3,264.2 317.5,264.0 319.6,264.0 323.9,263.8 326.0,263.5 328.2,263.2 330.3,262.9 332.5,262.6 336.8,262.6 341.0,262.5 343.2,262.2 345.3,262.0 347.5,261.5 349.6,261.1 351.7,260.8 353.9,260.5 356.0,260.1 358.2,259.7 360.3,259.3 362.4,258.9 364.6,258.5 366.7,258.1 368.9,257.8 371.0,257.6 373.1,257.2 375.3,257.1 377.4,256.9 379.6,256.7 381.7,256.6 383.9,256.5 388.1,256.5 390.3,255.6 392.4,255.1 394.6,254.9 396.7,254.9 401.0,254.8 403.1,254.7 411.7,254.6 416.0,254.6 422.4,254.5 424.5,253.6 426.7,252.7 428.8,252.4 431.0,251.7 433.1,251.1 435.2,250.8 437.4,250.5 439.5,250.2 441.7,250.0 443.8,249.9 445.9,249.8 448.1,249.7 460.9,249.0 463.1,248.2 465.2,248.1 467.4,248.0 469.5,247.9 484.5,247.9 503.7,247.0 505.9,246.4 508.0,245.6 510.2,244.4 512.3,244.2 514.5,243.9 516.6,243.2 518.7,242.7 520.9,241.6 523.0,240.0 525.2,238.4 527.3,236.5 529.4,234.5 531.6,232.8 533.7,231.7 535.9,230.4 538.0,228.6 540.1,227.0 542.3,225.9 544.4,224.8 546.6,223.2 548.7,222.2 550.9,221.3 553.0,220.4 555.1,219.7 557.3,218.9 559.4,218.3 561.6,217.8 563.7,217.3 565.8,215.8 568.0,214.6 570.1,214.0 572.3,213.8 574.4,213.4 576.5,212.8 578.7,212.2 580.8,211.3 583.0,210.6 585.1,210.1 587.2,210.0 589.4,209.7 591.5,209.3 593.7,208.1 595.8,206.2 598.0,204.2 600.1,202.1 602.2,200.5 604.4,198.6 606.5,196.5 608.7,194.4 610.8,192.5 612.9,191.1 615.1,190.0 617.2,188.7 619.4,187.5 621.5,186.7 623.6,185.7 625.8,185.0 627.9,183.9 630.1,182.5 632.2,180.7 634.3,179.3 636.5,178.0 638.6,177.2 640.8,176.5 642.9,175.7 645.1,174.9 647.2,173.5 649.3,172.3 651.5,170.9 653.6,169.4 655.8,168.2 657.9,167.2 660.0,166.8 662.2,166.2 664.3,165.6 666.5,165.6 668.6,165.5 670.7,165.2 672.9,165.1 675.0,165.0 677.2,164.8 679.3,164.7 685.7,164.7 687.9,164.7 690.0,164.4 692.2,162.7 694.3,161.3 696.4,160.0 698.6,158.6 700.7,157.3 702.9,156.0 705.0,154.7 707.1,153.5 709.3,152.1 711.4,150.9 713.6,149.6 715.7,148.4 717.8,147.2 720.0,145.9 722.1,144.8 724.3,143.7 726.4,142.6 728.6,141.4 730.7,140.3 732.8,139.2 735.0,138.1 737.1,137.4 739.3,136.6 741.4,135.9 743.5,134.8 745.7,133.9 747.8,133.0 750.0,131.9 752.1,130.9 754.2,130.1 756.4,129.1 758.5,128.1 760.7,127.2 762.8,126.3 765.0,125.2 767.1,124.4 769.2,123.4 771.4,122.6 773.5,121.8 775.7,120.9 777.8,120.0 779.9,119.2 782.1,118.6 784.2,118.0 786.4,117.6 788.5,117.5 790.6,116.6 792.8,115.8 794.9,115.0 797.1,114.2 799.2,113.5 801.3,112.6 803.5,111.9 805.6,111.1 807.8,110.3 809.9,109.6 812.1,109.0 814.2,108.3 816.3,107.4 818.5,106.8 820.6,106.0 822.8,105.3 824.9,104.6 827.0,104.0 829.2,103.2 831.3,102.6 833.5,102.0 835.6,101.2 837.7,100.3 839.9,99.7 842.0,98.9 844.2,98.2 846.3,97.6 848.4,96.9 850.6,96.1 852.7,95.5 854.9,95.1 857.0,94.5 859.2,93.8 861.3,93.0 863.4,92.2 865.6,91.5 867.7,90.8 869.9,90.2 872.0,90.0 872.0,272.0" fill="#e0f2fe" opacity="0.55"/>
<polyline points="52.0,272.0 54.1,271.9 79.8,271.5 82.0,271.3 84.1,271.3 90.5,271.3 103.4,271.2 131.2,271.2 133.4,270.8 135.5,270.8 141.9,270.7 144.1,270.6 146.2,270.6 148.3,270.5 152.6,270.4 154.8,270.2 161.2,270.1 169.8,270.0 171.9,269.9 174.0,269.8 191.2,269.7 195.4,269.7 206.2,269.7 208.3,269.6 210.4,269.5 219.0,269.5 221.1,269.3 223.3,269.0 225.4,268.5 227.6,268.4 242.5,268.4 249.0,268.3 253.3,268.3 255.4,268.3 257.5,268.1 259.7,268.0 261.8,268.0 264.0,267.9 266.1,267.7 274.7,267.5 278.9,267.5 287.5,267.4 289.7,267.2 291.8,267.2 293.9,267.1 298.2,267.1 300.4,266.3 302.5,265.4 304.6,265.1 306.8,264.9 308.9,264.9 311.1,264.7 313.2,264.4 315.3,264.2 317.5,264.0 319.6,264.0 323.9,263.8 326.0,263.5 328.2,263.2 330.3,262.9 332.5,262.6 336.8,262.6 341.0,262.5 343.2,262.2 345.3,262.0 347.5,261.5 349.6,261.1 351.7,260.8 353.9,260.5 356.0,260.1 358.2,259.7 360.3,259.3 362.4,258.9 364.6,258.5 366.7,258.1 368.9,257.8 371.0,257.6 373.1,257.2 375.3,257.1 377.4,256.9 379.6,256.7 381.7,256.6 383.9,256.5 388.1,256.5 390.3,255.6 392.4,255.1 394.6,254.9 396.7,254.9 401.0,254.8 403.1,254.7 411.7,254.6 416.0,254.6 422.4,254.5 424.5,253.6 426.7,252.7 428.8,252.4 431.0,251.7 433.1,251.1 435.2,250.8 437.4,250.5 439.5,250.2 441.7,250.0 443.8,249.9 445.9,249.8 448.1,249.7 460.9,249.0 463.1,248.2 465.2,248.1 467.4,248.0 469.5,247.9 484.5,247.9 503.7,247.0 505.9,246.4 508.0,245.6 510.2,244.4 512.3,244.2 514.5,243.9 516.6,243.2 518.7,242.7 520.9,241.6 523.0,240.0 525.2,238.4 527.3,236.5 529.4,234.5 531.6,232.8 533.7,231.7 535.9,230.4 538.0,228.6 540.1,227.0 542.3,225.9 544.4,224.8 546.6,223.2 548.7,222.2 550.9,221.3 553.0,220.4 555.1,219.7 557.3,218.9 559.4,218.3 561.6,217.8 563.7,217.3 565.8,215.8 568.0,214.6 570.1,214.0 572.3,213.8 574.4,213.4 576.5,212.8 578.7,212.2 580.8,211.3 583.0,210.6 585.1,210.1 587.2,210.0 589.4,209.7 591.5,209.3 593.7,208.1 595.8,206.2 598.0,204.2 600.1,202.1 602.2,200.5 604.4,198.6 606.5,196.5 608.7,194.4 610.8,192.5 612.9,191.1 615.1,190.0 617.2,188.7 619.4,187.5 621.5,186.7 623.6,185.7 625.8,185.0 627.9,183.9 630.1,182.5 632.2,180.7 634.3,179.3 636.5,178.0 638.6,177.2 640.8,176.5 642.9,175.7 645.1,174.9 647.2,173.5 649.3,172.3 651.5,170.9 653.6,169.4 655.8,168.2 657.9,167.2 660.0,166.8 662.2,166.2 664.3,165.6 666.5,165.6 668.6,165.5 670.7,165.2 672.9,165.1 675.0,165.0 677.2,164.8 679.3,164.7 685.7,164.7 687.9,164.7 690.0,164.4 692.2,162.7 694.3,161.3 696.4,160.0 698.6,158.6 700.7,157.3 702.9,156.0 705.0,154.7 707.1,153.5 709.3,152.1 711.4,150.9 713.6,149.6 715.7,148.4 717.8,147.2 720.0,145.9 722.1,144.8 724.3,143.7 726.4,142.6 728.6,141.4 730.7,140.3 732.8,139.2 735.0,138.1 737.1,137.4 739.3,136.6 741.4,135.9 743.5,134.8 745.7,133.9 747.8,133.0 750.0,131.9 752.1,130.9 754.2,130.1 756.4,129.1 758.5,128.1 760.7,127.2 762.8,126.3 765.0,125.2 767.1,124.4 769.2,123.4 771.4,122.6 773.5,121.8 775.7,120.9 777.8,120.0 779.9,119.2 782.1,118.6 784.2,118.0 786.4,117.6 788.5,117.5 790.6,116.6 792.8,115.8 794.9,115.0 797.1,114.2 799.2,113.5 801.3,112.6 803.5,111.9 805.6,111.1 807.8,110.3 809.9,109.6 812.1,109.0 814.2,108.3 816.3,107.4 818.5,106.8 820.6,106.0 822.8,105.3 824.9,104.6 827.0,104.0 829.2,103.2 831.3,102.6 833.5,102.0 835.6,101.2 837.7,100.3 839.9,99.7 842.0,98.9 844.2,98.2 846.3,97.6 848.4,96.9 850.6,96.1 852.7,95.5 854.9,95.1 857.0,94.5 859.2,93.8 861.3,93.0 863.4,92.2 865.6,91.5 867.7,90.8 869.9,90.2 872.0,90.0" fill="none" stroke="#38bdf8" stroke-width="2.5" stroke-linejoin="round" stroke-linecap="round"/>
<circle cx="872.0" cy="90.0" r="4" fill="#0ea5e9"/>
<text x="866.0" y="80.0" text-anchor="end" font-family="Inter, system-ui, sans-serif" font-size="13" font-weight="700" fill="#334155">4437</text>
<text x="52.0" y="294" text-anchor="middle" font-family="Inter, system-ui, sans-serif" font-size="11" fill="#94a3b8">Jun 10 05:00</text>
<text x="568.0" y="294" text-anchor="middle" font-family="Inter, system-ui, sans-serif" font-size="11" fill="#94a3b8">Jun 20 06:00</text>
<text x="872.0" y="294" text-anchor="middle" font-family="Inter, system-ui, sans-serif" font-size="11" fill="#94a3b8">Jun 26 04:00</text>
</svg>
