<svg xmlns="http://www.w3.org/2000/svg" width="900" height="320" viewBox="0 0 900 320" role="img" aria-labelledby="title desc">
<title id="title">unsorry proofs over time</title>
<desc id="desc">Cumulative kernel-verified proofs over time, by the hour each proof was merged.</desc>
<rect width="900" height="100%" rx="18" fill="#ffffff"/>
<rect x="0.5" y="0.5" width="899" height="319" rx="18" fill="none" stroke="#e2e8f0"/>
<text x="32" y="44" font-family="Inter, system-ui, sans-serif" font-size="28" font-weight="700" fill="#334155">unsorry — Proofs Over Time</text>
<text x="32" y="72" font-family="Inter, system-ui, sans-serif" font-size="13" fill="#64748b">4025 cumulative kernel-verified proofs · merged, hourly</text>
<line x1="52" y1="272.0" x2="872" y2="272.0" stroke="#f1f5f9"/>
<text x="44" y="276.0" text-anchor="end" font-family="Inter, system-ui, sans-serif" font-size="11" fill="#94a3b8">0</text>
<line x1="52" y1="226.5" x2="872" y2="226.5" stroke="#f1f5f9"/>
<text x="44" y="230.5" text-anchor="end" font-family="Inter, system-ui, sans-serif" font-size="11" fill="#94a3b8">1006</text>
<line x1="52" y1="181.0" x2="872" y2="181.0" stroke="#f1f5f9"/>
<text x="44" y="185.0" text-anchor="end" font-family="Inter, system-ui, sans-serif" font-size="11" fill="#94a3b8">2012</text>
<line x1="52" y1="135.5" x2="872" y2="135.5" stroke="#f1f5f9"/>
<text x="44" y="139.5" text-anchor="end" font-family="Inter, system-ui, sans-serif" font-size="11" fill="#94a3b8">3019</text>
<line x1="52" y1="90.0" x2="872" y2="90.0" stroke="#f1f5f9"/>
<text x="44" y="94.0" text-anchor="end" font-family="Inter, system-ui, sans-serif" font-size="11" fill="#94a3b8">4025</text>
<polygon points="52.0,272.0 52.0,272.0 54.3,271.9 81.8,271.4 84.1,271.3 86.4,271.2 93.2,271.2 107.0,271.1 136.7,271.1 139.0,270.7 141.3,270.6 148.2,270.6 150.5,270.5 152.8,270.5 155.1,270.3 159.7,270.3 161.9,270.1 168.8,269.9 178.0,269.8 180.3,269.6 182.6,269.6 200.9,269.5 205.5,269.5 216.9,269.4 219.2,269.4 221.5,269.3 230.7,269.2 232.9,269.0 235.2,268.7 237.5,268.2 239.8,268.1 255.9,268.0 262.7,268.0 267.3,267.9 269.6,267.9 271.9,267.7 274.2,267.6 276.5,267.6 278.8,267.4 281.1,267.3 290.2,267.1 294.8,267.0 304.0,267.0 306.2,266.8 308.5,266.7 310.8,266.6 315.4,266.6 317.7,265.7 320.0,264.8 322.3,264.4 324.6,264.2 326.9,264.1 329.2,263.9 331.4,263.6 333.7,263.4 336.0,263.2 338.3,263.1 342.9,263.0 345.2,262.6 347.5,262.3 349.8,261.9 352.1,261.7 356.6,261.6 361.2,261.6 363.5,261.2 365.8,261.0 368.1,260.4 370.4,260.0 372.7,259.7 375.0,259.3 377.3,258.9 379.5,258.5 381.8,258.0 384.1,257.5 386.4,257.1 388.7,256.7 391.0,256.4 393.3,256.1 395.6,255.7 397.9,255.5 400.2,255.3 402.4,255.1 404.7,255.0 407.0,254.9 411.6,254.9 413.9,254.0 416.2,253.3 418.5,253.2 420.8,253.1 425.4,253.1 427.6,252.9 436.8,252.9 441.4,252.8 448.3,252.7 450.5,251.7 452.8,250.7 455.1,250.4 457.4,249.6 459.7,249.0 462.0,248.6 464.3,248.4 466.6,247.9 468.9,247.8 471.2,247.7 473.5,247.5 475.7,247.4 489.5,246.7 491.8,245.8 494.1,245.6 496.4,245.5 498.6,245.5 514.7,245.4 535.3,244.5 537.6,243.7 539.9,242.9 542.2,241.6 544.5,241.4 546.7,241.0 549.0,240.3 551.3,239.7 553.6,238.5 555.9,236.7 558.2,234.9 560.5,232.8 562.8,230.7 565.1,228.8 567.4,227.6 569.7,226.2 571.9,224.1 574.2,222.4 576.5,221.2 578.8,220.0 581.1,218.2 583.4,217.2 585.7,216.1 588.0,215.1 590.3,214.4 592.6,213.4 594.8,212.9 597.1,212.2 599.4,211.7 601.7,210.1 604.0,208.7 606.3,208.0 608.6,207.8 610.9,207.4 613.2,206.7 615.5,206.1 617.8,205.0 620.0,204.4 622.3,203.7 624.6,203.6 626.9,203.4 629.2,202.9 631.5,201.6 633.8,199.4 636.1,197.2 638.4,195.0 640.7,193.2 642.9,191.1 645.2,188.8 647.5,186.5 649.8,184.4 652.1,182.8 654.4,181.6 656.7,180.2 659.0,178.9 661.3,177.9 663.6,176.9 665.9,176.0 668.1,174.9 670.4,173.3 672.7,171.4 675.0,169.8 677.3,168.4 679.6,167.5 681.9,166.7 684.2,165.9 686.5,165.0 688.8,163.4 691.1,162.1 693.3,160.5 695.6,158.9 697.9,157.6 700.2,156.5 702.5,156.0 704.8,155.4 707.1,154.8 709.4,154.7 711.7,154.6 714.0,154.3 716.2,154.1 718.5,154.1 720.8,153.8 723.1,153.8 730.0,153.7 732.3,153.7 734.6,153.4 736.9,151.5 739.2,150.0 741.4,148.6 743.7,147.0 746.0,145.6 748.3,144.2 750.6,142.7 752.9,141.3 755.2,139.8 757.5,138.5 759.8,137.1 762.1,135.7 764.3,134.4 766.6,133.0 768.9,131.7 771.2,130.6 773.5,129.3 775.8,128.1 778.1,126.8 780.4,125.6 782.7,124.4 785.0,123.6 787.3,122.8 789.5,122.0 791.8,120.8 794.1,119.8 796.4,118.8 798.7,117.5 801.0,116.5 803.3,115.5 805.6,114.5 807.9,113.4 810.2,112.3 812.4,111.3 814.7,110.2 817.0,109.3 819.3,108.2 821.6,107.3 823.9,106.5 826.2,105.4 828.5,104.5 830.8,103.6 833.1,102.9 835.4,102.2 837.6,101.8 839.9,101.7 842.2,100.7 844.5,99.9 846.8,99.0 849.1,98.0 851.4,97.2 853.7,96.3 856.0,95.5 858.3,94.6 860.5,93.8 862.8,93.0 865.1,92.3 867.4,91.5 869.7,90.6 872.0,90.0 872.0,272.0" fill="#e0f2fe" opacity="0.55"/>
<polyline points="52.0,272.0 54.3,271.9 81.8,271.4 84.1,271.3 86.4,271.2 93.2,271.2 107.0,271.1 136.7,271.1 139.0,270.7 141.3,270.6 148.2,270.6 150.5,270.5 152.8,270.5 155.1,270.3 159.7,270.3 161.9,270.1 168.8,269.9 178.0,269.8 180.3,269.6 182.6,269.6 200.9,269.5 205.5,269.5 216.9,269.4 219.2,269.4 221.5,269.3 230.7,269.2 232.9,269.0 235.2,268.7 237.5,268.2 239.8,268.1 255.9,268.0 262.7,268.0 267.3,267.9 269.6,267.9 271.9,267.7 274.2,267.6 276.5,267.6 278.8,267.4 281.1,267.3 290.2,267.1 294.8,267.0 304.0,267.0 306.2,266.8 308.5,266.7 310.8,266.6 315.4,266.6 317.7,265.7 320.0,264.8 322.3,264.4 324.6,264.2 326.9,264.1 329.2,263.9 331.4,263.6 333.7,263.4 336.0,263.2 338.3,263.1 342.9,263.0 345.2,262.6 347.5,262.3 349.8,261.9 352.1,261.7 356.6,261.6 361.2,261.6 363.5,261.2 365.8,261.0 368.1,260.4 370.4,260.0 372.7,259.7 375.0,259.3 377.3,258.9 379.5,258.5 381.8,258.0 384.1,257.5 386.4,257.1 388.7,256.7 391.0,256.4 393.3,256.1 395.6,255.7 397.9,255.5 400.2,255.3 402.4,255.1 404.7,255.0 407.0,254.9 411.6,254.9 413.9,254.0 416.2,253.3 418.5,253.2 420.8,253.1 425.4,253.1 427.6,252.9 436.8,252.9 441.4,252.8 448.3,252.7 450.5,251.7 452.8,250.7 455.1,250.4 457.4,249.6 459.7,249.0 462.0,248.6 464.3,248.4 466.6,247.9 468.9,247.8 471.2,247.7 473.5,247.5 475.7,247.4 489.5,246.7 491.8,245.8 494.1,245.6 496.4,245.5 498.6,245.5 514.7,245.4 535.3,244.5 537.6,243.7 539.9,242.9 542.2,241.6 544.5,241.4 546.7,241.0 549.0,240.3 551.3,239.7 553.6,238.5 555.9,236.7 558.2,234.9 560.5,232.8 562.8,230.7 565.1,228.8 567.4,227.6 569.7,226.2 571.9,224.1 574.2,222.4 576.5,221.2 578.8,220.0 581.1,218.2 583.4,217.2 585.7,216.1 588.0,215.1 590.3,214.4 592.6,213.4 594.8,212.9 597.1,212.2 599.4,211.7 601.7,210.1 604.0,208.7 606.3,208.0 608.6,207.8 610.9,207.4 613.2,206.7 615.5,206.1 617.8,205.0 620.0,204.4 622.3,203.7 624.6,203.6 626.9,203.4 629.2,202.9 631.5,201.6 633.8,199.4 636.1,197.2 638.4,195.0 640.7,193.2 642.9,191.1 645.2,188.8 647.5,186.5 649.8,184.4 652.1,182.8 654.4,181.6 656.7,180.2 659.0,178.9 661.3,177.9 663.6,176.9 665.9,176.0 668.1,174.9 670.4,173.3 672.7,171.4 675.0,169.8 677.3,168.4 679.6,167.5 681.9,166.7 684.2,165.9 686.5,165.0 688.8,163.4 691.1,162.1 693.3,160.5 695.6,158.9 697.9,157.6 700.2,156.5 702.5,156.0 704.8,155.4 707.1,154.8 709.4,154.7 711.7,154.6 714.0,154.3 716.2,154.1 718.5,154.1 720.8,153.8 723.1,153.8 730.0,153.7 732.3,153.7 734.6,153.4 736.9,151.5 739.2,150.0 741.4,148.6 743.7,147.0 746.0,145.6 748.3,144.2 750.6,142.7 752.9,141.3 755.2,139.8 757.5,138.5 759.8,137.1 762.1,135.7 764.3,134.4 766.6,133.0 768.9,131.7 771.2,130.6 773.5,129.3 775.8,128.1 778.1,126.8 780.4,125.6 782.7,124.4 785.0,123.6 787.3,122.8 789.5,122.0 791.8,120.8 794.1,119.8 796.4,118.8 798.7,117.5 801.0,116.5 803.3,115.5 805.6,114.5 807.9,113.4 810.2,112.3 812.4,111.3 814.7,110.2 817.0,109.3 819.3,108.2 821.6,107.3 823.9,106.5 826.2,105.4 828.5,104.5 830.8,103.6 833.1,102.9 835.4,102.2 837.6,101.8 839.9,101.7 842.2,100.7 844.5,99.9 846.8,99.0 849.1,98.0 851.4,97.2 853.7,96.3 856.0,95.5 858.3,94.6 860.5,93.8 862.8,93.0 865.1,92.3 867.4,91.5 869.7,90.6 872.0,90.0" fill="none" stroke="#38bdf8" stroke-width="2.5" stroke-linejoin="round" stroke-linecap="round"/>
<circle cx="872.0" cy="90.0" r="4" fill="#0ea5e9"/>
<text x="866.0" y="80.0" text-anchor="end" font-family="Inter, system-ui, sans-serif" font-size="13" font-weight="700" fill="#334155">4025</text>
<text x="52.0" y="294" text-anchor="middle" font-family="Inter, system-ui, sans-serif" font-size="11" fill="#94a3b8">Jun 10 05:00</text>
<text x="574.2" y="294" text-anchor="middle" font-family="Inter, system-ui, sans-serif" font-size="11" fill="#94a3b8">Jun 19 17:00</text>
<text x="872.0" y="294" text-anchor="middle" font-family="Inter, system-ui, sans-serif" font-size="11" fill="#94a3b8">Jun 25 03:00</text>
</svg>
