<svg xmlns="http://www.w3.org/2000/svg" width="900" height="320" viewBox="0 0 900 320" role="img" aria-labelledby="title desc">
<title id="title">unsorry proofs over time</title>
<desc id="desc">Cumulative kernel-verified proofs over time, by the hour each proof was merged.</desc>
<rect width="900" height="100%" rx="18" fill="#ffffff"/>
<rect x="0.5" y="0.5" width="899" height="319" rx="18" fill="none" stroke="#e2e8f0"/>
<text x="32" y="44" font-family="Inter, system-ui, sans-serif" font-size="28" font-weight="700" fill="#334155">unsorry — Proofs Over Time</text>
<text x="32" y="72" font-family="Inter, system-ui, sans-serif" font-size="13" fill="#64748b">4412 cumulative kernel-verified proofs · merged, hourly</text>
<line x1="52" y1="272.0" x2="872" y2="272.0" stroke="#f1f5f9"/>
<text x="44" y="276.0" text-anchor="end" font-family="Inter, system-ui, sans-serif" font-size="11" fill="#94a3b8">0</text>
<line x1="52" y1="226.5" x2="872" y2="226.5" stroke="#f1f5f9"/>
<text x="44" y="230.5" text-anchor="end" font-family="Inter, system-ui, sans-serif" font-size="11" fill="#94a3b8">1103</text>
<line x1="52" y1="181.0" x2="872" y2="181.0" stroke="#f1f5f9"/>
<text x="44" y="185.0" text-anchor="end" font-family="Inter, system-ui, sans-serif" font-size="11" fill="#94a3b8">2206</text>
<line x1="52" y1="135.5" x2="872" y2="135.5" stroke="#f1f5f9"/>
<text x="44" y="139.5" text-anchor="end" font-family="Inter, system-ui, sans-serif" font-size="11" fill="#94a3b8">3309</text>
<line x1="52" y1="90.0" x2="872" y2="90.0" stroke="#f1f5f9"/>
<text x="44" y="94.0" text-anchor="end" font-family="Inter, system-ui, sans-serif" font-size="11" fill="#94a3b8">4412</text>
<polygon points="52.0,272.0 52.0,272.0 54.2,271.9 80.0,271.5 82.1,271.3 84.3,271.3 90.7,271.3 103.7,271.2 131.6,271.2 133.8,270.8 135.9,270.8 142.4,270.7 144.5,270.6 146.7,270.6 148.9,270.5 153.2,270.4 155.3,270.2 161.8,270.1 170.4,270.0 172.5,269.9 174.7,269.8 191.9,269.7 196.2,269.7 207.0,269.6 209.1,269.6 211.3,269.5 219.9,269.5 222.0,269.2 224.2,269.0 226.3,268.5 228.5,268.4 243.5,268.4 250.0,268.3 254.3,268.3 256.5,268.2 258.6,268.0 260.8,268.0 262.9,268.0 265.1,267.8 267.2,267.7 275.8,267.5 280.1,267.5 288.7,267.4 290.9,267.2 293.0,267.2 295.2,267.1 299.5,267.0 301.7,266.2 303.8,265.4 306.0,265.1 308.1,264.9 310.3,264.8 312.4,264.6 314.6,264.3 316.7,264.1 318.9,264.0 321.0,263.9 325.3,263.8 327.5,263.5 329.6,263.1 331.8,262.8 333.9,262.6 338.2,262.5 342.6,262.5 344.7,262.2 346.9,262.0 349.0,261.4 351.2,261.1 353.3,260.7 355.5,260.4 357.6,260.0 359.8,259.7 361.9,259.3 364.1,258.8 366.2,258.4 368.4,258.0 370.5,257.8 372.7,257.5 374.8,257.1 377.0,257.0 379.1,256.8 381.3,256.6 383.4,256.5 385.6,256.4 389.9,256.4 392.1,255.5 394.2,255.0 396.4,254.8 398.5,254.8 402.8,254.7 405.0,254.6 413.6,254.6 417.9,254.5 424.3,254.4 426.5,253.5 428.6,252.6 430.8,252.3 432.9,251.6 435.1,251.0 437.2,250.6 439.4,250.4 441.6,250.1 443.7,249.9 445.9,249.8 448.0,249.6 450.2,249.6 463.1,248.9 465.2,248.1 467.4,248.0 469.5,247.8 471.7,247.8 486.8,247.7 506.1,246.9 508.3,246.2 510.4,245.4 512.6,244.3 514.7,244.1 516.9,243.7 519.0,243.0 521.2,242.5 523.3,241.4 525.5,239.8 527.6,238.2 529.8,236.3 531.9,234.3 534.1,232.6 536.3,231.5 538.4,230.2 540.6,228.3 542.7,226.7 544.9,225.6 547.0,224.5 549.2,223.0 551.3,222.0 553.5,221.0 555.6,220.1 557.8,219.4 559.9,218.6 562.1,218.0 564.2,217.5 566.4,217.0 568.5,215.5 570.7,214.3 572.8,213.6 575.0,213.4 577.1,213.1 579.3,212.4 581.4,211.9 583.6,210.9 585.8,210.3 587.9,209.7 590.1,209.6 592.2,209.4 594.4,208.9 596.5,207.7 598.7,205.8 600.8,203.8 603.0,201.7 605.1,200.1 607.3,198.2 609.4,196.1 611.6,194.0 613.7,192.1 615.9,190.7 618.0,189.5 620.2,188.3 622.3,187.0 624.5,186.2 626.6,185.2 628.8,184.5 631.0,183.4 633.1,181.9 635.3,180.2 637.4,178.8 639.6,177.5 641.7,176.7 643.9,175.9 646.0,175.2 648.2,174.4 650.3,173.0 652.5,171.8 654.6,170.3 656.8,168.8 658.9,167.6 661.1,166.6 663.2,166.2 665.4,165.6 667.5,165.0 669.7,165.0 671.8,164.9 674.0,164.6 676.1,164.5 678.3,164.4 680.5,164.2 682.6,164.1 689.1,164.1 691.2,164.0 693.4,163.8 695.5,162.1 697.7,160.7 699.8,159.4 702.0,157.9 704.1,156.7 706.3,155.4 708.4,154.0 710.6,152.8 712.7,151.4 714.9,150.2 717.0,148.9 719.2,147.7 721.3,146.5 723.5,145.2 725.6,144.0 727.8,143.0 730.0,141.9 732.1,140.7 734.3,139.5 736.4,138.5 738.6,137.4 740.7,136.6 742.9,135.9 745.0,135.1 747.2,134.1 749.3,133.1 751.5,132.2 753.6,131.1 755.8,130.1 757.9,129.3 760.1,128.3 762.2,127.3 764.4,126.3 766.5,125.4 768.7,124.4 770.8,123.5 773.0,122.5 775.1,121.8 777.3,121.0 779.5,120.0 781.6,119.2 783.8,118.4 785.9,117.7 788.1,117.1 790.2,116.7 792.4,116.6 794.5,115.7 796.7,115.0 798.8,114.1 801.0,113.3 803.1,112.6 805.3,111.7 807.4,111.0 809.6,110.2 811.7,109.4 813.9,108.7 816.0,108.0 818.2,107.3 820.3,106.5 822.5,105.8 824.7,105.1 826.8,104.4 829.0,103.7 831.1,103.0 833.3,102.2 835.4,101.6 837.6,101.1 839.7,100.2 841.9,99.4 844.0,98.7 846.2,97.9 848.3,97.2 850.5,96.6 852.6,95.9 854.8,95.1 856.9,94.5 859.1,94.1 861.2,93.5 863.4,92.8 865.5,92.0 867.7,91.2 869.8,90.5 872.0,90.0 872.0,272.0" fill="#e0f2fe" opacity="0.55"/>
<polyline points="52.0,272.0 54.2,271.9 80.0,271.5 82.1,271.3 84.3,271.3 90.7,271.3 103.7,271.2 131.6,271.2 133.8,270.8 135.9,270.8 142.4,270.7 144.5,270.6 146.7,270.6 148.9,270.5 153.2,270.4 155.3,270.2 161.8,270.1 170.4,270.0 172.5,269.9 174.7,269.8 191.9,269.7 196.2,269.7 207.0,269.6 209.1,269.6 211.3,269.5 219.9,269.5 222.0,269.2 224.2,269.0 226.3,268.5 228.5,268.4 243.5,268.4 250.0,268.3 254.3,268.3 256.5,268.2 258.6,268.0 260.8,268.0 262.9,268.0 265.1,267.8 267.2,267.7 275.8,267.5 280.1,267.5 288.7,267.4 290.9,267.2 293.0,267.2 295.2,267.1 299.5,267.0 301.7,266.2 303.8,265.4 306.0,265.1 308.1,264.9 310.3,264.8 312.4,264.6 314.6,264.3 316.7,264.1 318.9,264.0 321.0,263.9 325.3,263.8 327.5,263.5 329.6,263.1 331.8,262.8 333.9,262.6 338.2,262.5 342.6,262.5 344.7,262.2 346.9,262.0 349.0,261.4 351.2,261.1 353.3,260.7 355.5,260.4 357.6,260.0 359.8,259.7 361.9,259.3 364.1,258.8 366.2,258.4 368.4,258.0 370.5,257.8 372.7,257.5 374.8,257.1 377.0,257.0 379.1,256.8 381.3,256.6 383.4,256.5 385.6,256.4 389.9,256.4 392.1,255.5 394.2,255.0 396.4,254.8 398.5,254.8 402.8,254.7 405.0,254.6 413.6,254.6 417.9,254.5 424.3,254.4 426.5,253.5 428.6,252.6 430.8,252.3 432.9,251.6 435.1,251.0 437.2,250.6 439.4,250.4 441.6,250.1 443.7,249.9 445.9,249.8 448.0,249.6 450.2,249.6 463.1,248.9 465.2,248.1 467.4,248.0 469.5,247.8 471.7,247.8 486.8,247.7 506.1,246.9 508.3,246.2 510.4,245.4 512.6,244.3 514.7,244.1 516.9,243.7 519.0,243.0 521.2,242.5 523.3,241.4 525.5,239.8 527.6,238.2 529.8,236.3 531.9,234.3 534.1,232.6 536.3,231.5 538.4,230.2 540.6,228.3 542.7,226.7 544.9,225.6 547.0,224.5 549.2,223.0 551.3,222.0 553.5,221.0 555.6,220.1 557.8,219.4 559.9,218.6 562.1,218.0 564.2,217.5 566.4,217.0 568.5,215.5 570.7,214.3 572.8,213.6 575.0,213.4 577.1,213.1 579.3,212.4 581.4,211.9 583.6,210.9 585.8,210.3 587.9,209.7 590.1,209.6 592.2,209.4 594.4,208.9 596.5,207.7 598.7,205.8 600.8,203.8 603.0,201.7 605.1,200.1 607.3,198.2 609.4,196.1 611.6,194.0 613.7,192.1 615.9,190.7 618.0,189.5 620.2,188.3 622.3,187.0 624.5,186.2 626.6,185.2 628.8,184.5 631.0,183.4 633.1,181.9 635.3,180.2 637.4,178.8 639.6,177.5 641.7,176.7 643.9,175.9 646.0,175.2 648.2,174.4 650.3,173.0 652.5,171.8 654.6,170.3 656.8,168.8 658.9,167.6 661.1,166.6 663.2,166.2 665.4,165.6 667.5,165.0 669.7,165.0 671.8,164.9 674.0,164.6 676.1,164.5 678.3,164.4 680.5,164.2 682.6,164.1 689.1,164.1 691.2,164.0 693.4,163.8 695.5,162.1 697.7,160.7 699.8,159.4 702.0,157.9 704.1,156.7 706.3,155.4 708.4,154.0 710.6,152.8 712.7,151.4 714.9,150.2 717.0,148.9 719.2,147.7 721.3,146.5 723.5,145.2 725.6,144.0 727.8,143.0 730.0,141.9 732.1,140.7 734.3,139.5 736.4,138.5 738.6,137.4 740.7,136.6 742.9,135.9 745.0,135.1 747.2,134.1 749.3,133.1 751.5,132.2 753.6,131.1 755.8,130.1 757.9,129.3 760.1,128.3 762.2,127.3 764.4,126.3 766.5,125.4 768.7,124.4 770.8,123.5 773.0,122.5 775.1,121.8 777.3,121.0 779.5,120.0 781.6,119.2 783.8,118.4 785.9,117.7 788.1,117.1 790.2,116.7 792.4,116.6 794.5,115.7 796.7,115.0 798.8,114.1 801.0,113.3 803.1,112.6 805.3,111.7 807.4,111.0 809.6,110.2 811.7,109.4 813.9,108.7 816.0,108.0 818.2,107.3 820.3,106.5 822.5,105.8 824.7,105.1 826.8,104.4 829.0,103.7 831.1,103.0 833.3,102.2 835.4,101.6 837.6,101.1 839.7,100.2 841.9,99.4 844.0,98.7 846.2,97.9 848.3,97.2 850.5,96.6 852.6,95.9 854.8,95.1 856.9,94.5 859.1,94.1 861.2,93.5 863.4,92.8 865.5,92.0 867.7,91.2 869.8,90.5 872.0,90.0" fill="none" stroke="#38bdf8" stroke-width="2.5" stroke-linejoin="round" stroke-linecap="round"/>
<circle cx="872.0" cy="90.0" r="4" fill="#0ea5e9"/>
<text x="866.0" y="80.0" text-anchor="end" font-family="Inter, system-ui, sans-serif" font-size="13" font-weight="700" fill="#334155">4412</text>
<text x="52.0" y="294" text-anchor="middle" font-family="Inter, system-ui, sans-serif" font-size="11" fill="#94a3b8">Jun 10 05:00</text>
<text x="568.5" y="294" text-anchor="middle" font-family="Inter, system-ui, sans-serif" font-size="11" fill="#94a3b8">Jun 20 05:00</text>
<text x="872.0" y="294" text-anchor="middle" font-family="Inter, system-ui, sans-serif" font-size="11" fill="#94a3b8">Jun 26 02:00</text>
</svg>
