<svg xmlns="http://www.w3.org/2000/svg" width="900" height="320" viewBox="0 0 900 320" role="img" aria-labelledby="title desc">
<title id="title">unsorry proofs over time</title>
<desc id="desc">Cumulative kernel-verified proofs over time, by the hour each proof was merged.</desc>
<rect width="900" height="100%" rx="18" fill="#ffffff"/>
<rect x="0.5" y="0.5" width="899" height="319" rx="18" fill="none" stroke="#e2e8f0"/>
<text x="32" y="44" font-family="Inter, system-ui, sans-serif" font-size="28" font-weight="700" fill="#334155">unsorry — Proofs Over Time</text>
<text x="32" y="72" font-family="Inter, system-ui, sans-serif" font-size="13" fill="#64748b">4395 cumulative kernel-verified proofs · merged, hourly</text>
<line x1="52" y1="272.0" x2="872" y2="272.0" stroke="#f1f5f9"/>
<text x="44" y="276.0" text-anchor="end" font-family="Inter, system-ui, sans-serif" font-size="11" fill="#94a3b8">0</text>
<line x1="52" y1="226.5" x2="872" y2="226.5" stroke="#f1f5f9"/>
<text x="44" y="230.5" text-anchor="end" font-family="Inter, system-ui, sans-serif" font-size="11" fill="#94a3b8">1099</text>
<line x1="52" y1="181.0" x2="872" y2="181.0" stroke="#f1f5f9"/>
<text x="44" y="185.0" text-anchor="end" font-family="Inter, system-ui, sans-serif" font-size="11" fill="#94a3b8">2198</text>
<line x1="52" y1="135.5" x2="872" y2="135.5" stroke="#f1f5f9"/>
<text x="44" y="139.5" text-anchor="end" font-family="Inter, system-ui, sans-serif" font-size="11" fill="#94a3b8">3296</text>
<line x1="52" y1="90.0" x2="872" y2="90.0" stroke="#f1f5f9"/>
<text x="44" y="94.0" text-anchor="end" font-family="Inter, system-ui, sans-serif" font-size="11" fill="#94a3b8">4395</text>
<polygon points="52.0,272.0 52.0,272.0 54.2,271.9 80.1,271.5 82.2,271.3 84.4,271.3 90.8,271.3 103.8,271.2 131.8,271.2 134.0,270.8 136.2,270.8 142.6,270.7 144.8,270.6 146.9,270.6 149.1,270.5 153.4,270.4 155.6,270.2 162.1,270.1 170.7,270.0 172.8,269.8 175.0,269.8 192.3,269.7 196.6,269.7 207.4,269.6 209.5,269.6 211.7,269.5 220.3,269.5 222.5,269.2 224.6,269.0 226.8,268.5 228.9,268.4 244.1,268.4 250.5,268.3 254.8,268.3 257.0,268.2 259.2,268.0 261.3,268.0 263.5,267.9 265.6,267.8 267.8,267.7 276.4,267.5 280.7,267.4 289.4,267.4 291.5,267.2 293.7,267.2 295.8,267.1 300.2,267.0 302.3,266.2 304.5,265.4 306.6,265.1 308.8,264.9 310.9,264.8 313.1,264.6 315.3,264.3 317.4,264.1 319.6,264.0 321.7,263.9 326.1,263.8 328.2,263.4 330.4,263.1 332.5,262.8 334.7,262.6 339.0,262.5 343.3,262.4 345.5,262.1 347.6,261.9 349.8,261.4 351.9,261.0 354.1,260.7 356.3,260.4 358.4,260.0 360.6,259.6 362.7,259.2 364.9,258.7 367.1,258.3 369.2,258.0 371.4,257.7 373.5,257.4 375.7,257.1 377.8,256.9 380.0,256.7 382.2,256.5 384.3,256.4 386.5,256.3 390.8,256.3 392.9,255.5 395.1,254.9 397.3,254.8 399.4,254.7 403.7,254.6 405.9,254.5 414.5,254.5 418.8,254.4 425.3,254.4 427.5,253.4 429.6,252.5 431.8,252.2 433.9,251.5 436.1,250.9 438.3,250.5 440.4,250.3 442.6,250.0 444.7,249.8 446.9,249.7 449.1,249.6 451.2,249.5 464.2,248.8 466.3,248.0 468.5,247.9 470.6,247.7 472.8,247.7 487.9,247.7 507.3,246.8 509.5,246.1 511.6,245.3 513.8,244.2 515.9,244.0 518.1,243.6 520.3,242.9 522.4,242.4 524.6,241.3 526.7,239.7 528.9,238.0 531.1,236.1 533.2,234.2 535.4,232.4 537.5,231.3 539.7,230.1 541.8,228.1 544.0,226.5 546.2,225.5 548.3,224.3 550.5,222.8 552.6,221.8 554.8,220.8 556.9,219.9 559.1,219.2 561.3,218.4 563.4,217.8 565.6,217.3 567.7,216.8 569.9,215.3 572.1,214.1 574.2,213.4 576.4,213.2 578.5,212.8 580.7,212.2 582.8,211.7 585.0,210.7 587.2,210.0 589.3,209.5 591.5,209.4 593.6,209.1 595.8,208.7 597.9,207.5 600.1,205.5 602.3,203.5 604.4,201.5 606.6,199.8 608.7,197.9 610.9,195.8 613.1,193.7 615.2,191.7 617.4,190.3 619.5,189.2 621.7,187.9 623.8,186.7 626.0,185.9 628.2,184.9 630.3,184.1 632.5,183.0 634.6,181.6 636.8,179.9 638.9,178.4 641.1,177.1 643.3,176.3 645.4,175.6 647.6,174.8 649.7,174.0 651.9,172.6 654.1,171.4 656.2,169.9 658.4,168.4 660.5,167.2 662.7,166.2 664.8,165.8 667.0,165.2 669.2,164.6 671.3,164.5 673.5,164.5 675.6,164.2 677.8,164.0 679.9,164.0 682.1,163.8 684.3,163.7 690.7,163.7 692.9,163.6 695.1,163.4 697.2,161.7 699.4,160.2 701.5,158.9 703.7,157.5 705.8,156.2 708.0,154.9 710.2,153.6 712.3,152.3 714.5,151.0 716.6,149.7 718.8,148.4 720.9,147.2 723.1,146.0 725.3,144.7 727.4,143.5 729.6,142.5 731.7,141.3 733.9,140.2 736.1,139.0 738.2,138.0 740.4,136.8 742.5,136.1 744.7,135.3 746.8,134.6 749.0,133.5 751.2,132.6 753.3,131.7 755.5,130.5 757.6,129.6 759.8,128.7 761.9,127.7 764.1,126.7 766.3,125.8 768.4,124.9 770.6,123.8 772.7,123.0 774.9,122.0 777.1,121.2 779.2,120.4 781.4,119.4 783.5,118.6 785.7,117.8 787.8,117.1 790.0,116.5 792.2,116.1 794.3,116.0 796.5,115.1 798.6,114.3 800.8,113.5 802.9,112.7 805.1,111.9 807.3,111.1 809.4,110.3 811.6,109.5 813.7,108.8 815.9,108.1 818.1,107.4 820.2,106.7 822.4,105.9 824.5,105.2 826.7,104.5 828.8,103.7 831.0,103.0 833.2,102.4 835.3,101.6 837.5,101.0 839.6,100.4 841.8,99.5 843.9,98.7 846.1,98.0 848.3,97.2 850.4,96.5 852.6,95.9 854.7,95.3 856.9,94.4 859.1,93.9 861.2,93.4 863.4,92.8 865.5,92.1 867.7,91.3 869.8,90.5 872.0,90.0 872.0,272.0" fill="#e0f2fe" opacity="0.55"/>
<polyline points="52.0,272.0 54.2,271.9 80.1,271.5 82.2,271.3 84.4,271.3 90.8,271.3 103.8,271.2 131.8,271.2 134.0,270.8 136.2,270.8 142.6,270.7 144.8,270.6 146.9,270.6 149.1,270.5 153.4,270.4 155.6,270.2 162.1,270.1 170.7,270.0 172.8,269.8 175.0,269.8 192.3,269.7 196.6,269.7 207.4,269.6 209.5,269.6 211.7,269.5 220.3,269.5 222.5,269.2 224.6,269.0 226.8,268.5 228.9,268.4 244.1,268.4 250.5,268.3 254.8,268.3 257.0,268.2 259.2,268.0 261.3,268.0 263.5,267.9 265.6,267.8 267.8,267.7 276.4,267.5 280.7,267.4 289.4,267.4 291.5,267.2 293.7,267.2 295.8,267.1 300.2,267.0 302.3,266.2 304.5,265.4 306.6,265.1 308.8,264.9 310.9,264.8 313.1,264.6 315.3,264.3 317.4,264.1 319.6,264.0 321.7,263.9 326.1,263.8 328.2,263.4 330.4,263.1 332.5,262.8 334.7,262.6 339.0,262.5 343.3,262.4 345.5,262.1 347.6,261.9 349.8,261.4 351.9,261.0 354.1,260.7 356.3,260.4 358.4,260.0 360.6,259.6 362.7,259.2 364.9,258.7 367.1,258.3 369.2,258.0 371.4,257.7 373.5,257.4 375.7,257.1 377.8,256.9 380.0,256.7 382.2,256.5 384.3,256.4 386.5,256.3 390.8,256.3 392.9,255.5 395.1,254.9 397.3,254.8 399.4,254.7 403.7,254.6 405.9,254.5 414.5,254.5 418.8,254.4 425.3,254.4 427.5,253.4 429.6,252.5 431.8,252.2 433.9,251.5 436.1,250.9 438.3,250.5 440.4,250.3 442.6,250.0 444.7,249.8 446.9,249.7 449.1,249.6 451.2,249.5 464.2,248.8 466.3,248.0 468.5,247.9 470.6,247.7 472.8,247.7 487.9,247.7 507.3,246.8 509.5,246.1 511.6,245.3 513.8,244.2 515.9,244.0 518.1,243.6 520.3,242.9 522.4,242.4 524.6,241.3 526.7,239.7 528.9,238.0 531.1,236.1 533.2,234.2 535.4,232.4 537.5,231.3 539.7,230.1 541.8,228.1 544.0,226.5 546.2,225.5 548.3,224.3 550.5,222.8 552.6,221.8 554.8,220.8 556.9,219.9 559.1,219.2 561.3,218.4 563.4,217.8 565.6,217.3 567.7,216.8 569.9,215.3 572.1,214.1 574.2,213.4 576.4,213.2 578.5,212.8 580.7,212.2 582.8,211.7 585.0,210.7 587.2,210.0 589.3,209.5 591.5,209.4 593.6,209.1 595.8,208.7 597.9,207.5 600.1,205.5 602.3,203.5 604.4,201.5 606.6,199.8 608.7,197.9 610.9,195.8 613.1,193.7 615.2,191.7 617.4,190.3 619.5,189.2 621.7,187.9 623.8,186.7 626.0,185.9 628.2,184.9 630.3,184.1 632.5,183.0 634.6,181.6 636.8,179.9 638.9,178.4 641.1,177.1 643.3,176.3 645.4,175.6 647.6,174.8 649.7,174.0 651.9,172.6 654.1,171.4 656.2,169.9 658.4,168.4 660.5,167.2 662.7,166.2 664.8,165.8 667.0,165.2 669.2,164.6 671.3,164.5 673.5,164.5 675.6,164.2 677.8,164.0 679.9,164.0 682.1,163.8 684.3,163.7 690.7,163.7 692.9,163.6 695.1,163.4 697.2,161.7 699.4,160.2 701.5,158.9 703.7,157.5 705.8,156.2 708.0,154.9 710.2,153.6 712.3,152.3 714.5,151.0 716.6,149.7 718.8,148.4 720.9,147.2 723.1,146.0 725.3,144.7 727.4,143.5 729.6,142.5 731.7,141.3 733.9,140.2 736.1,139.0 738.2,138.0 740.4,136.8 742.5,136.1 744.7,135.3 746.8,134.6 749.0,133.5 751.2,132.6 753.3,131.7 755.5,130.5 757.6,129.6 759.8,128.7 761.9,127.7 764.1,126.7 766.3,125.8 768.4,124.9 770.6,123.8 772.7,123.0 774.9,122.0 777.1,121.2 779.2,120.4 781.4,119.4 783.5,118.6 785.7,117.8 787.8,117.1 790.0,116.5 792.2,116.1 794.3,116.0 796.5,115.1 798.6,114.3 800.8,113.5 802.9,112.7 805.1,111.9 807.3,111.1 809.4,110.3 811.6,109.5 813.7,108.8 815.9,108.1 818.1,107.4 820.2,106.7 822.4,105.9 824.5,105.2 826.7,104.5 828.8,103.7 831.0,103.0 833.2,102.4 835.3,101.6 837.5,101.0 839.6,100.4 841.8,99.5 843.9,98.7 846.1,98.0 848.3,97.2 850.4,96.5 852.6,95.9 854.7,95.3 856.9,94.4 859.1,93.9 861.2,93.4 863.4,92.8 865.5,92.1 867.7,91.3 869.8,90.5 872.0,90.0" fill="none" stroke="#38bdf8" stroke-width="2.5" stroke-linejoin="round" stroke-linecap="round"/>
<circle cx="872.0" cy="90.0" r="4" fill="#0ea5e9"/>
<text x="866.0" y="80.0" text-anchor="end" font-family="Inter, system-ui, sans-serif" font-size="13" font-weight="700" fill="#334155">4395</text>
<text x="52.0" y="294" text-anchor="middle" font-family="Inter, system-ui, sans-serif" font-size="11" fill="#94a3b8">Jun 10 05:00</text>
<text x="567.7" y="294" text-anchor="middle" font-family="Inter, system-ui, sans-serif" font-size="11" fill="#94a3b8">Jun 20 04:00</text>
<text x="872.0" y="294" text-anchor="middle" font-family="Inter, system-ui, sans-serif" font-size="11" fill="#94a3b8">Jun 26 01:00</text>
</svg>
