<svg xmlns="http://www.w3.org/2000/svg" width="900" height="320" viewBox="0 0 900 320" role="img" aria-labelledby="title desc">
<title id="title">unsorry proofs over time</title>
<desc id="desc">Cumulative kernel-verified proofs over time, by the hour each proof was merged.</desc>
<rect width="900" height="100%" rx="18" fill="#ffffff"/>
<rect x="0.5" y="0.5" width="899" height="319" rx="18" fill="none" stroke="#e2e8f0"/>
<text x="32" y="44" font-family="Inter, system-ui, sans-serif" font-size="28" font-weight="700" fill="#334155">unsorry — Proofs Over Time</text>
<text x="32" y="72" font-family="Inter, system-ui, sans-serif" font-size="13" fill="#64748b">4156 cumulative kernel-verified proofs · merged, hourly</text>
<line x1="52" y1="272.0" x2="872" y2="272.0" stroke="#f1f5f9"/>
<text x="44" y="276.0" text-anchor="end" font-family="Inter, system-ui, sans-serif" font-size="11" fill="#94a3b8">0</text>
<line x1="52" y1="226.5" x2="872" y2="226.5" stroke="#f1f5f9"/>
<text x="44" y="230.5" text-anchor="end" font-family="Inter, system-ui, sans-serif" font-size="11" fill="#94a3b8">1039</text>
<line x1="52" y1="181.0" x2="872" y2="181.0" stroke="#f1f5f9"/>
<text x="44" y="185.0" text-anchor="end" font-family="Inter, system-ui, sans-serif" font-size="11" fill="#94a3b8">2078</text>
<line x1="52" y1="135.5" x2="872" y2="135.5" stroke="#f1f5f9"/>
<text x="44" y="139.5" text-anchor="end" font-family="Inter, system-ui, sans-serif" font-size="11" fill="#94a3b8">3117</text>
<line x1="52" y1="90.0" x2="872" y2="90.0" stroke="#f1f5f9"/>
<text x="44" y="94.0" text-anchor="end" font-family="Inter, system-ui, sans-serif" font-size="11" fill="#94a3b8">4156</text>
<polygon points="52.0,272.0 52.0,272.0 54.2,271.9 81.1,271.4 83.4,271.3 85.6,271.3 92.3,271.2 105.8,271.2 134.9,271.1 137.1,270.7 139.4,270.7 146.1,270.6 148.3,270.6 150.6,270.5 152.8,270.4 157.3,270.3 159.5,270.1 166.3,269.9 175.2,269.9 177.5,269.7 179.7,269.6 197.6,269.6 202.1,269.5 213.3,269.5 215.6,269.5 217.8,269.4 226.8,269.3 229.0,269.1 231.2,268.8 233.5,268.3 235.7,268.2 251.4,268.1 258.1,268.1 262.6,268.1 264.8,268.0 267.1,267.8 269.3,267.8 271.6,267.7 273.8,267.6 276.0,267.4 285.0,267.2 289.5,267.2 298.4,267.1 300.7,266.9 302.9,266.9 305.2,266.8 309.7,266.7 311.9,265.9 314.1,265.0 316.4,264.7 318.6,264.5 320.9,264.4 323.1,264.2 325.3,263.9 327.6,263.6 329.8,263.5 332.1,263.4 336.5,263.3 338.8,262.9 341.0,262.6 343.3,262.2 345.5,262.0 350.0,261.9 354.5,261.9 356.7,261.6 358.9,261.4 361.2,260.7 363.4,260.4 365.7,260.0 367.9,259.7 370.1,259.3 372.4,258.9 374.6,258.5 376.9,258.0 379.1,257.5 381.3,257.2 383.6,256.9 385.8,256.6 388.1,256.2 390.3,256.1 392.5,255.8 394.8,255.6 397.0,255.5 399.3,255.4 403.7,255.4 406.0,254.5 408.2,253.9 410.5,253.8 412.7,253.7 417.2,253.7 419.4,253.5 428.4,253.5 432.9,253.4 439.6,253.3 441.8,252.3 444.1,251.4 446.3,251.1 448.6,250.3 450.8,249.7 453.0,249.3 455.3,249.1 457.5,248.7 459.8,248.5 462.0,248.4 464.2,248.3 466.5,248.2 479.9,247.5 482.2,246.6 484.4,246.5 486.6,246.3 488.9,246.3 504.6,246.3 524.7,245.3 527.0,244.6 529.2,243.8 531.5,242.6 533.7,242.4 535.9,242.0 538.2,241.3 540.4,240.7 542.7,239.6 544.9,237.8 547.1,236.1 549.4,234.1 551.6,232.0 553.9,230.1 556.1,229.0 558.3,227.6 560.6,225.6 562.8,223.9 565.1,222.8 567.3,221.6 569.5,219.9 571.8,218.9 574.0,217.8 576.3,216.9 578.5,216.2 580.7,215.3 583.0,214.7 585.2,214.1 587.5,213.6 589.7,212.0 591.9,210.7 594.2,210.0 596.4,209.8 598.7,209.4 600.9,208.8 603.1,208.2 605.4,207.1 607.6,206.5 609.9,205.9 612.1,205.8 614.3,205.5 616.6,205.0 618.8,203.8 621.1,201.7 623.3,199.6 625.6,197.4 627.8,195.7 630.0,193.6 632.3,191.4 634.5,189.2 636.8,187.1 639.0,185.6 641.2,184.5 643.5,183.1 645.7,181.8 648.0,180.9 650.2,179.9 652.4,179.1 654.7,177.9 656.9,176.4 659.2,174.6 661.4,173.0 663.6,171.7 665.9,170.8 668.1,170.0 670.4,169.2 672.6,168.3 674.8,166.9 677.1,165.6 679.3,164.1 681.6,162.5 683.8,161.2 686.0,160.1 688.3,159.7 690.5,159.1 692.8,158.4 695.0,158.4 697.2,158.3 699.5,158.0 701.7,157.8 704.0,157.8 706.2,157.6 708.4,157.5 715.2,157.4 717.4,157.4 719.7,157.1 721.9,155.3 724.1,153.8 726.4,152.4 728.6,150.9 730.9,149.6 733.1,148.2 735.3,146.8 737.6,145.4 739.8,144.0 742.1,142.7 744.3,141.3 746.5,140.0 748.8,138.7 751.0,137.4 753.3,136.2 755.5,135.1 757.7,133.8 760.0,132.6 762.2,131.4 764.5,130.2 766.7,129.1 768.9,128.3 771.2,127.5 773.4,126.7 775.7,125.6 777.9,124.6 780.1,123.6 782.4,122.4 784.6,121.4 786.9,120.5 789.1,119.4 791.3,118.4 793.6,117.4 795.8,116.4 798.1,115.3 800.3,114.4 802.5,113.3 804.8,112.5 807.0,111.7 809.3,110.7 811.5,109.8 813.7,108.9 816.0,108.2 818.2,107.6 820.5,107.2 822.7,107.0 825.0,106.1 827.2,105.3 829.4,104.4 831.7,103.5 833.9,102.7 836.2,101.9 838.4,101.0 840.6,100.2 842.9,99.4 845.1,98.7 847.4,97.9 849.6,97.2 851.8,96.3 854.1,95.6 856.3,94.8 858.6,94.0 860.8,93.3 863.0,92.6 865.3,91.8 867.5,91.1 869.8,90.5 872.0,90.0 872.0,272.0" fill="#e0f2fe" opacity="0.55"/>
<polyline points="52.0,272.0 54.2,271.9 81.1,271.4 83.4,271.3 85.6,271.3 92.3,271.2 105.8,271.2 134.9,271.1 137.1,270.7 139.4,270.7 146.1,270.6 148.3,270.6 150.6,270.5 152.8,270.4 157.3,270.3 159.5,270.1 166.3,269.9 175.2,269.9 177.5,269.7 179.7,269.6 197.6,269.6 202.1,269.5 213.3,269.5 215.6,269.5 217.8,269.4 226.8,269.3 229.0,269.1 231.2,268.8 233.5,268.3 235.7,268.2 251.4,268.1 258.1,268.1 262.6,268.1 264.8,268.0 267.1,267.8 269.3,267.8 271.6,267.7 273.8,267.6 276.0,267.4 285.0,267.2 289.5,267.2 298.4,267.1 300.7,266.9 302.9,266.9 305.2,266.8 309.7,266.7 311.9,265.9 314.1,265.0 316.4,264.7 318.6,264.5 320.9,264.4 323.1,264.2 325.3,263.9 327.6,263.6 329.8,263.5 332.1,263.4 336.5,263.3 338.8,262.9 341.0,262.6 343.3,262.2 345.5,262.0 350.0,261.9 354.5,261.9 356.7,261.6 358.9,261.4 361.2,260.7 363.4,260.4 365.7,260.0 367.9,259.7 370.1,259.3 372.4,258.9 374.6,258.5 376.9,258.0 379.1,257.5 381.3,257.2 383.6,256.9 385.8,256.6 388.1,256.2 390.3,256.1 392.5,255.8 394.8,255.6 397.0,255.5 399.3,255.4 403.7,255.4 406.0,254.5 408.2,253.9 410.5,253.8 412.7,253.7 417.2,253.7 419.4,253.5 428.4,253.5 432.9,253.4 439.6,253.3 441.8,252.3 444.1,251.4 446.3,251.1 448.6,250.3 450.8,249.7 453.0,249.3 455.3,249.1 457.5,248.7 459.8,248.5 462.0,248.4 464.2,248.3 466.5,248.2 479.9,247.5 482.2,246.6 484.4,246.5 486.6,246.3 488.9,246.3 504.6,246.3 524.7,245.3 527.0,244.6 529.2,243.8 531.5,242.6 533.7,242.4 535.9,242.0 538.2,241.3 540.4,240.7 542.7,239.6 544.9,237.8 547.1,236.1 549.4,234.1 551.6,232.0 553.9,230.1 556.1,229.0 558.3,227.6 560.6,225.6 562.8,223.9 565.1,222.8 567.3,221.6 569.5,219.9 571.8,218.9 574.0,217.8 576.3,216.9 578.5,216.2 580.7,215.3 583.0,214.7 585.2,214.1 587.5,213.6 589.7,212.0 591.9,210.7 594.2,210.0 596.4,209.8 598.7,209.4 600.9,208.8 603.1,208.2 605.4,207.1 607.6,206.5 609.9,205.9 612.1,205.8 614.3,205.5 616.6,205.0 618.8,203.8 621.1,201.7 623.3,199.6 625.6,197.4 627.8,195.7 630.0,193.6 632.3,191.4 634.5,189.2 636.8,187.1 639.0,185.6 641.2,184.5 643.5,183.1 645.7,181.8 648.0,180.9 650.2,179.9 652.4,179.1 654.7,177.9 656.9,176.4 659.2,174.6 661.4,173.0 663.6,171.7 665.9,170.8 668.1,170.0 670.4,169.2 672.6,168.3 674.8,166.9 677.1,165.6 679.3,164.1 681.6,162.5 683.8,161.2 686.0,160.1 688.3,159.7 690.5,159.1 692.8,158.4 695.0,158.4 697.2,158.3 699.5,158.0 701.7,157.8 704.0,157.8 706.2,157.6 708.4,157.5 715.2,157.4 717.4,157.4 719.7,157.1 721.9,155.3 724.1,153.8 726.4,152.4 728.6,150.9 730.9,149.6 733.1,148.2 735.3,146.8 737.6,145.4 739.8,144.0 742.1,142.7 744.3,141.3 746.5,140.0 748.8,138.7 751.0,137.4 753.3,136.2 755.5,135.1 757.7,133.8 760.0,132.6 762.2,131.4 764.5,130.2 766.7,129.1 768.9,128.3 771.2,127.5 773.4,126.7 775.7,125.6 777.9,124.6 780.1,123.6 782.4,122.4 784.6,121.4 786.9,120.5 789.1,119.4 791.3,118.4 793.6,117.4 795.8,116.4 798.1,115.3 800.3,114.4 802.5,113.3 804.8,112.5 807.0,111.7 809.3,110.7 811.5,109.8 813.7,108.9 816.0,108.2 818.2,107.6 820.5,107.2 822.7,107.0 825.0,106.1 827.2,105.3 829.4,104.4 831.7,103.5 833.9,102.7 836.2,101.9 838.4,101.0 840.6,100.2 842.9,99.4 845.1,98.7 847.4,97.9 849.6,97.2 851.8,96.3 854.1,95.6 856.3,94.8 858.6,94.0 860.8,93.3 863.0,92.6 865.3,91.8 867.5,91.1 869.8,90.5 872.0,90.0" fill="none" stroke="#38bdf8" stroke-width="2.5" stroke-linejoin="round" stroke-linecap="round"/>
<circle cx="872.0" cy="90.0" r="4" fill="#0ea5e9"/>
<text x="866.0" y="80.0" text-anchor="end" font-family="Inter, system-ui, sans-serif" font-size="13" font-weight="700" fill="#334155">4156</text>
<text x="52.0" y="294" text-anchor="middle" font-family="Inter, system-ui, sans-serif" font-size="11" fill="#94a3b8">Jun 10 05:00</text>
<text x="571.8" y="294" text-anchor="middle" font-family="Inter, system-ui, sans-serif" font-size="11" fill="#94a3b8">Jun 19 21:00</text>
<text x="872.0" y="294" text-anchor="middle" font-family="Inter, system-ui, sans-serif" font-size="11" fill="#94a3b8">Jun 25 11:00</text>
</svg>
