<svg xmlns="http://www.w3.org/2000/svg" width="900" height="320" viewBox="0 0 900 320" role="img" aria-labelledby="title desc">
<title id="title">unsorry proofs over time</title>
<desc id="desc">Cumulative kernel-verified proofs over time, by the hour each proof was merged.</desc>
<rect width="900" height="100%" rx="18" fill="#ffffff"/>
<rect x="0.5" y="0.5" width="899" height="319" rx="18" fill="none" stroke="#e2e8f0"/>
<text x="32" y="44" font-family="Inter, system-ui, sans-serif" font-size="28" font-weight="700" fill="#334155">unsorry — Proofs Over Time</text>
<text x="32" y="72" font-family="Inter, system-ui, sans-serif" font-size="13" fill="#64748b">2905 cumulative kernel-verified proofs · merged, hourly</text>
<line x1="52" y1="272.0" x2="872" y2="272.0" stroke="#f1f5f9"/>
<text x="44" y="276.0" text-anchor="end" font-family="Inter, system-ui, sans-serif" font-size="11" fill="#94a3b8">0</text>
<line x1="52" y1="226.5" x2="872" y2="226.5" stroke="#f1f5f9"/>
<text x="44" y="230.5" text-anchor="end" font-family="Inter, system-ui, sans-serif" font-size="11" fill="#94a3b8">726</text>
<line x1="52" y1="181.0" x2="872" y2="181.0" stroke="#f1f5f9"/>
<text x="44" y="185.0" text-anchor="end" font-family="Inter, system-ui, sans-serif" font-size="11" fill="#94a3b8">1452</text>
<line x1="52" y1="135.5" x2="872" y2="135.5" stroke="#f1f5f9"/>
<text x="44" y="139.5" text-anchor="end" font-family="Inter, system-ui, sans-serif" font-size="11" fill="#94a3b8">2179</text>
<line x1="52" y1="90.0" x2="872" y2="90.0" stroke="#f1f5f9"/>
<text x="44" y="94.0" text-anchor="end" font-family="Inter, system-ui, sans-serif" font-size="11" fill="#94a3b8">2905</text>
<polygon points="52.0,272.0 52.0,271.9 54.7,271.8 86.7,271.2 89.4,271.0 92.1,270.9 100.1,270.9 116.1,270.8 150.8,270.7 153.5,270.2 156.2,270.1 164.2,270.0 166.9,269.9 169.5,269.9 172.2,269.7 177.5,269.6 180.2,269.3 188.2,269.1 198.9,268.9 201.6,268.7 204.2,268.6 225.6,268.6 231.0,268.5 244.3,268.4 247.0,268.4 249.7,268.2 260.3,268.2 263.0,267.8 265.7,267.5 268.4,266.7 271.0,266.5 289.7,266.5 297.7,266.4 303.1,266.4 305.7,266.3 308.4,266.0 311.1,265.9 313.8,265.9 316.4,265.7 319.1,265.5 329.8,265.2 335.1,265.1 345.8,265.0 348.5,264.7 351.2,264.7 353.8,264.5 359.2,264.5 361.8,263.2 364.5,262.0 367.2,261.5 369.9,261.2 372.5,261.1 375.2,260.8 377.9,260.3 380.5,260.0 383.2,259.8 385.9,259.7 391.2,259.5 393.9,259.0 396.6,258.5 399.2,258.0 401.9,257.7 407.2,257.6 412.6,257.5 415.3,257.1 417.9,256.8 420.6,255.9 423.3,255.4 425.9,254.9 428.6,254.4 431.3,253.8 434.0,253.3 436.6,252.6 439.3,252.0 442.0,251.3 444.6,250.8 447.3,250.4 450.0,249.9 452.7,249.4 455.3,249.2 458.0,248.9 460.7,248.6 463.3,248.4 466.0,248.3 471.3,248.3 474.0,247.0 476.7,246.1 479.4,245.9 482.0,245.9 487.4,245.7 490.0,245.6 500.7,245.5 506.1,245.4 514.1,245.3 516.8,243.9 519.4,242.5 522.1,242.1 524.8,241.0 527.4,240.1 530.1,239.5 532.8,239.2 535.5,238.7 538.1,238.4 540.8,238.3 543.5,238.0 546.1,237.9 562.2,236.9 564.8,235.7 567.5,235.5 570.2,235.3 572.8,235.2 591.5,235.2 615.6,233.8 618.3,232.8 620.9,231.7 623.6,229.9 626.3,229.6 628.9,229.0 631.6,228.0 634.3,227.3 637.0,225.6 639.6,223.1 642.3,220.6 645.0,217.7 647.6,214.7 650.3,212.1 653.0,210.5 655.6,208.5 658.3,205.7 661.0,203.2 663.7,201.6 666.3,199.9 669.0,197.5 671.7,196.0 674.3,194.5 677.0,193.2 679.7,192.2 682.4,190.9 685.0,190.1 687.7,189.2 690.4,188.4 693.0,186.2 695.7,184.4 698.4,183.3 701.1,183.0 703.7,182.5 706.4,181.5 709.1,180.7 711.7,179.2 714.4,178.3 717.1,177.4 719.8,177.3 722.4,176.9 725.1,176.2 727.8,174.4 730.4,171.4 733.1,168.4 735.8,165.3 738.4,162.8 741.1,159.9 743.8,156.7 746.5,153.5 749.1,150.6 751.8,148.5 754.5,146.8 757.1,144.8 759.8,142.9 762.5,141.7 765.2,140.2 767.8,139.1 770.5,137.4 773.2,135.2 775.8,132.6 778.5,130.4 781.2,128.5 783.9,127.2 786.5,126.1 789.2,125.0 791.9,123.7 794.5,121.6 797.2,119.8 799.9,117.6 802.6,115.3 805.2,113.4 807.9,111.9 810.6,111.3 813.2,110.4 815.9,109.5 818.6,109.4 821.3,109.3 823.9,108.9 826.6,108.7 829.3,108.6 831.9,108.3 834.6,108.2 842.6,108.1 845.3,108.0 848.0,107.7 850.6,105.1 853.3,102.9 856.0,101.0 858.6,98.8 861.3,96.8 864.0,94.9 866.7,92.8 869.3,90.9 872.0,90.0 872.0,272.0" fill="#e0f2fe" opacity="0.55"/>
<polyline points="52.0,271.9 54.7,271.8 86.7,271.2 89.4,271.0 92.1,270.9 100.1,270.9 116.1,270.8 150.8,270.7 153.5,270.2 156.2,270.1 164.2,270.0 166.9,269.9 169.5,269.9 172.2,269.7 177.5,269.6 180.2,269.3 188.2,269.1 198.9,268.9 201.6,268.7 204.2,268.6 225.6,268.6 231.0,268.5 244.3,268.4 247.0,268.4 249.7,268.2 260.3,268.2 263.0,267.8 265.7,267.5 268.4,266.7 271.0,266.5 289.7,266.5 297.7,266.4 303.1,266.4 305.7,266.3 308.4,266.0 311.1,265.9 313.8,265.9 316.4,265.7 319.1,265.5 329.8,265.2 335.1,265.1 345.8,265.0 348.5,264.7 351.2,264.7 353.8,264.5 359.2,264.5 361.8,263.2 364.5,262.0 367.2,261.5 369.9,261.2 372.5,261.1 375.2,260.8 377.9,260.3 380.5,260.0 383.2,259.8 385.9,259.7 391.2,259.5 393.9,259.0 396.6,258.5 399.2,258.0 401.9,257.7 407.2,257.6 412.6,257.5 415.3,257.1 417.9,256.8 420.6,255.9 423.3,255.4 425.9,254.9 428.6,254.4 431.3,253.8 434.0,253.3 436.6,252.6 439.3,252.0 442.0,251.3 444.6,250.8 447.3,250.4 450.0,249.9 452.7,249.4 455.3,249.2 458.0,248.9 460.7,248.6 463.3,248.4 466.0,248.3 471.3,248.3 474.0,247.0 476.7,246.1 479.4,245.9 482.0,245.9 487.4,245.7 490.0,245.6 500.7,245.5 506.1,245.4 514.1,245.3 516.8,243.9 519.4,242.5 522.1,242.1 524.8,241.0 527.4,240.1 530.1,239.5 532.8,239.2 535.5,238.7 538.1,238.4 540.8,238.3 543.5,238.0 546.1,237.9 562.2,236.9 564.8,235.7 567.5,235.5 570.2,235.3 572.8,235.2 591.5,235.2 615.6,233.8 618.3,232.8 620.9,231.7 623.6,229.9 626.3,229.6 628.9,229.0 631.6,228.0 634.3,227.3 637.0,225.6 639.6,223.1 642.3,220.6 645.0,217.7 647.6,214.7 650.3,212.1 653.0,210.5 655.6,208.5 658.3,205.7 661.0,203.2 663.7,201.6 666.3,199.9 669.0,197.5 671.7,196.0 674.3,194.5 677.0,193.2 679.7,192.2 682.4,190.9 685.0,190.1 687.7,189.2 690.4,188.4 693.0,186.2 695.7,184.4 698.4,183.3 701.1,183.0 703.7,182.5 706.4,181.5 709.1,180.7 711.7,179.2 714.4,178.3 717.1,177.4 719.8,177.3 722.4,176.9 725.1,176.2 727.8,174.4 730.4,171.4 733.1,168.4 735.8,165.3 738.4,162.8 741.1,159.9 743.8,156.7 746.5,153.5 749.1,150.6 751.8,148.5 754.5,146.8 757.1,144.8 759.8,142.9 762.5,141.7 765.2,140.2 767.8,139.1 770.5,137.4 773.2,135.2 775.8,132.6 778.5,130.4 781.2,128.5 783.9,127.2 786.5,126.1 789.2,125.0 791.9,123.7 794.5,121.6 797.2,119.8 799.9,117.6 802.6,115.3 805.2,113.4 807.9,111.9 810.6,111.3 813.2,110.4 815.9,109.5 818.6,109.4 821.3,109.3 823.9,108.9 826.6,108.7 829.3,108.6 831.9,108.3 834.6,108.2 842.6,108.1 845.3,108.0 848.0,107.7 850.6,105.1 853.3,102.9 856.0,101.0 858.6,98.8 861.3,96.8 864.0,94.9 866.7,92.8 869.3,90.9 872.0,90.0" fill="none" stroke="#38bdf8" stroke-width="2.5" stroke-linejoin="round" stroke-linecap="round"/>
<circle cx="872.0" cy="90.0" r="4" fill="#0ea5e9"/>
<text x="866.0" y="80.0" text-anchor="end" font-family="Inter, system-ui, sans-serif" font-size="13" font-weight="700" fill="#334155">2905</text>
<text x="52.0" y="294" text-anchor="middle" font-family="Inter, system-ui, sans-serif" font-size="11" fill="#94a3b8">Jun 10 05:00</text>
<text x="543.5" y="294" text-anchor="middle" font-family="Inter, system-ui, sans-serif" font-size="11" fill="#94a3b8">Jun 17 21:00</text>
<text x="872.0" y="294" text-anchor="middle" font-family="Inter, system-ui, sans-serif" font-size="11" fill="#94a3b8">Jun 23 00:00</text>
</svg>
