<svg xmlns="http://www.w3.org/2000/svg" width="900" height="320" viewBox="0 0 900 320" role="img" aria-labelledby="title desc">
<title id="title">unsorry proofs over time</title>
<desc id="desc">Cumulative kernel-verified proofs over time, by the hour each proof was merged.</desc>
<rect width="900" height="100%" rx="18" fill="#ffffff"/>
<rect x="0.5" y="0.5" width="899" height="319" rx="18" fill="none" stroke="#e2e8f0"/>
<text x="32" y="44" font-family="Inter, system-ui, sans-serif" font-size="28" font-weight="700" fill="#334155">unsorry — Proofs Over Time</text>
<text x="32" y="72" font-family="Inter, system-ui, sans-serif" font-size="13" fill="#64748b">3934 cumulative kernel-verified proofs · merged, hourly</text>
<line x1="52" y1="272.0" x2="872" y2="272.0" stroke="#f1f5f9"/>
<text x="44" y="276.0" text-anchor="end" font-family="Inter, system-ui, sans-serif" font-size="11" fill="#94a3b8">0</text>
<line x1="52" y1="226.5" x2="872" y2="226.5" stroke="#f1f5f9"/>
<text x="44" y="230.5" text-anchor="end" font-family="Inter, system-ui, sans-serif" font-size="11" fill="#94a3b8">984</text>
<line x1="52" y1="181.0" x2="872" y2="181.0" stroke="#f1f5f9"/>
<text x="44" y="185.0" text-anchor="end" font-family="Inter, system-ui, sans-serif" font-size="11" fill="#94a3b8">1967</text>
<line x1="52" y1="135.5" x2="872" y2="135.5" stroke="#f1f5f9"/>
<text x="44" y="139.5" text-anchor="end" font-family="Inter, system-ui, sans-serif" font-size="11" fill="#94a3b8">2950</text>
<line x1="52" y1="90.0" x2="872" y2="90.0" stroke="#f1f5f9"/>
<text x="44" y="94.0" text-anchor="end" font-family="Inter, system-ui, sans-serif" font-size="11" fill="#94a3b8">3934</text>
<polygon points="52.0,272.0 52.0,272.0 54.3,271.9 82.2,271.4 84.5,271.3 86.8,271.2 93.8,271.2 107.8,271.1 137.9,271.1 140.3,270.7 142.6,270.6 149.6,270.5 151.9,270.5 154.2,270.4 156.5,270.3 161.2,270.2 163.5,270.0 170.5,269.8 179.8,269.7 182.1,269.6 184.4,269.5 203.0,269.5 207.6,269.4 219.3,269.4 221.6,269.3 223.9,269.2 233.2,269.2 235.5,268.9 237.8,268.7 240.2,268.1 242.5,268.0 258.7,267.9 265.7,267.9 270.4,267.8 272.7,267.8 275.0,267.6 277.3,267.5 279.6,267.5 282.0,267.3 284.3,267.2 293.6,267.0 298.2,266.9 307.5,266.9 309.8,266.6 312.2,266.6 314.5,266.5 319.1,266.4 321.5,265.5 323.8,264.6 326.1,264.3 328.4,264.0 330.8,264.0 333.1,263.7 335.4,263.4 337.7,263.2 340.0,263.0 342.4,262.9 347.0,262.8 349.3,262.4 351.7,262.1 354.0,261.7 356.3,261.5 361.0,261.4 365.6,261.3 367.9,261.0 370.2,260.8 372.6,260.1 374.9,259.7 377.2,259.4 379.5,259.0 381.9,258.6 384.2,258.2 386.5,257.7 388.8,257.2 391.2,256.7 393.5,256.3 395.8,256.0 398.1,255.7 400.4,255.3 402.8,255.2 405.1,254.9 407.4,254.7 409.7,254.6 412.1,254.5 416.7,254.5 419.0,253.5 421.3,252.9 423.7,252.8 426.0,252.7 430.6,252.6 433.0,252.5 442.3,252.4 446.9,252.3 453.9,252.3 456.2,251.2 458.5,250.2 460.8,249.9 463.2,249.1 465.5,248.5 467.8,248.0 470.1,247.8 472.5,247.4 474.8,247.2 477.1,247.1 479.4,246.9 481.7,246.8 495.7,246.1 498.0,245.2 500.3,245.0 502.7,244.9 505.0,244.8 521.2,244.8 542.1,243.8 544.5,243.1 546.8,242.2 549.1,240.9 551.4,240.7 553.8,240.3 556.1,239.5 558.4,239.0 560.7,237.7 563.0,235.9 565.4,234.1 567.7,231.9 570.0,229.7 572.3,227.8 574.7,226.6 577.0,225.1 579.3,223.0 581.6,221.2 584.0,220.0 586.3,218.8 588.6,217.0 590.9,215.9 593.2,214.8 595.6,213.8 597.9,213.1 600.2,212.1 602.5,211.5 604.9,210.8 607.2,210.3 609.5,208.6 611.8,207.3 614.2,206.5 616.5,206.3 618.8,205.9 621.1,205.2 623.4,204.6 625.8,203.5 628.1,202.8 630.4,202.1 632.7,202.0 635.1,201.8 637.4,201.3 639.7,199.9 642.0,197.7 644.4,195.5 646.7,193.2 649.0,191.4 651.3,189.2 653.6,186.9 656.0,184.5 658.3,182.3 660.6,180.8 662.9,179.5 665.3,178.1 667.6,176.7 669.9,175.8 672.2,174.7 674.5,173.8 676.9,172.6 679.2,171.0 681.5,169.1 683.8,167.4 686.2,166.0 688.5,165.1 690.8,164.3 693.1,163.4 695.5,162.5 697.8,160.9 700.1,159.6 702.4,158.0 704.7,156.3 707.1,154.9 709.4,153.8 711.7,153.3 714.0,152.7 716.4,152.0 718.7,151.9 721.0,151.9 723.3,151.5 725.7,151.4 728.0,151.3 730.3,151.1 732.6,151.0 739.6,151.0 741.9,150.9 744.2,150.7 746.6,148.8 748.9,147.1 751.2,145.7 753.5,144.1 755.9,142.6 758.2,141.2 760.5,139.7 762.8,138.3 765.1,136.8 767.5,135.4 769.8,134.0 772.1,132.6 774.4,131.2 776.8,129.8 779.1,128.5 781.4,127.3 783.7,126.0 786.1,124.7 788.4,123.4 790.7,122.2 793.0,121.0 795.3,120.2 797.7,119.3 800.0,118.5 802.3,117.3 804.6,116.2 807.0,115.2 809.3,114.0 811.6,112.9 813.9,111.9 816.2,110.8 818.6,109.7 820.9,108.6 823.2,107.6 825.5,106.4 827.9,105.5 830.2,104.4 832.5,103.5 834.8,102.6 837.2,101.6 839.5,100.6 841.8,99.7 844.1,99.0 846.4,98.3 848.8,97.9 851.1,97.7 853.4,96.8 855.7,95.9 858.1,95.0 860.4,94.0 862.7,93.2 865.0,92.3 867.4,91.4 869.7,90.5 872.0,90.0 872.0,272.0" fill="#e0f2fe" opacity="0.55"/>
<polyline points="52.0,272.0 54.3,271.9 82.2,271.4 84.5,271.3 86.8,271.2 93.8,271.2 107.8,271.1 137.9,271.1 140.3,270.7 142.6,270.6 149.6,270.5 151.9,270.5 154.2,270.4 156.5,270.3 161.2,270.2 163.5,270.0 170.5,269.8 179.8,269.7 182.1,269.6 184.4,269.5 203.0,269.5 207.6,269.4 219.3,269.4 221.6,269.3 223.9,269.2 233.2,269.2 235.5,268.9 237.8,268.7 240.2,268.1 242.5,268.0 258.7,267.9 265.7,267.9 270.4,267.8 272.7,267.8 275.0,267.6 277.3,267.5 279.6,267.5 282.0,267.3 284.3,267.2 293.6,267.0 298.2,266.9 307.5,266.9 309.8,266.6 312.2,266.6 314.5,266.5 319.1,266.4 321.5,265.5 323.8,264.6 326.1,264.3 328.4,264.0 330.8,264.0 333.1,263.7 335.4,263.4 337.7,263.2 340.0,263.0 342.4,262.9 347.0,262.8 349.3,262.4 351.7,262.1 354.0,261.7 356.3,261.5 361.0,261.4 365.6,261.3 367.9,261.0 370.2,260.8 372.6,260.1 374.9,259.7 377.2,259.4 379.5,259.0 381.9,258.6 384.2,258.2 386.5,257.7 388.8,257.2 391.2,256.7 393.5,256.3 395.8,256.0 398.1,255.7 400.4,255.3 402.8,255.2 405.1,254.9 407.4,254.7 409.7,254.6 412.1,254.5 416.7,254.5 419.0,253.5 421.3,252.9 423.7,252.8 426.0,252.7 430.6,252.6 433.0,252.5 442.3,252.4 446.9,252.3 453.9,252.3 456.2,251.2 458.5,250.2 460.8,249.9 463.2,249.1 465.5,248.5 467.8,248.0 470.1,247.8 472.5,247.4 474.8,247.2 477.1,247.1 479.4,246.9 481.7,246.8 495.7,246.1 498.0,245.2 500.3,245.0 502.7,244.9 505.0,244.8 521.2,244.8 542.1,243.8 544.5,243.1 546.8,242.2 549.1,240.9 551.4,240.7 553.8,240.3 556.1,239.5 558.4,239.0 560.7,237.7 563.0,235.9 565.4,234.1 567.7,231.9 570.0,229.7 572.3,227.8 574.7,226.6 577.0,225.1 579.3,223.0 581.6,221.2 584.0,220.0 586.3,218.8 588.6,217.0 590.9,215.9 593.2,214.8 595.6,213.8 597.9,213.1 600.2,212.1 602.5,211.5 604.9,210.8 607.2,210.3 609.5,208.6 611.8,207.3 614.2,206.5 616.5,206.3 618.8,205.9 621.1,205.2 623.4,204.6 625.8,203.5 628.1,202.8 630.4,202.1 632.7,202.0 635.1,201.8 637.4,201.3 639.7,199.9 642.0,197.7 644.4,195.5 646.7,193.2 649.0,191.4 651.3,189.2 653.6,186.9 656.0,184.5 658.3,182.3 660.6,180.8 662.9,179.5 665.3,178.1 667.6,176.7 669.9,175.8 672.2,174.7 674.5,173.8 676.9,172.6 679.2,171.0 681.5,169.1 683.8,167.4 686.2,166.0 688.5,165.1 690.8,164.3 693.1,163.4 695.5,162.5 697.8,160.9 700.1,159.6 702.4,158.0 704.7,156.3 707.1,154.9 709.4,153.8 711.7,153.3 714.0,152.7 716.4,152.0 718.7,151.9 721.0,151.9 723.3,151.5 725.7,151.4 728.0,151.3 730.3,151.1 732.6,151.0 739.6,151.0 741.9,150.9 744.2,150.7 746.6,148.8 748.9,147.1 751.2,145.7 753.5,144.1 755.9,142.6 758.2,141.2 760.5,139.7 762.8,138.3 765.1,136.8 767.5,135.4 769.8,134.0 772.1,132.6 774.4,131.2 776.8,129.8 779.1,128.5 781.4,127.3 783.7,126.0 786.1,124.7 788.4,123.4 790.7,122.2 793.0,121.0 795.3,120.2 797.7,119.3 800.0,118.5 802.3,117.3 804.6,116.2 807.0,115.2 809.3,114.0 811.6,112.9 813.9,111.9 816.2,110.8 818.6,109.7 820.9,108.6 823.2,107.6 825.5,106.4 827.9,105.5 830.2,104.4 832.5,103.5 834.8,102.6 837.2,101.6 839.5,100.6 841.8,99.7 844.1,99.0 846.4,98.3 848.8,97.9 851.1,97.7 853.4,96.8 855.7,95.9 858.1,95.0 860.4,94.0 862.7,93.2 865.0,92.3 867.4,91.4 869.7,90.5 872.0,90.0" fill="none" stroke="#38bdf8" stroke-width="2.5" stroke-linejoin="round" stroke-linecap="round"/>
<circle cx="872.0" cy="90.0" r="4" fill="#0ea5e9"/>
<text x="866.0" y="80.0" text-anchor="end" font-family="Inter, system-ui, sans-serif" font-size="13" font-weight="700" fill="#334155">3934</text>
<text x="52.0" y="294" text-anchor="middle" font-family="Inter, system-ui, sans-serif" font-size="11" fill="#94a3b8">Jun 10 05:00</text>
<text x="577.0" y="294" text-anchor="middle" font-family="Inter, system-ui, sans-serif" font-size="11" fill="#94a3b8">Jun 19 15:00</text>
<text x="872.0" y="294" text-anchor="middle" font-family="Inter, system-ui, sans-serif" font-size="11" fill="#94a3b8">Jun 24 22:00</text>
</svg>
