<svg xmlns="http://www.w3.org/2000/svg" width="900" height="320" viewBox="0 0 900 320" role="img" aria-labelledby="title desc">
<title id="title">unsorry proofs over time</title>
<desc id="desc">Cumulative kernel-verified proofs over time, by the hour each proof was merged.</desc>
<rect width="900" height="100%" rx="18" fill="#ffffff"/>
<rect x="0.5" y="0.5" width="899" height="319" rx="18" fill="none" stroke="#e2e8f0"/>
<text x="32" y="44" font-family="Inter, system-ui, sans-serif" font-size="28" font-weight="700" fill="#334155">unsorry — Proofs Over Time</text>
<text x="32" y="72" font-family="Inter, system-ui, sans-serif" font-size="13" fill="#64748b">3985 cumulative kernel-verified proofs · merged, hourly</text>
<line x1="52" y1="272.0" x2="872" y2="272.0" stroke="#f1f5f9"/>
<text x="44" y="276.0" text-anchor="end" font-family="Inter, system-ui, sans-serif" font-size="11" fill="#94a3b8">0</text>
<line x1="52" y1="226.5" x2="872" y2="226.5" stroke="#f1f5f9"/>
<text x="44" y="230.5" text-anchor="end" font-family="Inter, system-ui, sans-serif" font-size="11" fill="#94a3b8">996</text>
<line x1="52" y1="181.0" x2="872" y2="181.0" stroke="#f1f5f9"/>
<text x="44" y="185.0" text-anchor="end" font-family="Inter, system-ui, sans-serif" font-size="11" fill="#94a3b8">1992</text>
<line x1="52" y1="135.5" x2="872" y2="135.5" stroke="#f1f5f9"/>
<text x="44" y="139.5" text-anchor="end" font-family="Inter, system-ui, sans-serif" font-size="11" fill="#94a3b8">2989</text>
<line x1="52" y1="90.0" x2="872" y2="90.0" stroke="#f1f5f9"/>
<text x="44" y="94.0" text-anchor="end" font-family="Inter, system-ui, sans-serif" font-size="11" fill="#94a3b8">3985</text>
<polygon points="52.0,272.0 52.0,272.0 54.3,271.9 81.9,271.4 84.2,271.3 86.6,271.2 93.5,271.2 107.3,271.1 137.2,271.1 139.5,270.7 141.8,270.6 148.7,270.5 151.0,270.5 153.3,270.4 155.7,270.3 160.3,270.3 162.6,270.0 169.5,269.9 178.7,269.8 181.0,269.6 183.3,269.5 201.7,269.5 206.3,269.4 217.8,269.4 220.1,269.4 222.4,269.3 231.7,269.2 234.0,268.9 236.3,268.7 238.6,268.1 240.9,268.0 257.0,268.0 263.9,267.9 268.5,267.9 270.8,267.8 273.1,267.6 275.4,267.6 277.7,267.5 280.0,267.4 282.3,267.3 291.6,267.0 296.2,267.0 305.4,266.9 307.7,266.7 310.0,266.7 312.3,266.6 316.9,266.5 319.2,265.6 321.5,264.7 323.8,264.4 326.1,264.1 328.4,264.1 330.7,263.8 333.0,263.5 335.3,263.3 337.6,263.1 339.9,263.0 344.5,262.9 346.8,262.5 349.1,262.2 351.4,261.8 353.7,261.6 358.3,261.5 363.0,261.4 365.3,261.1 367.6,260.9 369.9,260.3 372.2,259.9 374.5,259.5 376.8,259.2 379.1,258.8 381.4,258.3 383.7,257.9 386.0,257.4 388.3,256.9 390.6,256.5 392.9,256.2 395.2,255.9 397.5,255.6 399.8,255.4 402.1,255.1 404.4,254.9 406.7,254.8 409.0,254.7 413.6,254.7 415.9,253.8 418.2,253.1 420.5,253.0 422.8,253.0 427.4,252.9 429.8,252.7 439.0,252.7 443.6,252.6 450.5,252.5 452.8,251.5 455.1,250.5 457.4,250.2 459.7,249.4 462.0,248.8 464.3,248.3 466.6,248.1 468.9,247.7 471.2,247.5 473.5,247.4 475.8,247.2 478.1,247.2 491.9,246.4 494.2,245.5 496.6,245.4 498.9,245.2 501.2,245.2 517.3,245.1 538.0,244.2 540.3,243.5 542.6,242.6 544.9,241.3 547.2,241.1 549.5,240.7 551.8,239.9 554.1,239.4 556.4,238.2 558.7,236.3 561.0,234.5 563.3,232.4 565.7,230.3 568.0,228.3 570.3,227.2 572.6,225.7 574.9,223.6 577.2,221.9 579.5,220.7 581.8,219.4 584.1,217.7 586.4,216.6 588.7,215.5 591.0,214.5 593.3,213.8 595.6,212.9 597.9,212.3 600.2,211.6 602.5,211.1 604.8,209.4 607.1,208.1 609.4,207.4 611.7,207.1 614.0,206.7 616.3,206.1 618.6,205.5 620.9,204.4 623.2,203.7 625.5,203.0 627.8,202.9 630.1,202.7 632.4,202.2 634.8,200.8 637.1,198.7 639.4,196.5 641.7,194.2 644.0,192.4 646.3,190.2 648.6,188.0 650.9,185.6 653.2,183.5 655.5,181.9 657.8,180.7 660.1,179.3 662.4,177.9 664.7,177.0 667.0,175.9 669.3,175.1 671.6,173.9 673.9,172.3 676.2,170.4 678.5,168.8 680.8,167.4 683.1,166.5 685.4,165.6 687.7,164.8 690.0,163.9 692.3,162.3 694.6,161.0 696.9,159.4 699.2,157.8 701.6,156.4 703.9,155.3 706.2,154.9 708.5,154.2 710.8,153.6 713.1,153.5 715.4,153.4 717.7,153.1 720.0,152.9 722.3,152.9 724.6,152.7 726.9,152.6 733.8,152.5 736.1,152.5 738.4,152.2 740.7,150.3 743.0,148.7 745.3,147.3 747.6,145.7 749.9,144.3 752.2,142.9 754.5,141.4 756.8,140.0 759.1,138.5 761.4,137.1 763.7,135.7 766.0,134.3 768.3,133.0 770.7,131.7 773.0,130.3 775.3,129.2 777.6,127.9 779.9,126.6 782.2,125.3 784.5,124.2 786.8,122.9 789.1,122.1 791.4,121.3 793.7,120.5 796.0,119.3 798.3,118.2 800.6,117.2 802.9,116.0 805.2,114.9 807.5,114.0 809.8,112.9 812.1,111.8 814.4,110.7 816.7,109.7 819.0,108.5 821.3,107.6 823.6,106.5 825.9,105.7 828.2,104.8 830.5,103.7 832.8,102.8 835.1,101.9 837.4,101.2 839.8,100.5 842.1,100.1 844.4,100.0 846.7,99.0 849.0,98.1 851.3,97.2 853.6,96.3 855.9,95.5 858.2,94.6 860.5,93.7 862.8,92.8 865.1,92.0 867.4,91.2 869.7,90.5 872.0,90.0 872.0,272.0" fill="#e0f2fe" opacity="0.55"/>
<polyline points="52.0,272.0 54.3,271.9 81.9,271.4 84.2,271.3 86.6,271.2 93.5,271.2 107.3,271.1 137.2,271.1 139.5,270.7 141.8,270.6 148.7,270.5 151.0,270.5 153.3,270.4 155.7,270.3 160.3,270.3 162.6,270.0 169.5,269.9 178.7,269.8 181.0,269.6 183.3,269.5 201.7,269.5 206.3,269.4 217.8,269.4 220.1,269.4 222.4,269.3 231.7,269.2 234.0,268.9 236.3,268.7 238.6,268.1 240.9,268.0 257.0,268.0 263.9,267.9 268.5,267.9 270.8,267.8 273.1,267.6 275.4,267.6 277.7,267.5 280.0,267.4 282.3,267.3 291.6,267.0 296.2,267.0 305.4,266.9 307.7,266.7 310.0,266.7 312.3,266.6 316.9,266.5 319.2,265.6 321.5,264.7 323.8,264.4 326.1,264.1 328.4,264.1 330.7,263.8 333.0,263.5 335.3,263.3 337.6,263.1 339.9,263.0 344.5,262.9 346.8,262.5 349.1,262.2 351.4,261.8 353.7,261.6 358.3,261.5 363.0,261.4 365.3,261.1 367.6,260.9 369.9,260.3 372.2,259.9 374.5,259.5 376.8,259.2 379.1,258.8 381.4,258.3 383.7,257.9 386.0,257.4 388.3,256.9 390.6,256.5 392.9,256.2 395.2,255.9 397.5,255.6 399.8,255.4 402.1,255.1 404.4,254.9 406.7,254.8 409.0,254.7 413.6,254.7 415.9,253.8 418.2,253.1 420.5,253.0 422.8,253.0 427.4,252.9 429.8,252.7 439.0,252.7 443.6,252.6 450.5,252.5 452.8,251.5 455.1,250.5 457.4,250.2 459.7,249.4 462.0,248.8 464.3,248.3 466.6,248.1 468.9,247.7 471.2,247.5 473.5,247.4 475.8,247.2 478.1,247.2 491.9,246.4 494.2,245.5 496.6,245.4 498.9,245.2 501.2,245.2 517.3,245.1 538.0,244.2 540.3,243.5 542.6,242.6 544.9,241.3 547.2,241.1 549.5,240.7 551.8,239.9 554.1,239.4 556.4,238.2 558.7,236.3 561.0,234.5 563.3,232.4 565.7,230.3 568.0,228.3 570.3,227.2 572.6,225.7 574.9,223.6 577.2,221.9 579.5,220.7 581.8,219.4 584.1,217.7 586.4,216.6 588.7,215.5 591.0,214.5 593.3,213.8 595.6,212.9 597.9,212.3 600.2,211.6 602.5,211.1 604.8,209.4 607.1,208.1 609.4,207.4 611.7,207.1 614.0,206.7 616.3,206.1 618.6,205.5 620.9,204.4 623.2,203.7 625.5,203.0 627.8,202.9 630.1,202.7 632.4,202.2 634.8,200.8 637.1,198.7 639.4,196.5 641.7,194.2 644.0,192.4 646.3,190.2 648.6,188.0 650.9,185.6 653.2,183.5 655.5,181.9 657.8,180.7 660.1,179.3 662.4,177.9 664.7,177.0 667.0,175.9 669.3,175.1 671.6,173.9 673.9,172.3 676.2,170.4 678.5,168.8 680.8,167.4 683.1,166.5 685.4,165.6 687.7,164.8 690.0,163.9 692.3,162.3 694.6,161.0 696.9,159.4 699.2,157.8 701.6,156.4 703.9,155.3 706.2,154.9 708.5,154.2 710.8,153.6 713.1,153.5 715.4,153.4 717.7,153.1 720.0,152.9 722.3,152.9 724.6,152.7 726.9,152.6 733.8,152.5 736.1,152.5 738.4,152.2 740.7,150.3 743.0,148.7 745.3,147.3 747.6,145.7 749.9,144.3 752.2,142.9 754.5,141.4 756.8,140.0 759.1,138.5 761.4,137.1 763.7,135.7 766.0,134.3 768.3,133.0 770.7,131.7 773.0,130.3 775.3,129.2 777.6,127.9 779.9,126.6 782.2,125.3 784.5,124.2 786.8,122.9 789.1,122.1 791.4,121.3 793.7,120.5 796.0,119.3 798.3,118.2 800.6,117.2 802.9,116.0 805.2,114.9 807.5,114.0 809.8,112.9 812.1,111.8 814.4,110.7 816.7,109.7 819.0,108.5 821.3,107.6 823.6,106.5 825.9,105.7 828.2,104.8 830.5,103.7 832.8,102.8 835.1,101.9 837.4,101.2 839.8,100.5 842.1,100.1 844.4,100.0 846.7,99.0 849.0,98.1 851.3,97.2 853.6,96.3 855.9,95.5 858.2,94.6 860.5,93.7 862.8,92.8 865.1,92.0 867.4,91.2 869.7,90.5 872.0,90.0" fill="none" stroke="#38bdf8" stroke-width="2.5" stroke-linejoin="round" stroke-linecap="round"/>
<circle cx="872.0" cy="90.0" r="4" fill="#0ea5e9"/>
<text x="866.0" y="80.0" text-anchor="end" font-family="Inter, system-ui, sans-serif" font-size="13" font-weight="700" fill="#334155">3985</text>
<text x="52.0" y="294" text-anchor="middle" font-family="Inter, system-ui, sans-serif" font-size="11" fill="#94a3b8">Jun 10 05:00</text>
<text x="574.9" y="294" text-anchor="middle" font-family="Inter, system-ui, sans-serif" font-size="11" fill="#94a3b8">Jun 19 16:00</text>
<text x="872.0" y="294" text-anchor="middle" font-family="Inter, system-ui, sans-serif" font-size="11" fill="#94a3b8">Jun 25 01:00</text>
</svg>
