<svg xmlns="http://www.w3.org/2000/svg" width="900" height="320" viewBox="0 0 900 320" role="img" aria-labelledby="title desc">
<title id="title">unsorry proofs over time</title>
<desc id="desc">Cumulative kernel-verified proofs over time, by the hour each proof was merged.</desc>
<rect width="900" height="100%" rx="18" fill="#ffffff"/>
<rect x="0.5" y="0.5" width="899" height="319" rx="18" fill="none" stroke="#e2e8f0"/>
<text x="32" y="44" font-family="Inter, system-ui, sans-serif" font-size="28" font-weight="700" fill="#334155">unsorry — Proofs Over Time</text>
<text x="32" y="72" font-family="Inter, system-ui, sans-serif" font-size="13" fill="#64748b">2982 cumulative kernel-verified proofs · merged, hourly</text>
<line x1="52" y1="272.0" x2="872" y2="272.0" stroke="#f1f5f9"/>
<text x="44" y="276.0" text-anchor="end" font-family="Inter, system-ui, sans-serif" font-size="11" fill="#94a3b8">0</text>
<line x1="52" y1="226.5" x2="872" y2="226.5" stroke="#f1f5f9"/>
<text x="44" y="230.5" text-anchor="end" font-family="Inter, system-ui, sans-serif" font-size="11" fill="#94a3b8">746</text>
<line x1="52" y1="181.0" x2="872" y2="181.0" stroke="#f1f5f9"/>
<text x="44" y="185.0" text-anchor="end" font-family="Inter, system-ui, sans-serif" font-size="11" fill="#94a3b8">1491</text>
<line x1="52" y1="135.5" x2="872" y2="135.5" stroke="#f1f5f9"/>
<text x="44" y="139.5" text-anchor="end" font-family="Inter, system-ui, sans-serif" font-size="11" fill="#94a3b8">2236</text>
<line x1="52" y1="90.0" x2="872" y2="90.0" stroke="#f1f5f9"/>
<text x="44" y="94.0" text-anchor="end" font-family="Inter, system-ui, sans-serif" font-size="11" fill="#94a3b8">2982</text>
<polygon points="52.0,272.0 52.0,271.9 54.7,271.8 86.5,271.2 89.2,271.0 91.8,271.0 99.8,270.9 115.7,270.8 150.2,270.8 152.8,270.2 155.5,270.2 163.5,270.0 166.1,270.0 168.8,269.9 171.4,269.7 176.7,269.7 179.4,269.4 187.3,269.1 198.0,269.0 200.6,268.8 203.3,268.7 224.5,268.6 229.8,268.6 243.1,268.5 245.7,268.5 248.4,268.3 259.0,268.3 261.6,267.9 264.3,267.6 267.0,266.8 269.6,266.7 288.2,266.6 296.1,266.6 301.4,266.5 304.1,266.4 306.8,266.1 309.4,266.1 312.1,266.0 314.7,265.8 317.4,265.7 328.0,265.3 333.3,265.3 343.9,265.2 346.6,264.9 349.2,264.9 351.9,264.7 357.2,264.7 359.8,263.5 362.5,262.2 365.1,261.8 367.8,261.5 370.4,261.4 373.1,261.1 375.8,260.6 378.4,260.3 381.1,260.2 383.7,260.0 389.0,259.9 391.7,259.4 394.3,258.9 397.0,258.4 399.6,258.1 404.9,258.0 410.3,257.9 412.9,257.5 415.6,257.2 418.2,256.3 420.9,255.8 423.5,255.3 426.2,254.8 428.8,254.3 431.5,253.8 434.1,253.1 436.8,252.5 439.4,251.9 442.1,251.3 444.8,250.9 447.4,250.5 450.1,250.0 452.7,249.8 455.4,249.5 458.0,249.2 460.7,249.1 463.3,248.9 468.6,248.9 471.3,247.6 473.9,246.8 476.6,246.6 479.2,246.5 484.6,246.4 487.2,246.2 497.8,246.2 503.1,246.1 511.1,246.0 513.7,244.6 516.4,243.3 519.1,242.9 521.7,241.8 524.4,240.9 527.0,240.4 529.7,240.1 532.3,239.5 535.0,239.3 537.6,239.2 540.3,238.9 542.9,238.8 558.9,237.8 561.5,236.6 564.2,236.4 566.8,236.2 569.5,236.2 588.1,236.1 611.9,234.8 614.6,233.9 617.2,232.7 619.9,231.0 622.6,230.7 625.2,230.1 627.9,229.2 630.5,228.4 633.2,226.8 635.8,224.3 638.5,222.0 641.1,219.1 643.8,216.2 646.4,213.7 649.1,212.1 651.7,210.2 654.4,207.4 657.0,205.0 659.7,203.4 662.4,201.8 665.0,199.4 667.7,198.0 670.3,196.5 673.0,195.2 675.6,194.2 678.3,193.0 680.9,192.2 683.6,191.3 686.2,190.6 688.9,188.4 691.5,186.6 694.2,185.6 696.9,185.3 699.5,184.8 702.2,183.9 704.8,183.1 707.5,181.6 710.1,180.7 712.8,179.8 715.4,179.7 718.1,179.4 720.7,178.7 723.4,176.9 726.0,174.0 728.7,171.1 731.4,168.1 734.0,165.6 736.7,162.8 739.3,159.7 742.0,156.6 744.6,153.7 747.3,151.6 749.9,150.0 752.6,148.1 755.2,146.3 757.9,145.1 760.5,143.6 763.2,142.5 765.9,140.9 768.5,138.8 771.2,136.2 773.8,134.1 776.5,132.2 779.1,131.0 781.8,129.9 784.4,128.8 787.1,127.5 789.7,125.5 792.4,123.7 795.0,121.6 797.7,119.4 800.3,117.5 803.0,116.1 805.7,115.5 808.3,114.6 811.0,113.7 813.6,113.6 816.3,113.5 818.9,113.1 821.6,112.9 824.2,112.8 826.9,112.5 829.5,112.4 837.5,112.3 840.2,112.3 842.8,111.9 845.5,109.4 848.1,107.3 850.8,105.4 853.4,103.2 856.1,101.4 858.7,99.5 861.4,97.4 864.0,95.6 866.7,93.6 869.3,91.8 872.0,90.0 872.0,272.0" fill="#e0f2fe" opacity="0.55"/>
<polyline points="52.0,271.9 54.7,271.8 86.5,271.2 89.2,271.0 91.8,271.0 99.8,270.9 115.7,270.8 150.2,270.8 152.8,270.2 155.5,270.2 163.5,270.0 166.1,270.0 168.8,269.9 171.4,269.7 176.7,269.7 179.4,269.4 187.3,269.1 198.0,269.0 200.6,268.8 203.3,268.7 224.5,268.6 229.8,268.6 243.1,268.5 245.7,268.5 248.4,268.3 259.0,268.3 261.6,267.9 264.3,267.6 267.0,266.8 269.6,266.7 288.2,266.6 296.1,266.6 301.4,266.5 304.1,266.4 306.8,266.1 309.4,266.1 312.1,266.0 314.7,265.8 317.4,265.7 328.0,265.3 333.3,265.3 343.9,265.2 346.6,264.9 349.2,264.9 351.9,264.7 357.2,264.7 359.8,263.5 362.5,262.2 365.1,261.8 367.8,261.5 370.4,261.4 373.1,261.1 375.8,260.6 378.4,260.3 381.1,260.2 383.7,260.0 389.0,259.9 391.7,259.4 394.3,258.9 397.0,258.4 399.6,258.1 404.9,258.0 410.3,257.9 412.9,257.5 415.6,257.2 418.2,256.3 420.9,255.8 423.5,255.3 426.2,254.8 428.8,254.3 431.5,253.8 434.1,253.1 436.8,252.5 439.4,251.9 442.1,251.3 444.8,250.9 447.4,250.5 450.1,250.0 452.7,249.8 455.4,249.5 458.0,249.2 460.7,249.1 463.3,248.9 468.6,248.9 471.3,247.6 473.9,246.8 476.6,246.6 479.2,246.5 484.6,246.4 487.2,246.2 497.8,246.2 503.1,246.1 511.1,246.0 513.7,244.6 516.4,243.3 519.1,242.9 521.7,241.8 524.4,240.9 527.0,240.4 529.7,240.1 532.3,239.5 535.0,239.3 537.6,239.2 540.3,238.9 542.9,238.8 558.9,237.8 561.5,236.6 564.2,236.4 566.8,236.2 569.5,236.2 588.1,236.1 611.9,234.8 614.6,233.9 617.2,232.7 619.9,231.0 622.6,230.7 625.2,230.1 627.9,229.2 630.5,228.4 633.2,226.8 635.8,224.3 638.5,222.0 641.1,219.1 643.8,216.2 646.4,213.7 649.1,212.1 651.7,210.2 654.4,207.4 657.0,205.0 659.7,203.4 662.4,201.8 665.0,199.4 667.7,198.0 670.3,196.5 673.0,195.2 675.6,194.2 678.3,193.0 680.9,192.2 683.6,191.3 686.2,190.6 688.9,188.4 691.5,186.6 694.2,185.6 696.9,185.3 699.5,184.8 702.2,183.9 704.8,183.1 707.5,181.6 710.1,180.7 712.8,179.8 715.4,179.7 718.1,179.4 720.7,178.7 723.4,176.9 726.0,174.0 728.7,171.1 731.4,168.1 734.0,165.6 736.7,162.8 739.3,159.7 742.0,156.6 744.6,153.7 747.3,151.6 749.9,150.0 752.6,148.1 755.2,146.3 757.9,145.1 760.5,143.6 763.2,142.5 765.9,140.9 768.5,138.8 771.2,136.2 773.8,134.1 776.5,132.2 779.1,131.0 781.8,129.9 784.4,128.8 787.1,127.5 789.7,125.5 792.4,123.7 795.0,121.6 797.7,119.4 800.3,117.5 803.0,116.1 805.7,115.5 808.3,114.6 811.0,113.7 813.6,113.6 816.3,113.5 818.9,113.1 821.6,112.9 824.2,112.8 826.9,112.5 829.5,112.4 837.5,112.3 840.2,112.3 842.8,111.9 845.5,109.4 848.1,107.3 850.8,105.4 853.4,103.2 856.1,101.4 858.7,99.5 861.4,97.4 864.0,95.6 866.7,93.6 869.3,91.8 872.0,90.0" fill="none" stroke="#38bdf8" stroke-width="2.5" stroke-linejoin="round" stroke-linecap="round"/>
<circle cx="872.0" cy="90.0" r="4" fill="#0ea5e9"/>
<text x="866.0" y="80.0" text-anchor="end" font-family="Inter, system-ui, sans-serif" font-size="13" font-weight="700" fill="#334155">2982</text>
<text x="52.0" y="294" text-anchor="middle" font-family="Inter, system-ui, sans-serif" font-size="11" fill="#94a3b8">Jun 10 05:00</text>
<text x="542.9" y="294" text-anchor="middle" font-family="Inter, system-ui, sans-serif" font-size="11" fill="#94a3b8">Jun 17 22:00</text>
<text x="872.0" y="294" text-anchor="middle" font-family="Inter, system-ui, sans-serif" font-size="11" fill="#94a3b8">Jun 23 02:00</text>
</svg>
