<svg xmlns="http://www.w3.org/2000/svg" width="900" height="320" viewBox="0 0 900 320" role="img" aria-labelledby="title desc">
<title id="title">unsorry proofs over time</title>
<desc id="desc">Cumulative kernel-verified proofs over time, by the hour each proof was merged.</desc>
<rect width="900" height="100%" rx="18" fill="#ffffff"/>
<rect x="0.5" y="0.5" width="899" height="319" rx="18" fill="none" stroke="#e2e8f0"/>
<text x="32" y="44" font-family="Inter, system-ui, sans-serif" font-size="28" font-weight="700" fill="#334155">unsorry — Proofs Over Time</text>
<text x="32" y="72" font-family="Inter, system-ui, sans-serif" font-size="13" fill="#64748b">4188 cumulative kernel-verified proofs · merged, hourly</text>
<line x1="52" y1="272.0" x2="872" y2="272.0" stroke="#f1f5f9"/>
<text x="44" y="276.0" text-anchor="end" font-family="Inter, system-ui, sans-serif" font-size="11" fill="#94a3b8">0</text>
<line x1="52" y1="226.5" x2="872" y2="226.5" stroke="#f1f5f9"/>
<text x="44" y="230.5" text-anchor="end" font-family="Inter, system-ui, sans-serif" font-size="11" fill="#94a3b8">1047</text>
<line x1="52" y1="181.0" x2="872" y2="181.0" stroke="#f1f5f9"/>
<text x="44" y="185.0" text-anchor="end" font-family="Inter, system-ui, sans-serif" font-size="11" fill="#94a3b8">2094</text>
<line x1="52" y1="135.5" x2="872" y2="135.5" stroke="#f1f5f9"/>
<text x="44" y="139.5" text-anchor="end" font-family="Inter, system-ui, sans-serif" font-size="11" fill="#94a3b8">3141</text>
<line x1="52" y1="90.0" x2="872" y2="90.0" stroke="#f1f5f9"/>
<text x="44" y="94.0" text-anchor="end" font-family="Inter, system-ui, sans-serif" font-size="11" fill="#94a3b8">4188</text>
<polygon points="52.0,272.0 52.0,272.0 54.2,271.9 81.0,271.4 83.2,271.3 85.4,271.3 92.1,271.2 105.5,271.2 134.4,271.1 136.7,270.7 138.9,270.7 145.6,270.6 147.8,270.6 150.0,270.5 152.3,270.4 156.7,270.3 159.0,270.1 165.6,270.0 174.6,269.9 176.8,269.7 179.0,269.7 196.8,269.6 201.3,269.6 212.4,269.5 214.7,269.5 216.9,269.4 225.8,269.3 228.0,269.1 230.3,268.9 232.5,268.3 234.7,268.2 250.3,268.2 257.0,268.1 261.5,268.1 263.7,268.0 265.9,267.8 268.1,267.8 270.4,267.7 272.6,267.6 274.8,267.5 283.7,267.3 288.2,267.2 297.1,267.2 299.3,267.0 301.6,266.9 303.8,266.8 308.2,266.8 310.5,265.9 312.7,265.0 314.9,264.7 317.2,264.5 319.4,264.4 321.6,264.2 323.8,263.9 326.1,263.7 328.3,263.6 330.5,263.5 335.0,263.4 337.2,263.0 339.4,262.7 341.7,262.3 343.9,262.1 348.4,262.0 352.8,262.0 355.0,261.7 357.3,261.4 359.5,260.8 361.7,260.5 364.0,260.1 366.2,259.8 368.4,259.4 370.6,259.0 372.9,258.6 375.1,258.1 377.3,257.7 379.6,257.3 381.8,257.0 384.0,256.7 386.2,256.4 388.5,256.2 390.7,256.0 392.9,255.7 395.2,255.7 397.4,255.6 401.8,255.5 404.1,254.7 406.3,254.1 408.5,253.9 410.8,253.9 415.2,253.8 417.4,253.7 426.3,253.6 430.8,253.5 437.5,253.5 439.7,252.5 441.9,251.5 444.2,251.3 446.4,250.5 448.6,249.9 450.9,249.5 453.1,249.3 455.3,248.9 457.5,248.7 459.8,248.6 462.0,248.4 464.2,248.4 477.6,247.7 479.8,246.8 482.1,246.7 484.3,246.5 486.5,246.5 502.1,246.4 522.2,245.5 524.4,244.8 526.6,244.0 528.8,242.8 531.1,242.6 533.3,242.2 535.5,241.5 537.8,241.0 540.0,239.8 542.2,238.1 544.4,236.4 546.7,234.4 548.9,232.3 551.1,230.5 553.4,229.3 555.6,228.0 557.8,226.0 560.0,224.3 562.3,223.2 564.5,222.0 566.7,220.3 569.0,219.3 571.2,218.2 573.4,217.3 575.6,216.6 577.9,215.7 580.1,215.2 582.3,214.5 584.6,214.0 586.8,212.5 589.0,211.2 591.2,210.5 593.5,210.3 595.7,209.9 597.9,209.2 600.2,208.7 602.4,207.6 604.6,207.0 606.8,206.4 609.1,206.3 611.3,206.0 613.5,205.6 615.8,204.3 618.0,202.3 620.2,200.1 622.4,198.0 624.7,196.3 626.9,194.2 629.1,192.0 631.3,189.8 633.6,187.8 635.8,186.3 638.0,185.1 640.3,183.8 642.5,182.5 644.7,181.6 646.9,180.6 649.2,179.8 651.4,178.7 653.6,177.1 655.9,175.3 658.1,173.8 660.3,172.4 662.5,171.6 664.8,170.8 667.0,170.0 669.2,169.1 671.5,167.7 673.7,166.4 675.9,164.9 678.1,163.3 680.4,162.0 682.6,161.0 684.8,160.5 687.1,159.9 689.3,159.3 691.5,159.2 693.7,159.1 696.0,158.8 698.2,158.7 700.4,158.7 702.7,158.4 704.9,158.4 711.6,158.3 713.8,158.3 716.0,158.0 718.2,156.2 720.5,154.7 722.7,153.4 724.9,151.8 727.2,150.5 729.4,149.1 731.6,147.7 733.8,146.4 736.1,145.0 738.3,143.7 740.5,142.3 742.8,141.0 745.0,139.8 747.2,138.5 749.4,137.2 751.7,136.1 753.9,134.9 756.1,133.7 758.4,132.5 760.6,131.3 762.8,130.2 765.0,129.4 767.3,128.6 769.5,127.8 771.7,126.7 774.0,125.7 776.2,124.7 778.4,123.5 780.6,122.5 782.9,121.6 785.1,120.6 787.3,119.6 789.6,118.6 791.8,117.6 794.0,116.5 796.2,115.6 798.5,114.6 800.7,113.7 802.9,112.9 805.2,111.9 807.4,111.0 809.6,110.2 811.8,109.5 814.1,108.8 816.3,108.4 818.5,108.3 820.8,107.4 823.0,106.6 825.2,105.7 827.4,104.8 829.7,104.0 831.9,103.2 834.1,102.3 836.3,101.5 838.6,100.7 840.8,100.0 843.0,99.3 845.3,98.5 847.5,97.6 849.7,97.0 851.9,96.2 854.2,95.4 856.4,94.6 858.6,94.0 860.9,93.1 863.1,92.5 865.3,91.9 867.5,91.0 869.8,90.1 872.0,90.0 872.0,272.0" fill="#e0f2fe" opacity="0.55"/>
<polyline points="52.0,272.0 54.2,271.9 81.0,271.4 83.2,271.3 85.4,271.3 92.1,271.2 105.5,271.2 134.4,271.1 136.7,270.7 138.9,270.7 145.6,270.6 147.8,270.6 150.0,270.5 152.3,270.4 156.7,270.3 159.0,270.1 165.6,270.0 174.6,269.9 176.8,269.7 179.0,269.7 196.8,269.6 201.3,269.6 212.4,269.5 214.7,269.5 216.9,269.4 225.8,269.3 228.0,269.1 230.3,268.9 232.5,268.3 234.7,268.2 250.3,268.2 257.0,268.1 261.5,268.1 263.7,268.0 265.9,267.8 268.1,267.8 270.4,267.7 272.6,267.6 274.8,267.5 283.7,267.3 288.2,267.2 297.1,267.2 299.3,267.0 301.6,266.9 303.8,266.8 308.2,266.8 310.5,265.9 312.7,265.0 314.9,264.7 317.2,264.5 319.4,264.4 321.6,264.2 323.8,263.9 326.1,263.7 328.3,263.6 330.5,263.5 335.0,263.4 337.2,263.0 339.4,262.7 341.7,262.3 343.9,262.1 348.4,262.0 352.8,262.0 355.0,261.7 357.3,261.4 359.5,260.8 361.7,260.5 364.0,260.1 366.2,259.8 368.4,259.4 370.6,259.0 372.9,258.6 375.1,258.1 377.3,257.7 379.6,257.3 381.8,257.0 384.0,256.7 386.2,256.4 388.5,256.2 390.7,256.0 392.9,255.7 395.2,255.7 397.4,255.6 401.8,255.5 404.1,254.7 406.3,254.1 408.5,253.9 410.8,253.9 415.2,253.8 417.4,253.7 426.3,253.6 430.8,253.5 437.5,253.5 439.7,252.5 441.9,251.5 444.2,251.3 446.4,250.5 448.6,249.9 450.9,249.5 453.1,249.3 455.3,248.9 457.5,248.7 459.8,248.6 462.0,248.4 464.2,248.4 477.6,247.7 479.8,246.8 482.1,246.7 484.3,246.5 486.5,246.5 502.1,246.4 522.2,245.5 524.4,244.8 526.6,244.0 528.8,242.8 531.1,242.6 533.3,242.2 535.5,241.5 537.8,241.0 540.0,239.8 542.2,238.1 544.4,236.4 546.7,234.4 548.9,232.3 551.1,230.5 553.4,229.3 555.6,228.0 557.8,226.0 560.0,224.3 562.3,223.2 564.5,222.0 566.7,220.3 569.0,219.3 571.2,218.2 573.4,217.3 575.6,216.6 577.9,215.7 580.1,215.2 582.3,214.5 584.6,214.0 586.8,212.5 589.0,211.2 591.2,210.5 593.5,210.3 595.7,209.9 597.9,209.2 600.2,208.7 602.4,207.6 604.6,207.0 606.8,206.4 609.1,206.3 611.3,206.0 613.5,205.6 615.8,204.3 618.0,202.3 620.2,200.1 622.4,198.0 624.7,196.3 626.9,194.2 629.1,192.0 631.3,189.8 633.6,187.8 635.8,186.3 638.0,185.1 640.3,183.8 642.5,182.5 644.7,181.6 646.9,180.6 649.2,179.8 651.4,178.7 653.6,177.1 655.9,175.3 658.1,173.8 660.3,172.4 662.5,171.6 664.8,170.8 667.0,170.0 669.2,169.1 671.5,167.7 673.7,166.4 675.9,164.9 678.1,163.3 680.4,162.0 682.6,161.0 684.8,160.5 687.1,159.9 689.3,159.3 691.5,159.2 693.7,159.1 696.0,158.8 698.2,158.7 700.4,158.7 702.7,158.4 704.9,158.4 711.6,158.3 713.8,158.3 716.0,158.0 718.2,156.2 720.5,154.7 722.7,153.4 724.9,151.8 727.2,150.5 729.4,149.1 731.6,147.7 733.8,146.4 736.1,145.0 738.3,143.7 740.5,142.3 742.8,141.0 745.0,139.8 747.2,138.5 749.4,137.2 751.7,136.1 753.9,134.9 756.1,133.7 758.4,132.5 760.6,131.3 762.8,130.2 765.0,129.4 767.3,128.6 769.5,127.8 771.7,126.7 774.0,125.7 776.2,124.7 778.4,123.5 780.6,122.5 782.9,121.6 785.1,120.6 787.3,119.6 789.6,118.6 791.8,117.6 794.0,116.5 796.2,115.6 798.5,114.6 800.7,113.7 802.9,112.9 805.2,111.9 807.4,111.0 809.6,110.2 811.8,109.5 814.1,108.8 816.3,108.4 818.5,108.3 820.8,107.4 823.0,106.6 825.2,105.7 827.4,104.8 829.7,104.0 831.9,103.2 834.1,102.3 836.3,101.5 838.6,100.7 840.8,100.0 843.0,99.3 845.3,98.5 847.5,97.6 849.7,97.0 851.9,96.2 854.2,95.4 856.4,94.6 858.6,94.0 860.9,93.1 863.1,92.5 865.3,91.9 867.5,91.0 869.8,90.1 872.0,90.0" fill="none" stroke="#38bdf8" stroke-width="2.5" stroke-linejoin="round" stroke-linecap="round"/>
<circle cx="872.0" cy="90.0" r="4" fill="#0ea5e9"/>
<text x="866.0" y="80.0" text-anchor="end" font-family="Inter, system-ui, sans-serif" font-size="13" font-weight="700" fill="#334155">4188</text>
<text x="52.0" y="294" text-anchor="middle" font-family="Inter, system-ui, sans-serif" font-size="11" fill="#94a3b8">Jun 10 05:00</text>
<text x="571.2" y="294" text-anchor="middle" font-family="Inter, system-ui, sans-serif" font-size="11" fill="#94a3b8">Jun 19 22:00</text>
<text x="872.0" y="294" text-anchor="middle" font-family="Inter, system-ui, sans-serif" font-size="11" fill="#94a3b8">Jun 25 13:00</text>
</svg>
