<svg xmlns="http://www.w3.org/2000/svg" width="900" height="320" viewBox="0 0 900 320" role="img" aria-labelledby="title desc">
<title id="title">unsorry proofs over time</title>
<desc id="desc">Cumulative kernel-verified proofs over time, by the hour each proof was merged.</desc>
<rect width="900" height="100%" rx="18" fill="#ffffff"/>
<rect x="0.5" y="0.5" width="899" height="319" rx="18" fill="none" stroke="#e2e8f0"/>
<text x="32" y="44" font-family="Inter, system-ui, sans-serif" font-size="28" font-weight="700" fill="#334155">unsorry — Proofs Over Time</text>
<text x="32" y="72" font-family="Inter, system-ui, sans-serif" font-size="13" fill="#64748b">4588 cumulative kernel-verified proofs · merged, hourly</text>
<line x1="52" y1="272.0" x2="872" y2="272.0" stroke="#f1f5f9"/>
<text x="44" y="276.0" text-anchor="end" font-family="Inter, system-ui, sans-serif" font-size="11" fill="#94a3b8">0</text>
<line x1="52" y1="226.5" x2="872" y2="226.5" stroke="#f1f5f9"/>
<text x="44" y="230.5" text-anchor="end" font-family="Inter, system-ui, sans-serif" font-size="11" fill="#94a3b8">1147</text>
<line x1="52" y1="181.0" x2="872" y2="181.0" stroke="#f1f5f9"/>
<text x="44" y="185.0" text-anchor="end" font-family="Inter, system-ui, sans-serif" font-size="11" fill="#94a3b8">2294</text>
<line x1="52" y1="135.5" x2="872" y2="135.5" stroke="#f1f5f9"/>
<text x="44" y="139.5" text-anchor="end" font-family="Inter, system-ui, sans-serif" font-size="11" fill="#94a3b8">3441</text>
<line x1="52" y1="90.0" x2="872" y2="90.0" stroke="#f1f5f9"/>
<text x="44" y="94.0" text-anchor="end" font-family="Inter, system-ui, sans-serif" font-size="11" fill="#94a3b8">4588</text>
<polygon points="52.0,272.0 52.0,272.0 54.1,271.9 79.1,271.5 81.2,271.4 83.3,271.3 89.6,271.3 102.1,271.2 129.2,271.2 131.3,270.8 133.4,270.8 139.6,270.7 141.7,270.7 143.8,270.7 145.9,270.5 150.1,270.5 152.2,270.3 158.4,270.1 166.8,270.1 168.8,269.9 170.9,269.9 187.6,269.8 191.8,269.8 202.2,269.7 204.3,269.7 206.4,269.6 214.7,269.6 216.8,269.3 218.9,269.1 221.0,268.6 223.1,268.5 237.7,268.5 244.0,268.5 248.1,268.4 250.2,268.4 252.3,268.2 254.4,268.2 256.5,268.1 258.6,268.0 260.7,267.9 269.0,267.7 273.2,267.6 281.5,267.6 283.6,267.4 285.7,267.4 287.8,267.3 291.9,267.2 294.0,266.4 296.1,265.7 298.2,265.4 300.3,265.2 302.4,265.1 304.5,264.9 306.6,264.6 308.6,264.4 310.7,264.3 312.8,264.2 317.0,264.1 319.1,263.8 321.2,263.5 323.2,263.2 325.3,263.0 329.5,262.9 333.7,262.8 335.8,262.6 337.9,262.4 339.9,261.8 342.0,261.5 344.1,261.2 346.2,260.9 348.3,260.5 350.4,260.1 352.5,259.7 354.5,259.3 356.6,258.9 358.7,258.6 360.8,258.3 362.9,258.0 365.0,257.7 367.1,257.6 369.2,257.4 371.2,257.2 373.3,257.1 375.4,257.0 379.6,257.0 381.7,256.2 383.8,255.6 385.8,255.5 387.9,255.5 392.1,255.4 394.2,255.3 402.5,255.2 406.7,255.1 413.0,255.1 415.1,254.2 417.1,253.3 419.2,253.1 421.3,252.4 423.4,251.8 425.5,251.5 427.6,251.3 429.7,250.9 431.7,250.7 433.8,250.7 435.9,250.5 438.0,250.4 450.5,249.8 452.6,249.0 454.7,248.9 456.8,248.8 458.9,248.7 473.5,248.7 492.3,247.8 494.3,247.2 496.4,246.5 498.5,245.3 500.6,245.1 502.7,244.8 504.8,244.2 506.9,243.7 508.9,242.6 511.0,241.0 513.1,239.5 515.2,237.6 517.3,235.7 519.4,234.1 521.5,233.0 523.6,231.8 525.6,230.0 527.7,228.4 529.8,227.4 531.9,226.3 534.0,224.8 536.1,223.9 538.2,222.9 540.2,222.1 542.3,221.5 544.4,220.6 546.5,220.1 548.6,219.6 550.7,219.1 552.8,217.7 554.8,216.5 556.9,215.9 559.0,215.7 561.1,215.3 563.2,214.7 565.3,214.2 567.4,213.3 569.5,212.7 571.5,212.1 573.6,212.0 575.7,211.8 577.8,211.3 579.9,210.2 582.0,208.3 584.1,206.4 586.1,204.4 588.2,202.9 590.3,201.0 592.4,199.0 594.5,197.0 596.6,195.1 598.7,193.8 600.8,192.7 602.8,191.5 604.9,190.3 607.0,189.5 609.1,188.5 611.2,187.8 613.3,186.8 615.4,185.4 617.4,183.7 619.5,182.3 621.6,181.1 623.7,180.3 625.8,179.6 627.9,178.9 630.0,178.1 632.1,176.8 634.1,175.6 636.2,174.2 638.3,172.8 640.4,171.6 642.5,170.6 644.6,170.2 646.7,169.7 648.7,169.1 650.8,169.1 652.9,169.0 655.0,168.7 657.1,168.6 659.2,168.5 661.3,168.3 663.3,168.3 669.6,168.2 671.7,168.2 673.8,167.9 675.9,166.3 678.0,164.9 680.0,163.7 682.1,162.3 684.2,161.1 686.3,159.9 688.4,158.5 690.5,157.4 692.6,156.0 694.6,154.9 696.7,153.6 698.8,152.4 700.9,151.3 703.0,150.1 705.1,148.9 707.2,148.0 709.3,146.8 711.3,145.7 713.4,144.6 715.5,143.6 717.6,142.5 719.7,141.8 721.8,141.1 723.9,140.4 725.9,139.3 728.0,138.4 730.1,137.6 732.2,136.5 734.3,135.6 736.4,134.7 738.5,133.8 740.5,132.8 742.6,131.9 744.7,131.1 746.8,130.0 748.9,129.2 751.0,128.3 753.1,127.5 755.2,126.8 757.2,125.9 759.3,125.0 761.4,124.3 763.5,123.6 765.6,123.0 767.7,122.7 769.8,122.6 771.8,121.7 773.9,121.0 776.0,120.2 778.1,119.4 780.2,118.7 782.3,117.9 784.4,117.1 786.5,116.4 788.5,115.7 790.6,115.0 792.7,114.3 794.8,113.6 796.9,112.8 799.0,112.2 801.1,111.5 803.1,110.8 805.2,110.1 807.3,109.5 809.4,108.7 811.5,108.2 813.6,107.6 815.7,106.8 817.8,106.0 819.8,105.4 821.9,104.6 824.0,103.9 826.1,103.3 828.2,102.7 830.3,101.9 832.4,101.3 834.4,100.9 836.5,100.3 838.6,99.6 840.7,98.9 842.8,98.1 844.9,97.4 847.0,96.7 849.0,96.1 851.1,95.6 853.2,94.8 855.3,94.2 857.4,93.6 859.5,93.0 861.6,92.2 863.7,91.8 865.7,91.1 867.8,90.4 869.9,90.2 872.0,90.0 872.0,272.0" fill="#e0f2fe" opacity="0.55"/>
<polyline points="52.0,272.0 54.1,271.9 79.1,271.5 81.2,271.4 83.3,271.3 89.6,271.3 102.1,271.2 129.2,271.2 131.3,270.8 133.4,270.8 139.6,270.7 141.7,270.7 143.8,270.7 145.9,270.5 150.1,270.5 152.2,270.3 158.4,270.1 166.8,270.1 168.8,269.9 170.9,269.9 187.6,269.8 191.8,269.8 202.2,269.7 204.3,269.7 206.4,269.6 214.7,269.6 216.8,269.3 218.9,269.1 221.0,268.6 223.1,268.5 237.7,268.5 244.0,268.5 248.1,268.4 250.2,268.4 252.3,268.2 254.4,268.2 256.5,268.1 258.6,268.0 260.7,267.9 269.0,267.7 273.2,267.6 281.5,267.6 283.6,267.4 285.7,267.4 287.8,267.3 291.9,267.2 294.0,266.4 296.1,265.7 298.2,265.4 300.3,265.2 302.4,265.1 304.5,264.9 306.6,264.6 308.6,264.4 310.7,264.3 312.8,264.2 317.0,264.1 319.1,263.8 321.2,263.5 323.2,263.2 325.3,263.0 329.5,262.9 333.7,262.8 335.8,262.6 337.9,262.4 339.9,261.8 342.0,261.5 344.1,261.2 346.2,260.9 348.3,260.5 350.4,260.1 352.5,259.7 354.5,259.3 356.6,258.9 358.7,258.6 360.8,258.3 362.9,258.0 365.0,257.7 367.1,257.6 369.2,257.4 371.2,257.2 373.3,257.1 375.4,257.0 379.6,257.0 381.7,256.2 383.8,255.6 385.8,255.5 387.9,255.5 392.1,255.4 394.2,255.3 402.5,255.2 406.7,255.1 413.0,255.1 415.1,254.2 417.1,253.3 419.2,253.1 421.3,252.4 423.4,251.8 425.5,251.5 427.6,251.3 429.7,250.9 431.7,250.7 433.8,250.7 435.9,250.5 438.0,250.4 450.5,249.8 452.6,249.0 454.7,248.9 456.8,248.8 458.9,248.7 473.5,248.7 492.3,247.8 494.3,247.2 496.4,246.5 498.5,245.3 500.6,245.1 502.7,244.8 504.8,244.2 506.9,243.7 508.9,242.6 511.0,241.0 513.1,239.5 515.2,237.6 517.3,235.7 519.4,234.1 521.5,233.0 523.6,231.8 525.6,230.0 527.7,228.4 529.8,227.4 531.9,226.3 534.0,224.8 536.1,223.9 538.2,222.9 540.2,222.1 542.3,221.5 544.4,220.6 546.5,220.1 548.6,219.6 550.7,219.1 552.8,217.7 554.8,216.5 556.9,215.9 559.0,215.7 561.1,215.3 563.2,214.7 565.3,214.2 567.4,213.3 569.5,212.7 571.5,212.1 573.6,212.0 575.7,211.8 577.8,211.3 579.9,210.2 582.0,208.3 584.1,206.4 586.1,204.4 588.2,202.9 590.3,201.0 592.4,199.0 594.5,197.0 596.6,195.1 598.7,193.8 600.8,192.7 602.8,191.5 604.9,190.3 607.0,189.5 609.1,188.5 611.2,187.8 613.3,186.8 615.4,185.4 617.4,183.7 619.5,182.3 621.6,181.1 623.7,180.3 625.8,179.6 627.9,178.9 630.0,178.1 632.1,176.8 634.1,175.6 636.2,174.2 638.3,172.8 640.4,171.6 642.5,170.6 644.6,170.2 646.7,169.7 648.7,169.1 650.8,169.1 652.9,169.0 655.0,168.7 657.1,168.6 659.2,168.5 661.3,168.3 663.3,168.3 669.6,168.2 671.7,168.2 673.8,167.9 675.9,166.3 678.0,164.9 680.0,163.7 682.1,162.3 684.2,161.1 686.3,159.9 688.4,158.5 690.5,157.4 692.6,156.0 694.6,154.9 696.7,153.6 698.8,152.4 700.9,151.3 703.0,150.1 705.1,148.9 707.2,148.0 709.3,146.8 711.3,145.7 713.4,144.6 715.5,143.6 717.6,142.5 719.7,141.8 721.8,141.1 723.9,140.4 725.9,139.3 728.0,138.4 730.1,137.6 732.2,136.5 734.3,135.6 736.4,134.7 738.5,133.8 740.5,132.8 742.6,131.9 744.7,131.1 746.8,130.0 748.9,129.2 751.0,128.3 753.1,127.5 755.2,126.8 757.2,125.9 759.3,125.0 761.4,124.3 763.5,123.6 765.6,123.0 767.7,122.7 769.8,122.6 771.8,121.7 773.9,121.0 776.0,120.2 778.1,119.4 780.2,118.7 782.3,117.9 784.4,117.1 786.5,116.4 788.5,115.7 790.6,115.0 792.7,114.3 794.8,113.6 796.9,112.8 799.0,112.2 801.1,111.5 803.1,110.8 805.2,110.1 807.3,109.5 809.4,108.7 811.5,108.2 813.6,107.6 815.7,106.8 817.8,106.0 819.8,105.4 821.9,104.6 824.0,103.9 826.1,103.3 828.2,102.7 830.3,101.9 832.4,101.3 834.4,100.9 836.5,100.3 838.6,99.6 840.7,98.9 842.8,98.1 844.9,97.4 847.0,96.7 849.0,96.1 851.1,95.6 853.2,94.8 855.3,94.2 857.4,93.6 859.5,93.0 861.6,92.2 863.7,91.8 865.7,91.1 867.8,90.4 869.9,90.2 872.0,90.0" fill="none" stroke="#38bdf8" stroke-width="2.5" stroke-linejoin="round" stroke-linecap="round"/>
<circle cx="872.0" cy="90.0" r="4" fill="#0ea5e9"/>
<text x="866.0" y="80.0" text-anchor="end" font-family="Inter, system-ui, sans-serif" font-size="13" font-weight="700" fill="#334155">4588</text>
<text x="52.0" y="294" text-anchor="middle" font-family="Inter, system-ui, sans-serif" font-size="11" fill="#94a3b8">Jun 10 05:00</text>
<text x="565.3" y="294" text-anchor="middle" font-family="Inter, system-ui, sans-serif" font-size="11" fill="#94a3b8">Jun 20 11:00</text>
<text x="872.0" y="294" text-anchor="middle" font-family="Inter, system-ui, sans-serif" font-size="11" fill="#94a3b8">Jun 26 14:00</text>
</svg>
