<svg xmlns="http://www.w3.org/2000/svg" width="900" height="320" viewBox="0 0 900 320" role="img" aria-labelledby="title desc">
<title id="title">unsorry proofs over time</title>
<desc id="desc">Cumulative kernel-verified proofs over time, by the hour each proof was merged.</desc>
<rect width="900" height="100%" rx="18" fill="#ffffff"/>
<rect x="0.5" y="0.5" width="899" height="319" rx="18" fill="none" stroke="#e2e8f0"/>
<text x="32" y="44" font-family="Inter, system-ui, sans-serif" font-size="28" font-weight="700" fill="#334155">unsorry — Proofs Over Time</text>
<text x="32" y="72" font-family="Inter, system-ui, sans-serif" font-size="13" fill="#64748b">4519 cumulative kernel-verified proofs · merged, hourly</text>
<line x1="52" y1="272.0" x2="872" y2="272.0" stroke="#f1f5f9"/>
<text x="44" y="276.0" text-anchor="end" font-family="Inter, system-ui, sans-serif" font-size="11" fill="#94a3b8">0</text>
<line x1="52" y1="226.5" x2="872" y2="226.5" stroke="#f1f5f9"/>
<text x="44" y="230.5" text-anchor="end" font-family="Inter, system-ui, sans-serif" font-size="11" fill="#94a3b8">1130</text>
<line x1="52" y1="181.0" x2="872" y2="181.0" stroke="#f1f5f9"/>
<text x="44" y="185.0" text-anchor="end" font-family="Inter, system-ui, sans-serif" font-size="11" fill="#94a3b8">2260</text>
<line x1="52" y1="135.5" x2="872" y2="135.5" stroke="#f1f5f9"/>
<text x="44" y="139.5" text-anchor="end" font-family="Inter, system-ui, sans-serif" font-size="11" fill="#94a3b8">3389</text>
<line x1="52" y1="90.0" x2="872" y2="90.0" stroke="#f1f5f9"/>
<text x="44" y="94.0" text-anchor="end" font-family="Inter, system-ui, sans-serif" font-size="11" fill="#94a3b8">4519</text>
<polygon points="52.0,272.0 52.0,272.0 54.1,271.9 79.5,271.5 81.6,271.4 83.7,271.3 90.0,271.3 102.7,271.2 130.2,271.2 132.3,270.8 134.4,270.8 140.8,270.7 142.9,270.7 145.0,270.6 147.1,270.5 151.3,270.5 153.4,270.3 159.8,270.1 168.2,270.0 170.4,269.9 172.5,269.8 189.4,269.8 193.6,269.7 204.2,269.7 206.3,269.7 208.4,269.6 216.8,269.5 219.0,269.3 221.1,269.1 223.2,268.6 225.3,268.5 240.1,268.5 246.4,268.4 250.7,268.4 252.8,268.3 254.9,268.1 257.0,268.1 259.1,268.1 261.2,267.9 263.3,267.8 271.8,267.6 276.0,267.6 284.5,267.5 286.6,267.3 288.7,267.3 290.8,267.2 295.0,267.2 297.2,266.4 299.3,265.6 301.4,265.3 303.5,265.1 305.6,265.0 307.7,264.8 309.8,264.5 311.9,264.3 314.1,264.2 316.2,264.1 320.4,264.0 322.5,263.7 324.6,263.3 326.7,263.0 328.9,262.8 333.1,262.7 337.3,262.7 339.4,262.4 341.5,262.2 343.6,261.6 345.8,261.3 347.9,261.0 350.0,260.7 352.1,260.3 354.2,260.0 356.3,259.6 358.4,259.1 360.6,258.7 362.7,258.3 364.8,258.1 366.9,257.8 369.0,257.5 371.1,257.3 373.2,257.1 375.4,256.9 377.5,256.9 379.6,256.8 383.8,256.7 385.9,255.9 388.0,255.4 390.1,255.2 392.3,255.2 396.5,255.1 398.6,255.0 407.1,255.0 411.3,254.9 417.6,254.8 419.7,253.9 421.8,253.0 424.0,252.8 426.1,252.1 428.2,251.5 430.3,251.1 432.4,250.9 434.5,250.6 436.6,250.4 438.8,250.3 440.9,250.2 443.0,250.1 455.7,249.4 457.8,248.6 459.9,248.5 462.0,248.4 464.1,248.4 478.9,248.3 497.9,247.5 500.0,246.8 502.2,246.1 504.3,244.9 506.4,244.7 508.5,244.4 510.6,243.7 512.7,243.2 514.8,242.2 516.9,240.5 519.1,239.0 521.2,237.1 523.3,235.2 525.4,233.5 527.5,232.5 529.6,231.2 531.7,229.3 533.9,227.8 536.0,226.7 538.1,225.6 540.2,224.1 542.3,223.1 544.4,222.2 546.5,221.3 548.6,220.7 550.8,219.8 552.9,219.3 555.0,218.8 557.1,218.3 559.2,216.8 561.3,215.7 563.4,215.0 565.6,214.8 567.7,214.4 569.8,213.8 571.9,213.3 574.0,212.4 576.1,211.7 578.2,211.2 580.4,211.1 582.5,210.9 584.6,210.4 586.7,209.3 588.8,207.4 590.9,205.4 593.0,203.4 595.1,201.8 597.3,199.9 599.4,197.9 601.5,195.8 603.6,193.9 605.7,192.6 607.8,191.5 609.9,190.2 612.1,189.0 614.2,188.2 616.3,187.3 618.4,186.5 620.5,185.5 622.6,184.1 624.7,182.4 626.8,181.0 629.0,179.7 631.1,178.9 633.2,178.2 635.3,177.5 637.4,176.7 639.5,175.3 641.6,174.1 643.8,172.7 645.9,171.3 648.0,170.1 650.1,169.1 652.2,168.7 654.3,168.1 656.4,167.6 658.5,167.5 660.7,167.4 662.8,167.1 664.9,167.0 667.0,167.0 669.1,166.8 671.2,166.7 677.6,166.6 679.7,166.6 681.8,166.4 683.9,164.7 686.0,163.3 688.1,162.1 690.2,160.6 692.4,159.4 694.5,158.1 696.6,156.8 698.7,155.6 700.8,154.3 702.9,153.1 705.0,151.8 707.2,150.6 709.3,149.4 711.4,148.2 713.5,147.1 715.6,146.1 717.7,144.9 719.8,143.8 721.9,142.7 724.1,141.6 726.2,140.5 728.3,139.8 730.4,139.1 732.5,138.4 734.6,137.3 736.7,136.4 738.9,135.5 741.0,134.4 743.1,133.5 745.2,132.7 747.3,131.7 749.4,130.7 751.5,129.8 753.6,128.9 755.8,127.9 757.9,127.1 760.0,126.1 762.1,125.3 764.2,124.6 766.3,123.6 768.4,122.8 770.6,122.0 772.7,121.4 774.8,120.8 776.9,120.4 779.0,120.3 781.1,119.4 783.2,118.7 785.4,117.9 787.5,117.0 789.6,116.3 791.7,115.5 793.8,114.8 795.9,114.0 798.0,113.3 800.1,112.6 802.3,111.9 804.4,111.2 806.5,110.4 808.6,109.8 810.7,109.0 812.8,108.3 814.9,107.6 817.1,107.0 819.2,106.2 821.3,105.7 823.4,105.1 825.5,104.3 827.6,103.5 829.7,102.8 831.8,102.0 834.0,101.3 836.1,100.8 838.2,100.1 840.3,99.3 842.4,98.7 844.5,98.3 846.6,97.7 848.8,97.0 850.9,96.3 853.0,95.4 855.1,94.8 857.2,94.1 859.3,93.5 861.4,92.9 863.5,92.1 865.7,91.5 867.8,90.8 869.9,90.2 872.0,90.0 872.0,272.0" fill="#e0f2fe" opacity="0.55"/>
<polyline points="52.0,272.0 54.1,271.9 79.5,271.5 81.6,271.4 83.7,271.3 90.0,271.3 102.7,271.2 130.2,271.2 132.3,270.8 134.4,270.8 140.8,270.7 142.9,270.7 145.0,270.6 147.1,270.5 151.3,270.5 153.4,270.3 159.8,270.1 168.2,270.0 170.4,269.9 172.5,269.8 189.4,269.8 193.6,269.7 204.2,269.7 206.3,269.7 208.4,269.6 216.8,269.5 219.0,269.3 221.1,269.1 223.2,268.6 225.3,268.5 240.1,268.5 246.4,268.4 250.7,268.4 252.8,268.3 254.9,268.1 257.0,268.1 259.1,268.1 261.2,267.9 263.3,267.8 271.8,267.6 276.0,267.6 284.5,267.5 286.6,267.3 288.7,267.3 290.8,267.2 295.0,267.2 297.2,266.4 299.3,265.6 301.4,265.3 303.5,265.1 305.6,265.0 307.7,264.8 309.8,264.5 311.9,264.3 314.1,264.2 316.2,264.1 320.4,264.0 322.5,263.7 324.6,263.3 326.7,263.0 328.9,262.8 333.1,262.7 337.3,262.7 339.4,262.4 341.5,262.2 343.6,261.6 345.8,261.3 347.9,261.0 350.0,260.7 352.1,260.3 354.2,260.0 356.3,259.6 358.4,259.1 360.6,258.7 362.7,258.3 364.8,258.1 366.9,257.8 369.0,257.5 371.1,257.3 373.2,257.1 375.4,256.9 377.5,256.9 379.6,256.8 383.8,256.7 385.9,255.9 388.0,255.4 390.1,255.2 392.3,255.2 396.5,255.1 398.6,255.0 407.1,255.0 411.3,254.9 417.6,254.8 419.7,253.9 421.8,253.0 424.0,252.8 426.1,252.1 428.2,251.5 430.3,251.1 432.4,250.9 434.5,250.6 436.6,250.4 438.8,250.3 440.9,250.2 443.0,250.1 455.7,249.4 457.8,248.6 459.9,248.5 462.0,248.4 464.1,248.4 478.9,248.3 497.9,247.5 500.0,246.8 502.2,246.1 504.3,244.9 506.4,244.7 508.5,244.4 510.6,243.7 512.7,243.2 514.8,242.2 516.9,240.5 519.1,239.0 521.2,237.1 523.3,235.2 525.4,233.5 527.5,232.5 529.6,231.2 531.7,229.3 533.9,227.8 536.0,226.7 538.1,225.6 540.2,224.1 542.3,223.1 544.4,222.2 546.5,221.3 548.6,220.7 550.8,219.8 552.9,219.3 555.0,218.8 557.1,218.3 559.2,216.8 561.3,215.7 563.4,215.0 565.6,214.8 567.7,214.4 569.8,213.8 571.9,213.3 574.0,212.4 576.1,211.7 578.2,211.2 580.4,211.1 582.5,210.9 584.6,210.4 586.7,209.3 588.8,207.4 590.9,205.4 593.0,203.4 595.1,201.8 597.3,199.9 599.4,197.9 601.5,195.8 603.6,193.9 605.7,192.6 607.8,191.5 609.9,190.2 612.1,189.0 614.2,188.2 616.3,187.3 618.4,186.5 620.5,185.5 622.6,184.1 624.7,182.4 626.8,181.0 629.0,179.7 631.1,178.9 633.2,178.2 635.3,177.5 637.4,176.7 639.5,175.3 641.6,174.1 643.8,172.7 645.9,171.3 648.0,170.1 650.1,169.1 652.2,168.7 654.3,168.1 656.4,167.6 658.5,167.5 660.7,167.4 662.8,167.1 664.9,167.0 667.0,167.0 669.1,166.8 671.2,166.7 677.6,166.6 679.7,166.6 681.8,166.4 683.9,164.7 686.0,163.3 688.1,162.1 690.2,160.6 692.4,159.4 694.5,158.1 696.6,156.8 698.7,155.6 700.8,154.3 702.9,153.1 705.0,151.8 707.2,150.6 709.3,149.4 711.4,148.2 713.5,147.1 715.6,146.1 717.7,144.9 719.8,143.8 721.9,142.7 724.1,141.6 726.2,140.5 728.3,139.8 730.4,139.1 732.5,138.4 734.6,137.3 736.7,136.4 738.9,135.5 741.0,134.4 743.1,133.5 745.2,132.7 747.3,131.7 749.4,130.7 751.5,129.8 753.6,128.9 755.8,127.9 757.9,127.1 760.0,126.1 762.1,125.3 764.2,124.6 766.3,123.6 768.4,122.8 770.6,122.0 772.7,121.4 774.8,120.8 776.9,120.4 779.0,120.3 781.1,119.4 783.2,118.7 785.4,117.9 787.5,117.0 789.6,116.3 791.7,115.5 793.8,114.8 795.9,114.0 798.0,113.3 800.1,112.6 802.3,111.9 804.4,111.2 806.5,110.4 808.6,109.8 810.7,109.0 812.8,108.3 814.9,107.6 817.1,107.0 819.2,106.2 821.3,105.7 823.4,105.1 825.5,104.3 827.6,103.5 829.7,102.8 831.8,102.0 834.0,101.3 836.1,100.8 838.2,100.1 840.3,99.3 842.4,98.7 844.5,98.3 846.6,97.7 848.8,97.0 850.9,96.3 853.0,95.4 855.1,94.8 857.2,94.1 859.3,93.5 861.4,92.9 863.5,92.1 865.7,91.5 867.8,90.8 869.9,90.2 872.0,90.0" fill="none" stroke="#38bdf8" stroke-width="2.5" stroke-linejoin="round" stroke-linecap="round"/>
<circle cx="872.0" cy="90.0" r="4" fill="#0ea5e9"/>
<text x="866.0" y="80.0" text-anchor="end" font-family="Inter, system-ui, sans-serif" font-size="13" font-weight="700" fill="#334155">4519</text>
<text x="52.0" y="294" text-anchor="middle" font-family="Inter, system-ui, sans-serif" font-size="11" fill="#94a3b8">Jun 10 05:00</text>
<text x="565.6" y="294" text-anchor="middle" font-family="Inter, system-ui, sans-serif" font-size="11" fill="#94a3b8">Jun 20 08:00</text>
<text x="872.0" y="294" text-anchor="middle" font-family="Inter, system-ui, sans-serif" font-size="11" fill="#94a3b8">Jun 26 09:00</text>
</svg>
