<svg xmlns="http://www.w3.org/2000/svg" width="900" height="320" viewBox="0 0 900 320" role="img" aria-labelledby="title desc">
<title id="title">unsorry proofs over time</title>
<desc id="desc">Cumulative kernel-verified proofs over time, by the hour each proof was merged.</desc>
<rect width="900" height="100%" rx="18" fill="#ffffff"/>
<rect x="0.5" y="0.5" width="899" height="319" rx="18" fill="none" stroke="#e2e8f0"/>
<text x="32" y="44" font-family="Inter, system-ui, sans-serif" font-size="28" font-weight="700" fill="#334155">unsorry — Proofs Over Time</text>
<text x="32" y="72" font-family="Inter, system-ui, sans-serif" font-size="13" fill="#64748b">3166 cumulative kernel-verified proofs · merged, hourly</text>
<line x1="52" y1="272.0" x2="872" y2="272.0" stroke="#f1f5f9"/>
<text x="44" y="276.0" text-anchor="end" font-family="Inter, system-ui, sans-serif" font-size="11" fill="#94a3b8">0</text>
<line x1="52" y1="226.5" x2="872" y2="226.5" stroke="#f1f5f9"/>
<text x="44" y="230.5" text-anchor="end" font-family="Inter, system-ui, sans-serif" font-size="11" fill="#94a3b8">792</text>
<line x1="52" y1="181.0" x2="872" y2="181.0" stroke="#f1f5f9"/>
<text x="44" y="185.0" text-anchor="end" font-family="Inter, system-ui, sans-serif" font-size="11" fill="#94a3b8">1583</text>
<line x1="52" y1="135.5" x2="872" y2="135.5" stroke="#f1f5f9"/>
<text x="44" y="139.5" text-anchor="end" font-family="Inter, system-ui, sans-serif" font-size="11" fill="#94a3b8">2374</text>
<line x1="52" y1="90.0" x2="872" y2="90.0" stroke="#f1f5f9"/>
<text x="44" y="94.0" text-anchor="end" font-family="Inter, system-ui, sans-serif" font-size="11" fill="#94a3b8">3166</text>
<polygon points="52.0,272.0 52.0,271.9 54.6,271.8 85.7,271.3 88.3,271.1 90.9,271.0 98.7,271.0 114.3,270.9 148.0,270.9 150.6,270.3 153.2,270.3 161.0,270.2 163.6,270.1 166.2,270.0 168.8,269.9 174.0,269.8 176.6,269.5 184.3,269.3 194.7,269.2 197.3,269.0 199.9,268.9 220.7,268.8 225.9,268.8 238.8,268.7 241.4,268.7 244.0,268.6 254.4,268.5 257.0,268.1 259.6,267.9 262.2,267.1 264.8,267.0 282.9,266.9 290.7,266.9 295.9,266.8 298.5,266.8 301.1,266.5 303.7,266.4 306.3,266.4 308.9,266.2 311.5,266.0 321.9,265.7 327.1,265.7 337.4,265.6 340.0,265.3 342.6,265.3 345.2,265.2 350.4,265.1 353.0,264.0 355.6,262.8 358.2,262.4 360.8,262.1 363.4,262.0 366.0,261.7 368.6,261.3 371.2,261.0 373.8,260.8 376.4,260.7 381.6,260.6 384.2,260.1 386.7,259.6 389.3,259.2 391.9,258.9 397.1,258.8 402.3,258.7 404.9,258.3 407.5,258.0 410.1,257.2 412.7,256.8 415.3,256.3 417.9,255.8 420.5,255.3 423.1,254.8 425.7,254.2 428.3,253.6 430.9,253.0 433.5,252.5 436.1,252.2 438.6,251.8 441.2,251.3 443.8,251.1 446.4,250.8 449.0,250.5 451.6,250.4 454.2,250.3 459.4,250.2 462.0,249.1 464.6,248.3 467.2,248.1 469.8,248.0 475.0,247.9 477.6,247.7 487.9,247.7 493.1,247.6 500.9,247.5 503.5,246.2 506.1,244.9 508.7,244.6 511.3,243.5 513.9,242.7 516.5,242.2 519.1,241.9 521.7,241.4 524.3,241.2 526.9,241.1 529.5,240.8 532.1,240.7 547.6,239.8 550.2,238.7 552.8,238.5 555.4,238.3 558.0,238.3 576.2,238.2 599.5,237.0 602.1,236.1 604.7,235.0 607.3,233.4 609.9,233.1 612.5,232.6 615.1,231.6 617.7,231.0 620.3,229.4 622.9,227.1 625.5,224.9 628.1,222.2 630.7,219.5 633.3,217.0 635.9,215.5 638.5,213.8 641.1,211.1 643.6,208.9 646.2,207.4 648.8,205.8 651.4,203.6 654.0,202.3 656.6,200.9 659.2,199.7 661.8,198.8 664.4,197.6 667.0,196.8 669.6,196.0 672.2,195.3 674.8,193.2 677.4,191.6 680.0,190.7 682.6,190.4 685.2,189.9 687.8,189.0 690.4,188.2 692.9,186.9 695.5,186.0 698.1,185.2 700.7,185.1 703.3,184.7 705.9,184.1 708.5,182.4 711.1,179.7 713.7,176.9 716.3,174.1 718.9,171.8 721.5,169.1 724.1,166.2 726.7,163.3 729.3,160.6 731.9,158.6 734.5,157.1 737.1,155.3 739.7,153.6 742.3,152.4 744.8,151.0 747.4,150.0 750.0,148.5 752.6,146.5 755.2,144.1 757.8,142.1 760.4,140.3 763.0,139.2 765.6,138.1 768.2,137.1 770.8,135.9 773.4,134.0 776.0,132.3 778.6,130.3 781.2,128.2 783.8,126.5 786.4,125.1 789.0,124.5 791.6,123.7 794.2,122.9 796.7,122.8 799.3,122.7 801.9,122.3 804.5,122.1 807.1,122.1 809.7,121.8 812.3,121.7 820.1,121.6 822.7,121.6 825.3,121.2 827.9,118.9 830.5,116.8 833.1,115.1 835.7,113.1 838.3,111.3 840.9,109.5 843.5,107.6 846.1,105.9 848.6,104.0 851.2,102.2 853.8,100.5 856.4,98.7 859.0,97.1 861.6,95.3 864.2,93.7 866.8,92.2 869.4,90.6 872.0,90.0 872.0,272.0" fill="#e0f2fe" opacity="0.55"/>
<polyline points="52.0,271.9 54.6,271.8 85.7,271.3 88.3,271.1 90.9,271.0 98.7,271.0 114.3,270.9 148.0,270.9 150.6,270.3 153.2,270.3 161.0,270.2 163.6,270.1 166.2,270.0 168.8,269.9 174.0,269.8 176.6,269.5 184.3,269.3 194.7,269.2 197.3,269.0 199.9,268.9 220.7,268.8 225.9,268.8 238.8,268.7 241.4,268.7 244.0,268.6 254.4,268.5 257.0,268.1 259.6,267.9 262.2,267.1 264.8,267.0 282.9,266.9 290.7,266.9 295.9,266.8 298.5,266.8 301.1,266.5 303.7,266.4 306.3,266.4 308.9,266.2 311.5,266.0 321.9,265.7 327.1,265.7 337.4,265.6 340.0,265.3 342.6,265.3 345.2,265.2 350.4,265.1 353.0,264.0 355.6,262.8 358.2,262.4 360.8,262.1 363.4,262.0 366.0,261.7 368.6,261.3 371.2,261.0 373.8,260.8 376.4,260.7 381.6,260.6 384.2,260.1 386.7,259.6 389.3,259.2 391.9,258.9 397.1,258.8 402.3,258.7 404.9,258.3 407.5,258.0 410.1,257.2 412.7,256.8 415.3,256.3 417.9,255.8 420.5,255.3 423.1,254.8 425.7,254.2 428.3,253.6 430.9,253.0 433.5,252.5 436.1,252.2 438.6,251.8 441.2,251.3 443.8,251.1 446.4,250.8 449.0,250.5 451.6,250.4 454.2,250.3 459.4,250.2 462.0,249.1 464.6,248.3 467.2,248.1 469.8,248.0 475.0,247.9 477.6,247.7 487.9,247.7 493.1,247.6 500.9,247.5 503.5,246.2 506.1,244.9 508.7,244.6 511.3,243.5 513.9,242.7 516.5,242.2 519.1,241.9 521.7,241.4 524.3,241.2 526.9,241.1 529.5,240.8 532.1,240.7 547.6,239.8 550.2,238.7 552.8,238.5 555.4,238.3 558.0,238.3 576.2,238.2 599.5,237.0 602.1,236.1 604.7,235.0 607.3,233.4 609.9,233.1 612.5,232.6 615.1,231.6 617.7,231.0 620.3,229.4 622.9,227.1 625.5,224.9 628.1,222.2 630.7,219.5 633.3,217.0 635.9,215.5 638.5,213.8 641.1,211.1 643.6,208.9 646.2,207.4 648.8,205.8 651.4,203.6 654.0,202.3 656.6,200.9 659.2,199.7 661.8,198.8 664.4,197.6 667.0,196.8 669.6,196.0 672.2,195.3 674.8,193.2 677.4,191.6 680.0,190.7 682.6,190.4 685.2,189.9 687.8,189.0 690.4,188.2 692.9,186.9 695.5,186.0 698.1,185.2 700.7,185.1 703.3,184.7 705.9,184.1 708.5,182.4 711.1,179.7 713.7,176.9 716.3,174.1 718.9,171.8 721.5,169.1 724.1,166.2 726.7,163.3 729.3,160.6 731.9,158.6 734.5,157.1 737.1,155.3 739.7,153.6 742.3,152.4 744.8,151.0 747.4,150.0 750.0,148.5 752.6,146.5 755.2,144.1 757.8,142.1 760.4,140.3 763.0,139.2 765.6,138.1 768.2,137.1 770.8,135.9 773.4,134.0 776.0,132.3 778.6,130.3 781.2,128.2 783.8,126.5 786.4,125.1 789.0,124.5 791.6,123.7 794.2,122.9 796.7,122.8 799.3,122.7 801.9,122.3 804.5,122.1 807.1,122.1 809.7,121.8 812.3,121.7 820.1,121.6 822.7,121.6 825.3,121.2 827.9,118.9 830.5,116.8 833.1,115.1 835.7,113.1 838.3,111.3 840.9,109.5 843.5,107.6 846.1,105.9 848.6,104.0 851.2,102.2 853.8,100.5 856.4,98.7 859.0,97.1 861.6,95.3 864.2,93.7 866.8,92.2 869.4,90.6 872.0,90.0" fill="none" stroke="#38bdf8" stroke-width="2.5" stroke-linejoin="round" stroke-linecap="round"/>
<circle cx="872.0" cy="90.0" r="4" fill="#0ea5e9"/>
<text x="866.0" y="80.0" text-anchor="end" font-family="Inter, system-ui, sans-serif" font-size="13" font-weight="700" fill="#334155">3166</text>
<text x="52.0" y="294" text-anchor="middle" font-family="Inter, system-ui, sans-serif" font-size="11" fill="#94a3b8">Jun 10 05:00</text>
<text x="552.8" y="294" text-anchor="middle" font-family="Inter, system-ui, sans-serif" font-size="11" fill="#94a3b8">Jun 18 06:00</text>
<text x="872.0" y="294" text-anchor="middle" font-family="Inter, system-ui, sans-serif" font-size="11" fill="#94a3b8">Jun 23 09:00</text>
</svg>
