<svg xmlns="http://www.w3.org/2000/svg" width="900" height="320" viewBox="0 0 900 320" role="img" aria-labelledby="title desc">
<title id="title">unsorry proofs over time</title>
<desc id="desc">Cumulative kernel-verified proofs over time, by the hour each proof was merged.</desc>
<rect width="900" height="100%" rx="18" fill="#ffffff"/>
<rect x="0.5" y="0.5" width="899" height="319" rx="18" fill="none" stroke="#e2e8f0"/>
<text x="32" y="44" font-family="Inter, system-ui, sans-serif" font-size="28" font-weight="700" fill="#334155">unsorry — Proofs Over Time</text>
<text x="32" y="72" font-family="Inter, system-ui, sans-serif" font-size="13" fill="#64748b">4483 cumulative kernel-verified proofs · merged, hourly</text>
<line x1="52" y1="272.0" x2="872" y2="272.0" stroke="#f1f5f9"/>
<text x="44" y="276.0" text-anchor="end" font-family="Inter, system-ui, sans-serif" font-size="11" fill="#94a3b8">0</text>
<line x1="52" y1="226.5" x2="872" y2="226.5" stroke="#f1f5f9"/>
<text x="44" y="230.5" text-anchor="end" font-family="Inter, system-ui, sans-serif" font-size="11" fill="#94a3b8">1121</text>
<line x1="52" y1="181.0" x2="872" y2="181.0" stroke="#f1f5f9"/>
<text x="44" y="185.0" text-anchor="end" font-family="Inter, system-ui, sans-serif" font-size="11" fill="#94a3b8">2242</text>
<line x1="52" y1="135.5" x2="872" y2="135.5" stroke="#f1f5f9"/>
<text x="44" y="139.5" text-anchor="end" font-family="Inter, system-ui, sans-serif" font-size="11" fill="#94a3b8">3362</text>
<line x1="52" y1="90.0" x2="872" y2="90.0" stroke="#f1f5f9"/>
<text x="44" y="94.0" text-anchor="end" font-family="Inter, system-ui, sans-serif" font-size="11" fill="#94a3b8">4483</text>
<polygon points="52.0,272.0 52.0,272.0 54.1,271.9 79.6,271.5 81.7,271.4 83.9,271.3 90.2,271.3 103.0,271.2 130.6,271.2 132.7,270.8 134.8,270.8 141.2,270.7 143.3,270.7 145.5,270.6 147.6,270.5 151.8,270.5 154.0,270.3 160.3,270.1 168.8,270.0 171.0,269.9 173.1,269.8 190.1,269.8 194.3,269.7 205.0,269.7 207.1,269.6 209.2,269.6 217.7,269.5 219.8,269.3 221.9,269.1 224.1,268.5 226.2,268.5 241.1,268.4 247.4,268.4 251.7,268.3 253.8,268.3 255.9,268.1 258.1,268.1 260.2,268.0 262.3,267.9 264.4,267.8 272.9,267.6 277.2,267.5 285.7,267.5 287.8,267.3 289.9,267.3 292.1,267.2 296.3,267.1 298.4,266.3 300.5,265.5 302.7,265.2 304.8,265.0 306.9,264.9 309.0,264.7 311.2,264.4 313.3,264.2 315.4,264.1 317.5,264.0 321.8,263.9 323.9,263.6 326.0,263.3 328.2,262.9 330.3,262.7 334.5,262.7 338.8,262.6 340.9,262.3 343.0,262.1 345.2,261.6 347.3,261.2 349.4,260.9 351.5,260.6 353.7,260.2 355.8,259.9 357.9,259.5 360.0,259.0 362.2,258.6 364.3,258.2 366.4,258.0 368.5,257.7 370.7,257.4 372.8,257.2 374.9,257.0 377.0,256.8 379.2,256.7 381.3,256.7 385.5,256.6 387.6,255.8 389.8,255.2 391.9,255.1 394.0,255.1 398.3,255.0 400.4,254.9 408.9,254.8 413.1,254.7 419.5,254.7 421.6,253.8 423.8,252.9 425.9,252.6 428.0,251.9 430.1,251.3 432.3,251.0 434.4,250.8 436.5,250.4 438.6,250.2 440.8,250.2 442.9,250.0 445.0,249.9 457.8,249.3 459.9,248.5 462.0,248.3 464.1,248.2 466.2,248.2 481.1,248.1 500.2,247.3 502.4,246.6 504.5,245.9 506.6,244.7 508.7,244.5 510.9,244.1 513.0,243.5 515.1,243.0 517.2,241.9 519.4,240.3 521.5,238.7 523.6,236.8 525.7,234.9 527.9,233.2 530.0,232.1 532.1,230.9 534.2,229.0 536.4,227.4 538.5,226.4 540.6,225.3 542.7,223.7 544.8,222.8 547.0,221.8 549.1,220.9 551.2,220.3 553.3,219.4 555.5,218.9 557.6,218.3 559.7,217.8 561.8,216.4 564.0,215.2 566.1,214.6 568.2,214.4 570.3,214.0 572.5,213.4 574.6,212.8 576.7,211.9 578.8,211.3 581.0,210.7 583.1,210.6 585.2,210.4 587.3,209.9 589.5,208.7 591.6,206.8 593.7,204.9 595.8,202.9 598.0,201.2 600.1,199.3 602.2,197.3 604.3,195.2 606.5,193.3 608.6,191.9 610.7,190.8 612.8,189.6 615.0,188.4 617.1,187.6 619.2,186.6 621.3,185.9 623.5,184.8 625.6,183.4 627.7,181.7 629.8,180.2 631.9,179.0 634.1,178.2 636.2,177.4 638.3,176.7 640.4,175.9 642.6,174.5 644.7,173.3 646.8,171.9 648.9,170.5 651.1,169.2 653.2,168.3 655.3,167.9 657.4,167.3 659.6,166.7 661.7,166.6 663.8,166.6 665.9,166.3 668.1,166.2 670.2,166.1 672.3,165.9 674.4,165.8 680.8,165.8 682.9,165.8 685.1,165.5 687.2,163.8 689.3,162.4 691.4,161.2 693.6,159.7 695.7,158.5 697.8,157.2 699.9,155.9 702.1,154.7 704.2,153.3 706.3,152.1 708.4,150.9 710.5,149.6 712.7,148.5 714.8,147.2 716.9,146.1 719.0,145.1 721.2,143.9 723.3,142.8 725.4,141.6 727.5,140.6 729.7,139.5 731.8,138.8 733.9,138.0 736.0,137.3 738.2,136.2 740.3,135.3 742.4,134.4 744.5,133.3 746.7,132.4 748.8,131.5 750.9,130.6 753.0,129.6 755.2,128.6 757.3,127.8 759.4,126.7 761.5,125.9 763.7,124.9 765.8,124.1 767.9,123.4 770.0,122.4 772.2,121.6 774.3,120.8 776.4,120.2 778.5,119.6 780.7,119.2 782.8,119.1 784.9,118.2 787.0,117.4 789.2,116.6 791.3,115.8 793.4,115.1 795.5,114.3 797.6,113.5 799.8,112.7 801.9,112.0 804.0,111.3 806.1,110.6 808.3,109.9 810.4,109.1 812.5,108.5 814.6,107.7 816.8,107.0 818.9,106.3 821.0,105.7 823.1,104.9 825.3,104.3 827.4,103.8 829.5,102.9 831.6,102.1 833.8,101.4 835.9,100.7 838.0,99.9 840.1,99.4 842.3,98.7 844.4,97.9 846.5,97.3 848.6,96.9 850.8,96.3 852.9,95.6 855.0,94.9 857.1,94.0 859.3,93.3 861.4,92.6 863.5,92.0 865.6,91.4 867.8,90.6 869.9,90.0 872.0,90.0 872.0,272.0" fill="#e0f2fe" opacity="0.55"/>
<polyline points="52.0,272.0 54.1,271.9 79.6,271.5 81.7,271.4 83.9,271.3 90.2,271.3 103.0,271.2 130.6,271.2 132.7,270.8 134.8,270.8 141.2,270.7 143.3,270.7 145.5,270.6 147.6,270.5 151.8,270.5 154.0,270.3 160.3,270.1 168.8,270.0 171.0,269.9 173.1,269.8 190.1,269.8 194.3,269.7 205.0,269.7 207.1,269.6 209.2,269.6 217.7,269.5 219.8,269.3 221.9,269.1 224.1,268.5 226.2,268.5 241.1,268.4 247.4,268.4 251.7,268.3 253.8,268.3 255.9,268.1 258.1,268.1 260.2,268.0 262.3,267.9 264.4,267.8 272.9,267.6 277.2,267.5 285.7,267.5 287.8,267.3 289.9,267.3 292.1,267.2 296.3,267.1 298.4,266.3 300.5,265.5 302.7,265.2 304.8,265.0 306.9,264.9 309.0,264.7 311.2,264.4 313.3,264.2 315.4,264.1 317.5,264.0 321.8,263.9 323.9,263.6 326.0,263.3 328.2,262.9 330.3,262.7 334.5,262.7 338.8,262.6 340.9,262.3 343.0,262.1 345.2,261.6 347.3,261.2 349.4,260.9 351.5,260.6 353.7,260.2 355.8,259.9 357.9,259.5 360.0,259.0 362.2,258.6 364.3,258.2 366.4,258.0 368.5,257.7 370.7,257.4 372.8,257.2 374.9,257.0 377.0,256.8 379.2,256.7 381.3,256.7 385.5,256.6 387.6,255.8 389.8,255.2 391.9,255.1 394.0,255.1 398.3,255.0 400.4,254.9 408.9,254.8 413.1,254.7 419.5,254.7 421.6,253.8 423.8,252.9 425.9,252.6 428.0,251.9 430.1,251.3 432.3,251.0 434.4,250.8 436.5,250.4 438.6,250.2 440.8,250.2 442.9,250.0 445.0,249.9 457.8,249.3 459.9,248.5 462.0,248.3 464.1,248.2 466.2,248.2 481.1,248.1 500.2,247.3 502.4,246.6 504.5,245.9 506.6,244.7 508.7,244.5 510.9,244.1 513.0,243.5 515.1,243.0 517.2,241.9 519.4,240.3 521.5,238.7 523.6,236.8 525.7,234.9 527.9,233.2 530.0,232.1 532.1,230.9 534.2,229.0 536.4,227.4 538.5,226.4 540.6,225.3 542.7,223.7 544.8,222.8 547.0,221.8 549.1,220.9 551.2,220.3 553.3,219.4 555.5,218.9 557.6,218.3 559.7,217.8 561.8,216.4 564.0,215.2 566.1,214.6 568.2,214.4 570.3,214.0 572.5,213.4 574.6,212.8 576.7,211.9 578.8,211.3 581.0,210.7 583.1,210.6 585.2,210.4 587.3,209.9 589.5,208.7 591.6,206.8 593.7,204.9 595.8,202.9 598.0,201.2 600.1,199.3 602.2,197.3 604.3,195.2 606.5,193.3 608.6,191.9 610.7,190.8 612.8,189.6 615.0,188.4 617.1,187.6 619.2,186.6 621.3,185.9 623.5,184.8 625.6,183.4 627.7,181.7 629.8,180.2 631.9,179.0 634.1,178.2 636.2,177.4 638.3,176.7 640.4,175.9 642.6,174.5 644.7,173.3 646.8,171.9 648.9,170.5 651.1,169.2 653.2,168.3 655.3,167.9 657.4,167.3 659.6,166.7 661.7,166.6 663.8,166.6 665.9,166.3 668.1,166.2 670.2,166.1 672.3,165.9 674.4,165.8 680.8,165.8 682.9,165.8 685.1,165.5 687.2,163.8 689.3,162.4 691.4,161.2 693.6,159.7 695.7,158.5 697.8,157.2 699.9,155.9 702.1,154.7 704.2,153.3 706.3,152.1 708.4,150.9 710.5,149.6 712.7,148.5 714.8,147.2 716.9,146.1 719.0,145.1 721.2,143.9 723.3,142.8 725.4,141.6 727.5,140.6 729.7,139.5 731.8,138.8 733.9,138.0 736.0,137.3 738.2,136.2 740.3,135.3 742.4,134.4 744.5,133.3 746.7,132.4 748.8,131.5 750.9,130.6 753.0,129.6 755.2,128.6 757.3,127.8 759.4,126.7 761.5,125.9 763.7,124.9 765.8,124.1 767.9,123.4 770.0,122.4 772.2,121.6 774.3,120.8 776.4,120.2 778.5,119.6 780.7,119.2 782.8,119.1 784.9,118.2 787.0,117.4 789.2,116.6 791.3,115.8 793.4,115.1 795.5,114.3 797.6,113.5 799.8,112.7 801.9,112.0 804.0,111.3 806.1,110.6 808.3,109.9 810.4,109.1 812.5,108.5 814.6,107.7 816.8,107.0 818.9,106.3 821.0,105.7 823.1,104.9 825.3,104.3 827.4,103.8 829.5,102.9 831.6,102.1 833.8,101.4 835.9,100.7 838.0,99.9 840.1,99.4 842.3,98.7 844.4,97.9 846.5,97.3 848.6,96.9 850.8,96.3 852.9,95.6 855.0,94.9 857.1,94.0 859.3,93.3 861.4,92.6 863.5,92.0 865.6,91.4 867.8,90.6 869.9,90.0 872.0,90.0" fill="none" stroke="#38bdf8" stroke-width="2.5" stroke-linejoin="round" stroke-linecap="round"/>
<circle cx="872.0" cy="90.0" r="4" fill="#0ea5e9"/>
<text x="866.0" y="80.0" text-anchor="end" font-family="Inter, system-ui, sans-serif" font-size="13" font-weight="700" fill="#334155">4483</text>
<text x="52.0" y="294" text-anchor="middle" font-family="Inter, system-ui, sans-serif" font-size="11" fill="#94a3b8">Jun 10 05:00</text>
<text x="566.1" y="294" text-anchor="middle" font-family="Inter, system-ui, sans-serif" font-size="11" fill="#94a3b8">Jun 20 07:00</text>
<text x="872.0" y="294" text-anchor="middle" font-family="Inter, system-ui, sans-serif" font-size="11" fill="#94a3b8">Jun 26 07:00</text>
</svg>
