<svg xmlns="http://www.w3.org/2000/svg" width="900" height="320" viewBox="0 0 900 320" role="img" aria-labelledby="title desc">
<title id="title">Unsorry proofs over time</title>
<desc id="desc">Cumulative kernel-verified proofs over time, by the hour each proof was merged.</desc>
<rect width="900" height="100%" rx="18" fill="#ffffff"/>
<rect x="0.5" y="0.5" width="899" height="319" rx="18" fill="none" stroke="#e2e8f0"/>
<text x="32" y="44" font-family="Inter, system-ui, sans-serif" font-size="28" font-weight="700" fill="#334155">Unsorry — Proofs Over Time</text>
<text x="32" y="72" font-family="Inter, system-ui, sans-serif" font-size="13" fill="#64748b">2253 cumulative kernel-verified proofs · merged, hourly</text>
<line x1="52" y1="272.0" x2="872" y2="272.0" stroke="#f1f5f9"/>
<text x="44" y="276.0" text-anchor="end" font-family="Inter, system-ui, sans-serif" font-size="11" fill="#94a3b8">0</text>
<line x1="52" y1="226.5" x2="872" y2="226.5" stroke="#f1f5f9"/>
<text x="44" y="230.5" text-anchor="end" font-family="Inter, system-ui, sans-serif" font-size="11" fill="#94a3b8">563</text>
<line x1="52" y1="181.0" x2="872" y2="181.0" stroke="#f1f5f9"/>
<text x="44" y="185.0" text-anchor="end" font-family="Inter, system-ui, sans-serif" font-size="11" fill="#94a3b8">1126</text>
<line x1="52" y1="135.5" x2="872" y2="135.5" stroke="#f1f5f9"/>
<text x="44" y="139.5" text-anchor="end" font-family="Inter, system-ui, sans-serif" font-size="11" fill="#94a3b8">1690</text>
<line x1="52" y1="90.0" x2="872" y2="90.0" stroke="#f1f5f9"/>
<text x="44" y="94.0" text-anchor="end" font-family="Inter, system-ui, sans-serif" font-size="11" fill="#94a3b8">2253</text>
<polygon points="52.0,272.0 52.0,271.9 55.0,271.8 91.2,270.9 94.2,270.7 97.2,270.6 106.3,270.5 124.4,270.5 163.5,270.4 166.6,269.7 169.6,269.6 178.6,269.4 181.6,269.3 184.6,269.3 187.7,269.0 193.7,268.9 196.7,268.5 205.8,268.2 217.8,268.0 220.8,267.8 223.8,267.6 248.0,267.6 254.0,267.5 269.1,267.4 272.1,267.3 275.1,267.2 287.1,267.1 290.2,266.6 293.2,266.2 296.2,265.1 299.2,265.0 320.3,264.9 329.4,264.8 335.4,264.7 338.4,264.6 341.4,264.2 344.4,264.2 347.4,264.1 350.5,263.8 353.5,263.6 365.5,263.2 371.6,263.1 383.6,263.0 386.6,262.6 389.6,262.5 392.7,262.4 398.7,262.3 401.7,260.7 404.7,259.1 407.7,258.5 410.8,258.1 413.8,257.9 416.8,257.5 419.8,257.0 422.8,256.6 425.8,256.3 428.8,256.2 434.9,255.9 437.9,255.3 440.9,254.6 443.9,254.0 446.9,253.6 453.0,253.4 459.0,253.3 462.0,252.8 465.0,252.4 468.0,251.2 471.0,250.6 474.1,249.9 477.1,249.3 480.1,248.6 483.1,247.8 486.1,247.0 489.1,246.2 492.1,245.3 495.2,244.6 498.2,244.1 501.2,243.6 504.2,242.9 507.2,242.6 510.2,242.2 513.2,241.8 516.3,241.6 519.3,241.5 525.3,241.4 528.3,239.8 531.3,238.6 534.4,238.4 537.4,238.3 543.4,238.2 546.4,237.9 558.5,237.8 564.5,237.7 573.5,237.6 576.6,235.7 579.6,234.0 582.6,233.5 585.6,232.0 588.6,230.9 591.6,230.2 594.6,229.8 597.7,229.0 600.7,228.7 603.7,228.5 606.7,228.2 609.7,228.1 627.8,226.8 630.8,225.1 633.8,224.9 636.9,224.7 639.9,224.6 661.0,224.5 688.1,222.8 691.1,221.5 694.1,220.0 697.1,217.7 700.2,217.3 703.2,216.6 706.2,215.3 709.2,214.3 712.2,212.1 715.2,208.9 718.2,205.8 721.3,202.0 724.3,198.2 727.3,194.8 730.3,192.7 733.3,190.2 736.3,186.5 739.4,183.3 742.4,181.2 745.4,179.0 748.4,176.0 751.4,174.0 754.4,172.1 757.4,170.4 760.5,169.1 763.5,167.4 766.5,166.3 769.5,165.2 772.5,164.2 775.5,161.3 778.5,159.0 781.6,157.7 784.6,157.3 787.6,156.6 790.6,155.4 793.6,154.3 796.6,152.4 799.6,151.2 802.7,150.0 805.7,149.9 808.7,149.4 811.7,148.5 814.7,146.1 817.7,142.3 820.8,138.4 823.8,134.4 826.8,131.2 829.8,127.4 832.8,123.4 835.8,119.2 838.8,115.4 841.9,112.7 844.9,110.5 847.9,108.0 850.9,105.6 853.9,104.0 856.9,102.0 859.9,100.6 863.0,98.5 866.0,95.7 869.0,92.3 872.0,90.0 872.0,272.0" fill="#e0f2fe" opacity="0.55"/>
<polyline points="52.0,271.9 55.0,271.8 91.2,270.9 94.2,270.7 97.2,270.6 106.3,270.5 124.4,270.5 163.5,270.4 166.6,269.7 169.6,269.6 178.6,269.4 181.6,269.3 184.6,269.3 187.7,269.0 193.7,268.9 196.7,268.5 205.8,268.2 217.8,268.0 220.8,267.8 223.8,267.6 248.0,267.6 254.0,267.5 269.1,267.4 272.1,267.3 275.1,267.2 287.1,267.1 290.2,266.6 293.2,266.2 296.2,265.1 299.2,265.0 320.3,264.9 329.4,264.8 335.4,264.7 338.4,264.6 341.4,264.2 344.4,264.2 347.4,264.1 350.5,263.8 353.5,263.6 365.5,263.2 371.6,263.1 383.6,263.0 386.6,262.6 389.6,262.5 392.7,262.4 398.7,262.3 401.7,260.7 404.7,259.1 407.7,258.5 410.8,258.1 413.8,257.9 416.8,257.5 419.8,257.0 422.8,256.6 425.8,256.3 428.8,256.2 434.9,255.9 437.9,255.3 440.9,254.6 443.9,254.0 446.9,253.6 453.0,253.4 459.0,253.3 462.0,252.8 465.0,252.4 468.0,251.2 471.0,250.6 474.1,249.9 477.1,249.3 480.1,248.6 483.1,247.8 486.1,247.0 489.1,246.2 492.1,245.3 495.2,244.6 498.2,244.1 501.2,243.6 504.2,242.9 507.2,242.6 510.2,242.2 513.2,241.8 516.3,241.6 519.3,241.5 525.3,241.4 528.3,239.8 531.3,238.6 534.4,238.4 537.4,238.3 543.4,238.2 546.4,237.9 558.5,237.8 564.5,237.7 573.5,237.6 576.6,235.7 579.6,234.0 582.6,233.5 585.6,232.0 588.6,230.9 591.6,230.2 594.6,229.8 597.7,229.0 600.7,228.7 603.7,228.5 606.7,228.2 609.7,228.1 627.8,226.8 630.8,225.1 633.8,224.9 636.9,224.7 639.9,224.6 661.0,224.5 688.1,222.8 691.1,221.5 694.1,220.0 697.1,217.7 700.2,217.3 703.2,216.6 706.2,215.3 709.2,214.3 712.2,212.1 715.2,208.9 718.2,205.8 721.3,202.0 724.3,198.2 727.3,194.8 730.3,192.7 733.3,190.2 736.3,186.5 739.4,183.3 742.4,181.2 745.4,179.0 748.4,176.0 751.4,174.0 754.4,172.1 757.4,170.4 760.5,169.1 763.5,167.4 766.5,166.3 769.5,165.2 772.5,164.2 775.5,161.3 778.5,159.0 781.6,157.7 784.6,157.3 787.6,156.6 790.6,155.4 793.6,154.3 796.6,152.4 799.6,151.2 802.7,150.0 805.7,149.9 808.7,149.4 811.7,148.5 814.7,146.1 817.7,142.3 820.8,138.4 823.8,134.4 826.8,131.2 829.8,127.4 832.8,123.4 835.8,119.2 838.8,115.4 841.9,112.7 844.9,110.5 847.9,108.0 850.9,105.6 853.9,104.0 856.9,102.0 859.9,100.6 863.0,98.5 866.0,95.7 869.0,92.3 872.0,90.0" fill="none" stroke="#38bdf8" stroke-width="2.5" stroke-linejoin="round" stroke-linecap="round"/>
<circle cx="872.0" cy="90.0" r="4" fill="#0ea5e9"/>
<text x="866.0" y="80.0" text-anchor="end" font-family="Inter, system-ui, sans-serif" font-size="13" font-weight="700" fill="#334155">2253</text>
<text x="52.0" y="294" text-anchor="middle" font-family="Inter, system-ui, sans-serif" font-size="11" fill="#94a3b8">Jun 10 05:00</text>
<text x="534.4" y="294" text-anchor="middle" font-family="Inter, system-ui, sans-serif" font-size="11" fill="#94a3b8">Jun 16 21:00</text>
<text x="872.0" y="294" text-anchor="middle" font-family="Inter, system-ui, sans-serif" font-size="11" fill="#94a3b8">Jun 21 13:00</text>
</svg>
