<svg xmlns="http://www.w3.org/2000/svg" width="900" height="320" viewBox="0 0 900 320" role="img" aria-labelledby="title desc">
<title id="title">unsorry proofs over time</title>
<desc id="desc">Cumulative kernel-verified proofs over time, by the hour each proof was merged.</desc>
<rect width="900" height="100%" rx="18" fill="#ffffff"/>
<rect x="0.5" y="0.5" width="899" height="319" rx="18" fill="none" stroke="#e2e8f0"/>
<text x="32" y="44" font-family="Inter, system-ui, sans-serif" font-size="28" font-weight="700" fill="#334155">unsorry — Proofs Over Time</text>
<text x="32" y="72" font-family="Inter, system-ui, sans-serif" font-size="13" fill="#64748b">4348 cumulative kernel-verified proofs · merged, hourly</text>
<line x1="52" y1="272.0" x2="872" y2="272.0" stroke="#f1f5f9"/>
<text x="44" y="276.0" text-anchor="end" font-family="Inter, system-ui, sans-serif" font-size="11" fill="#94a3b8">0</text>
<line x1="52" y1="226.5" x2="872" y2="226.5" stroke="#f1f5f9"/>
<text x="44" y="230.5" text-anchor="end" font-family="Inter, system-ui, sans-serif" font-size="11" fill="#94a3b8">1087</text>
<line x1="52" y1="181.0" x2="872" y2="181.0" stroke="#f1f5f9"/>
<text x="44" y="185.0" text-anchor="end" font-family="Inter, system-ui, sans-serif" font-size="11" fill="#94a3b8">2174</text>
<line x1="52" y1="135.5" x2="872" y2="135.5" stroke="#f1f5f9"/>
<text x="44" y="139.5" text-anchor="end" font-family="Inter, system-ui, sans-serif" font-size="11" fill="#94a3b8">3261</text>
<line x1="52" y1="90.0" x2="872" y2="90.0" stroke="#f1f5f9"/>
<text x="44" y="94.0" text-anchor="end" font-family="Inter, system-ui, sans-serif" font-size="11" fill="#94a3b8">4348</text>
<polygon points="52.0,272.0 52.0,272.0 54.2,271.9 80.2,271.5 82.4,271.3 84.5,271.3 91.0,271.2 104.1,271.2 132.3,271.2 134.4,270.8 136.6,270.7 143.1,270.7 145.3,270.6 147.4,270.6 149.6,270.5 154.0,270.4 156.1,270.2 162.6,270.0 171.3,269.9 173.5,269.8 175.7,269.7 193.0,269.7 197.3,269.7 208.2,269.6 210.4,269.6 212.5,269.5 221.2,269.4 223.4,269.2 225.5,269.0 227.7,268.4 229.9,268.4 245.1,268.3 251.6,268.3 255.9,268.2 258.1,268.2 260.3,268.0 262.4,267.9 264.6,267.9 266.8,267.8 268.9,267.6 277.6,267.4 281.9,267.4 290.6,267.4 292.8,267.1 295.0,267.1 297.1,267.0 301.5,267.0 303.6,266.1 305.8,265.3 308.0,265.0 310.1,264.8 312.3,264.7 314.5,264.5 316.7,264.2 318.8,264.0 321.0,263.9 323.2,263.8 327.5,263.7 329.7,263.3 331.8,263.0 334.0,262.7 336.2,262.5 340.5,262.4 344.9,262.3 347.0,262.0 349.2,261.8 351.4,261.2 353.5,260.9 355.7,260.6 357.9,260.2 360.0,259.9 362.2,259.5 364.4,259.1 366.6,258.6 368.7,258.2 370.9,257.8 373.1,257.6 375.2,257.3 377.4,256.9 379.6,256.8 381.7,256.6 383.9,256.3 386.1,256.3 388.2,256.2 392.6,256.1 394.8,255.3 396.9,254.7 399.1,254.6 401.3,254.5 405.6,254.5 407.8,254.3 416.4,254.3 420.8,254.2 427.3,254.2 429.5,253.2 431.6,252.3 433.8,252.0 436.0,251.3 438.1,250.7 440.3,250.3 442.5,250.1 444.6,249.7 446.8,249.6 449.0,249.5 451.2,249.3 453.3,249.2 466.3,248.6 468.5,247.7 470.7,247.6 472.8,247.5 475.0,247.4 490.2,247.4 509.7,246.5 511.9,245.8 514.1,245.0 516.2,243.9 518.4,243.7 520.6,243.3 522.7,242.6 524.9,242.1 527.1,241.0 529.2,239.3 531.4,237.7 533.6,235.8 535.8,233.7 537.9,232.0 540.1,230.9 542.3,229.6 544.4,227.7 546.6,226.0 548.8,225.0 550.9,223.8 553.1,222.2 555.3,221.2 557.4,220.2 559.6,219.3 561.8,218.7 564.0,217.8 566.1,217.2 568.3,216.7 570.5,216.2 572.6,214.7 574.8,213.4 577.0,212.8 579.1,212.6 581.3,212.2 583.5,211.6 585.7,211.0 587.8,210.0 590.0,209.4 592.2,208.8 594.3,208.7 596.5,208.5 598.7,208.0 600.8,206.8 603.0,204.8 605.2,202.8 607.3,200.7 609.5,199.0 611.7,197.1 613.9,195.0 616.0,192.8 618.2,190.9 620.4,189.5 622.5,188.3 624.7,187.0 626.9,185.8 629.0,184.9 631.2,183.9 633.4,183.2 635.5,182.1 637.7,180.6 639.9,178.9 642.1,177.4 644.2,176.1 646.4,175.3 648.6,174.5 650.7,173.8 652.9,172.9 655.1,171.5 657.2,170.3 659.4,168.8 661.6,167.3 663.7,166.1 665.9,165.1 668.1,164.6 670.3,164.0 672.4,163.5 674.6,163.4 676.8,163.3 678.9,163.0 681.1,162.9 683.3,162.8 685.4,162.6 687.6,162.5 694.1,162.5 696.3,162.5 698.5,162.2 700.6,160.5 702.8,159.0 705.0,157.7 707.1,156.3 709.3,155.0 711.5,153.7 713.6,152.3 715.8,151.0 718.0,149.6 720.1,148.4 722.3,147.1 724.5,145.8 726.7,144.6 728.8,143.4 731.0,142.2 733.2,141.1 735.3,139.9 737.5,138.8 739.7,137.6 741.8,136.5 744.0,135.4 746.2,134.6 748.3,133.9 750.5,133.1 752.7,132.0 754.9,131.1 757.0,130.1 759.2,129.0 761.4,128.0 763.5,127.2 765.7,126.2 767.9,125.2 770.0,124.2 772.2,123.3 774.4,122.2 776.6,121.4 778.7,120.3 780.9,119.6 783.1,118.8 785.2,117.8 787.4,116.9 789.6,116.1 791.7,115.4 793.9,114.8 796.1,114.4 798.2,114.3 800.4,113.4 802.6,112.6 804.8,111.8 806.9,110.9 809.1,110.2 811.3,109.4 813.4,108.6 815.6,107.8 817.8,107.0 819.9,106.3 822.1,105.6 824.3,104.9 826.4,104.1 828.6,103.4 830.8,102.6 833.0,101.9 835.1,101.2 837.3,100.5 839.5,99.7 841.6,99.1 843.8,98.5 846.0,97.7 848.1,96.8 850.3,96.2 852.5,95.4 854.6,94.6 856.8,94.0 859.0,93.3 861.2,92.5 863.3,91.9 865.5,91.5 867.7,90.8 869.8,90.1 872.0,90.0 872.0,272.0" fill="#e0f2fe" opacity="0.55"/>
<polyline points="52.0,272.0 54.2,271.9 80.2,271.5 82.4,271.3 84.5,271.3 91.0,271.2 104.1,271.2 132.3,271.2 134.4,270.8 136.6,270.7 143.1,270.7 145.3,270.6 147.4,270.6 149.6,270.5 154.0,270.4 156.1,270.2 162.6,270.0 171.3,269.9 173.5,269.8 175.7,269.7 193.0,269.7 197.3,269.7 208.2,269.6 210.4,269.6 212.5,269.5 221.2,269.4 223.4,269.2 225.5,269.0 227.7,268.4 229.9,268.4 245.1,268.3 251.6,268.3 255.9,268.2 258.1,268.2 260.3,268.0 262.4,267.9 264.6,267.9 266.8,267.8 268.9,267.6 277.6,267.4 281.9,267.4 290.6,267.4 292.8,267.1 295.0,267.1 297.1,267.0 301.5,267.0 303.6,266.1 305.8,265.3 308.0,265.0 310.1,264.8 312.3,264.7 314.5,264.5 316.7,264.2 318.8,264.0 321.0,263.9 323.2,263.8 327.5,263.7 329.7,263.3 331.8,263.0 334.0,262.7 336.2,262.5 340.5,262.4 344.9,262.3 347.0,262.0 349.2,261.8 351.4,261.2 353.5,260.9 355.7,260.6 357.9,260.2 360.0,259.9 362.2,259.5 364.4,259.1 366.6,258.6 368.7,258.2 370.9,257.8 373.1,257.6 375.2,257.3 377.4,256.9 379.6,256.8 381.7,256.6 383.9,256.3 386.1,256.3 388.2,256.2 392.6,256.1 394.8,255.3 396.9,254.7 399.1,254.6 401.3,254.5 405.6,254.5 407.8,254.3 416.4,254.3 420.8,254.2 427.3,254.2 429.5,253.2 431.6,252.3 433.8,252.0 436.0,251.3 438.1,250.7 440.3,250.3 442.5,250.1 444.6,249.7 446.8,249.6 449.0,249.5 451.2,249.3 453.3,249.2 466.3,248.6 468.5,247.7 470.7,247.6 472.8,247.5 475.0,247.4 490.2,247.4 509.7,246.5 511.9,245.8 514.1,245.0 516.2,243.9 518.4,243.7 520.6,243.3 522.7,242.6 524.9,242.1 527.1,241.0 529.2,239.3 531.4,237.7 533.6,235.8 535.8,233.7 537.9,232.0 540.1,230.9 542.3,229.6 544.4,227.7 546.6,226.0 548.8,225.0 550.9,223.8 553.1,222.2 555.3,221.2 557.4,220.2 559.6,219.3 561.8,218.7 564.0,217.8 566.1,217.2 568.3,216.7 570.5,216.2 572.6,214.7 574.8,213.4 577.0,212.8 579.1,212.6 581.3,212.2 583.5,211.6 585.7,211.0 587.8,210.0 590.0,209.4 592.2,208.8 594.3,208.7 596.5,208.5 598.7,208.0 600.8,206.8 603.0,204.8 605.2,202.8 607.3,200.7 609.5,199.0 611.7,197.1 613.9,195.0 616.0,192.8 618.2,190.9 620.4,189.5 622.5,188.3 624.7,187.0 626.9,185.8 629.0,184.9 631.2,183.9 633.4,183.2 635.5,182.1 637.7,180.6 639.9,178.9 642.1,177.4 644.2,176.1 646.4,175.3 648.6,174.5 650.7,173.8 652.9,172.9 655.1,171.5 657.2,170.3 659.4,168.8 661.6,167.3 663.7,166.1 665.9,165.1 668.1,164.6 670.3,164.0 672.4,163.5 674.6,163.4 676.8,163.3 678.9,163.0 681.1,162.9 683.3,162.8 685.4,162.6 687.6,162.5 694.1,162.5 696.3,162.5 698.5,162.2 700.6,160.5 702.8,159.0 705.0,157.7 707.1,156.3 709.3,155.0 711.5,153.7 713.6,152.3 715.8,151.0 718.0,149.6 720.1,148.4 722.3,147.1 724.5,145.8 726.7,144.6 728.8,143.4 731.0,142.2 733.2,141.1 735.3,139.9 737.5,138.8 739.7,137.6 741.8,136.5 744.0,135.4 746.2,134.6 748.3,133.9 750.5,133.1 752.7,132.0 754.9,131.1 757.0,130.1 759.2,129.0 761.4,128.0 763.5,127.2 765.7,126.2 767.9,125.2 770.0,124.2 772.2,123.3 774.4,122.2 776.6,121.4 778.7,120.3 780.9,119.6 783.1,118.8 785.2,117.8 787.4,116.9 789.6,116.1 791.7,115.4 793.9,114.8 796.1,114.4 798.2,114.3 800.4,113.4 802.6,112.6 804.8,111.8 806.9,110.9 809.1,110.2 811.3,109.4 813.4,108.6 815.6,107.8 817.8,107.0 819.9,106.3 822.1,105.6 824.3,104.9 826.4,104.1 828.6,103.4 830.8,102.6 833.0,101.9 835.1,101.2 837.3,100.5 839.5,99.7 841.6,99.1 843.8,98.5 846.0,97.7 848.1,96.8 850.3,96.2 852.5,95.4 854.6,94.6 856.8,94.0 859.0,93.3 861.2,92.5 863.3,91.9 865.5,91.5 867.7,90.8 869.8,90.1 872.0,90.0" fill="none" stroke="#38bdf8" stroke-width="2.5" stroke-linejoin="round" stroke-linecap="round"/>
<circle cx="872.0" cy="90.0" r="4" fill="#0ea5e9"/>
<text x="866.0" y="80.0" text-anchor="end" font-family="Inter, system-ui, sans-serif" font-size="13" font-weight="700" fill="#334155">4348</text>
<text x="52.0" y="294" text-anchor="middle" font-family="Inter, system-ui, sans-serif" font-size="11" fill="#94a3b8">Jun 10 05:00</text>
<text x="568.3" y="294" text-anchor="middle" font-family="Inter, system-ui, sans-serif" font-size="11" fill="#94a3b8">Jun 20 03:00</text>
<text x="872.0" y="294" text-anchor="middle" font-family="Inter, system-ui, sans-serif" font-size="11" fill="#94a3b8">Jun 25 23:00</text>
</svg>
