<svg xmlns="http://www.w3.org/2000/svg" width="900" height="320" viewBox="0 0 900 320" role="img" aria-labelledby="title desc">
<title id="title">unsorry proofs over time</title>
<desc id="desc">Cumulative kernel-verified proofs over time, by the hour each proof was merged.</desc>
<rect width="900" height="100%" rx="18" fill="#ffffff"/>
<rect x="0.5" y="0.5" width="899" height="319" rx="18" fill="none" stroke="#e2e8f0"/>
<text x="32" y="44" font-family="Inter, system-ui, sans-serif" font-size="28" font-weight="700" fill="#334155">unsorry — Proofs Over Time</text>
<text x="32" y="72" font-family="Inter, system-ui, sans-serif" font-size="13" fill="#64748b">3901 cumulative kernel-verified proofs · merged, hourly</text>
<line x1="52" y1="272.0" x2="872" y2="272.0" stroke="#f1f5f9"/>
<text x="44" y="276.0" text-anchor="end" font-family="Inter, system-ui, sans-serif" font-size="11" fill="#94a3b8">0</text>
<line x1="52" y1="226.5" x2="872" y2="226.5" stroke="#f1f5f9"/>
<text x="44" y="230.5" text-anchor="end" font-family="Inter, system-ui, sans-serif" font-size="11" fill="#94a3b8">975</text>
<line x1="52" y1="181.0" x2="872" y2="181.0" stroke="#f1f5f9"/>
<text x="44" y="185.0" text-anchor="end" font-family="Inter, system-ui, sans-serif" font-size="11" fill="#94a3b8">1950</text>
<line x1="52" y1="135.5" x2="872" y2="135.5" stroke="#f1f5f9"/>
<text x="44" y="139.5" text-anchor="end" font-family="Inter, system-ui, sans-serif" font-size="11" fill="#94a3b8">2926</text>
<line x1="52" y1="90.0" x2="872" y2="90.0" stroke="#f1f5f9"/>
<text x="44" y="94.0" text-anchor="end" font-family="Inter, system-ui, sans-serif" font-size="11" fill="#94a3b8">3901</text>
<polygon points="52.0,272.0 52.0,272.0 54.3,271.9 82.4,271.4 84.7,271.3 87.0,271.2 94.1,271.2 108.1,271.1 138.4,271.1 140.8,270.6 143.1,270.6 150.1,270.5 152.5,270.5 154.8,270.4 157.1,270.3 161.8,270.2 164.1,270.0 171.1,269.8 180.5,269.7 182.8,269.6 185.2,269.5 203.9,269.4 208.5,269.4 220.2,269.3 222.5,269.3 224.9,269.2 234.2,269.2 236.6,268.9 238.9,268.6 241.2,268.0 243.6,267.9 259.9,267.9 266.9,267.8 271.6,267.8 273.9,267.8 276.3,267.5 278.6,267.5 280.9,267.4 283.3,267.3 285.6,267.1 295.0,266.9 299.6,266.9 309.0,266.8 311.3,266.6 313.7,266.5 316.0,266.4 320.7,266.4 323.0,265.5 325.3,264.5 327.7,264.2 330.0,264.0 332.3,263.9 334.7,263.6 337.0,263.3 339.4,263.1 341.7,262.9 344.0,262.9 348.7,262.7 351.0,262.3 353.4,262.0 355.7,261.6 358.0,261.4 362.7,261.3 367.4,261.2 369.7,260.9 372.1,260.7 374.4,260.0 376.7,259.6 379.1,259.3 381.4,258.9 383.7,258.5 386.1,258.1 388.4,257.6 390.7,257.1 393.1,256.6 395.4,256.2 397.8,255.9 400.1,255.6 402.4,255.2 404.8,255.0 407.1,254.8 409.4,254.6 411.8,254.5 414.1,254.4 418.8,254.3 421.1,253.4 423.5,252.7 425.8,252.6 428.1,252.5 432.8,252.5 435.1,252.3 444.5,252.3 449.2,252.2 456.2,252.1 458.5,251.1 460.8,250.0 463.2,249.7 465.5,248.9 467.8,248.3 470.2,247.8 472.5,247.6 474.8,247.2 477.2,247.0 479.5,246.9 481.9,246.7 484.2,246.6 498.2,245.9 500.5,244.9 502.9,244.8 505.2,244.7 507.6,244.6 523.9,244.6 544.9,243.6 547.3,242.8 549.6,242.0 551.9,240.6 554.3,240.4 556.6,240.0 559.0,239.2 561.3,238.7 563.6,237.4 566.0,235.6 568.3,233.7 570.6,231.6 573.0,229.4 575.3,227.4 577.6,226.2 580.0,224.7 582.3,222.6 584.6,220.8 587.0,219.6 589.3,218.3 591.7,216.5 594.0,215.4 596.3,214.3 598.7,213.3 601.0,212.6 603.3,211.6 605.7,211.0 608.0,210.3 610.3,209.8 612.7,208.1 615.0,206.7 617.4,206.0 619.7,205.8 622.0,205.3 624.4,204.6 626.7,204.0 629.0,202.9 631.4,202.2 633.7,201.6 636.0,201.5 638.4,201.2 640.7,200.7 643.1,199.3 645.4,197.1 647.7,194.8 650.1,192.5 652.4,190.7 654.7,188.5 657.1,186.2 659.4,183.8 661.7,181.6 664.1,180.0 666.4,178.7 668.8,177.3 671.1,175.9 673.4,175.0 675.8,173.8 678.1,173.0 680.4,171.8 682.8,170.2 685.1,168.2 687.4,166.6 689.8,165.1 692.1,164.2 694.5,163.3 696.8,162.5 699.1,161.6 701.5,160.0 703.8,158.6 706.1,157.0 708.5,155.3 710.8,153.9 713.1,152.8 715.5,152.3 717.8,151.7 720.1,151.0 722.5,150.9 724.8,150.8 727.2,150.5 729.5,150.4 731.8,150.3 734.2,150.1 736.5,150.0 743.5,150.0 745.8,149.9 748.2,149.6 750.5,147.7 752.9,146.1 755.2,144.6 757.5,143.0 759.9,141.6 762.2,140.1 764.5,138.6 766.9,137.2 769.2,135.6 771.5,134.2 773.9,132.8 776.2,131.4 778.6,130.0 780.9,128.6 783.2,127.3 785.6,126.1 787.9,124.8 790.2,123.5 792.6,122.2 794.9,121.0 797.2,119.7 799.6,118.9 801.9,118.0 804.3,117.2 806.6,116.0 808.9,114.9 811.3,113.9 813.6,112.6 815.9,111.6 818.3,110.6 820.6,109.5 822.9,108.3 825.3,107.3 827.6,106.2 829.9,105.0 832.3,104.1 834.6,103.0 837.0,102.1 839.3,101.2 841.6,100.1 844.0,99.1 846.3,98.3 848.6,97.5 851.0,96.8 853.3,96.4 855.6,96.3 858.0,95.3 860.3,94.4 862.7,93.5 865.0,92.5 867.3,91.7 869.7,90.7 872.0,90.0 872.0,272.0" fill="#e0f2fe" opacity="0.55"/>
<polyline points="52.0,272.0 54.3,271.9 82.4,271.4 84.7,271.3 87.0,271.2 94.1,271.2 108.1,271.1 138.4,271.1 140.8,270.6 143.1,270.6 150.1,270.5 152.5,270.5 154.8,270.4 157.1,270.3 161.8,270.2 164.1,270.0 171.1,269.8 180.5,269.7 182.8,269.6 185.2,269.5 203.9,269.4 208.5,269.4 220.2,269.3 222.5,269.3 224.9,269.2 234.2,269.2 236.6,268.9 238.9,268.6 241.2,268.0 243.6,267.9 259.9,267.9 266.9,267.8 271.6,267.8 273.9,267.8 276.3,267.5 278.6,267.5 280.9,267.4 283.3,267.3 285.6,267.1 295.0,266.9 299.6,266.9 309.0,266.8 311.3,266.6 313.7,266.5 316.0,266.4 320.7,266.4 323.0,265.5 325.3,264.5 327.7,264.2 330.0,264.0 332.3,263.9 334.7,263.6 337.0,263.3 339.4,263.1 341.7,262.9 344.0,262.9 348.7,262.7 351.0,262.3 353.4,262.0 355.7,261.6 358.0,261.4 362.7,261.3 367.4,261.2 369.7,260.9 372.1,260.7 374.4,260.0 376.7,259.6 379.1,259.3 381.4,258.9 383.7,258.5 386.1,258.1 388.4,257.6 390.7,257.1 393.1,256.6 395.4,256.2 397.8,255.9 400.1,255.6 402.4,255.2 404.8,255.0 407.1,254.8 409.4,254.6 411.8,254.5 414.1,254.4 418.8,254.3 421.1,253.4 423.5,252.7 425.8,252.6 428.1,252.5 432.8,252.5 435.1,252.3 444.5,252.3 449.2,252.2 456.2,252.1 458.5,251.1 460.8,250.0 463.2,249.7 465.5,248.9 467.8,248.3 470.2,247.8 472.5,247.6 474.8,247.2 477.2,247.0 479.5,246.9 481.9,246.7 484.2,246.6 498.2,245.9 500.5,244.9 502.9,244.8 505.2,244.7 507.6,244.6 523.9,244.6 544.9,243.6 547.3,242.8 549.6,242.0 551.9,240.6 554.3,240.4 556.6,240.0 559.0,239.2 561.3,238.7 563.6,237.4 566.0,235.6 568.3,233.7 570.6,231.6 573.0,229.4 575.3,227.4 577.6,226.2 580.0,224.7 582.3,222.6 584.6,220.8 587.0,219.6 589.3,218.3 591.7,216.5 594.0,215.4 596.3,214.3 598.7,213.3 601.0,212.6 603.3,211.6 605.7,211.0 608.0,210.3 610.3,209.8 612.7,208.1 615.0,206.7 617.4,206.0 619.7,205.8 622.0,205.3 624.4,204.6 626.7,204.0 629.0,202.9 631.4,202.2 633.7,201.6 636.0,201.5 638.4,201.2 640.7,200.7 643.1,199.3 645.4,197.1 647.7,194.8 650.1,192.5 652.4,190.7 654.7,188.5 657.1,186.2 659.4,183.8 661.7,181.6 664.1,180.0 666.4,178.7 668.8,177.3 671.1,175.9 673.4,175.0 675.8,173.8 678.1,173.0 680.4,171.8 682.8,170.2 685.1,168.2 687.4,166.6 689.8,165.1 692.1,164.2 694.5,163.3 696.8,162.5 699.1,161.6 701.5,160.0 703.8,158.6 706.1,157.0 708.5,155.3 710.8,153.9 713.1,152.8 715.5,152.3 717.8,151.7 720.1,151.0 722.5,150.9 724.8,150.8 727.2,150.5 729.5,150.4 731.8,150.3 734.2,150.1 736.5,150.0 743.5,150.0 745.8,149.9 748.2,149.6 750.5,147.7 752.9,146.1 755.2,144.6 757.5,143.0 759.9,141.6 762.2,140.1 764.5,138.6 766.9,137.2 769.2,135.6 771.5,134.2 773.9,132.8 776.2,131.4 778.6,130.0 780.9,128.6 783.2,127.3 785.6,126.1 787.9,124.8 790.2,123.5 792.6,122.2 794.9,121.0 797.2,119.7 799.6,118.9 801.9,118.0 804.3,117.2 806.6,116.0 808.9,114.9 811.3,113.9 813.6,112.6 815.9,111.6 818.3,110.6 820.6,109.5 822.9,108.3 825.3,107.3 827.6,106.2 829.9,105.0 832.3,104.1 834.6,103.0 837.0,102.1 839.3,101.2 841.6,100.1 844.0,99.1 846.3,98.3 848.6,97.5 851.0,96.8 853.3,96.4 855.6,96.3 858.0,95.3 860.3,94.4 862.7,93.5 865.0,92.5 867.3,91.7 869.7,90.7 872.0,90.0" fill="none" stroke="#38bdf8" stroke-width="2.5" stroke-linejoin="round" stroke-linecap="round"/>
<circle cx="872.0" cy="90.0" r="4" fill="#0ea5e9"/>
<text x="866.0" y="80.0" text-anchor="end" font-family="Inter, system-ui, sans-serif" font-size="13" font-weight="700" fill="#334155">3901</text>
<text x="52.0" y="294" text-anchor="middle" font-family="Inter, system-ui, sans-serif" font-size="11" fill="#94a3b8">Jun 10 05:00</text>
<text x="577.6" y="294" text-anchor="middle" font-family="Inter, system-ui, sans-serif" font-size="11" fill="#94a3b8">Jun 19 14:00</text>
<text x="872.0" y="294" text-anchor="middle" font-family="Inter, system-ui, sans-serif" font-size="11" fill="#94a3b8">Jun 24 20:00</text>
</svg>
