<svg xmlns="http://www.w3.org/2000/svg" width="900" height="320" viewBox="0 0 900 320" role="img" aria-labelledby="title desc">
<title id="title">unsorry proofs over time</title>
<desc id="desc">Cumulative kernel-verified proofs over time, by the hour each proof was merged.</desc>
<rect width="900" height="100%" rx="18" fill="#ffffff"/>
<rect x="0.5" y="0.5" width="899" height="319" rx="18" fill="none" stroke="#e2e8f0"/>
<text x="32" y="44" font-family="Inter, system-ui, sans-serif" font-size="28" font-weight="700" fill="#334155">unsorry — Proofs Over Time</text>
<text x="32" y="72" font-family="Inter, system-ui, sans-serif" font-size="13" fill="#64748b">4149 cumulative kernel-verified proofs · merged, hourly</text>
<line x1="52" y1="272.0" x2="872" y2="272.0" stroke="#f1f5f9"/>
<text x="44" y="276.0" text-anchor="end" font-family="Inter, system-ui, sans-serif" font-size="11" fill="#94a3b8">0</text>
<line x1="52" y1="226.5" x2="872" y2="226.5" stroke="#f1f5f9"/>
<text x="44" y="230.5" text-anchor="end" font-family="Inter, system-ui, sans-serif" font-size="11" fill="#94a3b8">1037</text>
<line x1="52" y1="181.0" x2="872" y2="181.0" stroke="#f1f5f9"/>
<text x="44" y="185.0" text-anchor="end" font-family="Inter, system-ui, sans-serif" font-size="11" fill="#94a3b8">2074</text>
<line x1="52" y1="135.5" x2="872" y2="135.5" stroke="#f1f5f9"/>
<text x="44" y="139.5" text-anchor="end" font-family="Inter, system-ui, sans-serif" font-size="11" fill="#94a3b8">3112</text>
<line x1="52" y1="90.0" x2="872" y2="90.0" stroke="#f1f5f9"/>
<text x="44" y="94.0" text-anchor="end" font-family="Inter, system-ui, sans-serif" font-size="11" fill="#94a3b8">4149</text>
<polygon points="52.0,272.0 52.0,272.0 54.2,271.9 81.1,271.4 83.4,271.3 85.6,271.3 92.3,271.2 105.8,271.2 134.9,271.1 137.1,270.7 139.4,270.7 146.1,270.6 148.3,270.6 150.6,270.5 152.8,270.4 157.3,270.3 159.5,270.1 166.3,269.9 175.2,269.9 177.5,269.7 179.7,269.6 197.6,269.6 202.1,269.5 213.3,269.5 215.6,269.5 217.8,269.4 226.8,269.3 229.0,269.1 231.2,268.8 233.5,268.3 235.7,268.2 251.4,268.1 258.1,268.1 262.6,268.1 264.8,268.0 267.1,267.8 269.3,267.7 271.6,267.7 273.8,267.6 276.0,267.4 285.0,267.2 289.5,267.2 298.4,267.1 300.7,266.9 302.9,266.9 305.2,266.8 309.7,266.7 311.9,265.9 314.1,265.0 316.4,264.7 318.6,264.5 320.9,264.4 323.1,264.1 325.3,263.8 327.6,263.6 329.8,263.5 332.1,263.4 336.5,263.3 338.8,262.9 341.0,262.6 343.3,262.2 345.5,262.0 350.0,261.9 354.5,261.9 356.7,261.6 358.9,261.3 361.2,260.7 363.4,260.4 365.7,260.0 367.9,259.7 370.1,259.3 372.4,258.9 374.6,258.4 376.9,258.0 379.1,257.5 381.3,257.1 383.6,256.9 385.8,256.6 388.1,256.2 390.3,256.0 392.5,255.8 394.8,255.6 397.0,255.5 399.3,255.4 403.7,255.4 406.0,254.5 408.2,253.9 410.5,253.8 412.7,253.7 417.2,253.6 419.4,253.5 428.4,253.4 432.9,253.4 439.6,253.3 441.8,252.3 444.1,251.3 446.3,251.1 448.6,250.3 450.8,249.7 453.0,249.3 455.3,249.1 457.5,248.7 459.8,248.5 462.0,248.4 464.2,248.2 466.5,248.1 479.9,247.4 482.2,246.6 484.4,246.4 486.6,246.3 488.9,246.3 504.6,246.2 524.7,245.3 527.0,244.6 529.2,243.8 531.5,242.5 533.7,242.3 535.9,241.9 538.2,241.2 540.4,240.7 542.7,239.5 544.9,237.7 547.1,236.0 549.4,234.0 551.6,231.9 553.9,230.1 556.1,228.9 558.3,227.6 560.6,225.5 562.8,223.8 565.1,222.7 567.3,221.5 569.5,219.8 571.8,218.8 574.0,217.7 576.3,216.8 578.5,216.1 580.7,215.2 583.0,214.6 585.2,214.0 587.5,213.5 589.7,211.9 591.9,210.6 594.2,209.9 596.4,209.7 598.7,209.3 600.9,208.7 603.1,208.1 605.4,207.0 607.6,206.4 609.9,205.8 612.1,205.7 614.3,205.4 616.6,204.9 618.8,203.7 621.1,201.6 623.3,199.4 625.6,197.3 627.8,195.5 630.0,193.5 632.3,191.3 634.5,189.0 636.8,187.0 639.0,185.5 641.2,184.3 643.5,183.0 645.7,181.6 648.0,180.8 650.2,179.7 652.4,178.9 654.7,177.8 656.9,176.2 659.2,174.4 661.4,172.9 663.6,171.5 665.9,170.6 668.1,169.8 670.4,169.0 672.6,168.2 674.8,166.7 677.1,165.4 679.3,163.9 681.6,162.3 683.8,161.0 686.0,159.9 688.3,159.5 690.5,158.9 692.8,158.3 695.0,158.2 697.2,158.1 699.5,157.8 701.7,157.6 704.0,157.6 706.2,157.4 708.4,157.3 715.2,157.2 717.4,157.2 719.7,156.9 721.9,155.1 724.1,153.6 726.4,152.2 728.6,150.7 730.9,149.4 733.1,148.0 735.3,146.5 737.6,145.2 739.8,143.8 742.1,142.5 744.3,141.1 746.5,139.8 748.8,138.5 751.0,137.2 753.3,135.9 755.5,134.8 757.7,133.6 760.0,132.4 762.2,131.1 764.5,130.0 766.7,128.8 768.9,128.0 771.2,127.2 773.4,126.5 775.7,125.3 777.9,124.3 780.1,123.3 782.4,122.2 784.6,121.1 786.9,120.2 789.1,119.2 791.3,118.1 793.6,117.1 795.8,116.1 798.1,115.0 800.3,114.1 802.5,113.1 804.8,112.2 807.0,111.4 809.3,110.4 811.5,109.5 813.7,108.6 816.0,107.9 818.2,107.3 820.5,106.9 822.7,106.8 825.0,105.8 827.2,105.0 829.4,104.1 831.7,103.2 833.9,102.5 836.2,101.6 838.4,100.7 840.6,99.9 842.9,99.1 845.1,98.4 847.4,97.6 849.6,96.9 851.8,96.0 854.1,95.3 856.3,94.5 858.6,93.7 860.8,93.0 863.0,92.3 865.3,91.4 867.5,90.8 869.8,90.2 872.0,90.0 872.0,272.0" fill="#e0f2fe" opacity="0.55"/>
<polyline points="52.0,272.0 54.2,271.9 81.1,271.4 83.4,271.3 85.6,271.3 92.3,271.2 105.8,271.2 134.9,271.1 137.1,270.7 139.4,270.7 146.1,270.6 148.3,270.6 150.6,270.5 152.8,270.4 157.3,270.3 159.5,270.1 166.3,269.9 175.2,269.9 177.5,269.7 179.7,269.6 197.6,269.6 202.1,269.5 213.3,269.5 215.6,269.5 217.8,269.4 226.8,269.3 229.0,269.1 231.2,268.8 233.5,268.3 235.7,268.2 251.4,268.1 258.1,268.1 262.6,268.1 264.8,268.0 267.1,267.8 269.3,267.7 271.6,267.7 273.8,267.6 276.0,267.4 285.0,267.2 289.5,267.2 298.4,267.1 300.7,266.9 302.9,266.9 305.2,266.8 309.7,266.7 311.9,265.9 314.1,265.0 316.4,264.7 318.6,264.5 320.9,264.4 323.1,264.1 325.3,263.8 327.6,263.6 329.8,263.5 332.1,263.4 336.5,263.3 338.8,262.9 341.0,262.6 343.3,262.2 345.5,262.0 350.0,261.9 354.5,261.9 356.7,261.6 358.9,261.3 361.2,260.7 363.4,260.4 365.7,260.0 367.9,259.7 370.1,259.3 372.4,258.9 374.6,258.4 376.9,258.0 379.1,257.5 381.3,257.1 383.6,256.9 385.8,256.6 388.1,256.2 390.3,256.0 392.5,255.8 394.8,255.6 397.0,255.5 399.3,255.4 403.7,255.4 406.0,254.5 408.2,253.9 410.5,253.8 412.7,253.7 417.2,253.6 419.4,253.5 428.4,253.4 432.9,253.4 439.6,253.3 441.8,252.3 444.1,251.3 446.3,251.1 448.6,250.3 450.8,249.7 453.0,249.3 455.3,249.1 457.5,248.7 459.8,248.5 462.0,248.4 464.2,248.2 466.5,248.1 479.9,247.4 482.2,246.6 484.4,246.4 486.6,246.3 488.9,246.3 504.6,246.2 524.7,245.3 527.0,244.6 529.2,243.8 531.5,242.5 533.7,242.3 535.9,241.9 538.2,241.2 540.4,240.7 542.7,239.5 544.9,237.7 547.1,236.0 549.4,234.0 551.6,231.9 553.9,230.1 556.1,228.9 558.3,227.6 560.6,225.5 562.8,223.8 565.1,222.7 567.3,221.5 569.5,219.8 571.8,218.8 574.0,217.7 576.3,216.8 578.5,216.1 580.7,215.2 583.0,214.6 585.2,214.0 587.5,213.5 589.7,211.9 591.9,210.6 594.2,209.9 596.4,209.7 598.7,209.3 600.9,208.7 603.1,208.1 605.4,207.0 607.6,206.4 609.9,205.8 612.1,205.7 614.3,205.4 616.6,204.9 618.8,203.7 621.1,201.6 623.3,199.4 625.6,197.3 627.8,195.5 630.0,193.5 632.3,191.3 634.5,189.0 636.8,187.0 639.0,185.5 641.2,184.3 643.5,183.0 645.7,181.6 648.0,180.8 650.2,179.7 652.4,178.9 654.7,177.8 656.9,176.2 659.2,174.4 661.4,172.9 663.6,171.5 665.9,170.6 668.1,169.8 670.4,169.0 672.6,168.2 674.8,166.7 677.1,165.4 679.3,163.9 681.6,162.3 683.8,161.0 686.0,159.9 688.3,159.5 690.5,158.9 692.8,158.3 695.0,158.2 697.2,158.1 699.5,157.8 701.7,157.6 704.0,157.6 706.2,157.4 708.4,157.3 715.2,157.2 717.4,157.2 719.7,156.9 721.9,155.1 724.1,153.6 726.4,152.2 728.6,150.7 730.9,149.4 733.1,148.0 735.3,146.5 737.6,145.2 739.8,143.8 742.1,142.5 744.3,141.1 746.5,139.8 748.8,138.5 751.0,137.2 753.3,135.9 755.5,134.8 757.7,133.6 760.0,132.4 762.2,131.1 764.5,130.0 766.7,128.8 768.9,128.0 771.2,127.2 773.4,126.5 775.7,125.3 777.9,124.3 780.1,123.3 782.4,122.2 784.6,121.1 786.9,120.2 789.1,119.2 791.3,118.1 793.6,117.1 795.8,116.1 798.1,115.0 800.3,114.1 802.5,113.1 804.8,112.2 807.0,111.4 809.3,110.4 811.5,109.5 813.7,108.6 816.0,107.9 818.2,107.3 820.5,106.9 822.7,106.8 825.0,105.8 827.2,105.0 829.4,104.1 831.7,103.2 833.9,102.5 836.2,101.6 838.4,100.7 840.6,99.9 842.9,99.1 845.1,98.4 847.4,97.6 849.6,96.9 851.8,96.0 854.1,95.3 856.3,94.5 858.6,93.7 860.8,93.0 863.0,92.3 865.3,91.4 867.5,90.8 869.8,90.2 872.0,90.0" fill="none" stroke="#38bdf8" stroke-width="2.5" stroke-linejoin="round" stroke-linecap="round"/>
<circle cx="872.0" cy="90.0" r="4" fill="#0ea5e9"/>
<text x="866.0" y="80.0" text-anchor="end" font-family="Inter, system-ui, sans-serif" font-size="13" font-weight="700" fill="#334155">4149</text>
<text x="52.0" y="294" text-anchor="middle" font-family="Inter, system-ui, sans-serif" font-size="11" fill="#94a3b8">Jun 10 05:00</text>
<text x="571.8" y="294" text-anchor="middle" font-family="Inter, system-ui, sans-serif" font-size="11" fill="#94a3b8">Jun 19 21:00</text>
<text x="872.0" y="294" text-anchor="middle" font-family="Inter, system-ui, sans-serif" font-size="11" fill="#94a3b8">Jun 25 11:00</text>
</svg>
