<svg xmlns="http://www.w3.org/2000/svg" width="900" height="320" viewBox="0 0 900 320" role="img" aria-labelledby="title desc">
<title id="title">unsorry proofs over time</title>
<desc id="desc">Cumulative kernel-verified proofs over time, by the hour each proof was merged.</desc>
<rect width="900" height="100%" rx="18" fill="#ffffff"/>
<rect x="0.5" y="0.5" width="899" height="319" rx="18" fill="none" stroke="#e2e8f0"/>
<text x="32" y="44" font-family="Inter, system-ui, sans-serif" font-size="28" font-weight="700" fill="#334155">unsorry — Proofs Over Time</text>
<text x="32" y="72" font-family="Inter, system-ui, sans-serif" font-size="13" fill="#64748b">3537 cumulative kernel-verified proofs · merged, hourly</text>
<line x1="52" y1="272.0" x2="872" y2="272.0" stroke="#f1f5f9"/>
<text x="44" y="276.0" text-anchor="end" font-family="Inter, system-ui, sans-serif" font-size="11" fill="#94a3b8">0</text>
<line x1="52" y1="226.5" x2="872" y2="226.5" stroke="#f1f5f9"/>
<text x="44" y="230.5" text-anchor="end" font-family="Inter, system-ui, sans-serif" font-size="11" fill="#94a3b8">884</text>
<line x1="52" y1="181.0" x2="872" y2="181.0" stroke="#f1f5f9"/>
<text x="44" y="185.0" text-anchor="end" font-family="Inter, system-ui, sans-serif" font-size="11" fill="#94a3b8">1768</text>
<line x1="52" y1="135.5" x2="872" y2="135.5" stroke="#f1f5f9"/>
<text x="44" y="139.5" text-anchor="end" font-family="Inter, system-ui, sans-serif" font-size="11" fill="#94a3b8">2653</text>
<line x1="52" y1="90.0" x2="872" y2="90.0" stroke="#f1f5f9"/>
<text x="44" y="94.0" text-anchor="end" font-family="Inter, system-ui, sans-serif" font-size="11" fill="#94a3b8">3537</text>
<polygon points="52.0,272.0 52.0,271.9 54.5,271.8 84.1,271.3 86.6,271.2 89.0,271.1 96.5,271.1 111.3,271.0 143.4,271.0 145.9,270.5 148.3,270.5 155.7,270.4 158.2,270.3 160.7,270.3 163.1,270.1 168.1,270.0 170.6,269.8 178.0,269.6 187.8,269.5 190.3,269.3 192.8,269.2 212.5,269.2 217.5,269.1 229.8,269.1 232.3,269.0 234.8,268.9 244.7,268.9 247.1,268.6 249.6,268.3 252.1,267.6 254.5,267.5 271.8,267.5 279.2,267.4 284.2,267.4 286.6,267.3 289.1,267.1 291.6,267.0 294.0,267.0 296.5,266.8 299.0,266.6 308.9,266.4 313.8,266.3 323.7,266.3 326.2,266.0 328.6,266.0 331.1,265.9 336.0,265.8 338.5,264.8 341.0,263.8 343.4,263.4 345.9,263.1 348.4,263.0 350.9,262.8 353.3,262.4 355.8,262.2 358.3,262.0 360.7,261.9 365.7,261.8 368.1,261.3 370.6,260.9 373.1,260.5 375.6,260.3 380.5,260.2 385.4,260.1 387.9,259.8 390.4,259.5 392.8,258.8 395.3,258.4 397.8,258.0 400.3,257.5 402.7,257.1 405.2,256.6 407.7,256.1 410.1,255.5 412.6,255.0 415.1,254.6 417.5,254.2 420.0,253.9 422.5,253.5 425.0,253.3 427.4,253.0 429.9,252.8 432.4,252.7 434.8,252.5 439.8,252.5 442.2,251.5 444.7,250.7 447.2,250.6 449.7,250.5 454.6,250.4 457.1,250.3 466.9,250.2 471.9,250.1 479.3,250.1 481.8,248.9 484.2,247.8 486.7,247.5 489.2,246.5 491.6,245.8 494.1,245.3 496.6,245.1 499.0,244.6 501.5,244.4 504.0,244.3 506.5,244.1 508.9,244.0 523.7,243.2 526.2,242.2 528.7,242.0 531.2,241.8 533.6,241.8 550.9,241.7 573.1,240.7 575.6,239.8 578.1,238.9 580.6,237.4 583.0,237.2 585.5,236.7 588.0,235.9 590.4,235.3 592.9,233.9 595.4,231.8 597.8,229.8 600.3,227.4 602.8,225.0 605.3,222.8 607.7,221.5 610.2,219.9 612.7,217.5 615.1,215.5 617.6,214.2 620.1,212.8 622.5,210.8 625.0,209.6 627.5,208.3 630.0,207.3 632.4,206.4 634.9,205.4 637.4,204.7 639.8,204.0 642.3,203.4 644.8,201.5 647.2,200.0 649.7,199.2 652.2,198.9 654.7,198.5 657.1,197.7 659.6,197.0 662.1,195.8 664.5,195.0 667.0,194.3 669.5,194.2 671.9,193.9 674.4,193.3 676.9,191.8 679.3,189.4 681.8,186.9 684.3,184.4 686.8,182.3 689.2,179.9 691.7,177.3 694.2,174.7 696.6,172.3 699.1,170.5 701.6,169.1 704.0,167.5 706.5,166.0 709.0,165.0 711.5,163.7 713.9,162.8 716.4,161.5 718.9,159.7 721.3,157.5 723.8,155.7 726.3,154.1 728.7,153.1 731.2,152.2 733.7,151.2 736.2,150.2 738.6,148.5 741.1,147.0 743.6,145.2 746.0,143.3 748.5,141.8 751.0,140.5 753.4,140.0 755.9,139.3 758.4,138.6 760.9,138.5 763.3,138.4 765.8,138.0 768.3,137.9 770.7,137.8 773.2,137.5 775.7,137.4 783.1,137.4 785.6,137.3 788.0,137.0 790.5,134.9 793.0,133.1 795.4,131.5 797.9,129.7 800.4,128.1 802.8,126.5 805.3,124.8 807.8,123.3 810.3,121.6 812.7,120.1 815.2,118.5 817.7,116.9 820.1,115.4 822.6,113.9 825.1,112.4 827.5,111.1 830.0,109.7 832.5,108.2 835.0,106.8 837.4,105.4 839.9,104.0 842.4,103.1 844.8,102.2 847.3,101.3 849.8,99.9 852.2,98.7 854.7,97.6 857.2,96.2 859.7,95.0 862.1,94.0 864.6,92.7 867.1,91.5 869.5,90.3 872.0,90.0 872.0,272.0" fill="#e0f2fe" opacity="0.55"/>
<polyline points="52.0,271.9 54.5,271.8 84.1,271.3 86.6,271.2 89.0,271.1 96.5,271.1 111.3,271.0 143.4,271.0 145.9,270.5 148.3,270.5 155.7,270.4 158.2,270.3 160.7,270.3 163.1,270.1 168.1,270.0 170.6,269.8 178.0,269.6 187.8,269.5 190.3,269.3 192.8,269.2 212.5,269.2 217.5,269.1 229.8,269.1 232.3,269.0 234.8,268.9 244.7,268.9 247.1,268.6 249.6,268.3 252.1,267.6 254.5,267.5 271.8,267.5 279.2,267.4 284.2,267.4 286.6,267.3 289.1,267.1 291.6,267.0 294.0,267.0 296.5,266.8 299.0,266.6 308.9,266.4 313.8,266.3 323.7,266.3 326.2,266.0 328.6,266.0 331.1,265.9 336.0,265.8 338.5,264.8 341.0,263.8 343.4,263.4 345.9,263.1 348.4,263.0 350.9,262.8 353.3,262.4 355.8,262.2 358.3,262.0 360.7,261.9 365.7,261.8 368.1,261.3 370.6,260.9 373.1,260.5 375.6,260.3 380.5,260.2 385.4,260.1 387.9,259.8 390.4,259.5 392.8,258.8 395.3,258.4 397.8,258.0 400.3,257.5 402.7,257.1 405.2,256.6 407.7,256.1 410.1,255.5 412.6,255.0 415.1,254.6 417.5,254.2 420.0,253.9 422.5,253.5 425.0,253.3 427.4,253.0 429.9,252.8 432.4,252.7 434.8,252.5 439.8,252.5 442.2,251.5 444.7,250.7 447.2,250.6 449.7,250.5 454.6,250.4 457.1,250.3 466.9,250.2 471.9,250.1 479.3,250.1 481.8,248.9 484.2,247.8 486.7,247.5 489.2,246.5 491.6,245.8 494.1,245.3 496.6,245.1 499.0,244.6 501.5,244.4 504.0,244.3 506.5,244.1 508.9,244.0 523.7,243.2 526.2,242.2 528.7,242.0 531.2,241.8 533.6,241.8 550.9,241.7 573.1,240.7 575.6,239.8 578.1,238.9 580.6,237.4 583.0,237.2 585.5,236.7 588.0,235.9 590.4,235.3 592.9,233.9 595.4,231.8 597.8,229.8 600.3,227.4 602.8,225.0 605.3,222.8 607.7,221.5 610.2,219.9 612.7,217.5 615.1,215.5 617.6,214.2 620.1,212.8 622.5,210.8 625.0,209.6 627.5,208.3 630.0,207.3 632.4,206.4 634.9,205.4 637.4,204.7 639.8,204.0 642.3,203.4 644.8,201.5 647.2,200.0 649.7,199.2 652.2,198.9 654.7,198.5 657.1,197.7 659.6,197.0 662.1,195.8 664.5,195.0 667.0,194.3 669.5,194.2 671.9,193.9 674.4,193.3 676.9,191.8 679.3,189.4 681.8,186.9 684.3,184.4 686.8,182.3 689.2,179.9 691.7,177.3 694.2,174.7 696.6,172.3 699.1,170.5 701.6,169.1 704.0,167.5 706.5,166.0 709.0,165.0 711.5,163.7 713.9,162.8 716.4,161.5 718.9,159.7 721.3,157.5 723.8,155.7 726.3,154.1 728.7,153.1 731.2,152.2 733.7,151.2 736.2,150.2 738.6,148.5 741.1,147.0 743.6,145.2 746.0,143.3 748.5,141.8 751.0,140.5 753.4,140.0 755.9,139.3 758.4,138.6 760.9,138.5 763.3,138.4 765.8,138.0 768.3,137.9 770.7,137.8 773.2,137.5 775.7,137.4 783.1,137.4 785.6,137.3 788.0,137.0 790.5,134.9 793.0,133.1 795.4,131.5 797.9,129.7 800.4,128.1 802.8,126.5 805.3,124.8 807.8,123.3 810.3,121.6 812.7,120.1 815.2,118.5 817.7,116.9 820.1,115.4 822.6,113.9 825.1,112.4 827.5,111.1 830.0,109.7 832.5,108.2 835.0,106.8 837.4,105.4 839.9,104.0 842.4,103.1 844.8,102.2 847.3,101.3 849.8,99.9 852.2,98.7 854.7,97.6 857.2,96.2 859.7,95.0 862.1,94.0 864.6,92.7 867.1,91.5 869.5,90.3 872.0,90.0" fill="none" stroke="#38bdf8" stroke-width="2.5" stroke-linejoin="round" stroke-linecap="round"/>
<circle cx="872.0" cy="90.0" r="4" fill="#0ea5e9"/>
<text x="866.0" y="80.0" text-anchor="end" font-family="Inter, system-ui, sans-serif" font-size="13" font-weight="700" fill="#334155">3537</text>
<text x="52.0" y="294" text-anchor="middle" font-family="Inter, system-ui, sans-serif" font-size="11" fill="#94a3b8">Jun 10 05:00</text>
<text x="583.0" y="294" text-anchor="middle" font-family="Inter, system-ui, sans-serif" font-size="11" fill="#94a3b8">Jun 19 04:00</text>
<text x="872.0" y="294" text-anchor="middle" font-family="Inter, system-ui, sans-serif" font-size="11" fill="#94a3b8">Jun 24 01:00</text>
</svg>
