<svg xmlns="http://www.w3.org/2000/svg" width="900" height="320" viewBox="0 0 900 320" role="img" aria-labelledby="title desc">
<title id="title">unsorry proofs over time</title>
<desc id="desc">Cumulative kernel-verified proofs over time, by the hour each proof was merged.</desc>
<rect width="900" height="100%" rx="18" fill="#ffffff"/>
<rect x="0.5" y="0.5" width="899" height="319" rx="18" fill="none" stroke="#e2e8f0"/>
<text x="32" y="44" font-family="Inter, system-ui, sans-serif" font-size="28" font-weight="700" fill="#334155">unsorry — Proofs Over Time</text>
<text x="32" y="72" font-family="Inter, system-ui, sans-serif" font-size="13" fill="#64748b">4440 cumulative kernel-verified proofs · merged, hourly</text>
<line x1="52" y1="272.0" x2="872" y2="272.0" stroke="#f1f5f9"/>
<text x="44" y="276.0" text-anchor="end" font-family="Inter, system-ui, sans-serif" font-size="11" fill="#94a3b8">0</text>
<line x1="52" y1="226.5" x2="872" y2="226.5" stroke="#f1f5f9"/>
<text x="44" y="230.5" text-anchor="end" font-family="Inter, system-ui, sans-serif" font-size="11" fill="#94a3b8">1110</text>
<line x1="52" y1="181.0" x2="872" y2="181.0" stroke="#f1f5f9"/>
<text x="44" y="185.0" text-anchor="end" font-family="Inter, system-ui, sans-serif" font-size="11" fill="#94a3b8">2220</text>
<line x1="52" y1="135.5" x2="872" y2="135.5" stroke="#f1f5f9"/>
<text x="44" y="139.5" text-anchor="end" font-family="Inter, system-ui, sans-serif" font-size="11" fill="#94a3b8">3330</text>
<line x1="52" y1="90.0" x2="872" y2="90.0" stroke="#f1f5f9"/>
<text x="44" y="94.0" text-anchor="end" font-family="Inter, system-ui, sans-serif" font-size="11" fill="#94a3b8">4440</text>
<polygon points="52.0,272.0 52.0,272.0 54.1,271.9 79.8,271.5 82.0,271.3 84.1,271.3 90.5,271.3 103.4,271.2 131.2,271.2 133.4,270.8 135.5,270.8 141.9,270.7 144.1,270.6 146.2,270.6 148.3,270.5 152.6,270.4 154.8,270.2 161.2,270.1 169.8,270.0 171.9,269.9 174.0,269.8 191.2,269.7 195.4,269.7 206.2,269.7 208.3,269.6 210.4,269.5 219.0,269.5 221.1,269.3 223.3,269.0 225.4,268.5 227.6,268.4 242.5,268.4 249.0,268.4 253.3,268.3 255.4,268.3 257.5,268.1 259.7,268.0 261.8,268.0 264.0,267.9 266.1,267.7 274.7,267.5 278.9,267.5 287.5,267.4 289.7,267.2 291.8,267.2 293.9,267.1 298.2,267.1 300.4,266.3 302.5,265.4 304.6,265.2 306.8,264.9 308.9,264.9 311.1,264.7 313.2,264.4 315.3,264.2 317.5,264.0 319.6,264.0 323.9,263.8 326.0,263.5 328.2,263.2 330.3,262.9 332.5,262.7 336.8,262.6 341.0,262.5 343.2,262.2 345.3,262.0 347.5,261.5 349.6,261.1 351.7,260.8 353.9,260.5 356.0,260.1 358.2,259.7 360.3,259.3 362.4,258.9 364.6,258.5 366.7,258.1 368.9,257.9 371.0,257.6 373.1,257.2 375.3,257.1 377.4,256.9 379.6,256.7 381.7,256.6 383.9,256.5 388.1,256.5 390.3,255.6 392.4,255.1 394.6,254.9 396.7,254.9 401.0,254.8 403.1,254.7 411.7,254.7 416.0,254.6 422.4,254.5 424.5,253.6 426.7,252.7 428.8,252.4 431.0,251.7 433.1,251.1 435.2,250.8 437.4,250.6 439.5,250.2 441.7,250.0 443.8,249.9 445.9,249.8 448.1,249.7 460.9,249.0 463.1,248.2 465.2,248.1 467.4,248.0 469.5,247.9 484.5,247.9 503.7,247.0 505.9,246.4 508.0,245.6 510.2,244.5 512.3,244.2 514.5,243.9 516.6,243.2 518.7,242.7 520.9,241.6 523.0,240.0 525.2,238.4 527.3,236.5 529.4,234.5 531.6,232.8 533.7,231.7 535.9,230.5 538.0,228.6 540.1,227.0 542.3,225.9 544.4,224.8 546.6,223.3 548.7,222.3 550.9,221.3 553.0,220.4 555.1,219.8 557.3,218.9 559.4,218.4 561.6,217.8 563.7,217.3 565.8,215.8 568.0,214.7 570.1,214.0 572.3,213.8 574.4,213.4 576.5,212.8 578.7,212.3 580.8,211.3 583.0,210.7 585.1,210.1 587.2,210.0 589.4,209.8 591.5,209.3 593.7,208.1 595.8,206.2 598.0,204.2 600.1,202.2 602.2,200.6 604.4,198.6 606.5,196.6 608.7,194.5 610.8,192.6 612.9,191.2 615.1,190.1 617.2,188.8 619.4,187.6 621.5,186.7 623.6,185.8 625.8,185.0 627.9,184.0 630.1,182.5 632.2,180.8 634.3,179.4 636.5,178.1 638.6,177.3 640.8,176.5 642.9,175.8 645.1,175.0 647.2,173.6 649.3,172.4 651.5,171.0 653.6,169.5 655.8,168.3 657.9,167.3 660.0,166.9 662.2,166.3 664.3,165.7 666.5,165.6 668.6,165.5 670.7,165.3 672.9,165.1 675.0,165.1 677.2,164.9 679.3,164.8 685.7,164.8 687.9,164.7 690.0,164.5 692.2,162.8 694.3,161.4 696.4,160.1 698.6,158.7 700.7,157.4 702.9,156.1 705.0,154.8 707.1,153.5 709.3,152.2 711.4,151.0 713.6,149.7 715.7,148.5 717.8,147.3 720.0,146.0 722.1,144.8 724.3,143.8 726.4,142.7 728.6,141.5 730.7,140.4 732.8,139.3 735.0,138.2 737.1,137.5 739.3,136.7 741.4,136.0 743.5,134.9 745.7,134.0 747.8,133.1 750.0,132.0 752.1,131.0 754.2,130.2 756.4,129.2 758.5,128.2 760.7,127.3 762.8,126.4 765.0,125.3 767.1,124.5 769.2,123.5 771.4,122.7 773.5,121.9 775.7,121.0 777.8,120.1 779.9,119.3 782.1,118.7 784.2,118.1 786.4,117.7 788.5,117.6 790.6,116.7 792.8,115.9 794.9,115.1 797.1,114.3 799.2,113.6 801.3,112.8 803.5,112.0 805.6,111.2 807.8,110.5 809.9,109.8 812.1,109.1 814.2,108.4 816.3,107.5 818.5,106.9 820.6,106.2 822.8,105.4 824.9,104.7 827.0,104.1 829.2,103.3 831.3,102.7 833.5,102.1 835.6,101.3 837.7,100.5 839.9,99.8 842.0,99.0 844.2,98.3 846.3,97.7 848.4,97.1 850.6,96.2 852.7,95.7 854.9,95.2 857.0,94.6 859.2,93.9 861.3,93.2 863.4,92.3 865.6,91.6 867.7,90.9 869.9,90.3 872.0,90.0 872.0,272.0" fill="#e0f2fe" opacity="0.55"/>
<polyline points="52.0,272.0 54.1,271.9 79.8,271.5 82.0,271.3 84.1,271.3 90.5,271.3 103.4,271.2 131.2,271.2 133.4,270.8 135.5,270.8 141.9,270.7 144.1,270.6 146.2,270.6 148.3,270.5 152.6,270.4 154.8,270.2 161.2,270.1 169.8,270.0 171.9,269.9 174.0,269.8 191.2,269.7 195.4,269.7 206.2,269.7 208.3,269.6 210.4,269.5 219.0,269.5 221.1,269.3 223.3,269.0 225.4,268.5 227.6,268.4 242.5,268.4 249.0,268.4 253.3,268.3 255.4,268.3 257.5,268.1 259.7,268.0 261.8,268.0 264.0,267.9 266.1,267.7 274.7,267.5 278.9,267.5 287.5,267.4 289.7,267.2 291.8,267.2 293.9,267.1 298.2,267.1 300.4,266.3 302.5,265.4 304.6,265.2 306.8,264.9 308.9,264.9 311.1,264.7 313.2,264.4 315.3,264.2 317.5,264.0 319.6,264.0 323.9,263.8 326.0,263.5 328.2,263.2 330.3,262.9 332.5,262.7 336.8,262.6 341.0,262.5 343.2,262.2 345.3,262.0 347.5,261.5 349.6,261.1 351.7,260.8 353.9,260.5 356.0,260.1 358.2,259.7 360.3,259.3 362.4,258.9 364.6,258.5 366.7,258.1 368.9,257.9 371.0,257.6 373.1,257.2 375.3,257.1 377.4,256.9 379.6,256.7 381.7,256.6 383.9,256.5 388.1,256.5 390.3,255.6 392.4,255.1 394.6,254.9 396.7,254.9 401.0,254.8 403.1,254.7 411.7,254.7 416.0,254.6 422.4,254.5 424.5,253.6 426.7,252.7 428.8,252.4 431.0,251.7 433.1,251.1 435.2,250.8 437.4,250.6 439.5,250.2 441.7,250.0 443.8,249.9 445.9,249.8 448.1,249.7 460.9,249.0 463.1,248.2 465.2,248.1 467.4,248.0 469.5,247.9 484.5,247.9 503.7,247.0 505.9,246.4 508.0,245.6 510.2,244.5 512.3,244.2 514.5,243.9 516.6,243.2 518.7,242.7 520.9,241.6 523.0,240.0 525.2,238.4 527.3,236.5 529.4,234.5 531.6,232.8 533.7,231.7 535.9,230.5 538.0,228.6 540.1,227.0 542.3,225.9 544.4,224.8 546.6,223.3 548.7,222.3 550.9,221.3 553.0,220.4 555.1,219.8 557.3,218.9 559.4,218.4 561.6,217.8 563.7,217.3 565.8,215.8 568.0,214.7 570.1,214.0 572.3,213.8 574.4,213.4 576.5,212.8 578.7,212.3 580.8,211.3 583.0,210.7 585.1,210.1 587.2,210.0 589.4,209.8 591.5,209.3 593.7,208.1 595.8,206.2 598.0,204.2 600.1,202.2 602.2,200.6 604.4,198.6 606.5,196.6 608.7,194.5 610.8,192.6 612.9,191.2 615.1,190.1 617.2,188.8 619.4,187.6 621.5,186.7 623.6,185.8 625.8,185.0 627.9,184.0 630.1,182.5 632.2,180.8 634.3,179.4 636.5,178.1 638.6,177.3 640.8,176.5 642.9,175.8 645.1,175.0 647.2,173.6 649.3,172.4 651.5,171.0 653.6,169.5 655.8,168.3 657.9,167.3 660.0,166.9 662.2,166.3 664.3,165.7 666.5,165.6 668.6,165.5 670.7,165.3 672.9,165.1 675.0,165.1 677.2,164.9 679.3,164.8 685.7,164.8 687.9,164.7 690.0,164.5 692.2,162.8 694.3,161.4 696.4,160.1 698.6,158.7 700.7,157.4 702.9,156.1 705.0,154.8 707.1,153.5 709.3,152.2 711.4,151.0 713.6,149.7 715.7,148.5 717.8,147.3 720.0,146.0 722.1,144.8 724.3,143.8 726.4,142.7 728.6,141.5 730.7,140.4 732.8,139.3 735.0,138.2 737.1,137.5 739.3,136.7 741.4,136.0 743.5,134.9 745.7,134.0 747.8,133.1 750.0,132.0 752.1,131.0 754.2,130.2 756.4,129.2 758.5,128.2 760.7,127.3 762.8,126.4 765.0,125.3 767.1,124.5 769.2,123.5 771.4,122.7 773.5,121.9 775.7,121.0 777.8,120.1 779.9,119.3 782.1,118.7 784.2,118.1 786.4,117.7 788.5,117.6 790.6,116.7 792.8,115.9 794.9,115.1 797.1,114.3 799.2,113.6 801.3,112.8 803.5,112.0 805.6,111.2 807.8,110.5 809.9,109.8 812.1,109.1 814.2,108.4 816.3,107.5 818.5,106.9 820.6,106.2 822.8,105.4 824.9,104.7 827.0,104.1 829.2,103.3 831.3,102.7 833.5,102.1 835.6,101.3 837.7,100.5 839.9,99.8 842.0,99.0 844.2,98.3 846.3,97.7 848.4,97.1 850.6,96.2 852.7,95.7 854.9,95.2 857.0,94.6 859.2,93.9 861.3,93.2 863.4,92.3 865.6,91.6 867.7,90.9 869.9,90.3 872.0,90.0" fill="none" stroke="#38bdf8" stroke-width="2.5" stroke-linejoin="round" stroke-linecap="round"/>
<circle cx="872.0" cy="90.0" r="4" fill="#0ea5e9"/>
<text x="866.0" y="80.0" text-anchor="end" font-family="Inter, system-ui, sans-serif" font-size="13" font-weight="700" fill="#334155">4440</text>
<text x="52.0" y="294" text-anchor="middle" font-family="Inter, system-ui, sans-serif" font-size="11" fill="#94a3b8">Jun 10 05:00</text>
<text x="568.0" y="294" text-anchor="middle" font-family="Inter, system-ui, sans-serif" font-size="11" fill="#94a3b8">Jun 20 06:00</text>
<text x="872.0" y="294" text-anchor="middle" font-family="Inter, system-ui, sans-serif" font-size="11" fill="#94a3b8">Jun 26 04:00</text>
</svg>
