<svg xmlns="http://www.w3.org/2000/svg" width="900" height="320" viewBox="0 0 900 320" role="img" aria-labelledby="title desc">
<title id="title">unsorry proofs over time</title>
<desc id="desc">Cumulative kernel-verified proofs over time, by the hour each proof was merged.</desc>
<rect width="900" height="100%" rx="18" fill="#ffffff"/>
<rect x="0.5" y="0.5" width="899" height="319" rx="18" fill="none" stroke="#e2e8f0"/>
<text x="32" y="44" font-family="Inter, system-ui, sans-serif" font-size="28" font-weight="700" fill="#334155">unsorry — Proofs Over Time</text>
<text x="32" y="72" font-family="Inter, system-ui, sans-serif" font-size="13" fill="#64748b">3701 cumulative kernel-verified proofs · merged, hourly</text>
<line x1="52" y1="272.0" x2="872" y2="272.0" stroke="#f1f5f9"/>
<text x="44" y="276.0" text-anchor="end" font-family="Inter, system-ui, sans-serif" font-size="11" fill="#94a3b8">0</text>
<line x1="52" y1="226.5" x2="872" y2="226.5" stroke="#f1f5f9"/>
<text x="44" y="230.5" text-anchor="end" font-family="Inter, system-ui, sans-serif" font-size="11" fill="#94a3b8">925</text>
<line x1="52" y1="181.0" x2="872" y2="181.0" stroke="#f1f5f9"/>
<text x="44" y="185.0" text-anchor="end" font-family="Inter, system-ui, sans-serif" font-size="11" fill="#94a3b8">1850</text>
<line x1="52" y1="135.5" x2="872" y2="135.5" stroke="#f1f5f9"/>
<text x="44" y="139.5" text-anchor="end" font-family="Inter, system-ui, sans-serif" font-size="11" fill="#94a3b8">2776</text>
<line x1="52" y1="90.0" x2="872" y2="90.0" stroke="#f1f5f9"/>
<text x="44" y="94.0" text-anchor="end" font-family="Inter, system-ui, sans-serif" font-size="11" fill="#94a3b8">3701</text>
<polygon points="52.0,272.0 52.0,272.0 54.4,271.9 83.4,271.4 85.9,271.2 88.3,271.2 95.5,271.1 110.1,271.1 141.5,271.0 143.9,270.6 146.3,270.5 153.6,270.4 156.0,270.4 158.4,270.3 160.8,270.2 165.7,270.1 168.1,269.9 175.4,269.7 185.0,269.6 187.5,269.4 189.9,269.3 209.2,269.3 214.1,269.2 226.2,269.2 228.6,269.1 231.0,269.0 240.7,269.0 243.1,268.7 245.5,268.5 247.9,267.8 250.3,267.7 267.3,267.7 274.5,267.6 279.4,267.6 281.8,267.5 284.2,267.3 286.6,267.2 289.1,267.2 291.5,267.0 293.9,266.9 303.6,266.6 308.4,266.6 318.1,266.5 320.5,266.3 322.9,266.2 325.3,266.1 330.2,266.1 332.6,265.1 335.0,264.1 337.4,263.8 339.8,263.5 342.3,263.4 344.7,263.2 347.1,262.9 349.5,262.6 351.9,262.5 354.4,262.4 359.2,262.2 361.6,261.8 364.0,261.4 366.5,261.0 368.9,260.8 373.7,260.7 378.5,260.6 381.0,260.3 383.4,260.1 385.8,259.4 388.2,259.0 390.6,258.6 393.1,258.2 395.5,257.7 397.9,257.3 400.3,256.8 402.7,256.3 405.2,255.8 407.6,255.3 410.0,255.0 412.4,254.7 414.8,254.3 417.3,254.1 419.7,253.9 422.1,253.6 424.5,253.5 426.9,253.4 431.8,253.4 434.2,252.4 436.6,251.7 439.0,251.5 441.4,251.5 446.3,251.4 448.7,251.2 458.4,251.2 463.2,251.1 470.5,251.1 472.9,249.9 475.3,248.8 477.7,248.5 480.1,247.7 482.6,247.0 485.0,246.5 487.4,246.3 489.8,245.8 492.2,245.6 494.7,245.5 497.1,245.3 499.5,245.2 514.0,244.5 516.4,243.5 518.8,243.3 521.3,243.2 523.7,243.1 540.6,243.1 562.4,242.1 564.8,241.3 567.2,240.3 569.6,239.0 572.1,238.7 574.5,238.3 576.9,237.5 579.3,236.9 581.7,235.6 584.2,233.6 586.6,231.7 589.0,229.4 591.4,227.1 593.8,225.0 596.2,223.7 598.7,222.2 601.1,219.9 603.5,218.0 605.9,216.7 608.3,215.4 610.8,213.5 613.2,212.3 615.6,211.2 618.0,210.1 620.4,209.3 622.9,208.3 625.3,207.7 627.7,207.0 630.1,206.4 632.5,204.6 634.9,203.2 637.4,202.4 639.8,202.2 642.2,201.7 644.6,201.0 647.0,200.4 649.5,199.2 651.9,198.4 654.3,197.7 656.7,197.6 659.1,197.4 661.6,196.8 664.0,195.4 666.4,193.1 668.8,190.7 671.2,188.3 673.7,186.3 676.1,184.0 678.5,181.5 680.9,179.0 683.3,176.7 685.7,175.0 688.2,173.7 690.6,172.2 693.0,170.7 695.4,169.7 697.8,168.5 700.3,167.6 702.7,166.4 705.1,164.6 707.5,162.6 709.9,160.9 712.4,159.3 714.8,158.4 717.2,157.5 719.6,156.6 722.0,155.6 724.4,153.9 726.9,152.5 729.3,150.8 731.7,149.0 734.1,147.5 736.5,146.4 739.0,145.9 741.4,145.2 743.8,144.5 746.2,144.4 748.6,144.3 751.1,143.9 753.5,143.8 755.9,143.7 758.3,143.5 760.7,143.4 768.0,143.4 770.4,143.3 772.8,143.0 775.2,141.0 777.7,139.3 780.1,137.7 782.5,136.0 784.9,134.5 787.3,133.0 789.8,131.4 792.2,129.9 794.6,128.3 797.0,126.8 799.4,125.3 801.9,123.8 804.3,122.4 806.7,120.9 809.1,119.5 811.5,118.2 813.9,116.9 816.4,115.5 818.8,114.1 821.2,112.8 823.6,111.5 826.0,110.6 828.5,109.7 830.9,108.8 833.3,107.6 835.7,106.4 838.1,105.3 840.6,104.0 843.0,102.9 845.4,101.9 847.8,100.7 850.2,99.5 852.6,98.4 855.1,97.3 857.5,96.0 859.9,95.0 862.3,93.8 864.7,92.9 867.2,92.0 869.6,90.8 872.0,90.0 872.0,272.0" fill="#e0f2fe" opacity="0.55"/>
<polyline points="52.0,272.0 54.4,271.9 83.4,271.4 85.9,271.2 88.3,271.2 95.5,271.1 110.1,271.1 141.5,271.0 143.9,270.6 146.3,270.5 153.6,270.4 156.0,270.4 158.4,270.3 160.8,270.2 165.7,270.1 168.1,269.9 175.4,269.7 185.0,269.6 187.5,269.4 189.9,269.3 209.2,269.3 214.1,269.2 226.2,269.2 228.6,269.1 231.0,269.0 240.7,269.0 243.1,268.7 245.5,268.5 247.9,267.8 250.3,267.7 267.3,267.7 274.5,267.6 279.4,267.6 281.8,267.5 284.2,267.3 286.6,267.2 289.1,267.2 291.5,267.0 293.9,266.9 303.6,266.6 308.4,266.6 318.1,266.5 320.5,266.3 322.9,266.2 325.3,266.1 330.2,266.1 332.6,265.1 335.0,264.1 337.4,263.8 339.8,263.5 342.3,263.4 344.7,263.2 347.1,262.9 349.5,262.6 351.9,262.5 354.4,262.4 359.2,262.2 361.6,261.8 364.0,261.4 366.5,261.0 368.9,260.8 373.7,260.7 378.5,260.6 381.0,260.3 383.4,260.1 385.8,259.4 388.2,259.0 390.6,258.6 393.1,258.2 395.5,257.7 397.9,257.3 400.3,256.8 402.7,256.3 405.2,255.8 407.6,255.3 410.0,255.0 412.4,254.7 414.8,254.3 417.3,254.1 419.7,253.9 422.1,253.6 424.5,253.5 426.9,253.4 431.8,253.4 434.2,252.4 436.6,251.7 439.0,251.5 441.4,251.5 446.3,251.4 448.7,251.2 458.4,251.2 463.2,251.1 470.5,251.1 472.9,249.9 475.3,248.8 477.7,248.5 480.1,247.7 482.6,247.0 485.0,246.5 487.4,246.3 489.8,245.8 492.2,245.6 494.7,245.5 497.1,245.3 499.5,245.2 514.0,244.5 516.4,243.5 518.8,243.3 521.3,243.2 523.7,243.1 540.6,243.1 562.4,242.1 564.8,241.3 567.2,240.3 569.6,239.0 572.1,238.7 574.5,238.3 576.9,237.5 579.3,236.9 581.7,235.6 584.2,233.6 586.6,231.7 589.0,229.4 591.4,227.1 593.8,225.0 596.2,223.7 598.7,222.2 601.1,219.9 603.5,218.0 605.9,216.7 608.3,215.4 610.8,213.5 613.2,212.3 615.6,211.2 618.0,210.1 620.4,209.3 622.9,208.3 625.3,207.7 627.7,207.0 630.1,206.4 632.5,204.6 634.9,203.2 637.4,202.4 639.8,202.2 642.2,201.7 644.6,201.0 647.0,200.4 649.5,199.2 651.9,198.4 654.3,197.7 656.7,197.6 659.1,197.4 661.6,196.8 664.0,195.4 666.4,193.1 668.8,190.7 671.2,188.3 673.7,186.3 676.1,184.0 678.5,181.5 680.9,179.0 683.3,176.7 685.7,175.0 688.2,173.7 690.6,172.2 693.0,170.7 695.4,169.7 697.8,168.5 700.3,167.6 702.7,166.4 705.1,164.6 707.5,162.6 709.9,160.9 712.4,159.3 714.8,158.4 717.2,157.5 719.6,156.6 722.0,155.6 724.4,153.9 726.9,152.5 729.3,150.8 731.7,149.0 734.1,147.5 736.5,146.4 739.0,145.9 741.4,145.2 743.8,144.5 746.2,144.4 748.6,144.3 751.1,143.9 753.5,143.8 755.9,143.7 758.3,143.5 760.7,143.4 768.0,143.4 770.4,143.3 772.8,143.0 775.2,141.0 777.7,139.3 780.1,137.7 782.5,136.0 784.9,134.5 787.3,133.0 789.8,131.4 792.2,129.9 794.6,128.3 797.0,126.8 799.4,125.3 801.9,123.8 804.3,122.4 806.7,120.9 809.1,119.5 811.5,118.2 813.9,116.9 816.4,115.5 818.8,114.1 821.2,112.8 823.6,111.5 826.0,110.6 828.5,109.7 830.9,108.8 833.3,107.6 835.7,106.4 838.1,105.3 840.6,104.0 843.0,102.9 845.4,101.9 847.8,100.7 850.2,99.5 852.6,98.4 855.1,97.3 857.5,96.0 859.9,95.0 862.3,93.8 864.7,92.9 867.2,92.0 869.6,90.8 872.0,90.0" fill="none" stroke="#38bdf8" stroke-width="2.5" stroke-linejoin="round" stroke-linecap="round"/>
<circle cx="872.0" cy="90.0" r="4" fill="#0ea5e9"/>
<text x="866.0" y="80.0" text-anchor="end" font-family="Inter, system-ui, sans-serif" font-size="13" font-weight="700" fill="#334155">3701</text>
<text x="52.0" y="294" text-anchor="middle" font-family="Inter, system-ui, sans-serif" font-size="11" fill="#94a3b8">Jun 10 05:00</text>
<text x="581.7" y="294" text-anchor="middle" font-family="Inter, system-ui, sans-serif" font-size="11" fill="#94a3b8">Jun 19 08:00</text>
<text x="872.0" y="294" text-anchor="middle" font-family="Inter, system-ui, sans-serif" font-size="11" fill="#94a3b8">Jun 24 08:00</text>
</svg>
