<svg xmlns="http://www.w3.org/2000/svg" width="900" height="320" viewBox="0 0 900 320" role="img" aria-labelledby="title desc">
<title id="title">Unsorry proofs over time</title>
<desc id="desc">Cumulative kernel-verified proofs over time, by the hour each proof was merged.</desc>
<rect width="900" height="100%" rx="18" fill="#ffffff"/>
<rect x="0.5" y="0.5" width="899" height="319" rx="18" fill="none" stroke="#e2e8f0"/>
<text x="32" y="44" font-family="Inter, system-ui, sans-serif" font-size="28" font-weight="700" fill="#334155">Unsorry — Proofs Over Time</text>
<text x="32" y="72" font-family="Inter, system-ui, sans-serif" font-size="13" fill="#64748b">2181 cumulative kernel-verified proofs · merged, hourly</text>
<line x1="52" y1="272.0" x2="872" y2="272.0" stroke="#f1f5f9"/>
<text x="44" y="276.0" text-anchor="end" font-family="Inter, system-ui, sans-serif" font-size="11" fill="#94a3b8">0</text>
<line x1="52" y1="226.5" x2="872" y2="226.5" stroke="#f1f5f9"/>
<text x="44" y="230.5" text-anchor="end" font-family="Inter, system-ui, sans-serif" font-size="11" fill="#94a3b8">545</text>
<line x1="52" y1="181.0" x2="872" y2="181.0" stroke="#f1f5f9"/>
<text x="44" y="185.0" text-anchor="end" font-family="Inter, system-ui, sans-serif" font-size="11" fill="#94a3b8">1090</text>
<line x1="52" y1="135.5" x2="872" y2="135.5" stroke="#f1f5f9"/>
<text x="44" y="139.5" text-anchor="end" font-family="Inter, system-ui, sans-serif" font-size="11" fill="#94a3b8">1636</text>
<line x1="52" y1="90.0" x2="872" y2="90.0" stroke="#f1f5f9"/>
<text x="44" y="94.0" text-anchor="end" font-family="Inter, system-ui, sans-serif" font-size="11" fill="#94a3b8">2181</text>
<polygon points="52.0,272.0 52.0,271.9 55.0,271.7 91.5,270.9 94.5,270.7 97.6,270.6 106.7,270.5 124.9,270.4 164.4,270.3 167.4,269.6 170.4,269.5 179.6,269.3 182.6,269.2 185.6,269.2 188.7,268.9 194.7,268.8 197.8,268.4 206.9,268.1 219.0,267.9 222.1,267.7 225.1,267.5 249.4,267.4 255.5,267.3 270.7,267.2 273.7,267.2 276.7,267.0 288.9,266.9 291.9,266.4 295.0,266.0 298.0,264.9 301.0,264.7 322.3,264.7 331.4,264.6 337.5,264.5 340.5,264.4 343.6,264.0 346.6,263.9 349.6,263.8 352.7,263.6 355.7,263.3 367.9,262.9 373.9,262.8 386.1,262.7 389.1,262.3 392.1,262.2 395.2,262.1 401.3,262.0 404.3,260.3 407.3,258.6 410.4,258.1 413.4,257.6 416.4,257.5 419.5,257.1 422.5,256.5 425.6,256.1 428.6,255.8 431.6,255.6 437.7,255.4 440.7,254.7 443.8,254.1 446.8,253.4 449.9,253.0 455.9,252.8 462.0,252.7 465.0,252.1 468.1,251.7 471.1,250.6 474.1,249.9 477.2,249.2 480.2,248.6 483.3,247.8 486.3,247.0 489.3,246.2 492.4,245.3 495.4,244.5 498.4,243.7 501.5,243.2 504.5,242.6 507.6,242.0 510.6,241.6 513.6,241.2 516.7,240.8 519.7,240.6 522.7,240.5 528.8,240.4 531.9,238.7 534.9,237.5 537.9,237.3 541.0,237.2 547.0,237.0 550.1,236.8 562.2,236.7 568.3,236.5 577.4,236.5 580.4,234.5 583.5,232.7 586.5,232.2 589.6,230.7 592.6,229.5 595.6,228.8 598.7,228.4 601.7,227.6 604.7,227.3 607.8,227.1 610.8,226.8 613.9,226.6 632.1,225.3 635.1,223.6 638.1,223.3 641.2,223.1 644.2,223.0 665.5,222.9 692.8,221.2 695.9,219.8 698.9,218.3 701.9,215.9 705.0,215.5 708.0,214.8 711.0,213.4 714.1,212.4 717.1,210.2 720.1,206.8 723.2,203.6 726.2,199.7 729.3,195.7 732.3,192.2 735.3,190.1 738.4,187.5 741.4,183.6 744.4,180.4 747.5,178.2 750.5,176.0 753.6,172.8 756.6,170.8 759.6,168.8 762.7,167.0 765.7,165.7 768.7,163.9 771.8,162.9 774.8,161.7 777.9,160.7 780.9,157.7 783.9,155.3 787.0,153.9 790.0,153.5 793.0,152.8 796.1,151.5 799.1,150.4 802.1,148.4 805.2,147.2 808.2,146.0 811.3,145.8 814.3,145.3 817.3,144.4 820.4,142.0 823.4,138.1 826.4,134.0 829.5,129.9 832.5,126.6 835.6,122.6 838.6,118.5 841.6,114.2 844.7,110.3 847.7,107.4 850.7,105.2 853.8,102.6 856.8,100.1 859.9,98.4 862.9,96.4 865.9,94.9 869.0,92.8 872.0,90.0 872.0,272.0" fill="#e0f2fe" opacity="0.55"/>
<polyline points="52.0,271.9 55.0,271.7 91.5,270.9 94.5,270.7 97.6,270.6 106.7,270.5 124.9,270.4 164.4,270.3 167.4,269.6 170.4,269.5 179.6,269.3 182.6,269.2 185.6,269.2 188.7,268.9 194.7,268.8 197.8,268.4 206.9,268.1 219.0,267.9 222.1,267.7 225.1,267.5 249.4,267.4 255.5,267.3 270.7,267.2 273.7,267.2 276.7,267.0 288.9,266.9 291.9,266.4 295.0,266.0 298.0,264.9 301.0,264.7 322.3,264.7 331.4,264.6 337.5,264.5 340.5,264.4 343.6,264.0 346.6,263.9 349.6,263.8 352.7,263.6 355.7,263.3 367.9,262.9 373.9,262.8 386.1,262.7 389.1,262.3 392.1,262.2 395.2,262.1 401.3,262.0 404.3,260.3 407.3,258.6 410.4,258.1 413.4,257.6 416.4,257.5 419.5,257.1 422.5,256.5 425.6,256.1 428.6,255.8 431.6,255.6 437.7,255.4 440.7,254.7 443.8,254.1 446.8,253.4 449.9,253.0 455.9,252.8 462.0,252.7 465.0,252.1 468.1,251.7 471.1,250.6 474.1,249.9 477.2,249.2 480.2,248.6 483.3,247.8 486.3,247.0 489.3,246.2 492.4,245.3 495.4,244.5 498.4,243.7 501.5,243.2 504.5,242.6 507.6,242.0 510.6,241.6 513.6,241.2 516.7,240.8 519.7,240.6 522.7,240.5 528.8,240.4 531.9,238.7 534.9,237.5 537.9,237.3 541.0,237.2 547.0,237.0 550.1,236.8 562.2,236.7 568.3,236.5 577.4,236.5 580.4,234.5 583.5,232.7 586.5,232.2 589.6,230.7 592.6,229.5 595.6,228.8 598.7,228.4 601.7,227.6 604.7,227.3 607.8,227.1 610.8,226.8 613.9,226.6 632.1,225.3 635.1,223.6 638.1,223.3 641.2,223.1 644.2,223.0 665.5,222.9 692.8,221.2 695.9,219.8 698.9,218.3 701.9,215.9 705.0,215.5 708.0,214.8 711.0,213.4 714.1,212.4 717.1,210.2 720.1,206.8 723.2,203.6 726.2,199.7 729.3,195.7 732.3,192.2 735.3,190.1 738.4,187.5 741.4,183.6 744.4,180.4 747.5,178.2 750.5,176.0 753.6,172.8 756.6,170.8 759.6,168.8 762.7,167.0 765.7,165.7 768.7,163.9 771.8,162.9 774.8,161.7 777.9,160.7 780.9,157.7 783.9,155.3 787.0,153.9 790.0,153.5 793.0,152.8 796.1,151.5 799.1,150.4 802.1,148.4 805.2,147.2 808.2,146.0 811.3,145.8 814.3,145.3 817.3,144.4 820.4,142.0 823.4,138.1 826.4,134.0 829.5,129.9 832.5,126.6 835.6,122.6 838.6,118.5 841.6,114.2 844.7,110.3 847.7,107.4 850.7,105.2 853.8,102.6 856.8,100.1 859.9,98.4 862.9,96.4 865.9,94.9 869.0,92.8 872.0,90.0" fill="none" stroke="#38bdf8" stroke-width="2.5" stroke-linejoin="round" stroke-linecap="round"/>
<circle cx="872.0" cy="90.0" r="4" fill="#0ea5e9"/>
<text x="866.0" y="80.0" text-anchor="end" font-family="Inter, system-ui, sans-serif" font-size="13" font-weight="700" fill="#334155">2181</text>
<text x="52.0" y="294" text-anchor="middle" font-family="Inter, system-ui, sans-serif" font-size="11" fill="#94a3b8">Jun 10 05:00</text>
<text x="534.9" y="294" text-anchor="middle" font-family="Inter, system-ui, sans-serif" font-size="11" fill="#94a3b8">Jun 16 20:00</text>
<text x="872.0" y="294" text-anchor="middle" font-family="Inter, system-ui, sans-serif" font-size="11" fill="#94a3b8">Jun 21 11:00</text>
</svg>
