<svg xmlns="http://www.w3.org/2000/svg" width="900" height="320" viewBox="0 0 900 320" role="img" aria-labelledby="title desc">
<title id="title">unsorry proofs over time</title>
<desc id="desc">Cumulative kernel-verified proofs over time, by the hour each proof was merged.</desc>
<rect width="900" height="100%" rx="18" fill="#ffffff"/>
<rect x="0.5" y="0.5" width="899" height="319" rx="18" fill="none" stroke="#e2e8f0"/>
<text x="32" y="44" font-family="Inter, system-ui, sans-serif" font-size="28" font-weight="700" fill="#334155">unsorry — Proofs Over Time</text>
<text x="32" y="72" font-family="Inter, system-ui, sans-serif" font-size="13" fill="#64748b">4383 cumulative kernel-verified proofs · merged, hourly</text>
<line x1="52" y1="272.0" x2="872" y2="272.0" stroke="#f1f5f9"/>
<text x="44" y="276.0" text-anchor="end" font-family="Inter, system-ui, sans-serif" font-size="11" fill="#94a3b8">0</text>
<line x1="52" y1="226.5" x2="872" y2="226.5" stroke="#f1f5f9"/>
<text x="44" y="230.5" text-anchor="end" font-family="Inter, system-ui, sans-serif" font-size="11" fill="#94a3b8">1096</text>
<line x1="52" y1="181.0" x2="872" y2="181.0" stroke="#f1f5f9"/>
<text x="44" y="185.0" text-anchor="end" font-family="Inter, system-ui, sans-serif" font-size="11" fill="#94a3b8">2192</text>
<line x1="52" y1="135.5" x2="872" y2="135.5" stroke="#f1f5f9"/>
<text x="44" y="139.5" text-anchor="end" font-family="Inter, system-ui, sans-serif" font-size="11" fill="#94a3b8">3287</text>
<line x1="52" y1="90.0" x2="872" y2="90.0" stroke="#f1f5f9"/>
<text x="44" y="94.0" text-anchor="end" font-family="Inter, system-ui, sans-serif" font-size="11" fill="#94a3b8">4383</text>
<polygon points="52.0,272.0 52.0,272.0 54.2,271.9 80.1,271.5 82.3,271.3 84.5,271.3 90.9,271.3 103.9,271.2 132.1,271.2 134.2,270.8 136.4,270.8 142.9,270.7 145.0,270.6 147.2,270.6 149.4,270.5 153.7,270.4 155.9,270.2 162.3,270.0 171.0,270.0 173.2,269.8 175.3,269.8 192.6,269.7 197.0,269.7 207.8,269.6 209.9,269.6 212.1,269.5 220.8,269.5 222.9,269.2 225.1,269.0 227.3,268.5 229.4,268.4 244.6,268.3 251.1,268.3 255.4,268.3 257.5,268.2 259.7,268.0 261.9,268.0 264.0,267.9 266.2,267.8 268.4,267.7 277.0,267.5 281.3,267.4 290.0,267.4 292.2,267.2 294.3,267.1 296.5,267.1 300.8,267.0 303.0,266.2 305.1,265.4 307.3,265.1 309.5,264.9 311.6,264.8 313.8,264.6 316.0,264.3 318.1,264.1 320.3,263.9 322.4,263.9 326.8,263.7 328.9,263.4 331.1,263.1 333.3,262.7 335.4,262.5 339.8,262.4 344.1,262.4 346.2,262.1 348.4,261.9 350.6,261.3 352.7,261.0 354.9,260.7 357.1,260.3 359.2,260.0 361.4,259.6 363.6,259.2 365.7,258.7 367.9,258.3 370.0,257.9 372.2,257.7 374.4,257.4 376.5,257.1 378.7,256.9 380.9,256.7 383.0,256.5 385.2,256.4 387.4,256.3 391.7,256.3 393.8,255.4 396.0,254.9 398.2,254.7 400.3,254.7 404.7,254.6 406.8,254.5 415.5,254.4 419.8,254.4 426.3,254.3 428.5,253.4 430.6,252.4 432.8,252.2 435.0,251.4 437.1,250.9 439.3,250.5 441.4,250.3 443.6,249.9 445.8,249.7 447.9,249.7 450.1,249.5 452.3,249.4 465.2,248.7 467.4,247.9 469.6,247.8 471.7,247.7 473.9,247.6 489.0,247.6 508.5,246.7 510.7,246.0 512.8,245.3 515.0,244.1 517.2,243.9 519.3,243.5 521.5,242.9 523.7,242.4 525.8,241.2 528.0,239.6 530.2,238.0 532.3,236.0 534.5,234.0 536.6,232.3 538.8,231.2 541.0,229.9 543.1,228.0 545.3,226.4 547.5,225.3 549.6,224.2 551.8,222.6 554.0,221.6 556.1,220.6 558.3,219.8 560.4,219.1 562.6,218.2 564.8,217.7 566.9,217.1 569.1,216.6 571.3,215.1 573.4,213.9 575.6,213.2 577.8,213.0 579.9,212.7 582.1,212.0 584.2,211.5 586.4,210.5 588.6,209.9 590.7,209.3 592.9,209.2 595.1,209.0 597.2,208.5 599.4,207.3 601.6,205.4 603.7,203.3 605.9,201.3 608.0,199.6 610.2,197.7 612.4,195.6 614.5,193.5 616.7,191.5 618.9,190.1 621.0,189.0 623.2,187.7 625.4,186.5 627.5,185.6 629.7,184.6 631.8,183.9 634.0,182.8 636.2,181.4 638.3,179.6 640.5,178.2 642.7,176.9 644.8,176.0 647.0,175.3 649.2,174.5 651.3,173.7 653.5,172.3 655.6,171.1 657.8,169.6 660.0,168.1 662.1,166.9 664.3,165.9 666.5,165.5 668.6,164.9 670.8,164.3 672.9,164.2 675.1,164.2 677.3,163.9 679.4,163.7 681.6,163.7 683.8,163.5 685.9,163.4 692.4,163.4 694.6,163.3 696.7,163.1 698.9,161.4 701.1,159.9 703.2,158.6 705.4,157.2 707.6,155.9 709.7,154.6 711.9,153.2 714.1,152.0 716.2,150.6 718.4,149.4 720.5,148.1 722.7,146.8 724.9,145.6 727.0,144.4 729.2,143.2 731.4,142.2 733.5,141.0 735.7,139.8 737.9,138.7 740.0,137.6 742.2,136.5 744.3,135.7 746.5,135.0 748.7,134.2 750.8,133.1 753.0,132.2 755.2,131.3 757.3,130.2 759.5,129.2 761.7,128.3 763.8,127.3 766.0,126.3 768.1,125.4 770.3,124.5 772.5,123.4 774.6,122.6 776.8,121.6 779.0,120.8 781.1,120.0 783.3,119.0 785.5,118.2 787.6,117.4 789.8,116.7 791.9,116.1 794.1,115.7 796.3,115.6 798.4,114.7 800.6,113.9 802.8,113.1 804.9,112.2 807.1,111.5 809.3,110.7 811.4,109.9 813.6,109.1 815.7,108.4 817.9,107.6 820.1,106.9 822.2,106.2 824.4,105.4 826.6,104.7 828.7,104.0 830.9,103.2 833.1,102.5 835.2,101.9 837.4,101.1 839.5,100.5 841.7,99.9 843.9,99.1 846.0,98.2 848.2,97.6 850.4,96.8 852.5,96.0 854.7,95.4 856.9,94.8 859.0,93.9 861.2,93.4 863.3,92.9 865.5,92.3 867.7,91.6 869.8,90.8 872.0,90.0 872.0,272.0" fill="#e0f2fe" opacity="0.55"/>
<polyline points="52.0,272.0 54.2,271.9 80.1,271.5 82.3,271.3 84.5,271.3 90.9,271.3 103.9,271.2 132.1,271.2 134.2,270.8 136.4,270.8 142.9,270.7 145.0,270.6 147.2,270.6 149.4,270.5 153.7,270.4 155.9,270.2 162.3,270.0 171.0,270.0 173.2,269.8 175.3,269.8 192.6,269.7 197.0,269.7 207.8,269.6 209.9,269.6 212.1,269.5 220.8,269.5 222.9,269.2 225.1,269.0 227.3,268.5 229.4,268.4 244.6,268.3 251.1,268.3 255.4,268.3 257.5,268.2 259.7,268.0 261.9,268.0 264.0,267.9 266.2,267.8 268.4,267.7 277.0,267.5 281.3,267.4 290.0,267.4 292.2,267.2 294.3,267.1 296.5,267.1 300.8,267.0 303.0,266.2 305.1,265.4 307.3,265.1 309.5,264.9 311.6,264.8 313.8,264.6 316.0,264.3 318.1,264.1 320.3,263.9 322.4,263.9 326.8,263.7 328.9,263.4 331.1,263.1 333.3,262.7 335.4,262.5 339.8,262.4 344.1,262.4 346.2,262.1 348.4,261.9 350.6,261.3 352.7,261.0 354.9,260.7 357.1,260.3 359.2,260.0 361.4,259.6 363.6,259.2 365.7,258.7 367.9,258.3 370.0,257.9 372.2,257.7 374.4,257.4 376.5,257.1 378.7,256.9 380.9,256.7 383.0,256.5 385.2,256.4 387.4,256.3 391.7,256.3 393.8,255.4 396.0,254.9 398.2,254.7 400.3,254.7 404.7,254.6 406.8,254.5 415.5,254.4 419.8,254.4 426.3,254.3 428.5,253.4 430.6,252.4 432.8,252.2 435.0,251.4 437.1,250.9 439.3,250.5 441.4,250.3 443.6,249.9 445.8,249.7 447.9,249.7 450.1,249.5 452.3,249.4 465.2,248.7 467.4,247.9 469.6,247.8 471.7,247.7 473.9,247.6 489.0,247.6 508.5,246.7 510.7,246.0 512.8,245.3 515.0,244.1 517.2,243.9 519.3,243.5 521.5,242.9 523.7,242.4 525.8,241.2 528.0,239.6 530.2,238.0 532.3,236.0 534.5,234.0 536.6,232.3 538.8,231.2 541.0,229.9 543.1,228.0 545.3,226.4 547.5,225.3 549.6,224.2 551.8,222.6 554.0,221.6 556.1,220.6 558.3,219.8 560.4,219.1 562.6,218.2 564.8,217.7 566.9,217.1 569.1,216.6 571.3,215.1 573.4,213.9 575.6,213.2 577.8,213.0 579.9,212.7 582.1,212.0 584.2,211.5 586.4,210.5 588.6,209.9 590.7,209.3 592.9,209.2 595.1,209.0 597.2,208.5 599.4,207.3 601.6,205.4 603.7,203.3 605.9,201.3 608.0,199.6 610.2,197.7 612.4,195.6 614.5,193.5 616.7,191.5 618.9,190.1 621.0,189.0 623.2,187.7 625.4,186.5 627.5,185.6 629.7,184.6 631.8,183.9 634.0,182.8 636.2,181.4 638.3,179.6 640.5,178.2 642.7,176.9 644.8,176.0 647.0,175.3 649.2,174.5 651.3,173.7 653.5,172.3 655.6,171.1 657.8,169.6 660.0,168.1 662.1,166.9 664.3,165.9 666.5,165.5 668.6,164.9 670.8,164.3 672.9,164.2 675.1,164.2 677.3,163.9 679.4,163.7 681.6,163.7 683.8,163.5 685.9,163.4 692.4,163.4 694.6,163.3 696.7,163.1 698.9,161.4 701.1,159.9 703.2,158.6 705.4,157.2 707.6,155.9 709.7,154.6 711.9,153.2 714.1,152.0 716.2,150.6 718.4,149.4 720.5,148.1 722.7,146.8 724.9,145.6 727.0,144.4 729.2,143.2 731.4,142.2 733.5,141.0 735.7,139.8 737.9,138.7 740.0,137.6 742.2,136.5 744.3,135.7 746.5,135.0 748.7,134.2 750.8,133.1 753.0,132.2 755.2,131.3 757.3,130.2 759.5,129.2 761.7,128.3 763.8,127.3 766.0,126.3 768.1,125.4 770.3,124.5 772.5,123.4 774.6,122.6 776.8,121.6 779.0,120.8 781.1,120.0 783.3,119.0 785.5,118.2 787.6,117.4 789.8,116.7 791.9,116.1 794.1,115.7 796.3,115.6 798.4,114.7 800.6,113.9 802.8,113.1 804.9,112.2 807.1,111.5 809.3,110.7 811.4,109.9 813.6,109.1 815.7,108.4 817.9,107.6 820.1,106.9 822.2,106.2 824.4,105.4 826.6,104.7 828.7,104.0 830.9,103.2 833.1,102.5 835.2,101.9 837.4,101.1 839.5,100.5 841.7,99.9 843.9,99.1 846.0,98.2 848.2,97.6 850.4,96.8 852.5,96.0 854.7,95.4 856.9,94.8 859.0,93.9 861.2,93.4 863.3,92.9 865.5,92.3 867.7,91.6 869.8,90.8 872.0,90.0" fill="none" stroke="#38bdf8" stroke-width="2.5" stroke-linejoin="round" stroke-linecap="round"/>
<circle cx="872.0" cy="90.0" r="4" fill="#0ea5e9"/>
<text x="866.0" y="80.0" text-anchor="end" font-family="Inter, system-ui, sans-serif" font-size="13" font-weight="700" fill="#334155">4383</text>
<text x="52.0" y="294" text-anchor="middle" font-family="Inter, system-ui, sans-serif" font-size="11" fill="#94a3b8">Jun 10 05:00</text>
<text x="569.1" y="294" text-anchor="middle" font-family="Inter, system-ui, sans-serif" font-size="11" fill="#94a3b8">Jun 20 04:00</text>
<text x="872.0" y="294" text-anchor="middle" font-family="Inter, system-ui, sans-serif" font-size="11" fill="#94a3b8">Jun 26 00:00</text>
</svg>
