<svg xmlns="http://www.w3.org/2000/svg" width="900" height="320" viewBox="0 0 900 320" role="img" aria-labelledby="title desc">
<title id="title">unsorry proofs over time</title>
<desc id="desc">Cumulative kernel-verified proofs over time, by the hour each proof was merged.</desc>
<rect width="900" height="100%" rx="18" fill="#ffffff"/>
<rect x="0.5" y="0.5" width="899" height="319" rx="18" fill="none" stroke="#e2e8f0"/>
<text x="32" y="44" font-family="Inter, system-ui, sans-serif" font-size="28" font-weight="700" fill="#334155">unsorry — Proofs Over Time</text>
<text x="32" y="72" font-family="Inter, system-ui, sans-serif" font-size="13" fill="#64748b">4195 cumulative kernel-verified proofs · merged, hourly</text>
<line x1="52" y1="272.0" x2="872" y2="272.0" stroke="#f1f5f9"/>
<text x="44" y="276.0" text-anchor="end" font-family="Inter, system-ui, sans-serif" font-size="11" fill="#94a3b8">0</text>
<line x1="52" y1="226.5" x2="872" y2="226.5" stroke="#f1f5f9"/>
<text x="44" y="230.5" text-anchor="end" font-family="Inter, system-ui, sans-serif" font-size="11" fill="#94a3b8">1049</text>
<line x1="52" y1="181.0" x2="872" y2="181.0" stroke="#f1f5f9"/>
<text x="44" y="185.0" text-anchor="end" font-family="Inter, system-ui, sans-serif" font-size="11" fill="#94a3b8">2098</text>
<line x1="52" y1="135.5" x2="872" y2="135.5" stroke="#f1f5f9"/>
<text x="44" y="139.5" text-anchor="end" font-family="Inter, system-ui, sans-serif" font-size="11" fill="#94a3b8">3146</text>
<line x1="52" y1="90.0" x2="872" y2="90.0" stroke="#f1f5f9"/>
<text x="44" y="94.0" text-anchor="end" font-family="Inter, system-ui, sans-serif" font-size="11" fill="#94a3b8">4195</text>
<polygon points="52.0,272.0 52.0,272.0 54.2,271.9 81.0,271.4 83.2,271.3 85.4,271.3 92.1,271.2 105.5,271.2 134.4,271.1 136.7,270.7 138.9,270.7 145.6,270.6 147.8,270.6 150.0,270.5 152.3,270.4 156.7,270.4 159.0,270.1 165.6,270.0 174.6,269.9 176.8,269.7 179.0,269.7 196.8,269.6 201.3,269.6 212.4,269.5 214.7,269.5 216.9,269.4 225.8,269.4 228.0,269.1 230.3,268.9 232.5,268.3 234.7,268.2 250.3,268.2 257.0,268.1 261.5,268.1 263.7,268.1 265.9,267.8 268.1,267.8 270.4,267.7 272.6,267.6 274.8,267.5 283.7,267.3 288.2,267.2 297.1,267.2 299.3,267.0 301.6,266.9 303.8,266.8 308.2,266.8 310.5,265.9 312.7,265.1 314.9,264.8 317.2,264.5 319.4,264.5 321.6,264.2 323.8,263.9 326.1,263.7 328.3,263.6 330.5,263.5 335.0,263.4 337.2,263.0 339.4,262.7 341.7,262.3 343.9,262.1 348.4,262.0 352.8,262.0 355.0,261.7 357.3,261.5 359.5,260.9 361.7,260.5 364.0,260.2 366.2,259.8 368.4,259.4 370.6,259.0 372.9,258.6 375.1,258.1 377.3,257.7 379.6,257.3 381.8,257.0 384.0,256.7 386.2,256.4 388.5,256.2 390.7,256.0 392.9,255.8 395.2,255.7 397.4,255.6 401.8,255.6 404.1,254.7 406.3,254.1 408.5,254.0 410.8,253.9 415.2,253.8 417.4,253.7 426.3,253.6 430.8,253.6 437.5,253.5 439.7,252.5 441.9,251.6 444.2,251.3 446.4,250.5 448.6,249.9 450.9,249.5 453.1,249.3 455.3,248.9 457.5,248.7 459.8,248.7 462.0,248.5 464.2,248.4 477.6,247.7 479.8,246.8 482.1,246.7 484.3,246.6 486.5,246.5 502.1,246.5 522.2,245.6 524.4,244.9 526.6,244.1 528.8,242.8 531.1,242.6 533.3,242.2 535.5,241.5 537.8,241.0 540.0,239.9 542.2,238.1 544.4,236.4 546.7,234.4 548.9,232.3 551.1,230.5 553.4,229.4 555.6,228.1 557.8,226.1 560.0,224.4 562.3,223.2 564.5,222.1 566.7,220.4 569.0,219.4 571.2,218.3 573.4,217.4 575.6,216.7 577.9,215.8 580.1,215.3 582.3,214.6 584.6,214.1 586.8,212.6 589.0,211.3 591.2,210.6 593.5,210.4 595.7,210.0 597.9,209.4 600.2,208.8 602.4,207.7 604.6,207.1 606.8,206.5 609.1,206.4 611.3,206.1 613.5,205.7 615.8,204.4 618.0,202.4 620.2,200.2 622.4,198.1 624.7,196.4 626.9,194.3 629.1,192.2 631.3,190.0 633.6,187.9 635.8,186.4 638.0,185.3 640.3,183.9 642.5,182.6 644.7,181.8 646.9,180.7 649.2,179.9 651.4,178.8 653.6,177.3 655.9,175.5 658.1,173.9 660.3,172.6 662.5,171.7 664.8,171.0 667.0,170.2 669.2,169.3 671.5,167.8 673.7,166.6 675.9,165.1 678.1,163.5 680.4,162.2 682.6,161.2 684.8,160.7 687.1,160.1 689.3,159.5 691.5,159.4 693.7,159.3 696.0,159.0 698.2,158.9 700.4,158.9 702.7,158.6 704.9,158.5 711.6,158.5 713.8,158.5 716.0,158.2 718.2,156.4 720.5,154.9 722.7,153.6 724.9,152.0 727.2,150.7 729.4,149.4 731.6,147.9 733.8,146.6 736.1,145.2 738.3,143.9 740.5,142.5 742.8,141.2 745.0,140.0 747.2,138.7 749.4,137.4 751.7,136.3 753.9,135.1 756.1,133.9 758.4,132.7 760.6,131.6 762.8,130.4 765.0,129.6 767.3,128.8 769.5,128.0 771.7,126.9 774.0,125.9 776.2,125.0 778.4,123.8 780.6,122.8 782.9,121.9 785.1,120.8 787.3,119.8 789.6,118.8 791.8,117.9 794.0,116.7 796.2,115.9 798.5,114.8 800.7,114.0 802.9,113.2 805.2,112.2 807.4,111.3 809.6,110.4 811.8,109.7 814.1,109.1 816.3,108.7 818.5,108.6 820.8,107.7 823.0,106.8 825.2,106.0 827.4,105.1 829.7,104.3 831.9,103.4 834.1,102.6 836.3,101.8 838.6,101.0 840.8,100.3 843.0,99.5 845.3,98.8 847.5,97.9 849.7,97.2 851.9,96.5 854.2,95.7 856.4,94.9 858.6,94.3 860.9,93.4 863.1,92.8 865.3,92.2 867.5,91.3 869.8,90.4 872.0,90.0 872.0,272.0" fill="#e0f2fe" opacity="0.55"/>
<polyline points="52.0,272.0 54.2,271.9 81.0,271.4 83.2,271.3 85.4,271.3 92.1,271.2 105.5,271.2 134.4,271.1 136.7,270.7 138.9,270.7 145.6,270.6 147.8,270.6 150.0,270.5 152.3,270.4 156.7,270.4 159.0,270.1 165.6,270.0 174.6,269.9 176.8,269.7 179.0,269.7 196.8,269.6 201.3,269.6 212.4,269.5 214.7,269.5 216.9,269.4 225.8,269.4 228.0,269.1 230.3,268.9 232.5,268.3 234.7,268.2 250.3,268.2 257.0,268.1 261.5,268.1 263.7,268.1 265.9,267.8 268.1,267.8 270.4,267.7 272.6,267.6 274.8,267.5 283.7,267.3 288.2,267.2 297.1,267.2 299.3,267.0 301.6,266.9 303.8,266.8 308.2,266.8 310.5,265.9 312.7,265.1 314.9,264.8 317.2,264.5 319.4,264.5 321.6,264.2 323.8,263.9 326.1,263.7 328.3,263.6 330.5,263.5 335.0,263.4 337.2,263.0 339.4,262.7 341.7,262.3 343.9,262.1 348.4,262.0 352.8,262.0 355.0,261.7 357.3,261.5 359.5,260.9 361.7,260.5 364.0,260.2 366.2,259.8 368.4,259.4 370.6,259.0 372.9,258.6 375.1,258.1 377.3,257.7 379.6,257.3 381.8,257.0 384.0,256.7 386.2,256.4 388.5,256.2 390.7,256.0 392.9,255.8 395.2,255.7 397.4,255.6 401.8,255.6 404.1,254.7 406.3,254.1 408.5,254.0 410.8,253.9 415.2,253.8 417.4,253.7 426.3,253.6 430.8,253.6 437.5,253.5 439.7,252.5 441.9,251.6 444.2,251.3 446.4,250.5 448.6,249.9 450.9,249.5 453.1,249.3 455.3,248.9 457.5,248.7 459.8,248.7 462.0,248.5 464.2,248.4 477.6,247.7 479.8,246.8 482.1,246.7 484.3,246.6 486.5,246.5 502.1,246.5 522.2,245.6 524.4,244.9 526.6,244.1 528.8,242.8 531.1,242.6 533.3,242.2 535.5,241.5 537.8,241.0 540.0,239.9 542.2,238.1 544.4,236.4 546.7,234.4 548.9,232.3 551.1,230.5 553.4,229.4 555.6,228.1 557.8,226.1 560.0,224.4 562.3,223.2 564.5,222.1 566.7,220.4 569.0,219.4 571.2,218.3 573.4,217.4 575.6,216.7 577.9,215.8 580.1,215.3 582.3,214.6 584.6,214.1 586.8,212.6 589.0,211.3 591.2,210.6 593.5,210.4 595.7,210.0 597.9,209.4 600.2,208.8 602.4,207.7 604.6,207.1 606.8,206.5 609.1,206.4 611.3,206.1 613.5,205.7 615.8,204.4 618.0,202.4 620.2,200.2 622.4,198.1 624.7,196.4 626.9,194.3 629.1,192.2 631.3,190.0 633.6,187.9 635.8,186.4 638.0,185.3 640.3,183.9 642.5,182.6 644.7,181.8 646.9,180.7 649.2,179.9 651.4,178.8 653.6,177.3 655.9,175.5 658.1,173.9 660.3,172.6 662.5,171.7 664.8,171.0 667.0,170.2 669.2,169.3 671.5,167.8 673.7,166.6 675.9,165.1 678.1,163.5 680.4,162.2 682.6,161.2 684.8,160.7 687.1,160.1 689.3,159.5 691.5,159.4 693.7,159.3 696.0,159.0 698.2,158.9 700.4,158.9 702.7,158.6 704.9,158.5 711.6,158.5 713.8,158.5 716.0,158.2 718.2,156.4 720.5,154.9 722.7,153.6 724.9,152.0 727.2,150.7 729.4,149.4 731.6,147.9 733.8,146.6 736.1,145.2 738.3,143.9 740.5,142.5 742.8,141.2 745.0,140.0 747.2,138.7 749.4,137.4 751.7,136.3 753.9,135.1 756.1,133.9 758.4,132.7 760.6,131.6 762.8,130.4 765.0,129.6 767.3,128.8 769.5,128.0 771.7,126.9 774.0,125.9 776.2,125.0 778.4,123.8 780.6,122.8 782.9,121.9 785.1,120.8 787.3,119.8 789.6,118.8 791.8,117.9 794.0,116.7 796.2,115.9 798.5,114.8 800.7,114.0 802.9,113.2 805.2,112.2 807.4,111.3 809.6,110.4 811.8,109.7 814.1,109.1 816.3,108.7 818.5,108.6 820.8,107.7 823.0,106.8 825.2,106.0 827.4,105.1 829.7,104.3 831.9,103.4 834.1,102.6 836.3,101.8 838.6,101.0 840.8,100.3 843.0,99.5 845.3,98.8 847.5,97.9 849.7,97.2 851.9,96.5 854.2,95.7 856.4,94.9 858.6,94.3 860.9,93.4 863.1,92.8 865.3,92.2 867.5,91.3 869.8,90.4 872.0,90.0" fill="none" stroke="#38bdf8" stroke-width="2.5" stroke-linejoin="round" stroke-linecap="round"/>
<circle cx="872.0" cy="90.0" r="4" fill="#0ea5e9"/>
<text x="866.0" y="80.0" text-anchor="end" font-family="Inter, system-ui, sans-serif" font-size="13" font-weight="700" fill="#334155">4195</text>
<text x="52.0" y="294" text-anchor="middle" font-family="Inter, system-ui, sans-serif" font-size="11" fill="#94a3b8">Jun 10 05:00</text>
<text x="571.2" y="294" text-anchor="middle" font-family="Inter, system-ui, sans-serif" font-size="11" fill="#94a3b8">Jun 19 22:00</text>
<text x="872.0" y="294" text-anchor="middle" font-family="Inter, system-ui, sans-serif" font-size="11" fill="#94a3b8">Jun 25 13:00</text>
</svg>
