<svg xmlns="http://www.w3.org/2000/svg" width="900" height="320" viewBox="0 0 900 320" role="img" aria-labelledby="title desc">
<title id="title">unsorry proofs over time</title>
<desc id="desc">Cumulative kernel-verified proofs over time, by the hour each proof was merged.</desc>
<rect width="900" height="100%" rx="18" fill="#ffffff"/>
<rect x="0.5" y="0.5" width="899" height="319" rx="18" fill="none" stroke="#e2e8f0"/>
<text x="32" y="44" font-family="Inter, system-ui, sans-serif" font-size="28" font-weight="700" fill="#334155">unsorry — Proofs Over Time</text>
<text x="32" y="72" font-family="Inter, system-ui, sans-serif" font-size="13" fill="#64748b">4577 cumulative kernel-verified proofs · merged, hourly</text>
<line x1="52" y1="272.0" x2="872" y2="272.0" stroke="#f1f5f9"/>
<text x="44" y="276.0" text-anchor="end" font-family="Inter, system-ui, sans-serif" font-size="11" fill="#94a3b8">0</text>
<line x1="52" y1="226.5" x2="872" y2="226.5" stroke="#f1f5f9"/>
<text x="44" y="230.5" text-anchor="end" font-family="Inter, system-ui, sans-serif" font-size="11" fill="#94a3b8">1144</text>
<line x1="52" y1="181.0" x2="872" y2="181.0" stroke="#f1f5f9"/>
<text x="44" y="185.0" text-anchor="end" font-family="Inter, system-ui, sans-serif" font-size="11" fill="#94a3b8">2288</text>
<line x1="52" y1="135.5" x2="872" y2="135.5" stroke="#f1f5f9"/>
<text x="44" y="139.5" text-anchor="end" font-family="Inter, system-ui, sans-serif" font-size="11" fill="#94a3b8">3433</text>
<line x1="52" y1="90.0" x2="872" y2="90.0" stroke="#f1f5f9"/>
<text x="44" y="94.0" text-anchor="end" font-family="Inter, system-ui, sans-serif" font-size="11" fill="#94a3b8">4577</text>
<polygon points="52.0,272.0 52.0,272.0 54.1,271.9 79.3,271.5 81.4,271.4 83.5,271.3 89.7,271.3 102.3,271.2 129.6,271.2 131.7,270.8 133.8,270.8 140.1,270.7 142.2,270.7 144.3,270.6 146.4,270.5 150.6,270.5 152.7,270.3 159.0,270.1 167.3,270.1 169.4,269.9 171.5,269.9 188.3,269.8 192.5,269.8 203.0,269.7 205.1,269.7 207.2,269.6 215.6,269.6 217.7,269.3 219.8,269.1 221.9,268.6 224.0,268.5 238.6,268.5 244.9,268.5 249.1,268.4 251.2,268.4 253.3,268.2 255.4,268.1 257.5,268.1 259.6,268.0 261.7,267.9 270.1,267.7 274.3,267.6 282.7,267.6 284.8,267.4 286.9,267.3 289.0,267.3 293.2,267.2 295.3,266.4 297.4,265.6 299.5,265.4 301.6,265.2 303.7,265.1 305.8,264.9 307.9,264.6 310.0,264.4 312.1,264.3 314.1,264.2 318.3,264.1 320.4,263.8 322.5,263.5 324.6,263.1 326.7,262.9 330.9,262.9 335.1,262.8 337.2,262.5 339.3,262.3 341.4,261.8 343.5,261.5 345.6,261.1 347.7,260.8 349.8,260.5 351.9,260.1 354.0,259.7 356.1,259.3 358.2,258.9 360.3,258.5 362.4,258.3 364.5,258.0 366.6,257.7 368.7,257.5 370.8,257.3 372.9,257.1 375.0,257.0 377.1,257.0 381.3,256.9 383.4,256.1 385.5,255.6 387.5,255.5 389.6,255.4 393.8,255.3 395.9,255.2 404.3,255.2 408.5,255.1 414.8,255.1 416.9,254.1 419.0,253.3 421.1,253.0 423.2,252.3 425.3,251.8 427.4,251.4 429.5,251.2 431.6,250.8 433.7,250.7 435.8,250.6 437.9,250.4 440.0,250.4 452.6,249.7 454.7,248.9 456.8,248.8 458.9,248.7 461.0,248.7 475.6,248.6 494.5,247.8 496.6,247.1 498.7,246.4 500.8,245.3 502.9,245.1 505.0,244.7 507.1,244.1 509.2,243.6 511.3,242.5 513.4,240.9 515.5,239.4 517.6,237.6 519.7,235.7 521.8,234.0 523.9,233.0 526.0,231.7 528.1,229.9 530.2,228.3 532.3,227.3 534.4,226.2 536.5,224.7 538.5,223.8 540.6,222.8 542.7,222.0 544.8,221.3 546.9,220.5 549.0,220.0 551.1,219.4 553.2,219.0 555.3,217.5 557.4,216.4 559.5,215.7 561.6,215.5 563.7,215.2 565.8,214.6 567.9,214.1 570.0,213.1 572.1,212.5 574.2,212.0 576.3,211.9 578.4,211.6 580.5,211.2 582.6,210.0 584.7,208.2 586.8,206.2 588.9,204.3 591.0,202.7 593.1,200.8 595.2,198.8 597.3,196.8 599.4,194.9 601.5,193.6 603.6,192.5 605.7,191.3 607.8,190.1 609.9,189.3 611.9,188.3 614.0,187.6 616.1,186.6 618.2,185.2 620.3,183.5 622.4,182.1 624.5,180.9 626.6,180.1 628.7,179.4 630.8,178.7 632.9,177.9 635.0,176.5 637.1,175.4 639.2,174.0 641.3,172.6 643.4,171.4 645.5,170.4 647.6,170.0 649.7,169.4 651.8,168.9 653.9,168.8 656.0,168.7 658.1,168.5 660.2,168.3 662.3,168.3 664.4,168.1 666.5,168.0 672.8,168.0 674.9,167.9 677.0,167.7 679.1,166.1 681.2,164.7 683.3,163.4 685.4,162.1 687.4,160.8 689.5,159.6 691.6,158.3 693.7,157.1 695.8,155.8 697.9,154.6 700.0,153.3 702.1,152.2 704.2,151.0 706.3,149.8 708.4,148.7 710.5,147.7 712.6,146.5 714.7,145.4 716.8,144.3 718.9,143.3 721.0,142.2 723.1,141.5 725.2,140.8 727.3,140.1 729.4,139.0 731.5,138.1 733.6,137.2 735.7,136.2 737.8,135.3 739.9,134.4 742.0,133.5 744.1,132.5 746.2,131.6 748.3,130.7 750.4,129.7 752.5,128.9 754.6,127.9 756.7,127.2 758.8,126.4 760.8,125.5 762.9,124.7 765.0,123.9 767.1,123.3 769.2,122.7 771.3,122.3 773.4,122.2 775.5,121.4 777.6,120.6 779.7,119.8 781.8,119.0 783.9,118.3 786.0,117.5 788.1,116.8 790.2,116.0 792.3,115.3 794.4,114.6 796.5,113.9 798.6,113.3 800.7,112.5 802.8,111.8 804.9,111.1 807.0,110.4 809.1,109.7 811.2,109.1 813.3,108.3 815.4,107.8 817.5,107.2 819.6,106.4 821.7,105.6 823.8,105.0 825.9,104.2 828.0,103.5 830.1,102.9 832.2,102.3 834.3,101.5 836.3,100.9 838.4,100.5 840.5,99.9 842.6,99.2 844.7,98.5 846.8,97.7 848.9,97.0 851.0,96.3 853.1,95.7 855.2,95.1 857.3,94.4 859.4,93.8 861.5,93.1 863.6,92.5 865.7,91.7 867.8,91.4 869.9,90.6 872.0,90.0 872.0,272.0" fill="#e0f2fe" opacity="0.55"/>
<polyline points="52.0,272.0 54.1,271.9 79.3,271.5 81.4,271.4 83.5,271.3 89.7,271.3 102.3,271.2 129.6,271.2 131.7,270.8 133.8,270.8 140.1,270.7 142.2,270.7 144.3,270.6 146.4,270.5 150.6,270.5 152.7,270.3 159.0,270.1 167.3,270.1 169.4,269.9 171.5,269.9 188.3,269.8 192.5,269.8 203.0,269.7 205.1,269.7 207.2,269.6 215.6,269.6 217.7,269.3 219.8,269.1 221.9,268.6 224.0,268.5 238.6,268.5 244.9,268.5 249.1,268.4 251.2,268.4 253.3,268.2 255.4,268.1 257.5,268.1 259.6,268.0 261.7,267.9 270.1,267.7 274.3,267.6 282.7,267.6 284.8,267.4 286.9,267.3 289.0,267.3 293.2,267.2 295.3,266.4 297.4,265.6 299.5,265.4 301.6,265.2 303.7,265.1 305.8,264.9 307.9,264.6 310.0,264.4 312.1,264.3 314.1,264.2 318.3,264.1 320.4,263.8 322.5,263.5 324.6,263.1 326.7,262.9 330.9,262.9 335.1,262.8 337.2,262.5 339.3,262.3 341.4,261.8 343.5,261.5 345.6,261.1 347.7,260.8 349.8,260.5 351.9,260.1 354.0,259.7 356.1,259.3 358.2,258.9 360.3,258.5 362.4,258.3 364.5,258.0 366.6,257.7 368.7,257.5 370.8,257.3 372.9,257.1 375.0,257.0 377.1,257.0 381.3,256.9 383.4,256.1 385.5,255.6 387.5,255.5 389.6,255.4 393.8,255.3 395.9,255.2 404.3,255.2 408.5,255.1 414.8,255.1 416.9,254.1 419.0,253.3 421.1,253.0 423.2,252.3 425.3,251.8 427.4,251.4 429.5,251.2 431.6,250.8 433.7,250.7 435.8,250.6 437.9,250.4 440.0,250.4 452.6,249.7 454.7,248.9 456.8,248.8 458.9,248.7 461.0,248.7 475.6,248.6 494.5,247.8 496.6,247.1 498.7,246.4 500.8,245.3 502.9,245.1 505.0,244.7 507.1,244.1 509.2,243.6 511.3,242.5 513.4,240.9 515.5,239.4 517.6,237.6 519.7,235.7 521.8,234.0 523.9,233.0 526.0,231.7 528.1,229.9 530.2,228.3 532.3,227.3 534.4,226.2 536.5,224.7 538.5,223.8 540.6,222.8 542.7,222.0 544.8,221.3 546.9,220.5 549.0,220.0 551.1,219.4 553.2,219.0 555.3,217.5 557.4,216.4 559.5,215.7 561.6,215.5 563.7,215.2 565.8,214.6 567.9,214.1 570.0,213.1 572.1,212.5 574.2,212.0 576.3,211.9 578.4,211.6 580.5,211.2 582.6,210.0 584.7,208.2 586.8,206.2 588.9,204.3 591.0,202.7 593.1,200.8 595.2,198.8 597.3,196.8 599.4,194.9 601.5,193.6 603.6,192.5 605.7,191.3 607.8,190.1 609.9,189.3 611.9,188.3 614.0,187.6 616.1,186.6 618.2,185.2 620.3,183.5 622.4,182.1 624.5,180.9 626.6,180.1 628.7,179.4 630.8,178.7 632.9,177.9 635.0,176.5 637.1,175.4 639.2,174.0 641.3,172.6 643.4,171.4 645.5,170.4 647.6,170.0 649.7,169.4 651.8,168.9 653.9,168.8 656.0,168.7 658.1,168.5 660.2,168.3 662.3,168.3 664.4,168.1 666.5,168.0 672.8,168.0 674.9,167.9 677.0,167.7 679.1,166.1 681.2,164.7 683.3,163.4 685.4,162.1 687.4,160.8 689.5,159.6 691.6,158.3 693.7,157.1 695.8,155.8 697.9,154.6 700.0,153.3 702.1,152.2 704.2,151.0 706.3,149.8 708.4,148.7 710.5,147.7 712.6,146.5 714.7,145.4 716.8,144.3 718.9,143.3 721.0,142.2 723.1,141.5 725.2,140.8 727.3,140.1 729.4,139.0 731.5,138.1 733.6,137.2 735.7,136.2 737.8,135.3 739.9,134.4 742.0,133.5 744.1,132.5 746.2,131.6 748.3,130.7 750.4,129.7 752.5,128.9 754.6,127.9 756.7,127.2 758.8,126.4 760.8,125.5 762.9,124.7 765.0,123.9 767.1,123.3 769.2,122.7 771.3,122.3 773.4,122.2 775.5,121.4 777.6,120.6 779.7,119.8 781.8,119.0 783.9,118.3 786.0,117.5 788.1,116.8 790.2,116.0 792.3,115.3 794.4,114.6 796.5,113.9 798.6,113.3 800.7,112.5 802.8,111.8 804.9,111.1 807.0,110.4 809.1,109.7 811.2,109.1 813.3,108.3 815.4,107.8 817.5,107.2 819.6,106.4 821.7,105.6 823.8,105.0 825.9,104.2 828.0,103.5 830.1,102.9 832.2,102.3 834.3,101.5 836.3,100.9 838.4,100.5 840.5,99.9 842.6,99.2 844.7,98.5 846.8,97.7 848.9,97.0 851.0,96.3 853.1,95.7 855.2,95.1 857.3,94.4 859.4,93.8 861.5,93.1 863.6,92.5 865.7,91.7 867.8,91.4 869.9,90.6 872.0,90.0" fill="none" stroke="#38bdf8" stroke-width="2.5" stroke-linejoin="round" stroke-linecap="round"/>
<circle cx="872.0" cy="90.0" r="4" fill="#0ea5e9"/>
<text x="866.0" y="80.0" text-anchor="end" font-family="Inter, system-ui, sans-serif" font-size="13" font-weight="700" fill="#334155">4577</text>
<text x="52.0" y="294" text-anchor="middle" font-family="Inter, system-ui, sans-serif" font-size="11" fill="#94a3b8">Jun 10 05:00</text>
<text x="565.8" y="294" text-anchor="middle" font-family="Inter, system-ui, sans-serif" font-size="11" fill="#94a3b8">Jun 20 10:00</text>
<text x="872.0" y="294" text-anchor="middle" font-family="Inter, system-ui, sans-serif" font-size="11" fill="#94a3b8">Jun 26 12:00</text>
</svg>
