<svg xmlns="http://www.w3.org/2000/svg" width="900" height="320" viewBox="0 0 900 320" role="img" aria-labelledby="title desc">
<title id="title">unsorry proofs over time</title>
<desc id="desc">Cumulative kernel-verified proofs over time, by the hour each proof was merged.</desc>
<rect width="900" height="100%" rx="18" fill="#ffffff"/>
<rect x="0.5" y="0.5" width="899" height="319" rx="18" fill="none" stroke="#e2e8f0"/>
<text x="32" y="44" font-family="Inter, system-ui, sans-serif" font-size="28" font-weight="700" fill="#334155">unsorry — Proofs Over Time</text>
<text x="32" y="72" font-family="Inter, system-ui, sans-serif" font-size="13" fill="#64748b">4571 cumulative kernel-verified proofs · merged, hourly</text>
<line x1="52" y1="272.0" x2="872" y2="272.0" stroke="#f1f5f9"/>
<text x="44" y="276.0" text-anchor="end" font-family="Inter, system-ui, sans-serif" font-size="11" fill="#94a3b8">0</text>
<line x1="52" y1="226.5" x2="872" y2="226.5" stroke="#f1f5f9"/>
<text x="44" y="230.5" text-anchor="end" font-family="Inter, system-ui, sans-serif" font-size="11" fill="#94a3b8">1143</text>
<line x1="52" y1="181.0" x2="872" y2="181.0" stroke="#f1f5f9"/>
<text x="44" y="185.0" text-anchor="end" font-family="Inter, system-ui, sans-serif" font-size="11" fill="#94a3b8">2286</text>
<line x1="52" y1="135.5" x2="872" y2="135.5" stroke="#f1f5f9"/>
<text x="44" y="139.5" text-anchor="end" font-family="Inter, system-ui, sans-serif" font-size="11" fill="#94a3b8">3428</text>
<line x1="52" y1="90.0" x2="872" y2="90.0" stroke="#f1f5f9"/>
<text x="44" y="94.0" text-anchor="end" font-family="Inter, system-ui, sans-serif" font-size="11" fill="#94a3b8">4571</text>
<polygon points="52.0,272.0 52.0,272.0 54.1,271.9 79.3,271.5 81.4,271.4 83.5,271.3 89.7,271.3 102.3,271.2 129.6,271.2 131.7,270.8 133.8,270.8 140.1,270.7 142.2,270.7 144.3,270.6 146.4,270.5 150.6,270.5 152.7,270.3 159.0,270.1 167.3,270.0 169.4,269.9 171.5,269.8 188.3,269.8 192.5,269.8 203.0,269.7 205.1,269.7 207.2,269.6 215.6,269.6 217.7,269.3 219.8,269.1 221.9,268.6 224.0,268.5 238.6,268.5 244.9,268.5 249.1,268.4 251.2,268.4 253.3,268.2 255.4,268.1 257.5,268.1 259.6,268.0 261.7,267.9 270.1,267.7 274.3,267.6 282.7,267.6 284.8,267.4 286.9,267.3 289.0,267.3 293.2,267.2 295.3,266.4 297.4,265.6 299.5,265.4 301.6,265.2 303.7,265.1 305.8,264.9 307.9,264.6 310.0,264.4 312.1,264.3 314.1,264.2 318.3,264.1 320.4,263.8 322.5,263.4 324.6,263.1 326.7,262.9 330.9,262.8 335.1,262.8 337.2,262.5 339.3,262.3 341.4,261.8 343.5,261.4 345.6,261.1 347.7,260.8 349.8,260.5 351.9,260.1 354.0,259.7 356.1,259.3 358.2,258.9 360.3,258.5 362.4,258.3 364.5,258.0 366.6,257.7 368.7,257.5 370.8,257.3 372.9,257.1 375.0,257.0 377.1,256.9 381.3,256.9 383.4,256.1 385.5,255.6 387.5,255.4 389.6,255.4 393.8,255.3 395.9,255.2 404.3,255.2 408.5,255.1 414.8,255.0 416.9,254.1 419.0,253.2 421.1,253.0 423.2,252.3 425.3,251.7 427.4,251.4 429.5,251.2 431.6,250.8 433.7,250.7 435.8,250.6 437.9,250.4 440.0,250.3 452.6,249.7 454.7,248.9 456.8,248.8 458.9,248.7 461.0,248.6 475.6,248.6 494.5,247.8 496.6,247.1 498.7,246.4 500.8,245.2 502.9,245.0 505.0,244.7 507.1,244.0 509.2,243.6 511.3,242.5 513.4,240.9 515.5,239.4 517.6,237.5 519.7,235.6 521.8,233.9 523.9,232.9 526.0,231.7 528.1,229.8 530.2,228.3 532.3,227.2 534.4,226.2 536.5,224.7 538.5,223.7 540.6,222.7 542.7,221.9 544.8,221.3 546.9,220.4 549.0,219.9 551.1,219.4 553.2,218.9 555.3,217.5 557.4,216.3 559.5,215.7 561.6,215.5 563.7,215.1 565.8,214.5 567.9,214.0 570.0,213.0 572.1,212.4 574.2,211.9 576.3,211.8 578.4,211.6 580.5,211.1 582.6,210.0 584.7,208.1 586.8,206.1 588.9,204.2 591.0,202.6 593.1,200.7 595.2,198.7 597.3,196.7 599.4,194.8 601.5,193.5 603.6,192.4 605.7,191.2 607.8,190.0 609.9,189.2 611.9,188.2 614.0,187.5 616.1,186.5 618.2,185.1 620.3,183.4 622.4,182.0 624.5,180.8 626.6,180.0 628.7,179.3 630.8,178.6 632.9,177.8 635.0,176.4 637.1,175.2 639.2,173.9 641.3,172.4 643.4,171.2 645.5,170.3 647.6,169.9 649.7,169.3 651.8,168.8 653.9,168.7 656.0,168.6 658.1,168.3 660.2,168.2 662.3,168.2 664.4,168.0 666.5,167.9 672.8,167.8 674.9,167.8 677.0,167.6 679.1,165.9 681.2,164.5 683.3,163.3 685.4,161.9 687.4,160.7 689.5,159.4 691.6,158.1 693.7,156.9 695.8,155.6 697.9,154.4 700.0,153.2 702.1,152.0 704.2,150.8 706.3,149.6 708.4,148.5 710.5,147.5 712.6,146.4 714.7,145.3 716.8,144.2 718.9,143.1 721.0,142.0 723.1,141.3 725.2,140.6 727.3,139.9 729.4,138.9 731.5,137.9 733.6,137.1 735.7,136.0 737.8,135.1 739.9,134.2 742.0,133.3 744.1,132.3 746.2,131.4 748.3,130.5 750.4,129.5 752.5,128.7 754.6,127.7 756.7,127.0 758.8,126.2 760.8,125.3 762.9,124.5 765.0,123.7 767.1,123.1 769.2,122.5 771.3,122.1 773.4,122.0 775.5,121.2 777.6,120.4 779.7,119.6 781.8,118.8 783.9,118.1 786.0,117.3 788.1,116.6 790.2,115.8 792.3,115.1 794.4,114.4 796.5,113.7 798.6,113.1 800.7,112.3 802.8,111.6 804.9,110.9 807.0,110.2 809.1,109.5 811.2,108.9 813.3,108.1 815.4,107.6 817.5,107.0 819.6,106.2 821.7,105.4 823.8,104.7 825.9,104.0 828.0,103.3 830.1,102.7 832.2,102.1 834.3,101.3 836.3,100.7 838.4,100.3 840.5,99.7 842.6,99.0 844.7,98.3 846.8,97.4 848.9,96.8 851.0,96.1 853.1,95.5 855.2,94.9 857.3,94.1 859.4,93.5 861.5,92.9 863.6,92.3 865.7,91.5 867.8,91.1 869.9,90.4 872.0,90.0 872.0,272.0" fill="#e0f2fe" opacity="0.55"/>
<polyline points="52.0,272.0 54.1,271.9 79.3,271.5 81.4,271.4 83.5,271.3 89.7,271.3 102.3,271.2 129.6,271.2 131.7,270.8 133.8,270.8 140.1,270.7 142.2,270.7 144.3,270.6 146.4,270.5 150.6,270.5 152.7,270.3 159.0,270.1 167.3,270.0 169.4,269.9 171.5,269.8 188.3,269.8 192.5,269.8 203.0,269.7 205.1,269.7 207.2,269.6 215.6,269.6 217.7,269.3 219.8,269.1 221.9,268.6 224.0,268.5 238.6,268.5 244.9,268.5 249.1,268.4 251.2,268.4 253.3,268.2 255.4,268.1 257.5,268.1 259.6,268.0 261.7,267.9 270.1,267.7 274.3,267.6 282.7,267.6 284.8,267.4 286.9,267.3 289.0,267.3 293.2,267.2 295.3,266.4 297.4,265.6 299.5,265.4 301.6,265.2 303.7,265.1 305.8,264.9 307.9,264.6 310.0,264.4 312.1,264.3 314.1,264.2 318.3,264.1 320.4,263.8 322.5,263.4 324.6,263.1 326.7,262.9 330.9,262.8 335.1,262.8 337.2,262.5 339.3,262.3 341.4,261.8 343.5,261.4 345.6,261.1 347.7,260.8 349.8,260.5 351.9,260.1 354.0,259.7 356.1,259.3 358.2,258.9 360.3,258.5 362.4,258.3 364.5,258.0 366.6,257.7 368.7,257.5 370.8,257.3 372.9,257.1 375.0,257.0 377.1,256.9 381.3,256.9 383.4,256.1 385.5,255.6 387.5,255.4 389.6,255.4 393.8,255.3 395.9,255.2 404.3,255.2 408.5,255.1 414.8,255.0 416.9,254.1 419.0,253.2 421.1,253.0 423.2,252.3 425.3,251.7 427.4,251.4 429.5,251.2 431.6,250.8 433.7,250.7 435.8,250.6 437.9,250.4 440.0,250.3 452.6,249.7 454.7,248.9 456.8,248.8 458.9,248.7 461.0,248.6 475.6,248.6 494.5,247.8 496.6,247.1 498.7,246.4 500.8,245.2 502.9,245.0 505.0,244.7 507.1,244.0 509.2,243.6 511.3,242.5 513.4,240.9 515.5,239.4 517.6,237.5 519.7,235.6 521.8,233.9 523.9,232.9 526.0,231.7 528.1,229.8 530.2,228.3 532.3,227.2 534.4,226.2 536.5,224.7 538.5,223.7 540.6,222.7 542.7,221.9 544.8,221.3 546.9,220.4 549.0,219.9 551.1,219.4 553.2,218.9 555.3,217.5 557.4,216.3 559.5,215.7 561.6,215.5 563.7,215.1 565.8,214.5 567.9,214.0 570.0,213.0 572.1,212.4 574.2,211.9 576.3,211.8 578.4,211.6 580.5,211.1 582.6,210.0 584.7,208.1 586.8,206.1 588.9,204.2 591.0,202.6 593.1,200.7 595.2,198.7 597.3,196.7 599.4,194.8 601.5,193.5 603.6,192.4 605.7,191.2 607.8,190.0 609.9,189.2 611.9,188.2 614.0,187.5 616.1,186.5 618.2,185.1 620.3,183.4 622.4,182.0 624.5,180.8 626.6,180.0 628.7,179.3 630.8,178.6 632.9,177.8 635.0,176.4 637.1,175.2 639.2,173.9 641.3,172.4 643.4,171.2 645.5,170.3 647.6,169.9 649.7,169.3 651.8,168.8 653.9,168.7 656.0,168.6 658.1,168.3 660.2,168.2 662.3,168.2 664.4,168.0 666.5,167.9 672.8,167.8 674.9,167.8 677.0,167.6 679.1,165.9 681.2,164.5 683.3,163.3 685.4,161.9 687.4,160.7 689.5,159.4 691.6,158.1 693.7,156.9 695.8,155.6 697.9,154.4 700.0,153.2 702.1,152.0 704.2,150.8 706.3,149.6 708.4,148.5 710.5,147.5 712.6,146.4 714.7,145.3 716.8,144.2 718.9,143.1 721.0,142.0 723.1,141.3 725.2,140.6 727.3,139.9 729.4,138.9 731.5,137.9 733.6,137.1 735.7,136.0 737.8,135.1 739.9,134.2 742.0,133.3 744.1,132.3 746.2,131.4 748.3,130.5 750.4,129.5 752.5,128.7 754.6,127.7 756.7,127.0 758.8,126.2 760.8,125.3 762.9,124.5 765.0,123.7 767.1,123.1 769.2,122.5 771.3,122.1 773.4,122.0 775.5,121.2 777.6,120.4 779.7,119.6 781.8,118.8 783.9,118.1 786.0,117.3 788.1,116.6 790.2,115.8 792.3,115.1 794.4,114.4 796.5,113.7 798.6,113.1 800.7,112.3 802.8,111.6 804.9,110.9 807.0,110.2 809.1,109.5 811.2,108.9 813.3,108.1 815.4,107.6 817.5,107.0 819.6,106.2 821.7,105.4 823.8,104.7 825.9,104.0 828.0,103.3 830.1,102.7 832.2,102.1 834.3,101.3 836.3,100.7 838.4,100.3 840.5,99.7 842.6,99.0 844.7,98.3 846.8,97.4 848.9,96.8 851.0,96.1 853.1,95.5 855.2,94.9 857.3,94.1 859.4,93.5 861.5,92.9 863.6,92.3 865.7,91.5 867.8,91.1 869.9,90.4 872.0,90.0" fill="none" stroke="#38bdf8" stroke-width="2.5" stroke-linejoin="round" stroke-linecap="round"/>
<circle cx="872.0" cy="90.0" r="4" fill="#0ea5e9"/>
<text x="866.0" y="80.0" text-anchor="end" font-family="Inter, system-ui, sans-serif" font-size="13" font-weight="700" fill="#334155">4571</text>
<text x="52.0" y="294" text-anchor="middle" font-family="Inter, system-ui, sans-serif" font-size="11" fill="#94a3b8">Jun 10 05:00</text>
<text x="565.8" y="294" text-anchor="middle" font-family="Inter, system-ui, sans-serif" font-size="11" fill="#94a3b8">Jun 20 10:00</text>
<text x="872.0" y="294" text-anchor="middle" font-family="Inter, system-ui, sans-serif" font-size="11" fill="#94a3b8">Jun 26 12:00</text>
</svg>
