<svg xmlns="http://www.w3.org/2000/svg" width="900" height="320" viewBox="0 0 900 320" role="img" aria-labelledby="title desc">
<title id="title">unsorry proofs over time</title>
<desc id="desc">Cumulative kernel-verified proofs over time, by the hour each proof was merged.</desc>
<rect width="900" height="100%" rx="18" fill="#ffffff"/>
<rect x="0.5" y="0.5" width="899" height="319" rx="18" fill="none" stroke="#e2e8f0"/>
<text x="32" y="44" font-family="Inter, system-ui, sans-serif" font-size="28" font-weight="700" fill="#334155">unsorry — Proofs Over Time</text>
<text x="32" y="72" font-family="Inter, system-ui, sans-serif" font-size="13" fill="#64748b">3458 cumulative kernel-verified proofs · merged, hourly</text>
<line x1="52" y1="272.0" x2="872" y2="272.0" stroke="#f1f5f9"/>
<text x="44" y="276.0" text-anchor="end" font-family="Inter, system-ui, sans-serif" font-size="11" fill="#94a3b8">0</text>
<line x1="52" y1="226.5" x2="872" y2="226.5" stroke="#f1f5f9"/>
<text x="44" y="230.5" text-anchor="end" font-family="Inter, system-ui, sans-serif" font-size="11" fill="#94a3b8">864</text>
<line x1="52" y1="181.0" x2="872" y2="181.0" stroke="#f1f5f9"/>
<text x="44" y="185.0" text-anchor="end" font-family="Inter, system-ui, sans-serif" font-size="11" fill="#94a3b8">1729</text>
<line x1="52" y1="135.5" x2="872" y2="135.5" stroke="#f1f5f9"/>
<text x="44" y="139.5" text-anchor="end" font-family="Inter, system-ui, sans-serif" font-size="11" fill="#94a3b8">2594</text>
<line x1="52" y1="90.0" x2="872" y2="90.0" stroke="#f1f5f9"/>
<text x="44" y="94.0" text-anchor="end" font-family="Inter, system-ui, sans-serif" font-size="11" fill="#94a3b8">3458</text>
<polygon points="52.0,272.0 52.0,271.9 54.5,271.8 84.5,271.3 87.0,271.2 89.5,271.1 97.0,271.1 112.0,271.0 144.5,270.9 147.0,270.5 149.5,270.4 157.0,270.3 159.5,270.3 162.0,270.2 164.5,270.1 169.5,270.0 172.0,269.7 179.5,269.5 189.5,269.4 192.0,269.3 194.5,269.2 214.5,269.1 219.5,269.1 232.0,269.0 234.5,268.9 237.0,268.8 247.0,268.8 249.5,268.5 252.0,268.2 254.5,267.5 257.0,267.4 274.5,267.4 282.0,267.3 287.0,267.3 289.5,267.2 292.0,266.9 294.5,266.9 297.0,266.8 299.5,266.7 302.0,266.5 312.0,266.3 317.0,266.2 327.0,266.2 329.5,265.9 332.0,265.8 334.5,265.7 339.5,265.7 342.0,264.6 344.5,263.6 347.0,263.2 349.5,262.9 352.0,262.8 354.5,262.6 357.0,262.2 359.5,261.9 362.0,261.8 364.5,261.7 369.5,261.5 372.0,261.1 374.5,260.7 377.0,260.3 379.5,260.0 384.5,259.9 389.5,259.8 392.0,259.5 394.5,259.2 397.0,258.5 399.5,258.1 402.0,257.6 404.5,257.2 407.0,256.7 409.5,256.3 412.0,255.7 414.5,255.2 417.0,254.6 419.5,254.2 422.0,253.8 424.5,253.5 427.0,253.1 429.5,252.8 432.0,252.6 434.5,252.3 437.0,252.2 439.5,252.1 444.5,252.1 447.0,251.0 449.5,250.3 452.0,250.1 454.5,250.1 459.5,249.9 462.0,249.8 472.0,249.7 477.0,249.6 484.5,249.6 487.0,248.4 489.5,247.2 492.0,246.9 494.5,245.9 497.0,245.2 499.5,244.7 502.0,244.5 504.5,244.0 507.0,243.8 509.5,243.7 512.0,243.5 514.5,243.4 529.5,242.5 532.0,241.5 534.5,241.3 537.0,241.2 539.5,241.1 557.0,241.1 579.5,239.9 582.0,239.1 584.5,238.1 587.0,236.6 589.5,236.4 592.0,235.9 594.5,235.1 597.0,234.4 599.5,233.0 602.0,230.9 604.5,228.8 607.0,226.4 609.5,223.9 612.0,221.7 614.5,220.3 617.0,218.7 619.5,216.3 622.0,214.2 624.5,212.8 627.0,211.4 629.5,209.4 632.0,208.2 634.5,206.9 637.0,205.8 639.5,204.9 642.0,203.8 644.5,203.2 647.0,202.4 649.5,201.8 652.0,199.9 654.5,198.4 657.0,197.5 659.5,197.3 662.0,196.8 664.5,196.0 667.0,195.3 669.5,194.1 672.0,193.3 674.5,192.5 677.0,192.4 679.5,192.1 682.0,191.5 684.5,190.0 687.0,187.5 689.5,184.9 692.0,182.4 694.5,180.3 697.0,177.8 699.5,175.2 702.0,172.5 704.5,170.0 707.0,168.2 709.5,166.8 712.0,165.2 714.5,163.6 717.0,162.5 719.5,161.3 722.0,160.3 724.5,158.9 727.0,157.1 729.5,154.9 732.0,153.1 734.5,151.4 737.0,150.4 739.5,149.4 742.0,148.5 744.5,147.4 747.0,145.6 749.5,144.1 752.0,142.3 754.5,140.4 757.0,138.8 759.5,137.5 762.0,137.0 764.5,136.3 767.0,135.5 769.5,135.4 772.0,135.3 774.5,134.9 777.0,134.8 779.5,134.7 782.0,134.5 784.5,134.4 792.0,134.3 794.5,134.3 797.0,133.9 799.5,131.8 802.0,129.9 804.5,128.3 807.0,126.5 809.5,124.8 812.0,123.2 814.5,121.5 817.0,119.9 819.5,118.2 822.0,116.6 824.5,114.9 827.0,113.4 829.5,111.8 832.0,110.3 834.5,108.7 837.0,107.4 839.5,105.9 842.0,104.5 844.5,103.0 847.0,101.6 849.5,100.2 852.0,99.3 854.5,98.3 857.0,97.4 859.5,96.0 862.0,94.8 864.5,93.6 867.0,92.2 869.5,91.0 872.0,90.0 872.0,272.0" fill="#e0f2fe" opacity="0.55"/>
<polyline points="52.0,271.9 54.5,271.8 84.5,271.3 87.0,271.2 89.5,271.1 97.0,271.1 112.0,271.0 144.5,270.9 147.0,270.5 149.5,270.4 157.0,270.3 159.5,270.3 162.0,270.2 164.5,270.1 169.5,270.0 172.0,269.7 179.5,269.5 189.5,269.4 192.0,269.3 194.5,269.2 214.5,269.1 219.5,269.1 232.0,269.0 234.5,268.9 237.0,268.8 247.0,268.8 249.5,268.5 252.0,268.2 254.5,267.5 257.0,267.4 274.5,267.4 282.0,267.3 287.0,267.3 289.5,267.2 292.0,266.9 294.5,266.9 297.0,266.8 299.5,266.7 302.0,266.5 312.0,266.3 317.0,266.2 327.0,266.2 329.5,265.9 332.0,265.8 334.5,265.7 339.5,265.7 342.0,264.6 344.5,263.6 347.0,263.2 349.5,262.9 352.0,262.8 354.5,262.6 357.0,262.2 359.5,261.9 362.0,261.8 364.5,261.7 369.5,261.5 372.0,261.1 374.5,260.7 377.0,260.3 379.5,260.0 384.5,259.9 389.5,259.8 392.0,259.5 394.5,259.2 397.0,258.5 399.5,258.1 402.0,257.6 404.5,257.2 407.0,256.7 409.5,256.3 412.0,255.7 414.5,255.2 417.0,254.6 419.5,254.2 422.0,253.8 424.5,253.5 427.0,253.1 429.5,252.8 432.0,252.6 434.5,252.3 437.0,252.2 439.5,252.1 444.5,252.1 447.0,251.0 449.5,250.3 452.0,250.1 454.5,250.1 459.5,249.9 462.0,249.8 472.0,249.7 477.0,249.6 484.5,249.6 487.0,248.4 489.5,247.2 492.0,246.9 494.5,245.9 497.0,245.2 499.5,244.7 502.0,244.5 504.5,244.0 507.0,243.8 509.5,243.7 512.0,243.5 514.5,243.4 529.5,242.5 532.0,241.5 534.5,241.3 537.0,241.2 539.5,241.1 557.0,241.1 579.5,239.9 582.0,239.1 584.5,238.1 587.0,236.6 589.5,236.4 592.0,235.9 594.5,235.1 597.0,234.4 599.5,233.0 602.0,230.9 604.5,228.8 607.0,226.4 609.5,223.9 612.0,221.7 614.5,220.3 617.0,218.7 619.5,216.3 622.0,214.2 624.5,212.8 627.0,211.4 629.5,209.4 632.0,208.2 634.5,206.9 637.0,205.8 639.5,204.9 642.0,203.8 644.5,203.2 647.0,202.4 649.5,201.8 652.0,199.9 654.5,198.4 657.0,197.5 659.5,197.3 662.0,196.8 664.5,196.0 667.0,195.3 669.5,194.1 672.0,193.3 674.5,192.5 677.0,192.4 679.5,192.1 682.0,191.5 684.5,190.0 687.0,187.5 689.5,184.9 692.0,182.4 694.5,180.3 697.0,177.8 699.5,175.2 702.0,172.5 704.5,170.0 707.0,168.2 709.5,166.8 712.0,165.2 714.5,163.6 717.0,162.5 719.5,161.3 722.0,160.3 724.5,158.9 727.0,157.1 729.5,154.9 732.0,153.1 734.5,151.4 737.0,150.4 739.5,149.4 742.0,148.5 744.5,147.4 747.0,145.6 749.5,144.1 752.0,142.3 754.5,140.4 757.0,138.8 759.5,137.5 762.0,137.0 764.5,136.3 767.0,135.5 769.5,135.4 772.0,135.3 774.5,134.9 777.0,134.8 779.5,134.7 782.0,134.5 784.5,134.4 792.0,134.3 794.5,134.3 797.0,133.9 799.5,131.8 802.0,129.9 804.5,128.3 807.0,126.5 809.5,124.8 812.0,123.2 814.5,121.5 817.0,119.9 819.5,118.2 822.0,116.6 824.5,114.9 827.0,113.4 829.5,111.8 832.0,110.3 834.5,108.7 837.0,107.4 839.5,105.9 842.0,104.5 844.5,103.0 847.0,101.6 849.5,100.2 852.0,99.3 854.5,98.3 857.0,97.4 859.5,96.0 862.0,94.8 864.5,93.6 867.0,92.2 869.5,91.0 872.0,90.0" fill="none" stroke="#38bdf8" stroke-width="2.5" stroke-linejoin="round" stroke-linecap="round"/>
<circle cx="872.0" cy="90.0" r="4" fill="#0ea5e9"/>
<text x="866.0" y="80.0" text-anchor="end" font-family="Inter, system-ui, sans-serif" font-size="13" font-weight="700" fill="#334155">3458</text>
<text x="52.0" y="294" text-anchor="middle" font-family="Inter, system-ui, sans-serif" font-size="11" fill="#94a3b8">Jun 10 05:00</text>
<text x="584.5" y="294" text-anchor="middle" font-family="Inter, system-ui, sans-serif" font-size="11" fill="#94a3b8">Jun 19 02:00</text>
<text x="872.0" y="294" text-anchor="middle" font-family="Inter, system-ui, sans-serif" font-size="11" fill="#94a3b8">Jun 23 21:00</text>
</svg>
