<svg xmlns="http://www.w3.org/2000/svg" width="900" height="320" viewBox="0 0 900 320" role="img" aria-labelledby="title desc">
<title id="title">unsorry proofs over time</title>
<desc id="desc">Cumulative kernel-verified proofs over time, by the hour each proof was merged.</desc>
<rect width="900" height="100%" rx="18" fill="#ffffff"/>
<rect x="0.5" y="0.5" width="899" height="319" rx="18" fill="none" stroke="#e2e8f0"/>
<text x="32" y="44" font-family="Inter, system-ui, sans-serif" font-size="28" font-weight="700" fill="#334155">unsorry — Proofs Over Time</text>
<text x="32" y="72" font-family="Inter, system-ui, sans-serif" font-size="13" fill="#64748b">4614 cumulative kernel-verified proofs · merged, hourly</text>
<line x1="52" y1="272.0" x2="872" y2="272.0" stroke="#f1f5f9"/>
<text x="44" y="276.0" text-anchor="end" font-family="Inter, system-ui, sans-serif" font-size="11" fill="#94a3b8">0</text>
<line x1="52" y1="226.5" x2="872" y2="226.5" stroke="#f1f5f9"/>
<text x="44" y="230.5" text-anchor="end" font-family="Inter, system-ui, sans-serif" font-size="11" fill="#94a3b8">1154</text>
<line x1="52" y1="181.0" x2="872" y2="181.0" stroke="#f1f5f9"/>
<text x="44" y="185.0" text-anchor="end" font-family="Inter, system-ui, sans-serif" font-size="11" fill="#94a3b8">2307</text>
<line x1="52" y1="135.5" x2="872" y2="135.5" stroke="#f1f5f9"/>
<text x="44" y="139.5" text-anchor="end" font-family="Inter, system-ui, sans-serif" font-size="11" fill="#94a3b8">3460</text>
<line x1="52" y1="90.0" x2="872" y2="90.0" stroke="#f1f5f9"/>
<text x="44" y="94.0" text-anchor="end" font-family="Inter, system-ui, sans-serif" font-size="11" fill="#94a3b8">4614</text>
<polygon points="52.0,272.0 52.0,272.0 54.1,271.9 79.1,271.5 81.1,271.4 83.2,271.3 89.5,271.3 101.9,271.3 129.0,271.2 131.1,270.9 133.2,270.8 139.4,270.7 141.5,270.7 143.6,270.7 145.7,270.5 149.8,270.5 151.9,270.3 158.1,270.1 166.5,270.1 168.5,269.9 170.6,269.9 187.3,269.8 191.4,269.8 201.8,269.8 203.9,269.7 206.0,269.6 214.3,269.6 216.4,269.4 218.5,269.2 220.6,268.6 222.7,268.6 237.2,268.5 243.5,268.5 247.6,268.4 249.7,268.4 251.8,268.2 253.9,268.2 256.0,268.1 258.0,268.0 260.1,267.9 268.4,267.7 272.6,267.7 280.9,267.6 283.0,267.4 285.1,267.4 287.2,267.3 291.3,267.3 293.4,266.5 295.5,265.7 297.6,265.4 299.7,265.2 301.7,265.1 303.8,264.9 305.9,264.7 308.0,264.5 310.1,264.3 312.2,264.3 316.3,264.2 318.4,263.8 320.5,263.5 322.6,263.2 324.6,263.0 328.8,262.9 333.0,262.9 335.0,262.6 337.1,262.4 339.2,261.9 341.3,261.5 343.4,261.2 345.5,260.9 347.5,260.6 349.6,260.2 351.7,259.8 353.8,259.4 355.9,259.0 357.9,258.6 360.0,258.4 362.1,258.1 364.2,257.8 366.3,257.6 368.3,257.4 370.4,257.2 372.5,257.2 374.6,257.1 378.8,257.1 380.8,256.3 382.9,255.7 385.0,255.6 387.1,255.6 391.2,255.5 393.3,255.4 401.6,255.3 405.8,255.2 412.1,255.2 414.1,254.3 416.2,253.4 418.3,253.2 420.4,252.5 422.5,251.9 424.5,251.6 426.6,251.4 428.7,251.0 430.8,250.9 432.9,250.8 434.9,250.6 437.0,250.5 449.5,249.9 451.6,249.1 453.7,249.0 455.8,248.9 457.8,248.8 472.4,248.8 491.1,248.0 493.2,247.3 495.3,246.6 497.4,245.5 499.5,245.3 501.5,244.9 503.6,244.3 505.7,243.8 507.8,242.8 509.9,241.2 511.9,239.7 514.0,237.8 516.1,235.9 518.2,234.3 520.3,233.3 522.4,232.0 524.4,230.2 526.5,228.7 528.6,227.7 530.7,226.6 532.8,225.1 534.8,224.2 536.9,223.2 539.0,222.4 541.1,221.7 543.2,220.9 545.2,220.4 547.3,219.9 549.4,219.4 551.5,218.0 553.6,216.8 555.7,216.2 557.7,216.0 559.8,215.6 561.9,215.0 564.0,214.5 566.1,213.6 568.1,213.0 570.2,212.4 572.3,212.4 574.4,212.1 576.5,211.7 578.5,210.5 580.6,208.7 582.7,206.8 584.8,204.8 586.9,203.2 589.0,201.4 591.0,199.4 593.1,197.4 595.2,195.6 597.3,194.2 599.4,193.1 601.4,191.9 603.5,190.7 605.6,190.0 607.7,189.0 609.8,188.3 611.8,187.3 613.9,185.9 616.0,184.2 618.1,182.9 620.2,181.6 622.3,180.8 624.3,180.1 626.4,179.4 628.5,178.6 630.6,177.3 632.7,176.1 634.7,174.8 636.8,173.3 638.9,172.2 641.0,171.2 643.1,170.8 645.1,170.3 647.2,169.7 649.3,169.6 651.4,169.6 653.5,169.3 655.6,169.2 657.6,169.1 659.7,168.9 661.8,168.9 668.0,168.8 670.1,168.8 672.2,168.5 674.3,166.9 676.4,165.5 678.4,164.3 680.5,162.9 682.6,161.7 684.7,160.5 686.8,159.2 688.9,158.0 690.9,156.7 693.0,155.5 695.1,154.3 697.2,153.1 699.3,152.0 701.3,150.8 703.4,149.6 705.5,148.7 707.6,147.6 709.7,146.4 711.7,145.3 713.8,144.3 715.9,143.3 718.0,142.5 720.1,141.8 722.2,141.1 724.2,140.1 726.3,139.2 728.4,138.3 730.5,137.3 732.6,136.3 734.6,135.5 736.7,134.6 738.8,133.6 740.9,132.7 743.0,131.9 745.0,130.8 747.1,130.0 749.2,129.1 751.3,128.3 753.4,127.6 755.5,126.7 757.5,125.9 759.6,125.1 761.7,124.5 763.8,123.9 765.9,123.5 767.9,123.4 770.0,122.6 772.1,121.8 774.2,121.0 776.3,120.2 778.3,119.5 780.4,118.8 782.5,118.0 784.6,117.3 786.7,116.5 788.8,115.9 790.8,115.2 792.9,114.5 795.0,113.7 797.1,113.1 799.2,112.4 801.2,111.7 803.3,111.0 805.4,110.4 807.5,109.6 809.6,109.1 811.6,108.5 813.7,107.7 815.8,106.9 817.9,106.3 820.0,105.5 822.1,104.8 824.1,104.3 826.2,103.6 828.3,102.9 830.4,102.3 832.5,101.9 834.5,101.3 836.6,100.6 838.7,99.9 840.8,99.1 842.9,98.4 844.9,97.7 847.0,97.1 849.1,96.5 851.2,95.8 853.3,95.2 855.4,94.6 857.4,94.0 859.5,93.2 861.6,92.8 863.7,92.1 865.8,91.5 867.8,91.2 869.9,90.6 872.0,90.0 872.0,272.0" fill="#e0f2fe" opacity="0.55"/>
<polyline points="52.0,272.0 54.1,271.9 79.1,271.5 81.1,271.4 83.2,271.3 89.5,271.3 101.9,271.3 129.0,271.2 131.1,270.9 133.2,270.8 139.4,270.7 141.5,270.7 143.6,270.7 145.7,270.5 149.8,270.5 151.9,270.3 158.1,270.1 166.5,270.1 168.5,269.9 170.6,269.9 187.3,269.8 191.4,269.8 201.8,269.8 203.9,269.7 206.0,269.6 214.3,269.6 216.4,269.4 218.5,269.2 220.6,268.6 222.7,268.6 237.2,268.5 243.5,268.5 247.6,268.4 249.7,268.4 251.8,268.2 253.9,268.2 256.0,268.1 258.0,268.0 260.1,267.9 268.4,267.7 272.6,267.7 280.9,267.6 283.0,267.4 285.1,267.4 287.2,267.3 291.3,267.3 293.4,266.5 295.5,265.7 297.6,265.4 299.7,265.2 301.7,265.1 303.8,264.9 305.9,264.7 308.0,264.5 310.1,264.3 312.2,264.3 316.3,264.2 318.4,263.8 320.5,263.5 322.6,263.2 324.6,263.0 328.8,262.9 333.0,262.9 335.0,262.6 337.1,262.4 339.2,261.9 341.3,261.5 343.4,261.2 345.5,260.9 347.5,260.6 349.6,260.2 351.7,259.8 353.8,259.4 355.9,259.0 357.9,258.6 360.0,258.4 362.1,258.1 364.2,257.8 366.3,257.6 368.3,257.4 370.4,257.2 372.5,257.2 374.6,257.1 378.8,257.1 380.8,256.3 382.9,255.7 385.0,255.6 387.1,255.6 391.2,255.5 393.3,255.4 401.6,255.3 405.8,255.2 412.1,255.2 414.1,254.3 416.2,253.4 418.3,253.2 420.4,252.5 422.5,251.9 424.5,251.6 426.6,251.4 428.7,251.0 430.8,250.9 432.9,250.8 434.9,250.6 437.0,250.5 449.5,249.9 451.6,249.1 453.7,249.0 455.8,248.9 457.8,248.8 472.4,248.8 491.1,248.0 493.2,247.3 495.3,246.6 497.4,245.5 499.5,245.3 501.5,244.9 503.6,244.3 505.7,243.8 507.8,242.8 509.9,241.2 511.9,239.7 514.0,237.8 516.1,235.9 518.2,234.3 520.3,233.3 522.4,232.0 524.4,230.2 526.5,228.7 528.6,227.7 530.7,226.6 532.8,225.1 534.8,224.2 536.9,223.2 539.0,222.4 541.1,221.7 543.2,220.9 545.2,220.4 547.3,219.9 549.4,219.4 551.5,218.0 553.6,216.8 555.7,216.2 557.7,216.0 559.8,215.6 561.9,215.0 564.0,214.5 566.1,213.6 568.1,213.0 570.2,212.4 572.3,212.4 574.4,212.1 576.5,211.7 578.5,210.5 580.6,208.7 582.7,206.8 584.8,204.8 586.9,203.2 589.0,201.4 591.0,199.4 593.1,197.4 595.2,195.6 597.3,194.2 599.4,193.1 601.4,191.9 603.5,190.7 605.6,190.0 607.7,189.0 609.8,188.3 611.8,187.3 613.9,185.9 616.0,184.2 618.1,182.9 620.2,181.6 622.3,180.8 624.3,180.1 626.4,179.4 628.5,178.6 630.6,177.3 632.7,176.1 634.7,174.8 636.8,173.3 638.9,172.2 641.0,171.2 643.1,170.8 645.1,170.3 647.2,169.7 649.3,169.6 651.4,169.6 653.5,169.3 655.6,169.2 657.6,169.1 659.7,168.9 661.8,168.9 668.0,168.8 670.1,168.8 672.2,168.5 674.3,166.9 676.4,165.5 678.4,164.3 680.5,162.9 682.6,161.7 684.7,160.5 686.8,159.2 688.9,158.0 690.9,156.7 693.0,155.5 695.1,154.3 697.2,153.1 699.3,152.0 701.3,150.8 703.4,149.6 705.5,148.7 707.6,147.6 709.7,146.4 711.7,145.3 713.8,144.3 715.9,143.3 718.0,142.5 720.1,141.8 722.2,141.1 724.2,140.1 726.3,139.2 728.4,138.3 730.5,137.3 732.6,136.3 734.6,135.5 736.7,134.6 738.8,133.6 740.9,132.7 743.0,131.9 745.0,130.8 747.1,130.0 749.2,129.1 751.3,128.3 753.4,127.6 755.5,126.7 757.5,125.9 759.6,125.1 761.7,124.5 763.8,123.9 765.9,123.5 767.9,123.4 770.0,122.6 772.1,121.8 774.2,121.0 776.3,120.2 778.3,119.5 780.4,118.8 782.5,118.0 784.6,117.3 786.7,116.5 788.8,115.9 790.8,115.2 792.9,114.5 795.0,113.7 797.1,113.1 799.2,112.4 801.2,111.7 803.3,111.0 805.4,110.4 807.5,109.6 809.6,109.1 811.6,108.5 813.7,107.7 815.8,106.9 817.9,106.3 820.0,105.5 822.1,104.8 824.1,104.3 826.2,103.6 828.3,102.9 830.4,102.3 832.5,101.9 834.5,101.3 836.6,100.6 838.7,99.9 840.8,99.1 842.9,98.4 844.9,97.7 847.0,97.1 849.1,96.5 851.2,95.8 853.3,95.2 855.4,94.6 857.4,94.0 859.5,93.2 861.6,92.8 863.7,92.1 865.8,91.5 867.8,91.2 869.9,90.6 872.0,90.0" fill="none" stroke="#38bdf8" stroke-width="2.5" stroke-linejoin="round" stroke-linecap="round"/>
<circle cx="872.0" cy="90.0" r="4" fill="#0ea5e9"/>
<text x="866.0" y="80.0" text-anchor="end" font-family="Inter, system-ui, sans-serif" font-size="13" font-weight="700" fill="#334155">4614</text>
<text x="52.0" y="294" text-anchor="middle" font-family="Inter, system-ui, sans-serif" font-size="11" fill="#94a3b8">Jun 10 05:00</text>
<text x="564.0" y="294" text-anchor="middle" font-family="Inter, system-ui, sans-serif" font-size="11" fill="#94a3b8">Jun 20 11:00</text>
<text x="872.0" y="294" text-anchor="middle" font-family="Inter, system-ui, sans-serif" font-size="11" fill="#94a3b8">Jun 26 15:00</text>
</svg>
