<svg xmlns="http://www.w3.org/2000/svg" width="900" height="320" viewBox="0 0 900 320" role="img" aria-labelledby="title desc">
<title id="title">unsorry proofs over time</title>
<desc id="desc">Cumulative kernel-verified proofs over time, by the hour each proof was merged.</desc>
<rect width="900" height="100%" rx="18" fill="#ffffff"/>
<rect x="0.5" y="0.5" width="899" height="319" rx="18" fill="none" stroke="#e2e8f0"/>
<text x="32" y="44" font-family="Inter, system-ui, sans-serif" font-size="28" font-weight="700" fill="#334155">unsorry — Proofs Over Time</text>
<text x="32" y="72" font-family="Inter, system-ui, sans-serif" font-size="13" fill="#64748b">3755 cumulative kernel-verified proofs · merged, hourly</text>
<line x1="52" y1="272.0" x2="872" y2="272.0" stroke="#f1f5f9"/>
<text x="44" y="276.0" text-anchor="end" font-family="Inter, system-ui, sans-serif" font-size="11" fill="#94a3b8">0</text>
<line x1="52" y1="226.5" x2="872" y2="226.5" stroke="#f1f5f9"/>
<text x="44" y="230.5" text-anchor="end" font-family="Inter, system-ui, sans-serif" font-size="11" fill="#94a3b8">939</text>
<line x1="52" y1="181.0" x2="872" y2="181.0" stroke="#f1f5f9"/>
<text x="44" y="185.0" text-anchor="end" font-family="Inter, system-ui, sans-serif" font-size="11" fill="#94a3b8">1878</text>
<line x1="52" y1="135.5" x2="872" y2="135.5" stroke="#f1f5f9"/>
<text x="44" y="139.5" text-anchor="end" font-family="Inter, system-ui, sans-serif" font-size="11" fill="#94a3b8">2816</text>
<line x1="52" y1="90.0" x2="872" y2="90.0" stroke="#f1f5f9"/>
<text x="44" y="94.0" text-anchor="end" font-family="Inter, system-ui, sans-serif" font-size="11" fill="#94a3b8">3755</text>
<polygon points="52.0,272.0 52.0,272.0 54.4,271.9 83.2,271.4 85.6,271.2 88.0,271.2 95.2,271.1 109.5,271.1 140.7,271.0 143.1,270.6 145.5,270.5 152.7,270.4 155.1,270.4 157.5,270.4 159.9,270.2 164.7,270.2 167.1,269.9 174.3,269.7 183.9,269.6 186.3,269.5 188.7,269.4 207.8,269.3 212.6,269.3 224.6,269.2 227.0,269.2 229.4,269.1 239.0,269.0 241.4,268.8 243.8,268.5 246.2,267.9 248.6,267.8 265.4,267.7 272.6,267.7 277.4,267.6 279.8,267.6 282.2,267.3 284.6,267.3 287.0,267.3 289.4,267.1 291.8,267.0 301.4,266.7 306.2,266.7 315.7,266.6 318.1,266.4 320.5,266.3 322.9,266.2 327.7,266.2 330.1,265.2 332.5,264.2 334.9,263.9 337.3,263.7 339.7,263.6 342.1,263.3 344.5,263.0 346.9,262.7 349.3,262.6 351.7,262.5 356.5,262.4 358.9,262.0 361.3,261.6 363.7,261.2 366.1,260.9 370.9,260.9 375.7,260.8 378.1,260.5 380.5,260.2 382.9,259.5 385.3,259.2 387.7,258.8 390.1,258.4 392.5,257.9 394.9,257.5 397.3,257.0 399.7,256.5 402.1,256.0 404.5,255.6 406.9,255.3 409.3,254.9 411.6,254.6 414.0,254.4 416.4,254.1 418.8,253.9 421.2,253.8 423.6,253.7 428.4,253.6 430.8,252.7 433.2,252.0 435.6,251.8 438.0,251.8 442.8,251.7 445.2,251.5 454.8,251.5 459.6,251.4 466.8,251.4 469.2,250.2 471.6,249.2 474.0,248.9 476.4,248.0 478.8,247.3 481.2,246.9 483.6,246.7 486.0,246.2 488.4,246.0 490.8,245.9 493.2,245.7 495.6,245.6 510.0,244.9 512.4,243.9 514.7,243.7 517.1,243.6 519.5,243.5 536.3,243.5 557.9,242.5 560.3,241.7 562.7,240.8 565.1,239.4 567.5,239.2 569.9,238.8 572.3,238.0 574.7,237.4 577.1,236.1 579.5,234.1 581.9,232.3 584.3,230.0 586.7,227.7 589.1,225.7 591.5,224.4 593.9,222.9 596.3,220.7 598.7,218.8 601.1,217.5 603.5,216.2 605.9,214.4 608.3,213.2 610.7,212.0 613.1,211.0 615.5,210.3 617.8,209.2 620.2,208.6 622.6,207.9 625.0,207.3 627.4,205.6 629.8,204.2 632.2,203.4 634.6,203.2 637.0,202.7 639.4,202.0 641.8,201.4 644.2,200.2 646.6,199.5 649.0,198.8 651.4,198.7 653.8,198.4 656.2,197.9 658.6,196.5 661.0,194.2 663.4,191.8 665.8,189.5 668.2,187.5 670.6,185.2 673.0,182.8 675.4,180.3 677.8,178.1 680.2,176.4 682.6,175.1 685.0,173.6 687.4,172.2 689.8,171.2 692.2,170.0 694.6,169.1 697.0,167.9 699.4,166.2 701.8,164.2 704.2,162.5 706.6,161.0 709.0,160.0 711.4,159.1 713.8,158.2 716.2,157.3 718.5,155.6 720.9,154.2 723.3,152.5 725.7,150.8 728.1,149.3 730.5,148.2 732.9,147.7 735.3,147.0 737.7,146.3 740.1,146.2 742.5,146.1 744.9,145.8 747.3,145.6 749.7,145.6 752.1,145.4 754.5,145.3 761.7,145.2 764.1,145.2 766.5,144.9 768.9,142.9 771.3,141.2 773.7,139.7 776.1,138.0 778.5,136.5 780.9,135.0 783.3,133.4 785.7,131.9 788.1,130.3 790.5,128.9 792.9,127.4 795.3,125.9 797.7,124.5 800.1,123.1 802.5,121.7 804.9,120.4 807.3,119.1 809.7,117.7 812.1,116.4 814.5,115.1 816.9,113.8 819.3,112.9 821.6,112.1 824.0,111.2 826.4,109.9 828.8,108.8 831.2,107.7 833.6,106.4 836.0,105.3 838.4,104.3 840.8,103.1 843.2,102.0 845.6,100.9 848.0,99.8 850.4,98.5 852.8,97.6 855.2,96.4 857.6,95.5 860.0,94.6 862.4,93.4 864.8,92.4 867.2,91.5 869.6,90.7 872.0,90.0 872.0,272.0" fill="#e0f2fe" opacity="0.55"/>
<polyline points="52.0,272.0 54.4,271.9 83.2,271.4 85.6,271.2 88.0,271.2 95.2,271.1 109.5,271.1 140.7,271.0 143.1,270.6 145.5,270.5 152.7,270.4 155.1,270.4 157.5,270.4 159.9,270.2 164.7,270.2 167.1,269.9 174.3,269.7 183.9,269.6 186.3,269.5 188.7,269.4 207.8,269.3 212.6,269.3 224.6,269.2 227.0,269.2 229.4,269.1 239.0,269.0 241.4,268.8 243.8,268.5 246.2,267.9 248.6,267.8 265.4,267.7 272.6,267.7 277.4,267.6 279.8,267.6 282.2,267.3 284.6,267.3 287.0,267.3 289.4,267.1 291.8,267.0 301.4,266.7 306.2,266.7 315.7,266.6 318.1,266.4 320.5,266.3 322.9,266.2 327.7,266.2 330.1,265.2 332.5,264.2 334.9,263.9 337.3,263.7 339.7,263.6 342.1,263.3 344.5,263.0 346.9,262.7 349.3,262.6 351.7,262.5 356.5,262.4 358.9,262.0 361.3,261.6 363.7,261.2 366.1,260.9 370.9,260.9 375.7,260.8 378.1,260.5 380.5,260.2 382.9,259.5 385.3,259.2 387.7,258.8 390.1,258.4 392.5,257.9 394.9,257.5 397.3,257.0 399.7,256.5 402.1,256.0 404.5,255.6 406.9,255.3 409.3,254.9 411.6,254.6 414.0,254.4 416.4,254.1 418.8,253.9 421.2,253.8 423.6,253.7 428.4,253.6 430.8,252.7 433.2,252.0 435.6,251.8 438.0,251.8 442.8,251.7 445.2,251.5 454.8,251.5 459.6,251.4 466.8,251.4 469.2,250.2 471.6,249.2 474.0,248.9 476.4,248.0 478.8,247.3 481.2,246.9 483.6,246.7 486.0,246.2 488.4,246.0 490.8,245.9 493.2,245.7 495.6,245.6 510.0,244.9 512.4,243.9 514.7,243.7 517.1,243.6 519.5,243.5 536.3,243.5 557.9,242.5 560.3,241.7 562.7,240.8 565.1,239.4 567.5,239.2 569.9,238.8 572.3,238.0 574.7,237.4 577.1,236.1 579.5,234.1 581.9,232.3 584.3,230.0 586.7,227.7 589.1,225.7 591.5,224.4 593.9,222.9 596.3,220.7 598.7,218.8 601.1,217.5 603.5,216.2 605.9,214.4 608.3,213.2 610.7,212.0 613.1,211.0 615.5,210.3 617.8,209.2 620.2,208.6 622.6,207.9 625.0,207.3 627.4,205.6 629.8,204.2 632.2,203.4 634.6,203.2 637.0,202.7 639.4,202.0 641.8,201.4 644.2,200.2 646.6,199.5 649.0,198.8 651.4,198.7 653.8,198.4 656.2,197.9 658.6,196.5 661.0,194.2 663.4,191.8 665.8,189.5 668.2,187.5 670.6,185.2 673.0,182.8 675.4,180.3 677.8,178.1 680.2,176.4 682.6,175.1 685.0,173.6 687.4,172.2 689.8,171.2 692.2,170.0 694.6,169.1 697.0,167.9 699.4,166.2 701.8,164.2 704.2,162.5 706.6,161.0 709.0,160.0 711.4,159.1 713.8,158.2 716.2,157.3 718.5,155.6 720.9,154.2 723.3,152.5 725.7,150.8 728.1,149.3 730.5,148.2 732.9,147.7 735.3,147.0 737.7,146.3 740.1,146.2 742.5,146.1 744.9,145.8 747.3,145.6 749.7,145.6 752.1,145.4 754.5,145.3 761.7,145.2 764.1,145.2 766.5,144.9 768.9,142.9 771.3,141.2 773.7,139.7 776.1,138.0 778.5,136.5 780.9,135.0 783.3,133.4 785.7,131.9 788.1,130.3 790.5,128.9 792.9,127.4 795.3,125.9 797.7,124.5 800.1,123.1 802.5,121.7 804.9,120.4 807.3,119.1 809.7,117.7 812.1,116.4 814.5,115.1 816.9,113.8 819.3,112.9 821.6,112.1 824.0,111.2 826.4,109.9 828.8,108.8 831.2,107.7 833.6,106.4 836.0,105.3 838.4,104.3 840.8,103.1 843.2,102.0 845.6,100.9 848.0,99.8 850.4,98.5 852.8,97.6 855.2,96.4 857.6,95.5 860.0,94.6 862.4,93.4 864.8,92.4 867.2,91.5 869.6,90.7 872.0,90.0" fill="none" stroke="#38bdf8" stroke-width="2.5" stroke-linejoin="round" stroke-linecap="round"/>
<circle cx="872.0" cy="90.0" r="4" fill="#0ea5e9"/>
<text x="866.0" y="80.0" text-anchor="end" font-family="Inter, system-ui, sans-serif" font-size="13" font-weight="700" fill="#334155">3755</text>
<text x="52.0" y="294" text-anchor="middle" font-family="Inter, system-ui, sans-serif" font-size="11" fill="#94a3b8">Jun 10 05:00</text>
<text x="579.5" y="294" text-anchor="middle" font-family="Inter, system-ui, sans-serif" font-size="11" fill="#94a3b8">Jun 19 09:00</text>
<text x="872.0" y="294" text-anchor="middle" font-family="Inter, system-ui, sans-serif" font-size="11" fill="#94a3b8">Jun 24 11:00</text>
</svg>
