<svg xmlns="http://www.w3.org/2000/svg" width="900" height="320" viewBox="0 0 900 320" role="img" aria-labelledby="title desc">
<title id="title">unsorry proofs over time</title>
<desc id="desc">Cumulative kernel-verified proofs over time, by the hour each proof was merged.</desc>
<rect width="900" height="100%" rx="18" fill="#ffffff"/>
<rect x="0.5" y="0.5" width="899" height="319" rx="18" fill="none" stroke="#e2e8f0"/>
<text x="32" y="44" font-family="Inter, system-ui, sans-serif" font-size="28" font-weight="700" fill="#334155">unsorry — Proofs Over Time</text>
<text x="32" y="72" font-family="Inter, system-ui, sans-serif" font-size="13" fill="#64748b">4215 cumulative kernel-verified proofs · merged, hourly</text>
<line x1="52" y1="272.0" x2="872" y2="272.0" stroke="#f1f5f9"/>
<text x="44" y="276.0" text-anchor="end" font-family="Inter, system-ui, sans-serif" font-size="11" fill="#94a3b8">0</text>
<line x1="52" y1="226.5" x2="872" y2="226.5" stroke="#f1f5f9"/>
<text x="44" y="230.5" text-anchor="end" font-family="Inter, system-ui, sans-serif" font-size="11" fill="#94a3b8">1054</text>
<line x1="52" y1="181.0" x2="872" y2="181.0" stroke="#f1f5f9"/>
<text x="44" y="185.0" text-anchor="end" font-family="Inter, system-ui, sans-serif" font-size="11" fill="#94a3b8">2108</text>
<line x1="52" y1="135.5" x2="872" y2="135.5" stroke="#f1f5f9"/>
<text x="44" y="139.5" text-anchor="end" font-family="Inter, system-ui, sans-serif" font-size="11" fill="#94a3b8">3161</text>
<line x1="52" y1="90.0" x2="872" y2="90.0" stroke="#f1f5f9"/>
<text x="44" y="94.0" text-anchor="end" font-family="Inter, system-ui, sans-serif" font-size="11" fill="#94a3b8">4215</text>
<polygon points="52.0,272.0 52.0,272.0 54.2,271.9 80.9,271.4 83.1,271.3 85.3,271.3 92.0,271.2 105.3,271.2 134.2,271.1 136.4,270.7 138.7,270.7 145.3,270.6 147.6,270.6 149.8,270.5 152.0,270.4 156.4,270.4 158.7,270.1 165.3,270.0 174.2,269.9 176.4,269.8 178.7,269.7 196.4,269.6 200.9,269.6 212.0,269.5 214.2,269.5 216.4,269.4 225.3,269.4 227.6,269.1 229.8,268.9 232.0,268.3 234.2,268.2 249.8,268.2 256.4,268.2 260.9,268.1 263.1,268.1 265.3,267.9 267.6,267.8 269.8,267.8 272.0,267.6 274.2,267.5 283.1,267.3 287.6,267.3 296.4,267.2 298.7,267.0 300.9,266.9 303.1,266.9 307.6,266.8 309.8,266.0 312.0,265.1 314.2,264.8 316.4,264.6 318.7,264.5 320.9,264.3 323.1,264.0 325.3,263.8 327.6,263.6 329.8,263.5 334.2,263.4 336.4,263.1 338.7,262.7 340.9,262.4 343.1,262.2 347.6,262.1 352.0,262.0 354.2,261.7 356.4,261.5 358.7,260.9 360.9,260.6 363.1,260.2 365.3,259.9 367.6,259.5 369.8,259.1 372.0,258.7 374.2,258.2 376.4,257.8 378.7,257.4 380.9,257.1 383.1,256.8 385.3,256.5 387.6,256.3 389.8,256.1 392.0,255.9 394.2,255.8 396.4,255.7 400.9,255.6 403.1,254.8 405.3,254.2 407.6,254.0 409.8,254.0 414.2,253.9 416.4,253.8 425.3,253.7 429.8,253.6 436.4,253.6 438.7,252.6 440.9,251.7 443.1,251.4 445.3,250.6 447.6,250.0 449.8,249.6 452.0,249.4 454.2,249.0 456.4,248.9 458.7,248.8 460.9,248.6 463.1,248.5 476.4,247.8 478.7,247.0 480.9,246.8 483.1,246.7 485.3,246.7 500.9,246.6 520.9,245.7 523.1,245.0 525.3,244.2 527.6,243.0 529.8,242.8 532.0,242.4 534.2,241.7 536.4,241.2 538.7,240.0 540.9,238.3 543.1,236.6 545.3,234.6 547.6,232.5 549.8,230.7 552.0,229.6 554.2,228.3 556.4,226.3 558.7,224.6 560.9,223.5 563.1,222.3 565.3,220.7 567.6,219.6 569.8,218.6 572.0,217.7 574.2,217.0 576.4,216.1 578.7,215.5 580.9,214.9 583.1,214.4 585.3,212.8 587.6,211.6 589.8,210.9 592.0,210.7 594.2,210.3 596.4,209.6 598.7,209.1 600.9,208.1 603.1,207.4 605.3,206.8 607.6,206.7 609.8,206.5 612.0,206.0 614.2,204.7 616.4,202.7 618.7,200.6 620.9,198.5 623.1,196.7 625.3,194.7 627.6,192.6 629.8,190.3 632.0,188.3 634.2,186.9 636.4,185.7 638.7,184.3 640.9,183.1 643.1,182.2 645.3,181.2 647.6,180.4 649.8,179.3 652.0,177.7 654.2,175.9 656.4,174.4 658.7,173.1 660.9,172.2 663.1,171.4 665.3,170.7 667.6,169.8 669.8,168.3 672.0,167.1 674.2,165.6 676.4,164.0 678.7,162.7 680.9,161.7 683.1,161.2 685.3,160.6 687.6,160.0 689.8,160.0 692.0,159.9 694.2,159.6 696.4,159.4 698.7,159.4 700.9,159.2 703.1,159.1 709.8,159.0 712.0,159.0 714.2,158.7 716.4,157.0 718.7,155.5 720.9,154.1 723.1,152.6 725.3,151.3 727.6,149.9 729.8,148.5 732.0,147.2 734.2,145.8 736.4,144.5 738.7,143.2 740.9,141.9 743.1,140.6 745.3,139.3 747.6,138.1 749.8,137.0 752.0,135.8 754.2,134.6 756.4,133.4 758.7,132.2 760.9,131.1 763.1,130.3 765.3,129.5 767.6,128.7 769.8,127.6 772.0,126.6 774.2,125.7 776.4,124.5 778.7,123.5 780.9,122.6 783.1,121.6 785.3,120.5 787.6,119.5 789.8,118.6 792.0,117.5 794.2,116.6 796.4,115.6 798.7,114.7 800.9,113.9 803.1,112.9 805.3,112.0 807.6,111.2 809.8,110.5 812.0,109.9 814.2,109.5 816.4,109.3 818.7,108.4 820.9,107.6 823.1,106.8 825.3,105.8 827.6,105.1 829.8,104.2 832.0,103.4 834.2,102.6 836.4,101.8 838.7,101.1 840.9,100.4 843.1,99.6 845.3,98.8 847.6,98.1 849.8,97.3 852.0,96.5 854.2,95.8 856.4,95.1 858.7,94.3 860.9,93.7 863.1,93.1 865.3,92.2 867.6,91.3 869.8,90.6 872.0,90.0 872.0,272.0" fill="#e0f2fe" opacity="0.55"/>
<polyline points="52.0,272.0 54.2,271.9 80.9,271.4 83.1,271.3 85.3,271.3 92.0,271.2 105.3,271.2 134.2,271.1 136.4,270.7 138.7,270.7 145.3,270.6 147.6,270.6 149.8,270.5 152.0,270.4 156.4,270.4 158.7,270.1 165.3,270.0 174.2,269.9 176.4,269.8 178.7,269.7 196.4,269.6 200.9,269.6 212.0,269.5 214.2,269.5 216.4,269.4 225.3,269.4 227.6,269.1 229.8,268.9 232.0,268.3 234.2,268.2 249.8,268.2 256.4,268.2 260.9,268.1 263.1,268.1 265.3,267.9 267.6,267.8 269.8,267.8 272.0,267.6 274.2,267.5 283.1,267.3 287.6,267.3 296.4,267.2 298.7,267.0 300.9,266.9 303.1,266.9 307.6,266.8 309.8,266.0 312.0,265.1 314.2,264.8 316.4,264.6 318.7,264.5 320.9,264.3 323.1,264.0 325.3,263.8 327.6,263.6 329.8,263.5 334.2,263.4 336.4,263.1 338.7,262.7 340.9,262.4 343.1,262.2 347.6,262.1 352.0,262.0 354.2,261.7 356.4,261.5 358.7,260.9 360.9,260.6 363.1,260.2 365.3,259.9 367.6,259.5 369.8,259.1 372.0,258.7 374.2,258.2 376.4,257.8 378.7,257.4 380.9,257.1 383.1,256.8 385.3,256.5 387.6,256.3 389.8,256.1 392.0,255.9 394.2,255.8 396.4,255.7 400.9,255.6 403.1,254.8 405.3,254.2 407.6,254.0 409.8,254.0 414.2,253.9 416.4,253.8 425.3,253.7 429.8,253.6 436.4,253.6 438.7,252.6 440.9,251.7 443.1,251.4 445.3,250.6 447.6,250.0 449.8,249.6 452.0,249.4 454.2,249.0 456.4,248.9 458.7,248.8 460.9,248.6 463.1,248.5 476.4,247.8 478.7,247.0 480.9,246.8 483.1,246.7 485.3,246.7 500.9,246.6 520.9,245.7 523.1,245.0 525.3,244.2 527.6,243.0 529.8,242.8 532.0,242.4 534.2,241.7 536.4,241.2 538.7,240.0 540.9,238.3 543.1,236.6 545.3,234.6 547.6,232.5 549.8,230.7 552.0,229.6 554.2,228.3 556.4,226.3 558.7,224.6 560.9,223.5 563.1,222.3 565.3,220.7 567.6,219.6 569.8,218.6 572.0,217.7 574.2,217.0 576.4,216.1 578.7,215.5 580.9,214.9 583.1,214.4 585.3,212.8 587.6,211.6 589.8,210.9 592.0,210.7 594.2,210.3 596.4,209.6 598.7,209.1 600.9,208.1 603.1,207.4 605.3,206.8 607.6,206.7 609.8,206.5 612.0,206.0 614.2,204.7 616.4,202.7 618.7,200.6 620.9,198.5 623.1,196.7 625.3,194.7 627.6,192.6 629.8,190.3 632.0,188.3 634.2,186.9 636.4,185.7 638.7,184.3 640.9,183.1 643.1,182.2 645.3,181.2 647.6,180.4 649.8,179.3 652.0,177.7 654.2,175.9 656.4,174.4 658.7,173.1 660.9,172.2 663.1,171.4 665.3,170.7 667.6,169.8 669.8,168.3 672.0,167.1 674.2,165.6 676.4,164.0 678.7,162.7 680.9,161.7 683.1,161.2 685.3,160.6 687.6,160.0 689.8,160.0 692.0,159.9 694.2,159.6 696.4,159.4 698.7,159.4 700.9,159.2 703.1,159.1 709.8,159.0 712.0,159.0 714.2,158.7 716.4,157.0 718.7,155.5 720.9,154.1 723.1,152.6 725.3,151.3 727.6,149.9 729.8,148.5 732.0,147.2 734.2,145.8 736.4,144.5 738.7,143.2 740.9,141.9 743.1,140.6 745.3,139.3 747.6,138.1 749.8,137.0 752.0,135.8 754.2,134.6 756.4,133.4 758.7,132.2 760.9,131.1 763.1,130.3 765.3,129.5 767.6,128.7 769.8,127.6 772.0,126.6 774.2,125.7 776.4,124.5 778.7,123.5 780.9,122.6 783.1,121.6 785.3,120.5 787.6,119.5 789.8,118.6 792.0,117.5 794.2,116.6 796.4,115.6 798.7,114.7 800.9,113.9 803.1,112.9 805.3,112.0 807.6,111.2 809.8,110.5 812.0,109.9 814.2,109.5 816.4,109.3 818.7,108.4 820.9,107.6 823.1,106.8 825.3,105.8 827.6,105.1 829.8,104.2 832.0,103.4 834.2,102.6 836.4,101.8 838.7,101.1 840.9,100.4 843.1,99.6 845.3,98.8 847.6,98.1 849.8,97.3 852.0,96.5 854.2,95.8 856.4,95.1 858.7,94.3 860.9,93.7 863.1,93.1 865.3,92.2 867.6,91.3 869.8,90.6 872.0,90.0" fill="none" stroke="#38bdf8" stroke-width="2.5" stroke-linejoin="round" stroke-linecap="round"/>
<circle cx="872.0" cy="90.0" r="4" fill="#0ea5e9"/>
<text x="866.0" y="80.0" text-anchor="end" font-family="Inter, system-ui, sans-serif" font-size="13" font-weight="700" fill="#334155">4215</text>
<text x="52.0" y="294" text-anchor="middle" font-family="Inter, system-ui, sans-serif" font-size="11" fill="#94a3b8">Jun 10 05:00</text>
<text x="572.0" y="294" text-anchor="middle" font-family="Inter, system-ui, sans-serif" font-size="11" fill="#94a3b8">Jun 19 23:00</text>
<text x="872.0" y="294" text-anchor="middle" font-family="Inter, system-ui, sans-serif" font-size="11" fill="#94a3b8">Jun 25 14:00</text>
</svg>
