<svg xmlns="http://www.w3.org/2000/svg" width="900" height="320" viewBox="0 0 900 320" role="img" aria-labelledby="title desc">
<title id="title">unsorry proofs over time</title>
<desc id="desc">Cumulative kernel-verified proofs over time, by the hour each proof was merged.</desc>
<rect width="900" height="100%" rx="18" fill="#ffffff"/>
<rect x="0.5" y="0.5" width="899" height="319" rx="18" fill="none" stroke="#e2e8f0"/>
<text x="32" y="44" font-family="Inter, system-ui, sans-serif" font-size="28" font-weight="700" fill="#334155">unsorry — Proofs Over Time</text>
<text x="32" y="72" font-family="Inter, system-ui, sans-serif" font-size="13" fill="#64748b">2820 cumulative kernel-verified proofs · merged, hourly</text>
<line x1="52" y1="272.0" x2="872" y2="272.0" stroke="#f1f5f9"/>
<text x="44" y="276.0" text-anchor="end" font-family="Inter, system-ui, sans-serif" font-size="11" fill="#94a3b8">0</text>
<line x1="52" y1="226.5" x2="872" y2="226.5" stroke="#f1f5f9"/>
<text x="44" y="230.5" text-anchor="end" font-family="Inter, system-ui, sans-serif" font-size="11" fill="#94a3b8">705</text>
<line x1="52" y1="181.0" x2="872" y2="181.0" stroke="#f1f5f9"/>
<text x="44" y="185.0" text-anchor="end" font-family="Inter, system-ui, sans-serif" font-size="11" fill="#94a3b8">1410</text>
<line x1="52" y1="135.5" x2="872" y2="135.5" stroke="#f1f5f9"/>
<text x="44" y="139.5" text-anchor="end" font-family="Inter, system-ui, sans-serif" font-size="11" fill="#94a3b8">2115</text>
<line x1="52" y1="90.0" x2="872" y2="90.0" stroke="#f1f5f9"/>
<text x="44" y="94.0" text-anchor="end" font-family="Inter, system-ui, sans-serif" font-size="11" fill="#94a3b8">2820</text>
<polygon points="52.0,272.0 52.0,271.9 54.7,271.8 87.1,271.2 89.8,271.0 92.5,270.9 100.6,270.8 116.7,270.8 151.8,270.7 154.5,270.1 157.2,270.1 165.3,269.9 168.0,269.9 170.7,269.8 173.4,269.6 178.8,269.5 181.5,269.2 189.6,269.0 200.4,268.8 203.1,268.6 205.8,268.5 227.3,268.5 232.7,268.4 246.2,268.3 248.9,268.3 251.6,268.1 262.4,268.1 265.1,267.7 267.8,267.4 270.5,266.5 273.2,266.4 292.1,266.3 300.2,266.3 305.6,266.2 308.2,266.1 310.9,265.8 313.6,265.7 316.3,265.7 319.0,265.5 321.7,265.3 332.5,265.0 337.9,264.9 348.7,264.8 351.4,264.5 354.1,264.4 356.8,264.3 362.2,264.3 364.9,263.0 367.6,261.7 370.3,261.2 373.0,260.9 375.7,260.8 378.4,260.4 381.1,260.0 383.8,259.7 386.5,259.5 389.2,259.4 394.6,259.2 397.3,258.6 400.0,258.1 402.7,257.6 405.4,257.3 410.8,257.2 416.1,257.1 418.8,256.6 421.5,256.3 424.2,255.4 426.9,254.9 429.6,254.4 432.3,253.9 435.0,253.3 437.7,252.7 440.4,252.1 443.1,251.3 445.8,250.7 448.5,250.1 451.2,249.7 453.9,249.3 456.6,248.8 459.3,248.5 462.0,248.2 464.7,247.9 467.4,247.7 470.1,247.6 475.5,247.5 478.2,246.2 480.9,245.3 483.6,245.2 486.3,245.1 491.7,245.0 494.4,244.8 505.2,244.7 510.6,244.6 518.6,244.5 521.3,243.0 524.0,241.6 526.7,241.2 529.4,240.1 532.1,239.1 534.8,238.6 537.5,238.2 540.2,237.7 542.9,237.4 545.6,237.3 548.3,237.0 551.0,236.9 567.2,235.9 569.9,234.6 572.6,234.4 575.3,234.2 578.0,234.1 596.9,234.1 621.1,232.7 623.8,231.7 626.5,230.4 629.2,228.6 631.9,228.3 634.6,227.7 637.3,226.7 640.0,225.9 642.7,224.2 645.4,221.6 648.1,219.1 650.8,216.1 653.5,213.0 656.2,210.3 658.9,208.6 661.6,206.6 664.3,203.7 667.0,201.1 669.7,199.5 672.4,197.7 675.1,195.3 677.8,193.7 680.5,192.2 683.2,190.8 685.9,189.8 688.6,188.4 691.3,187.6 694.0,186.7 696.7,185.9 699.4,183.6 702.1,181.7 704.8,180.7 707.5,180.4 710.2,179.8 712.9,178.8 715.6,178.0 718.2,176.4 720.9,175.4 723.6,174.5 726.3,174.4 729.0,174.0 731.7,173.3 734.4,171.4 737.1,168.4 739.8,165.3 742.5,162.1 745.2,159.5 747.9,156.5 750.6,153.2 753.3,150.0 756.0,146.9 758.7,144.7 761.4,143.0 764.1,141.0 766.8,139.0 769.5,137.8 772.2,136.2 774.9,135.0 777.6,133.4 780.3,131.1 783.0,128.4 785.7,126.1 788.4,124.1 791.1,122.9 793.8,121.7 796.5,120.5 799.2,119.2 801.9,117.0 804.6,115.2 807.3,112.9 810.0,110.6 812.7,108.7 815.4,107.1 818.1,106.5 820.8,105.6 823.4,104.7 826.1,104.5 828.8,104.4 831.5,103.9 834.2,103.7 836.9,103.7 839.6,103.4 842.3,103.2 850.4,103.2 853.1,103.1 855.8,102.7 858.5,100.1 861.2,97.8 863.9,95.8 866.6,93.5 869.3,91.5 872.0,90.0 872.0,272.0" fill="#e0f2fe" opacity="0.55"/>
<polyline points="52.0,271.9 54.7,271.8 87.1,271.2 89.8,271.0 92.5,270.9 100.6,270.8 116.7,270.8 151.8,270.7 154.5,270.1 157.2,270.1 165.3,269.9 168.0,269.9 170.7,269.8 173.4,269.6 178.8,269.5 181.5,269.2 189.6,269.0 200.4,268.8 203.1,268.6 205.8,268.5 227.3,268.5 232.7,268.4 246.2,268.3 248.9,268.3 251.6,268.1 262.4,268.1 265.1,267.7 267.8,267.4 270.5,266.5 273.2,266.4 292.1,266.3 300.2,266.3 305.6,266.2 308.2,266.1 310.9,265.8 313.6,265.7 316.3,265.7 319.0,265.5 321.7,265.3 332.5,265.0 337.9,264.9 348.7,264.8 351.4,264.5 354.1,264.4 356.8,264.3 362.2,264.3 364.9,263.0 367.6,261.7 370.3,261.2 373.0,260.9 375.7,260.8 378.4,260.4 381.1,260.0 383.8,259.7 386.5,259.5 389.2,259.4 394.6,259.2 397.3,258.6 400.0,258.1 402.7,257.6 405.4,257.3 410.8,257.2 416.1,257.1 418.8,256.6 421.5,256.3 424.2,255.4 426.9,254.9 429.6,254.4 432.3,253.9 435.0,253.3 437.7,252.7 440.4,252.1 443.1,251.3 445.8,250.7 448.5,250.1 451.2,249.7 453.9,249.3 456.6,248.8 459.3,248.5 462.0,248.2 464.7,247.9 467.4,247.7 470.1,247.6 475.5,247.5 478.2,246.2 480.9,245.3 483.6,245.2 486.3,245.1 491.7,245.0 494.4,244.8 505.2,244.7 510.6,244.6 518.6,244.5 521.3,243.0 524.0,241.6 526.7,241.2 529.4,240.1 532.1,239.1 534.8,238.6 537.5,238.2 540.2,237.7 542.9,237.4 545.6,237.3 548.3,237.0 551.0,236.9 567.2,235.9 569.9,234.6 572.6,234.4 575.3,234.2 578.0,234.1 596.9,234.1 621.1,232.7 623.8,231.7 626.5,230.4 629.2,228.6 631.9,228.3 634.6,227.7 637.3,226.7 640.0,225.9 642.7,224.2 645.4,221.6 648.1,219.1 650.8,216.1 653.5,213.0 656.2,210.3 658.9,208.6 661.6,206.6 664.3,203.7 667.0,201.1 669.7,199.5 672.4,197.7 675.1,195.3 677.8,193.7 680.5,192.2 683.2,190.8 685.9,189.8 688.6,188.4 691.3,187.6 694.0,186.7 696.7,185.9 699.4,183.6 702.1,181.7 704.8,180.7 707.5,180.4 710.2,179.8 712.9,178.8 715.6,178.0 718.2,176.4 720.9,175.4 723.6,174.5 726.3,174.4 729.0,174.0 731.7,173.3 734.4,171.4 737.1,168.4 739.8,165.3 742.5,162.1 745.2,159.5 747.9,156.5 750.6,153.2 753.3,150.0 756.0,146.9 758.7,144.7 761.4,143.0 764.1,141.0 766.8,139.0 769.5,137.8 772.2,136.2 774.9,135.0 777.6,133.4 780.3,131.1 783.0,128.4 785.7,126.1 788.4,124.1 791.1,122.9 793.8,121.7 796.5,120.5 799.2,119.2 801.9,117.0 804.6,115.2 807.3,112.9 810.0,110.6 812.7,108.7 815.4,107.1 818.1,106.5 820.8,105.6 823.4,104.7 826.1,104.5 828.8,104.4 831.5,103.9 834.2,103.7 836.9,103.7 839.6,103.4 842.3,103.2 850.4,103.2 853.1,103.1 855.8,102.7 858.5,100.1 861.2,97.8 863.9,95.8 866.6,93.5 869.3,91.5 872.0,90.0" fill="none" stroke="#38bdf8" stroke-width="2.5" stroke-linejoin="round" stroke-linecap="round"/>
<circle cx="872.0" cy="90.0" r="4" fill="#0ea5e9"/>
<text x="866.0" y="80.0" text-anchor="end" font-family="Inter, system-ui, sans-serif" font-size="13" font-weight="700" fill="#334155">2820</text>
<text x="52.0" y="294" text-anchor="middle" font-family="Inter, system-ui, sans-serif" font-size="11" fill="#94a3b8">Jun 10 05:00</text>
<text x="542.9" y="294" text-anchor="middle" font-family="Inter, system-ui, sans-serif" font-size="11" fill="#94a3b8">Jun 17 19:00</text>
<text x="872.0" y="294" text-anchor="middle" font-family="Inter, system-ui, sans-serif" font-size="11" fill="#94a3b8">Jun 22 21:00</text>
</svg>
