<svg xmlns="http://www.w3.org/2000/svg" width="900" height="320" viewBox="0 0 900 320" role="img" aria-labelledby="title desc">
<title id="title">unsorry proofs over time</title>
<desc id="desc">Cumulative kernel-verified proofs over time, by the hour each proof was merged.</desc>
<rect width="900" height="100%" rx="18" fill="#ffffff"/>
<rect x="0.5" y="0.5" width="899" height="319" rx="18" fill="none" stroke="#e2e8f0"/>
<text x="32" y="44" font-family="Inter, system-ui, sans-serif" font-size="28" font-weight="700" fill="#334155">unsorry — Proofs Over Time</text>
<text x="32" y="72" font-family="Inter, system-ui, sans-serif" font-size="13" fill="#64748b">4425 cumulative kernel-verified proofs · merged, hourly</text>
<line x1="52" y1="272.0" x2="872" y2="272.0" stroke="#f1f5f9"/>
<text x="44" y="276.0" text-anchor="end" font-family="Inter, system-ui, sans-serif" font-size="11" fill="#94a3b8">0</text>
<line x1="52" y1="226.5" x2="872" y2="226.5" stroke="#f1f5f9"/>
<text x="44" y="230.5" text-anchor="end" font-family="Inter, system-ui, sans-serif" font-size="11" fill="#94a3b8">1106</text>
<line x1="52" y1="181.0" x2="872" y2="181.0" stroke="#f1f5f9"/>
<text x="44" y="185.0" text-anchor="end" font-family="Inter, system-ui, sans-serif" font-size="11" fill="#94a3b8">2212</text>
<line x1="52" y1="135.5" x2="872" y2="135.5" stroke="#f1f5f9"/>
<text x="44" y="139.5" text-anchor="end" font-family="Inter, system-ui, sans-serif" font-size="11" fill="#94a3b8">3319</text>
<line x1="52" y1="90.0" x2="872" y2="90.0" stroke="#f1f5f9"/>
<text x="44" y="94.0" text-anchor="end" font-family="Inter, system-ui, sans-serif" font-size="11" fill="#94a3b8">4425</text>
<polygon points="52.0,272.0 52.0,272.0 54.1,271.9 79.9,271.5 82.1,271.3 84.2,271.3 90.6,271.3 103.5,271.2 131.4,271.2 133.6,270.8 135.7,270.8 142.2,270.7 144.3,270.6 146.5,270.6 148.6,270.5 152.9,270.4 155.0,270.2 161.5,270.1 170.1,270.0 172.2,269.9 174.4,269.8 191.5,269.7 195.8,269.7 206.6,269.7 208.7,269.6 210.8,269.5 219.4,269.5 221.6,269.2 223.7,269.0 225.9,268.5 228.0,268.4 243.0,268.4 249.5,268.3 253.8,268.3 255.9,268.3 258.1,268.1 260.2,268.0 262.4,268.0 264.5,267.8 266.7,267.7 275.2,267.5 279.5,267.5 288.1,267.4 290.3,267.2 292.4,267.2 294.6,267.1 298.9,267.1 301.0,266.2 303.2,265.4 305.3,265.1 307.4,264.9 309.6,264.8 311.7,264.6 313.9,264.3 316.0,264.1 318.2,264.0 320.3,263.9 324.6,263.8 326.8,263.5 328.9,263.2 331.1,262.8 333.2,262.6 337.5,262.5 341.8,262.5 343.9,262.2 346.1,262.0 348.2,261.4 350.4,261.1 352.5,260.8 354.7,260.4 356.8,260.1 359.0,259.7 361.1,259.3 363.3,258.8 365.4,258.4 367.5,258.1 369.7,257.8 371.8,257.5 374.0,257.2 376.1,257.0 378.3,256.8 380.4,256.6 382.6,256.5 384.7,256.5 389.0,256.4 391.2,255.6 393.3,255.0 395.5,254.9 397.6,254.8 401.9,254.8 404.0,254.6 412.6,254.6 416.9,254.5 423.4,254.5 425.5,253.5 427.7,252.6 429.8,252.4 431.9,251.6 434.1,251.1 436.2,250.7 438.4,250.5 440.5,250.1 442.7,250.0 444.8,249.9 447.0,249.7 449.1,249.6 462.0,249.0 464.1,248.1 466.3,248.0 468.4,247.9 470.6,247.9 485.6,247.8 504.9,247.0 507.1,246.3 509.2,245.5 511.4,244.4 513.5,244.2 515.7,243.8 517.8,243.1 520.0,242.6 522.1,241.5 524.3,239.9 526.4,238.3 528.5,236.4 530.7,234.4 532.8,232.7 535.0,231.6 537.1,230.3 539.3,228.4 541.4,226.8 543.6,225.8 545.7,224.7 547.9,223.1 550.0,222.1 552.2,221.1 554.3,220.3 556.5,219.6 558.6,218.7 560.7,218.2 562.9,217.6 565.0,217.1 567.2,215.7 569.3,214.5 571.5,213.8 573.6,213.6 575.8,213.2 577.9,212.6 580.1,212.1 582.2,211.1 584.4,210.5 586.5,209.9 588.6,209.8 590.8,209.6 592.9,209.1 595.1,207.9 597.2,206.0 599.4,204.0 601.5,202.0 603.7,200.3 605.8,198.4 608.0,196.3 610.1,194.2 612.3,192.3 614.4,190.9 616.6,189.8 618.7,188.5 620.8,187.3 623.0,186.4 625.1,185.5 627.3,184.7 629.4,183.7 631.6,182.2 633.7,180.5 635.9,179.0 638.0,177.8 640.2,176.9 642.3,176.2 644.5,175.5 646.6,174.6 648.8,173.2 650.9,172.1 653.0,170.6 655.2,169.1 657.3,167.9 659.5,166.9 661.6,166.5 663.8,165.9 665.9,165.4 668.1,165.3 670.2,165.2 672.4,164.9 674.5,164.8 676.7,164.7 678.8,164.5 681.0,164.4 687.4,164.4 689.5,164.4 691.7,164.1 693.8,162.4 696.0,161.0 698.1,159.7 700.3,158.3 702.4,157.0 704.6,155.7 706.7,154.4 708.9,153.1 711.0,151.8 713.2,150.5 715.3,149.3 717.4,148.0 719.6,146.8 721.7,145.6 723.9,144.4 726.0,143.4 728.2,142.2 730.3,141.1 732.5,139.9 734.6,138.9 736.8,137.8 738.9,137.0 741.1,136.3 743.2,135.5 745.4,134.5 747.5,133.5 749.6,132.6 751.8,131.5 753.9,130.6 756.1,129.7 758.2,128.7 760.4,127.7 762.5,126.8 764.7,125.9 766.8,124.8 769.0,124.0 771.1,123.0 773.3,122.2 775.4,121.4 777.5,120.5 779.7,119.6 781.8,118.8 784.0,118.2 786.1,117.6 788.3,117.2 790.4,117.1 792.6,116.2 794.7,115.4 796.9,114.6 799.0,113.7 801.2,113.0 803.3,112.2 805.5,111.4 807.6,110.6 809.7,109.9 811.9,109.2 814.0,108.5 816.2,107.8 818.3,107.0 820.5,106.3 822.6,105.6 824.8,104.8 826.9,104.1 829.1,103.5 831.2,102.7 833.4,102.1 835.5,101.6 837.7,100.7 839.8,99.9 841.9,99.2 844.1,98.4 846.2,97.7 848.4,97.1 850.5,96.5 852.7,95.6 854.8,95.1 857.0,94.6 859.1,94.0 861.3,93.3 863.4,92.6 865.6,91.7 867.7,91.0 869.9,90.3 872.0,90.0 872.0,272.0" fill="#e0f2fe" opacity="0.55"/>
<polyline points="52.0,272.0 54.1,271.9 79.9,271.5 82.1,271.3 84.2,271.3 90.6,271.3 103.5,271.2 131.4,271.2 133.6,270.8 135.7,270.8 142.2,270.7 144.3,270.6 146.5,270.6 148.6,270.5 152.9,270.4 155.0,270.2 161.5,270.1 170.1,270.0 172.2,269.9 174.4,269.8 191.5,269.7 195.8,269.7 206.6,269.7 208.7,269.6 210.8,269.5 219.4,269.5 221.6,269.2 223.7,269.0 225.9,268.5 228.0,268.4 243.0,268.4 249.5,268.3 253.8,268.3 255.9,268.3 258.1,268.1 260.2,268.0 262.4,268.0 264.5,267.8 266.7,267.7 275.2,267.5 279.5,267.5 288.1,267.4 290.3,267.2 292.4,267.2 294.6,267.1 298.9,267.1 301.0,266.2 303.2,265.4 305.3,265.1 307.4,264.9 309.6,264.8 311.7,264.6 313.9,264.3 316.0,264.1 318.2,264.0 320.3,263.9 324.6,263.8 326.8,263.5 328.9,263.2 331.1,262.8 333.2,262.6 337.5,262.5 341.8,262.5 343.9,262.2 346.1,262.0 348.2,261.4 350.4,261.1 352.5,260.8 354.7,260.4 356.8,260.1 359.0,259.7 361.1,259.3 363.3,258.8 365.4,258.4 367.5,258.1 369.7,257.8 371.8,257.5 374.0,257.2 376.1,257.0 378.3,256.8 380.4,256.6 382.6,256.5 384.7,256.5 389.0,256.4 391.2,255.6 393.3,255.0 395.5,254.9 397.6,254.8 401.9,254.8 404.0,254.6 412.6,254.6 416.9,254.5 423.4,254.5 425.5,253.5 427.7,252.6 429.8,252.4 431.9,251.6 434.1,251.1 436.2,250.7 438.4,250.5 440.5,250.1 442.7,250.0 444.8,249.9 447.0,249.7 449.1,249.6 462.0,249.0 464.1,248.1 466.3,248.0 468.4,247.9 470.6,247.9 485.6,247.8 504.9,247.0 507.1,246.3 509.2,245.5 511.4,244.4 513.5,244.2 515.7,243.8 517.8,243.1 520.0,242.6 522.1,241.5 524.3,239.9 526.4,238.3 528.5,236.4 530.7,234.4 532.8,232.7 535.0,231.6 537.1,230.3 539.3,228.4 541.4,226.8 543.6,225.8 545.7,224.7 547.9,223.1 550.0,222.1 552.2,221.1 554.3,220.3 556.5,219.6 558.6,218.7 560.7,218.2 562.9,217.6 565.0,217.1 567.2,215.7 569.3,214.5 571.5,213.8 573.6,213.6 575.8,213.2 577.9,212.6 580.1,212.1 582.2,211.1 584.4,210.5 586.5,209.9 588.6,209.8 590.8,209.6 592.9,209.1 595.1,207.9 597.2,206.0 599.4,204.0 601.5,202.0 603.7,200.3 605.8,198.4 608.0,196.3 610.1,194.2 612.3,192.3 614.4,190.9 616.6,189.8 618.7,188.5 620.8,187.3 623.0,186.4 625.1,185.5 627.3,184.7 629.4,183.7 631.6,182.2 633.7,180.5 635.9,179.0 638.0,177.8 640.2,176.9 642.3,176.2 644.5,175.5 646.6,174.6 648.8,173.2 650.9,172.1 653.0,170.6 655.2,169.1 657.3,167.9 659.5,166.9 661.6,166.5 663.8,165.9 665.9,165.4 668.1,165.3 670.2,165.2 672.4,164.9 674.5,164.8 676.7,164.7 678.8,164.5 681.0,164.4 687.4,164.4 689.5,164.4 691.7,164.1 693.8,162.4 696.0,161.0 698.1,159.7 700.3,158.3 702.4,157.0 704.6,155.7 706.7,154.4 708.9,153.1 711.0,151.8 713.2,150.5 715.3,149.3 717.4,148.0 719.6,146.8 721.7,145.6 723.9,144.4 726.0,143.4 728.2,142.2 730.3,141.1 732.5,139.9 734.6,138.9 736.8,137.8 738.9,137.0 741.1,136.3 743.2,135.5 745.4,134.5 747.5,133.5 749.6,132.6 751.8,131.5 753.9,130.6 756.1,129.7 758.2,128.7 760.4,127.7 762.5,126.8 764.7,125.9 766.8,124.8 769.0,124.0 771.1,123.0 773.3,122.2 775.4,121.4 777.5,120.5 779.7,119.6 781.8,118.8 784.0,118.2 786.1,117.6 788.3,117.2 790.4,117.1 792.6,116.2 794.7,115.4 796.9,114.6 799.0,113.7 801.2,113.0 803.3,112.2 805.5,111.4 807.6,110.6 809.7,109.9 811.9,109.2 814.0,108.5 816.2,107.8 818.3,107.0 820.5,106.3 822.6,105.6 824.8,104.8 826.9,104.1 829.1,103.5 831.2,102.7 833.4,102.1 835.5,101.6 837.7,100.7 839.8,99.9 841.9,99.2 844.1,98.4 846.2,97.7 848.4,97.1 850.5,96.5 852.7,95.6 854.8,95.1 857.0,94.6 859.1,94.0 861.3,93.3 863.4,92.6 865.6,91.7 867.7,91.0 869.9,90.3 872.0,90.0" fill="none" stroke="#38bdf8" stroke-width="2.5" stroke-linejoin="round" stroke-linecap="round"/>
<circle cx="872.0" cy="90.0" r="4" fill="#0ea5e9"/>
<text x="866.0" y="80.0" text-anchor="end" font-family="Inter, system-ui, sans-serif" font-size="13" font-weight="700" fill="#334155">4425</text>
<text x="52.0" y="294" text-anchor="middle" font-family="Inter, system-ui, sans-serif" font-size="11" fill="#94a3b8">Jun 10 05:00</text>
<text x="567.2" y="294" text-anchor="middle" font-family="Inter, system-ui, sans-serif" font-size="11" fill="#94a3b8">Jun 20 05:00</text>
<text x="872.0" y="294" text-anchor="middle" font-family="Inter, system-ui, sans-serif" font-size="11" fill="#94a3b8">Jun 26 03:00</text>
</svg>
