<svg xmlns="http://www.w3.org/2000/svg" width="900" height="320" viewBox="0 0 900 320" role="img" aria-labelledby="title desc">
<title id="title">unsorry proofs over time</title>
<desc id="desc">Cumulative kernel-verified proofs over time, by the hour each proof was merged.</desc>
<rect width="900" height="100%" rx="18" fill="#ffffff"/>
<rect x="0.5" y="0.5" width="899" height="319" rx="18" fill="none" stroke="#e2e8f0"/>
<text x="32" y="44" font-family="Inter, system-ui, sans-serif" font-size="28" font-weight="700" fill="#334155">unsorry — Proofs Over Time</text>
<text x="32" y="72" font-family="Inter, system-ui, sans-serif" font-size="13" fill="#64748b">4344 cumulative kernel-verified proofs · merged, hourly</text>
<line x1="52" y1="272.0" x2="872" y2="272.0" stroke="#f1f5f9"/>
<text x="44" y="276.0" text-anchor="end" font-family="Inter, system-ui, sans-serif" font-size="11" fill="#94a3b8">0</text>
<line x1="52" y1="226.5" x2="872" y2="226.5" stroke="#f1f5f9"/>
<text x="44" y="230.5" text-anchor="end" font-family="Inter, system-ui, sans-serif" font-size="11" fill="#94a3b8">1086</text>
<line x1="52" y1="181.0" x2="872" y2="181.0" stroke="#f1f5f9"/>
<text x="44" y="185.0" text-anchor="end" font-family="Inter, system-ui, sans-serif" font-size="11" fill="#94a3b8">2172</text>
<line x1="52" y1="135.5" x2="872" y2="135.5" stroke="#f1f5f9"/>
<text x="44" y="139.5" text-anchor="end" font-family="Inter, system-ui, sans-serif" font-size="11" fill="#94a3b8">3258</text>
<line x1="52" y1="90.0" x2="872" y2="90.0" stroke="#f1f5f9"/>
<text x="44" y="94.0" text-anchor="end" font-family="Inter, system-ui, sans-serif" font-size="11" fill="#94a3b8">4344</text>
<polygon points="52.0,272.0 52.0,272.0 54.2,271.9 80.3,271.5 82.5,271.3 84.6,271.3 91.2,271.2 104.2,271.2 132.5,271.2 134.7,270.8 136.8,270.7 143.4,270.7 145.5,270.6 147.7,270.6 149.9,270.4 154.2,270.4 156.4,270.2 162.9,270.0 171.6,269.9 173.8,269.8 176.0,269.7 193.4,269.7 197.7,269.7 208.6,269.6 210.8,269.6 213.0,269.5 221.7,269.4 223.8,269.2 226.0,269.0 228.2,268.4 230.4,268.4 245.6,268.3 252.1,268.3 256.5,268.2 258.6,268.2 260.8,268.0 263.0,267.9 265.2,267.9 267.3,267.8 269.5,267.6 278.2,267.4 282.6,267.4 291.3,267.3 293.4,267.1 295.6,267.1 297.8,267.0 302.1,267.0 304.3,266.1 306.5,265.3 308.7,265.0 310.8,264.8 313.0,264.7 315.2,264.5 317.4,264.2 319.5,264.0 321.7,263.9 323.9,263.8 328.2,263.7 330.4,263.3 332.6,263.0 334.8,262.7 336.9,262.4 341.3,262.4 345.6,262.3 347.8,262.0 350.0,261.8 352.2,261.2 354.3,260.9 356.5,260.6 358.7,260.2 360.9,259.8 363.0,259.5 365.2,259.1 367.4,258.6 369.6,258.2 371.7,257.8 373.9,257.5 376.1,257.3 378.3,256.9 380.4,256.7 382.6,256.5 384.8,256.3 387.0,256.2 389.1,256.2 393.5,256.1 395.7,255.3 397.8,254.7 400.0,254.6 402.2,254.5 406.5,254.4 408.7,254.3 417.4,254.3 421.8,254.2 428.3,254.2 430.5,253.2 432.6,252.3 434.8,252.0 437.0,251.3 439.2,250.7 441.3,250.3 443.5,250.1 445.7,249.7 447.9,249.5 450.0,249.5 452.2,249.3 454.4,249.2 467.4,248.5 469.6,247.7 471.8,247.6 474.0,247.4 476.1,247.4 491.4,247.4 510.9,246.5 513.1,245.8 515.3,245.0 517.5,243.8 519.6,243.6 521.8,243.3 524.0,242.6 526.2,242.1 528.3,241.0 530.5,239.3 532.7,237.6 534.9,235.7 537.0,233.7 539.2,231.9 541.4,230.9 543.6,229.6 545.7,227.6 547.9,226.0 550.1,224.9 552.3,223.8 554.4,222.2 556.6,221.2 558.8,220.2 561.0,219.3 563.1,218.6 565.3,217.7 567.5,217.2 569.7,216.6 571.8,216.1 574.0,214.6 576.2,213.4 578.4,212.7 580.5,212.5 582.7,212.1 584.9,211.5 587.1,211.0 589.2,210.0 591.4,209.3 593.6,208.7 595.8,208.7 597.9,208.4 600.1,207.9 602.3,206.7 604.5,204.8 606.6,202.7 608.8,200.6 611.0,199.0 613.2,197.0 615.3,194.9 617.5,192.8 619.7,190.8 621.9,189.4 624.0,188.2 626.2,186.9 628.4,185.7 630.6,184.9 632.7,183.8 634.9,183.1 637.1,182.0 639.3,180.5 641.4,178.8 643.6,177.3 645.8,176.0 648.0,175.2 650.1,174.4 652.3,173.7 654.5,172.8 656.7,171.4 658.8,170.2 661.0,168.7 663.2,167.2 665.4,166.0 667.5,165.0 669.7,164.5 671.9,163.9 674.1,163.4 676.2,163.3 678.4,163.2 680.6,162.9 682.8,162.8 684.9,162.7 687.1,162.5 689.3,162.4 695.8,162.4 698.0,162.4 700.2,162.1 702.3,160.4 704.5,158.9 706.7,157.6 708.9,156.2 711.0,154.9 713.2,153.6 715.4,152.2 717.6,150.9 719.7,149.5 721.9,148.3 724.1,147.0 726.3,145.7 728.4,144.5 730.6,143.3 732.8,142.0 735.0,141.0 737.1,139.8 739.3,138.6 741.5,137.5 743.7,136.4 745.8,135.2 748.0,134.5 750.2,133.7 752.4,133.0 754.5,131.9 756.7,130.9 758.9,130.0 761.1,128.9 763.2,127.9 765.4,127.0 767.6,126.0 769.8,125.0 771.9,124.1 774.1,123.1 776.3,122.1 778.5,121.2 780.6,120.2 782.8,119.4 785.0,118.6 787.2,117.7 789.3,116.8 791.5,116.0 793.7,115.3 795.9,114.7 798.0,114.3 800.2,114.2 802.4,113.3 804.6,112.5 806.7,111.7 808.9,110.8 811.1,110.1 813.3,109.2 815.4,108.4 817.6,107.6 819.8,106.9 822.0,106.2 824.1,105.5 826.3,104.7 828.5,103.9 830.7,103.2 832.8,102.5 835.0,101.7 837.2,101.0 839.4,100.4 841.5,99.6 843.7,99.0 845.9,98.4 848.1,97.5 850.2,96.7 852.4,96.0 854.6,95.2 856.8,94.4 858.9,93.9 861.1,93.2 863.3,92.3 865.5,91.8 867.6,91.3 869.8,90.7 872.0,90.0 872.0,272.0" fill="#e0f2fe" opacity="0.55"/>
<polyline points="52.0,272.0 54.2,271.9 80.3,271.5 82.5,271.3 84.6,271.3 91.2,271.2 104.2,271.2 132.5,271.2 134.7,270.8 136.8,270.7 143.4,270.7 145.5,270.6 147.7,270.6 149.9,270.4 154.2,270.4 156.4,270.2 162.9,270.0 171.6,269.9 173.8,269.8 176.0,269.7 193.4,269.7 197.7,269.7 208.6,269.6 210.8,269.6 213.0,269.5 221.7,269.4 223.8,269.2 226.0,269.0 228.2,268.4 230.4,268.4 245.6,268.3 252.1,268.3 256.5,268.2 258.6,268.2 260.8,268.0 263.0,267.9 265.2,267.9 267.3,267.8 269.5,267.6 278.2,267.4 282.6,267.4 291.3,267.3 293.4,267.1 295.6,267.1 297.8,267.0 302.1,267.0 304.3,266.1 306.5,265.3 308.7,265.0 310.8,264.8 313.0,264.7 315.2,264.5 317.4,264.2 319.5,264.0 321.7,263.9 323.9,263.8 328.2,263.7 330.4,263.3 332.6,263.0 334.8,262.7 336.9,262.4 341.3,262.4 345.6,262.3 347.8,262.0 350.0,261.8 352.2,261.2 354.3,260.9 356.5,260.6 358.7,260.2 360.9,259.8 363.0,259.5 365.2,259.1 367.4,258.6 369.6,258.2 371.7,257.8 373.9,257.5 376.1,257.3 378.3,256.9 380.4,256.7 382.6,256.5 384.8,256.3 387.0,256.2 389.1,256.2 393.5,256.1 395.7,255.3 397.8,254.7 400.0,254.6 402.2,254.5 406.5,254.4 408.7,254.3 417.4,254.3 421.8,254.2 428.3,254.2 430.5,253.2 432.6,252.3 434.8,252.0 437.0,251.3 439.2,250.7 441.3,250.3 443.5,250.1 445.7,249.7 447.9,249.5 450.0,249.5 452.2,249.3 454.4,249.2 467.4,248.5 469.6,247.7 471.8,247.6 474.0,247.4 476.1,247.4 491.4,247.4 510.9,246.5 513.1,245.8 515.3,245.0 517.5,243.8 519.6,243.6 521.8,243.3 524.0,242.6 526.2,242.1 528.3,241.0 530.5,239.3 532.7,237.6 534.9,235.7 537.0,233.7 539.2,231.9 541.4,230.9 543.6,229.6 545.7,227.6 547.9,226.0 550.1,224.9 552.3,223.8 554.4,222.2 556.6,221.2 558.8,220.2 561.0,219.3 563.1,218.6 565.3,217.7 567.5,217.2 569.7,216.6 571.8,216.1 574.0,214.6 576.2,213.4 578.4,212.7 580.5,212.5 582.7,212.1 584.9,211.5 587.1,211.0 589.2,210.0 591.4,209.3 593.6,208.7 595.8,208.7 597.9,208.4 600.1,207.9 602.3,206.7 604.5,204.8 606.6,202.7 608.8,200.6 611.0,199.0 613.2,197.0 615.3,194.9 617.5,192.8 619.7,190.8 621.9,189.4 624.0,188.2 626.2,186.9 628.4,185.7 630.6,184.9 632.7,183.8 634.9,183.1 637.1,182.0 639.3,180.5 641.4,178.8 643.6,177.3 645.8,176.0 648.0,175.2 650.1,174.4 652.3,173.7 654.5,172.8 656.7,171.4 658.8,170.2 661.0,168.7 663.2,167.2 665.4,166.0 667.5,165.0 669.7,164.5 671.9,163.9 674.1,163.4 676.2,163.3 678.4,163.2 680.6,162.9 682.8,162.8 684.9,162.7 687.1,162.5 689.3,162.4 695.8,162.4 698.0,162.4 700.2,162.1 702.3,160.4 704.5,158.9 706.7,157.6 708.9,156.2 711.0,154.9 713.2,153.6 715.4,152.2 717.6,150.9 719.7,149.5 721.9,148.3 724.1,147.0 726.3,145.7 728.4,144.5 730.6,143.3 732.8,142.0 735.0,141.0 737.1,139.8 739.3,138.6 741.5,137.5 743.7,136.4 745.8,135.2 748.0,134.5 750.2,133.7 752.4,133.0 754.5,131.9 756.7,130.9 758.9,130.0 761.1,128.9 763.2,127.9 765.4,127.0 767.6,126.0 769.8,125.0 771.9,124.1 774.1,123.1 776.3,122.1 778.5,121.2 780.6,120.2 782.8,119.4 785.0,118.6 787.2,117.7 789.3,116.8 791.5,116.0 793.7,115.3 795.9,114.7 798.0,114.3 800.2,114.2 802.4,113.3 804.6,112.5 806.7,111.7 808.9,110.8 811.1,110.1 813.3,109.2 815.4,108.4 817.6,107.6 819.8,106.9 822.0,106.2 824.1,105.5 826.3,104.7 828.5,103.9 830.7,103.2 832.8,102.5 835.0,101.7 837.2,101.0 839.4,100.4 841.5,99.6 843.7,99.0 845.9,98.4 848.1,97.5 850.2,96.7 852.4,96.0 854.6,95.2 856.8,94.4 858.9,93.9 861.1,93.2 863.3,92.3 865.5,91.8 867.6,91.3 869.8,90.7 872.0,90.0" fill="none" stroke="#38bdf8" stroke-width="2.5" stroke-linejoin="round" stroke-linecap="round"/>
<circle cx="872.0" cy="90.0" r="4" fill="#0ea5e9"/>
<text x="866.0" y="80.0" text-anchor="end" font-family="Inter, system-ui, sans-serif" font-size="13" font-weight="700" fill="#334155">4344</text>
<text x="52.0" y="294" text-anchor="middle" font-family="Inter, system-ui, sans-serif" font-size="11" fill="#94a3b8">Jun 10 05:00</text>
<text x="569.7" y="294" text-anchor="middle" font-family="Inter, system-ui, sans-serif" font-size="11" fill="#94a3b8">Jun 20 03:00</text>
<text x="872.0" y="294" text-anchor="middle" font-family="Inter, system-ui, sans-serif" font-size="11" fill="#94a3b8">Jun 25 22:00</text>
</svg>
