<svg xmlns="http://www.w3.org/2000/svg" width="900" height="320" viewBox="0 0 900 320" role="img" aria-labelledby="title desc">
<title id="title">unsorry proofs over time</title>
<desc id="desc">Cumulative kernel-verified proofs over time, by the hour each proof was merged.</desc>
<rect width="900" height="100%" rx="18" fill="#ffffff"/>
<rect x="0.5" y="0.5" width="899" height="319" rx="18" fill="none" stroke="#e2e8f0"/>
<text x="32" y="44" font-family="Inter, system-ui, sans-serif" font-size="28" font-weight="700" fill="#334155">unsorry — Proofs Over Time</text>
<text x="32" y="72" font-family="Inter, system-ui, sans-serif" font-size="13" fill="#64748b">3266 cumulative kernel-verified proofs · merged, hourly</text>
<line x1="52" y1="272.0" x2="872" y2="272.0" stroke="#f1f5f9"/>
<text x="44" y="276.0" text-anchor="end" font-family="Inter, system-ui, sans-serif" font-size="11" fill="#94a3b8">0</text>
<line x1="52" y1="226.5" x2="872" y2="226.5" stroke="#f1f5f9"/>
<text x="44" y="230.5" text-anchor="end" font-family="Inter, system-ui, sans-serif" font-size="11" fill="#94a3b8">816</text>
<line x1="52" y1="181.0" x2="872" y2="181.0" stroke="#f1f5f9"/>
<text x="44" y="185.0" text-anchor="end" font-family="Inter, system-ui, sans-serif" font-size="11" fill="#94a3b8">1633</text>
<line x1="52" y1="135.5" x2="872" y2="135.5" stroke="#f1f5f9"/>
<text x="44" y="139.5" text-anchor="end" font-family="Inter, system-ui, sans-serif" font-size="11" fill="#94a3b8">2450</text>
<line x1="52" y1="90.0" x2="872" y2="90.0" stroke="#f1f5f9"/>
<text x="44" y="94.0" text-anchor="end" font-family="Inter, system-ui, sans-serif" font-size="11" fill="#94a3b8">3266</text>
<polygon points="52.0,272.0 52.0,271.9 54.6,271.8 85.3,271.3 87.9,271.1 90.4,271.1 98.1,271.0 113.5,270.9 146.8,270.9 149.4,270.4 151.9,270.3 159.6,270.2 162.2,270.2 164.8,270.1 167.3,269.9 172.4,269.9 175.0,269.6 182.7,269.4 192.9,269.3 195.5,269.1 198.1,269.0 218.6,268.9 223.7,268.9 236.5,268.8 239.1,268.8 241.6,268.7 251.9,268.6 254.4,268.3 257.0,268.0 259.6,267.3 262.1,267.2 280.1,267.1 287.8,267.0 292.9,267.0 295.4,266.9 298.0,266.7 300.6,266.6 303.1,266.5 305.7,266.4 308.2,266.2 318.5,265.9 323.6,265.9 333.9,265.8 336.4,265.5 339.0,265.5 341.6,265.4 346.7,265.3 349.2,264.2 351.8,263.1 354.4,262.7 356.9,262.4 359.5,262.3 362.1,262.0 364.6,261.6 367.2,261.4 369.8,261.2 372.3,261.1 377.4,260.9 380.0,260.5 382.6,260.0 385.1,259.6 387.7,259.3 392.8,259.2 397.9,259.1 400.5,258.7 403.1,258.5 405.6,257.7 408.2,257.2 410.8,256.8 413.3,256.3 415.9,255.8 418.4,255.3 421.0,254.8 423.6,254.2 426.1,253.6 428.7,253.1 431.2,252.8 433.8,252.4 436.4,251.9 438.9,251.7 441.5,251.4 444.1,251.2 446.6,251.0 449.2,250.9 454.3,250.9 456.9,249.8 459.4,249.0 462.0,248.8 464.6,248.8 469.7,248.7 472.2,248.5 482.5,248.4 487.6,248.3 495.3,248.3 497.9,247.0 500.4,245.8 503.0,245.4 505.6,244.4 508.1,243.6 510.7,243.1 513.2,242.9 515.8,242.4 518.4,242.1 520.9,242.0 523.5,241.8 526.1,241.7 541.4,240.8 544.0,239.7 546.6,239.5 549.1,239.3 551.7,239.3 569.6,239.2 592.7,238.1 595.2,237.2 597.8,236.1 600.4,234.6 602.9,234.3 605.5,233.8 608.1,232.9 610.6,232.2 613.2,230.7 615.8,228.5 618.3,226.3 620.9,223.7 623.4,221.1 626.0,218.7 628.6,217.3 631.1,215.5 633.7,213.0 636.2,210.8 638.8,209.4 641.4,207.9 643.9,205.7 646.5,204.4 649.1,203.1 651.6,201.9 654.2,201.0 656.8,199.8 659.3,199.1 661.9,198.3 664.4,197.7 667.0,195.7 669.6,194.0 672.1,193.1 674.7,192.9 677.2,192.4 679.8,191.5 682.4,190.8 684.9,189.5 687.5,188.6 690.1,187.9 692.6,187.7 695.2,187.4 697.8,186.8 700.3,185.2 702.9,182.6 705.4,179.8 708.0,177.1 710.6,174.9 713.1,172.3 715.7,169.5 718.2,166.6 720.8,164.0 723.4,162.1 725.9,160.6 728.5,158.9 731.1,157.2 733.6,156.1 736.2,154.8 738.8,153.8 741.3,152.3 743.9,150.4 746.4,148.0 749.0,146.1 751.6,144.3 754.1,143.2 756.7,142.2 759.2,141.2 761.8,140.1 764.4,138.2 766.9,136.6 769.5,134.6 772.1,132.6 774.6,131.0 777.2,129.6 779.8,129.1 782.3,128.3 784.9,127.5 787.4,127.4 790.0,127.3 792.6,126.9 795.1,126.7 797.7,126.7 800.2,126.4 802.8,126.3 810.5,126.2 813.1,126.2 815.6,125.8 818.2,123.5 820.8,121.6 823.3,119.9 825.9,117.9 828.4,116.2 831.0,114.5 833.6,112.6 836.1,111.0 838.7,109.1 841.2,107.4 843.8,105.7 846.4,104.0 848.9,102.4 851.5,100.8 854.1,99.1 856.6,97.7 859.2,96.2 861.8,94.6 864.3,93.1 866.9,91.6 869.4,90.1 872.0,90.0 872.0,272.0" fill="#e0f2fe" opacity="0.55"/>
<polyline points="52.0,271.9 54.6,271.8 85.3,271.3 87.9,271.1 90.4,271.1 98.1,271.0 113.5,270.9 146.8,270.9 149.4,270.4 151.9,270.3 159.6,270.2 162.2,270.2 164.8,270.1 167.3,269.9 172.4,269.9 175.0,269.6 182.7,269.4 192.9,269.3 195.5,269.1 198.1,269.0 218.6,268.9 223.7,268.9 236.5,268.8 239.1,268.8 241.6,268.7 251.9,268.6 254.4,268.3 257.0,268.0 259.6,267.3 262.1,267.2 280.1,267.1 287.8,267.0 292.9,267.0 295.4,266.9 298.0,266.7 300.6,266.6 303.1,266.5 305.7,266.4 308.2,266.2 318.5,265.9 323.6,265.9 333.9,265.8 336.4,265.5 339.0,265.5 341.6,265.4 346.7,265.3 349.2,264.2 351.8,263.1 354.4,262.7 356.9,262.4 359.5,262.3 362.1,262.0 364.6,261.6 367.2,261.4 369.8,261.2 372.3,261.1 377.4,260.9 380.0,260.5 382.6,260.0 385.1,259.6 387.7,259.3 392.8,259.2 397.9,259.1 400.5,258.7 403.1,258.5 405.6,257.7 408.2,257.2 410.8,256.8 413.3,256.3 415.9,255.8 418.4,255.3 421.0,254.8 423.6,254.2 426.1,253.6 428.7,253.1 431.2,252.8 433.8,252.4 436.4,251.9 438.9,251.7 441.5,251.4 444.1,251.2 446.6,251.0 449.2,250.9 454.3,250.9 456.9,249.8 459.4,249.0 462.0,248.8 464.6,248.8 469.7,248.7 472.2,248.5 482.5,248.4 487.6,248.3 495.3,248.3 497.9,247.0 500.4,245.8 503.0,245.4 505.6,244.4 508.1,243.6 510.7,243.1 513.2,242.9 515.8,242.4 518.4,242.1 520.9,242.0 523.5,241.8 526.1,241.7 541.4,240.8 544.0,239.7 546.6,239.5 549.1,239.3 551.7,239.3 569.6,239.2 592.7,238.1 595.2,237.2 597.8,236.1 600.4,234.6 602.9,234.3 605.5,233.8 608.1,232.9 610.6,232.2 613.2,230.7 615.8,228.5 618.3,226.3 620.9,223.7 623.4,221.1 626.0,218.7 628.6,217.3 631.1,215.5 633.7,213.0 636.2,210.8 638.8,209.4 641.4,207.9 643.9,205.7 646.5,204.4 649.1,203.1 651.6,201.9 654.2,201.0 656.8,199.8 659.3,199.1 661.9,198.3 664.4,197.7 667.0,195.7 669.6,194.0 672.1,193.1 674.7,192.9 677.2,192.4 679.8,191.5 682.4,190.8 684.9,189.5 687.5,188.6 690.1,187.9 692.6,187.7 695.2,187.4 697.8,186.8 700.3,185.2 702.9,182.6 705.4,179.8 708.0,177.1 710.6,174.9 713.1,172.3 715.7,169.5 718.2,166.6 720.8,164.0 723.4,162.1 725.9,160.6 728.5,158.9 731.1,157.2 733.6,156.1 736.2,154.8 738.8,153.8 741.3,152.3 743.9,150.4 746.4,148.0 749.0,146.1 751.6,144.3 754.1,143.2 756.7,142.2 759.2,141.2 761.8,140.1 764.4,138.2 766.9,136.6 769.5,134.6 772.1,132.6 774.6,131.0 777.2,129.6 779.8,129.1 782.3,128.3 784.9,127.5 787.4,127.4 790.0,127.3 792.6,126.9 795.1,126.7 797.7,126.7 800.2,126.4 802.8,126.3 810.5,126.2 813.1,126.2 815.6,125.8 818.2,123.5 820.8,121.6 823.3,119.9 825.9,117.9 828.4,116.2 831.0,114.5 833.6,112.6 836.1,111.0 838.7,109.1 841.2,107.4 843.8,105.7 846.4,104.0 848.9,102.4 851.5,100.8 854.1,99.1 856.6,97.7 859.2,96.2 861.8,94.6 864.3,93.1 866.9,91.6 869.4,90.1 872.0,90.0" fill="none" stroke="#38bdf8" stroke-width="2.5" stroke-linejoin="round" stroke-linecap="round"/>
<circle cx="872.0" cy="90.0" r="4" fill="#0ea5e9"/>
<text x="866.0" y="80.0" text-anchor="end" font-family="Inter, system-ui, sans-serif" font-size="13" font-weight="700" fill="#334155">3266</text>
<text x="52.0" y="294" text-anchor="middle" font-family="Inter, system-ui, sans-serif" font-size="11" fill="#94a3b8">Jun 10 05:00</text>
<text x="551.7" y="294" text-anchor="middle" font-family="Inter, system-ui, sans-serif" font-size="11" fill="#94a3b8">Jun 18 08:00</text>
<text x="872.0" y="294" text-anchor="middle" font-family="Inter, system-ui, sans-serif" font-size="11" fill="#94a3b8">Jun 23 13:00</text>
</svg>
