<svg xmlns="http://www.w3.org/2000/svg" width="900" height="320" viewBox="0 0 900 320" role="img" aria-labelledby="title desc">
<title id="title">unsorry proofs over time</title>
<desc id="desc">Cumulative kernel-verified proofs over time, by the hour each proof was merged.</desc>
<rect width="900" height="100%" rx="18" fill="#ffffff"/>
<rect x="0.5" y="0.5" width="899" height="319" rx="18" fill="none" stroke="#e2e8f0"/>
<text x="32" y="44" font-family="Inter, system-ui, sans-serif" font-size="28" font-weight="700" fill="#334155">unsorry — Proofs Over Time</text>
<text x="32" y="72" font-family="Inter, system-ui, sans-serif" font-size="13" fill="#64748b">3370 cumulative kernel-verified proofs · merged, hourly</text>
<line x1="52" y1="272.0" x2="872" y2="272.0" stroke="#f1f5f9"/>
<text x="44" y="276.0" text-anchor="end" font-family="Inter, system-ui, sans-serif" font-size="11" fill="#94a3b8">0</text>
<line x1="52" y1="226.5" x2="872" y2="226.5" stroke="#f1f5f9"/>
<text x="44" y="230.5" text-anchor="end" font-family="Inter, system-ui, sans-serif" font-size="11" fill="#94a3b8">842</text>
<line x1="52" y1="181.0" x2="872" y2="181.0" stroke="#f1f5f9"/>
<text x="44" y="185.0" text-anchor="end" font-family="Inter, system-ui, sans-serif" font-size="11" fill="#94a3b8">1685</text>
<line x1="52" y1="135.5" x2="872" y2="135.5" stroke="#f1f5f9"/>
<text x="44" y="139.5" text-anchor="end" font-family="Inter, system-ui, sans-serif" font-size="11" fill="#94a3b8">2528</text>
<line x1="52" y1="90.0" x2="872" y2="90.0" stroke="#f1f5f9"/>
<text x="44" y="94.0" text-anchor="end" font-family="Inter, system-ui, sans-serif" font-size="11" fill="#94a3b8">3370</text>
<polygon points="52.0,272.0 52.0,271.9 54.5,271.8 84.8,271.3 87.3,271.1 89.8,271.1 97.4,271.0 112.6,271.0 145.4,270.9 147.9,270.4 150.4,270.4 158.0,270.3 160.5,270.2 163.0,270.2 165.5,270.0 170.6,269.9 173.1,269.7 180.7,269.5 190.8,269.4 193.3,269.2 195.8,269.1 216.0,269.0 221.0,269.0 233.7,268.9 236.2,268.9 238.7,268.8 248.8,268.7 251.3,268.4 253.8,268.1 256.4,267.4 258.9,267.3 276.6,267.2 284.1,267.2 289.2,267.1 291.7,267.1 294.2,266.8 296.7,266.8 299.3,266.7 301.8,266.5 304.3,266.4 314.4,266.1 319.4,266.1 329.5,266.0 332.1,265.7 334.6,265.7 337.1,265.6 342.2,265.5 344.7,264.4 347.2,263.4 349.7,263.0 352.2,262.7 354.8,262.6 357.3,262.3 359.8,262.0 362.3,261.7 364.9,261.5 367.4,261.4 372.4,261.3 375.0,260.8 377.5,260.4 380.0,260.0 382.5,259.7 387.6,259.6 392.6,259.5 395.1,259.1 397.7,258.9 400.2,258.1 402.7,257.7 405.2,257.3 407.8,256.8 410.3,256.3 412.8,255.9 415.3,255.3 417.8,254.7 420.4,254.2 422.9,253.7 425.4,253.4 427.9,253.0 430.5,252.6 433.0,252.3 435.5,252.1 438.0,251.8 440.6,251.7 443.1,251.6 448.1,251.5 450.6,250.5 453.2,249.7 455.7,249.5 458.2,249.5 463.3,249.4 465.8,249.2 475.9,249.2 480.9,249.0 488.5,249.0 491.0,247.8 493.5,246.6 496.1,246.2 498.6,245.3 501.1,244.5 503.6,244.0 506.2,243.8 508.7,243.3 511.2,243.1 513.7,242.9 516.2,242.7 518.8,242.6 533.9,241.8 536.4,240.7 539.0,240.5 541.5,240.4 544.0,240.3 561.7,240.2 584.4,239.1 586.9,238.2 589.4,237.2 591.9,235.7 594.5,235.4 597.0,235.0 599.5,234.1 602.0,233.4 604.6,232.0 607.1,229.8 609.6,227.7 612.1,225.2 614.6,222.6 617.2,220.4 619.7,219.0 622.2,217.3 624.7,214.8 627.3,212.7 629.8,211.3 632.3,209.8 634.8,207.8 637.4,206.5 639.9,205.2 642.4,204.1 644.9,203.2 647.4,202.1 650.0,201.4 652.5,200.6 655.0,200.0 657.5,198.0 660.1,196.4 662.6,195.6 665.1,195.3 667.6,194.8 670.2,194.0 672.7,193.3 675.2,192.0 677.7,191.2 680.2,190.5 682.8,190.3 685.3,190.0 687.8,189.4 690.3,187.9 692.9,185.3 695.4,182.7 697.9,180.0 700.4,177.9 703.0,175.3 705.5,172.6 708.0,169.9 710.5,167.3 713.0,165.5 715.6,164.0 718.1,162.4 720.6,160.7 723.1,159.7 725.7,158.4 728.2,157.4 730.7,156.0 733.2,154.1 735.8,151.8 738.3,149.9 740.8,148.3 743.3,147.2 745.8,146.2 748.4,145.2 750.9,144.2 753.4,142.3 755.9,140.8 758.5,138.9 761.0,136.9 763.5,135.3 766.0,134.0 768.6,133.5 771.1,132.7 773.6,132.0 776.1,131.9 778.6,131.7 781.2,131.4 783.7,131.2 786.2,131.2 788.7,130.9 791.3,130.8 798.8,130.7 801.4,130.7 803.9,130.3 806.4,128.1 808.9,126.2 811.4,124.6 814.0,122.7 816.5,121.0 819.0,119.3 821.5,117.5 824.1,115.9 826.6,114.1 829.1,112.5 831.6,110.8 834.2,109.2 836.7,107.7 839.2,106.0 841.7,104.5 844.2,103.1 846.8,101.6 849.3,100.1 851.8,98.6 854.3,97.2 856.9,95.7 859.4,94.8 861.9,93.8 864.4,92.8 867.0,91.4 869.5,90.2 872.0,90.0 872.0,272.0" fill="#e0f2fe" opacity="0.55"/>
<polyline points="52.0,271.9 54.5,271.8 84.8,271.3 87.3,271.1 89.8,271.1 97.4,271.0 112.6,271.0 145.4,270.9 147.9,270.4 150.4,270.4 158.0,270.3 160.5,270.2 163.0,270.2 165.5,270.0 170.6,269.9 173.1,269.7 180.7,269.5 190.8,269.4 193.3,269.2 195.8,269.1 216.0,269.0 221.0,269.0 233.7,268.9 236.2,268.9 238.7,268.8 248.8,268.7 251.3,268.4 253.8,268.1 256.4,267.4 258.9,267.3 276.6,267.2 284.1,267.2 289.2,267.1 291.7,267.1 294.2,266.8 296.7,266.8 299.3,266.7 301.8,266.5 304.3,266.4 314.4,266.1 319.4,266.1 329.5,266.0 332.1,265.7 334.6,265.7 337.1,265.6 342.2,265.5 344.7,264.4 347.2,263.4 349.7,263.0 352.2,262.7 354.8,262.6 357.3,262.3 359.8,262.0 362.3,261.7 364.9,261.5 367.4,261.4 372.4,261.3 375.0,260.8 377.5,260.4 380.0,260.0 382.5,259.7 387.6,259.6 392.6,259.5 395.1,259.1 397.7,258.9 400.2,258.1 402.7,257.7 405.2,257.3 407.8,256.8 410.3,256.3 412.8,255.9 415.3,255.3 417.8,254.7 420.4,254.2 422.9,253.7 425.4,253.4 427.9,253.0 430.5,252.6 433.0,252.3 435.5,252.1 438.0,251.8 440.6,251.7 443.1,251.6 448.1,251.5 450.6,250.5 453.2,249.7 455.7,249.5 458.2,249.5 463.3,249.4 465.8,249.2 475.9,249.2 480.9,249.0 488.5,249.0 491.0,247.8 493.5,246.6 496.1,246.2 498.6,245.3 501.1,244.5 503.6,244.0 506.2,243.8 508.7,243.3 511.2,243.1 513.7,242.9 516.2,242.7 518.8,242.6 533.9,241.8 536.4,240.7 539.0,240.5 541.5,240.4 544.0,240.3 561.7,240.2 584.4,239.1 586.9,238.2 589.4,237.2 591.9,235.7 594.5,235.4 597.0,235.0 599.5,234.1 602.0,233.4 604.6,232.0 607.1,229.8 609.6,227.7 612.1,225.2 614.6,222.6 617.2,220.4 619.7,219.0 622.2,217.3 624.7,214.8 627.3,212.7 629.8,211.3 632.3,209.8 634.8,207.8 637.4,206.5 639.9,205.2 642.4,204.1 644.9,203.2 647.4,202.1 650.0,201.4 652.5,200.6 655.0,200.0 657.5,198.0 660.1,196.4 662.6,195.6 665.1,195.3 667.6,194.8 670.2,194.0 672.7,193.3 675.2,192.0 677.7,191.2 680.2,190.5 682.8,190.3 685.3,190.0 687.8,189.4 690.3,187.9 692.9,185.3 695.4,182.7 697.9,180.0 700.4,177.9 703.0,175.3 705.5,172.6 708.0,169.9 710.5,167.3 713.0,165.5 715.6,164.0 718.1,162.4 720.6,160.7 723.1,159.7 725.7,158.4 728.2,157.4 730.7,156.0 733.2,154.1 735.8,151.8 738.3,149.9 740.8,148.3 743.3,147.2 745.8,146.2 748.4,145.2 750.9,144.2 753.4,142.3 755.9,140.8 758.5,138.9 761.0,136.9 763.5,135.3 766.0,134.0 768.6,133.5 771.1,132.7 773.6,132.0 776.1,131.9 778.6,131.7 781.2,131.4 783.7,131.2 786.2,131.2 788.7,130.9 791.3,130.8 798.8,130.7 801.4,130.7 803.9,130.3 806.4,128.1 808.9,126.2 811.4,124.6 814.0,122.7 816.5,121.0 819.0,119.3 821.5,117.5 824.1,115.9 826.6,114.1 829.1,112.5 831.6,110.8 834.2,109.2 836.7,107.7 839.2,106.0 841.7,104.5 844.2,103.1 846.8,101.6 849.3,100.1 851.8,98.6 854.3,97.2 856.9,95.7 859.4,94.8 861.9,93.8 864.4,92.8 867.0,91.4 869.5,90.2 872.0,90.0" fill="none" stroke="#38bdf8" stroke-width="2.5" stroke-linejoin="round" stroke-linecap="round"/>
<circle cx="872.0" cy="90.0" r="4" fill="#0ea5e9"/>
<text x="866.0" y="80.0" text-anchor="end" font-family="Inter, system-ui, sans-serif" font-size="13" font-weight="700" fill="#334155">3370</text>
<text x="52.0" y="294" text-anchor="middle" font-family="Inter, system-ui, sans-serif" font-size="11" fill="#94a3b8">Jun 10 05:00</text>
<text x="586.9" y="294" text-anchor="middle" font-family="Inter, system-ui, sans-serif" font-size="11" fill="#94a3b8">Jun 19 01:00</text>
<text x="872.0" y="294" text-anchor="middle" font-family="Inter, system-ui, sans-serif" font-size="11" fill="#94a3b8">Jun 23 18:00</text>
</svg>
