<svg xmlns="http://www.w3.org/2000/svg" width="900" height="320" viewBox="0 0 900 320" role="img" aria-labelledby="title desc">
<title id="title">unsorry proofs over time</title>
<desc id="desc">Cumulative kernel-verified proofs over time, by the hour each proof was merged.</desc>
<rect width="900" height="100%" rx="18" fill="#ffffff"/>
<rect x="0.5" y="0.5" width="899" height="319" rx="18" fill="none" stroke="#e2e8f0"/>
<text x="32" y="44" font-family="Inter, system-ui, sans-serif" font-size="28" font-weight="700" fill="#334155">unsorry — Proofs Over Time</text>
<text x="32" y="72" font-family="Inter, system-ui, sans-serif" font-size="13" fill="#64748b">4262 cumulative kernel-verified proofs · merged, hourly</text>
<line x1="52" y1="272.0" x2="872" y2="272.0" stroke="#f1f5f9"/>
<text x="44" y="276.0" text-anchor="end" font-family="Inter, system-ui, sans-serif" font-size="11" fill="#94a3b8">0</text>
<line x1="52" y1="226.5" x2="872" y2="226.5" stroke="#f1f5f9"/>
<text x="44" y="230.5" text-anchor="end" font-family="Inter, system-ui, sans-serif" font-size="11" fill="#94a3b8">1066</text>
<line x1="52" y1="181.0" x2="872" y2="181.0" stroke="#f1f5f9"/>
<text x="44" y="185.0" text-anchor="end" font-family="Inter, system-ui, sans-serif" font-size="11" fill="#94a3b8">2131</text>
<line x1="52" y1="135.5" x2="872" y2="135.5" stroke="#f1f5f9"/>
<text x="44" y="139.5" text-anchor="end" font-family="Inter, system-ui, sans-serif" font-size="11" fill="#94a3b8">3196</text>
<line x1="52" y1="90.0" x2="872" y2="90.0" stroke="#f1f5f9"/>
<text x="44" y="94.0" text-anchor="end" font-family="Inter, system-ui, sans-serif" font-size="11" fill="#94a3b8">4262</text>
<polygon points="52.0,272.0 52.0,272.0 54.2,271.9 80.7,271.4 82.9,271.3 85.1,271.3 91.7,271.2 104.9,271.2 133.6,271.1 135.8,270.8 138.0,270.7 144.6,270.6 146.8,270.6 149.0,270.5 151.2,270.4 155.6,270.4 157.8,270.2 164.4,270.0 173.2,269.9 175.4,269.8 177.6,269.7 195.3,269.7 199.7,269.6 210.7,269.6 212.9,269.5 215.1,269.4 223.9,269.4 226.1,269.1 228.3,268.9 230.5,268.4 232.8,268.3 248.2,268.2 254.8,268.2 259.2,268.2 261.4,268.1 263.6,267.9 265.8,267.9 268.0,267.8 270.2,267.7 272.4,267.6 281.2,267.3 285.7,267.3 294.5,267.3 296.7,267.0 298.9,267.0 301.1,266.9 305.5,266.9 307.7,266.0 309.9,265.2 312.1,264.9 314.3,264.7 316.5,264.6 318.7,264.4 320.9,264.1 323.1,263.8 325.3,263.7 327.5,263.6 331.9,263.5 334.2,263.2 336.4,262.8 338.6,262.5 340.8,262.3 345.2,262.2 349.6,262.1 351.8,261.8 354.0,261.6 356.2,261.0 358.4,260.7 360.6,260.3 362.8,260.0 365.0,259.6 367.2,259.2 369.4,258.8 371.6,258.3 373.8,257.9 376.0,257.5 378.2,257.3 380.4,257.0 382.6,256.6 384.8,256.5 387.1,256.2 389.3,256.0 391.5,255.9 393.7,255.9 398.1,255.8 400.3,255.0 402.5,254.4 404.7,254.2 406.9,254.2 411.3,254.1 413.5,254.0 422.3,253.9 426.7,253.9 433.3,253.8 435.5,252.8 437.8,251.9 440.0,251.6 442.2,250.9 444.4,250.3 446.6,249.9 448.8,249.7 451.0,249.3 453.2,249.1 455.4,249.0 457.6,248.9 459.8,248.8 473.0,248.1 475.2,247.2 477.4,247.1 479.6,247.0 481.8,246.9 497.3,246.9 517.1,246.0 519.3,245.3 521.5,244.5 523.7,243.3 525.9,243.1 528.1,242.7 530.3,242.0 532.5,241.5 534.7,240.4 536.9,238.6 539.2,237.0 541.4,235.0 543.6,233.0 545.8,231.2 548.0,230.1 550.2,228.7 552.4,226.8 554.6,225.1 556.8,224.0 559.0,222.8 561.2,221.2 563.4,220.2 565.6,219.2 567.8,218.3 570.0,217.6 572.2,216.7 574.4,216.1 576.6,215.5 578.8,215.0 581.0,213.5 583.2,212.3 585.4,211.6 587.6,211.4 589.8,211.0 592.1,210.3 594.3,209.8 596.5,208.8 598.7,208.1 600.9,207.5 603.1,207.4 605.3,207.2 607.5,206.7 609.7,205.5 611.9,203.5 614.1,201.4 616.3,199.3 618.5,197.6 620.7,195.6 622.9,193.4 625.1,191.2 627.3,189.2 629.5,187.8 631.7,186.6 633.9,185.3 636.1,184.0 638.3,183.2 640.5,182.2 642.8,181.4 645.0,180.3 647.2,178.8 649.4,177.0 651.6,175.5 653.8,174.2 656.0,173.3 658.2,172.5 660.4,171.8 662.6,170.9 664.8,169.5 667.0,168.2 669.2,166.7 671.4,165.2 673.6,163.9 675.8,162.9 678.0,162.5 680.2,161.9 682.4,161.3 684.6,161.2 686.8,161.1 689.0,160.8 691.2,160.7 693.5,160.6 695.7,160.4 697.9,160.3 704.5,160.3 706.7,160.2 708.9,160.0 711.1,158.2 713.3,156.7 715.5,155.4 717.7,153.9 719.9,152.6 722.1,151.3 724.3,149.9 726.5,148.6 728.7,147.2 730.9,145.9 733.1,144.6 735.3,143.3 737.5,142.1 739.7,140.8 741.9,139.5 744.2,138.5 746.4,137.3 748.6,136.1 750.8,134.9 753.0,133.8 755.2,132.6 757.4,131.8 759.6,131.1 761.8,130.3 764.0,129.2 766.2,128.2 768.4,127.3 770.6,126.1 772.8,125.1 775.0,124.2 777.2,123.2 779.4,122.2 781.6,121.2 783.8,120.3 786.0,119.2 788.2,118.3 790.4,117.3 792.6,116.5 794.8,115.7 797.1,114.7 799.3,113.8 801.5,113.0 803.7,112.3 805.9,111.7 808.1,111.3 810.3,111.1 812.5,110.2 814.7,109.4 816.9,108.6 819.1,107.7 821.3,107.0 823.5,106.1 825.7,105.3 827.9,104.5 830.1,103.7 832.3,103.0 834.5,102.3 836.7,101.5 838.9,100.7 841.1,100.0 843.3,99.2 845.5,98.5 847.8,97.7 850.0,97.1 852.2,96.2 854.4,95.6 856.6,95.0 858.8,94.1 861.0,93.3 863.2,92.6 865.4,91.8 867.6,91.0 869.8,90.4 872.0,90.0 872.0,272.0" fill="#e0f2fe" opacity="0.55"/>
<polyline points="52.0,272.0 54.2,271.9 80.7,271.4 82.9,271.3 85.1,271.3 91.7,271.2 104.9,271.2 133.6,271.1 135.8,270.8 138.0,270.7 144.6,270.6 146.8,270.6 149.0,270.5 151.2,270.4 155.6,270.4 157.8,270.2 164.4,270.0 173.2,269.9 175.4,269.8 177.6,269.7 195.3,269.7 199.7,269.6 210.7,269.6 212.9,269.5 215.1,269.4 223.9,269.4 226.1,269.1 228.3,268.9 230.5,268.4 232.8,268.3 248.2,268.2 254.8,268.2 259.2,268.2 261.4,268.1 263.6,267.9 265.8,267.9 268.0,267.8 270.2,267.7 272.4,267.6 281.2,267.3 285.7,267.3 294.5,267.3 296.7,267.0 298.9,267.0 301.1,266.9 305.5,266.9 307.7,266.0 309.9,265.2 312.1,264.9 314.3,264.7 316.5,264.6 318.7,264.4 320.9,264.1 323.1,263.8 325.3,263.7 327.5,263.6 331.9,263.5 334.2,263.2 336.4,262.8 338.6,262.5 340.8,262.3 345.2,262.2 349.6,262.1 351.8,261.8 354.0,261.6 356.2,261.0 358.4,260.7 360.6,260.3 362.8,260.0 365.0,259.6 367.2,259.2 369.4,258.8 371.6,258.3 373.8,257.9 376.0,257.5 378.2,257.3 380.4,257.0 382.6,256.6 384.8,256.5 387.1,256.2 389.3,256.0 391.5,255.9 393.7,255.9 398.1,255.8 400.3,255.0 402.5,254.4 404.7,254.2 406.9,254.2 411.3,254.1 413.5,254.0 422.3,253.9 426.7,253.9 433.3,253.8 435.5,252.8 437.8,251.9 440.0,251.6 442.2,250.9 444.4,250.3 446.6,249.9 448.8,249.7 451.0,249.3 453.2,249.1 455.4,249.0 457.6,248.9 459.8,248.8 473.0,248.1 475.2,247.2 477.4,247.1 479.6,247.0 481.8,246.9 497.3,246.9 517.1,246.0 519.3,245.3 521.5,244.5 523.7,243.3 525.9,243.1 528.1,242.7 530.3,242.0 532.5,241.5 534.7,240.4 536.9,238.6 539.2,237.0 541.4,235.0 543.6,233.0 545.8,231.2 548.0,230.1 550.2,228.7 552.4,226.8 554.6,225.1 556.8,224.0 559.0,222.8 561.2,221.2 563.4,220.2 565.6,219.2 567.8,218.3 570.0,217.6 572.2,216.7 574.4,216.1 576.6,215.5 578.8,215.0 581.0,213.5 583.2,212.3 585.4,211.6 587.6,211.4 589.8,211.0 592.1,210.3 594.3,209.8 596.5,208.8 598.7,208.1 600.9,207.5 603.1,207.4 605.3,207.2 607.5,206.7 609.7,205.5 611.9,203.5 614.1,201.4 616.3,199.3 618.5,197.6 620.7,195.6 622.9,193.4 625.1,191.2 627.3,189.2 629.5,187.8 631.7,186.6 633.9,185.3 636.1,184.0 638.3,183.2 640.5,182.2 642.8,181.4 645.0,180.3 647.2,178.8 649.4,177.0 651.6,175.5 653.8,174.2 656.0,173.3 658.2,172.5 660.4,171.8 662.6,170.9 664.8,169.5 667.0,168.2 669.2,166.7 671.4,165.2 673.6,163.9 675.8,162.9 678.0,162.5 680.2,161.9 682.4,161.3 684.6,161.2 686.8,161.1 689.0,160.8 691.2,160.7 693.5,160.6 695.7,160.4 697.9,160.3 704.5,160.3 706.7,160.2 708.9,160.0 711.1,158.2 713.3,156.7 715.5,155.4 717.7,153.9 719.9,152.6 722.1,151.3 724.3,149.9 726.5,148.6 728.7,147.2 730.9,145.9 733.1,144.6 735.3,143.3 737.5,142.1 739.7,140.8 741.9,139.5 744.2,138.5 746.4,137.3 748.6,136.1 750.8,134.9 753.0,133.8 755.2,132.6 757.4,131.8 759.6,131.1 761.8,130.3 764.0,129.2 766.2,128.2 768.4,127.3 770.6,126.1 772.8,125.1 775.0,124.2 777.2,123.2 779.4,122.2 781.6,121.2 783.8,120.3 786.0,119.2 788.2,118.3 790.4,117.3 792.6,116.5 794.8,115.7 797.1,114.7 799.3,113.8 801.5,113.0 803.7,112.3 805.9,111.7 808.1,111.3 810.3,111.1 812.5,110.2 814.7,109.4 816.9,108.6 819.1,107.7 821.3,107.0 823.5,106.1 825.7,105.3 827.9,104.5 830.1,103.7 832.3,103.0 834.5,102.3 836.7,101.5 838.9,100.7 841.1,100.0 843.3,99.2 845.5,98.5 847.8,97.7 850.0,97.1 852.2,96.2 854.4,95.6 856.6,95.0 858.8,94.1 861.0,93.3 863.2,92.6 865.4,91.8 867.6,91.0 869.8,90.4 872.0,90.0" fill="none" stroke="#38bdf8" stroke-width="2.5" stroke-linejoin="round" stroke-linecap="round"/>
<circle cx="872.0" cy="90.0" r="4" fill="#0ea5e9"/>
<text x="866.0" y="80.0" text-anchor="end" font-family="Inter, system-ui, sans-serif" font-size="13" font-weight="700" fill="#334155">4262</text>
<text x="52.0" y="294" text-anchor="middle" font-family="Inter, system-ui, sans-serif" font-size="11" fill="#94a3b8">Jun 10 05:00</text>
<text x="570.0" y="294" text-anchor="middle" font-family="Inter, system-ui, sans-serif" font-size="11" fill="#94a3b8">Jun 20 00:00</text>
<text x="872.0" y="294" text-anchor="middle" font-family="Inter, system-ui, sans-serif" font-size="11" fill="#94a3b8">Jun 25 17:00</text>
</svg>
