<svg xmlns="http://www.w3.org/2000/svg" width="900" height="320" viewBox="0 0 900 320" role="img" aria-labelledby="title desc">
<title id="title">unsorry proofs over time</title>
<desc id="desc">Cumulative kernel-verified proofs over time, by the hour each proof was merged.</desc>
<rect width="900" height="100%" rx="18" fill="#ffffff"/>
<rect x="0.5" y="0.5" width="899" height="319" rx="18" fill="none" stroke="#e2e8f0"/>
<text x="32" y="44" font-family="Inter, system-ui, sans-serif" font-size="28" font-weight="700" fill="#334155">unsorry — Proofs Over Time</text>
<text x="32" y="72" font-family="Inter, system-ui, sans-serif" font-size="13" fill="#64748b">4377 cumulative kernel-verified proofs · merged, hourly</text>
<line x1="52" y1="272.0" x2="872" y2="272.0" stroke="#f1f5f9"/>
<text x="44" y="276.0" text-anchor="end" font-family="Inter, system-ui, sans-serif" font-size="11" fill="#94a3b8">0</text>
<line x1="52" y1="226.5" x2="872" y2="226.5" stroke="#f1f5f9"/>
<text x="44" y="230.5" text-anchor="end" font-family="Inter, system-ui, sans-serif" font-size="11" fill="#94a3b8">1094</text>
<line x1="52" y1="181.0" x2="872" y2="181.0" stroke="#f1f5f9"/>
<text x="44" y="185.0" text-anchor="end" font-family="Inter, system-ui, sans-serif" font-size="11" fill="#94a3b8">2188</text>
<line x1="52" y1="135.5" x2="872" y2="135.5" stroke="#f1f5f9"/>
<text x="44" y="139.5" text-anchor="end" font-family="Inter, system-ui, sans-serif" font-size="11" fill="#94a3b8">3283</text>
<line x1="52" y1="90.0" x2="872" y2="90.0" stroke="#f1f5f9"/>
<text x="44" y="94.0" text-anchor="end" font-family="Inter, system-ui, sans-serif" font-size="11" fill="#94a3b8">4377</text>
<polygon points="52.0,272.0 52.0,272.0 54.2,271.9 80.1,271.5 82.3,271.3 84.5,271.3 90.9,271.3 103.9,271.2 132.1,271.2 134.2,270.8 136.4,270.8 142.9,270.7 145.0,270.6 147.2,270.6 149.4,270.5 153.7,270.4 155.9,270.2 162.3,270.0 171.0,270.0 173.2,269.8 175.3,269.8 192.6,269.7 197.0,269.7 207.8,269.6 209.9,269.6 212.1,269.5 220.8,269.5 222.9,269.2 225.1,269.0 227.3,268.5 229.4,268.4 244.6,268.3 251.1,268.3 255.4,268.3 257.5,268.2 259.7,268.0 261.9,268.0 264.0,267.9 266.2,267.8 268.4,267.7 277.0,267.5 281.3,267.4 290.0,267.4 292.2,267.2 294.3,267.1 296.5,267.1 300.8,267.0 303.0,266.2 305.1,265.3 307.3,265.1 309.5,264.8 311.6,264.8 313.8,264.6 316.0,264.3 318.1,264.1 320.3,263.9 322.4,263.9 326.8,263.7 328.9,263.4 331.1,263.1 333.3,262.7 335.4,262.5 339.8,262.4 344.1,262.4 346.2,262.1 348.4,261.9 350.6,261.3 352.7,261.0 354.9,260.6 357.1,260.3 359.2,259.9 361.4,259.6 363.6,259.2 365.7,258.7 367.9,258.3 370.0,257.9 372.2,257.7 374.4,257.4 376.5,257.0 378.7,256.9 380.9,256.7 383.0,256.4 385.2,256.4 387.4,256.3 391.7,256.2 393.8,255.4 396.0,254.8 398.2,254.7 400.3,254.7 404.7,254.6 406.8,254.5 415.5,254.4 419.8,254.3 426.3,254.3 428.5,253.3 430.6,252.4 432.8,252.2 435.0,251.4 437.1,250.8 439.3,250.5 441.4,250.3 443.6,249.9 445.8,249.7 447.9,249.6 450.1,249.5 452.3,249.4 465.2,248.7 467.4,247.9 469.6,247.8 471.7,247.6 473.9,247.6 489.0,247.6 508.5,246.7 510.7,246.0 512.8,245.2 515.0,244.1 517.2,243.8 519.3,243.5 521.5,242.8 523.7,242.3 525.8,241.2 528.0,239.5 530.2,237.9 532.3,236.0 534.5,234.0 536.6,232.2 538.8,231.2 541.0,229.9 543.1,228.0 545.3,226.3 547.5,225.3 549.6,224.1 551.8,222.6 554.0,221.6 556.1,220.6 558.3,219.7 560.4,219.0 562.6,218.2 564.8,217.6 566.9,217.0 569.1,216.5 571.3,215.0 573.4,213.8 575.6,213.2 577.8,213.0 579.9,212.6 582.1,212.0 584.2,211.4 586.4,210.4 588.6,209.8 590.7,209.2 592.9,209.1 595.1,208.9 597.2,208.4 599.4,207.2 601.6,205.3 603.7,203.2 605.9,201.2 608.0,199.5 610.2,197.6 612.4,195.5 614.5,193.4 616.7,191.4 618.9,190.0 621.0,188.9 623.2,187.6 625.4,186.3 627.5,185.5 629.7,184.5 631.8,183.8 634.0,182.7 636.2,181.2 638.3,179.5 640.5,178.0 642.7,176.7 644.8,175.9 647.0,175.2 649.2,174.4 651.3,173.6 653.5,172.2 655.6,171.0 657.8,169.5 660.0,168.0 662.1,166.8 664.3,165.8 666.5,165.3 668.6,164.8 670.8,164.2 672.9,164.1 675.1,164.0 677.3,163.7 679.4,163.6 681.6,163.6 683.8,163.3 685.9,163.3 692.4,163.2 694.6,163.2 696.7,162.9 698.9,161.2 701.1,159.8 703.2,158.5 705.4,157.0 707.6,155.7 709.7,154.5 711.9,153.1 714.1,151.8 716.2,150.5 718.4,149.2 720.5,147.9 722.7,146.7 724.9,145.5 727.0,144.2 729.2,143.0 731.4,142.0 733.5,140.8 735.7,139.6 737.9,138.5 740.0,137.4 742.2,136.3 744.3,135.5 746.5,134.8 748.7,134.0 750.8,133.0 753.0,132.0 755.2,131.1 757.3,130.0 759.5,129.0 761.7,128.1 763.8,127.1 766.0,126.1 768.1,125.2 770.3,124.3 772.5,123.2 774.6,122.4 776.8,121.4 779.0,120.6 781.1,119.8 783.3,118.8 785.5,117.9 787.6,117.2 789.8,116.5 791.9,115.9 794.1,115.5 796.3,115.4 798.4,114.5 800.6,113.7 802.8,112.9 804.9,112.0 807.1,111.3 809.3,110.5 811.4,109.7 813.6,108.9 815.7,108.1 817.9,107.4 820.1,106.7 822.2,106.0 824.4,105.2 826.6,104.5 828.7,103.8 830.9,103.0 833.1,102.3 835.2,101.7 837.4,100.9 839.5,100.3 841.7,99.7 843.9,98.8 846.0,98.0 848.2,97.3 850.4,96.5 852.5,95.8 854.7,95.2 856.9,94.5 859.0,93.7 861.2,93.1 863.3,92.7 865.5,92.0 867.7,91.3 869.8,90.6 872.0,90.0 872.0,272.0" fill="#e0f2fe" opacity="0.55"/>
<polyline points="52.0,272.0 54.2,271.9 80.1,271.5 82.3,271.3 84.5,271.3 90.9,271.3 103.9,271.2 132.1,271.2 134.2,270.8 136.4,270.8 142.9,270.7 145.0,270.6 147.2,270.6 149.4,270.5 153.7,270.4 155.9,270.2 162.3,270.0 171.0,270.0 173.2,269.8 175.3,269.8 192.6,269.7 197.0,269.7 207.8,269.6 209.9,269.6 212.1,269.5 220.8,269.5 222.9,269.2 225.1,269.0 227.3,268.5 229.4,268.4 244.6,268.3 251.1,268.3 255.4,268.3 257.5,268.2 259.7,268.0 261.9,268.0 264.0,267.9 266.2,267.8 268.4,267.7 277.0,267.5 281.3,267.4 290.0,267.4 292.2,267.2 294.3,267.1 296.5,267.1 300.8,267.0 303.0,266.2 305.1,265.3 307.3,265.1 309.5,264.8 311.6,264.8 313.8,264.6 316.0,264.3 318.1,264.1 320.3,263.9 322.4,263.9 326.8,263.7 328.9,263.4 331.1,263.1 333.3,262.7 335.4,262.5 339.8,262.4 344.1,262.4 346.2,262.1 348.4,261.9 350.6,261.3 352.7,261.0 354.9,260.6 357.1,260.3 359.2,259.9 361.4,259.6 363.6,259.2 365.7,258.7 367.9,258.3 370.0,257.9 372.2,257.7 374.4,257.4 376.5,257.0 378.7,256.9 380.9,256.7 383.0,256.4 385.2,256.4 387.4,256.3 391.7,256.2 393.8,255.4 396.0,254.8 398.2,254.7 400.3,254.7 404.7,254.6 406.8,254.5 415.5,254.4 419.8,254.3 426.3,254.3 428.5,253.3 430.6,252.4 432.8,252.2 435.0,251.4 437.1,250.8 439.3,250.5 441.4,250.3 443.6,249.9 445.8,249.7 447.9,249.6 450.1,249.5 452.3,249.4 465.2,248.7 467.4,247.9 469.6,247.8 471.7,247.6 473.9,247.6 489.0,247.6 508.5,246.7 510.7,246.0 512.8,245.2 515.0,244.1 517.2,243.8 519.3,243.5 521.5,242.8 523.7,242.3 525.8,241.2 528.0,239.5 530.2,237.9 532.3,236.0 534.5,234.0 536.6,232.2 538.8,231.2 541.0,229.9 543.1,228.0 545.3,226.3 547.5,225.3 549.6,224.1 551.8,222.6 554.0,221.6 556.1,220.6 558.3,219.7 560.4,219.0 562.6,218.2 564.8,217.6 566.9,217.0 569.1,216.5 571.3,215.0 573.4,213.8 575.6,213.2 577.8,213.0 579.9,212.6 582.1,212.0 584.2,211.4 586.4,210.4 588.6,209.8 590.7,209.2 592.9,209.1 595.1,208.9 597.2,208.4 599.4,207.2 601.6,205.3 603.7,203.2 605.9,201.2 608.0,199.5 610.2,197.6 612.4,195.5 614.5,193.4 616.7,191.4 618.9,190.0 621.0,188.9 623.2,187.6 625.4,186.3 627.5,185.5 629.7,184.5 631.8,183.8 634.0,182.7 636.2,181.2 638.3,179.5 640.5,178.0 642.7,176.7 644.8,175.9 647.0,175.2 649.2,174.4 651.3,173.6 653.5,172.2 655.6,171.0 657.8,169.5 660.0,168.0 662.1,166.8 664.3,165.8 666.5,165.3 668.6,164.8 670.8,164.2 672.9,164.1 675.1,164.0 677.3,163.7 679.4,163.6 681.6,163.6 683.8,163.3 685.9,163.3 692.4,163.2 694.6,163.2 696.7,162.9 698.9,161.2 701.1,159.8 703.2,158.5 705.4,157.0 707.6,155.7 709.7,154.5 711.9,153.1 714.1,151.8 716.2,150.5 718.4,149.2 720.5,147.9 722.7,146.7 724.9,145.5 727.0,144.2 729.2,143.0 731.4,142.0 733.5,140.8 735.7,139.6 737.9,138.5 740.0,137.4 742.2,136.3 744.3,135.5 746.5,134.8 748.7,134.0 750.8,133.0 753.0,132.0 755.2,131.1 757.3,130.0 759.5,129.0 761.7,128.1 763.8,127.1 766.0,126.1 768.1,125.2 770.3,124.3 772.5,123.2 774.6,122.4 776.8,121.4 779.0,120.6 781.1,119.8 783.3,118.8 785.5,117.9 787.6,117.2 789.8,116.5 791.9,115.9 794.1,115.5 796.3,115.4 798.4,114.5 800.6,113.7 802.8,112.9 804.9,112.0 807.1,111.3 809.3,110.5 811.4,109.7 813.6,108.9 815.7,108.1 817.9,107.4 820.1,106.7 822.2,106.0 824.4,105.2 826.6,104.5 828.7,103.8 830.9,103.0 833.1,102.3 835.2,101.7 837.4,100.9 839.5,100.3 841.7,99.7 843.9,98.8 846.0,98.0 848.2,97.3 850.4,96.5 852.5,95.8 854.7,95.2 856.9,94.5 859.0,93.7 861.2,93.1 863.3,92.7 865.5,92.0 867.7,91.3 869.8,90.6 872.0,90.0" fill="none" stroke="#38bdf8" stroke-width="2.5" stroke-linejoin="round" stroke-linecap="round"/>
<circle cx="872.0" cy="90.0" r="4" fill="#0ea5e9"/>
<text x="866.0" y="80.0" text-anchor="end" font-family="Inter, system-ui, sans-serif" font-size="13" font-weight="700" fill="#334155">4377</text>
<text x="52.0" y="294" text-anchor="middle" font-family="Inter, system-ui, sans-serif" font-size="11" fill="#94a3b8">Jun 10 05:00</text>
<text x="569.1" y="294" text-anchor="middle" font-family="Inter, system-ui, sans-serif" font-size="11" fill="#94a3b8">Jun 20 04:00</text>
<text x="872.0" y="294" text-anchor="middle" font-family="Inter, system-ui, sans-serif" font-size="11" fill="#94a3b8">Jun 26 00:00</text>
</svg>
