<svg xmlns="http://www.w3.org/2000/svg" width="900" height="320" viewBox="0 0 900 320" role="img" aria-labelledby="title desc">
<title id="title">unsorry proofs over time</title>
<desc id="desc">Cumulative kernel-verified proofs over time, by the hour each proof was merged.</desc>
<rect width="900" height="100%" rx="18" fill="#ffffff"/>
<rect x="0.5" y="0.5" width="899" height="319" rx="18" fill="none" stroke="#e2e8f0"/>
<text x="32" y="44" font-family="Inter, system-ui, sans-serif" font-size="28" font-weight="700" fill="#334155">unsorry — Proofs Over Time</text>
<text x="32" y="72" font-family="Inter, system-ui, sans-serif" font-size="13" fill="#64748b">3522 cumulative kernel-verified proofs · merged, hourly</text>
<line x1="52" y1="272.0" x2="872" y2="272.0" stroke="#f1f5f9"/>
<text x="44" y="276.0" text-anchor="end" font-family="Inter, system-ui, sans-serif" font-size="11" fill="#94a3b8">0</text>
<line x1="52" y1="226.5" x2="872" y2="226.5" stroke="#f1f5f9"/>
<text x="44" y="230.5" text-anchor="end" font-family="Inter, system-ui, sans-serif" font-size="11" fill="#94a3b8">880</text>
<line x1="52" y1="181.0" x2="872" y2="181.0" stroke="#f1f5f9"/>
<text x="44" y="185.0" text-anchor="end" font-family="Inter, system-ui, sans-serif" font-size="11" fill="#94a3b8">1761</text>
<line x1="52" y1="135.5" x2="872" y2="135.5" stroke="#f1f5f9"/>
<text x="44" y="139.5" text-anchor="end" font-family="Inter, system-ui, sans-serif" font-size="11" fill="#94a3b8">2642</text>
<line x1="52" y1="90.0" x2="872" y2="90.0" stroke="#f1f5f9"/>
<text x="44" y="94.0" text-anchor="end" font-family="Inter, system-ui, sans-serif" font-size="11" fill="#94a3b8">3522</text>
<polygon points="52.0,272.0 52.0,271.9 54.5,271.8 84.2,271.3 86.7,271.2 89.2,271.1 96.6,271.1 111.5,271.0 143.7,271.0 146.1,270.5 148.6,270.4 156.0,270.3 158.5,270.3 161.0,270.2 163.5,270.1 168.4,270.0 170.9,269.8 178.3,269.6 188.3,269.5 190.7,269.3 193.2,269.2 213.0,269.2 218.0,269.1 230.4,269.1 232.8,269.0 235.3,268.9 245.2,268.8 247.7,268.5 250.2,268.3 252.7,267.6 255.1,267.5 272.5,267.5 279.9,267.4 284.9,267.3 287.3,267.3 289.8,267.0 292.3,267.0 294.8,266.9 297.3,266.8 299.7,266.6 309.6,266.4 314.6,266.3 324.5,266.3 327.0,266.0 329.5,266.0 331.9,265.9 336.9,265.8 339.4,264.8 341.8,263.7 344.3,263.4 346.8,263.1 349.3,263.0 351.8,262.8 354.2,262.4 356.7,262.1 359.2,262.0 361.7,261.9 366.6,261.7 369.1,261.3 371.6,260.9 374.1,260.5 376.5,260.2 381.5,260.1 386.4,260.1 388.9,259.7 391.4,259.4 393.9,258.7 396.4,258.3 398.8,257.9 401.3,257.5 403.8,257.0 406.3,256.5 408.7,256.0 411.2,255.5 413.7,254.9 416.2,254.5 418.6,254.2 421.1,253.8 423.6,253.4 426.1,253.2 428.6,252.9 431.0,252.7 433.5,252.6 436.0,252.5 440.9,252.4 443.4,251.4 445.9,250.7 448.4,250.5 450.9,250.5 455.8,250.3 458.3,250.2 468.2,250.1 473.1,250.0 480.6,250.0 483.1,248.8 485.5,247.7 488.0,247.4 490.5,246.4 493.0,245.7 495.4,245.2 497.9,245.0 500.4,244.5 502.9,244.3 505.4,244.2 507.8,244.0 510.3,243.9 525.2,243.1 527.6,242.0 530.1,241.9 532.6,241.7 535.1,241.7 552.4,241.6 574.7,240.5 577.2,239.7 579.7,238.7 582.2,237.3 584.6,237.0 587.1,236.6 589.6,235.7 592.1,235.1 594.5,233.7 597.0,231.6 599.5,229.6 602.0,227.2 604.4,224.8 606.9,222.6 609.4,221.3 611.9,219.7 614.4,217.3 616.8,215.3 619.3,213.9 621.8,212.5 624.3,210.6 626.7,209.3 629.2,208.1 631.7,207.0 634.2,206.2 636.7,205.1 639.1,204.4 641.6,203.7 644.1,203.1 646.6,201.2 649.0,199.7 651.5,198.9 654.0,198.6 656.5,198.2 658.9,197.4 661.4,196.7 663.9,195.5 666.4,194.7 668.9,194.0 671.3,193.9 673.8,193.6 676.3,193.0 678.8,191.5 681.2,189.1 683.7,186.5 686.2,184.0 688.7,181.9 691.2,179.5 693.6,176.9 696.1,174.3 698.6,171.9 701.1,170.1 703.5,168.7 706.0,167.1 708.5,165.5 711.0,164.5 713.5,163.3 715.9,162.3 718.4,161.0 720.9,159.2 723.4,157.0 725.8,155.2 728.3,153.6 730.8,152.6 733.3,151.6 735.7,150.7 738.2,149.7 740.7,147.9 743.2,146.4 745.7,144.6 748.1,142.8 750.6,141.2 753.1,140.0 755.6,139.5 758.0,138.7 760.5,138.0 763.0,137.9 765.5,137.8 768.0,137.4 770.4,137.3 772.9,137.2 775.4,137.0 777.9,136.9 785.3,136.8 787.8,136.8 790.2,136.5 792.7,134.3 795.2,132.5 797.7,130.9 800.2,129.1 802.6,127.5 805.1,125.9 807.6,124.2 810.1,122.7 812.5,121.0 815.0,119.4 817.5,117.8 820.0,116.3 822.5,114.8 824.9,113.2 827.4,111.7 829.9,110.4 832.4,109.0 834.8,107.5 837.3,106.1 839.8,104.7 842.3,103.3 844.7,102.4 847.2,101.5 849.7,100.5 852.2,99.2 854.7,98.0 857.1,96.9 859.6,95.5 862.1,94.3 864.6,93.2 867.0,92.0 869.5,90.7 872.0,90.0 872.0,272.0" fill="#e0f2fe" opacity="0.55"/>
<polyline points="52.0,271.9 54.5,271.8 84.2,271.3 86.7,271.2 89.2,271.1 96.6,271.1 111.5,271.0 143.7,271.0 146.1,270.5 148.6,270.4 156.0,270.3 158.5,270.3 161.0,270.2 163.5,270.1 168.4,270.0 170.9,269.8 178.3,269.6 188.3,269.5 190.7,269.3 193.2,269.2 213.0,269.2 218.0,269.1 230.4,269.1 232.8,269.0 235.3,268.9 245.2,268.8 247.7,268.5 250.2,268.3 252.7,267.6 255.1,267.5 272.5,267.5 279.9,267.4 284.9,267.3 287.3,267.3 289.8,267.0 292.3,267.0 294.8,266.9 297.3,266.8 299.7,266.6 309.6,266.4 314.6,266.3 324.5,266.3 327.0,266.0 329.5,266.0 331.9,265.9 336.9,265.8 339.4,264.8 341.8,263.7 344.3,263.4 346.8,263.1 349.3,263.0 351.8,262.8 354.2,262.4 356.7,262.1 359.2,262.0 361.7,261.9 366.6,261.7 369.1,261.3 371.6,260.9 374.1,260.5 376.5,260.2 381.5,260.1 386.4,260.1 388.9,259.7 391.4,259.4 393.9,258.7 396.4,258.3 398.8,257.9 401.3,257.5 403.8,257.0 406.3,256.5 408.7,256.0 411.2,255.5 413.7,254.9 416.2,254.5 418.6,254.2 421.1,253.8 423.6,253.4 426.1,253.2 428.6,252.9 431.0,252.7 433.5,252.6 436.0,252.5 440.9,252.4 443.4,251.4 445.9,250.7 448.4,250.5 450.9,250.5 455.8,250.3 458.3,250.2 468.2,250.1 473.1,250.0 480.6,250.0 483.1,248.8 485.5,247.7 488.0,247.4 490.5,246.4 493.0,245.7 495.4,245.2 497.9,245.0 500.4,244.5 502.9,244.3 505.4,244.2 507.8,244.0 510.3,243.9 525.2,243.1 527.6,242.0 530.1,241.9 532.6,241.7 535.1,241.7 552.4,241.6 574.7,240.5 577.2,239.7 579.7,238.7 582.2,237.3 584.6,237.0 587.1,236.6 589.6,235.7 592.1,235.1 594.5,233.7 597.0,231.6 599.5,229.6 602.0,227.2 604.4,224.8 606.9,222.6 609.4,221.3 611.9,219.7 614.4,217.3 616.8,215.3 619.3,213.9 621.8,212.5 624.3,210.6 626.7,209.3 629.2,208.1 631.7,207.0 634.2,206.2 636.7,205.1 639.1,204.4 641.6,203.7 644.1,203.1 646.6,201.2 649.0,199.7 651.5,198.9 654.0,198.6 656.5,198.2 658.9,197.4 661.4,196.7 663.9,195.5 666.4,194.7 668.9,194.0 671.3,193.9 673.8,193.6 676.3,193.0 678.8,191.5 681.2,189.1 683.7,186.5 686.2,184.0 688.7,181.9 691.2,179.5 693.6,176.9 696.1,174.3 698.6,171.9 701.1,170.1 703.5,168.7 706.0,167.1 708.5,165.5 711.0,164.5 713.5,163.3 715.9,162.3 718.4,161.0 720.9,159.2 723.4,157.0 725.8,155.2 728.3,153.6 730.8,152.6 733.3,151.6 735.7,150.7 738.2,149.7 740.7,147.9 743.2,146.4 745.7,144.6 748.1,142.8 750.6,141.2 753.1,140.0 755.6,139.5 758.0,138.7 760.5,138.0 763.0,137.9 765.5,137.8 768.0,137.4 770.4,137.3 772.9,137.2 775.4,137.0 777.9,136.9 785.3,136.8 787.8,136.8 790.2,136.5 792.7,134.3 795.2,132.5 797.7,130.9 800.2,129.1 802.6,127.5 805.1,125.9 807.6,124.2 810.1,122.7 812.5,121.0 815.0,119.4 817.5,117.8 820.0,116.3 822.5,114.8 824.9,113.2 827.4,111.7 829.9,110.4 832.4,109.0 834.8,107.5 837.3,106.1 839.8,104.7 842.3,103.3 844.7,102.4 847.2,101.5 849.7,100.5 852.2,99.2 854.7,98.0 857.1,96.9 859.6,95.5 862.1,94.3 864.6,93.2 867.0,92.0 869.5,90.7 872.0,90.0" fill="none" stroke="#38bdf8" stroke-width="2.5" stroke-linejoin="round" stroke-linecap="round"/>
<circle cx="872.0" cy="90.0" r="4" fill="#0ea5e9"/>
<text x="866.0" y="80.0" text-anchor="end" font-family="Inter, system-ui, sans-serif" font-size="13" font-weight="700" fill="#334155">3522</text>
<text x="52.0" y="294" text-anchor="middle" font-family="Inter, system-ui, sans-serif" font-size="11" fill="#94a3b8">Jun 10 05:00</text>
<text x="584.6" y="294" text-anchor="middle" font-family="Inter, system-ui, sans-serif" font-size="11" fill="#94a3b8">Jun 19 04:00</text>
<text x="872.0" y="294" text-anchor="middle" font-family="Inter, system-ui, sans-serif" font-size="11" fill="#94a3b8">Jun 24 00:00</text>
</svg>
