<svg xmlns="http://www.w3.org/2000/svg" width="900" height="320" viewBox="0 0 900 320" role="img" aria-labelledby="title desc">
<title id="title">unsorry proofs over time</title>
<desc id="desc">Cumulative kernel-verified proofs over time, by the hour each proof was merged.</desc>
<rect width="900" height="100%" rx="18" fill="#ffffff"/>
<rect x="0.5" y="0.5" width="899" height="319" rx="18" fill="none" stroke="#e2e8f0"/>
<text x="32" y="44" font-family="Inter, system-ui, sans-serif" font-size="28" font-weight="700" fill="#334155">unsorry — Proofs Over Time</text>
<text x="32" y="72" font-family="Inter, system-ui, sans-serif" font-size="13" fill="#64748b">4230 cumulative kernel-verified proofs · merged, hourly</text>
<line x1="52" y1="272.0" x2="872" y2="272.0" stroke="#f1f5f9"/>
<text x="44" y="276.0" text-anchor="end" font-family="Inter, system-ui, sans-serif" font-size="11" fill="#94a3b8">0</text>
<line x1="52" y1="226.5" x2="872" y2="226.5" stroke="#f1f5f9"/>
<text x="44" y="230.5" text-anchor="end" font-family="Inter, system-ui, sans-serif" font-size="11" fill="#94a3b8">1058</text>
<line x1="52" y1="181.0" x2="872" y2="181.0" stroke="#f1f5f9"/>
<text x="44" y="185.0" text-anchor="end" font-family="Inter, system-ui, sans-serif" font-size="11" fill="#94a3b8">2115</text>
<line x1="52" y1="135.5" x2="872" y2="135.5" stroke="#f1f5f9"/>
<text x="44" y="139.5" text-anchor="end" font-family="Inter, system-ui, sans-serif" font-size="11" fill="#94a3b8">3172</text>
<line x1="52" y1="90.0" x2="872" y2="90.0" stroke="#f1f5f9"/>
<text x="44" y="94.0" text-anchor="end" font-family="Inter, system-ui, sans-serif" font-size="11" fill="#94a3b8">4230</text>
<polygon points="52.0,272.0 52.0,272.0 54.2,271.9 80.8,271.4 83.0,271.3 85.2,271.3 91.9,271.2 105.2,271.2 134.0,271.1 136.2,270.8 138.4,270.7 145.1,270.6 147.3,270.6 149.5,270.5 151.7,270.4 156.2,270.4 158.4,270.1 165.0,270.0 173.9,269.9 176.1,269.8 178.3,269.7 196.1,269.6 200.5,269.6 211.6,269.5 213.8,269.5 216.0,269.4 224.9,269.4 227.1,269.1 229.3,268.9 231.5,268.3 233.7,268.3 249.2,268.2 255.9,268.2 260.3,268.1 262.5,268.1 264.8,267.9 267.0,267.8 269.2,267.8 271.4,267.7 273.6,267.5 282.5,267.3 286.9,267.3 295.8,267.2 298.0,267.0 300.2,267.0 302.4,266.9 306.9,266.8 309.1,266.0 311.3,265.1 313.5,264.8 315.7,264.6 317.9,264.5 320.2,264.3 322.4,264.0 324.6,263.8 326.8,263.7 329.0,263.6 333.5,263.4 335.7,263.1 337.9,262.7 340.1,262.4 342.3,262.2 346.8,262.1 351.2,262.1 353.4,261.8 355.6,261.5 357.8,260.9 360.1,260.6 362.3,260.3 364.5,259.9 366.7,259.5 368.9,259.1 371.1,258.7 373.4,258.2 375.6,257.8 377.8,257.4 380.0,257.2 382.2,256.9 384.4,256.5 386.6,256.3 388.9,256.1 391.1,255.9 393.3,255.8 395.5,255.7 399.9,255.7 402.2,254.8 404.4,254.2 406.6,254.1 408.8,254.1 413.2,254.0 415.5,253.8 424.3,253.8 428.8,253.7 435.4,253.7 437.6,252.7 439.8,251.7 442.1,251.5 444.3,250.7 446.5,250.1 448.7,249.7 450.9,249.5 453.1,249.1 455.4,248.9 457.6,248.9 459.8,248.7 462.0,248.6 475.3,247.9 477.5,247.0 479.7,246.9 481.9,246.8 484.2,246.7 499.7,246.7 519.6,245.8 521.8,245.1 524.1,244.3 526.3,243.1 528.5,242.9 530.7,242.5 532.9,241.8 535.1,241.3 537.4,240.1 539.6,238.4 541.8,236.7 544.0,234.7 546.2,232.7 548.4,230.9 550.6,229.7 552.9,228.4 555.1,226.4 557.3,224.8 559.5,223.6 561.7,222.5 563.9,220.8 566.2,219.8 568.4,218.8 570.6,217.9 572.8,217.2 575.0,216.3 577.2,215.7 579.5,215.1 581.7,214.6 583.9,213.1 586.1,211.8 588.3,211.1 590.5,210.9 592.8,210.5 595.0,209.9 597.2,209.3 599.4,208.3 601.6,207.6 603.8,207.0 606.1,206.9 608.3,206.7 610.5,206.2 612.7,205.0 614.9,202.9 617.1,200.8 619.4,198.7 621.6,197.0 623.8,195.0 626.0,192.8 628.2,190.6 630.4,188.6 632.6,187.2 634.9,186.0 637.1,184.7 639.3,183.4 641.5,182.5 643.7,181.5 645.9,180.7 648.2,179.6 650.4,178.1 652.6,176.3 654.8,174.8 657.0,173.4 659.2,172.6 661.5,171.8 663.7,171.0 665.9,170.2 668.1,168.7 670.3,167.4 672.5,165.9 674.8,164.4 677.0,163.1 679.2,162.1 681.4,161.6 683.6,161.0 685.8,160.4 688.1,160.3 690.3,160.3 692.5,160.0 694.7,159.8 696.9,159.8 699.1,159.6 701.4,159.5 708.0,159.4 710.2,159.4 712.4,159.1 714.6,157.4 716.9,155.9 719.1,154.5 721.3,153.0 723.5,151.7 725.7,150.4 727.9,148.9 730.2,147.7 732.4,146.2 734.6,144.9 736.8,143.6 739.0,142.3 741.2,141.1 743.5,139.8 745.7,138.5 747.9,137.5 750.1,136.3 752.3,135.0 754.5,133.8 756.8,132.7 759.0,131.6 761.2,130.8 763.4,130.0 765.6,129.2 767.8,128.1 770.1,127.1 772.3,126.2 774.5,125.0 776.7,124.0 778.9,123.1 781.1,122.1 783.4,121.1 785.6,120.1 787.8,119.1 790.0,118.0 792.2,117.1 794.4,116.1 796.6,115.3 798.9,114.5 801.1,113.5 803.3,112.6 805.5,111.8 807.7,111.1 809.9,110.4 812.2,110.1 814.4,109.9 816.6,109.0 818.8,108.2 821.0,107.3 823.2,106.4 825.5,105.7 827.7,104.8 829.9,104.0 832.1,103.2 834.3,102.4 836.5,101.7 838.8,101.0 841.0,100.2 843.2,99.4 845.4,98.7 847.6,97.9 849.8,97.1 852.1,96.4 854.3,95.8 856.5,94.9 858.7,94.3 860.9,93.7 863.1,92.8 865.4,91.9 867.6,91.2 869.8,90.4 872.0,90.0 872.0,272.0" fill="#e0f2fe" opacity="0.55"/>
<polyline points="52.0,272.0 54.2,271.9 80.8,271.4 83.0,271.3 85.2,271.3 91.9,271.2 105.2,271.2 134.0,271.1 136.2,270.8 138.4,270.7 145.1,270.6 147.3,270.6 149.5,270.5 151.7,270.4 156.2,270.4 158.4,270.1 165.0,270.0 173.9,269.9 176.1,269.8 178.3,269.7 196.1,269.6 200.5,269.6 211.6,269.5 213.8,269.5 216.0,269.4 224.9,269.4 227.1,269.1 229.3,268.9 231.5,268.3 233.7,268.3 249.2,268.2 255.9,268.2 260.3,268.1 262.5,268.1 264.8,267.9 267.0,267.8 269.2,267.8 271.4,267.7 273.6,267.5 282.5,267.3 286.9,267.3 295.8,267.2 298.0,267.0 300.2,267.0 302.4,266.9 306.9,266.8 309.1,266.0 311.3,265.1 313.5,264.8 315.7,264.6 317.9,264.5 320.2,264.3 322.4,264.0 324.6,263.8 326.8,263.7 329.0,263.6 333.5,263.4 335.7,263.1 337.9,262.7 340.1,262.4 342.3,262.2 346.8,262.1 351.2,262.1 353.4,261.8 355.6,261.5 357.8,260.9 360.1,260.6 362.3,260.3 364.5,259.9 366.7,259.5 368.9,259.1 371.1,258.7 373.4,258.2 375.6,257.8 377.8,257.4 380.0,257.2 382.2,256.9 384.4,256.5 386.6,256.3 388.9,256.1 391.1,255.9 393.3,255.8 395.5,255.7 399.9,255.7 402.2,254.8 404.4,254.2 406.6,254.1 408.8,254.1 413.2,254.0 415.5,253.8 424.3,253.8 428.8,253.7 435.4,253.7 437.6,252.7 439.8,251.7 442.1,251.5 444.3,250.7 446.5,250.1 448.7,249.7 450.9,249.5 453.1,249.1 455.4,248.9 457.6,248.9 459.8,248.7 462.0,248.6 475.3,247.9 477.5,247.0 479.7,246.9 481.9,246.8 484.2,246.7 499.7,246.7 519.6,245.8 521.8,245.1 524.1,244.3 526.3,243.1 528.5,242.9 530.7,242.5 532.9,241.8 535.1,241.3 537.4,240.1 539.6,238.4 541.8,236.7 544.0,234.7 546.2,232.7 548.4,230.9 550.6,229.7 552.9,228.4 555.1,226.4 557.3,224.8 559.5,223.6 561.7,222.5 563.9,220.8 566.2,219.8 568.4,218.8 570.6,217.9 572.8,217.2 575.0,216.3 577.2,215.7 579.5,215.1 581.7,214.6 583.9,213.1 586.1,211.8 588.3,211.1 590.5,210.9 592.8,210.5 595.0,209.9 597.2,209.3 599.4,208.3 601.6,207.6 603.8,207.0 606.1,206.9 608.3,206.7 610.5,206.2 612.7,205.0 614.9,202.9 617.1,200.8 619.4,198.7 621.6,197.0 623.8,195.0 626.0,192.8 628.2,190.6 630.4,188.6 632.6,187.2 634.9,186.0 637.1,184.7 639.3,183.4 641.5,182.5 643.7,181.5 645.9,180.7 648.2,179.6 650.4,178.1 652.6,176.3 654.8,174.8 657.0,173.4 659.2,172.6 661.5,171.8 663.7,171.0 665.9,170.2 668.1,168.7 670.3,167.4 672.5,165.9 674.8,164.4 677.0,163.1 679.2,162.1 681.4,161.6 683.6,161.0 685.8,160.4 688.1,160.3 690.3,160.3 692.5,160.0 694.7,159.8 696.9,159.8 699.1,159.6 701.4,159.5 708.0,159.4 710.2,159.4 712.4,159.1 714.6,157.4 716.9,155.9 719.1,154.5 721.3,153.0 723.5,151.7 725.7,150.4 727.9,148.9 730.2,147.7 732.4,146.2 734.6,144.9 736.8,143.6 739.0,142.3 741.2,141.1 743.5,139.8 745.7,138.5 747.9,137.5 750.1,136.3 752.3,135.0 754.5,133.8 756.8,132.7 759.0,131.6 761.2,130.8 763.4,130.0 765.6,129.2 767.8,128.1 770.1,127.1 772.3,126.2 774.5,125.0 776.7,124.0 778.9,123.1 781.1,122.1 783.4,121.1 785.6,120.1 787.8,119.1 790.0,118.0 792.2,117.1 794.4,116.1 796.6,115.3 798.9,114.5 801.1,113.5 803.3,112.6 805.5,111.8 807.7,111.1 809.9,110.4 812.2,110.1 814.4,109.9 816.6,109.0 818.8,108.2 821.0,107.3 823.2,106.4 825.5,105.7 827.7,104.8 829.9,104.0 832.1,103.2 834.3,102.4 836.5,101.7 838.8,101.0 841.0,100.2 843.2,99.4 845.4,98.7 847.6,97.9 849.8,97.1 852.1,96.4 854.3,95.8 856.5,94.9 858.7,94.3 860.9,93.7 863.1,92.8 865.4,91.9 867.6,91.2 869.8,90.4 872.0,90.0" fill="none" stroke="#38bdf8" stroke-width="2.5" stroke-linejoin="round" stroke-linecap="round"/>
<circle cx="872.0" cy="90.0" r="4" fill="#0ea5e9"/>
<text x="866.0" y="80.0" text-anchor="end" font-family="Inter, system-ui, sans-serif" font-size="13" font-weight="700" fill="#334155">4230</text>
<text x="52.0" y="294" text-anchor="middle" font-family="Inter, system-ui, sans-serif" font-size="11" fill="#94a3b8">Jun 10 05:00</text>
<text x="570.6" y="294" text-anchor="middle" font-family="Inter, system-ui, sans-serif" font-size="11" fill="#94a3b8">Jun 19 23:00</text>
<text x="872.0" y="294" text-anchor="middle" font-family="Inter, system-ui, sans-serif" font-size="11" fill="#94a3b8">Jun 25 15:00</text>
</svg>
