<svg xmlns="http://www.w3.org/2000/svg" width="900" height="320" viewBox="0 0 900 320" role="img" aria-labelledby="title desc">
<title id="title">unsorry proofs over time</title>
<desc id="desc">Cumulative kernel-verified proofs over time, by the hour each proof was merged.</desc>
<rect width="900" height="100%" rx="18" fill="#ffffff"/>
<rect x="0.5" y="0.5" width="899" height="319" rx="18" fill="none" stroke="#e2e8f0"/>
<text x="32" y="44" font-family="Inter, system-ui, sans-serif" font-size="28" font-weight="700" fill="#334155">unsorry — Proofs Over Time</text>
<text x="32" y="72" font-family="Inter, system-ui, sans-serif" font-size="13" fill="#64748b">4142 cumulative kernel-verified proofs · merged, hourly</text>
<line x1="52" y1="272.0" x2="872" y2="272.0" stroke="#f1f5f9"/>
<text x="44" y="276.0" text-anchor="end" font-family="Inter, system-ui, sans-serif" font-size="11" fill="#94a3b8">0</text>
<line x1="52" y1="226.5" x2="872" y2="226.5" stroke="#f1f5f9"/>
<text x="44" y="230.5" text-anchor="end" font-family="Inter, system-ui, sans-serif" font-size="11" fill="#94a3b8">1036</text>
<line x1="52" y1="181.0" x2="872" y2="181.0" stroke="#f1f5f9"/>
<text x="44" y="185.0" text-anchor="end" font-family="Inter, system-ui, sans-serif" font-size="11" fill="#94a3b8">2071</text>
<line x1="52" y1="135.5" x2="872" y2="135.5" stroke="#f1f5f9"/>
<text x="44" y="139.5" text-anchor="end" font-family="Inter, system-ui, sans-serif" font-size="11" fill="#94a3b8">3106</text>
<line x1="52" y1="90.0" x2="872" y2="90.0" stroke="#f1f5f9"/>
<text x="44" y="94.0" text-anchor="end" font-family="Inter, system-ui, sans-serif" font-size="11" fill="#94a3b8">4142</text>
<polygon points="52.0,272.0 52.0,272.0 54.2,271.9 81.2,271.4 83.5,271.3 85.7,271.3 92.4,271.2 105.9,271.2 135.1,271.1 137.4,270.7 139.6,270.7 146.4,270.6 148.6,270.5 150.8,270.5 153.1,270.4 157.6,270.3 159.8,270.1 166.6,269.9 175.6,269.8 177.8,269.7 180.1,269.6 198.0,269.6 202.5,269.5 213.8,269.5 216.0,269.5 218.2,269.4 227.2,269.3 229.5,269.1 231.7,268.8 234.0,268.3 236.2,268.2 251.9,268.1 258.7,268.1 263.2,268.0 265.4,268.0 267.7,267.8 269.9,267.7 272.2,267.7 274.4,267.6 276.7,267.4 285.6,267.2 290.1,267.2 299.1,267.1 301.4,266.9 303.6,266.9 305.9,266.8 310.4,266.7 312.6,265.8 314.8,265.0 317.1,264.7 319.3,264.4 321.6,264.4 323.8,264.1 326.1,263.8 328.3,263.6 330.6,263.5 332.8,263.4 337.3,263.3 339.6,262.9 341.8,262.6 344.1,262.2 346.3,262.0 350.8,261.9 355.3,261.8 357.5,261.5 359.8,261.3 362.0,260.7 364.3,260.4 366.5,260.0 368.8,259.7 371.0,259.3 373.3,258.9 375.5,258.4 377.8,257.9 380.0,257.5 382.2,257.1 384.5,256.8 386.7,256.5 389.0,256.2 391.2,256.0 393.5,255.8 395.7,255.6 398.0,255.5 400.2,255.4 404.7,255.3 407.0,254.5 409.2,253.9 411.5,253.7 413.7,253.7 418.2,253.6 420.4,253.5 429.4,253.4 433.9,253.3 440.7,253.3 442.9,252.3 445.2,251.3 447.4,251.0 449.6,250.2 451.9,249.6 454.1,249.2 456.4,249.0 458.6,248.6 460.9,248.4 463.1,248.4 465.4,248.2 467.6,248.1 481.1,247.4 483.3,246.5 485.6,246.4 487.8,246.3 490.1,246.2 505.8,246.2 526.0,245.2 528.3,244.5 530.5,243.7 532.8,242.5 535.0,242.3 537.3,241.9 539.5,241.2 541.8,240.6 544.0,239.4 546.2,237.7 548.5,236.0 550.7,233.9 553.0,231.8 555.2,230.0 557.5,228.9 559.7,227.5 562.0,225.5 564.2,223.8 566.5,222.6 568.7,221.4 571.0,219.8 573.2,218.7 575.5,217.6 577.7,216.7 579.9,216.0 582.2,215.1 584.4,214.5 586.7,213.9 588.9,213.4 591.2,211.8 593.4,210.5 595.7,209.8 597.9,209.6 600.2,209.2 602.4,208.6 604.7,208.0 606.9,206.9 609.2,206.3 611.4,205.7 613.6,205.6 615.9,205.3 618.1,204.8 620.4,203.5 622.6,201.5 624.9,199.3 627.1,197.2 629.4,195.4 631.6,193.3 633.9,191.2 636.1,188.9 638.4,186.8 640.6,185.4 642.8,184.2 645.1,182.8 647.3,181.5 649.6,180.6 651.8,179.5 654.1,178.8 656.3,177.6 658.6,176.1 660.8,174.2 663.1,172.7 665.3,171.3 667.6,170.5 669.8,169.7 672.1,168.9 674.3,168.0 676.5,166.5 678.8,165.2 681.0,163.7 683.3,162.1 685.5,160.8 687.8,159.7 690.0,159.3 692.3,158.7 694.5,158.1 696.8,158.0 699.0,157.9 701.3,157.6 703.5,157.4 705.8,157.4 708.0,157.2 710.2,157.1 717.0,157.1 719.2,157.0 721.5,156.7 723.7,154.9 726.0,153.4 728.2,152.0 730.5,150.5 732.7,149.1 735.0,147.8 737.2,146.3 739.5,145.0 741.7,143.6 743.9,142.2 746.2,140.9 748.4,139.6 750.7,138.3 752.9,137.0 755.2,135.7 757.4,134.6 759.7,133.4 761.9,132.1 764.2,130.9 766.4,129.8 768.7,128.6 770.9,127.8 773.2,127.0 775.4,126.2 777.6,125.1 779.9,124.1 782.1,123.1 784.4,121.9 786.6,120.9 788.9,120.0 791.1,118.9 793.4,117.9 795.6,116.8 797.9,115.9 800.1,114.7 802.4,113.9 804.6,112.8 806.8,112.0 809.1,111.1 811.3,110.1 813.6,109.2 815.8,108.4 818.1,107.7 820.3,107.0 822.6,106.6 824.8,106.5 827.1,105.6 829.3,104.7 831.6,103.8 833.8,102.9 836.1,102.2 838.3,101.3 840.5,100.5 842.8,99.6 845.0,98.8 847.3,98.1 849.5,97.3 851.8,96.6 854.0,95.7 856.3,95.0 858.5,94.2 860.8,93.4 863.0,92.7 865.3,92.0 867.5,91.1 869.8,90.5 872.0,90.0 872.0,272.0" fill="#e0f2fe" opacity="0.55"/>
<polyline points="52.0,272.0 54.2,271.9 81.2,271.4 83.5,271.3 85.7,271.3 92.4,271.2 105.9,271.2 135.1,271.1 137.4,270.7 139.6,270.7 146.4,270.6 148.6,270.5 150.8,270.5 153.1,270.4 157.6,270.3 159.8,270.1 166.6,269.9 175.6,269.8 177.8,269.7 180.1,269.6 198.0,269.6 202.5,269.5 213.8,269.5 216.0,269.5 218.2,269.4 227.2,269.3 229.5,269.1 231.7,268.8 234.0,268.3 236.2,268.2 251.9,268.1 258.7,268.1 263.2,268.0 265.4,268.0 267.7,267.8 269.9,267.7 272.2,267.7 274.4,267.6 276.7,267.4 285.6,267.2 290.1,267.2 299.1,267.1 301.4,266.9 303.6,266.9 305.9,266.8 310.4,266.7 312.6,265.8 314.8,265.0 317.1,264.7 319.3,264.4 321.6,264.4 323.8,264.1 326.1,263.8 328.3,263.6 330.6,263.5 332.8,263.4 337.3,263.3 339.6,262.9 341.8,262.6 344.1,262.2 346.3,262.0 350.8,261.9 355.3,261.8 357.5,261.5 359.8,261.3 362.0,260.7 364.3,260.4 366.5,260.0 368.8,259.7 371.0,259.3 373.3,258.9 375.5,258.4 377.8,257.9 380.0,257.5 382.2,257.1 384.5,256.8 386.7,256.5 389.0,256.2 391.2,256.0 393.5,255.8 395.7,255.6 398.0,255.5 400.2,255.4 404.7,255.3 407.0,254.5 409.2,253.9 411.5,253.7 413.7,253.7 418.2,253.6 420.4,253.5 429.4,253.4 433.9,253.3 440.7,253.3 442.9,252.3 445.2,251.3 447.4,251.0 449.6,250.2 451.9,249.6 454.1,249.2 456.4,249.0 458.6,248.6 460.9,248.4 463.1,248.4 465.4,248.2 467.6,248.1 481.1,247.4 483.3,246.5 485.6,246.4 487.8,246.3 490.1,246.2 505.8,246.2 526.0,245.2 528.3,244.5 530.5,243.7 532.8,242.5 535.0,242.3 537.3,241.9 539.5,241.2 541.8,240.6 544.0,239.4 546.2,237.7 548.5,236.0 550.7,233.9 553.0,231.8 555.2,230.0 557.5,228.9 559.7,227.5 562.0,225.5 564.2,223.8 566.5,222.6 568.7,221.4 571.0,219.8 573.2,218.7 575.5,217.6 577.7,216.7 579.9,216.0 582.2,215.1 584.4,214.5 586.7,213.9 588.9,213.4 591.2,211.8 593.4,210.5 595.7,209.8 597.9,209.6 600.2,209.2 602.4,208.6 604.7,208.0 606.9,206.9 609.2,206.3 611.4,205.7 613.6,205.6 615.9,205.3 618.1,204.8 620.4,203.5 622.6,201.5 624.9,199.3 627.1,197.2 629.4,195.4 631.6,193.3 633.9,191.2 636.1,188.9 638.4,186.8 640.6,185.4 642.8,184.2 645.1,182.8 647.3,181.5 649.6,180.6 651.8,179.5 654.1,178.8 656.3,177.6 658.6,176.1 660.8,174.2 663.1,172.7 665.3,171.3 667.6,170.5 669.8,169.7 672.1,168.9 674.3,168.0 676.5,166.5 678.8,165.2 681.0,163.7 683.3,162.1 685.5,160.8 687.8,159.7 690.0,159.3 692.3,158.7 694.5,158.1 696.8,158.0 699.0,157.9 701.3,157.6 703.5,157.4 705.8,157.4 708.0,157.2 710.2,157.1 717.0,157.1 719.2,157.0 721.5,156.7 723.7,154.9 726.0,153.4 728.2,152.0 730.5,150.5 732.7,149.1 735.0,147.8 737.2,146.3 739.5,145.0 741.7,143.6 743.9,142.2 746.2,140.9 748.4,139.6 750.7,138.3 752.9,137.0 755.2,135.7 757.4,134.6 759.7,133.4 761.9,132.1 764.2,130.9 766.4,129.8 768.7,128.6 770.9,127.8 773.2,127.0 775.4,126.2 777.6,125.1 779.9,124.1 782.1,123.1 784.4,121.9 786.6,120.9 788.9,120.0 791.1,118.9 793.4,117.9 795.6,116.8 797.9,115.9 800.1,114.7 802.4,113.9 804.6,112.8 806.8,112.0 809.1,111.1 811.3,110.1 813.6,109.2 815.8,108.4 818.1,107.7 820.3,107.0 822.6,106.6 824.8,106.5 827.1,105.6 829.3,104.7 831.6,103.8 833.8,102.9 836.1,102.2 838.3,101.3 840.5,100.5 842.8,99.6 845.0,98.8 847.3,98.1 849.5,97.3 851.8,96.6 854.0,95.7 856.3,95.0 858.5,94.2 860.8,93.4 863.0,92.7 865.3,92.0 867.5,91.1 869.8,90.5 872.0,90.0" fill="none" stroke="#38bdf8" stroke-width="2.5" stroke-linejoin="round" stroke-linecap="round"/>
<circle cx="872.0" cy="90.0" r="4" fill="#0ea5e9"/>
<text x="866.0" y="80.0" text-anchor="end" font-family="Inter, system-ui, sans-serif" font-size="13" font-weight="700" fill="#334155">4142</text>
<text x="52.0" y="294" text-anchor="middle" font-family="Inter, system-ui, sans-serif" font-size="11" fill="#94a3b8">Jun 10 05:00</text>
<text x="573.2" y="294" text-anchor="middle" font-family="Inter, system-ui, sans-serif" font-size="11" fill="#94a3b8">Jun 19 21:00</text>
<text x="872.0" y="294" text-anchor="middle" font-family="Inter, system-ui, sans-serif" font-size="11" fill="#94a3b8">Jun 25 10:00</text>
</svg>
