<svg xmlns="http://www.w3.org/2000/svg" width="900" height="320" viewBox="0 0 900 320" role="img" aria-labelledby="title desc">
<title id="title">unsorry proofs over time</title>
<desc id="desc">Cumulative kernel-verified proofs over time, by the hour each proof was merged.</desc>
<rect width="900" height="100%" rx="18" fill="#ffffff"/>
<rect x="0.5" y="0.5" width="899" height="319" rx="18" fill="none" stroke="#e2e8f0"/>
<text x="32" y="44" font-family="Inter, system-ui, sans-serif" font-size="28" font-weight="700" fill="#334155">unsorry — Proofs Over Time</text>
<text x="32" y="72" font-family="Inter, system-ui, sans-serif" font-size="13" fill="#64748b">3082 cumulative kernel-verified proofs · merged, hourly</text>
<line x1="52" y1="272.0" x2="872" y2="272.0" stroke="#f1f5f9"/>
<text x="44" y="276.0" text-anchor="end" font-family="Inter, system-ui, sans-serif" font-size="11" fill="#94a3b8">0</text>
<line x1="52" y1="226.5" x2="872" y2="226.5" stroke="#f1f5f9"/>
<text x="44" y="230.5" text-anchor="end" font-family="Inter, system-ui, sans-serif" font-size="11" fill="#94a3b8">770</text>
<line x1="52" y1="181.0" x2="872" y2="181.0" stroke="#f1f5f9"/>
<text x="44" y="185.0" text-anchor="end" font-family="Inter, system-ui, sans-serif" font-size="11" fill="#94a3b8">1541</text>
<line x1="52" y1="135.5" x2="872" y2="135.5" stroke="#f1f5f9"/>
<text x="44" y="139.5" text-anchor="end" font-family="Inter, system-ui, sans-serif" font-size="11" fill="#94a3b8">2312</text>
<line x1="52" y1="90.0" x2="872" y2="90.0" stroke="#f1f5f9"/>
<text x="44" y="94.0" text-anchor="end" font-family="Inter, system-ui, sans-serif" font-size="11" fill="#94a3b8">3082</text>
<polygon points="52.0,272.0 52.0,271.9 54.6,271.8 86.1,271.2 88.7,271.1 91.3,271.0 99.2,270.9 114.9,270.9 148.9,270.8 151.6,270.3 154.2,270.2 162.0,270.1 164.7,270.1 167.3,270.0 169.9,269.8 175.1,269.8 177.8,269.5 185.6,269.2 196.1,269.1 198.7,268.9 201.3,268.8 222.3,268.8 227.5,268.7 240.6,268.6 243.2,268.6 245.9,268.5 256.3,268.4 259.0,268.0 261.6,267.7 264.2,267.0 266.8,266.9 285.2,266.8 293.0,266.7 298.3,266.7 300.9,266.6 303.5,266.3 306.1,266.3 308.7,266.2 311.4,266.0 314.0,265.9 324.5,265.6 329.7,265.5 340.2,265.4 342.8,265.1 345.4,265.1 348.0,265.0 353.3,264.9 355.9,263.7 358.5,262.6 361.1,262.1 363.8,261.8 366.4,261.7 369.0,261.4 371.6,261.0 374.2,260.7 376.9,260.5 379.5,260.4 384.7,260.2 387.3,259.8 390.0,259.3 392.6,258.8 395.2,258.5 400.4,258.4 405.7,258.4 408.3,257.9 410.9,257.7 413.5,256.8 416.2,256.4 418.8,255.9 421.4,255.4 424.0,254.9 426.6,254.3 429.3,253.8 431.9,253.1 434.5,252.5 437.1,252.0 439.7,251.6 442.4,251.2 445.0,250.7 447.6,250.5 450.2,250.2 452.8,249.9 455.5,249.8 458.1,249.7 463.3,249.6 465.9,248.4 468.5,247.6 471.2,247.4 473.8,247.4 479.0,247.3 481.6,247.1 492.1,247.0 497.4,246.9 505.2,246.8 507.8,245.5 510.5,244.2 513.1,243.8 515.7,242.8 518.3,241.9 520.9,241.4 523.6,241.1 526.2,240.6 528.8,240.3 531.4,240.2 534.0,240.0 536.7,239.9 552.4,238.9 555.0,237.7 557.6,237.6 560.2,237.4 562.9,237.3 581.2,237.3 604.8,236.0 607.4,235.1 610.0,234.0 612.6,232.3 615.3,232.0 617.9,231.5 620.5,230.5 623.1,229.8 625.7,228.2 628.4,225.9 631.0,223.6 633.6,220.9 636.2,218.0 638.8,215.5 641.5,214.0 644.1,212.2 646.7,209.5 649.3,207.2 651.9,205.6 654.6,204.0 657.2,201.8 659.8,200.4 662.4,199.0 665.0,197.7 667.7,196.8 670.3,195.5 672.9,194.8 675.5,193.9 678.1,193.2 680.8,191.1 683.4,189.4 686.0,188.4 688.6,188.1 691.2,187.6 693.9,186.7 696.5,186.0 699.1,184.5 701.7,183.7 704.3,182.8 707.0,182.7 709.6,182.4 712.2,181.7 714.8,180.0 717.4,177.2 720.1,174.3 722.7,171.4 725.3,169.1 727.9,166.3 730.5,163.3 733.2,160.3 735.8,157.6 738.4,155.5 741.0,154.0 743.6,152.1 746.2,150.4 748.9,149.2 751.5,147.8 754.1,146.7 756.7,145.2 759.3,143.1 762.0,140.6 764.6,138.5 767.2,136.7 769.8,135.5 772.4,134.5 775.1,133.4 777.7,132.2 780.3,130.2 782.9,128.5 785.5,126.4 788.2,124.3 790.8,122.5 793.4,121.1 796.0,120.5 798.6,119.7 801.3,118.9 803.9,118.8 806.5,118.6 809.1,118.2 811.7,118.0 814.4,118.0 817.0,117.7 819.6,117.6 827.5,117.5 830.1,117.5 832.7,117.1 835.3,114.7 837.9,112.6 840.6,110.8 843.2,108.7 845.8,106.9 848.4,105.1 851.0,103.1 853.7,101.3 856.3,99.4 858.9,97.6 861.5,95.8 864.1,94.0 866.8,92.3 869.4,90.5 872.0,90.0 872.0,272.0" fill="#e0f2fe" opacity="0.55"/>
<polyline points="52.0,271.9 54.6,271.8 86.1,271.2 88.7,271.1 91.3,271.0 99.2,270.9 114.9,270.9 148.9,270.8 151.6,270.3 154.2,270.2 162.0,270.1 164.7,270.1 167.3,270.0 169.9,269.8 175.1,269.8 177.8,269.5 185.6,269.2 196.1,269.1 198.7,268.9 201.3,268.8 222.3,268.8 227.5,268.7 240.6,268.6 243.2,268.6 245.9,268.5 256.3,268.4 259.0,268.0 261.6,267.7 264.2,267.0 266.8,266.9 285.2,266.8 293.0,266.7 298.3,266.7 300.9,266.6 303.5,266.3 306.1,266.3 308.7,266.2 311.4,266.0 314.0,265.9 324.5,265.6 329.7,265.5 340.2,265.4 342.8,265.1 345.4,265.1 348.0,265.0 353.3,264.9 355.9,263.7 358.5,262.6 361.1,262.1 363.8,261.8 366.4,261.7 369.0,261.4 371.6,261.0 374.2,260.7 376.9,260.5 379.5,260.4 384.7,260.2 387.3,259.8 390.0,259.3 392.6,258.8 395.2,258.5 400.4,258.4 405.7,258.4 408.3,257.9 410.9,257.7 413.5,256.8 416.2,256.4 418.8,255.9 421.4,255.4 424.0,254.9 426.6,254.3 429.3,253.8 431.9,253.1 434.5,252.5 437.1,252.0 439.7,251.6 442.4,251.2 445.0,250.7 447.6,250.5 450.2,250.2 452.8,249.9 455.5,249.8 458.1,249.7 463.3,249.6 465.9,248.4 468.5,247.6 471.2,247.4 473.8,247.4 479.0,247.3 481.6,247.1 492.1,247.0 497.4,246.9 505.2,246.8 507.8,245.5 510.5,244.2 513.1,243.8 515.7,242.8 518.3,241.9 520.9,241.4 523.6,241.1 526.2,240.6 528.8,240.3 531.4,240.2 534.0,240.0 536.7,239.9 552.4,238.9 555.0,237.7 557.6,237.6 560.2,237.4 562.9,237.3 581.2,237.3 604.8,236.0 607.4,235.1 610.0,234.0 612.6,232.3 615.3,232.0 617.9,231.5 620.5,230.5 623.1,229.8 625.7,228.2 628.4,225.9 631.0,223.6 633.6,220.9 636.2,218.0 638.8,215.5 641.5,214.0 644.1,212.2 646.7,209.5 649.3,207.2 651.9,205.6 654.6,204.0 657.2,201.8 659.8,200.4 662.4,199.0 665.0,197.7 667.7,196.8 670.3,195.5 672.9,194.8 675.5,193.9 678.1,193.2 680.8,191.1 683.4,189.4 686.0,188.4 688.6,188.1 691.2,187.6 693.9,186.7 696.5,186.0 699.1,184.5 701.7,183.7 704.3,182.8 707.0,182.7 709.6,182.4 712.2,181.7 714.8,180.0 717.4,177.2 720.1,174.3 722.7,171.4 725.3,169.1 727.9,166.3 730.5,163.3 733.2,160.3 735.8,157.6 738.4,155.5 741.0,154.0 743.6,152.1 746.2,150.4 748.9,149.2 751.5,147.8 754.1,146.7 756.7,145.2 759.3,143.1 762.0,140.6 764.6,138.5 767.2,136.7 769.8,135.5 772.4,134.5 775.1,133.4 777.7,132.2 780.3,130.2 782.9,128.5 785.5,126.4 788.2,124.3 790.8,122.5 793.4,121.1 796.0,120.5 798.6,119.7 801.3,118.9 803.9,118.8 806.5,118.6 809.1,118.2 811.7,118.0 814.4,118.0 817.0,117.7 819.6,117.6 827.5,117.5 830.1,117.5 832.7,117.1 835.3,114.7 837.9,112.6 840.6,110.8 843.2,108.7 845.8,106.9 848.4,105.1 851.0,103.1 853.7,101.3 856.3,99.4 858.9,97.6 861.5,95.8 864.1,94.0 866.8,92.3 869.4,90.5 872.0,90.0" fill="none" stroke="#38bdf8" stroke-width="2.5" stroke-linejoin="round" stroke-linecap="round"/>
<circle cx="872.0" cy="90.0" r="4" fill="#0ea5e9"/>
<text x="866.0" y="80.0" text-anchor="end" font-family="Inter, system-ui, sans-serif" font-size="13" font-weight="700" fill="#334155">3082</text>
<text x="52.0" y="294" text-anchor="middle" font-family="Inter, system-ui, sans-serif" font-size="11" fill="#94a3b8">Jun 10 05:00</text>
<text x="555.0" y="294" text-anchor="middle" font-family="Inter, system-ui, sans-serif" font-size="11" fill="#94a3b8">Jun 18 05:00</text>
<text x="872.0" y="294" text-anchor="middle" font-family="Inter, system-ui, sans-serif" font-size="11" fill="#94a3b8">Jun 23 06:00</text>
</svg>
