<svg xmlns="http://www.w3.org/2000/svg" width="900" height="320" viewBox="0 0 900 320" role="img" aria-labelledby="title desc">
<title id="title">Unsorry proofs over time</title>
<desc id="desc">Cumulative kernel-verified proofs over time, by the hour each proof was merged.</desc>
<rect width="900" height="100%" rx="18" fill="#ffffff"/>
<rect x="0.5" y="0.5" width="899" height="319" rx="18" fill="none" stroke="#e2e8f0"/>
<text x="32" y="44" font-family="Inter, system-ui, sans-serif" font-size="28" font-weight="700" fill="#334155">Unsorry — Proofs Over Time</text>
<text x="32" y="72" font-family="Inter, system-ui, sans-serif" font-size="13" fill="#64748b">2370 cumulative kernel-verified proofs · merged, hourly</text>
<line x1="52" y1="272.0" x2="872" y2="272.0" stroke="#f1f5f9"/>
<text x="44" y="276.0" text-anchor="end" font-family="Inter, system-ui, sans-serif" font-size="11" fill="#94a3b8">0</text>
<line x1="52" y1="226.5" x2="872" y2="226.5" stroke="#f1f5f9"/>
<text x="44" y="230.5" text-anchor="end" font-family="Inter, system-ui, sans-serif" font-size="11" fill="#94a3b8">592</text>
<line x1="52" y1="181.0" x2="872" y2="181.0" stroke="#f1f5f9"/>
<text x="44" y="185.0" text-anchor="end" font-family="Inter, system-ui, sans-serif" font-size="11" fill="#94a3b8">1185</text>
<line x1="52" y1="135.5" x2="872" y2="135.5" stroke="#f1f5f9"/>
<text x="44" y="139.5" text-anchor="end" font-family="Inter, system-ui, sans-serif" font-size="11" fill="#94a3b8">1778</text>
<line x1="52" y1="90.0" x2="872" y2="90.0" stroke="#f1f5f9"/>
<text x="44" y="94.0" text-anchor="end" font-family="Inter, system-ui, sans-serif" font-size="11" fill="#94a3b8">2370</text>
<polygon points="52.0,272.0 52.0,271.9 54.9,271.8 90.3,271.0 93.3,270.8 96.2,270.7 105.1,270.6 122.8,270.5 161.1,270.5 164.1,269.8 167.0,269.7 175.9,269.5 178.8,269.5 181.8,269.4 184.7,269.2 190.6,269.1 193.6,268.7 202.4,268.4 214.2,268.2 217.2,268.0 220.1,267.9 243.7,267.8 249.6,267.7 264.4,267.6 267.3,267.5 270.3,267.4 282.1,267.3 285.0,266.9 288.0,266.5 290.9,265.5 293.9,265.3 314.5,265.2 323.4,265.2 329.3,265.1 332.2,265.0 335.2,264.6 338.1,264.6 341.1,264.5 344.0,264.2 347.0,264.0 358.8,263.6 364.7,263.6 376.5,263.5 379.4,263.1 382.4,263.0 385.3,262.9 391.2,262.8 394.2,261.2 397.1,259.7 400.1,259.2 403.0,258.8 406.0,258.6 408.9,258.3 411.9,257.7 414.8,257.3 417.8,257.1 420.7,256.9 426.6,256.7 429.6,256.1 432.5,255.5 435.5,254.9 438.4,254.5 444.3,254.3 450.2,254.3 453.2,253.7 456.1,253.3 459.1,252.3 462.0,251.6 464.9,251.0 467.9,250.4 470.8,249.7 473.8,249.0 476.7,248.3 479.7,247.4 482.6,246.7 485.6,246.0 488.5,245.5 491.5,245.0 494.4,244.4 497.4,244.0 500.3,243.7 503.3,243.3 506.2,243.1 509.2,243.0 515.1,242.9 518.0,241.4 521.0,240.3 523.9,240.1 526.9,240.0 532.8,239.8 535.7,239.6 547.5,239.5 553.4,239.4 562.3,239.3 565.2,237.5 568.2,235.8 571.1,235.4 574.1,234.0 577.0,232.9 580.0,232.2 582.9,231.8 585.9,231.1 588.8,230.8 591.8,230.7 594.7,230.4 597.7,230.2 615.4,229.0 618.3,227.5 621.3,227.2 624.2,227.0 627.2,226.9 647.8,226.8 674.4,225.2 677.3,224.0 680.3,222.5 683.2,220.4 686.2,220.0 689.1,219.3 692.1,218.1 695.0,217.2 698.0,215.1 700.9,212.0 703.9,209.0 706.8,205.5 709.8,201.8 712.7,198.6 715.7,196.6 718.6,194.2 721.6,190.7 724.5,187.7 727.5,185.7 730.4,183.6 733.4,180.7 736.3,178.8 739.3,177.0 742.2,175.4 745.2,174.2 748.1,172.6 751.1,171.6 754.0,170.5 757.0,169.6 759.9,166.8 762.9,164.6 765.8,163.3 768.8,163.0 771.7,162.3 774.7,161.1 777.6,160.1 780.6,158.3 783.5,157.1 786.5,156.0 789.4,155.9 792.4,155.4 795.3,154.6 798.3,152.4 801.2,148.7 804.2,145.0 807.1,141.2 810.1,138.1 813.0,134.5 816.0,130.7 818.9,126.8 821.9,123.2 824.8,120.6 827.8,118.5 830.7,116.1 833.7,113.8 836.6,112.3 839.6,110.4 842.5,109.0 845.5,107.0 848.4,104.4 851.4,101.1 854.3,98.4 857.3,96.1 860.2,94.5 863.2,93.1 866.1,91.8 869.1,90.2 872.0,90.0 872.0,272.0" fill="#e0f2fe" opacity="0.55"/>
<polyline points="52.0,271.9 54.9,271.8 90.3,271.0 93.3,270.8 96.2,270.7 105.1,270.6 122.8,270.5 161.1,270.5 164.1,269.8 167.0,269.7 175.9,269.5 178.8,269.5 181.8,269.4 184.7,269.2 190.6,269.1 193.6,268.7 202.4,268.4 214.2,268.2 217.2,268.0 220.1,267.9 243.7,267.8 249.6,267.7 264.4,267.6 267.3,267.5 270.3,267.4 282.1,267.3 285.0,266.9 288.0,266.5 290.9,265.5 293.9,265.3 314.5,265.2 323.4,265.2 329.3,265.1 332.2,265.0 335.2,264.6 338.1,264.6 341.1,264.5 344.0,264.2 347.0,264.0 358.8,263.6 364.7,263.6 376.5,263.5 379.4,263.1 382.4,263.0 385.3,262.9 391.2,262.8 394.2,261.2 397.1,259.7 400.1,259.2 403.0,258.8 406.0,258.6 408.9,258.3 411.9,257.7 414.8,257.3 417.8,257.1 420.7,256.9 426.6,256.7 429.6,256.1 432.5,255.5 435.5,254.9 438.4,254.5 444.3,254.3 450.2,254.3 453.2,253.7 456.1,253.3 459.1,252.3 462.0,251.6 464.9,251.0 467.9,250.4 470.8,249.7 473.8,249.0 476.7,248.3 479.7,247.4 482.6,246.7 485.6,246.0 488.5,245.5 491.5,245.0 494.4,244.4 497.4,244.0 500.3,243.7 503.3,243.3 506.2,243.1 509.2,243.0 515.1,242.9 518.0,241.4 521.0,240.3 523.9,240.1 526.9,240.0 532.8,239.8 535.7,239.6 547.5,239.5 553.4,239.4 562.3,239.3 565.2,237.5 568.2,235.8 571.1,235.4 574.1,234.0 577.0,232.9 580.0,232.2 582.9,231.8 585.9,231.1 588.8,230.8 591.8,230.7 594.7,230.4 597.7,230.2 615.4,229.0 618.3,227.5 621.3,227.2 624.2,227.0 627.2,226.9 647.8,226.8 674.4,225.2 677.3,224.0 680.3,222.5 683.2,220.4 686.2,220.0 689.1,219.3 692.1,218.1 695.0,217.2 698.0,215.1 700.9,212.0 703.9,209.0 706.8,205.5 709.8,201.8 712.7,198.6 715.7,196.6 718.6,194.2 721.6,190.7 724.5,187.7 727.5,185.7 730.4,183.6 733.4,180.7 736.3,178.8 739.3,177.0 742.2,175.4 745.2,174.2 748.1,172.6 751.1,171.6 754.0,170.5 757.0,169.6 759.9,166.8 762.9,164.6 765.8,163.3 768.8,163.0 771.7,162.3 774.7,161.1 777.6,160.1 780.6,158.3 783.5,157.1 786.5,156.0 789.4,155.9 792.4,155.4 795.3,154.6 798.3,152.4 801.2,148.7 804.2,145.0 807.1,141.2 810.1,138.1 813.0,134.5 816.0,130.7 818.9,126.8 821.9,123.2 824.8,120.6 827.8,118.5 830.7,116.1 833.7,113.8 836.6,112.3 839.6,110.4 842.5,109.0 845.5,107.0 848.4,104.4 851.4,101.1 854.3,98.4 857.3,96.1 860.2,94.5 863.2,93.1 866.1,91.8 869.1,90.2 872.0,90.0" fill="none" stroke="#38bdf8" stroke-width="2.5" stroke-linejoin="round" stroke-linecap="round"/>
<circle cx="872.0" cy="90.0" r="4" fill="#0ea5e9"/>
<text x="866.0" y="80.0" text-anchor="end" font-family="Inter, system-ui, sans-serif" font-size="13" font-weight="700" fill="#334155">2370</text>
<text x="52.0" y="294" text-anchor="middle" font-family="Inter, system-ui, sans-serif" font-size="11" fill="#94a3b8">Jun 10 05:00</text>
<text x="535.7" y="294" text-anchor="middle" font-family="Inter, system-ui, sans-serif" font-size="11" fill="#94a3b8">Jun 17 01:00</text>
<text x="872.0" y="294" text-anchor="middle" font-family="Inter, system-ui, sans-serif" font-size="11" fill="#94a3b8">Jun 21 19:00</text>
</svg>
