<svg xmlns="http://www.w3.org/2000/svg" width="900" height="320" viewBox="0 0 900 320" role="img" aria-labelledby="title desc">
<title id="title">Unsorry proofs over time</title>
<desc id="desc">Cumulative kernel-verified proofs over time, by the hour each proof was merged.</desc>
<rect width="900" height="100%" rx="18" fill="#ffffff"/>
<rect x="0.5" y="0.5" width="899" height="319" rx="18" fill="none" stroke="#e2e8f0"/>
<text x="32" y="44" font-family="Inter, system-ui, sans-serif" font-size="28" font-weight="700" fill="#334155">Unsorry — Proofs Over Time</text>
<text x="32" y="72" font-family="Inter, system-ui, sans-serif" font-size="13" fill="#64748b">1755 cumulative kernel-verified proofs · merged, hourly</text>
<line x1="52" y1="272.0" x2="872" y2="272.0" stroke="#f1f5f9"/>
<text x="44" y="276.0" text-anchor="end" font-family="Inter, system-ui, sans-serif" font-size="11" fill="#94a3b8">0</text>
<line x1="52" y1="226.5" x2="872" y2="226.5" stroke="#f1f5f9"/>
<text x="44" y="230.5" text-anchor="end" font-family="Inter, system-ui, sans-serif" font-size="11" fill="#94a3b8">439</text>
<line x1="52" y1="180.9" x2="872" y2="180.9" stroke="#f1f5f9"/>
<text x="44" y="184.9" text-anchor="end" font-family="Inter, system-ui, sans-serif" font-size="11" fill="#94a3b8">878</text>
<line x1="52" y1="135.5" x2="872" y2="135.5" stroke="#f1f5f9"/>
<text x="44" y="139.5" text-anchor="end" font-family="Inter, system-ui, sans-serif" font-size="11" fill="#94a3b8">1316</text>
<line x1="52" y1="90.0" x2="872" y2="90.0" stroke="#f1f5f9"/>
<text x="44" y="94.0" text-anchor="end" font-family="Inter, system-ui, sans-serif" font-size="11" fill="#94a3b8">1755</text>
<polygon points="52.0,272.0 52.0,271.9 55.2,271.7 93.3,270.7 96.5,270.3 99.7,270.2 109.2,270.1 128.3,270.0 169.6,269.9 172.8,269.0 176.0,268.9 185.5,268.7 188.7,268.6 191.8,268.5 195.0,268.2 201.4,268.1 204.6,267.5 214.1,267.1 226.8,266.9 230.0,266.6 233.2,266.4 258.6,266.3 264.9,266.2 280.8,266.1 284.0,266.0 287.2,265.8 299.9,265.7 303.1,265.1 306.3,264.5 309.4,263.2 312.6,263.0 334.9,262.9 344.4,262.8 350.8,262.7 353.9,262.6 357.1,262.0 360.3,261.9 363.5,261.8 366.7,261.5 369.8,261.2 382.5,260.7 388.9,260.6 401.6,260.5 404.8,260.0 408.0,259.9 411.1,259.7 417.5,259.6 420.7,257.5 423.9,255.4 427.0,254.7 430.2,254.2 433.4,254.0 436.6,253.4 439.8,252.7 442.9,252.2 446.1,251.9 449.3,251.7 455.6,251.4 458.8,250.5 462.0,249.7 465.2,248.9 468.4,248.4 474.7,248.1 481.1,248.0 484.2,247.3 487.4,246.8 490.6,245.3 493.8,244.5 497.0,243.7 500.1,242.9 503.3,241.9 506.5,241.0 509.7,240.0 512.9,238.8 516.0,237.8 519.2,236.8 522.4,236.2 525.6,235.5 528.7,234.7 531.9,234.3 535.1,233.7 538.3,233.2 541.5,233.0 544.6,232.8 551.0,232.7 554.2,230.6 557.3,229.2 560.5,228.9 563.7,228.8 570.1,228.5 573.2,228.2 586.0,228.1 592.3,227.9 601.8,227.8 605.0,225.4 608.2,223.2 611.4,222.5 614.6,220.7 617.7,219.2 620.9,218.3 624.1,217.8 627.3,216.8 630.4,216.4 633.6,216.2 636.8,215.8 640.0,215.6 659.1,213.9 662.2,211.9 665.4,211.5 668.6,211.2 671.8,211.1 694.0,211.0 722.6,208.8 725.8,207.2 729.0,205.2 732.2,202.3 735.3,201.8 738.5,200.9 741.7,199.2 744.9,198.0 748.0,195.2 751.2,191.0 754.4,187.0 757.6,182.2 760.8,177.2 763.9,172.9 767.1,170.2 770.3,166.9 773.5,162.2 776.7,158.1 779.8,155.4 783.0,152.6 786.2,148.7 789.4,146.2 792.5,143.7 795.7,141.5 798.9,139.9 802.1,137.7 805.3,136.4 808.4,134.9 811.6,133.7 814.8,129.9 818.0,126.9 821.1,125.3 824.3,124.7 827.5,123.8 830.7,122.3 833.9,120.9 837.0,118.4 840.2,116.9 843.4,115.4 846.6,115.2 849.8,114.6 852.9,113.4 856.1,110.4 859.3,105.6 862.5,100.5 865.6,95.4 868.8,91.2 872.0,90.0 872.0,272.0" fill="#e0f2fe" opacity="0.55"/>
<polyline points="52.0,271.9 55.2,271.7 93.3,270.7 96.5,270.3 99.7,270.2 109.2,270.1 128.3,270.0 169.6,269.9 172.8,269.0 176.0,268.9 185.5,268.7 188.7,268.6 191.8,268.5 195.0,268.2 201.4,268.1 204.6,267.5 214.1,267.1 226.8,266.9 230.0,266.6 233.2,266.4 258.6,266.3 264.9,266.2 280.8,266.1 284.0,266.0 287.2,265.8 299.9,265.7 303.1,265.1 306.3,264.5 309.4,263.2 312.6,263.0 334.9,262.9 344.4,262.8 350.8,262.7 353.9,262.6 357.1,262.0 360.3,261.9 363.5,261.8 366.7,261.5 369.8,261.2 382.5,260.7 388.9,260.6 401.6,260.5 404.8,260.0 408.0,259.9 411.1,259.7 417.5,259.6 420.7,257.5 423.9,255.4 427.0,254.7 430.2,254.2 433.4,254.0 436.6,253.4 439.8,252.7 442.9,252.2 446.1,251.9 449.3,251.7 455.6,251.4 458.8,250.5 462.0,249.7 465.2,248.9 468.4,248.4 474.7,248.1 481.1,248.0 484.2,247.3 487.4,246.8 490.6,245.3 493.8,244.5 497.0,243.7 500.1,242.9 503.3,241.9 506.5,241.0 509.7,240.0 512.9,238.8 516.0,237.8 519.2,236.8 522.4,236.2 525.6,235.5 528.7,234.7 531.9,234.3 535.1,233.7 538.3,233.2 541.5,233.0 544.6,232.8 551.0,232.7 554.2,230.6 557.3,229.2 560.5,228.9 563.7,228.8 570.1,228.5 573.2,228.2 586.0,228.1 592.3,227.9 601.8,227.8 605.0,225.4 608.2,223.2 611.4,222.5 614.6,220.7 617.7,219.2 620.9,218.3 624.1,217.8 627.3,216.8 630.4,216.4 633.6,216.2 636.8,215.8 640.0,215.6 659.1,213.9 662.2,211.9 665.4,211.5 668.6,211.2 671.8,211.1 694.0,211.0 722.6,208.8 725.8,207.2 729.0,205.2 732.2,202.3 735.3,201.8 738.5,200.9 741.7,199.2 744.9,198.0 748.0,195.2 751.2,191.0 754.4,187.0 757.6,182.2 760.8,177.2 763.9,172.9 767.1,170.2 770.3,166.9 773.5,162.2 776.7,158.1 779.8,155.4 783.0,152.6 786.2,148.7 789.4,146.2 792.5,143.7 795.7,141.5 798.9,139.9 802.1,137.7 805.3,136.4 808.4,134.9 811.6,133.7 814.8,129.9 818.0,126.9 821.1,125.3 824.3,124.7 827.5,123.8 830.7,122.3 833.9,120.9 837.0,118.4 840.2,116.9 843.4,115.4 846.6,115.2 849.8,114.6 852.9,113.4 856.1,110.4 859.3,105.6 862.5,100.5 865.6,95.4 868.8,91.2 872.0,90.0" fill="none" stroke="#38bdf8" stroke-width="2.5" stroke-linejoin="round" stroke-linecap="round"/>
<circle cx="872.0" cy="90.0" r="4" fill="#0ea5e9"/>
<text x="866.0" y="80.0" text-anchor="end" font-family="Inter, system-ui, sans-serif" font-size="13" font-weight="700" fill="#334155">1755</text>
<text x="52.0" y="294" text-anchor="middle" font-family="Inter, system-ui, sans-serif" font-size="11" fill="#94a3b8">Jun 10 05:00</text>
<text x="535.1" y="294" text-anchor="middle" font-family="Inter, system-ui, sans-serif" font-size="11" fill="#94a3b8">Jun 16 13:00</text>
<text x="872.0" y="294" text-anchor="middle" font-family="Inter, system-ui, sans-serif" font-size="11" fill="#94a3b8">Jun 20 23:00</text>
</svg>
