<svg xmlns="http://www.w3.org/2000/svg" width="900" height="320" viewBox="0 0 900 320" role="img" aria-labelledby="title desc">
<title id="title">unsorry proofs over time</title>
<desc id="desc">Cumulative kernel-verified proofs over time, by the hour each proof was merged.</desc>
<rect width="900" height="100%" rx="18" fill="#ffffff"/>
<rect x="0.5" y="0.5" width="899" height="319" rx="18" fill="none" stroke="#e2e8f0"/>
<text x="32" y="44" font-family="Inter, system-ui, sans-serif" font-size="28" font-weight="700" fill="#334155">unsorry — Proofs Over Time</text>
<text x="32" y="72" font-family="Inter, system-ui, sans-serif" font-size="13" fill="#64748b">4106 cumulative kernel-verified proofs · merged, hourly</text>
<line x1="52" y1="272.0" x2="872" y2="272.0" stroke="#f1f5f9"/>
<text x="44" y="276.0" text-anchor="end" font-family="Inter, system-ui, sans-serif" font-size="11" fill="#94a3b8">0</text>
<line x1="52" y1="226.5" x2="872" y2="226.5" stroke="#f1f5f9"/>
<text x="44" y="230.5" text-anchor="end" font-family="Inter, system-ui, sans-serif" font-size="11" fill="#94a3b8">1026</text>
<line x1="52" y1="181.0" x2="872" y2="181.0" stroke="#f1f5f9"/>
<text x="44" y="185.0" text-anchor="end" font-family="Inter, system-ui, sans-serif" font-size="11" fill="#94a3b8">2053</text>
<line x1="52" y1="135.5" x2="872" y2="135.5" stroke="#f1f5f9"/>
<text x="44" y="139.5" text-anchor="end" font-family="Inter, system-ui, sans-serif" font-size="11" fill="#94a3b8">3080</text>
<line x1="52" y1="90.0" x2="872" y2="90.0" stroke="#f1f5f9"/>
<text x="44" y="94.0" text-anchor="end" font-family="Inter, system-ui, sans-serif" font-size="11" fill="#94a3b8">4106</text>
<polygon points="52.0,272.0 52.0,272.0 54.3,271.9 81.4,271.4 83.6,271.3 85.9,271.2 92.7,271.2 106.2,271.2 135.6,271.1 137.8,270.7 140.1,270.7 146.9,270.6 149.1,270.5 151.4,270.5 153.7,270.4 158.2,270.3 160.4,270.1 167.2,269.9 176.2,269.8 178.5,269.7 180.8,269.6 198.8,269.6 203.3,269.5 214.6,269.5 216.9,269.4 219.2,269.3 228.2,269.3 230.5,269.0 232.7,268.8 235.0,268.2 237.2,268.1 253.0,268.1 259.8,268.1 264.3,268.0 266.6,268.0 268.9,267.7 271.1,267.7 273.4,267.7 275.6,267.5 277.9,267.4 286.9,267.2 291.4,267.1 300.5,267.1 302.7,266.9 305.0,266.8 307.3,266.7 311.8,266.7 314.0,265.8 316.3,264.9 318.6,264.6 320.8,264.4 323.1,264.3 325.3,264.1 327.6,263.8 329.9,263.5 332.1,263.4 334.4,263.3 338.9,263.2 341.1,262.8 343.4,262.5 345.7,262.1 347.9,261.9 352.4,261.8 357.0,261.8 359.2,261.5 361.5,261.2 363.7,260.6 366.0,260.3 368.3,259.9 370.5,259.5 372.8,259.1 375.0,258.7 377.3,258.3 379.5,257.8 381.8,257.4 384.1,257.0 386.3,256.7 388.6,256.4 390.8,256.0 393.1,255.9 395.4,255.6 397.6,255.4 399.9,255.3 402.1,255.2 406.7,255.2 408.9,254.3 411.2,253.7 413.4,253.6 415.7,253.5 420.2,253.4 422.5,253.3 431.5,253.3 436.0,253.2 442.8,253.1 445.1,252.1 447.3,251.1 449.6,250.9 451.8,250.1 454.1,249.4 456.4,249.0 458.6,248.8 460.9,248.4 463.1,248.2 465.4,248.2 467.6,248.0 469.9,247.9 483.5,247.2 485.7,246.3 488.0,246.2 490.2,246.0 492.5,246.0 508.3,245.9 528.6,245.0 530.9,244.3 533.2,243.5 535.4,242.2 537.7,242.0 539.9,241.6 542.2,240.9 544.5,240.4 546.7,239.2 549.0,237.4 551.2,235.7 553.5,233.6 555.7,231.5 558.0,229.6 560.3,228.5 562.5,227.1 564.8,225.1 567.0,223.3 569.3,222.2 571.6,221.0 573.8,219.3 576.1,218.2 578.3,217.2 580.6,216.2 582.9,215.5 585.1,214.6 587.4,214.0 589.6,213.4 591.9,212.9 594.1,211.3 596.4,210.0 598.7,209.3 600.9,209.1 603.2,208.7 605.4,208.0 607.7,207.4 610.0,206.4 612.2,205.7 614.5,205.1 616.7,205.0 619.0,204.7 621.3,204.2 623.5,202.9 625.8,200.9 628.0,198.7 630.3,196.5 632.6,194.7 634.8,192.7 637.1,190.4 639.3,188.2 641.6,186.1 643.8,184.6 646.1,183.4 648.4,182.0 650.6,180.7 652.9,179.8 655.1,178.7 657.4,177.9 659.7,176.8 661.9,175.2 664.2,173.4 666.4,171.8 668.7,170.5 671.0,169.6 673.2,168.8 675.5,168.0 677.7,167.1 680.0,165.6 682.2,164.3 684.5,162.7 686.8,161.1 689.0,159.8 691.3,158.7 693.5,158.3 695.8,157.7 698.1,157.1 700.3,157.0 702.6,156.9 704.8,156.6 707.1,156.4 709.4,156.4 711.6,156.2 713.9,156.1 720.7,156.0 722.9,156.0 725.2,155.7 727.4,153.9 729.7,152.4 731.9,151.0 734.2,149.4 736.5,148.1 738.7,146.7 741.0,145.2 743.2,143.9 745.5,142.4 747.8,141.1 750.0,139.7 752.3,138.4 754.5,137.1 756.8,135.8 759.1,134.5 761.3,133.4 763.6,132.2 765.8,130.9 768.1,129.7 770.3,128.5 772.6,127.3 774.9,126.5 777.1,125.7 779.4,124.9 781.6,123.8 783.9,122.8 786.2,121.8 788.4,120.6 790.7,119.6 792.9,118.6 795.2,117.6 797.5,116.5 799.7,115.5 802.0,114.5 804.2,113.4 806.5,112.5 808.7,111.4 811.0,110.6 813.3,109.7 815.5,108.7 817.8,107.8 820.0,106.9 822.3,106.2 824.6,105.6 826.8,105.2 829.1,105.0 831.3,104.1 833.6,103.3 835.9,102.4 838.1,101.4 840.4,100.7 842.6,99.8 844.9,99.0 847.2,98.1 849.4,97.3 851.7,96.6 853.9,95.8 856.2,95.1 858.4,94.2 860.7,93.5 863.0,92.7 865.2,91.9 867.5,91.1 869.7,90.4 872.0,90.0 872.0,272.0" fill="#e0f2fe" opacity="0.55"/>
<polyline points="52.0,272.0 54.3,271.9 81.4,271.4 83.6,271.3 85.9,271.2 92.7,271.2 106.2,271.2 135.6,271.1 137.8,270.7 140.1,270.7 146.9,270.6 149.1,270.5 151.4,270.5 153.7,270.4 158.2,270.3 160.4,270.1 167.2,269.9 176.2,269.8 178.5,269.7 180.8,269.6 198.8,269.6 203.3,269.5 214.6,269.5 216.9,269.4 219.2,269.3 228.2,269.3 230.5,269.0 232.7,268.8 235.0,268.2 237.2,268.1 253.0,268.1 259.8,268.1 264.3,268.0 266.6,268.0 268.9,267.7 271.1,267.7 273.4,267.7 275.6,267.5 277.9,267.4 286.9,267.2 291.4,267.1 300.5,267.1 302.7,266.9 305.0,266.8 307.3,266.7 311.8,266.7 314.0,265.8 316.3,264.9 318.6,264.6 320.8,264.4 323.1,264.3 325.3,264.1 327.6,263.8 329.9,263.5 332.1,263.4 334.4,263.3 338.9,263.2 341.1,262.8 343.4,262.5 345.7,262.1 347.9,261.9 352.4,261.8 357.0,261.8 359.2,261.5 361.5,261.2 363.7,260.6 366.0,260.3 368.3,259.9 370.5,259.5 372.8,259.1 375.0,258.7 377.3,258.3 379.5,257.8 381.8,257.4 384.1,257.0 386.3,256.7 388.6,256.4 390.8,256.0 393.1,255.9 395.4,255.6 397.6,255.4 399.9,255.3 402.1,255.2 406.7,255.2 408.9,254.3 411.2,253.7 413.4,253.6 415.7,253.5 420.2,253.4 422.5,253.3 431.5,253.3 436.0,253.2 442.8,253.1 445.1,252.1 447.3,251.1 449.6,250.9 451.8,250.1 454.1,249.4 456.4,249.0 458.6,248.8 460.9,248.4 463.1,248.2 465.4,248.2 467.6,248.0 469.9,247.9 483.5,247.2 485.7,246.3 488.0,246.2 490.2,246.0 492.5,246.0 508.3,245.9 528.6,245.0 530.9,244.3 533.2,243.5 535.4,242.2 537.7,242.0 539.9,241.6 542.2,240.9 544.5,240.4 546.7,239.2 549.0,237.4 551.2,235.7 553.5,233.6 555.7,231.5 558.0,229.6 560.3,228.5 562.5,227.1 564.8,225.1 567.0,223.3 569.3,222.2 571.6,221.0 573.8,219.3 576.1,218.2 578.3,217.2 580.6,216.2 582.9,215.5 585.1,214.6 587.4,214.0 589.6,213.4 591.9,212.9 594.1,211.3 596.4,210.0 598.7,209.3 600.9,209.1 603.2,208.7 605.4,208.0 607.7,207.4 610.0,206.4 612.2,205.7 614.5,205.1 616.7,205.0 619.0,204.7 621.3,204.2 623.5,202.9 625.8,200.9 628.0,198.7 630.3,196.5 632.6,194.7 634.8,192.7 637.1,190.4 639.3,188.2 641.6,186.1 643.8,184.6 646.1,183.4 648.4,182.0 650.6,180.7 652.9,179.8 655.1,178.7 657.4,177.9 659.7,176.8 661.9,175.2 664.2,173.4 666.4,171.8 668.7,170.5 671.0,169.6 673.2,168.8 675.5,168.0 677.7,167.1 680.0,165.6 682.2,164.3 684.5,162.7 686.8,161.1 689.0,159.8 691.3,158.7 693.5,158.3 695.8,157.7 698.1,157.1 700.3,157.0 702.6,156.9 704.8,156.6 707.1,156.4 709.4,156.4 711.6,156.2 713.9,156.1 720.7,156.0 722.9,156.0 725.2,155.7 727.4,153.9 729.7,152.4 731.9,151.0 734.2,149.4 736.5,148.1 738.7,146.7 741.0,145.2 743.2,143.9 745.5,142.4 747.8,141.1 750.0,139.7 752.3,138.4 754.5,137.1 756.8,135.8 759.1,134.5 761.3,133.4 763.6,132.2 765.8,130.9 768.1,129.7 770.3,128.5 772.6,127.3 774.9,126.5 777.1,125.7 779.4,124.9 781.6,123.8 783.9,122.8 786.2,121.8 788.4,120.6 790.7,119.6 792.9,118.6 795.2,117.6 797.5,116.5 799.7,115.5 802.0,114.5 804.2,113.4 806.5,112.5 808.7,111.4 811.0,110.6 813.3,109.7 815.5,108.7 817.8,107.8 820.0,106.9 822.3,106.2 824.6,105.6 826.8,105.2 829.1,105.0 831.3,104.1 833.6,103.3 835.9,102.4 838.1,101.4 840.4,100.7 842.6,99.8 844.9,99.0 847.2,98.1 849.4,97.3 851.7,96.6 853.9,95.8 856.2,95.1 858.4,94.2 860.7,93.5 863.0,92.7 865.2,91.9 867.5,91.1 869.7,90.4 872.0,90.0" fill="none" stroke="#38bdf8" stroke-width="2.5" stroke-linejoin="round" stroke-linecap="round"/>
<circle cx="872.0" cy="90.0" r="4" fill="#0ea5e9"/>
<text x="866.0" y="80.0" text-anchor="end" font-family="Inter, system-ui, sans-serif" font-size="13" font-weight="700" fill="#334155">4106</text>
<text x="52.0" y="294" text-anchor="middle" font-family="Inter, system-ui, sans-serif" font-size="11" fill="#94a3b8">Jun 10 05:00</text>
<text x="573.8" y="294" text-anchor="middle" font-family="Inter, system-ui, sans-serif" font-size="11" fill="#94a3b8">Jun 19 20:00</text>
<text x="872.0" y="294" text-anchor="middle" font-family="Inter, system-ui, sans-serif" font-size="11" fill="#94a3b8">Jun 25 08:00</text>
</svg>
