<svg xmlns="http://www.w3.org/2000/svg" width="900" height="320" viewBox="0 0 900 320" role="img" aria-labelledby="title desc">
<title id="title">unsorry proofs over time</title>
<desc id="desc">Cumulative kernel-verified proofs over time, by the hour each proof was merged.</desc>
<rect width="900" height="100%" rx="18" fill="#ffffff"/>
<rect x="0.5" y="0.5" width="899" height="319" rx="18" fill="none" stroke="#e2e8f0"/>
<text x="32" y="44" font-family="Inter, system-ui, sans-serif" font-size="28" font-weight="700" fill="#334155">unsorry — Proofs Over Time</text>
<text x="32" y="72" font-family="Inter, system-ui, sans-serif" font-size="13" fill="#64748b">4371 cumulative kernel-verified proofs · merged, hourly</text>
<line x1="52" y1="272.0" x2="872" y2="272.0" stroke="#f1f5f9"/>
<text x="44" y="276.0" text-anchor="end" font-family="Inter, system-ui, sans-serif" font-size="11" fill="#94a3b8">0</text>
<line x1="52" y1="226.5" x2="872" y2="226.5" stroke="#f1f5f9"/>
<text x="44" y="230.5" text-anchor="end" font-family="Inter, system-ui, sans-serif" font-size="11" fill="#94a3b8">1093</text>
<line x1="52" y1="181.0" x2="872" y2="181.0" stroke="#f1f5f9"/>
<text x="44" y="185.0" text-anchor="end" font-family="Inter, system-ui, sans-serif" font-size="11" fill="#94a3b8">2186</text>
<line x1="52" y1="135.5" x2="872" y2="135.5" stroke="#f1f5f9"/>
<text x="44" y="139.5" text-anchor="end" font-family="Inter, system-ui, sans-serif" font-size="11" fill="#94a3b8">3278</text>
<line x1="52" y1="90.0" x2="872" y2="90.0" stroke="#f1f5f9"/>
<text x="44" y="94.0" text-anchor="end" font-family="Inter, system-ui, sans-serif" font-size="11" fill="#94a3b8">4371</text>
<polygon points="52.0,272.0 52.0,272.0 54.2,271.9 80.1,271.5 82.3,271.3 84.5,271.3 90.9,271.3 103.9,271.2 132.1,271.2 134.2,270.8 136.4,270.8 142.9,270.7 145.0,270.6 147.2,270.6 149.4,270.5 153.7,270.4 155.9,270.2 162.3,270.0 171.0,270.0 173.2,269.8 175.3,269.8 192.6,269.7 197.0,269.7 207.8,269.6 209.9,269.6 212.1,269.5 220.8,269.5 222.9,269.2 225.1,269.0 227.3,268.5 229.4,268.4 244.6,268.3 251.1,268.3 255.4,268.3 257.5,268.2 259.7,268.0 261.9,268.0 264.0,267.9 266.2,267.8 268.4,267.7 277.0,267.5 281.3,267.4 290.0,267.4 292.2,267.2 294.3,267.1 296.5,267.0 300.8,267.0 303.0,266.2 305.1,265.3 307.3,265.0 309.5,264.8 311.6,264.8 313.8,264.5 316.0,264.3 318.1,264.0 320.3,263.9 322.4,263.8 326.8,263.7 328.9,263.4 331.1,263.0 333.3,262.7 335.4,262.5 339.8,262.4 344.1,262.4 346.2,262.1 348.4,261.9 350.6,261.3 352.7,261.0 354.9,260.6 357.1,260.3 359.2,259.9 361.4,259.6 363.6,259.1 365.7,258.7 367.9,258.3 370.0,257.9 372.2,257.6 374.4,257.3 376.5,257.0 378.7,256.8 380.9,256.6 383.0,256.4 385.2,256.3 387.4,256.3 391.7,256.2 393.8,255.4 396.0,254.8 398.2,254.7 400.3,254.6 404.7,254.6 406.8,254.4 415.5,254.4 419.8,254.3 426.3,254.3 428.5,253.3 430.6,252.4 432.8,252.1 435.0,251.4 437.1,250.8 439.3,250.4 441.4,250.2 443.6,249.8 445.8,249.7 447.9,249.6 450.1,249.4 452.3,249.3 465.2,248.7 467.4,247.8 469.6,247.7 471.7,247.6 473.9,247.6 489.0,247.5 508.5,246.6 510.7,246.0 512.8,245.2 515.0,244.0 517.2,243.8 519.3,243.4 521.5,242.8 523.7,242.3 525.8,241.1 528.0,239.5 530.2,237.9 532.3,235.9 534.5,233.9 536.6,232.2 538.8,231.1 541.0,229.8 543.1,227.9 545.3,226.3 547.5,225.2 549.6,224.1 551.8,222.5 554.0,221.5 556.1,220.5 558.3,219.6 560.4,219.0 562.6,218.1 564.8,217.5 566.9,217.0 569.1,216.5 571.3,215.0 573.4,213.7 575.6,213.1 577.8,212.9 579.9,212.5 582.1,211.9 584.2,211.3 586.4,210.3 588.6,209.7 590.7,209.1 592.9,209.0 595.1,208.8 597.2,208.3 599.4,207.1 601.6,205.2 603.7,203.1 605.9,201.1 608.0,199.4 610.2,197.5 612.4,195.4 614.5,193.3 616.7,191.3 618.9,189.9 621.0,188.8 623.2,187.5 625.4,186.2 627.5,185.4 629.7,184.4 631.8,183.6 634.0,182.6 636.2,181.1 638.3,179.4 640.5,177.9 642.7,176.6 644.8,175.8 647.0,175.0 649.2,174.3 651.3,173.4 653.5,172.0 655.6,170.8 657.8,169.4 660.0,167.9 662.1,166.6 664.3,165.6 666.5,165.2 668.6,164.6 670.8,164.0 672.9,163.9 675.1,163.9 677.3,163.6 679.4,163.4 681.6,163.4 683.8,163.2 685.9,163.1 692.4,163.1 694.6,163.0 696.7,162.8 698.9,161.1 701.1,159.6 703.2,158.3 705.4,156.9 707.6,155.6 709.7,154.3 711.9,152.9 714.1,151.7 716.2,150.3 718.4,149.0 720.5,147.8 722.7,146.5 724.9,145.3 727.0,144.0 729.2,142.8 731.4,141.8 733.5,140.6 735.7,139.5 737.9,138.3 740.0,137.2 742.2,136.1 744.3,135.3 746.5,134.6 748.7,133.8 750.8,132.8 753.0,131.8 755.2,130.9 757.3,129.8 759.5,128.8 761.7,127.9 763.8,126.9 766.0,125.9 768.1,125.0 770.3,124.1 772.5,123.0 774.6,122.1 776.8,121.1 779.0,120.4 781.1,119.6 783.3,118.6 785.5,117.7 787.6,116.9 789.8,116.3 791.9,115.6 794.1,115.3 796.3,115.1 798.4,114.3 800.6,113.5 802.8,112.7 804.9,111.8 807.1,111.1 809.3,110.2 811.4,109.4 813.6,108.7 815.7,107.9 817.9,107.2 820.1,106.5 822.2,105.8 824.4,104.9 826.6,104.3 828.7,103.5 830.9,102.8 833.1,102.1 835.2,101.5 837.4,100.6 839.5,100.0 841.7,99.5 843.9,98.6 846.0,97.7 848.2,97.1 850.4,96.3 852.5,95.5 854.7,95.0 856.9,94.3 859.0,93.5 861.2,92.9 863.3,92.5 865.5,91.8 867.7,91.1 869.8,90.3 872.0,90.0 872.0,272.0" fill="#e0f2fe" opacity="0.55"/>
<polyline points="52.0,272.0 54.2,271.9 80.1,271.5 82.3,271.3 84.5,271.3 90.9,271.3 103.9,271.2 132.1,271.2 134.2,270.8 136.4,270.8 142.9,270.7 145.0,270.6 147.2,270.6 149.4,270.5 153.7,270.4 155.9,270.2 162.3,270.0 171.0,270.0 173.2,269.8 175.3,269.8 192.6,269.7 197.0,269.7 207.8,269.6 209.9,269.6 212.1,269.5 220.8,269.5 222.9,269.2 225.1,269.0 227.3,268.5 229.4,268.4 244.6,268.3 251.1,268.3 255.4,268.3 257.5,268.2 259.7,268.0 261.9,268.0 264.0,267.9 266.2,267.8 268.4,267.7 277.0,267.5 281.3,267.4 290.0,267.4 292.2,267.2 294.3,267.1 296.5,267.0 300.8,267.0 303.0,266.2 305.1,265.3 307.3,265.0 309.5,264.8 311.6,264.8 313.8,264.5 316.0,264.3 318.1,264.0 320.3,263.9 322.4,263.8 326.8,263.7 328.9,263.4 331.1,263.0 333.3,262.7 335.4,262.5 339.8,262.4 344.1,262.4 346.2,262.1 348.4,261.9 350.6,261.3 352.7,261.0 354.9,260.6 357.1,260.3 359.2,259.9 361.4,259.6 363.6,259.1 365.7,258.7 367.9,258.3 370.0,257.9 372.2,257.6 374.4,257.3 376.5,257.0 378.7,256.8 380.9,256.6 383.0,256.4 385.2,256.3 387.4,256.3 391.7,256.2 393.8,255.4 396.0,254.8 398.2,254.7 400.3,254.6 404.7,254.6 406.8,254.4 415.5,254.4 419.8,254.3 426.3,254.3 428.5,253.3 430.6,252.4 432.8,252.1 435.0,251.4 437.1,250.8 439.3,250.4 441.4,250.2 443.6,249.8 445.8,249.7 447.9,249.6 450.1,249.4 452.3,249.3 465.2,248.7 467.4,247.8 469.6,247.7 471.7,247.6 473.9,247.6 489.0,247.5 508.5,246.6 510.7,246.0 512.8,245.2 515.0,244.0 517.2,243.8 519.3,243.4 521.5,242.8 523.7,242.3 525.8,241.1 528.0,239.5 530.2,237.9 532.3,235.9 534.5,233.9 536.6,232.2 538.8,231.1 541.0,229.8 543.1,227.9 545.3,226.3 547.5,225.2 549.6,224.1 551.8,222.5 554.0,221.5 556.1,220.5 558.3,219.6 560.4,219.0 562.6,218.1 564.8,217.5 566.9,217.0 569.1,216.5 571.3,215.0 573.4,213.7 575.6,213.1 577.8,212.9 579.9,212.5 582.1,211.9 584.2,211.3 586.4,210.3 588.6,209.7 590.7,209.1 592.9,209.0 595.1,208.8 597.2,208.3 599.4,207.1 601.6,205.2 603.7,203.1 605.9,201.1 608.0,199.4 610.2,197.5 612.4,195.4 614.5,193.3 616.7,191.3 618.9,189.9 621.0,188.8 623.2,187.5 625.4,186.2 627.5,185.4 629.7,184.4 631.8,183.6 634.0,182.6 636.2,181.1 638.3,179.4 640.5,177.9 642.7,176.6 644.8,175.8 647.0,175.0 649.2,174.3 651.3,173.4 653.5,172.0 655.6,170.8 657.8,169.4 660.0,167.9 662.1,166.6 664.3,165.6 666.5,165.2 668.6,164.6 670.8,164.0 672.9,163.9 675.1,163.9 677.3,163.6 679.4,163.4 681.6,163.4 683.8,163.2 685.9,163.1 692.4,163.1 694.6,163.0 696.7,162.8 698.9,161.1 701.1,159.6 703.2,158.3 705.4,156.9 707.6,155.6 709.7,154.3 711.9,152.9 714.1,151.7 716.2,150.3 718.4,149.0 720.5,147.8 722.7,146.5 724.9,145.3 727.0,144.0 729.2,142.8 731.4,141.8 733.5,140.6 735.7,139.5 737.9,138.3 740.0,137.2 742.2,136.1 744.3,135.3 746.5,134.6 748.7,133.8 750.8,132.8 753.0,131.8 755.2,130.9 757.3,129.8 759.5,128.8 761.7,127.9 763.8,126.9 766.0,125.9 768.1,125.0 770.3,124.1 772.5,123.0 774.6,122.1 776.8,121.1 779.0,120.4 781.1,119.6 783.3,118.6 785.5,117.7 787.6,116.9 789.8,116.3 791.9,115.6 794.1,115.3 796.3,115.1 798.4,114.3 800.6,113.5 802.8,112.7 804.9,111.8 807.1,111.1 809.3,110.2 811.4,109.4 813.6,108.7 815.7,107.9 817.9,107.2 820.1,106.5 822.2,105.8 824.4,104.9 826.6,104.3 828.7,103.5 830.9,102.8 833.1,102.1 835.2,101.5 837.4,100.6 839.5,100.0 841.7,99.5 843.9,98.6 846.0,97.7 848.2,97.1 850.4,96.3 852.5,95.5 854.7,95.0 856.9,94.3 859.0,93.5 861.2,92.9 863.3,92.5 865.5,91.8 867.7,91.1 869.8,90.3 872.0,90.0" fill="none" stroke="#38bdf8" stroke-width="2.5" stroke-linejoin="round" stroke-linecap="round"/>
<circle cx="872.0" cy="90.0" r="4" fill="#0ea5e9"/>
<text x="866.0" y="80.0" text-anchor="end" font-family="Inter, system-ui, sans-serif" font-size="13" font-weight="700" fill="#334155">4371</text>
<text x="52.0" y="294" text-anchor="middle" font-family="Inter, system-ui, sans-serif" font-size="11" fill="#94a3b8">Jun 10 05:00</text>
<text x="569.1" y="294" text-anchor="middle" font-family="Inter, system-ui, sans-serif" font-size="11" fill="#94a3b8">Jun 20 04:00</text>
<text x="872.0" y="294" text-anchor="middle" font-family="Inter, system-ui, sans-serif" font-size="11" fill="#94a3b8">Jun 26 00:00</text>
</svg>
