<svg xmlns="http://www.w3.org/2000/svg" width="900" height="320" viewBox="0 0 900 320" role="img" aria-labelledby="title desc">
<title id="title">Unsorry proofs over time</title>
<desc id="desc">Cumulative kernel-verified proofs over time, by the hour each proof was merged.</desc>
<rect width="900" height="100%" rx="18" fill="#ffffff"/>
<rect x="0.5" y="0.5" width="899" height="319" rx="18" fill="none" stroke="#e2e8f0"/>
<text x="32" y="44" font-family="Inter, system-ui, sans-serif" font-size="28" font-weight="700" fill="#334155">Unsorry — Proofs Over Time</text>
<text x="32" y="72" font-family="Inter, system-ui, sans-serif" font-size="13" fill="#64748b">2407 cumulative kernel-verified proofs · merged, hourly</text>
<line x1="52" y1="272.0" x2="872" y2="272.0" stroke="#f1f5f9"/>
<text x="44" y="276.0" text-anchor="end" font-family="Inter, system-ui, sans-serif" font-size="11" fill="#94a3b8">0</text>
<line x1="52" y1="226.5" x2="872" y2="226.5" stroke="#f1f5f9"/>
<text x="44" y="230.5" text-anchor="end" font-family="Inter, system-ui, sans-serif" font-size="11" fill="#94a3b8">602</text>
<line x1="52" y1="181.0" x2="872" y2="181.0" stroke="#f1f5f9"/>
<text x="44" y="185.0" text-anchor="end" font-family="Inter, system-ui, sans-serif" font-size="11" fill="#94a3b8">1204</text>
<line x1="52" y1="135.5" x2="872" y2="135.5" stroke="#f1f5f9"/>
<text x="44" y="139.5" text-anchor="end" font-family="Inter, system-ui, sans-serif" font-size="11" fill="#94a3b8">1805</text>
<line x1="52" y1="90.0" x2="872" y2="90.0" stroke="#f1f5f9"/>
<text x="44" y="94.0" text-anchor="end" font-family="Inter, system-ui, sans-serif" font-size="11" fill="#94a3b8">2407</text>
<polygon points="52.0,272.0 52.0,271.9 54.9,271.8 90.2,271.0 93.1,270.8 96.1,270.7 104.9,270.6 122.5,270.6 160.7,270.5 163.7,269.8 166.6,269.7 175.4,269.6 178.4,269.5 181.3,269.4 184.3,269.2 190.1,269.1 193.1,268.7 201.9,268.4 213.6,268.3 216.6,268.1 219.5,267.9 243.0,267.8 248.9,267.8 263.6,267.7 266.6,267.6 269.5,267.5 281.2,267.4 284.2,266.9 287.1,266.6 290.1,265.6 293.0,265.4 313.6,265.3 322.4,265.3 328.3,265.2 331.2,265.1 334.2,264.7 337.1,264.7 340.0,264.6 343.0,264.4 345.9,264.1 357.7,263.8 363.5,263.7 375.3,263.6 378.2,263.2 381.2,263.2 384.1,263.0 390.0,262.9 392.9,261.4 395.9,259.9 398.8,259.4 401.7,259.0 404.7,258.8 407.6,258.5 410.6,257.9 413.5,257.6 416.4,257.3 419.4,257.2 425.3,257.0 428.2,256.3 431.1,255.7 434.1,255.1 437.0,254.8 442.9,254.6 448.8,254.5 451.7,254.0 454.7,253.6 457.6,252.6 460.5,252.0 463.5,251.4 466.4,250.8 469.3,250.1 472.3,249.4 475.2,248.6 478.2,247.8 481.1,247.0 484.0,246.4 487.0,245.9 489.9,245.4 492.9,244.8 495.8,244.5 498.7,244.1 501.7,243.7 504.6,243.6 507.6,243.4 513.4,243.3 516.4,241.8 519.3,240.8 522.3,240.5 525.2,240.5 531.1,240.3 534.0,240.1 545.8,240.0 551.6,239.9 560.5,239.8 563.4,238.0 566.3,236.4 569.3,235.9 572.2,234.6 575.2,233.5 578.1,232.8 581.0,232.5 584.0,231.8 586.9,231.5 589.8,231.3 592.8,231.0 595.7,230.9 613.4,229.7 616.3,228.1 619.2,227.9 622.2,227.7 625.1,227.6 645.7,227.5 672.1,226.0 675.1,224.7 678.0,223.3 681.0,221.2 683.9,220.8 686.8,220.1 689.8,218.9 692.7,218.0 695.7,216.0 698.6,212.9 701.5,210.0 704.5,206.5 707.4,202.9 710.4,199.7 713.3,197.7 716.2,195.4 719.2,191.9 722.1,189.0 725.0,187.0 728.0,185.0 730.9,182.1 733.9,180.3 736.8,178.5 739.7,176.9 742.7,175.7 745.6,174.1 748.6,173.1 751.5,172.0 754.4,171.1 757.4,168.4 760.3,166.2 763.3,165.0 766.2,164.6 769.1,163.9 772.1,162.8 775.0,161.8 777.9,160.0 780.9,158.9 783.8,157.8 786.8,157.7 789.7,157.2 792.6,156.4 795.6,154.2 798.5,150.6 801.5,146.9 804.4,143.2 807.3,140.2 810.3,136.7 813.2,132.9 816.2,129.0 819.1,125.5 822.0,122.9 825.0,120.9 827.9,118.5 830.9,116.2 833.8,114.7 836.7,112.9 839.7,111.5 842.6,109.6 845.5,106.9 848.5,103.8 851.4,101.1 854.4,98.8 857.3,97.3 860.2,95.9 863.2,94.5 866.1,93.0 869.1,90.5 872.0,90.0 872.0,272.0" fill="#e0f2fe" opacity="0.55"/>
<polyline points="52.0,271.9 54.9,271.8 90.2,271.0 93.1,270.8 96.1,270.7 104.9,270.6 122.5,270.6 160.7,270.5 163.7,269.8 166.6,269.7 175.4,269.6 178.4,269.5 181.3,269.4 184.3,269.2 190.1,269.1 193.1,268.7 201.9,268.4 213.6,268.3 216.6,268.1 219.5,267.9 243.0,267.8 248.9,267.8 263.6,267.7 266.6,267.6 269.5,267.5 281.2,267.4 284.2,266.9 287.1,266.6 290.1,265.6 293.0,265.4 313.6,265.3 322.4,265.3 328.3,265.2 331.2,265.1 334.2,264.7 337.1,264.7 340.0,264.6 343.0,264.4 345.9,264.1 357.7,263.8 363.5,263.7 375.3,263.6 378.2,263.2 381.2,263.2 384.1,263.0 390.0,262.9 392.9,261.4 395.9,259.9 398.8,259.4 401.7,259.0 404.7,258.8 407.6,258.5 410.6,257.9 413.5,257.6 416.4,257.3 419.4,257.2 425.3,257.0 428.2,256.3 431.1,255.7 434.1,255.1 437.0,254.8 442.9,254.6 448.8,254.5 451.7,254.0 454.7,253.6 457.6,252.6 460.5,252.0 463.5,251.4 466.4,250.8 469.3,250.1 472.3,249.4 475.2,248.6 478.2,247.8 481.1,247.0 484.0,246.4 487.0,245.9 489.9,245.4 492.9,244.8 495.8,244.5 498.7,244.1 501.7,243.7 504.6,243.6 507.6,243.4 513.4,243.3 516.4,241.8 519.3,240.8 522.3,240.5 525.2,240.5 531.1,240.3 534.0,240.1 545.8,240.0 551.6,239.9 560.5,239.8 563.4,238.0 566.3,236.4 569.3,235.9 572.2,234.6 575.2,233.5 578.1,232.8 581.0,232.5 584.0,231.8 586.9,231.5 589.8,231.3 592.8,231.0 595.7,230.9 613.4,229.7 616.3,228.1 619.2,227.9 622.2,227.7 625.1,227.6 645.7,227.5 672.1,226.0 675.1,224.7 678.0,223.3 681.0,221.2 683.9,220.8 686.8,220.1 689.8,218.9 692.7,218.0 695.7,216.0 698.6,212.9 701.5,210.0 704.5,206.5 707.4,202.9 710.4,199.7 713.3,197.7 716.2,195.4 719.2,191.9 722.1,189.0 725.0,187.0 728.0,185.0 730.9,182.1 733.9,180.3 736.8,178.5 739.7,176.9 742.7,175.7 745.6,174.1 748.6,173.1 751.5,172.0 754.4,171.1 757.4,168.4 760.3,166.2 763.3,165.0 766.2,164.6 769.1,163.9 772.1,162.8 775.0,161.8 777.9,160.0 780.9,158.9 783.8,157.8 786.8,157.7 789.7,157.2 792.6,156.4 795.6,154.2 798.5,150.6 801.5,146.9 804.4,143.2 807.3,140.2 810.3,136.7 813.2,132.9 816.2,129.0 819.1,125.5 822.0,122.9 825.0,120.9 827.9,118.5 830.9,116.2 833.8,114.7 836.7,112.9 839.7,111.5 842.6,109.6 845.5,106.9 848.5,103.8 851.4,101.1 854.4,98.8 857.3,97.3 860.2,95.9 863.2,94.5 866.1,93.0 869.1,90.5 872.0,90.0" fill="none" stroke="#38bdf8" stroke-width="2.5" stroke-linejoin="round" stroke-linecap="round"/>
<circle cx="872.0" cy="90.0" r="4" fill="#0ea5e9"/>
<text x="866.0" y="80.0" text-anchor="end" font-family="Inter, system-ui, sans-serif" font-size="13" font-weight="700" fill="#334155">2407</text>
<text x="52.0" y="294" text-anchor="middle" font-family="Inter, system-ui, sans-serif" font-size="11" fill="#94a3b8">Jun 10 05:00</text>
<text x="545.8" y="294" text-anchor="middle" font-family="Inter, system-ui, sans-serif" font-size="11" fill="#94a3b8">Jun 17 05:00</text>
<text x="872.0" y="294" text-anchor="middle" font-family="Inter, system-ui, sans-serif" font-size="11" fill="#94a3b8">Jun 21 20:00</text>
</svg>
