<svg xmlns="http://www.w3.org/2000/svg" width="900" height="320" viewBox="0 0 900 320" role="img" aria-labelledby="title desc">
<title id="title">unsorry proofs over time</title>
<desc id="desc">Cumulative kernel-verified proofs over time, by the hour each proof was merged.</desc>
<rect width="900" height="100%" rx="18" fill="#ffffff"/>
<rect x="0.5" y="0.5" width="899" height="319" rx="18" fill="none" stroke="#e2e8f0"/>
<text x="32" y="44" font-family="Inter, system-ui, sans-serif" font-size="28" font-weight="700" fill="#334155">unsorry — Proofs Over Time</text>
<text x="32" y="72" font-family="Inter, system-ui, sans-serif" font-size="13" fill="#64748b">4271 cumulative kernel-verified proofs · merged, hourly</text>
<line x1="52" y1="272.0" x2="872" y2="272.0" stroke="#f1f5f9"/>
<text x="44" y="276.0" text-anchor="end" font-family="Inter, system-ui, sans-serif" font-size="11" fill="#94a3b8">0</text>
<line x1="52" y1="226.5" x2="872" y2="226.5" stroke="#f1f5f9"/>
<text x="44" y="230.5" text-anchor="end" font-family="Inter, system-ui, sans-serif" font-size="11" fill="#94a3b8">1068</text>
<line x1="52" y1="181.0" x2="872" y2="181.0" stroke="#f1f5f9"/>
<text x="44" y="185.0" text-anchor="end" font-family="Inter, system-ui, sans-serif" font-size="11" fill="#94a3b8">2136</text>
<line x1="52" y1="135.5" x2="872" y2="135.5" stroke="#f1f5f9"/>
<text x="44" y="139.5" text-anchor="end" font-family="Inter, system-ui, sans-serif" font-size="11" fill="#94a3b8">3203</text>
<line x1="52" y1="90.0" x2="872" y2="90.0" stroke="#f1f5f9"/>
<text x="44" y="94.0" text-anchor="end" font-family="Inter, system-ui, sans-serif" font-size="11" fill="#94a3b8">4271</text>
<polygon points="52.0,272.0 52.0,272.0 54.2,271.9 80.6,271.4 82.8,271.3 85.0,271.3 91.6,271.2 104.8,271.2 133.3,271.1 135.5,270.8 137.7,270.7 144.3,270.6 146.5,270.6 148.7,270.6 150.9,270.4 155.3,270.4 157.5,270.2 164.1,270.0 172.9,269.9 175.1,269.8 177.3,269.7 194.9,269.7 199.3,269.6 210.3,269.6 212.5,269.5 214.7,269.4 223.5,269.4 225.7,269.1 227.9,268.9 230.1,268.4 232.3,268.3 247.7,268.3 254.3,268.2 258.6,268.2 260.8,268.1 263.0,267.9 265.2,267.9 267.4,267.8 269.6,267.7 271.8,267.6 280.6,267.4 285.0,267.3 293.8,267.3 296.0,267.1 298.2,267.0 300.4,266.9 304.8,266.9 307.0,266.0 309.2,265.2 311.4,264.9 313.6,264.7 315.8,264.6 318.0,264.4 320.2,264.1 322.4,263.9 324.6,263.7 326.8,263.6 331.2,263.5 333.4,263.2 335.6,262.8 337.8,262.5 340.0,262.3 344.4,262.2 348.8,262.2 351.0,261.9 353.2,261.6 355.4,261.0 357.6,260.7 359.8,260.4 362.0,260.0 364.2,259.6 366.4,259.3 368.6,258.8 370.8,258.4 373.0,257.9 375.2,257.6 377.4,257.3 379.6,257.0 381.8,256.7 384.0,256.5 386.2,256.3 388.4,256.1 390.6,256.0 392.8,255.9 397.1,255.8 399.3,255.0 401.5,254.4 403.7,254.3 405.9,254.2 410.3,254.1 412.5,254.0 421.3,254.0 425.7,253.9 432.3,253.8 434.5,252.9 436.7,251.9 438.9,251.7 441.1,250.9 443.3,250.3 445.5,249.9 447.7,249.7 449.9,249.3 452.1,249.2 454.3,249.1 456.5,248.9 458.7,248.8 471.9,248.1 474.1,247.3 476.3,247.2 478.5,247.0 480.7,247.0 496.1,246.9 515.9,246.0 518.1,245.4 520.3,244.6 522.5,243.4 524.7,243.2 526.9,242.8 529.1,242.1 531.2,241.6 533.4,240.4 535.6,238.7 537.8,237.1 540.0,235.1 542.2,233.1 544.4,231.3 546.6,230.2 548.8,228.8 551.0,226.9 553.2,225.2 555.4,224.1 557.6,223.0 559.8,221.3 562.0,220.3 564.2,219.3 566.4,218.4 568.6,217.7 570.8,216.8 573.0,216.3 575.2,215.7 577.4,215.2 579.6,213.6 581.8,212.4 584.0,211.7 586.2,211.5 588.4,211.1 590.6,210.5 592.8,209.9 595.0,208.9 597.2,208.3 599.4,207.7 601.6,207.6 603.8,207.3 606.0,206.8 608.2,205.6 610.4,203.6 612.6,201.5 614.8,199.4 617.0,197.7 619.2,195.7 621.4,193.6 623.6,191.4 625.8,189.4 628.0,188.0 630.2,186.8 632.4,185.5 634.6,184.2 636.8,183.4 639.0,182.3 641.2,181.6 643.4,180.5 645.6,179.0 647.8,177.2 650.0,175.7 652.2,174.4 654.4,173.5 656.6,172.8 658.8,172.0 661.0,171.1 663.2,169.7 665.4,168.5 667.5,167.0 669.7,165.4 671.9,164.1 674.1,163.1 676.3,162.7 678.5,162.1 680.7,161.5 682.9,161.4 685.1,161.3 687.3,161.0 689.5,160.9 691.7,160.9 693.9,160.7 696.1,160.6 702.7,160.5 704.9,160.5 707.1,160.2 709.3,158.5 711.5,157.0 713.7,155.7 715.9,154.2 718.1,152.9 720.3,151.5 722.5,150.1 724.7,148.8 726.9,147.4 729.1,146.2 731.3,144.8 733.5,143.6 735.7,142.3 737.9,141.1 740.1,139.8 742.3,138.7 744.5,137.6 746.7,136.4 748.9,135.2 751.1,134.1 753.3,132.9 755.5,132.1 757.7,131.4 759.9,130.6 762.1,129.5 764.3,128.5 766.5,127.6 768.7,126.4 770.9,125.5 773.1,124.6 775.3,123.5 777.5,122.5 779.7,121.5 781.9,120.6 784.1,119.5 786.3,118.6 788.5,117.6 790.7,116.8 792.9,116.0 795.1,115.0 797.3,114.1 799.5,113.3 801.7,112.6 803.8,112.0 806.0,111.6 808.2,111.5 810.4,110.6 812.6,109.8 814.8,108.9 817.0,108.0 819.2,107.3 821.4,106.4 823.6,105.6 825.8,104.8 828.0,104.1 830.2,103.3 832.4,102.6 834.6,101.9 836.8,101.0 839.0,100.4 841.2,99.6 843.4,98.8 845.6,98.1 847.8,97.5 850.0,96.6 852.2,96.0 854.4,95.4 856.6,94.5 858.8,93.7 861.0,93.0 863.2,92.2 865.4,91.4 867.6,90.8 869.8,90.1 872.0,90.0 872.0,272.0" fill="#e0f2fe" opacity="0.55"/>
<polyline points="52.0,272.0 54.2,271.9 80.6,271.4 82.8,271.3 85.0,271.3 91.6,271.2 104.8,271.2 133.3,271.1 135.5,270.8 137.7,270.7 144.3,270.6 146.5,270.6 148.7,270.6 150.9,270.4 155.3,270.4 157.5,270.2 164.1,270.0 172.9,269.9 175.1,269.8 177.3,269.7 194.9,269.7 199.3,269.6 210.3,269.6 212.5,269.5 214.7,269.4 223.5,269.4 225.7,269.1 227.9,268.9 230.1,268.4 232.3,268.3 247.7,268.3 254.3,268.2 258.6,268.2 260.8,268.1 263.0,267.9 265.2,267.9 267.4,267.8 269.6,267.7 271.8,267.6 280.6,267.4 285.0,267.3 293.8,267.3 296.0,267.1 298.2,267.0 300.4,266.9 304.8,266.9 307.0,266.0 309.2,265.2 311.4,264.9 313.6,264.7 315.8,264.6 318.0,264.4 320.2,264.1 322.4,263.9 324.6,263.7 326.8,263.6 331.2,263.5 333.4,263.2 335.6,262.8 337.8,262.5 340.0,262.3 344.4,262.2 348.8,262.2 351.0,261.9 353.2,261.6 355.4,261.0 357.6,260.7 359.8,260.4 362.0,260.0 364.2,259.6 366.4,259.3 368.6,258.8 370.8,258.4 373.0,257.9 375.2,257.6 377.4,257.3 379.6,257.0 381.8,256.7 384.0,256.5 386.2,256.3 388.4,256.1 390.6,256.0 392.8,255.9 397.1,255.8 399.3,255.0 401.5,254.4 403.7,254.3 405.9,254.2 410.3,254.1 412.5,254.0 421.3,254.0 425.7,253.9 432.3,253.8 434.5,252.9 436.7,251.9 438.9,251.7 441.1,250.9 443.3,250.3 445.5,249.9 447.7,249.7 449.9,249.3 452.1,249.2 454.3,249.1 456.5,248.9 458.7,248.8 471.9,248.1 474.1,247.3 476.3,247.2 478.5,247.0 480.7,247.0 496.1,246.9 515.9,246.0 518.1,245.4 520.3,244.6 522.5,243.4 524.7,243.2 526.9,242.8 529.1,242.1 531.2,241.6 533.4,240.4 535.6,238.7 537.8,237.1 540.0,235.1 542.2,233.1 544.4,231.3 546.6,230.2 548.8,228.8 551.0,226.9 553.2,225.2 555.4,224.1 557.6,223.0 559.8,221.3 562.0,220.3 564.2,219.3 566.4,218.4 568.6,217.7 570.8,216.8 573.0,216.3 575.2,215.7 577.4,215.2 579.6,213.6 581.8,212.4 584.0,211.7 586.2,211.5 588.4,211.1 590.6,210.5 592.8,209.9 595.0,208.9 597.2,208.3 599.4,207.7 601.6,207.6 603.8,207.3 606.0,206.8 608.2,205.6 610.4,203.6 612.6,201.5 614.8,199.4 617.0,197.7 619.2,195.7 621.4,193.6 623.6,191.4 625.8,189.4 628.0,188.0 630.2,186.8 632.4,185.5 634.6,184.2 636.8,183.4 639.0,182.3 641.2,181.6 643.4,180.5 645.6,179.0 647.8,177.2 650.0,175.7 652.2,174.4 654.4,173.5 656.6,172.8 658.8,172.0 661.0,171.1 663.2,169.7 665.4,168.5 667.5,167.0 669.7,165.4 671.9,164.1 674.1,163.1 676.3,162.7 678.5,162.1 680.7,161.5 682.9,161.4 685.1,161.3 687.3,161.0 689.5,160.9 691.7,160.9 693.9,160.7 696.1,160.6 702.7,160.5 704.9,160.5 707.1,160.2 709.3,158.5 711.5,157.0 713.7,155.7 715.9,154.2 718.1,152.9 720.3,151.5 722.5,150.1 724.7,148.8 726.9,147.4 729.1,146.2 731.3,144.8 733.5,143.6 735.7,142.3 737.9,141.1 740.1,139.8 742.3,138.7 744.5,137.6 746.7,136.4 748.9,135.2 751.1,134.1 753.3,132.9 755.5,132.1 757.7,131.4 759.9,130.6 762.1,129.5 764.3,128.5 766.5,127.6 768.7,126.4 770.9,125.5 773.1,124.6 775.3,123.5 777.5,122.5 779.7,121.5 781.9,120.6 784.1,119.5 786.3,118.6 788.5,117.6 790.7,116.8 792.9,116.0 795.1,115.0 797.3,114.1 799.5,113.3 801.7,112.6 803.8,112.0 806.0,111.6 808.2,111.5 810.4,110.6 812.6,109.8 814.8,108.9 817.0,108.0 819.2,107.3 821.4,106.4 823.6,105.6 825.8,104.8 828.0,104.1 830.2,103.3 832.4,102.6 834.6,101.9 836.8,101.0 839.0,100.4 841.2,99.6 843.4,98.8 845.6,98.1 847.8,97.5 850.0,96.6 852.2,96.0 854.4,95.4 856.6,94.5 858.8,93.7 861.0,93.0 863.2,92.2 865.4,91.4 867.6,90.8 869.8,90.1 872.0,90.0" fill="none" stroke="#38bdf8" stroke-width="2.5" stroke-linejoin="round" stroke-linecap="round"/>
<circle cx="872.0" cy="90.0" r="4" fill="#0ea5e9"/>
<text x="866.0" y="80.0" text-anchor="end" font-family="Inter, system-ui, sans-serif" font-size="13" font-weight="700" fill="#334155">4271</text>
<text x="52.0" y="294" text-anchor="middle" font-family="Inter, system-ui, sans-serif" font-size="11" fill="#94a3b8">Jun 10 05:00</text>
<text x="570.8" y="294" text-anchor="middle" font-family="Inter, system-ui, sans-serif" font-size="11" fill="#94a3b8">Jun 20 01:00</text>
<text x="872.0" y="294" text-anchor="middle" font-family="Inter, system-ui, sans-serif" font-size="11" fill="#94a3b8">Jun 25 18:00</text>
</svg>
