<svg xmlns="http://www.w3.org/2000/svg" width="900" height="320" viewBox="0 0 900 320" role="img" aria-labelledby="title desc">
<title id="title">unsorry proofs over time</title>
<desc id="desc">Cumulative kernel-verified proofs over time, by the hour each proof was merged.</desc>
<rect width="900" height="100%" rx="18" fill="#ffffff"/>
<rect x="0.5" y="0.5" width="899" height="319" rx="18" fill="none" stroke="#e2e8f0"/>
<text x="32" y="44" font-family="Inter, system-ui, sans-serif" font-size="28" font-weight="700" fill="#334155">unsorry — Proofs Over Time</text>
<text x="32" y="72" font-family="Inter, system-ui, sans-serif" font-size="13" fill="#64748b">3123 cumulative kernel-verified proofs · merged, hourly</text>
<line x1="52" y1="272.0" x2="872" y2="272.0" stroke="#f1f5f9"/>
<text x="44" y="276.0" text-anchor="end" font-family="Inter, system-ui, sans-serif" font-size="11" fill="#94a3b8">0</text>
<line x1="52" y1="226.5" x2="872" y2="226.5" stroke="#f1f5f9"/>
<text x="44" y="230.5" text-anchor="end" font-family="Inter, system-ui, sans-serif" font-size="11" fill="#94a3b8">781</text>
<line x1="52" y1="181.0" x2="872" y2="181.0" stroke="#f1f5f9"/>
<text x="44" y="185.0" text-anchor="end" font-family="Inter, system-ui, sans-serif" font-size="11" fill="#94a3b8">1562</text>
<line x1="52" y1="135.5" x2="872" y2="135.5" stroke="#f1f5f9"/>
<text x="44" y="139.5" text-anchor="end" font-family="Inter, system-ui, sans-serif" font-size="11" fill="#94a3b8">2342</text>
<line x1="52" y1="90.0" x2="872" y2="90.0" stroke="#f1f5f9"/>
<text x="44" y="94.0" text-anchor="end" font-family="Inter, system-ui, sans-serif" font-size="11" fill="#94a3b8">3123</text>
<polygon points="52.0,272.0 52.0,271.9 54.6,271.8 85.9,271.2 88.6,271.1 91.2,271.0 99.0,271.0 114.7,270.9 148.6,270.8 151.2,270.3 153.8,270.3 161.7,270.1 164.3,270.1 166.9,270.0 169.5,269.8 174.7,269.8 177.4,269.5 185.2,269.3 195.6,269.1 198.2,269.0 200.9,268.9 221.7,268.8 227.0,268.7 240.0,268.7 242.6,268.6 245.2,268.5 255.7,268.4 258.3,268.1 260.9,267.8 263.5,267.0 266.1,266.9 284.4,266.9 292.3,266.8 297.5,266.8 300.1,266.7 302.7,266.4 305.3,266.3 307.9,266.3 310.5,266.1 313.1,265.9 323.6,265.6 328.8,265.6 339.3,265.5 341.9,265.2 344.5,265.2 347.1,265.1 352.3,265.0 354.9,263.8 357.5,262.7 360.2,262.3 362.8,262.0 365.4,261.9 368.0,261.6 370.6,261.2 373.2,260.9 375.8,260.7 378.4,260.6 383.7,260.4 386.3,259.9 388.9,259.5 391.5,259.0 394.1,258.7 399.3,258.6 404.5,258.5 407.2,258.1 409.8,257.8 412.4,257.0 415.0,256.6 417.6,256.1 420.2,255.6 422.8,255.1 425.4,254.6 428.1,254.0 430.7,253.4 433.3,252.8 435.9,252.2 438.5,251.9 441.1,251.5 443.7,251.0 446.3,250.8 448.9,250.5 451.6,250.2 454.2,250.1 456.8,250.0 462.0,249.9 464.6,248.7 467.2,247.9 469.8,247.8 472.4,247.7 477.7,247.6 480.3,247.4 490.7,247.3 495.9,247.2 503.8,247.2 506.4,245.8 509.0,244.6 511.6,244.2 514.2,243.2 516.8,242.3 519.5,241.8 522.1,241.5 524.7,241.0 527.3,240.8 529.9,240.6 532.5,240.4 535.1,240.3 550.8,239.4 553.4,238.2 556.0,238.0 558.6,237.8 561.2,237.8 579.5,237.7 603.0,236.5 605.6,235.6 608.2,234.5 610.9,232.8 613.5,232.5 616.1,232.0 618.7,231.1 621.3,230.4 623.9,228.8 626.5,226.5 629.1,224.2 631.7,221.5 634.4,218.7 637.0,216.3 639.6,214.8 642.2,213.0 644.8,210.3 647.4,208.0 650.0,206.5 652.6,204.9 655.2,202.7 657.9,201.3 660.5,199.9 663.1,198.7 665.7,197.8 668.3,196.5 670.9,195.8 673.5,195.0 676.1,194.3 678.8,192.2 681.4,190.5 684.0,189.5 686.6,189.2 689.2,188.7 691.8,187.8 694.4,187.1 697.0,185.7 699.6,184.8 702.3,184.0 704.9,183.9 707.5,183.5 710.1,182.9 712.7,181.2 715.3,178.5 717.9,175.6 720.5,172.8 723.1,170.4 725.8,167.7 728.4,164.8 731.0,161.8 733.6,159.1 736.2,157.1 738.8,155.5 741.4,153.7 744.0,151.9 746.6,150.8 749.3,149.4 751.9,148.3 754.5,146.8 757.1,144.8 759.7,142.3 762.3,140.3 764.9,138.5 767.5,137.3 770.2,136.3 772.8,135.2 775.4,134.1 778.0,132.1 780.6,130.4 783.2,128.3 785.8,126.2 788.4,124.5 791.0,123.1 793.7,122.5 796.3,121.7 798.9,120.9 801.5,120.8 804.1,120.7 806.7,120.2 809.3,120.1 811.9,120.0 814.5,119.7 817.2,119.6 825.0,119.5 827.6,119.5 830.2,119.1 832.8,116.7 835.4,114.7 838.1,112.9 840.7,110.9 843.3,109.1 845.9,107.3 848.5,105.3 851.1,103.6 853.7,101.7 856.3,99.9 858.9,98.1 861.6,96.4 864.2,94.7 866.8,92.9 869.4,91.2 872.0,90.0 872.0,272.0" fill="#e0f2fe" opacity="0.55"/>
<polyline points="52.0,271.9 54.6,271.8 85.9,271.2 88.6,271.1 91.2,271.0 99.0,271.0 114.7,270.9 148.6,270.8 151.2,270.3 153.8,270.3 161.7,270.1 164.3,270.1 166.9,270.0 169.5,269.8 174.7,269.8 177.4,269.5 185.2,269.3 195.6,269.1 198.2,269.0 200.9,268.9 221.7,268.8 227.0,268.7 240.0,268.7 242.6,268.6 245.2,268.5 255.7,268.4 258.3,268.1 260.9,267.8 263.5,267.0 266.1,266.9 284.4,266.9 292.3,266.8 297.5,266.8 300.1,266.7 302.7,266.4 305.3,266.3 307.9,266.3 310.5,266.1 313.1,265.9 323.6,265.6 328.8,265.6 339.3,265.5 341.9,265.2 344.5,265.2 347.1,265.1 352.3,265.0 354.9,263.8 357.5,262.7 360.2,262.3 362.8,262.0 365.4,261.9 368.0,261.6 370.6,261.2 373.2,260.9 375.8,260.7 378.4,260.6 383.7,260.4 386.3,259.9 388.9,259.5 391.5,259.0 394.1,258.7 399.3,258.6 404.5,258.5 407.2,258.1 409.8,257.8 412.4,257.0 415.0,256.6 417.6,256.1 420.2,255.6 422.8,255.1 425.4,254.6 428.1,254.0 430.7,253.4 433.3,252.8 435.9,252.2 438.5,251.9 441.1,251.5 443.7,251.0 446.3,250.8 448.9,250.5 451.6,250.2 454.2,250.1 456.8,250.0 462.0,249.9 464.6,248.7 467.2,247.9 469.8,247.8 472.4,247.7 477.7,247.6 480.3,247.4 490.7,247.3 495.9,247.2 503.8,247.2 506.4,245.8 509.0,244.6 511.6,244.2 514.2,243.2 516.8,242.3 519.5,241.8 522.1,241.5 524.7,241.0 527.3,240.8 529.9,240.6 532.5,240.4 535.1,240.3 550.8,239.4 553.4,238.2 556.0,238.0 558.6,237.8 561.2,237.8 579.5,237.7 603.0,236.5 605.6,235.6 608.2,234.5 610.9,232.8 613.5,232.5 616.1,232.0 618.7,231.1 621.3,230.4 623.9,228.8 626.5,226.5 629.1,224.2 631.7,221.5 634.4,218.7 637.0,216.3 639.6,214.8 642.2,213.0 644.8,210.3 647.4,208.0 650.0,206.5 652.6,204.9 655.2,202.7 657.9,201.3 660.5,199.9 663.1,198.7 665.7,197.8 668.3,196.5 670.9,195.8 673.5,195.0 676.1,194.3 678.8,192.2 681.4,190.5 684.0,189.5 686.6,189.2 689.2,188.7 691.8,187.8 694.4,187.1 697.0,185.7 699.6,184.8 702.3,184.0 704.9,183.9 707.5,183.5 710.1,182.9 712.7,181.2 715.3,178.5 717.9,175.6 720.5,172.8 723.1,170.4 725.8,167.7 728.4,164.8 731.0,161.8 733.6,159.1 736.2,157.1 738.8,155.5 741.4,153.7 744.0,151.9 746.6,150.8 749.3,149.4 751.9,148.3 754.5,146.8 757.1,144.8 759.7,142.3 762.3,140.3 764.9,138.5 767.5,137.3 770.2,136.3 772.8,135.2 775.4,134.1 778.0,132.1 780.6,130.4 783.2,128.3 785.8,126.2 788.4,124.5 791.0,123.1 793.7,122.5 796.3,121.7 798.9,120.9 801.5,120.8 804.1,120.7 806.7,120.2 809.3,120.1 811.9,120.0 814.5,119.7 817.2,119.6 825.0,119.5 827.6,119.5 830.2,119.1 832.8,116.7 835.4,114.7 838.1,112.9 840.7,110.9 843.3,109.1 845.9,107.3 848.5,105.3 851.1,103.6 853.7,101.7 856.3,99.9 858.9,98.1 861.6,96.4 864.2,94.7 866.8,92.9 869.4,91.2 872.0,90.0" fill="none" stroke="#38bdf8" stroke-width="2.5" stroke-linejoin="round" stroke-linecap="round"/>
<circle cx="872.0" cy="90.0" r="4" fill="#0ea5e9"/>
<text x="866.0" y="80.0" text-anchor="end" font-family="Inter, system-ui, sans-serif" font-size="13" font-weight="700" fill="#334155">3123</text>
<text x="52.0" y="294" text-anchor="middle" font-family="Inter, system-ui, sans-serif" font-size="11" fill="#94a3b8">Jun 10 05:00</text>
<text x="553.4" y="294" text-anchor="middle" font-family="Inter, system-ui, sans-serif" font-size="11" fill="#94a3b8">Jun 18 05:00</text>
<text x="872.0" y="294" text-anchor="middle" font-family="Inter, system-ui, sans-serif" font-size="11" fill="#94a3b8">Jun 23 07:00</text>
</svg>
