<svg xmlns="http://www.w3.org/2000/svg" width="900" height="320" viewBox="0 0 900 320" role="img" aria-labelledby="title desc">
<title id="title">unsorry proofs over time</title>
<desc id="desc">Cumulative kernel-verified proofs over time, by the hour each proof was merged.</desc>
<rect width="900" height="100%" rx="18" fill="#ffffff"/>
<rect x="0.5" y="0.5" width="899" height="319" rx="18" fill="none" stroke="#e2e8f0"/>
<text x="32" y="44" font-family="Inter, system-ui, sans-serif" font-size="28" font-weight="700" fill="#334155">unsorry — Proofs Over Time</text>
<text x="32" y="72" font-family="Inter, system-ui, sans-serif" font-size="13" fill="#64748b">4466 cumulative kernel-verified proofs · merged, hourly</text>
<line x1="52" y1="272.0" x2="872" y2="272.0" stroke="#f1f5f9"/>
<text x="44" y="276.0" text-anchor="end" font-family="Inter, system-ui, sans-serif" font-size="11" fill="#94a3b8">0</text>
<line x1="52" y1="226.5" x2="872" y2="226.5" stroke="#f1f5f9"/>
<text x="44" y="230.5" text-anchor="end" font-family="Inter, system-ui, sans-serif" font-size="11" fill="#94a3b8">1116</text>
<line x1="52" y1="181.0" x2="872" y2="181.0" stroke="#f1f5f9"/>
<text x="44" y="185.0" text-anchor="end" font-family="Inter, system-ui, sans-serif" font-size="11" fill="#94a3b8">2233</text>
<line x1="52" y1="135.5" x2="872" y2="135.5" stroke="#f1f5f9"/>
<text x="44" y="139.5" text-anchor="end" font-family="Inter, system-ui, sans-serif" font-size="11" fill="#94a3b8">3350</text>
<line x1="52" y1="90.0" x2="872" y2="90.0" stroke="#f1f5f9"/>
<text x="44" y="94.0" text-anchor="end" font-family="Inter, system-ui, sans-serif" font-size="11" fill="#94a3b8">4466</text>
<polygon points="52.0,272.0 52.0,272.0 54.1,271.9 79.8,271.5 81.9,271.3 84.0,271.3 90.4,271.3 103.2,271.2 131.0,271.2 133.1,270.8 135.3,270.8 141.7,270.7 143.8,270.7 146.0,270.6 148.1,270.5 152.4,270.5 154.5,270.2 160.9,270.1 169.4,270.0 171.6,269.9 173.7,269.8 190.8,269.8 195.1,269.7 205.8,269.7 207.9,269.6 210.0,269.6 218.6,269.5 220.7,269.3 222.8,269.1 225.0,268.5 227.1,268.5 242.1,268.4 248.5,268.4 252.7,268.3 254.9,268.3 257.0,268.1 259.1,268.0 261.3,268.0 263.4,267.9 265.5,267.8 274.1,267.6 278.4,267.5 286.9,267.5 289.0,267.3 291.2,267.2 293.3,267.2 297.6,267.1 299.7,266.3 301.8,265.5 304.0,265.2 306.1,265.0 308.2,264.9 310.4,264.7 312.5,264.4 314.7,264.2 316.8,264.1 318.9,264.0 323.2,263.9 325.3,263.6 327.5,263.2 329.6,262.9 331.7,262.7 336.0,262.6 340.3,262.6 342.4,262.3 344.6,262.1 346.7,261.5 348.8,261.2 351.0,260.9 353.1,260.5 355.2,260.2 357.4,259.8 359.5,259.4 361.6,259.0 363.8,258.6 365.9,258.2 368.0,257.9 370.2,257.7 372.3,257.3 374.4,257.2 376.6,257.0 378.7,256.8 380.9,256.7 383.0,256.6 387.3,256.6 389.4,255.7 391.5,255.2 393.7,255.0 395.8,255.0 400.1,254.9 402.2,254.8 410.8,254.8 415.0,254.7 421.4,254.6 423.6,253.7 425.7,252.8 427.8,252.6 430.0,251.8 432.1,251.3 434.2,250.9 436.4,250.7 438.5,250.3 440.6,250.2 442.8,250.1 444.9,249.9 447.1,249.8 459.9,249.2 462.0,248.4 464.1,248.2 466.3,248.1 468.4,248.1 483.4,248.0 502.6,247.2 504.7,246.5 506.8,245.8 509.0,244.6 511.1,244.4 513.2,244.0 515.4,243.4 517.5,242.9 519.7,241.8 521.8,240.2 523.9,238.6 526.1,236.7 528.2,234.8 530.3,233.0 532.5,232.0 534.6,230.7 536.7,228.8 538.9,227.3 541.0,226.2 543.1,225.1 545.3,223.5 547.4,222.6 549.6,221.6 551.7,220.7 553.8,220.1 556.0,219.2 558.1,218.7 560.2,218.1 562.4,217.6 564.5,216.2 566.6,215.0 568.8,214.3 570.9,214.1 573.0,213.8 575.2,213.2 577.3,212.6 579.4,211.6 581.6,211.0 583.7,210.5 585.9,210.4 588.0,210.1 590.1,209.7 592.3,208.5 594.4,206.6 596.5,204.6 598.7,202.6 600.8,201.0 602.9,199.1 605.1,197.0 607.2,194.9 609.3,193.0 611.5,191.6 613.6,190.5 615.8,189.3 617.9,188.1 620.0,187.2 622.2,186.3 624.3,185.5 626.4,184.5 628.6,183.0 630.7,181.3 632.8,179.9 635.0,178.6 637.1,177.8 639.2,177.1 641.4,176.4 643.5,175.5 645.6,174.2 647.8,173.0 649.9,171.5 652.1,170.1 654.2,168.9 656.3,167.9 658.5,167.5 660.6,166.9 662.7,166.3 664.9,166.2 667.0,166.2 669.1,165.9 671.3,165.8 673.4,165.7 675.5,165.5 677.7,165.4 684.1,165.4 686.2,165.4 688.4,165.1 690.5,163.4 692.6,162.0 694.8,160.7 696.9,159.3 699.0,158.1 701.2,156.8 703.3,155.4 705.4,154.2 707.6,152.9 709.7,151.7 711.8,150.4 714.0,149.2 716.1,148.0 718.2,146.8 720.4,145.6 722.5,144.6 724.7,143.4 726.8,142.3 728.9,141.1 731.1,140.1 733.2,139.0 735.3,138.3 737.5,137.5 739.6,136.8 741.7,135.7 743.9,134.8 746.0,133.9 748.1,132.8 750.3,131.9 752.4,131.0 754.6,130.0 756.7,129.0 758.8,128.1 761.0,127.2 763.1,126.1 765.2,125.3 767.4,124.4 769.5,123.6 771.6,122.8 773.8,121.9 775.9,121.0 778.0,120.2 780.2,119.6 782.3,119.0 784.4,118.6 786.6,118.5 788.7,117.6 790.9,116.9 793.0,116.0 795.1,115.2 797.3,114.5 799.4,113.7 801.5,112.9 803.7,112.1 805.8,111.4 807.9,110.7 810.1,110.0 812.2,109.3 814.3,108.5 816.5,107.8 818.6,107.1 820.8,106.4 822.9,105.7 825.0,105.1 827.2,104.3 829.3,103.7 831.4,103.1 833.6,102.3 835.7,101.5 837.8,100.8 840.0,100.0 842.1,99.3 844.2,98.7 846.4,98.1 848.5,97.3 850.6,96.7 852.8,96.3 854.9,95.6 857.1,94.9 859.2,94.2 861.3,93.3 863.5,92.6 865.6,92.0 867.7,91.3 869.9,90.7 872.0,90.0 872.0,272.0" fill="#e0f2fe" opacity="0.55"/>
<polyline points="52.0,272.0 54.1,271.9 79.8,271.5 81.9,271.3 84.0,271.3 90.4,271.3 103.2,271.2 131.0,271.2 133.1,270.8 135.3,270.8 141.7,270.7 143.8,270.7 146.0,270.6 148.1,270.5 152.4,270.5 154.5,270.2 160.9,270.1 169.4,270.0 171.6,269.9 173.7,269.8 190.8,269.8 195.1,269.7 205.8,269.7 207.9,269.6 210.0,269.6 218.6,269.5 220.7,269.3 222.8,269.1 225.0,268.5 227.1,268.5 242.1,268.4 248.5,268.4 252.7,268.3 254.9,268.3 257.0,268.1 259.1,268.0 261.3,268.0 263.4,267.9 265.5,267.8 274.1,267.6 278.4,267.5 286.9,267.5 289.0,267.3 291.2,267.2 293.3,267.2 297.6,267.1 299.7,266.3 301.8,265.5 304.0,265.2 306.1,265.0 308.2,264.9 310.4,264.7 312.5,264.4 314.7,264.2 316.8,264.1 318.9,264.0 323.2,263.9 325.3,263.6 327.5,263.2 329.6,262.9 331.7,262.7 336.0,262.6 340.3,262.6 342.4,262.3 344.6,262.1 346.7,261.5 348.8,261.2 351.0,260.9 353.1,260.5 355.2,260.2 357.4,259.8 359.5,259.4 361.6,259.0 363.8,258.6 365.9,258.2 368.0,257.9 370.2,257.7 372.3,257.3 374.4,257.2 376.6,257.0 378.7,256.8 380.9,256.7 383.0,256.6 387.3,256.6 389.4,255.7 391.5,255.2 393.7,255.0 395.8,255.0 400.1,254.9 402.2,254.8 410.8,254.8 415.0,254.7 421.4,254.6 423.6,253.7 425.7,252.8 427.8,252.6 430.0,251.8 432.1,251.3 434.2,250.9 436.4,250.7 438.5,250.3 440.6,250.2 442.8,250.1 444.9,249.9 447.1,249.8 459.9,249.2 462.0,248.4 464.1,248.2 466.3,248.1 468.4,248.1 483.4,248.0 502.6,247.2 504.7,246.5 506.8,245.8 509.0,244.6 511.1,244.4 513.2,244.0 515.4,243.4 517.5,242.9 519.7,241.8 521.8,240.2 523.9,238.6 526.1,236.7 528.2,234.8 530.3,233.0 532.5,232.0 534.6,230.7 536.7,228.8 538.9,227.3 541.0,226.2 543.1,225.1 545.3,223.5 547.4,222.6 549.6,221.6 551.7,220.7 553.8,220.1 556.0,219.2 558.1,218.7 560.2,218.1 562.4,217.6 564.5,216.2 566.6,215.0 568.8,214.3 570.9,214.1 573.0,213.8 575.2,213.2 577.3,212.6 579.4,211.6 581.6,211.0 583.7,210.5 585.9,210.4 588.0,210.1 590.1,209.7 592.3,208.5 594.4,206.6 596.5,204.6 598.7,202.6 600.8,201.0 602.9,199.1 605.1,197.0 607.2,194.9 609.3,193.0 611.5,191.6 613.6,190.5 615.8,189.3 617.9,188.1 620.0,187.2 622.2,186.3 624.3,185.5 626.4,184.5 628.6,183.0 630.7,181.3 632.8,179.9 635.0,178.6 637.1,177.8 639.2,177.1 641.4,176.4 643.5,175.5 645.6,174.2 647.8,173.0 649.9,171.5 652.1,170.1 654.2,168.9 656.3,167.9 658.5,167.5 660.6,166.9 662.7,166.3 664.9,166.2 667.0,166.2 669.1,165.9 671.3,165.8 673.4,165.7 675.5,165.5 677.7,165.4 684.1,165.4 686.2,165.4 688.4,165.1 690.5,163.4 692.6,162.0 694.8,160.7 696.9,159.3 699.0,158.1 701.2,156.8 703.3,155.4 705.4,154.2 707.6,152.9 709.7,151.7 711.8,150.4 714.0,149.2 716.1,148.0 718.2,146.8 720.4,145.6 722.5,144.6 724.7,143.4 726.8,142.3 728.9,141.1 731.1,140.1 733.2,139.0 735.3,138.3 737.5,137.5 739.6,136.8 741.7,135.7 743.9,134.8 746.0,133.9 748.1,132.8 750.3,131.9 752.4,131.0 754.6,130.0 756.7,129.0 758.8,128.1 761.0,127.2 763.1,126.1 765.2,125.3 767.4,124.4 769.5,123.6 771.6,122.8 773.8,121.9 775.9,121.0 778.0,120.2 780.2,119.6 782.3,119.0 784.4,118.6 786.6,118.5 788.7,117.6 790.9,116.9 793.0,116.0 795.1,115.2 797.3,114.5 799.4,113.7 801.5,112.9 803.7,112.1 805.8,111.4 807.9,110.7 810.1,110.0 812.2,109.3 814.3,108.5 816.5,107.8 818.6,107.1 820.8,106.4 822.9,105.7 825.0,105.1 827.2,104.3 829.3,103.7 831.4,103.1 833.6,102.3 835.7,101.5 837.8,100.8 840.0,100.0 842.1,99.3 844.2,98.7 846.4,98.1 848.5,97.3 850.6,96.7 852.8,96.3 854.9,95.6 857.1,94.9 859.2,94.2 861.3,93.3 863.5,92.6 865.6,92.0 867.7,91.3 869.9,90.7 872.0,90.0" fill="none" stroke="#38bdf8" stroke-width="2.5" stroke-linejoin="round" stroke-linecap="round"/>
<circle cx="872.0" cy="90.0" r="4" fill="#0ea5e9"/>
<text x="866.0" y="80.0" text-anchor="end" font-family="Inter, system-ui, sans-serif" font-size="13" font-weight="700" fill="#334155">4466</text>
<text x="52.0" y="294" text-anchor="middle" font-family="Inter, system-ui, sans-serif" font-size="11" fill="#94a3b8">Jun 10 05:00</text>
<text x="566.6" y="294" text-anchor="middle" font-family="Inter, system-ui, sans-serif" font-size="11" fill="#94a3b8">Jun 20 06:00</text>
<text x="872.0" y="294" text-anchor="middle" font-family="Inter, system-ui, sans-serif" font-size="11" fill="#94a3b8">Jun 26 05:00</text>
</svg>
