<svg xmlns="http://www.w3.org/2000/svg" width="900" height="320" viewBox="0 0 900 320" role="img" aria-labelledby="title desc">
<title id="title">unsorry proofs over time</title>
<desc id="desc">Cumulative kernel-verified proofs over time, by the hour each proof was merged.</desc>
<rect width="900" height="100%" rx="18" fill="#ffffff"/>
<rect x="0.5" y="0.5" width="899" height="319" rx="18" fill="none" stroke="#e2e8f0"/>
<text x="32" y="44" font-family="Inter, system-ui, sans-serif" font-size="28" font-weight="700" fill="#334155">unsorry — Proofs Over Time</text>
<text x="32" y="72" font-family="Inter, system-ui, sans-serif" font-size="13" fill="#64748b">2930 cumulative kernel-verified proofs · merged, hourly</text>
<line x1="52" y1="272.0" x2="872" y2="272.0" stroke="#f1f5f9"/>
<text x="44" y="276.0" text-anchor="end" font-family="Inter, system-ui, sans-serif" font-size="11" fill="#94a3b8">0</text>
<line x1="52" y1="226.5" x2="872" y2="226.5" stroke="#f1f5f9"/>
<text x="44" y="230.5" text-anchor="end" font-family="Inter, system-ui, sans-serif" font-size="11" fill="#94a3b8">732</text>
<line x1="52" y1="181.0" x2="872" y2="181.0" stroke="#f1f5f9"/>
<text x="44" y="185.0" text-anchor="end" font-family="Inter, system-ui, sans-serif" font-size="11" fill="#94a3b8">1465</text>
<line x1="52" y1="135.5" x2="872" y2="135.5" stroke="#f1f5f9"/>
<text x="44" y="139.5" text-anchor="end" font-family="Inter, system-ui, sans-serif" font-size="11" fill="#94a3b8">2198</text>
<line x1="52" y1="90.0" x2="872" y2="90.0" stroke="#f1f5f9"/>
<text x="44" y="94.0" text-anchor="end" font-family="Inter, system-ui, sans-serif" font-size="11" fill="#94a3b8">2930</text>
<polygon points="52.0,272.0 52.0,271.9 54.7,271.8 86.6,271.2 89.3,271.0 91.9,270.9 99.9,270.9 115.9,270.8 150.5,270.8 153.2,270.2 155.8,270.1 163.8,270.0 166.5,270.0 169.1,269.9 171.8,269.7 177.1,269.6 179.8,269.3 187.8,269.1 198.4,269.0 201.1,268.8 203.8,268.6 225.1,268.6 230.4,268.5 243.7,268.5 246.4,268.4 249.0,268.3 259.7,268.2 262.3,267.8 265.0,267.5 267.6,266.7 270.3,266.6 288.9,266.5 296.9,266.5 302.3,266.4 304.9,266.3 307.6,266.0 310.2,266.0 312.9,265.9 315.6,265.7 318.2,265.5 328.9,265.2 334.2,265.2 344.9,265.1 347.5,264.8 350.2,264.7 352.8,264.6 358.2,264.5 360.8,263.3 363.5,262.1 366.2,261.6 368.8,261.3 371.5,261.2 374.1,260.9 376.8,260.4 379.5,260.1 382.1,259.9 384.8,259.8 390.1,259.6 392.8,259.1 395.4,258.6 398.1,258.1 400.8,257.8 406.1,257.7 411.4,257.7 414.1,257.2 416.7,256.9 419.4,256.0 422.1,255.5 424.7,255.0 427.4,254.5 430.1,254.0 432.7,253.4 435.4,252.8 438.0,252.1 440.7,251.5 443.4,250.9 446.0,250.6 448.7,250.1 451.4,249.6 454.0,249.4 456.7,249.1 459.3,248.8 462.0,248.6 464.7,248.5 470.0,248.5 472.6,247.2 475.3,246.3 478.0,246.2 480.6,246.1 486.0,246.0 488.6,245.8 499.3,245.7 504.6,245.6 512.6,245.5 515.2,244.1 517.9,242.7 520.6,242.4 523.2,241.3 525.9,240.4 528.6,239.8 531.2,239.5 533.9,239.0 536.5,238.7 539.2,238.6 541.9,238.3 544.5,238.2 560.5,237.2 563.2,236.0 565.8,235.8 568.5,235.6 571.2,235.5 589.8,235.5 613.8,234.2 616.4,233.2 619.1,232.0 621.7,230.3 624.4,229.9 627.1,229.4 629.7,228.4 632.4,227.6 635.1,226.0 637.7,223.5 640.4,221.1 643.0,218.2 645.7,215.2 648.4,212.6 651.0,211.0 653.7,209.1 656.4,206.2 659.0,203.8 661.7,202.2 664.3,200.5 667.0,198.1 669.7,196.7 672.3,195.2 675.0,193.9 677.6,192.9 680.3,191.6 683.0,190.8 685.6,189.9 688.3,189.1 691.0,186.9 693.6,185.1 696.3,184.1 698.9,183.8 701.6,183.2 704.3,182.3 706.9,181.5 709.6,180.0 712.3,179.1 714.9,178.2 717.6,178.1 720.2,177.7 722.9,177.0 725.6,175.2 728.2,172.3 730.9,169.3 733.6,166.2 736.2,163.7 738.9,160.8 741.5,157.7 744.2,154.5 746.9,151.6 749.5,149.5 752.2,147.8 754.9,145.9 757.5,144.0 760.2,142.8 762.8,141.3 765.5,140.2 768.2,138.6 770.8,136.4 773.5,133.8 776.2,131.6 778.8,129.7 781.5,128.4 784.1,127.3 786.8,126.2 789.5,125.0 792.1,122.9 794.8,121.1 797.5,118.9 800.1,116.6 802.8,114.8 805.4,113.3 808.1,112.7 810.8,111.8 813.4,110.9 816.1,110.8 818.8,110.7 821.4,110.2 824.1,110.1 826.7,110.0 829.4,109.7 832.1,109.6 840.1,109.5 842.7,109.4 845.4,109.1 848.0,106.5 850.7,104.3 853.4,102.4 856.0,100.2 858.7,98.3 861.4,96.4 864.0,94.3 866.7,92.5 869.3,90.4 872.0,90.0 872.0,272.0" fill="#e0f2fe" opacity="0.55"/>
<polyline points="52.0,271.9 54.7,271.8 86.6,271.2 89.3,271.0 91.9,270.9 99.9,270.9 115.9,270.8 150.5,270.8 153.2,270.2 155.8,270.1 163.8,270.0 166.5,270.0 169.1,269.9 171.8,269.7 177.1,269.6 179.8,269.3 187.8,269.1 198.4,269.0 201.1,268.8 203.8,268.6 225.1,268.6 230.4,268.5 243.7,268.5 246.4,268.4 249.0,268.3 259.7,268.2 262.3,267.8 265.0,267.5 267.6,266.7 270.3,266.6 288.9,266.5 296.9,266.5 302.3,266.4 304.9,266.3 307.6,266.0 310.2,266.0 312.9,265.9 315.6,265.7 318.2,265.5 328.9,265.2 334.2,265.2 344.9,265.1 347.5,264.8 350.2,264.7 352.8,264.6 358.2,264.5 360.8,263.3 363.5,262.1 366.2,261.6 368.8,261.3 371.5,261.2 374.1,260.9 376.8,260.4 379.5,260.1 382.1,259.9 384.8,259.8 390.1,259.6 392.8,259.1 395.4,258.6 398.1,258.1 400.8,257.8 406.1,257.7 411.4,257.7 414.1,257.2 416.7,256.9 419.4,256.0 422.1,255.5 424.7,255.0 427.4,254.5 430.1,254.0 432.7,253.4 435.4,252.8 438.0,252.1 440.7,251.5 443.4,250.9 446.0,250.6 448.7,250.1 451.4,249.6 454.0,249.4 456.7,249.1 459.3,248.8 462.0,248.6 464.7,248.5 470.0,248.5 472.6,247.2 475.3,246.3 478.0,246.2 480.6,246.1 486.0,246.0 488.6,245.8 499.3,245.7 504.6,245.6 512.6,245.5 515.2,244.1 517.9,242.7 520.6,242.4 523.2,241.3 525.9,240.4 528.6,239.8 531.2,239.5 533.9,239.0 536.5,238.7 539.2,238.6 541.9,238.3 544.5,238.2 560.5,237.2 563.2,236.0 565.8,235.8 568.5,235.6 571.2,235.5 589.8,235.5 613.8,234.2 616.4,233.2 619.1,232.0 621.7,230.3 624.4,229.9 627.1,229.4 629.7,228.4 632.4,227.6 635.1,226.0 637.7,223.5 640.4,221.1 643.0,218.2 645.7,215.2 648.4,212.6 651.0,211.0 653.7,209.1 656.4,206.2 659.0,203.8 661.7,202.2 664.3,200.5 667.0,198.1 669.7,196.7 672.3,195.2 675.0,193.9 677.6,192.9 680.3,191.6 683.0,190.8 685.6,189.9 688.3,189.1 691.0,186.9 693.6,185.1 696.3,184.1 698.9,183.8 701.6,183.2 704.3,182.3 706.9,181.5 709.6,180.0 712.3,179.1 714.9,178.2 717.6,178.1 720.2,177.7 722.9,177.0 725.6,175.2 728.2,172.3 730.9,169.3 733.6,166.2 736.2,163.7 738.9,160.8 741.5,157.7 744.2,154.5 746.9,151.6 749.5,149.5 752.2,147.8 754.9,145.9 757.5,144.0 760.2,142.8 762.8,141.3 765.5,140.2 768.2,138.6 770.8,136.4 773.5,133.8 776.2,131.6 778.8,129.7 781.5,128.4 784.1,127.3 786.8,126.2 789.5,125.0 792.1,122.9 794.8,121.1 797.5,118.9 800.1,116.6 802.8,114.8 805.4,113.3 808.1,112.7 810.8,111.8 813.4,110.9 816.1,110.8 818.8,110.7 821.4,110.2 824.1,110.1 826.7,110.0 829.4,109.7 832.1,109.6 840.1,109.5 842.7,109.4 845.4,109.1 848.0,106.5 850.7,104.3 853.4,102.4 856.0,100.2 858.7,98.3 861.4,96.4 864.0,94.3 866.7,92.5 869.3,90.4 872.0,90.0" fill="none" stroke="#38bdf8" stroke-width="2.5" stroke-linejoin="round" stroke-linecap="round"/>
<circle cx="872.0" cy="90.0" r="4" fill="#0ea5e9"/>
<text x="866.0" y="80.0" text-anchor="end" font-family="Inter, system-ui, sans-serif" font-size="13" font-weight="700" fill="#334155">2930</text>
<text x="52.0" y="294" text-anchor="middle" font-family="Inter, system-ui, sans-serif" font-size="11" fill="#94a3b8">Jun 10 05:00</text>
<text x="541.9" y="294" text-anchor="middle" font-family="Inter, system-ui, sans-serif" font-size="11" fill="#94a3b8">Jun 17 21:00</text>
<text x="872.0" y="294" text-anchor="middle" font-family="Inter, system-ui, sans-serif" font-size="11" fill="#94a3b8">Jun 23 01:00</text>
</svg>
