<svg xmlns="http://www.w3.org/2000/svg" width="900" height="320" viewBox="0 0 900 320" role="img" aria-labelledby="title desc">
<title id="title">unsorry proofs over time</title>
<desc id="desc">Cumulative kernel-verified proofs over time, by the hour each proof was merged.</desc>
<rect width="900" height="100%" rx="18" fill="#ffffff"/>
<rect x="0.5" y="0.5" width="899" height="319" rx="18" fill="none" stroke="#e2e8f0"/>
<text x="32" y="44" font-family="Inter, system-ui, sans-serif" font-size="28" font-weight="700" fill="#334155">unsorry — Proofs Over Time</text>
<text x="32" y="72" font-family="Inter, system-ui, sans-serif" font-size="13" fill="#64748b">4168 cumulative kernel-verified proofs · merged, hourly</text>
<line x1="52" y1="272.0" x2="872" y2="272.0" stroke="#f1f5f9"/>
<text x="44" y="276.0" text-anchor="end" font-family="Inter, system-ui, sans-serif" font-size="11" fill="#94a3b8">0</text>
<line x1="52" y1="226.5" x2="872" y2="226.5" stroke="#f1f5f9"/>
<text x="44" y="230.5" text-anchor="end" font-family="Inter, system-ui, sans-serif" font-size="11" fill="#94a3b8">1042</text>
<line x1="52" y1="181.0" x2="872" y2="181.0" stroke="#f1f5f9"/>
<text x="44" y="185.0" text-anchor="end" font-family="Inter, system-ui, sans-serif" font-size="11" fill="#94a3b8">2084</text>
<line x1="52" y1="135.5" x2="872" y2="135.5" stroke="#f1f5f9"/>
<text x="44" y="139.5" text-anchor="end" font-family="Inter, system-ui, sans-serif" font-size="11" fill="#94a3b8">3126</text>
<line x1="52" y1="90.0" x2="872" y2="90.0" stroke="#f1f5f9"/>
<text x="44" y="94.0" text-anchor="end" font-family="Inter, system-ui, sans-serif" font-size="11" fill="#94a3b8">4168</text>
<polygon points="52.0,272.0 52.0,272.0 54.2,271.9 81.0,271.4 83.3,271.3 85.5,271.3 92.2,271.2 105.6,271.2 134.7,271.1 136.9,270.7 139.1,270.7 145.8,270.6 148.1,270.6 150.3,270.5 152.5,270.4 157.0,270.3 159.2,270.1 166.0,269.9 174.9,269.9 177.1,269.7 179.4,269.6 197.2,269.6 201.7,269.6 212.9,269.5 215.1,269.5 217.3,269.4 226.3,269.3 228.5,269.1 230.7,268.9 233.0,268.3 235.2,268.2 250.9,268.2 257.6,268.1 262.0,268.1 264.3,268.0 266.5,267.8 268.7,267.8 271.0,267.7 273.2,267.6 275.4,267.5 284.4,267.2 288.8,267.2 297.8,267.2 300.0,266.9 302.2,266.9 304.5,266.8 308.9,266.8 311.2,265.9 313.4,265.0 315.7,264.7 317.9,264.5 320.1,264.4 322.4,264.2 324.6,263.9 326.8,263.7 329.1,263.5 331.3,263.4 335.8,263.3 338.0,263.0 340.2,262.6 342.5,262.3 344.7,262.0 349.2,262.0 353.6,261.9 355.9,261.6 358.1,261.4 360.3,260.8 362.6,260.4 364.8,260.1 367.0,259.7 369.3,259.3 371.5,258.9 373.7,258.5 376.0,258.0 378.2,257.6 380.4,257.2 382.7,256.9 384.9,256.6 387.1,256.3 389.4,256.1 391.6,255.9 393.9,255.7 396.1,255.6 398.3,255.5 402.8,255.5 405.0,254.6 407.3,254.0 409.5,253.8 411.7,253.8 416.2,253.7 418.4,253.6 427.4,253.5 431.8,253.4 438.5,253.4 440.8,252.4 443.0,251.4 445.2,251.2 447.5,250.4 449.7,249.8 451.9,249.4 454.2,249.2 456.4,248.8 458.6,248.6 460.9,248.5 463.1,248.3 465.4,248.2 478.8,247.5 481.0,246.7 483.2,246.5 485.5,246.4 487.7,246.4 503.3,246.3 523.4,245.4 525.7,244.7 527.9,243.9 530.1,242.7 532.4,242.4 534.6,242.0 536.9,241.3 539.1,240.8 541.3,239.6 543.6,237.9 545.8,236.2 548.0,234.2 550.3,232.1 552.5,230.3 554.7,229.1 557.0,227.8 559.2,225.8 561.4,224.1 563.7,222.9 565.9,221.7 568.1,220.1 570.4,219.0 572.6,218.0 574.8,217.1 577.1,216.4 579.3,215.5 581.5,214.9 583.8,214.3 586.0,213.7 588.2,212.2 590.5,210.9 592.7,210.2 594.9,210.0 597.2,209.6 599.4,208.9 601.6,208.4 603.9,207.3 606.1,206.7 608.3,206.1 610.6,206.0 612.8,205.7 615.1,205.2 617.3,204.0 619.5,201.9 621.8,199.8 624.0,197.6 626.2,195.9 628.5,193.8 630.7,191.7 632.9,189.4 635.2,187.4 637.4,185.9 639.6,184.7 641.9,183.4 644.1,182.0 646.3,181.2 648.6,180.1 650.8,179.3 653.0,178.2 655.3,176.7 657.5,174.8 659.7,173.3 662.0,172.0 664.2,171.1 666.4,170.3 668.7,169.5 670.9,168.6 673.1,167.2 675.4,165.9 677.6,164.4 679.8,162.8 682.1,161.5 684.3,160.4 686.6,160.0 688.8,159.4 691.0,158.8 693.3,158.7 695.5,158.6 697.7,158.3 700.0,158.2 702.2,158.1 704.4,157.9 706.7,157.8 713.4,157.8 715.6,157.7 717.8,157.5 720.1,155.7 722.3,154.1 724.5,152.8 726.8,151.3 729.0,149.9 731.2,148.6 733.5,147.1 735.7,145.8 737.9,144.4 740.2,143.1 742.4,141.7 744.6,140.4 746.9,139.1 749.1,137.8 751.3,136.5 753.6,135.5 755.8,134.2 758.0,133.0 760.3,131.8 762.5,130.7 764.8,129.5 767.0,128.7 769.2,127.9 771.5,127.1 773.7,126.0 775.9,125.0 778.2,124.0 780.4,122.8 782.6,121.8 784.9,120.9 787.1,119.9 789.3,118.8 791.6,117.8 793.8,116.9 796.0,115.7 798.3,114.8 800.5,113.8 802.7,113.0 805.0,112.1 807.2,111.1 809.4,110.2 811.7,109.4 813.9,108.7 816.1,108.0 818.4,107.6 820.6,107.5 822.8,106.6 825.1,105.8 827.3,104.9 829.5,104.0 831.8,103.2 834.0,102.4 836.3,101.5 838.5,100.7 840.7,99.9 843.0,99.2 845.2,98.4 847.4,97.7 849.7,96.8 851.9,96.1 854.1,95.3 856.4,94.5 858.6,93.8 860.8,93.1 863.1,92.3 865.3,91.7 867.5,91.0 869.8,90.1 872.0,90.0 872.0,272.0" fill="#e0f2fe" opacity="0.55"/>
<polyline points="52.0,272.0 54.2,271.9 81.0,271.4 83.3,271.3 85.5,271.3 92.2,271.2 105.6,271.2 134.7,271.1 136.9,270.7 139.1,270.7 145.8,270.6 148.1,270.6 150.3,270.5 152.5,270.4 157.0,270.3 159.2,270.1 166.0,269.9 174.9,269.9 177.1,269.7 179.4,269.6 197.2,269.6 201.7,269.6 212.9,269.5 215.1,269.5 217.3,269.4 226.3,269.3 228.5,269.1 230.7,268.9 233.0,268.3 235.2,268.2 250.9,268.2 257.6,268.1 262.0,268.1 264.3,268.0 266.5,267.8 268.7,267.8 271.0,267.7 273.2,267.6 275.4,267.5 284.4,267.2 288.8,267.2 297.8,267.2 300.0,266.9 302.2,266.9 304.5,266.8 308.9,266.8 311.2,265.9 313.4,265.0 315.7,264.7 317.9,264.5 320.1,264.4 322.4,264.2 324.6,263.9 326.8,263.7 329.1,263.5 331.3,263.4 335.8,263.3 338.0,263.0 340.2,262.6 342.5,262.3 344.7,262.0 349.2,262.0 353.6,261.9 355.9,261.6 358.1,261.4 360.3,260.8 362.6,260.4 364.8,260.1 367.0,259.7 369.3,259.3 371.5,258.9 373.7,258.5 376.0,258.0 378.2,257.6 380.4,257.2 382.7,256.9 384.9,256.6 387.1,256.3 389.4,256.1 391.6,255.9 393.9,255.7 396.1,255.6 398.3,255.5 402.8,255.5 405.0,254.6 407.3,254.0 409.5,253.8 411.7,253.8 416.2,253.7 418.4,253.6 427.4,253.5 431.8,253.4 438.5,253.4 440.8,252.4 443.0,251.4 445.2,251.2 447.5,250.4 449.7,249.8 451.9,249.4 454.2,249.2 456.4,248.8 458.6,248.6 460.9,248.5 463.1,248.3 465.4,248.2 478.8,247.5 481.0,246.7 483.2,246.5 485.5,246.4 487.7,246.4 503.3,246.3 523.4,245.4 525.7,244.7 527.9,243.9 530.1,242.7 532.4,242.4 534.6,242.0 536.9,241.3 539.1,240.8 541.3,239.6 543.6,237.9 545.8,236.2 548.0,234.2 550.3,232.1 552.5,230.3 554.7,229.1 557.0,227.8 559.2,225.8 561.4,224.1 563.7,222.9 565.9,221.7 568.1,220.1 570.4,219.0 572.6,218.0 574.8,217.1 577.1,216.4 579.3,215.5 581.5,214.9 583.8,214.3 586.0,213.7 588.2,212.2 590.5,210.9 592.7,210.2 594.9,210.0 597.2,209.6 599.4,208.9 601.6,208.4 603.9,207.3 606.1,206.7 608.3,206.1 610.6,206.0 612.8,205.7 615.1,205.2 617.3,204.0 619.5,201.9 621.8,199.8 624.0,197.6 626.2,195.9 628.5,193.8 630.7,191.7 632.9,189.4 635.2,187.4 637.4,185.9 639.6,184.7 641.9,183.4 644.1,182.0 646.3,181.2 648.6,180.1 650.8,179.3 653.0,178.2 655.3,176.7 657.5,174.8 659.7,173.3 662.0,172.0 664.2,171.1 666.4,170.3 668.7,169.5 670.9,168.6 673.1,167.2 675.4,165.9 677.6,164.4 679.8,162.8 682.1,161.5 684.3,160.4 686.6,160.0 688.8,159.4 691.0,158.8 693.3,158.7 695.5,158.6 697.7,158.3 700.0,158.2 702.2,158.1 704.4,157.9 706.7,157.8 713.4,157.8 715.6,157.7 717.8,157.5 720.1,155.7 722.3,154.1 724.5,152.8 726.8,151.3 729.0,149.9 731.2,148.6 733.5,147.1 735.7,145.8 737.9,144.4 740.2,143.1 742.4,141.7 744.6,140.4 746.9,139.1 749.1,137.8 751.3,136.5 753.6,135.5 755.8,134.2 758.0,133.0 760.3,131.8 762.5,130.7 764.8,129.5 767.0,128.7 769.2,127.9 771.5,127.1 773.7,126.0 775.9,125.0 778.2,124.0 780.4,122.8 782.6,121.8 784.9,120.9 787.1,119.9 789.3,118.8 791.6,117.8 793.8,116.9 796.0,115.7 798.3,114.8 800.5,113.8 802.7,113.0 805.0,112.1 807.2,111.1 809.4,110.2 811.7,109.4 813.9,108.7 816.1,108.0 818.4,107.6 820.6,107.5 822.8,106.6 825.1,105.8 827.3,104.9 829.5,104.0 831.8,103.2 834.0,102.4 836.3,101.5 838.5,100.7 840.7,99.9 843.0,99.2 845.2,98.4 847.4,97.7 849.7,96.8 851.9,96.1 854.1,95.3 856.4,94.5 858.6,93.8 860.8,93.1 863.1,92.3 865.3,91.7 867.5,91.0 869.8,90.1 872.0,90.0" fill="none" stroke="#38bdf8" stroke-width="2.5" stroke-linejoin="round" stroke-linecap="round"/>
<circle cx="872.0" cy="90.0" r="4" fill="#0ea5e9"/>
<text x="866.0" y="80.0" text-anchor="end" font-family="Inter, system-ui, sans-serif" font-size="13" font-weight="700" fill="#334155">4168</text>
<text x="52.0" y="294" text-anchor="middle" font-family="Inter, system-ui, sans-serif" font-size="11" fill="#94a3b8">Jun 10 05:00</text>
<text x="572.6" y="294" text-anchor="middle" font-family="Inter, system-ui, sans-serif" font-size="11" fill="#94a3b8">Jun 19 22:00</text>
<text x="872.0" y="294" text-anchor="middle" font-family="Inter, system-ui, sans-serif" font-size="11" fill="#94a3b8">Jun 25 12:00</text>
</svg>
