<svg xmlns="http://www.w3.org/2000/svg" width="900" height="320" viewBox="0 0 900 320" role="img" aria-labelledby="title desc">
<title id="title">Unsorry proofs over time</title>
<desc id="desc">Cumulative kernel-verified proofs over time, by the hour each proof was merged.</desc>
<rect width="900" height="100%" rx="18" fill="#ffffff"/>
<rect x="0.5" y="0.5" width="899" height="319" rx="18" fill="none" stroke="#e2e8f0"/>
<text x="32" y="44" font-family="Inter, system-ui, sans-serif" font-size="28" font-weight="700" fill="#334155">Unsorry — Proofs Over Time</text>
<text x="32" y="72" font-family="Inter, system-ui, sans-serif" font-size="13" fill="#64748b">1982 cumulative kernel-verified proofs · merged, hourly</text>
<line x1="52" y1="272.0" x2="872" y2="272.0" stroke="#f1f5f9"/>
<text x="44" y="276.0" text-anchor="end" font-family="Inter, system-ui, sans-serif" font-size="11" fill="#94a3b8">0</text>
<line x1="52" y1="226.5" x2="872" y2="226.5" stroke="#f1f5f9"/>
<text x="44" y="230.5" text-anchor="end" font-family="Inter, system-ui, sans-serif" font-size="11" fill="#94a3b8">496</text>
<line x1="52" y1="181.0" x2="872" y2="181.0" stroke="#f1f5f9"/>
<text x="44" y="185.0" text-anchor="end" font-family="Inter, system-ui, sans-serif" font-size="11" fill="#94a3b8">991</text>
<line x1="52" y1="135.5" x2="872" y2="135.5" stroke="#f1f5f9"/>
<text x="44" y="139.5" text-anchor="end" font-family="Inter, system-ui, sans-serif" font-size="11" fill="#94a3b8">1486</text>
<line x1="52" y1="90.0" x2="872" y2="90.0" stroke="#f1f5f9"/>
<text x="44" y="94.0" text-anchor="end" font-family="Inter, system-ui, sans-serif" font-size="11" fill="#94a3b8">1982</text>
<polygon points="52.0,272.0 52.0,271.9 55.1,271.7 92.5,270.8 95.7,270.5 98.8,270.4 108.1,270.3 126.8,270.3 167.4,270.2 170.5,269.3 173.6,269.2 183.0,269.1 186.1,269.0 189.2,268.9 192.3,268.6 198.5,268.5 201.7,268.1 211.0,267.7 223.5,267.5 226.6,267.2 229.7,267.0 254.7,266.9 260.9,266.9 276.5,266.8 279.6,266.7 282.7,266.5 295.2,266.4 298.3,265.8 301.4,265.4 304.5,264.2 307.7,264.0 329.5,263.9 338.8,263.8 345.1,263.7 348.2,263.6 351.3,263.2 354.4,263.1 357.6,263.0 360.7,262.7 363.8,262.5 376.3,262.0 382.5,261.9 395.0,261.8 398.1,261.3 401.2,261.3 404.3,261.1 410.6,261.0 413.7,259.1 416.8,257.3 419.9,256.7 423.0,256.2 426.1,256.0 429.3,255.6 432.4,254.9 435.5,254.5 438.6,254.2 441.7,254.0 448.0,253.7 451.1,253.0 454.2,252.3 457.3,251.5 460.4,251.1 466.7,250.9 472.9,250.8 476.0,250.1 479.1,249.7 482.3,248.4 485.4,247.7 488.5,246.9 491.6,246.2 494.7,245.4 497.9,244.5 501.0,243.6 504.1,242.6 507.2,241.7 510.3,240.9 513.4,240.3 516.6,239.7 519.7,238.9 522.8,238.6 525.9,238.1 529.0,237.7 532.2,237.5 535.3,237.3 541.5,237.2 544.6,235.4 547.7,234.1 550.9,233.8 554.0,233.7 560.2,233.5 563.3,233.2 575.8,233.2 582.0,233.0 591.4,232.9 594.5,230.8 597.6,228.7 600.7,228.2 603.9,226.5 607.0,225.3 610.1,224.4 613.2,224.0 616.3,223.1 619.5,222.8 622.6,222.6 625.7,222.2 628.8,222.0 647.5,220.6 650.6,218.7 653.7,218.5 656.9,218.2 660.0,218.1 681.8,218.0 709.9,216.1 713.0,214.6 716.1,212.9 719.2,210.3 722.3,209.8 725.5,209.0 728.6,207.5 731.7,206.4 734.8,204.0 737.9,200.3 741.0,196.7 744.2,192.5 747.3,188.1 750.4,184.2 753.5,181.8 756.6,179.0 759.8,174.8 762.9,171.2 766.0,168.8 769.1,166.3 772.2,162.8 775.3,160.6 778.5,158.4 781.6,156.5 784.7,155.0 787.8,153.1 790.9,151.9 794.1,150.6 797.2,149.5 800.3,146.2 803.4,143.5 806.5,142.1 809.6,141.6 812.8,140.8 815.9,139.4 819.0,138.2 822.1,136.0 825.2,134.6 828.3,133.3 831.5,133.2 834.6,132.6 837.7,131.6 840.8,128.9 843.9,124.6 847.1,120.1 850.2,115.6 853.3,111.9 856.4,107.6 859.5,103.0 862.6,98.4 865.8,94.0 868.9,90.9 872.0,90.0 872.0,272.0" fill="#e0f2fe" opacity="0.55"/>
<polyline points="52.0,271.9 55.1,271.7 92.5,270.8 95.7,270.5 98.8,270.4 108.1,270.3 126.8,270.3 167.4,270.2 170.5,269.3 173.6,269.2 183.0,269.1 186.1,269.0 189.2,268.9 192.3,268.6 198.5,268.5 201.7,268.1 211.0,267.7 223.5,267.5 226.6,267.2 229.7,267.0 254.7,266.9 260.9,266.9 276.5,266.8 279.6,266.7 282.7,266.5 295.2,266.4 298.3,265.8 301.4,265.4 304.5,264.2 307.7,264.0 329.5,263.9 338.8,263.8 345.1,263.7 348.2,263.6 351.3,263.2 354.4,263.1 357.6,263.0 360.7,262.7 363.8,262.5 376.3,262.0 382.5,261.9 395.0,261.8 398.1,261.3 401.2,261.3 404.3,261.1 410.6,261.0 413.7,259.1 416.8,257.3 419.9,256.7 423.0,256.2 426.1,256.0 429.3,255.6 432.4,254.9 435.5,254.5 438.6,254.2 441.7,254.0 448.0,253.7 451.1,253.0 454.2,252.3 457.3,251.5 460.4,251.1 466.7,250.9 472.9,250.8 476.0,250.1 479.1,249.7 482.3,248.4 485.4,247.7 488.5,246.9 491.6,246.2 494.7,245.4 497.9,244.5 501.0,243.6 504.1,242.6 507.2,241.7 510.3,240.9 513.4,240.3 516.6,239.7 519.7,238.9 522.8,238.6 525.9,238.1 529.0,237.7 532.2,237.5 535.3,237.3 541.5,237.2 544.6,235.4 547.7,234.1 550.9,233.8 554.0,233.7 560.2,233.5 563.3,233.2 575.8,233.2 582.0,233.0 591.4,232.9 594.5,230.8 597.6,228.7 600.7,228.2 603.9,226.5 607.0,225.3 610.1,224.4 613.2,224.0 616.3,223.1 619.5,222.8 622.6,222.6 625.7,222.2 628.8,222.0 647.5,220.6 650.6,218.7 653.7,218.5 656.9,218.2 660.0,218.1 681.8,218.0 709.9,216.1 713.0,214.6 716.1,212.9 719.2,210.3 722.3,209.8 725.5,209.0 728.6,207.5 731.7,206.4 734.8,204.0 737.9,200.3 741.0,196.7 744.2,192.5 747.3,188.1 750.4,184.2 753.5,181.8 756.6,179.0 759.8,174.8 762.9,171.2 766.0,168.8 769.1,166.3 772.2,162.8 775.3,160.6 778.5,158.4 781.6,156.5 784.7,155.0 787.8,153.1 790.9,151.9 794.1,150.6 797.2,149.5 800.3,146.2 803.4,143.5 806.5,142.1 809.6,141.6 812.8,140.8 815.9,139.4 819.0,138.2 822.1,136.0 825.2,134.6 828.3,133.3 831.5,133.2 834.6,132.6 837.7,131.6 840.8,128.9 843.9,124.6 847.1,120.1 850.2,115.6 853.3,111.9 856.4,107.6 859.5,103.0 862.6,98.4 865.8,94.0 868.9,90.9 872.0,90.0" fill="none" stroke="#38bdf8" stroke-width="2.5" stroke-linejoin="round" stroke-linecap="round"/>
<circle cx="872.0" cy="90.0" r="4" fill="#0ea5e9"/>
<text x="866.0" y="80.0" text-anchor="end" font-family="Inter, system-ui, sans-serif" font-size="13" font-weight="700" fill="#334155">1982</text>
<text x="52.0" y="294" text-anchor="middle" font-family="Inter, system-ui, sans-serif" font-size="11" fill="#94a3b8">Jun 10 05:00</text>
<text x="535.3" y="294" text-anchor="middle" font-family="Inter, system-ui, sans-serif" font-size="11" fill="#94a3b8">Jun 16 16:00</text>
<text x="872.0" y="294" text-anchor="middle" font-family="Inter, system-ui, sans-serif" font-size="11" fill="#94a3b8">Jun 21 04:00</text>
</svg>
