<svg xmlns="http://www.w3.org/2000/svg" width="900" height="320" viewBox="0 0 900 320" role="img" aria-labelledby="title desc">
<title id="title">unsorry proofs over time</title>
<desc id="desc">Cumulative kernel-verified proofs over time, by the hour each proof was merged.</desc>
<rect width="900" height="100%" rx="18" fill="#ffffff"/>
<rect x="0.5" y="0.5" width="899" height="319" rx="18" fill="none" stroke="#e2e8f0"/>
<text x="32" y="44" font-family="Inter, system-ui, sans-serif" font-size="28" font-weight="700" fill="#334155">unsorry — Proofs Over Time</text>
<text x="32" y="72" font-family="Inter, system-ui, sans-serif" font-size="13" fill="#64748b">4503 cumulative kernel-verified proofs · merged, hourly</text>
<line x1="52" y1="272.0" x2="872" y2="272.0" stroke="#f1f5f9"/>
<text x="44" y="276.0" text-anchor="end" font-family="Inter, system-ui, sans-serif" font-size="11" fill="#94a3b8">0</text>
<line x1="52" y1="226.5" x2="872" y2="226.5" stroke="#f1f5f9"/>
<text x="44" y="230.5" text-anchor="end" font-family="Inter, system-ui, sans-serif" font-size="11" fill="#94a3b8">1126</text>
<line x1="52" y1="181.0" x2="872" y2="181.0" stroke="#f1f5f9"/>
<text x="44" y="185.0" text-anchor="end" font-family="Inter, system-ui, sans-serif" font-size="11" fill="#94a3b8">2252</text>
<line x1="52" y1="135.5" x2="872" y2="135.5" stroke="#f1f5f9"/>
<text x="44" y="139.5" text-anchor="end" font-family="Inter, system-ui, sans-serif" font-size="11" fill="#94a3b8">3377</text>
<line x1="52" y1="90.0" x2="872" y2="90.0" stroke="#f1f5f9"/>
<text x="44" y="94.0" text-anchor="end" font-family="Inter, system-ui, sans-serif" font-size="11" fill="#94a3b8">4503</text>
<polygon points="52.0,272.0 52.0,272.0 54.1,271.9 79.5,271.5 81.7,271.4 83.8,271.3 90.1,271.3 102.9,271.2 130.4,271.2 132.5,270.8 134.6,270.8 141.0,270.7 143.1,270.7 145.2,270.6 147.3,270.5 151.6,270.5 153.7,270.3 160.1,270.1 168.5,270.0 170.7,269.9 172.8,269.8 189.7,269.8 194.0,269.7 204.6,269.7 206.7,269.7 208.8,269.6 217.3,269.5 219.4,269.3 221.5,269.1 223.6,268.6 225.7,268.5 240.6,268.4 246.9,268.4 251.2,268.4 253.3,268.3 255.4,268.1 257.5,268.1 259.6,268.0 261.8,267.9 263.9,267.8 272.4,267.6 276.6,267.6 285.1,267.5 287.2,267.3 289.3,267.3 291.4,267.2 295.7,267.1 297.8,266.3 299.9,265.5 302.0,265.3 304.1,265.0 306.3,265.0 308.4,264.8 310.5,264.5 312.6,264.3 314.7,264.2 316.9,264.1 321.1,264.0 323.2,263.6 325.3,263.3 327.5,263.0 329.6,262.8 333.8,262.7 338.0,262.7 340.2,262.4 342.3,262.2 344.4,261.6 346.5,261.3 348.6,261.0 350.8,260.6 352.9,260.3 355.0,259.9 357.1,259.5 359.2,259.1 361.4,258.7 363.5,258.3 365.6,258.1 367.7,257.8 369.8,257.4 371.9,257.3 374.1,257.1 376.2,256.9 378.3,256.8 380.4,256.7 384.7,256.7 386.8,255.9 388.9,255.3 391.0,255.2 393.1,255.1 397.4,255.1 399.5,254.9 408.0,254.9 412.2,254.8 418.6,254.8 420.7,253.9 422.8,253.0 424.9,252.7 427.0,252.0 429.2,251.4 431.3,251.1 433.4,250.9 435.5,250.5 437.6,250.3 439.8,250.3 441.9,250.1 444.0,250.0 456.7,249.4 458.8,248.6 460.9,248.4 463.1,248.3 465.2,248.3 480.0,248.2 499.1,247.4 501.2,246.7 503.3,246.0 505.4,244.8 507.6,244.6 509.7,244.3 511.8,243.6 513.9,243.1 516.0,242.1 518.1,240.4 520.3,238.9 522.4,237.0 524.5,235.1 526.6,233.4 528.7,232.3 530.9,231.1 533.0,229.2 535.1,227.6 537.2,226.6 539.3,225.5 541.5,223.9 543.6,223.0 545.7,222.0 547.8,221.2 549.9,220.5 552.1,219.7 554.2,219.1 556.3,218.6 558.4,218.1 560.5,216.6 562.6,215.5 564.8,214.8 566.9,214.6 569.0,214.2 571.1,213.6 573.2,213.1 575.4,212.1 577.5,211.5 579.6,211.0 581.7,210.9 583.8,210.6 586.0,210.2 588.1,209.0 590.2,207.1 592.3,205.1 594.4,203.2 596.5,201.6 598.7,199.7 600.8,197.6 602.9,195.6 605.0,193.7 607.1,192.3 609.3,191.2 611.4,190.0 613.5,188.7 615.6,187.9 617.7,187.0 619.9,186.2 622.0,185.2 624.1,183.8 626.2,182.1 628.3,180.7 630.4,179.4 632.6,178.6 634.7,177.9 636.8,177.1 638.9,176.3 641.0,175.0 643.2,173.8 645.3,172.4 647.4,170.9 649.5,169.7 651.6,168.7 653.8,168.3 655.9,167.8 658.0,167.2 660.1,167.1 662.2,167.0 664.4,166.8 666.5,166.6 668.6,166.6 670.7,166.4 672.8,166.3 679.2,166.3 681.3,166.2 683.4,166.0 685.5,164.3 687.7,162.9 689.8,161.7 691.9,160.2 694.0,159.0 696.1,157.7 698.3,156.4 700.4,155.2 702.5,153.9 704.6,152.6 706.7,151.4 708.8,150.2 711.0,149.0 713.1,147.8 715.2,146.6 717.3,145.6 719.4,144.5 721.6,143.4 723.7,142.2 725.8,141.2 727.9,140.1 730.0,139.3 732.2,138.6 734.3,137.9 736.4,136.8 738.5,135.9 740.6,135.0 742.7,133.9 744.9,133.0 747.0,132.2 749.1,131.2 751.2,130.2 753.3,129.3 755.5,128.4 757.6,127.3 759.7,126.5 761.8,125.6 763.9,124.8 766.1,124.0 768.2,123.1 770.3,122.3 772.4,121.5 774.5,120.8 776.7,120.2 778.8,119.9 780.9,119.7 783.0,118.9 785.1,118.1 787.2,117.3 789.4,116.5 791.5,115.8 793.6,115.0 795.7,114.2 797.8,113.4 800.0,112.7 802.1,112.0 804.2,111.3 806.3,110.7 808.4,109.8 810.6,109.2 812.7,108.5 814.8,107.7 816.9,107.1 819.0,106.4 821.1,105.6 823.3,105.1 825.4,104.5 827.5,103.7 829.6,102.9 831.7,102.2 833.9,101.4 836.0,100.7 838.1,100.1 840.2,99.5 842.3,98.7 844.5,98.1 846.6,97.7 848.7,97.1 850.8,96.4 852.9,95.7 855.0,94.8 857.2,94.1 859.3,93.4 861.4,92.8 863.5,92.2 865.6,91.5 867.8,90.8 869.9,90.2 872.0,90.0 872.0,272.0" fill="#e0f2fe" opacity="0.55"/>
<polyline points="52.0,272.0 54.1,271.9 79.5,271.5 81.7,271.4 83.8,271.3 90.1,271.3 102.9,271.2 130.4,271.2 132.5,270.8 134.6,270.8 141.0,270.7 143.1,270.7 145.2,270.6 147.3,270.5 151.6,270.5 153.7,270.3 160.1,270.1 168.5,270.0 170.7,269.9 172.8,269.8 189.7,269.8 194.0,269.7 204.6,269.7 206.7,269.7 208.8,269.6 217.3,269.5 219.4,269.3 221.5,269.1 223.6,268.6 225.7,268.5 240.6,268.4 246.9,268.4 251.2,268.4 253.3,268.3 255.4,268.1 257.5,268.1 259.6,268.0 261.8,267.9 263.9,267.8 272.4,267.6 276.6,267.6 285.1,267.5 287.2,267.3 289.3,267.3 291.4,267.2 295.7,267.1 297.8,266.3 299.9,265.5 302.0,265.3 304.1,265.0 306.3,265.0 308.4,264.8 310.5,264.5 312.6,264.3 314.7,264.2 316.9,264.1 321.1,264.0 323.2,263.6 325.3,263.3 327.5,263.0 329.6,262.8 333.8,262.7 338.0,262.7 340.2,262.4 342.3,262.2 344.4,261.6 346.5,261.3 348.6,261.0 350.8,260.6 352.9,260.3 355.0,259.9 357.1,259.5 359.2,259.1 361.4,258.7 363.5,258.3 365.6,258.1 367.7,257.8 369.8,257.4 371.9,257.3 374.1,257.1 376.2,256.9 378.3,256.8 380.4,256.7 384.7,256.7 386.8,255.9 388.9,255.3 391.0,255.2 393.1,255.1 397.4,255.1 399.5,254.9 408.0,254.9 412.2,254.8 418.6,254.8 420.7,253.9 422.8,253.0 424.9,252.7 427.0,252.0 429.2,251.4 431.3,251.1 433.4,250.9 435.5,250.5 437.6,250.3 439.8,250.3 441.9,250.1 444.0,250.0 456.7,249.4 458.8,248.6 460.9,248.4 463.1,248.3 465.2,248.3 480.0,248.2 499.1,247.4 501.2,246.7 503.3,246.0 505.4,244.8 507.6,244.6 509.7,244.3 511.8,243.6 513.9,243.1 516.0,242.1 518.1,240.4 520.3,238.9 522.4,237.0 524.5,235.1 526.6,233.4 528.7,232.3 530.9,231.1 533.0,229.2 535.1,227.6 537.2,226.6 539.3,225.5 541.5,223.9 543.6,223.0 545.7,222.0 547.8,221.2 549.9,220.5 552.1,219.7 554.2,219.1 556.3,218.6 558.4,218.1 560.5,216.6 562.6,215.5 564.8,214.8 566.9,214.6 569.0,214.2 571.1,213.6 573.2,213.1 575.4,212.1 577.5,211.5 579.6,211.0 581.7,210.9 583.8,210.6 586.0,210.2 588.1,209.0 590.2,207.1 592.3,205.1 594.4,203.2 596.5,201.6 598.7,199.7 600.8,197.6 602.9,195.6 605.0,193.7 607.1,192.3 609.3,191.2 611.4,190.0 613.5,188.7 615.6,187.9 617.7,187.0 619.9,186.2 622.0,185.2 624.1,183.8 626.2,182.1 628.3,180.7 630.4,179.4 632.6,178.6 634.7,177.9 636.8,177.1 638.9,176.3 641.0,175.0 643.2,173.8 645.3,172.4 647.4,170.9 649.5,169.7 651.6,168.7 653.8,168.3 655.9,167.8 658.0,167.2 660.1,167.1 662.2,167.0 664.4,166.8 666.5,166.6 668.6,166.6 670.7,166.4 672.8,166.3 679.2,166.3 681.3,166.2 683.4,166.0 685.5,164.3 687.7,162.9 689.8,161.7 691.9,160.2 694.0,159.0 696.1,157.7 698.3,156.4 700.4,155.2 702.5,153.9 704.6,152.6 706.7,151.4 708.8,150.2 711.0,149.0 713.1,147.8 715.2,146.6 717.3,145.6 719.4,144.5 721.6,143.4 723.7,142.2 725.8,141.2 727.9,140.1 730.0,139.3 732.2,138.6 734.3,137.9 736.4,136.8 738.5,135.9 740.6,135.0 742.7,133.9 744.9,133.0 747.0,132.2 749.1,131.2 751.2,130.2 753.3,129.3 755.5,128.4 757.6,127.3 759.7,126.5 761.8,125.6 763.9,124.8 766.1,124.0 768.2,123.1 770.3,122.3 772.4,121.5 774.5,120.8 776.7,120.2 778.8,119.9 780.9,119.7 783.0,118.9 785.1,118.1 787.2,117.3 789.4,116.5 791.5,115.8 793.6,115.0 795.7,114.2 797.8,113.4 800.0,112.7 802.1,112.0 804.2,111.3 806.3,110.7 808.4,109.8 810.6,109.2 812.7,108.5 814.8,107.7 816.9,107.1 819.0,106.4 821.1,105.6 823.3,105.1 825.4,104.5 827.5,103.7 829.6,102.9 831.7,102.2 833.9,101.4 836.0,100.7 838.1,100.1 840.2,99.5 842.3,98.7 844.5,98.1 846.6,97.7 848.7,97.1 850.8,96.4 852.9,95.7 855.0,94.8 857.2,94.1 859.3,93.4 861.4,92.8 863.5,92.2 865.6,91.5 867.8,90.8 869.9,90.2 872.0,90.0" fill="none" stroke="#38bdf8" stroke-width="2.5" stroke-linejoin="round" stroke-linecap="round"/>
<circle cx="872.0" cy="90.0" r="4" fill="#0ea5e9"/>
<text x="866.0" y="80.0" text-anchor="end" font-family="Inter, system-ui, sans-serif" font-size="13" font-weight="700" fill="#334155">4503</text>
<text x="52.0" y="294" text-anchor="middle" font-family="Inter, system-ui, sans-serif" font-size="11" fill="#94a3b8">Jun 10 05:00</text>
<text x="566.9" y="294" text-anchor="middle" font-family="Inter, system-ui, sans-serif" font-size="11" fill="#94a3b8">Jun 20 08:00</text>
<text x="872.0" y="294" text-anchor="middle" font-family="Inter, system-ui, sans-serif" font-size="11" fill="#94a3b8">Jun 26 08:00</text>
</svg>
