<svg xmlns="http://www.w3.org/2000/svg" width="900" height="320" viewBox="0 0 900 320" role="img" aria-labelledby="title desc">
<title id="title">unsorry proofs over time</title>
<desc id="desc">Cumulative kernel-verified proofs over time, by the hour each proof was merged.</desc>
<rect width="900" height="100%" rx="18" fill="#ffffff"/>
<rect x="0.5" y="0.5" width="899" height="319" rx="18" fill="none" stroke="#e2e8f0"/>
<text x="32" y="44" font-family="Inter, system-ui, sans-serif" font-size="28" font-weight="700" fill="#334155">unsorry — Proofs Over Time</text>
<text x="32" y="72" font-family="Inter, system-ui, sans-serif" font-size="13" fill="#64748b">3949 cumulative kernel-verified proofs · merged, hourly</text>
<line x1="52" y1="272.0" x2="872" y2="272.0" stroke="#f1f5f9"/>
<text x="44" y="276.0" text-anchor="end" font-family="Inter, system-ui, sans-serif" font-size="11" fill="#94a3b8">0</text>
<line x1="52" y1="226.5" x2="872" y2="226.5" stroke="#f1f5f9"/>
<text x="44" y="230.5" text-anchor="end" font-family="Inter, system-ui, sans-serif" font-size="11" fill="#94a3b8">987</text>
<line x1="52" y1="181.0" x2="872" y2="181.0" stroke="#f1f5f9"/>
<text x="44" y="185.0" text-anchor="end" font-family="Inter, system-ui, sans-serif" font-size="11" fill="#94a3b8">1974</text>
<line x1="52" y1="135.5" x2="872" y2="135.5" stroke="#f1f5f9"/>
<text x="44" y="139.5" text-anchor="end" font-family="Inter, system-ui, sans-serif" font-size="11" fill="#94a3b8">2962</text>
<line x1="52" y1="90.0" x2="872" y2="90.0" stroke="#f1f5f9"/>
<text x="44" y="94.0" text-anchor="end" font-family="Inter, system-ui, sans-serif" font-size="11" fill="#94a3b8">3949</text>
<polygon points="52.0,272.0 52.0,272.0 54.3,271.9 82.1,271.4 84.4,271.3 86.7,271.2 93.7,271.2 107.6,271.1 137.7,271.1 140.0,270.7 142.3,270.6 149.3,270.5 151.6,270.5 153.9,270.4 156.2,270.3 160.9,270.2 163.2,270.0 170.1,269.8 179.4,269.7 181.7,269.6 184.0,269.5 202.6,269.5 207.2,269.4 218.8,269.4 221.1,269.3 223.4,269.2 232.7,269.2 235.0,268.9 237.3,268.7 239.6,268.1 241.9,268.0 258.2,267.9 265.1,267.9 269.7,267.9 272.1,267.8 274.4,267.6 276.7,267.5 279.0,267.5 281.3,267.3 283.6,267.2 292.9,267.0 297.5,266.9 306.8,266.9 309.1,266.7 311.4,266.6 313.8,266.5 318.4,266.5 320.7,265.5 323.0,264.6 325.3,264.3 327.6,264.1 330.0,264.0 332.3,263.8 334.6,263.4 336.9,263.2 339.2,263.1 341.5,263.0 346.2,262.8 348.5,262.5 350.8,262.1 353.1,261.7 355.4,261.5 360.1,261.4 364.7,261.4 367.0,261.0 369.3,260.8 371.7,260.2 374.0,259.8 376.3,259.4 378.6,259.0 380.9,258.6 383.2,258.2 385.6,257.8 387.9,257.3 390.2,256.8 392.5,256.4 394.8,256.1 397.1,255.8 399.5,255.4 401.8,255.2 404.1,255.0 406.4,254.8 408.7,254.7 411.0,254.6 415.7,254.5 418.0,253.6 420.3,253.0 422.6,252.8 424.9,252.8 429.6,252.7 431.9,252.6 441.2,252.5 445.8,252.4 452.7,252.4 455.1,251.3 457.4,250.3 459.7,250.0 462.0,249.2 464.3,248.5 466.6,248.1 468.9,247.9 471.3,247.5 473.6,247.3 475.9,247.2 478.2,247.0 480.5,246.9 494.4,246.2 496.7,245.3 499.1,245.1 501.4,245.0 503.7,244.9 519.9,244.9 540.8,243.9 543.1,243.2 545.4,242.3 547.7,241.0 550.0,240.8 552.3,240.4 554.7,239.6 557.0,239.1 559.3,237.8 561.6,236.0 563.9,234.2 566.2,232.1 568.6,229.9 570.9,227.9 573.2,226.7 575.5,225.3 577.8,223.2 580.1,221.4 582.5,220.2 584.8,219.0 587.1,217.2 589.4,216.1 591.7,215.0 594.0,214.0 596.4,213.3 598.7,212.3 601.0,211.7 603.3,211.1 605.6,210.5 607.9,208.9 610.2,207.5 612.6,206.8 614.9,206.6 617.2,206.1 619.5,205.4 621.8,204.9 624.1,203.7 626.5,203.1 628.8,202.4 631.1,202.3 633.4,202.0 635.7,201.5 638.0,200.2 640.4,198.0 642.7,195.8 645.0,193.5 647.3,191.7 649.6,189.5 651.9,187.2 654.3,184.8 656.6,182.7 658.9,181.1 661.2,179.9 663.5,178.4 665.8,177.1 668.2,176.1 670.5,175.0 672.8,174.2 675.1,173.0 677.4,171.4 679.7,169.5 682.1,167.8 684.4,166.4 686.7,165.5 689.0,164.7 691.3,163.8 693.6,162.9 696.0,161.3 698.3,160.0 700.6,158.4 702.9,156.7 705.2,155.4 707.5,154.2 709.9,153.8 712.2,153.1 714.5,152.5 716.8,152.4 719.1,152.3 721.4,152.0 723.8,151.8 726.1,151.8 728.4,151.6 730.7,151.5 737.6,151.4 740.0,151.4 742.3,151.1 744.6,149.2 746.9,147.6 749.2,146.2 751.5,144.6 753.9,143.1 756.2,141.7 758.5,140.2 760.8,138.8 763.1,137.3 765.4,135.9 767.8,134.5 770.1,133.1 772.4,131.8 774.7,130.4 777.0,129.0 779.3,127.9 781.7,126.6 784.0,125.3 786.3,124.0 788.6,122.8 790.9,121.6 793.2,120.7 795.6,119.9 797.9,119.1 800.2,117.9 802.5,116.8 804.8,115.8 807.1,114.6 809.5,113.5 811.8,112.5 814.1,111.4 816.4,110.3 818.7,109.3 821.0,108.3 823.4,107.1 825.7,106.1 828.0,105.0 830.3,104.1 832.6,103.3 834.9,102.2 837.3,101.2 839.6,100.4 841.9,99.6 844.2,98.9 846.5,98.5 848.8,98.4 851.2,97.4 853.5,96.5 855.8,95.6 858.1,94.7 860.4,93.9 862.7,92.9 865.1,92.1 867.4,91.2 869.7,90.4 872.0,90.0 872.0,272.0" fill="#e0f2fe" opacity="0.55"/>
<polyline points="52.0,272.0 54.3,271.9 82.1,271.4 84.4,271.3 86.7,271.2 93.7,271.2 107.6,271.1 137.7,271.1 140.0,270.7 142.3,270.6 149.3,270.5 151.6,270.5 153.9,270.4 156.2,270.3 160.9,270.2 163.2,270.0 170.1,269.8 179.4,269.7 181.7,269.6 184.0,269.5 202.6,269.5 207.2,269.4 218.8,269.4 221.1,269.3 223.4,269.2 232.7,269.2 235.0,268.9 237.3,268.7 239.6,268.1 241.9,268.0 258.2,267.9 265.1,267.9 269.7,267.9 272.1,267.8 274.4,267.6 276.7,267.5 279.0,267.5 281.3,267.3 283.6,267.2 292.9,267.0 297.5,266.9 306.8,266.9 309.1,266.7 311.4,266.6 313.8,266.5 318.4,266.5 320.7,265.5 323.0,264.6 325.3,264.3 327.6,264.1 330.0,264.0 332.3,263.8 334.6,263.4 336.9,263.2 339.2,263.1 341.5,263.0 346.2,262.8 348.5,262.5 350.8,262.1 353.1,261.7 355.4,261.5 360.1,261.4 364.7,261.4 367.0,261.0 369.3,260.8 371.7,260.2 374.0,259.8 376.3,259.4 378.6,259.0 380.9,258.6 383.2,258.2 385.6,257.8 387.9,257.3 390.2,256.8 392.5,256.4 394.8,256.1 397.1,255.8 399.5,255.4 401.8,255.2 404.1,255.0 406.4,254.8 408.7,254.7 411.0,254.6 415.7,254.5 418.0,253.6 420.3,253.0 422.6,252.8 424.9,252.8 429.6,252.7 431.9,252.6 441.2,252.5 445.8,252.4 452.7,252.4 455.1,251.3 457.4,250.3 459.7,250.0 462.0,249.2 464.3,248.5 466.6,248.1 468.9,247.9 471.3,247.5 473.6,247.3 475.9,247.2 478.2,247.0 480.5,246.9 494.4,246.2 496.7,245.3 499.1,245.1 501.4,245.0 503.7,244.9 519.9,244.9 540.8,243.9 543.1,243.2 545.4,242.3 547.7,241.0 550.0,240.8 552.3,240.4 554.7,239.6 557.0,239.1 559.3,237.8 561.6,236.0 563.9,234.2 566.2,232.1 568.6,229.9 570.9,227.9 573.2,226.7 575.5,225.3 577.8,223.2 580.1,221.4 582.5,220.2 584.8,219.0 587.1,217.2 589.4,216.1 591.7,215.0 594.0,214.0 596.4,213.3 598.7,212.3 601.0,211.7 603.3,211.1 605.6,210.5 607.9,208.9 610.2,207.5 612.6,206.8 614.9,206.6 617.2,206.1 619.5,205.4 621.8,204.9 624.1,203.7 626.5,203.1 628.8,202.4 631.1,202.3 633.4,202.0 635.7,201.5 638.0,200.2 640.4,198.0 642.7,195.8 645.0,193.5 647.3,191.7 649.6,189.5 651.9,187.2 654.3,184.8 656.6,182.7 658.9,181.1 661.2,179.9 663.5,178.4 665.8,177.1 668.2,176.1 670.5,175.0 672.8,174.2 675.1,173.0 677.4,171.4 679.7,169.5 682.1,167.8 684.4,166.4 686.7,165.5 689.0,164.7 691.3,163.8 693.6,162.9 696.0,161.3 698.3,160.0 700.6,158.4 702.9,156.7 705.2,155.4 707.5,154.2 709.9,153.8 712.2,153.1 714.5,152.5 716.8,152.4 719.1,152.3 721.4,152.0 723.8,151.8 726.1,151.8 728.4,151.6 730.7,151.5 737.6,151.4 740.0,151.4 742.3,151.1 744.6,149.2 746.9,147.6 749.2,146.2 751.5,144.6 753.9,143.1 756.2,141.7 758.5,140.2 760.8,138.8 763.1,137.3 765.4,135.9 767.8,134.5 770.1,133.1 772.4,131.8 774.7,130.4 777.0,129.0 779.3,127.9 781.7,126.6 784.0,125.3 786.3,124.0 788.6,122.8 790.9,121.6 793.2,120.7 795.6,119.9 797.9,119.1 800.2,117.9 802.5,116.8 804.8,115.8 807.1,114.6 809.5,113.5 811.8,112.5 814.1,111.4 816.4,110.3 818.7,109.3 821.0,108.3 823.4,107.1 825.7,106.1 828.0,105.0 830.3,104.1 832.6,103.3 834.9,102.2 837.3,101.2 839.6,100.4 841.9,99.6 844.2,98.9 846.5,98.5 848.8,98.4 851.2,97.4 853.5,96.5 855.8,95.6 858.1,94.7 860.4,93.9 862.7,92.9 865.1,92.1 867.4,91.2 869.7,90.4 872.0,90.0" fill="none" stroke="#38bdf8" stroke-width="2.5" stroke-linejoin="round" stroke-linecap="round"/>
<circle cx="872.0" cy="90.0" r="4" fill="#0ea5e9"/>
<text x="866.0" y="80.0" text-anchor="end" font-family="Inter, system-ui, sans-serif" font-size="13" font-weight="700" fill="#334155">3949</text>
<text x="52.0" y="294" text-anchor="middle" font-family="Inter, system-ui, sans-serif" font-size="11" fill="#94a3b8">Jun 10 05:00</text>
<text x="575.5" y="294" text-anchor="middle" font-family="Inter, system-ui, sans-serif" font-size="11" fill="#94a3b8">Jun 19 15:00</text>
<text x="872.0" y="294" text-anchor="middle" font-family="Inter, system-ui, sans-serif" font-size="11" fill="#94a3b8">Jun 24 23:00</text>
</svg>
