<svg xmlns="http://www.w3.org/2000/svg" width="900" height="320" viewBox="0 0 900 320" role="img" aria-labelledby="title desc">
<title id="title">unsorry proofs over time</title>
<desc id="desc">Cumulative kernel-verified proofs over time, by the hour each proof was merged.</desc>
<rect width="900" height="100%" rx="18" fill="#ffffff"/>
<rect x="0.5" y="0.5" width="899" height="319" rx="18" fill="none" stroke="#e2e8f0"/>
<text x="32" y="44" font-family="Inter, system-ui, sans-serif" font-size="28" font-weight="700" fill="#334155">unsorry — Proofs Over Time</text>
<text x="32" y="72" font-family="Inter, system-ui, sans-serif" font-size="13" fill="#64748b">4313 cumulative kernel-verified proofs · merged, hourly</text>
<line x1="52" y1="272.0" x2="872" y2="272.0" stroke="#f1f5f9"/>
<text x="44" y="276.0" text-anchor="end" font-family="Inter, system-ui, sans-serif" font-size="11" fill="#94a3b8">0</text>
<line x1="52" y1="226.5" x2="872" y2="226.5" stroke="#f1f5f9"/>
<text x="44" y="230.5" text-anchor="end" font-family="Inter, system-ui, sans-serif" font-size="11" fill="#94a3b8">1078</text>
<line x1="52" y1="181.0" x2="872" y2="181.0" stroke="#f1f5f9"/>
<text x="44" y="185.0" text-anchor="end" font-family="Inter, system-ui, sans-serif" font-size="11" fill="#94a3b8">2156</text>
<line x1="52" y1="135.5" x2="872" y2="135.5" stroke="#f1f5f9"/>
<text x="44" y="139.5" text-anchor="end" font-family="Inter, system-ui, sans-serif" font-size="11" fill="#94a3b8">3235</text>
<line x1="52" y1="90.0" x2="872" y2="90.0" stroke="#f1f5f9"/>
<text x="44" y="94.0" text-anchor="end" font-family="Inter, system-ui, sans-serif" font-size="11" fill="#94a3b8">4313</text>
<polygon points="52.0,272.0 52.0,272.0 54.2,271.9 80.4,271.5 82.5,271.3 84.7,271.3 91.3,271.2 104.3,271.2 132.7,271.2 134.9,270.8 137.1,270.7 143.6,270.6 145.8,270.6 148.0,270.6 150.1,270.4 154.5,270.4 156.7,270.2 163.2,270.0 171.9,269.9 174.1,269.8 176.3,269.7 193.8,269.7 198.1,269.6 209.0,269.6 211.2,269.6 213.4,269.5 222.1,269.4 224.3,269.2 226.5,269.0 228.6,268.4 230.8,268.3 246.1,268.3 252.6,268.2 257.0,268.2 259.2,268.2 261.4,267.9 263.5,267.9 265.7,267.9 267.9,267.7 270.1,267.6 278.8,267.4 283.2,267.4 291.9,267.3 294.1,267.1 296.3,267.1 298.4,267.0 302.8,266.9 305.0,266.1 307.2,265.2 309.3,265.0 311.5,264.7 313.7,264.7 315.9,264.4 318.1,264.2 320.2,263.9 322.4,263.8 324.6,263.7 329.0,263.6 331.1,263.3 333.3,262.9 335.5,262.6 337.7,262.4 342.1,262.3 346.4,262.3 348.6,262.0 350.8,261.7 353.0,261.2 355.1,260.8 357.3,260.5 359.5,260.1 361.7,259.8 363.9,259.4 366.0,259.0 368.2,258.5 370.4,258.1 372.6,257.7 374.8,257.4 376.9,257.1 379.1,256.8 381.3,256.6 383.5,256.4 385.7,256.2 387.9,256.1 390.0,256.0 394.4,256.0 396.6,255.2 398.8,254.6 400.9,254.4 403.1,254.4 407.5,254.3 409.7,254.2 418.4,254.2 422.7,254.1 429.3,254.0 431.5,253.1 433.6,252.1 435.8,251.9 438.0,251.1 440.2,250.5 442.4,250.1 444.6,249.9 446.7,249.6 448.9,249.4 451.1,249.3 453.3,249.1 455.5,249.0 468.5,248.4 470.7,247.5 472.9,247.4 475.1,247.3 477.3,247.2 492.5,247.2 512.2,246.3 514.3,245.6 516.5,244.8 518.7,243.6 520.9,243.4 523.1,243.1 525.2,242.4 527.4,241.9 529.6,240.7 531.8,239.0 534.0,237.4 536.1,235.5 538.3,233.4 540.5,231.7 542.7,230.6 544.9,229.3 547.1,227.3 549.2,225.7 551.4,224.6 553.6,223.4 555.8,221.8 558.0,220.8 560.1,219.8 562.3,218.9 564.5,218.2 566.7,217.4 568.9,216.8 571.0,216.2 573.2,215.7 575.4,214.2 577.6,213.0 579.8,212.3 581.9,212.1 584.1,211.7 586.3,211.1 588.5,210.5 590.7,209.5 592.9,208.9 595.0,208.3 597.2,208.2 599.4,207.9 601.6,207.5 603.8,206.3 605.9,204.3 608.1,202.2 610.3,200.1 612.5,198.4 614.7,196.5 616.8,194.4 619.0,192.2 621.2,190.2 623.4,188.8 625.6,187.6 627.7,186.3 629.9,185.1 632.1,184.2 634.3,183.2 636.5,182.5 638.6,181.4 640.8,179.9 643.0,178.1 645.2,176.6 647.4,175.3 649.6,174.5 651.7,173.7 653.9,173.0 656.1,172.1 658.3,170.7 660.5,169.5 662.6,168.0 664.8,166.5 667.0,165.2 669.2,164.2 671.4,163.8 673.5,163.2 675.7,162.6 677.9,162.5 680.1,162.4 682.3,162.1 684.4,162.0 686.6,161.9 688.8,161.7 691.0,161.7 697.5,161.6 699.7,161.6 701.9,161.3 704.1,159.6 706.3,158.1 708.4,156.8 710.6,155.3 712.8,154.0 715.0,152.7 717.2,151.3 719.3,150.0 721.5,148.7 723.7,147.4 725.9,146.1 728.1,144.8 730.2,143.6 732.4,142.3 734.6,141.1 736.8,140.0 739.0,138.9 741.1,137.7 743.3,136.5 745.5,135.4 747.7,134.3 749.9,133.5 752.1,132.7 754.2,132.0 756.4,130.9 758.6,129.9 760.8,129.0 763.0,127.9 765.1,126.9 767.3,126.0 769.5,125.0 771.7,124.0 773.9,123.0 776.0,122.1 778.2,121.0 780.4,120.1 782.6,119.1 784.8,118.3 786.9,117.5 789.1,116.5 791.3,115.7 793.5,114.9 795.7,114.2 797.9,113.5 800.0,113.2 802.2,113.0 804.4,112.2 806.6,111.4 808.8,110.5 810.9,109.6 813.1,108.9 815.3,108.1 817.5,107.3 819.7,106.5 821.8,105.7 824.0,105.0 826.2,104.3 828.4,103.5 830.6,102.7 832.7,102.0 834.9,101.3 837.1,100.5 839.3,99.8 841.5,99.2 843.6,98.3 845.8,97.7 848.0,97.1 850.2,96.2 852.4,95.4 854.6,94.7 856.7,93.9 858.9,93.2 861.1,92.6 863.3,91.9 865.5,91.1 867.6,90.5 869.8,90.0 872.0,90.0 872.0,272.0" fill="#e0f2fe" opacity="0.55"/>
<polyline points="52.0,272.0 54.2,271.9 80.4,271.5 82.5,271.3 84.7,271.3 91.3,271.2 104.3,271.2 132.7,271.2 134.9,270.8 137.1,270.7 143.6,270.6 145.8,270.6 148.0,270.6 150.1,270.4 154.5,270.4 156.7,270.2 163.2,270.0 171.9,269.9 174.1,269.8 176.3,269.7 193.8,269.7 198.1,269.6 209.0,269.6 211.2,269.6 213.4,269.5 222.1,269.4 224.3,269.2 226.5,269.0 228.6,268.4 230.8,268.3 246.1,268.3 252.6,268.2 257.0,268.2 259.2,268.2 261.4,267.9 263.5,267.9 265.7,267.9 267.9,267.7 270.1,267.6 278.8,267.4 283.2,267.4 291.9,267.3 294.1,267.1 296.3,267.1 298.4,267.0 302.8,266.9 305.0,266.1 307.2,265.2 309.3,265.0 311.5,264.7 313.7,264.7 315.9,264.4 318.1,264.2 320.2,263.9 322.4,263.8 324.6,263.7 329.0,263.6 331.1,263.3 333.3,262.9 335.5,262.6 337.7,262.4 342.1,262.3 346.4,262.3 348.6,262.0 350.8,261.7 353.0,261.2 355.1,260.8 357.3,260.5 359.5,260.1 361.7,259.8 363.9,259.4 366.0,259.0 368.2,258.5 370.4,258.1 372.6,257.7 374.8,257.4 376.9,257.1 379.1,256.8 381.3,256.6 383.5,256.4 385.7,256.2 387.9,256.1 390.0,256.0 394.4,256.0 396.6,255.2 398.8,254.6 400.9,254.4 403.1,254.4 407.5,254.3 409.7,254.2 418.4,254.2 422.7,254.1 429.3,254.0 431.5,253.1 433.6,252.1 435.8,251.9 438.0,251.1 440.2,250.5 442.4,250.1 444.6,249.9 446.7,249.6 448.9,249.4 451.1,249.3 453.3,249.1 455.5,249.0 468.5,248.4 470.7,247.5 472.9,247.4 475.1,247.3 477.3,247.2 492.5,247.2 512.2,246.3 514.3,245.6 516.5,244.8 518.7,243.6 520.9,243.4 523.1,243.1 525.2,242.4 527.4,241.9 529.6,240.7 531.8,239.0 534.0,237.4 536.1,235.5 538.3,233.4 540.5,231.7 542.7,230.6 544.9,229.3 547.1,227.3 549.2,225.7 551.4,224.6 553.6,223.4 555.8,221.8 558.0,220.8 560.1,219.8 562.3,218.9 564.5,218.2 566.7,217.4 568.9,216.8 571.0,216.2 573.2,215.7 575.4,214.2 577.6,213.0 579.8,212.3 581.9,212.1 584.1,211.7 586.3,211.1 588.5,210.5 590.7,209.5 592.9,208.9 595.0,208.3 597.2,208.2 599.4,207.9 601.6,207.5 603.8,206.3 605.9,204.3 608.1,202.2 610.3,200.1 612.5,198.4 614.7,196.5 616.8,194.4 619.0,192.2 621.2,190.2 623.4,188.8 625.6,187.6 627.7,186.3 629.9,185.1 632.1,184.2 634.3,183.2 636.5,182.5 638.6,181.4 640.8,179.9 643.0,178.1 645.2,176.6 647.4,175.3 649.6,174.5 651.7,173.7 653.9,173.0 656.1,172.1 658.3,170.7 660.5,169.5 662.6,168.0 664.8,166.5 667.0,165.2 669.2,164.2 671.4,163.8 673.5,163.2 675.7,162.6 677.9,162.5 680.1,162.4 682.3,162.1 684.4,162.0 686.6,161.9 688.8,161.7 691.0,161.7 697.5,161.6 699.7,161.6 701.9,161.3 704.1,159.6 706.3,158.1 708.4,156.8 710.6,155.3 712.8,154.0 715.0,152.7 717.2,151.3 719.3,150.0 721.5,148.7 723.7,147.4 725.9,146.1 728.1,144.8 730.2,143.6 732.4,142.3 734.6,141.1 736.8,140.0 739.0,138.9 741.1,137.7 743.3,136.5 745.5,135.4 747.7,134.3 749.9,133.5 752.1,132.7 754.2,132.0 756.4,130.9 758.6,129.9 760.8,129.0 763.0,127.9 765.1,126.9 767.3,126.0 769.5,125.0 771.7,124.0 773.9,123.0 776.0,122.1 778.2,121.0 780.4,120.1 782.6,119.1 784.8,118.3 786.9,117.5 789.1,116.5 791.3,115.7 793.5,114.9 795.7,114.2 797.9,113.5 800.0,113.2 802.2,113.0 804.4,112.2 806.6,111.4 808.8,110.5 810.9,109.6 813.1,108.9 815.3,108.1 817.5,107.3 819.7,106.5 821.8,105.7 824.0,105.0 826.2,104.3 828.4,103.5 830.6,102.7 832.7,102.0 834.9,101.3 837.1,100.5 839.3,99.8 841.5,99.2 843.6,98.3 845.8,97.7 848.0,97.1 850.2,96.2 852.4,95.4 854.6,94.7 856.7,93.9 858.9,93.2 861.1,92.6 863.3,91.9 865.5,91.1 867.6,90.5 869.8,90.0 872.0,90.0" fill="none" stroke="#38bdf8" stroke-width="2.5" stroke-linejoin="round" stroke-linecap="round"/>
<circle cx="872.0" cy="90.0" r="4" fill="#0ea5e9"/>
<text x="866.0" y="80.0" text-anchor="end" font-family="Inter, system-ui, sans-serif" font-size="13" font-weight="700" fill="#334155">4313</text>
<text x="52.0" y="294" text-anchor="middle" font-family="Inter, system-ui, sans-serif" font-size="11" fill="#94a3b8">Jun 10 05:00</text>
<text x="568.9" y="294" text-anchor="middle" font-family="Inter, system-ui, sans-serif" font-size="11" fill="#94a3b8">Jun 20 02:00</text>
<text x="872.0" y="294" text-anchor="middle" font-family="Inter, system-ui, sans-serif" font-size="11" fill="#94a3b8">Jun 25 21:00</text>
</svg>
