<svg xmlns="http://www.w3.org/2000/svg" width="900" height="320" viewBox="0 0 900 320" role="img" aria-labelledby="title desc">
<title id="title">unsorry proofs over time</title>
<desc id="desc">Cumulative kernel-verified proofs over time, by the hour each proof was merged.</desc>
<rect width="900" height="100%" rx="18" fill="#ffffff"/>
<rect x="0.5" y="0.5" width="899" height="319" rx="18" fill="none" stroke="#e2e8f0"/>
<text x="32" y="44" font-family="Inter, system-ui, sans-serif" font-size="28" font-weight="700" fill="#334155">unsorry — Proofs Over Time</text>
<text x="32" y="72" font-family="Inter, system-ui, sans-serif" font-size="13" fill="#64748b">4252 cumulative kernel-verified proofs · merged, hourly</text>
<line x1="52" y1="272.0" x2="872" y2="272.0" stroke="#f1f5f9"/>
<text x="44" y="276.0" text-anchor="end" font-family="Inter, system-ui, sans-serif" font-size="11" fill="#94a3b8">0</text>
<line x1="52" y1="226.5" x2="872" y2="226.5" stroke="#f1f5f9"/>
<text x="44" y="230.5" text-anchor="end" font-family="Inter, system-ui, sans-serif" font-size="11" fill="#94a3b8">1063</text>
<line x1="52" y1="181.0" x2="872" y2="181.0" stroke="#f1f5f9"/>
<text x="44" y="185.0" text-anchor="end" font-family="Inter, system-ui, sans-serif" font-size="11" fill="#94a3b8">2126</text>
<line x1="52" y1="135.5" x2="872" y2="135.5" stroke="#f1f5f9"/>
<text x="44" y="139.5" text-anchor="end" font-family="Inter, system-ui, sans-serif" font-size="11" fill="#94a3b8">3189</text>
<line x1="52" y1="90.0" x2="872" y2="90.0" stroke="#f1f5f9"/>
<text x="44" y="94.0" text-anchor="end" font-family="Inter, system-ui, sans-serif" font-size="11" fill="#94a3b8">4252</text>
<polygon points="52.0,272.0 52.0,272.0 54.2,271.9 80.7,271.4 82.9,271.3 85.2,271.3 91.8,271.2 105.0,271.2 133.8,271.1 136.0,270.8 138.2,270.7 144.8,270.6 147.0,270.6 149.3,270.5 151.5,270.4 155.9,270.4 158.1,270.2 164.7,270.0 173.6,269.9 175.8,269.8 178.0,269.7 195.7,269.6 200.1,269.6 211.1,269.6 213.3,269.5 215.6,269.4 224.4,269.4 226.6,269.1 228.8,268.9 231.0,268.4 233.2,268.3 248.7,268.2 255.3,268.2 259.8,268.1 262.0,268.1 264.2,267.9 266.4,267.8 268.6,267.8 270.8,267.7 273.0,267.5 281.9,267.3 286.3,267.3 295.1,267.2 297.3,267.0 299.5,267.0 301.8,266.9 306.2,266.9 308.4,266.0 310.6,265.2 312.8,264.9 315.0,264.6 317.2,264.6 319.4,264.3 321.6,264.0 323.9,263.8 326.1,263.7 328.3,263.6 332.7,263.5 334.9,263.1 337.1,262.8 339.3,262.5 341.5,262.2 346.0,262.2 350.4,262.1 352.6,261.8 354.8,261.6 357.0,261.0 359.2,260.7 361.4,260.3 363.6,260.0 365.9,259.6 368.1,259.2 370.3,258.8 372.5,258.3 374.7,257.9 376.9,257.5 379.1,257.2 381.3,256.9 383.5,256.6 385.7,256.4 388.0,256.2 390.2,256.0 392.4,255.9 394.6,255.8 399.0,255.8 401.2,254.9 403.4,254.3 405.6,254.2 407.8,254.2 412.3,254.1 414.5,253.9 423.3,253.9 427.7,253.8 434.4,253.8 436.6,252.8 438.8,251.8 441.0,251.6 443.2,250.8 445.4,250.2 447.6,249.8 449.8,249.6 452.1,249.2 454.3,249.1 456.5,249.0 458.7,248.8 460.9,248.7 474.2,248.0 476.4,247.2 478.6,247.0 480.8,246.9 483.0,246.9 498.5,246.8 518.4,245.9 520.6,245.2 522.8,244.4 525.0,243.2 527.2,243.0 529.4,242.6 531.6,242.0 533.8,241.4 536.0,240.3 538.3,238.6 540.5,236.9 542.7,234.9 544.9,232.9 547.1,231.1 549.3,230.0 551.5,228.6 553.7,226.7 555.9,225.0 558.1,223.9 560.4,222.7 562.6,221.1 564.8,220.1 567.0,219.1 569.2,218.2 571.4,217.5 573.6,216.6 575.8,216.0 578.0,215.4 580.2,214.9 582.5,213.4 584.7,212.1 586.9,211.4 589.1,211.2 591.3,210.8 593.5,210.2 595.7,209.6 597.9,208.6 600.1,208.0 602.4,207.4 604.6,207.3 606.8,207.0 609.0,206.6 611.2,205.3 613.4,203.3 615.6,201.2 617.8,199.1 620.0,197.4 622.2,195.4 624.5,193.2 626.7,191.1 628.9,189.0 631.1,187.6 633.3,186.4 635.5,185.1 637.7,183.8 639.9,183.0 642.1,181.9 644.3,181.2 646.6,180.1 648.8,178.6 651.0,176.8 653.2,175.3 655.4,173.9 657.6,173.1 659.8,172.3 662.0,171.5 664.2,170.7 666.4,169.2 668.7,168.0 670.9,166.5 673.1,164.9 675.3,163.7 677.5,162.6 679.7,162.2 681.9,161.6 684.1,161.0 686.3,160.9 688.5,160.8 690.8,160.5 693.0,160.4 695.2,160.4 697.4,160.2 699.6,160.1 706.2,160.0 708.4,160.0 710.7,159.7 712.9,158.0 715.1,156.5 717.3,155.1 719.5,153.6 721.7,152.3 723.9,151.0 726.1,149.6 728.3,148.3 730.5,146.9 732.8,145.6 735.0,144.3 737.2,143.0 739.4,141.7 741.6,140.5 743.8,139.2 746.0,138.2 748.2,137.0 750.4,135.8 752.6,134.6 754.9,133.4 757.1,132.3 759.3,131.5 761.5,130.7 763.7,130.0 765.9,128.9 768.1,127.9 770.3,126.9 772.5,125.8 774.7,124.8 777.0,123.9 779.2,122.9 781.4,121.8 783.6,120.9 785.8,119.9 788.0,118.8 790.2,118.0 792.4,116.9 794.6,116.1 796.9,115.3 799.1,114.3 801.3,113.4 803.5,112.6 805.7,111.9 807.9,111.3 810.1,110.9 812.3,110.8 814.5,109.9 816.7,109.0 819.0,108.2 821.2,107.3 823.4,106.6 825.6,105.7 827.8,104.9 830.0,104.1 832.2,103.3 834.4,102.6 836.6,101.9 838.8,101.1 841.1,100.3 843.3,99.6 845.5,98.8 847.7,98.0 849.9,97.3 852.1,96.7 854.3,95.8 856.5,95.2 858.7,94.6 860.9,93.7 863.2,92.9 865.4,92.2 867.6,91.4 869.8,90.6 872.0,90.0 872.0,272.0" fill="#e0f2fe" opacity="0.55"/>
<polyline points="52.0,272.0 54.2,271.9 80.7,271.4 82.9,271.3 85.2,271.3 91.8,271.2 105.0,271.2 133.8,271.1 136.0,270.8 138.2,270.7 144.8,270.6 147.0,270.6 149.3,270.5 151.5,270.4 155.9,270.4 158.1,270.2 164.7,270.0 173.6,269.9 175.8,269.8 178.0,269.7 195.7,269.6 200.1,269.6 211.1,269.6 213.3,269.5 215.6,269.4 224.4,269.4 226.6,269.1 228.8,268.9 231.0,268.4 233.2,268.3 248.7,268.2 255.3,268.2 259.8,268.1 262.0,268.1 264.2,267.9 266.4,267.8 268.6,267.8 270.8,267.7 273.0,267.5 281.9,267.3 286.3,267.3 295.1,267.2 297.3,267.0 299.5,267.0 301.8,266.9 306.2,266.9 308.4,266.0 310.6,265.2 312.8,264.9 315.0,264.6 317.2,264.6 319.4,264.3 321.6,264.0 323.9,263.8 326.1,263.7 328.3,263.6 332.7,263.5 334.9,263.1 337.1,262.8 339.3,262.5 341.5,262.2 346.0,262.2 350.4,262.1 352.6,261.8 354.8,261.6 357.0,261.0 359.2,260.7 361.4,260.3 363.6,260.0 365.9,259.6 368.1,259.2 370.3,258.8 372.5,258.3 374.7,257.9 376.9,257.5 379.1,257.2 381.3,256.9 383.5,256.6 385.7,256.4 388.0,256.2 390.2,256.0 392.4,255.9 394.6,255.8 399.0,255.8 401.2,254.9 403.4,254.3 405.6,254.2 407.8,254.2 412.3,254.1 414.5,253.9 423.3,253.9 427.7,253.8 434.4,253.8 436.6,252.8 438.8,251.8 441.0,251.6 443.2,250.8 445.4,250.2 447.6,249.8 449.8,249.6 452.1,249.2 454.3,249.1 456.5,249.0 458.7,248.8 460.9,248.7 474.2,248.0 476.4,247.2 478.6,247.0 480.8,246.9 483.0,246.9 498.5,246.8 518.4,245.9 520.6,245.2 522.8,244.4 525.0,243.2 527.2,243.0 529.4,242.6 531.6,242.0 533.8,241.4 536.0,240.3 538.3,238.6 540.5,236.9 542.7,234.9 544.9,232.9 547.1,231.1 549.3,230.0 551.5,228.6 553.7,226.7 555.9,225.0 558.1,223.9 560.4,222.7 562.6,221.1 564.8,220.1 567.0,219.1 569.2,218.2 571.4,217.5 573.6,216.6 575.8,216.0 578.0,215.4 580.2,214.9 582.5,213.4 584.7,212.1 586.9,211.4 589.1,211.2 591.3,210.8 593.5,210.2 595.7,209.6 597.9,208.6 600.1,208.0 602.4,207.4 604.6,207.3 606.8,207.0 609.0,206.6 611.2,205.3 613.4,203.3 615.6,201.2 617.8,199.1 620.0,197.4 622.2,195.4 624.5,193.2 626.7,191.1 628.9,189.0 631.1,187.6 633.3,186.4 635.5,185.1 637.7,183.8 639.9,183.0 642.1,181.9 644.3,181.2 646.6,180.1 648.8,178.6 651.0,176.8 653.2,175.3 655.4,173.9 657.6,173.1 659.8,172.3 662.0,171.5 664.2,170.7 666.4,169.2 668.7,168.0 670.9,166.5 673.1,164.9 675.3,163.7 677.5,162.6 679.7,162.2 681.9,161.6 684.1,161.0 686.3,160.9 688.5,160.8 690.8,160.5 693.0,160.4 695.2,160.4 697.4,160.2 699.6,160.1 706.2,160.0 708.4,160.0 710.7,159.7 712.9,158.0 715.1,156.5 717.3,155.1 719.5,153.6 721.7,152.3 723.9,151.0 726.1,149.6 728.3,148.3 730.5,146.9 732.8,145.6 735.0,144.3 737.2,143.0 739.4,141.7 741.6,140.5 743.8,139.2 746.0,138.2 748.2,137.0 750.4,135.8 752.6,134.6 754.9,133.4 757.1,132.3 759.3,131.5 761.5,130.7 763.7,130.0 765.9,128.9 768.1,127.9 770.3,126.9 772.5,125.8 774.7,124.8 777.0,123.9 779.2,122.9 781.4,121.8 783.6,120.9 785.8,119.9 788.0,118.8 790.2,118.0 792.4,116.9 794.6,116.1 796.9,115.3 799.1,114.3 801.3,113.4 803.5,112.6 805.7,111.9 807.9,111.3 810.1,110.9 812.3,110.8 814.5,109.9 816.7,109.0 819.0,108.2 821.2,107.3 823.4,106.6 825.6,105.7 827.8,104.9 830.0,104.1 832.2,103.3 834.4,102.6 836.6,101.9 838.8,101.1 841.1,100.3 843.3,99.6 845.5,98.8 847.7,98.0 849.9,97.3 852.1,96.7 854.3,95.8 856.5,95.2 858.7,94.6 860.9,93.7 863.2,92.9 865.4,92.2 867.6,91.4 869.8,90.6 872.0,90.0" fill="none" stroke="#38bdf8" stroke-width="2.5" stroke-linejoin="round" stroke-linecap="round"/>
<circle cx="872.0" cy="90.0" r="4" fill="#0ea5e9"/>
<text x="866.0" y="80.0" text-anchor="end" font-family="Inter, system-ui, sans-serif" font-size="13" font-weight="700" fill="#334155">4252</text>
<text x="52.0" y="294" text-anchor="middle" font-family="Inter, system-ui, sans-serif" font-size="11" fill="#94a3b8">Jun 10 05:00</text>
<text x="571.4" y="294" text-anchor="middle" font-family="Inter, system-ui, sans-serif" font-size="11" fill="#94a3b8">Jun 20 00:00</text>
<text x="872.0" y="294" text-anchor="middle" font-family="Inter, system-ui, sans-serif" font-size="11" fill="#94a3b8">Jun 25 16:00</text>
</svg>
