<svg xmlns="http://www.w3.org/2000/svg" width="900" height="320" viewBox="0 0 900 320" role="img" aria-labelledby="title desc">
<title id="title">unsorry proofs over time</title>
<desc id="desc">Cumulative kernel-verified proofs over time, by the hour each proof was merged.</desc>
<rect width="900" height="100%" rx="18" fill="#ffffff"/>
<rect x="0.5" y="0.5" width="899" height="319" rx="18" fill="none" stroke="#e2e8f0"/>
<text x="32" y="44" font-family="Inter, system-ui, sans-serif" font-size="28" font-weight="700" fill="#334155">unsorry — Proofs Over Time</text>
<text x="32" y="72" font-family="Inter, system-ui, sans-serif" font-size="13" fill="#64748b">3963 cumulative kernel-verified proofs · merged, hourly</text>
<line x1="52" y1="272.0" x2="872" y2="272.0" stroke="#f1f5f9"/>
<text x="44" y="276.0" text-anchor="end" font-family="Inter, system-ui, sans-serif" font-size="11" fill="#94a3b8">0</text>
<line x1="52" y1="226.5" x2="872" y2="226.5" stroke="#f1f5f9"/>
<text x="44" y="230.5" text-anchor="end" font-family="Inter, system-ui, sans-serif" font-size="11" fill="#94a3b8">991</text>
<line x1="52" y1="181.0" x2="872" y2="181.0" stroke="#f1f5f9"/>
<text x="44" y="185.0" text-anchor="end" font-family="Inter, system-ui, sans-serif" font-size="11" fill="#94a3b8">1982</text>
<line x1="52" y1="135.5" x2="872" y2="135.5" stroke="#f1f5f9"/>
<text x="44" y="139.5" text-anchor="end" font-family="Inter, system-ui, sans-serif" font-size="11" fill="#94a3b8">2972</text>
<line x1="52" y1="90.0" x2="872" y2="90.0" stroke="#f1f5f9"/>
<text x="44" y="94.0" text-anchor="end" font-family="Inter, system-ui, sans-serif" font-size="11" fill="#94a3b8">3963</text>
<polygon points="52.0,272.0 52.0,272.0 54.3,271.9 82.0,271.4 84.3,271.3 86.6,271.2 93.6,271.2 107.4,271.1 137.5,271.1 139.8,270.7 142.1,270.6 149.0,270.5 151.3,270.5 153.6,270.4 155.9,270.3 160.6,270.3 162.9,270.0 169.8,269.8 179.0,269.7 181.4,269.6 183.7,269.5 202.1,269.5 206.8,269.4 218.3,269.4 220.6,269.3 222.9,269.2 232.2,269.2 234.5,268.9 236.8,268.7 239.1,268.1 241.4,268.0 257.6,268.0 264.5,267.9 269.1,267.9 271.4,267.8 273.7,267.6 276.1,267.5 278.4,267.5 280.7,267.4 283.0,267.2 292.2,267.0 296.8,266.9 306.1,266.9 308.4,266.7 310.7,266.6 313.0,266.5 317.6,266.5 319.9,265.6 322.3,264.7 324.6,264.3 326.9,264.1 329.2,264.0 331.5,263.8 333.8,263.5 336.1,263.2 338.4,263.1 340.7,263.0 345.4,262.9 347.7,262.5 350.0,262.1 352.3,261.8 354.6,261.5 359.2,261.4 363.8,261.4 366.1,261.1 368.5,260.8 370.8,260.2 373.1,259.8 375.4,259.5 377.7,259.1 380.0,258.7 382.3,258.3 384.6,257.8 386.9,257.3 389.2,256.8 391.5,256.4 393.9,256.2 396.2,255.8 398.5,255.5 400.8,255.3 403.1,255.1 405.4,254.8 407.7,254.7 410.0,254.6 414.6,254.6 417.0,253.7 419.3,253.0 421.6,252.9 423.9,252.8 428.5,252.8 430.8,252.6 440.1,252.6 444.7,252.5 451.6,252.4 453.9,251.4 456.2,250.4 458.5,250.1 460.8,249.3 463.2,248.6 465.5,248.2 467.8,248.0 470.1,247.6 472.4,247.4 474.7,247.3 477.0,247.1 479.3,247.0 493.2,246.3 495.5,245.4 497.8,245.2 500.1,245.1 502.4,245.0 518.6,245.0 539.4,244.0 541.7,243.3 544.0,242.4 546.3,241.1 548.6,240.9 550.9,240.5 553.2,239.8 555.5,239.2 557.9,238.0 560.2,236.1 562.5,234.3 564.8,232.2 567.1,230.0 569.4,228.1 571.7,226.9 574.0,225.5 576.3,223.4 578.6,221.6 581.0,220.4 583.3,219.1 585.6,217.4 587.9,216.3 590.2,215.2 592.5,214.2 594.8,213.5 597.1,212.5 599.4,211.9 601.7,211.3 604.1,210.7 606.4,209.1 608.7,207.8 611.0,207.0 613.3,206.8 615.6,206.4 617.9,205.7 620.2,205.1 622.5,204.0 624.8,203.3 627.2,202.7 629.5,202.6 631.8,202.3 634.1,201.8 636.4,200.4 638.7,198.3 641.0,196.0 643.3,193.8 645.6,192.0 647.9,189.8 650.3,187.5 652.6,185.2 654.9,183.0 657.2,181.4 659.5,180.2 661.8,178.8 664.1,177.4 666.4,176.5 668.7,175.4 671.0,174.5 673.4,173.4 675.7,171.7 678.0,169.8 680.3,168.2 682.6,166.8 684.9,165.9 687.2,165.0 689.5,164.2 691.8,163.3 694.1,161.7 696.5,160.4 698.8,158.8 701.1,157.1 703.4,155.8 705.7,154.7 708.0,154.2 710.3,153.6 712.6,152.9 714.9,152.8 717.2,152.7 719.5,152.4 721.9,152.3 724.2,152.2 726.5,152.0 728.8,151.9 735.7,151.9 738.0,151.8 740.3,151.5 742.6,149.7 745.0,148.0 747.3,146.6 749.6,145.0 751.9,143.6 754.2,142.2 756.5,140.7 758.8,139.3 761.1,137.8 763.4,136.4 765.7,135.0 768.1,133.6 770.4,132.3 772.7,130.9 775.0,129.5 777.3,128.4 779.6,127.1 781.9,125.8 784.2,124.5 786.5,123.3 788.8,122.1 791.2,121.3 793.5,120.4 795.8,119.6 798.1,118.4 800.4,117.4 802.7,116.4 805.0,115.1 807.3,114.1 809.6,113.1 811.9,112.0 814.3,110.9 816.6,109.8 818.9,108.8 821.2,107.6 823.5,106.7 825.8,105.6 828.1,104.7 830.4,103.9 832.7,102.8 835.0,101.8 837.4,101.0 839.7,100.2 842.0,99.6 844.3,99.1 846.6,99.0 848.9,98.0 851.2,97.2 853.5,96.2 855.8,95.3 858.1,94.5 860.5,93.6 862.8,92.7 865.1,91.8 867.4,91.0 869.7,90.2 872.0,90.0 872.0,272.0" fill="#e0f2fe" opacity="0.55"/>
<polyline points="52.0,272.0 54.3,271.9 82.0,271.4 84.3,271.3 86.6,271.2 93.6,271.2 107.4,271.1 137.5,271.1 139.8,270.7 142.1,270.6 149.0,270.5 151.3,270.5 153.6,270.4 155.9,270.3 160.6,270.3 162.9,270.0 169.8,269.8 179.0,269.7 181.4,269.6 183.7,269.5 202.1,269.5 206.8,269.4 218.3,269.4 220.6,269.3 222.9,269.2 232.2,269.2 234.5,268.9 236.8,268.7 239.1,268.1 241.4,268.0 257.6,268.0 264.5,267.9 269.1,267.9 271.4,267.8 273.7,267.6 276.1,267.5 278.4,267.5 280.7,267.4 283.0,267.2 292.2,267.0 296.8,266.9 306.1,266.9 308.4,266.7 310.7,266.6 313.0,266.5 317.6,266.5 319.9,265.6 322.3,264.7 324.6,264.3 326.9,264.1 329.2,264.0 331.5,263.8 333.8,263.5 336.1,263.2 338.4,263.1 340.7,263.0 345.4,262.9 347.7,262.5 350.0,262.1 352.3,261.8 354.6,261.5 359.2,261.4 363.8,261.4 366.1,261.1 368.5,260.8 370.8,260.2 373.1,259.8 375.4,259.5 377.7,259.1 380.0,258.7 382.3,258.3 384.6,257.8 386.9,257.3 389.2,256.8 391.5,256.4 393.9,256.2 396.2,255.8 398.5,255.5 400.8,255.3 403.1,255.1 405.4,254.8 407.7,254.7 410.0,254.6 414.6,254.6 417.0,253.7 419.3,253.0 421.6,252.9 423.9,252.8 428.5,252.8 430.8,252.6 440.1,252.6 444.7,252.5 451.6,252.4 453.9,251.4 456.2,250.4 458.5,250.1 460.8,249.3 463.2,248.6 465.5,248.2 467.8,248.0 470.1,247.6 472.4,247.4 474.7,247.3 477.0,247.1 479.3,247.0 493.2,246.3 495.5,245.4 497.8,245.2 500.1,245.1 502.4,245.0 518.6,245.0 539.4,244.0 541.7,243.3 544.0,242.4 546.3,241.1 548.6,240.9 550.9,240.5 553.2,239.8 555.5,239.2 557.9,238.0 560.2,236.1 562.5,234.3 564.8,232.2 567.1,230.0 569.4,228.1 571.7,226.9 574.0,225.5 576.3,223.4 578.6,221.6 581.0,220.4 583.3,219.1 585.6,217.4 587.9,216.3 590.2,215.2 592.5,214.2 594.8,213.5 597.1,212.5 599.4,211.9 601.7,211.3 604.1,210.7 606.4,209.1 608.7,207.8 611.0,207.0 613.3,206.8 615.6,206.4 617.9,205.7 620.2,205.1 622.5,204.0 624.8,203.3 627.2,202.7 629.5,202.6 631.8,202.3 634.1,201.8 636.4,200.4 638.7,198.3 641.0,196.0 643.3,193.8 645.6,192.0 647.9,189.8 650.3,187.5 652.6,185.2 654.9,183.0 657.2,181.4 659.5,180.2 661.8,178.8 664.1,177.4 666.4,176.5 668.7,175.4 671.0,174.5 673.4,173.4 675.7,171.7 678.0,169.8 680.3,168.2 682.6,166.8 684.9,165.9 687.2,165.0 689.5,164.2 691.8,163.3 694.1,161.7 696.5,160.4 698.8,158.8 701.1,157.1 703.4,155.8 705.7,154.7 708.0,154.2 710.3,153.6 712.6,152.9 714.9,152.8 717.2,152.7 719.5,152.4 721.9,152.3 724.2,152.2 726.5,152.0 728.8,151.9 735.7,151.9 738.0,151.8 740.3,151.5 742.6,149.7 745.0,148.0 747.3,146.6 749.6,145.0 751.9,143.6 754.2,142.2 756.5,140.7 758.8,139.3 761.1,137.8 763.4,136.4 765.7,135.0 768.1,133.6 770.4,132.3 772.7,130.9 775.0,129.5 777.3,128.4 779.6,127.1 781.9,125.8 784.2,124.5 786.5,123.3 788.8,122.1 791.2,121.3 793.5,120.4 795.8,119.6 798.1,118.4 800.4,117.4 802.7,116.4 805.0,115.1 807.3,114.1 809.6,113.1 811.9,112.0 814.3,110.9 816.6,109.8 818.9,108.8 821.2,107.6 823.5,106.7 825.8,105.6 828.1,104.7 830.4,103.9 832.7,102.8 835.0,101.8 837.4,101.0 839.7,100.2 842.0,99.6 844.3,99.1 846.6,99.0 848.9,98.0 851.2,97.2 853.5,96.2 855.8,95.3 858.1,94.5 860.5,93.6 862.8,92.7 865.1,91.8 867.4,91.0 869.7,90.2 872.0,90.0" fill="none" stroke="#38bdf8" stroke-width="2.5" stroke-linejoin="round" stroke-linecap="round"/>
<circle cx="872.0" cy="90.0" r="4" fill="#0ea5e9"/>
<text x="866.0" y="80.0" text-anchor="end" font-family="Inter, system-ui, sans-serif" font-size="13" font-weight="700" fill="#334155">3963</text>
<text x="52.0" y="294" text-anchor="middle" font-family="Inter, system-ui, sans-serif" font-size="11" fill="#94a3b8">Jun 10 05:00</text>
<text x="576.3" y="294" text-anchor="middle" font-family="Inter, system-ui, sans-serif" font-size="11" fill="#94a3b8">Jun 19 16:00</text>
<text x="872.0" y="294" text-anchor="middle" font-family="Inter, system-ui, sans-serif" font-size="11" fill="#94a3b8">Jun 25 00:00</text>
</svg>
