<svg xmlns="http://www.w3.org/2000/svg" width="900" height="320" viewBox="0 0 900 320" role="img" aria-labelledby="title desc">
<title id="title">unsorry proofs over time</title>
<desc id="desc">Cumulative kernel-verified proofs over time, by the hour each proof was merged.</desc>
<rect width="900" height="100%" rx="18" fill="#ffffff"/>
<rect x="0.5" y="0.5" width="899" height="319" rx="18" fill="none" stroke="#e2e8f0"/>
<text x="32" y="44" font-family="Inter, system-ui, sans-serif" font-size="28" font-weight="700" fill="#334155">unsorry — Proofs Over Time</text>
<text x="32" y="72" font-family="Inter, system-ui, sans-serif" font-size="13" fill="#64748b">3276 cumulative kernel-verified proofs · merged, hourly</text>
<line x1="52" y1="272.0" x2="872" y2="272.0" stroke="#f1f5f9"/>
<text x="44" y="276.0" text-anchor="end" font-family="Inter, system-ui, sans-serif" font-size="11" fill="#94a3b8">0</text>
<line x1="52" y1="226.5" x2="872" y2="226.5" stroke="#f1f5f9"/>
<text x="44" y="230.5" text-anchor="end" font-family="Inter, system-ui, sans-serif" font-size="11" fill="#94a3b8">819</text>
<line x1="52" y1="181.0" x2="872" y2="181.0" stroke="#f1f5f9"/>
<text x="44" y="185.0" text-anchor="end" font-family="Inter, system-ui, sans-serif" font-size="11" fill="#94a3b8">1638</text>
<line x1="52" y1="135.5" x2="872" y2="135.5" stroke="#f1f5f9"/>
<text x="44" y="139.5" text-anchor="end" font-family="Inter, system-ui, sans-serif" font-size="11" fill="#94a3b8">2457</text>
<line x1="52" y1="90.0" x2="872" y2="90.0" stroke="#f1f5f9"/>
<text x="44" y="94.0" text-anchor="end" font-family="Inter, system-ui, sans-serif" font-size="11" fill="#94a3b8">3276</text>
<polygon points="52.0,272.0 52.0,271.9 54.6,271.8 85.3,271.3 87.9,271.1 90.4,271.1 98.1,271.0 113.5,270.9 146.8,270.9 149.4,270.4 151.9,270.3 159.6,270.2 162.2,270.2 164.8,270.1 167.3,269.9 172.4,269.9 175.0,269.6 182.7,269.4 192.9,269.3 195.5,269.1 198.1,269.0 218.6,268.9 223.7,268.9 236.5,268.8 239.1,268.8 241.6,268.7 251.9,268.6 254.4,268.3 257.0,268.0 259.6,267.3 262.1,267.2 280.1,267.1 287.8,267.1 292.9,267.0 295.4,266.9 298.0,266.7 300.6,266.6 303.1,266.6 305.7,266.4 308.2,266.2 318.5,265.9 323.6,265.9 333.9,265.8 336.4,265.6 339.0,265.5 341.6,265.4 346.7,265.3 349.2,264.2 351.8,263.1 354.4,262.7 356.9,262.4 359.5,262.3 362.1,262.1 364.6,261.7 367.2,261.4 369.8,261.2 372.3,261.1 377.4,260.9 380.0,260.5 382.6,260.1 385.1,259.6 387.7,259.3 392.8,259.2 397.9,259.2 400.5,258.8 403.1,258.5 405.6,257.7 408.2,257.3 410.8,256.8 413.3,256.4 415.9,255.9 418.4,255.4 421.0,254.8 423.6,254.2 426.1,253.7 428.7,253.2 431.2,252.8 433.8,252.4 436.4,252.0 438.9,251.8 441.5,251.5 444.1,251.2 446.6,251.1 449.2,251.0 454.3,250.9 456.9,249.8 459.4,249.1 462.0,248.9 464.6,248.8 469.7,248.7 472.2,248.6 482.5,248.5 487.6,248.4 495.3,248.3 497.9,247.1 500.4,245.8 503.0,245.5 505.6,244.5 508.1,243.7 510.7,243.2 513.2,242.9 515.8,242.4 518.4,242.2 520.9,242.1 523.5,241.9 526.1,241.8 541.4,240.9 544.0,239.8 546.6,239.6 549.1,239.4 551.7,239.4 569.6,239.3 592.7,238.2 595.2,237.3 597.8,236.2 600.4,234.7 602.9,234.4 605.5,233.9 608.1,233.0 610.6,232.3 613.2,230.8 615.8,228.6 618.3,226.4 620.9,223.9 623.4,221.2 626.0,218.9 628.6,217.4 631.1,215.7 633.7,213.2 636.2,211.0 638.8,209.6 641.4,208.1 643.9,205.9 646.5,204.6 649.1,203.3 651.6,202.1 654.2,201.2 656.8,200.1 659.3,199.3 661.9,198.6 664.4,197.9 667.0,195.9 669.6,194.3 672.1,193.4 674.7,193.1 677.2,192.6 679.8,191.8 682.4,191.1 684.9,189.7 687.5,188.9 690.1,188.1 692.6,188.0 695.2,187.7 697.8,187.1 700.3,185.4 702.9,182.8 705.4,180.1 708.0,177.4 710.6,175.2 713.1,172.6 715.7,169.8 718.2,166.9 720.8,164.3 723.4,162.4 725.9,160.9 728.5,159.2 731.1,157.6 733.6,156.4 736.2,155.1 738.8,154.1 741.3,152.7 743.9,150.7 746.4,148.4 749.0,146.4 751.6,144.7 754.1,143.6 756.7,142.6 759.2,141.6 761.8,140.5 764.4,138.6 766.9,137.0 769.5,135.1 772.1,133.1 774.6,131.4 777.2,130.1 779.8,129.5 782.3,128.7 784.9,127.9 787.4,127.8 790.0,127.7 792.6,127.3 795.1,127.2 797.7,127.1 800.2,126.8 802.8,126.7 810.5,126.7 813.1,126.6 815.6,126.3 818.2,124.0 820.8,122.1 823.3,120.3 825.9,118.4 828.4,116.7 831.0,114.9 833.6,113.1 836.1,111.4 838.7,109.6 841.2,107.9 843.8,106.2 846.4,104.6 848.9,102.9 851.5,101.3 854.1,99.7 856.6,98.3 859.2,96.7 861.8,95.2 864.3,93.6 866.9,92.2 869.4,90.7 872.0,90.0 872.0,272.0" fill="#e0f2fe" opacity="0.55"/>
<polyline points="52.0,271.9 54.6,271.8 85.3,271.3 87.9,271.1 90.4,271.1 98.1,271.0 113.5,270.9 146.8,270.9 149.4,270.4 151.9,270.3 159.6,270.2 162.2,270.2 164.8,270.1 167.3,269.9 172.4,269.9 175.0,269.6 182.7,269.4 192.9,269.3 195.5,269.1 198.1,269.0 218.6,268.9 223.7,268.9 236.5,268.8 239.1,268.8 241.6,268.7 251.9,268.6 254.4,268.3 257.0,268.0 259.6,267.3 262.1,267.2 280.1,267.1 287.8,267.1 292.9,267.0 295.4,266.9 298.0,266.7 300.6,266.6 303.1,266.6 305.7,266.4 308.2,266.2 318.5,265.9 323.6,265.9 333.9,265.8 336.4,265.6 339.0,265.5 341.6,265.4 346.7,265.3 349.2,264.2 351.8,263.1 354.4,262.7 356.9,262.4 359.5,262.3 362.1,262.1 364.6,261.7 367.2,261.4 369.8,261.2 372.3,261.1 377.4,260.9 380.0,260.5 382.6,260.1 385.1,259.6 387.7,259.3 392.8,259.2 397.9,259.2 400.5,258.8 403.1,258.5 405.6,257.7 408.2,257.3 410.8,256.8 413.3,256.4 415.9,255.9 418.4,255.4 421.0,254.8 423.6,254.2 426.1,253.7 428.7,253.2 431.2,252.8 433.8,252.4 436.4,252.0 438.9,251.8 441.5,251.5 444.1,251.2 446.6,251.1 449.2,251.0 454.3,250.9 456.9,249.8 459.4,249.1 462.0,248.9 464.6,248.8 469.7,248.7 472.2,248.6 482.5,248.5 487.6,248.4 495.3,248.3 497.9,247.1 500.4,245.8 503.0,245.5 505.6,244.5 508.1,243.7 510.7,243.2 513.2,242.9 515.8,242.4 518.4,242.2 520.9,242.1 523.5,241.9 526.1,241.8 541.4,240.9 544.0,239.8 546.6,239.6 549.1,239.4 551.7,239.4 569.6,239.3 592.7,238.2 595.2,237.3 597.8,236.2 600.4,234.7 602.9,234.4 605.5,233.9 608.1,233.0 610.6,232.3 613.2,230.8 615.8,228.6 618.3,226.4 620.9,223.9 623.4,221.2 626.0,218.9 628.6,217.4 631.1,215.7 633.7,213.2 636.2,211.0 638.8,209.6 641.4,208.1 643.9,205.9 646.5,204.6 649.1,203.3 651.6,202.1 654.2,201.2 656.8,200.1 659.3,199.3 661.9,198.6 664.4,197.9 667.0,195.9 669.6,194.3 672.1,193.4 674.7,193.1 677.2,192.6 679.8,191.8 682.4,191.1 684.9,189.7 687.5,188.9 690.1,188.1 692.6,188.0 695.2,187.7 697.8,187.1 700.3,185.4 702.9,182.8 705.4,180.1 708.0,177.4 710.6,175.2 713.1,172.6 715.7,169.8 718.2,166.9 720.8,164.3 723.4,162.4 725.9,160.9 728.5,159.2 731.1,157.6 733.6,156.4 736.2,155.1 738.8,154.1 741.3,152.7 743.9,150.7 746.4,148.4 749.0,146.4 751.6,144.7 754.1,143.6 756.7,142.6 759.2,141.6 761.8,140.5 764.4,138.6 766.9,137.0 769.5,135.1 772.1,133.1 774.6,131.4 777.2,130.1 779.8,129.5 782.3,128.7 784.9,127.9 787.4,127.8 790.0,127.7 792.6,127.3 795.1,127.2 797.7,127.1 800.2,126.8 802.8,126.7 810.5,126.7 813.1,126.6 815.6,126.3 818.2,124.0 820.8,122.1 823.3,120.3 825.9,118.4 828.4,116.7 831.0,114.9 833.6,113.1 836.1,111.4 838.7,109.6 841.2,107.9 843.8,106.2 846.4,104.6 848.9,102.9 851.5,101.3 854.1,99.7 856.6,98.3 859.2,96.7 861.8,95.2 864.3,93.6 866.9,92.2 869.4,90.7 872.0,90.0" fill="none" stroke="#38bdf8" stroke-width="2.5" stroke-linejoin="round" stroke-linecap="round"/>
<circle cx="872.0" cy="90.0" r="4" fill="#0ea5e9"/>
<text x="866.0" y="80.0" text-anchor="end" font-family="Inter, system-ui, sans-serif" font-size="13" font-weight="700" fill="#334155">3276</text>
<text x="52.0" y="294" text-anchor="middle" font-family="Inter, system-ui, sans-serif" font-size="11" fill="#94a3b8">Jun 10 05:00</text>
<text x="551.7" y="294" text-anchor="middle" font-family="Inter, system-ui, sans-serif" font-size="11" fill="#94a3b8">Jun 18 08:00</text>
<text x="872.0" y="294" text-anchor="middle" font-family="Inter, system-ui, sans-serif" font-size="11" fill="#94a3b8">Jun 23 13:00</text>
</svg>
