<svg xmlns="http://www.w3.org/2000/svg" width="900" height="320" viewBox="0 0 900 320" role="img" aria-labelledby="title desc">
<title id="title">unsorry proofs over time</title>
<desc id="desc">Cumulative kernel-verified proofs over time, by the hour each proof was merged.</desc>
<rect width="900" height="100%" rx="18" fill="#ffffff"/>
<rect x="0.5" y="0.5" width="899" height="319" rx="18" fill="none" stroke="#e2e8f0"/>
<text x="32" y="44" font-family="Inter, system-ui, sans-serif" font-size="28" font-weight="700" fill="#334155">unsorry — Proofs Over Time</text>
<text x="32" y="72" font-family="Inter, system-ui, sans-serif" font-size="13" fill="#64748b">3311 cumulative kernel-verified proofs · merged, hourly</text>
<line x1="52" y1="272.0" x2="872" y2="272.0" stroke="#f1f5f9"/>
<text x="44" y="276.0" text-anchor="end" font-family="Inter, system-ui, sans-serif" font-size="11" fill="#94a3b8">0</text>
<line x1="52" y1="226.5" x2="872" y2="226.5" stroke="#f1f5f9"/>
<text x="44" y="230.5" text-anchor="end" font-family="Inter, system-ui, sans-serif" font-size="11" fill="#94a3b8">828</text>
<line x1="52" y1="181.0" x2="872" y2="181.0" stroke="#f1f5f9"/>
<text x="44" y="185.0" text-anchor="end" font-family="Inter, system-ui, sans-serif" font-size="11" fill="#94a3b8">1656</text>
<line x1="52" y1="135.5" x2="872" y2="135.5" stroke="#f1f5f9"/>
<text x="44" y="139.5" text-anchor="end" font-family="Inter, system-ui, sans-serif" font-size="11" fill="#94a3b8">2483</text>
<line x1="52" y1="90.0" x2="872" y2="90.0" stroke="#f1f5f9"/>
<text x="44" y="94.0" text-anchor="end" font-family="Inter, system-ui, sans-serif" font-size="11" fill="#94a3b8">3311</text>
<polygon points="52.0,272.0 52.0,271.9 54.5,271.8 85.1,271.3 87.7,271.1 90.2,271.1 97.8,271.0 113.1,271.0 146.2,270.9 148.8,270.4 151.3,270.4 159.0,270.2 161.5,270.2 164.0,270.1 166.6,270.0 171.7,269.9 174.2,269.6 181.9,269.4 192.1,269.3 194.6,269.1 197.2,269.0 217.5,269.0 222.6,268.9 235.4,268.9 237.9,268.8 240.4,268.7 250.6,268.6 253.2,268.3 255.7,268.0 258.3,267.3 260.8,267.2 278.6,267.2 286.3,267.1 291.4,267.1 293.9,267.0 296.5,266.7 299.0,266.7 301.6,266.6 304.1,266.4 306.7,266.3 316.8,266.0 321.9,266.0 332.1,265.9 334.7,265.6 337.2,265.6 339.8,265.5 344.9,265.4 347.4,264.3 350.0,263.2 352.5,262.8 355.0,262.5 357.6,262.4 360.1,262.2 362.7,261.8 365.2,261.5 367.8,261.3 370.3,261.2 375.4,261.1 378.0,260.6 380.5,260.2 383.1,259.7 385.6,259.5 390.7,259.4 395.8,259.3 398.3,258.9 400.9,258.6 403.4,257.9 406.0,257.4 408.5,257.0 411.1,256.6 413.6,256.1 416.2,255.6 418.7,255.0 421.3,254.4 423.8,253.9 426.3,253.4 428.9,253.0 431.4,252.7 434.0,252.2 436.5,252.0 439.1,251.7 441.6,251.4 444.2,251.3 446.7,251.2 451.8,251.2 454.4,250.1 456.9,249.3 459.5,249.1 462.0,249.1 467.1,249.0 469.6,248.8 479.8,248.7 484.9,248.6 492.6,248.6 495.1,247.3 497.7,246.1 500.2,245.8 502.7,244.8 505.3,244.0 507.8,243.5 510.4,243.3 512.9,242.8 515.5,242.5 518.0,242.4 520.6,242.2 523.1,242.1 538.4,241.2 540.9,240.1 543.5,240.0 546.0,239.8 548.6,239.7 566.4,239.7 589.3,238.5 591.9,237.6 594.4,236.6 597.0,235.1 599.5,234.8 602.1,234.3 604.6,233.4 607.2,232.8 609.7,231.3 612.2,229.1 614.8,226.9 617.3,224.4 619.9,221.8 622.4,219.5 625.0,218.0 627.5,216.3 630.1,213.8 632.6,211.6 635.2,210.2 637.7,208.7 640.3,206.6 642.8,205.3 645.4,204.0 647.9,202.8 650.4,202.0 653.0,200.8 655.5,200.1 658.1,199.3 660.6,198.7 663.2,196.7 665.7,195.1 668.3,194.2 670.8,193.9 673.4,193.5 675.9,192.6 678.5,191.9 681.0,190.6 683.6,189.8 686.1,189.0 688.6,188.9 691.2,188.6 693.7,188.0 696.3,186.4 698.8,183.8 701.4,181.1 703.9,178.4 706.5,176.2 709.0,173.6 711.6,170.9 714.1,168.1 716.7,165.5 719.2,163.6 721.8,162.1 724.3,160.4 726.8,158.8 729.4,157.7 731.9,156.3 734.5,155.4 737.0,153.9 739.6,152.0 742.1,149.7 744.7,147.8 747.2,146.1 749.8,145.0 752.3,144.0 754.9,143.0 757.4,141.9 760.0,140.0 762.5,138.4 765.0,136.5 767.6,134.5 770.1,132.9 772.7,131.6 775.2,131.0 777.8,130.2 780.3,129.5 782.9,129.4 785.4,129.2 788.0,128.9 790.5,128.7 793.1,128.6 795.6,128.4 798.1,128.3 805.8,128.2 808.3,128.1 810.9,127.8 813.4,125.6 816.0,123.6 818.5,121.9 821.1,120.0 823.6,118.3 826.2,116.6 828.7,114.8 831.3,113.1 833.8,111.3 836.3,109.7 838.9,108.0 841.4,106.3 844.0,104.7 846.5,103.1 849.1,101.5 851.6,100.1 854.2,98.6 856.7,97.0 859.3,95.5 861.8,94.1 864.4,92.6 866.9,91.6 869.5,90.6 872.0,90.0 872.0,272.0" fill="#e0f2fe" opacity="0.55"/>
<polyline points="52.0,271.9 54.5,271.8 85.1,271.3 87.7,271.1 90.2,271.1 97.8,271.0 113.1,271.0 146.2,270.9 148.8,270.4 151.3,270.4 159.0,270.2 161.5,270.2 164.0,270.1 166.6,270.0 171.7,269.9 174.2,269.6 181.9,269.4 192.1,269.3 194.6,269.1 197.2,269.0 217.5,269.0 222.6,268.9 235.4,268.9 237.9,268.8 240.4,268.7 250.6,268.6 253.2,268.3 255.7,268.0 258.3,267.3 260.8,267.2 278.6,267.2 286.3,267.1 291.4,267.1 293.9,267.0 296.5,266.7 299.0,266.7 301.6,266.6 304.1,266.4 306.7,266.3 316.8,266.0 321.9,266.0 332.1,265.9 334.7,265.6 337.2,265.6 339.8,265.5 344.9,265.4 347.4,264.3 350.0,263.2 352.5,262.8 355.0,262.5 357.6,262.4 360.1,262.2 362.7,261.8 365.2,261.5 367.8,261.3 370.3,261.2 375.4,261.1 378.0,260.6 380.5,260.2 383.1,259.7 385.6,259.5 390.7,259.4 395.8,259.3 398.3,258.9 400.9,258.6 403.4,257.9 406.0,257.4 408.5,257.0 411.1,256.6 413.6,256.1 416.2,255.6 418.7,255.0 421.3,254.4 423.8,253.9 426.3,253.4 428.9,253.0 431.4,252.7 434.0,252.2 436.5,252.0 439.1,251.7 441.6,251.4 444.2,251.3 446.7,251.2 451.8,251.2 454.4,250.1 456.9,249.3 459.5,249.1 462.0,249.1 467.1,249.0 469.6,248.8 479.8,248.7 484.9,248.6 492.6,248.6 495.1,247.3 497.7,246.1 500.2,245.8 502.7,244.8 505.3,244.0 507.8,243.5 510.4,243.3 512.9,242.8 515.5,242.5 518.0,242.4 520.6,242.2 523.1,242.1 538.4,241.2 540.9,240.1 543.5,240.0 546.0,239.8 548.6,239.7 566.4,239.7 589.3,238.5 591.9,237.6 594.4,236.6 597.0,235.1 599.5,234.8 602.1,234.3 604.6,233.4 607.2,232.8 609.7,231.3 612.2,229.1 614.8,226.9 617.3,224.4 619.9,221.8 622.4,219.5 625.0,218.0 627.5,216.3 630.1,213.8 632.6,211.6 635.2,210.2 637.7,208.7 640.3,206.6 642.8,205.3 645.4,204.0 647.9,202.8 650.4,202.0 653.0,200.8 655.5,200.1 658.1,199.3 660.6,198.7 663.2,196.7 665.7,195.1 668.3,194.2 670.8,193.9 673.4,193.5 675.9,192.6 678.5,191.9 681.0,190.6 683.6,189.8 686.1,189.0 688.6,188.9 691.2,188.6 693.7,188.0 696.3,186.4 698.8,183.8 701.4,181.1 703.9,178.4 706.5,176.2 709.0,173.6 711.6,170.9 714.1,168.1 716.7,165.5 719.2,163.6 721.8,162.1 724.3,160.4 726.8,158.8 729.4,157.7 731.9,156.3 734.5,155.4 737.0,153.9 739.6,152.0 742.1,149.7 744.7,147.8 747.2,146.1 749.8,145.0 752.3,144.0 754.9,143.0 757.4,141.9 760.0,140.0 762.5,138.4 765.0,136.5 767.6,134.5 770.1,132.9 772.7,131.6 775.2,131.0 777.8,130.2 780.3,129.5 782.9,129.4 785.4,129.2 788.0,128.9 790.5,128.7 793.1,128.6 795.6,128.4 798.1,128.3 805.8,128.2 808.3,128.1 810.9,127.8 813.4,125.6 816.0,123.6 818.5,121.9 821.1,120.0 823.6,118.3 826.2,116.6 828.7,114.8 831.3,113.1 833.8,111.3 836.3,109.7 838.9,108.0 841.4,106.3 844.0,104.7 846.5,103.1 849.1,101.5 851.6,100.1 854.2,98.6 856.7,97.0 859.3,95.5 861.8,94.1 864.4,92.6 866.9,91.6 869.5,90.6 872.0,90.0" fill="none" stroke="#38bdf8" stroke-width="2.5" stroke-linejoin="round" stroke-linecap="round"/>
<circle cx="872.0" cy="90.0" r="4" fill="#0ea5e9"/>
<text x="866.0" y="80.0" text-anchor="end" font-family="Inter, system-ui, sans-serif" font-size="13" font-weight="700" fill="#334155">3311</text>
<text x="52.0" y="294" text-anchor="middle" font-family="Inter, system-ui, sans-serif" font-size="11" fill="#94a3b8">Jun 10 05:00</text>
<text x="566.4" y="294" text-anchor="middle" font-family="Inter, system-ui, sans-serif" font-size="11" fill="#94a3b8">Jun 18 15:00</text>
<text x="872.0" y="294" text-anchor="middle" font-family="Inter, system-ui, sans-serif" font-size="11" fill="#94a3b8">Jun 23 15:00</text>
</svg>
