<svg xmlns="http://www.w3.org/2000/svg" width="900" height="320" viewBox="0 0 900 320" role="img" aria-labelledby="title desc">
<title id="title">Unsorry proofs over time</title>
<desc id="desc">Cumulative kernel-verified proofs over time, by the hour each proof was merged.</desc>
<rect width="900" height="100%" rx="18" fill="#ffffff"/>
<rect x="0.5" y="0.5" width="899" height="319" rx="18" fill="none" stroke="#e2e8f0"/>
<text x="32" y="44" font-family="Inter, system-ui, sans-serif" font-size="28" font-weight="700" fill="#334155">Unsorry — Proofs Over Time</text>
<text x="32" y="72" font-family="Inter, system-ui, sans-serif" font-size="13" fill="#64748b">2266 cumulative kernel-verified proofs · merged, hourly</text>
<line x1="52" y1="272.0" x2="872" y2="272.0" stroke="#f1f5f9"/>
<text x="44" y="276.0" text-anchor="end" font-family="Inter, system-ui, sans-serif" font-size="11" fill="#94a3b8">0</text>
<line x1="52" y1="226.5" x2="872" y2="226.5" stroke="#f1f5f9"/>
<text x="44" y="230.5" text-anchor="end" font-family="Inter, system-ui, sans-serif" font-size="11" fill="#94a3b8">566</text>
<line x1="52" y1="181.0" x2="872" y2="181.0" stroke="#f1f5f9"/>
<text x="44" y="185.0" text-anchor="end" font-family="Inter, system-ui, sans-serif" font-size="11" fill="#94a3b8">1133</text>
<line x1="52" y1="135.5" x2="872" y2="135.5" stroke="#f1f5f9"/>
<text x="44" y="139.5" text-anchor="end" font-family="Inter, system-ui, sans-serif" font-size="11" fill="#94a3b8">1700</text>
<line x1="52" y1="90.0" x2="872" y2="90.0" stroke="#f1f5f9"/>
<text x="44" y="94.0" text-anchor="end" font-family="Inter, system-ui, sans-serif" font-size="11" fill="#94a3b8">2266</text>
<polygon points="52.0,272.0 52.0,271.9 55.0,271.8 91.0,271.0 94.1,270.7 97.1,270.6 106.1,270.6 124.1,270.5 163.1,270.4 166.1,269.7 169.1,269.6 178.2,269.4 181.2,269.3 184.2,269.3 187.2,269.0 193.2,268.9 196.2,268.5 205.2,268.2 217.2,268.1 220.2,267.8 223.2,267.7 247.2,267.6 253.2,267.5 268.3,267.4 271.3,267.3 274.3,267.2 286.3,267.1 289.3,266.6 292.3,266.2 295.3,265.2 298.3,265.0 319.3,264.9 328.3,264.9 334.3,264.8 337.3,264.7 340.4,264.3 343.4,264.2 346.4,264.1 349.4,263.9 352.4,263.6 364.4,263.2 370.4,263.2 382.4,263.1 385.4,262.7 388.4,262.6 391.4,262.4 397.4,262.4 400.4,260.8 403.4,259.1 406.4,258.6 409.4,258.2 412.4,258.0 415.4,257.6 418.4,257.1 421.5,256.7 424.5,256.4 427.5,256.3 433.5,256.0 436.5,255.4 439.5,254.7 442.5,254.1 445.5,253.7 451.5,253.5 457.5,253.4 460.5,252.9 463.5,252.5 466.5,251.4 469.5,250.7 472.5,250.1 475.5,249.4 478.5,248.7 481.5,248.0 484.5,247.2 487.5,246.3 490.5,245.5 493.5,244.8 496.5,244.3 499.5,243.7 502.5,243.1 505.6,242.8 508.6,242.4 511.6,242.0 514.6,241.8 517.6,241.6 523.6,241.6 526.6,240.0 529.6,238.8 532.6,238.6 535.6,238.5 541.6,238.3 544.6,238.1 556.6,238.0 562.6,237.9 571.6,237.8 574.6,235.9 577.6,234.2 580.6,233.7 583.6,232.2 586.7,231.1 589.7,230.4 592.7,230.0 595.7,229.3 598.7,228.9 601.7,228.8 604.7,228.5 607.7,228.3 625.7,227.0 628.7,225.4 631.7,225.2 634.7,224.9 637.7,224.9 658.7,224.8 685.8,223.1 688.8,221.8 691.8,220.3 694.8,218.0 697.8,217.6 700.8,216.9 703.8,215.6 706.8,214.7 709.8,212.5 712.8,209.3 715.8,206.1 718.8,202.4 721.8,198.6 724.8,195.2 727.8,193.1 730.8,190.6 733.8,186.9 736.8,183.8 739.8,181.7 742.8,179.6 745.8,176.5 748.8,174.6 751.9,172.6 754.9,171.0 757.9,169.7 760.9,168.0 763.9,166.9 766.9,165.8 769.9,164.9 772.9,162.0 775.9,159.6 778.9,158.4 781.9,157.9 784.9,157.2 787.9,156.0 790.9,155.0 793.9,153.0 796.9,151.8 799.9,150.7 802.9,150.6 805.9,150.1 808.9,149.2 811.9,146.9 814.9,143.1 817.9,139.2 820.9,135.2 823.9,132.0 826.9,128.2 829.9,124.2 833.0,120.1 836.0,116.3 839.0,113.6 842.0,111.4 845.0,109.0 848.0,106.5 851.0,104.9 854.0,103.0 857.0,101.6 860.0,99.5 863.0,96.7 866.0,93.3 869.0,90.5 872.0,90.0 872.0,272.0" fill="#e0f2fe" opacity="0.55"/>
<polyline points="52.0,271.9 55.0,271.8 91.0,271.0 94.1,270.7 97.1,270.6 106.1,270.6 124.1,270.5 163.1,270.4 166.1,269.7 169.1,269.6 178.2,269.4 181.2,269.3 184.2,269.3 187.2,269.0 193.2,268.9 196.2,268.5 205.2,268.2 217.2,268.1 220.2,267.8 223.2,267.7 247.2,267.6 253.2,267.5 268.3,267.4 271.3,267.3 274.3,267.2 286.3,267.1 289.3,266.6 292.3,266.2 295.3,265.2 298.3,265.0 319.3,264.9 328.3,264.9 334.3,264.8 337.3,264.7 340.4,264.3 343.4,264.2 346.4,264.1 349.4,263.9 352.4,263.6 364.4,263.2 370.4,263.2 382.4,263.1 385.4,262.7 388.4,262.6 391.4,262.4 397.4,262.4 400.4,260.8 403.4,259.1 406.4,258.6 409.4,258.2 412.4,258.0 415.4,257.6 418.4,257.1 421.5,256.7 424.5,256.4 427.5,256.3 433.5,256.0 436.5,255.4 439.5,254.7 442.5,254.1 445.5,253.7 451.5,253.5 457.5,253.4 460.5,252.9 463.5,252.5 466.5,251.4 469.5,250.7 472.5,250.1 475.5,249.4 478.5,248.7 481.5,248.0 484.5,247.2 487.5,246.3 490.5,245.5 493.5,244.8 496.5,244.3 499.5,243.7 502.5,243.1 505.6,242.8 508.6,242.4 511.6,242.0 514.6,241.8 517.6,241.6 523.6,241.6 526.6,240.0 529.6,238.8 532.6,238.6 535.6,238.5 541.6,238.3 544.6,238.1 556.6,238.0 562.6,237.9 571.6,237.8 574.6,235.9 577.6,234.2 580.6,233.7 583.6,232.2 586.7,231.1 589.7,230.4 592.7,230.0 595.7,229.3 598.7,228.9 601.7,228.8 604.7,228.5 607.7,228.3 625.7,227.0 628.7,225.4 631.7,225.2 634.7,224.9 637.7,224.9 658.7,224.8 685.8,223.1 688.8,221.8 691.8,220.3 694.8,218.0 697.8,217.6 700.8,216.9 703.8,215.6 706.8,214.7 709.8,212.5 712.8,209.3 715.8,206.1 718.8,202.4 721.8,198.6 724.8,195.2 727.8,193.1 730.8,190.6 733.8,186.9 736.8,183.8 739.8,181.7 742.8,179.6 745.8,176.5 748.8,174.6 751.9,172.6 754.9,171.0 757.9,169.7 760.9,168.0 763.9,166.9 766.9,165.8 769.9,164.9 772.9,162.0 775.9,159.6 778.9,158.4 781.9,157.9 784.9,157.2 787.9,156.0 790.9,155.0 793.9,153.0 796.9,151.8 799.9,150.7 802.9,150.6 805.9,150.1 808.9,149.2 811.9,146.9 814.9,143.1 817.9,139.2 820.9,135.2 823.9,132.0 826.9,128.2 829.9,124.2 833.0,120.1 836.0,116.3 839.0,113.6 842.0,111.4 845.0,109.0 848.0,106.5 851.0,104.9 854.0,103.0 857.0,101.6 860.0,99.5 863.0,96.7 866.0,93.3 869.0,90.5 872.0,90.0" fill="none" stroke="#38bdf8" stroke-width="2.5" stroke-linejoin="round" stroke-linecap="round"/>
<circle cx="872.0" cy="90.0" r="4" fill="#0ea5e9"/>
<text x="866.0" y="80.0" text-anchor="end" font-family="Inter, system-ui, sans-serif" font-size="13" font-weight="700" fill="#334155">2266</text>
<text x="52.0" y="294" text-anchor="middle" font-family="Inter, system-ui, sans-serif" font-size="11" fill="#94a3b8">Jun 10 05:00</text>
<text x="535.6" y="294" text-anchor="middle" font-family="Inter, system-ui, sans-serif" font-size="11" fill="#94a3b8">Jun 16 22:00</text>
<text x="872.0" y="294" text-anchor="middle" font-family="Inter, system-ui, sans-serif" font-size="11" fill="#94a3b8">Jun 21 14:00</text>
</svg>
