<svg xmlns="http://www.w3.org/2000/svg" width="900" height="320" viewBox="0 0 900 320" role="img" aria-labelledby="title desc">
<title id="title">Unsorry proofs over time</title>
<desc id="desc">Cumulative kernel-verified proofs over time, by the hour each proof was merged.</desc>
<rect width="900" height="100%" rx="18" fill="#ffffff"/>
<rect x="0.5" y="0.5" width="899" height="319" rx="18" fill="none" stroke="#e2e8f0"/>
<text x="32" y="44" font-family="Inter, system-ui, sans-serif" font-size="28" font-weight="700" fill="#334155">Unsorry — Proofs Over Time</text>
<text x="32" y="72" font-family="Inter, system-ui, sans-serif" font-size="13" fill="#64748b">2306 cumulative kernel-verified proofs · merged, hourly</text>
<line x1="52" y1="272.0" x2="872" y2="272.0" stroke="#f1f5f9"/>
<text x="44" y="276.0" text-anchor="end" font-family="Inter, system-ui, sans-serif" font-size="11" fill="#94a3b8">0</text>
<line x1="52" y1="226.5" x2="872" y2="226.5" stroke="#f1f5f9"/>
<text x="44" y="230.5" text-anchor="end" font-family="Inter, system-ui, sans-serif" font-size="11" fill="#94a3b8">576</text>
<line x1="52" y1="181.0" x2="872" y2="181.0" stroke="#f1f5f9"/>
<text x="44" y="185.0" text-anchor="end" font-family="Inter, system-ui, sans-serif" font-size="11" fill="#94a3b8">1153</text>
<line x1="52" y1="135.5" x2="872" y2="135.5" stroke="#f1f5f9"/>
<text x="44" y="139.5" text-anchor="end" font-family="Inter, system-ui, sans-serif" font-size="11" fill="#94a3b8">1730</text>
<line x1="52" y1="90.0" x2="872" y2="90.0" stroke="#f1f5f9"/>
<text x="44" y="94.0" text-anchor="end" font-family="Inter, system-ui, sans-serif" font-size="11" fill="#94a3b8">2306</text>
<polygon points="52.0,272.0 52.0,271.9 55.0,271.8 90.9,271.0 93.9,270.7 96.9,270.7 105.9,270.6 123.8,270.5 162.7,270.4 165.7,269.7 168.7,269.6 177.7,269.5 180.7,269.4 183.7,269.3 186.7,269.1 192.7,269.0 195.6,268.6 204.6,268.3 216.6,268.1 219.6,267.9 222.6,267.7 246.5,267.7 252.5,267.6 267.5,267.5 270.5,267.4 273.5,267.3 285.4,267.2 288.4,266.7 291.4,266.3 294.4,265.3 297.4,265.1 318.4,265.1 327.3,265.0 333.3,264.9 336.3,264.8 339.3,264.4 342.3,264.3 345.3,264.3 348.3,264.0 351.3,263.8 363.2,263.4 369.2,263.3 381.2,263.2 384.2,262.8 387.2,262.8 390.2,262.6 396.2,262.5 399.2,261.0 402.1,259.4 405.1,258.8 408.1,258.4 411.1,258.3 414.1,257.9 417.1,257.3 420.1,256.9 423.1,256.7 426.1,256.5 432.1,256.3 435.1,255.7 438.1,255.0 441.1,254.4 444.0,254.0 450.0,253.8 456.0,253.8 459.0,253.2 462.0,252.8 465.0,251.7 468.0,251.1 471.0,250.5 474.0,249.8 477.0,249.1 480.0,248.4 482.9,247.6 485.9,246.7 488.9,246.0 491.9,245.2 494.9,244.8 497.9,244.2 500.9,243.6 503.9,243.3 506.9,242.9 509.9,242.5 512.9,242.3 515.9,242.2 521.9,242.1 524.8,240.5 527.8,239.4 530.8,239.2 533.8,239.1 539.8,238.9 542.8,238.7 554.8,238.6 560.8,238.5 569.7,238.4 572.7,236.6 575.7,234.8 578.7,234.4 581.7,232.9 584.7,231.8 587.7,231.1 590.7,230.7 593.7,230.0 596.7,229.7 599.7,229.5 602.7,229.2 605.6,229.1 623.6,227.8 626.6,226.2 629.6,226.0 632.6,225.8 635.6,225.7 656.5,225.6 683.5,223.9 686.5,222.7 689.4,221.2 692.4,219.0 695.4,218.6 698.4,217.9 701.4,216.6 704.4,215.6 707.4,213.5 710.4,210.4 713.4,207.3 716.4,203.7 719.4,199.9 722.4,196.5 725.4,194.5 728.4,192.0 731.3,188.4 734.3,185.3 737.3,183.3 740.3,181.2 743.3,178.2 746.3,176.3 749.3,174.4 752.3,172.7 755.3,171.5 758.3,169.8 761.3,168.8 764.3,167.7 767.3,166.7 770.2,163.9 773.2,161.6 776.2,160.3 779.2,159.9 782.2,159.2 785.2,158.0 788.2,157.0 791.2,155.1 794.2,153.9 797.2,152.8 800.2,152.7 803.2,152.2 806.2,151.3 809.2,149.0 812.1,145.3 815.1,141.5 818.1,137.6 821.1,134.4 824.1,130.7 827.1,126.8 830.1,122.8 833.1,119.0 836.1,116.4 839.1,114.2 842.1,111.8 845.1,109.4 848.1,107.8 851.1,105.9 854.0,104.5 857.0,102.5 860.0,99.7 863.0,96.4 866.0,93.6 869.0,91.2 872.0,90.0 872.0,272.0" fill="#e0f2fe" opacity="0.55"/>
<polyline points="52.0,271.9 55.0,271.8 90.9,271.0 93.9,270.7 96.9,270.7 105.9,270.6 123.8,270.5 162.7,270.4 165.7,269.7 168.7,269.6 177.7,269.5 180.7,269.4 183.7,269.3 186.7,269.1 192.7,269.0 195.6,268.6 204.6,268.3 216.6,268.1 219.6,267.9 222.6,267.7 246.5,267.7 252.5,267.6 267.5,267.5 270.5,267.4 273.5,267.3 285.4,267.2 288.4,266.7 291.4,266.3 294.4,265.3 297.4,265.1 318.4,265.1 327.3,265.0 333.3,264.9 336.3,264.8 339.3,264.4 342.3,264.3 345.3,264.3 348.3,264.0 351.3,263.8 363.2,263.4 369.2,263.3 381.2,263.2 384.2,262.8 387.2,262.8 390.2,262.6 396.2,262.5 399.2,261.0 402.1,259.4 405.1,258.8 408.1,258.4 411.1,258.3 414.1,257.9 417.1,257.3 420.1,256.9 423.1,256.7 426.1,256.5 432.1,256.3 435.1,255.7 438.1,255.0 441.1,254.4 444.0,254.0 450.0,253.8 456.0,253.8 459.0,253.2 462.0,252.8 465.0,251.7 468.0,251.1 471.0,250.5 474.0,249.8 477.0,249.1 480.0,248.4 482.9,247.6 485.9,246.7 488.9,246.0 491.9,245.2 494.9,244.8 497.9,244.2 500.9,243.6 503.9,243.3 506.9,242.9 509.9,242.5 512.9,242.3 515.9,242.2 521.9,242.1 524.8,240.5 527.8,239.4 530.8,239.2 533.8,239.1 539.8,238.9 542.8,238.7 554.8,238.6 560.8,238.5 569.7,238.4 572.7,236.6 575.7,234.8 578.7,234.4 581.7,232.9 584.7,231.8 587.7,231.1 590.7,230.7 593.7,230.0 596.7,229.7 599.7,229.5 602.7,229.2 605.6,229.1 623.6,227.8 626.6,226.2 629.6,226.0 632.6,225.8 635.6,225.7 656.5,225.6 683.5,223.9 686.5,222.7 689.4,221.2 692.4,219.0 695.4,218.6 698.4,217.9 701.4,216.6 704.4,215.6 707.4,213.5 710.4,210.4 713.4,207.3 716.4,203.7 719.4,199.9 722.4,196.5 725.4,194.5 728.4,192.0 731.3,188.4 734.3,185.3 737.3,183.3 740.3,181.2 743.3,178.2 746.3,176.3 749.3,174.4 752.3,172.7 755.3,171.5 758.3,169.8 761.3,168.8 764.3,167.7 767.3,166.7 770.2,163.9 773.2,161.6 776.2,160.3 779.2,159.9 782.2,159.2 785.2,158.0 788.2,157.0 791.2,155.1 794.2,153.9 797.2,152.8 800.2,152.7 803.2,152.2 806.2,151.3 809.2,149.0 812.1,145.3 815.1,141.5 818.1,137.6 821.1,134.4 824.1,130.7 827.1,126.8 830.1,122.8 833.1,119.0 836.1,116.4 839.1,114.2 842.1,111.8 845.1,109.4 848.1,107.8 851.1,105.9 854.0,104.5 857.0,102.5 860.0,99.7 863.0,96.4 866.0,93.6 869.0,91.2 872.0,90.0" fill="none" stroke="#38bdf8" stroke-width="2.5" stroke-linejoin="round" stroke-linecap="round"/>
<circle cx="872.0" cy="90.0" r="4" fill="#0ea5e9"/>
<text x="866.0" y="80.0" text-anchor="end" font-family="Inter, system-ui, sans-serif" font-size="13" font-weight="700" fill="#334155">2306</text>
<text x="52.0" y="294" text-anchor="middle" font-family="Inter, system-ui, sans-serif" font-size="11" fill="#94a3b8">Jun 10 05:00</text>
<text x="533.8" y="294" text-anchor="middle" font-family="Inter, system-ui, sans-serif" font-size="11" fill="#94a3b8">Jun 16 22:00</text>
<text x="872.0" y="294" text-anchor="middle" font-family="Inter, system-ui, sans-serif" font-size="11" fill="#94a3b8">Jun 21 15:00</text>
</svg>
