<svg xmlns="http://www.w3.org/2000/svg" width="900" height="320" viewBox="0 0 900 320" role="img" aria-labelledby="title desc">
<title id="title">unsorry proofs over time</title>
<desc id="desc">Cumulative kernel-verified proofs over time, by the hour each proof was merged.</desc>
<rect width="900" height="100%" rx="18" fill="#ffffff"/>
<rect x="0.5" y="0.5" width="899" height="319" rx="18" fill="none" stroke="#e2e8f0"/>
<text x="32" y="44" font-family="Inter, system-ui, sans-serif" font-size="28" font-weight="700" fill="#334155">unsorry — Proofs Over Time</text>
<text x="32" y="72" font-family="Inter, system-ui, sans-serif" font-size="13" fill="#64748b">4544 cumulative kernel-verified proofs · merged, hourly</text>
<line x1="52" y1="272.0" x2="872" y2="272.0" stroke="#f1f5f9"/>
<text x="44" y="276.0" text-anchor="end" font-family="Inter, system-ui, sans-serif" font-size="11" fill="#94a3b8">0</text>
<line x1="52" y1="226.5" x2="872" y2="226.5" stroke="#f1f5f9"/>
<text x="44" y="230.5" text-anchor="end" font-family="Inter, system-ui, sans-serif" font-size="11" fill="#94a3b8">1136</text>
<line x1="52" y1="181.0" x2="872" y2="181.0" stroke="#f1f5f9"/>
<text x="44" y="185.0" text-anchor="end" font-family="Inter, system-ui, sans-serif" font-size="11" fill="#94a3b8">2272</text>
<line x1="52" y1="135.5" x2="872" y2="135.5" stroke="#f1f5f9"/>
<text x="44" y="139.5" text-anchor="end" font-family="Inter, system-ui, sans-serif" font-size="11" fill="#94a3b8">3408</text>
<line x1="52" y1="90.0" x2="872" y2="90.0" stroke="#f1f5f9"/>
<text x="44" y="94.0" text-anchor="end" font-family="Inter, system-ui, sans-serif" font-size="11" fill="#94a3b8">4544</text>
<polygon points="52.0,272.0 52.0,272.0 54.1,271.9 79.3,271.5 81.4,271.4 83.5,271.3 89.8,271.3 102.5,271.2 129.8,271.2 131.9,270.8 134.0,270.8 140.3,270.7 142.4,270.7 144.5,270.6 146.6,270.5 150.8,270.5 152.9,270.3 159.2,270.1 167.6,270.0 169.7,269.9 171.8,269.8 188.7,269.8 192.9,269.8 203.4,269.7 205.5,269.7 207.6,269.6 216.0,269.6 218.1,269.3 220.2,269.1 222.3,268.6 224.4,268.5 239.1,268.5 245.4,268.4 249.6,268.4 251.7,268.4 253.8,268.2 255.9,268.1 258.1,268.1 260.2,268.0 262.3,267.8 270.7,267.6 274.9,267.6 283.3,267.6 285.4,267.4 287.5,267.3 289.6,267.2 293.8,267.2 295.9,266.4 298.0,265.6 300.1,265.3 302.2,265.1 304.3,265.0 306.4,264.8 308.5,264.6 310.6,264.3 312.7,264.2 314.8,264.1 319.0,264.0 321.1,263.7 323.2,263.4 325.3,263.1 327.4,262.9 331.6,262.8 335.8,262.7 337.9,262.5 340.1,262.3 342.2,261.7 344.3,261.4 346.4,261.1 348.5,260.7 350.6,260.4 352.7,260.0 354.8,259.6 356.9,259.2 359.0,258.8 361.1,258.4 363.2,258.2 365.3,257.9 367.4,257.6 369.5,257.4 371.6,257.2 373.7,257.0 375.8,256.9 377.9,256.9 382.1,256.8 384.2,256.0 386.3,255.5 388.4,255.3 390.5,255.3 394.7,255.2 396.8,255.1 405.2,255.1 409.4,255.0 415.7,254.9 417.8,254.0 419.9,253.1 422.1,252.9 424.2,252.2 426.3,251.6 428.4,251.3 430.5,251.1 432.6,250.7 434.7,250.5 436.8,250.5 438.9,250.3 441.0,250.2 453.6,249.6 455.7,248.8 457.8,248.6 459.9,248.5 462.0,248.5 476.7,248.4 495.6,247.6 497.7,247.0 499.8,246.2 501.9,245.1 504.1,244.9 506.2,244.5 508.3,243.9 510.4,243.4 512.5,242.3 514.6,240.7 516.7,239.2 518.8,237.3 520.9,235.4 523.0,233.7 525.1,232.7 527.2,231.4 529.3,229.6 531.4,228.0 533.5,227.0 535.6,225.9 537.7,224.4 539.8,223.4 541.9,222.5 544.0,221.6 546.1,221.0 548.2,220.1 550.3,219.6 552.4,219.1 554.5,218.6 556.6,217.1 558.7,216.0 560.8,215.3 562.9,215.1 565.0,214.8 567.1,214.2 569.2,213.6 571.3,212.7 573.4,212.1 575.5,211.5 577.6,211.4 579.7,211.2 581.8,210.8 583.9,209.6 586.1,207.7 588.2,205.8 590.3,203.8 592.4,202.2 594.5,200.3 596.6,198.3 598.7,196.3 600.8,194.4 602.9,193.0 605.0,191.9 607.1,190.7 609.2,189.5 611.3,188.7 613.4,187.7 615.5,187.0 617.6,186.0 619.7,184.6 621.8,182.9 623.9,181.5 626.0,180.2 628.1,179.4 630.2,178.7 632.3,178.0 634.4,177.2 636.5,175.8 638.6,174.7 640.7,173.3 642.8,171.8 644.9,170.6 647.0,169.7 649.1,169.3 651.2,168.7 653.3,168.1 655.4,168.1 657.5,168.0 659.6,167.7 661.7,167.6 663.8,167.5 665.9,167.3 668.1,167.3 674.4,167.2 676.5,167.2 678.6,166.9 680.7,165.3 682.8,163.9 684.9,162.7 687.0,161.3 689.1,160.0 691.2,158.8 693.3,157.4 695.4,156.2 697.5,154.9 699.6,153.7 701.7,152.5 703.8,151.3 705.9,150.1 708.0,148.9 710.1,147.8 712.2,146.8 714.3,145.6 716.4,144.5 718.5,143.4 720.6,142.3 722.7,141.3 724.8,140.5 726.9,139.8 729.0,139.1 731.1,138.1 733.2,137.1 735.3,136.3 737.4,135.2 739.5,134.3 741.6,133.4 743.7,132.5 745.8,131.5 747.9,130.6 750.1,129.7 752.2,128.7 754.3,127.8 756.4,126.9 758.5,126.1 760.6,125.4 762.7,124.4 764.8,123.6 766.9,122.8 769.0,122.2 771.1,121.6 773.2,121.2 775.3,121.1 777.4,120.3 779.5,119.5 781.6,118.7 783.7,117.9 785.8,117.2 787.9,116.4 790.0,115.6 792.1,114.9 794.2,114.2 796.3,113.5 798.4,112.8 800.5,112.1 802.6,111.3 804.7,110.7 806.8,109.9 808.9,109.2 811.0,108.5 813.1,107.9 815.2,107.1 817.3,106.6 819.4,106.0 821.5,105.2 823.6,104.4 825.7,103.7 827.8,103.0 829.9,102.3 832.1,101.7 834.2,101.1 836.3,100.3 838.4,99.7 840.5,99.3 842.6,98.7 844.7,98.0 846.8,97.2 848.9,96.4 851.0,95.7 853.1,95.0 855.2,94.4 857.3,93.8 859.4,93.1 861.5,92.5 863.6,91.8 865.7,91.2 867.8,90.4 869.9,90.0 872.0,90.0 872.0,272.0" fill="#e0f2fe" opacity="0.55"/>
<polyline points="52.0,272.0 54.1,271.9 79.3,271.5 81.4,271.4 83.5,271.3 89.8,271.3 102.5,271.2 129.8,271.2 131.9,270.8 134.0,270.8 140.3,270.7 142.4,270.7 144.5,270.6 146.6,270.5 150.8,270.5 152.9,270.3 159.2,270.1 167.6,270.0 169.7,269.9 171.8,269.8 188.7,269.8 192.9,269.8 203.4,269.7 205.5,269.7 207.6,269.6 216.0,269.6 218.1,269.3 220.2,269.1 222.3,268.6 224.4,268.5 239.1,268.5 245.4,268.4 249.6,268.4 251.7,268.4 253.8,268.2 255.9,268.1 258.1,268.1 260.2,268.0 262.3,267.8 270.7,267.6 274.9,267.6 283.3,267.6 285.4,267.4 287.5,267.3 289.6,267.2 293.8,267.2 295.9,266.4 298.0,265.6 300.1,265.3 302.2,265.1 304.3,265.0 306.4,264.8 308.5,264.6 310.6,264.3 312.7,264.2 314.8,264.1 319.0,264.0 321.1,263.7 323.2,263.4 325.3,263.1 327.4,262.9 331.6,262.8 335.8,262.7 337.9,262.5 340.1,262.3 342.2,261.7 344.3,261.4 346.4,261.1 348.5,260.7 350.6,260.4 352.7,260.0 354.8,259.6 356.9,259.2 359.0,258.8 361.1,258.4 363.2,258.2 365.3,257.9 367.4,257.6 369.5,257.4 371.6,257.2 373.7,257.0 375.8,256.9 377.9,256.9 382.1,256.8 384.2,256.0 386.3,255.5 388.4,255.3 390.5,255.3 394.7,255.2 396.8,255.1 405.2,255.1 409.4,255.0 415.7,254.9 417.8,254.0 419.9,253.1 422.1,252.9 424.2,252.2 426.3,251.6 428.4,251.3 430.5,251.1 432.6,250.7 434.7,250.5 436.8,250.5 438.9,250.3 441.0,250.2 453.6,249.6 455.7,248.8 457.8,248.6 459.9,248.5 462.0,248.5 476.7,248.4 495.6,247.6 497.7,247.0 499.8,246.2 501.9,245.1 504.1,244.9 506.2,244.5 508.3,243.9 510.4,243.4 512.5,242.3 514.6,240.7 516.7,239.2 518.8,237.3 520.9,235.4 523.0,233.7 525.1,232.7 527.2,231.4 529.3,229.6 531.4,228.0 533.5,227.0 535.6,225.9 537.7,224.4 539.8,223.4 541.9,222.5 544.0,221.6 546.1,221.0 548.2,220.1 550.3,219.6 552.4,219.1 554.5,218.6 556.6,217.1 558.7,216.0 560.8,215.3 562.9,215.1 565.0,214.8 567.1,214.2 569.2,213.6 571.3,212.7 573.4,212.1 575.5,211.5 577.6,211.4 579.7,211.2 581.8,210.8 583.9,209.6 586.1,207.7 588.2,205.8 590.3,203.8 592.4,202.2 594.5,200.3 596.6,198.3 598.7,196.3 600.8,194.4 602.9,193.0 605.0,191.9 607.1,190.7 609.2,189.5 611.3,188.7 613.4,187.7 615.5,187.0 617.6,186.0 619.7,184.6 621.8,182.9 623.9,181.5 626.0,180.2 628.1,179.4 630.2,178.7 632.3,178.0 634.4,177.2 636.5,175.8 638.6,174.7 640.7,173.3 642.8,171.8 644.9,170.6 647.0,169.7 649.1,169.3 651.2,168.7 653.3,168.1 655.4,168.1 657.5,168.0 659.6,167.7 661.7,167.6 663.8,167.5 665.9,167.3 668.1,167.3 674.4,167.2 676.5,167.2 678.6,166.9 680.7,165.3 682.8,163.9 684.9,162.7 687.0,161.3 689.1,160.0 691.2,158.8 693.3,157.4 695.4,156.2 697.5,154.9 699.6,153.7 701.7,152.5 703.8,151.3 705.9,150.1 708.0,148.9 710.1,147.8 712.2,146.8 714.3,145.6 716.4,144.5 718.5,143.4 720.6,142.3 722.7,141.3 724.8,140.5 726.9,139.8 729.0,139.1 731.1,138.1 733.2,137.1 735.3,136.3 737.4,135.2 739.5,134.3 741.6,133.4 743.7,132.5 745.8,131.5 747.9,130.6 750.1,129.7 752.2,128.7 754.3,127.8 756.4,126.9 758.5,126.1 760.6,125.4 762.7,124.4 764.8,123.6 766.9,122.8 769.0,122.2 771.1,121.6 773.2,121.2 775.3,121.1 777.4,120.3 779.5,119.5 781.6,118.7 783.7,117.9 785.8,117.2 787.9,116.4 790.0,115.6 792.1,114.9 794.2,114.2 796.3,113.5 798.4,112.8 800.5,112.1 802.6,111.3 804.7,110.7 806.8,109.9 808.9,109.2 811.0,108.5 813.1,107.9 815.2,107.1 817.3,106.6 819.4,106.0 821.5,105.2 823.6,104.4 825.7,103.7 827.8,103.0 829.9,102.3 832.1,101.7 834.2,101.1 836.3,100.3 838.4,99.7 840.5,99.3 842.6,98.7 844.7,98.0 846.8,97.2 848.9,96.4 851.0,95.7 853.1,95.0 855.2,94.4 857.3,93.8 859.4,93.1 861.5,92.5 863.6,91.8 865.7,91.2 867.8,90.4 869.9,90.0 872.0,90.0" fill="none" stroke="#38bdf8" stroke-width="2.5" stroke-linejoin="round" stroke-linecap="round"/>
<circle cx="872.0" cy="90.0" r="4" fill="#0ea5e9"/>
<text x="866.0" y="80.0" text-anchor="end" font-family="Inter, system-ui, sans-serif" font-size="13" font-weight="700" fill="#334155">4544</text>
<text x="52.0" y="294" text-anchor="middle" font-family="Inter, system-ui, sans-serif" font-size="11" fill="#94a3b8">Jun 10 05:00</text>
<text x="565.0" y="294" text-anchor="middle" font-family="Inter, system-ui, sans-serif" font-size="11" fill="#94a3b8">Jun 20 09:00</text>
<text x="872.0" y="294" text-anchor="middle" font-family="Inter, system-ui, sans-serif" font-size="11" fill="#94a3b8">Jun 26 11:00</text>
</svg>
