<svg xmlns="http://www.w3.org/2000/svg" width="900" height="320" viewBox="0 0 900 320" role="img" aria-labelledby="title desc">
<title id="title">Unsorry proofs over time</title>
<desc id="desc">Cumulative kernel-verified proofs over time, by the hour each proof was merged.</desc>
<rect width="900" height="100%" rx="18" fill="#ffffff"/>
<rect x="0.5" y="0.5" width="899" height="319" rx="18" fill="none" stroke="#e2e8f0"/>
<text x="32" y="44" font-family="Inter, system-ui, sans-serif" font-size="28" font-weight="700" fill="#334155">Unsorry — Proofs Over Time</text>
<text x="32" y="72" font-family="Inter, system-ui, sans-serif" font-size="13" fill="#64748b">2244 cumulative kernel-verified proofs · merged, hourly</text>
<line x1="52" y1="272.0" x2="872" y2="272.0" stroke="#f1f5f9"/>
<text x="44" y="276.0" text-anchor="end" font-family="Inter, system-ui, sans-serif" font-size="11" fill="#94a3b8">0</text>
<line x1="52" y1="226.5" x2="872" y2="226.5" stroke="#f1f5f9"/>
<text x="44" y="230.5" text-anchor="end" font-family="Inter, system-ui, sans-serif" font-size="11" fill="#94a3b8">561</text>
<line x1="52" y1="181.0" x2="872" y2="181.0" stroke="#f1f5f9"/>
<text x="44" y="185.0" text-anchor="end" font-family="Inter, system-ui, sans-serif" font-size="11" fill="#94a3b8">1122</text>
<line x1="52" y1="135.5" x2="872" y2="135.5" stroke="#f1f5f9"/>
<text x="44" y="139.5" text-anchor="end" font-family="Inter, system-ui, sans-serif" font-size="11" fill="#94a3b8">1683</text>
<line x1="52" y1="90.0" x2="872" y2="90.0" stroke="#f1f5f9"/>
<text x="44" y="94.0" text-anchor="end" font-family="Inter, system-ui, sans-serif" font-size="11" fill="#94a3b8">2244</text>
<polygon points="52.0,272.0 52.0,271.9 55.0,271.8 91.2,270.9 94.2,270.7 97.2,270.6 106.3,270.5 124.4,270.5 163.5,270.4 166.6,269.6 169.6,269.6 178.6,269.4 181.6,269.3 184.6,269.2 187.7,269.0 193.7,268.9 196.7,268.5 205.8,268.2 217.8,268.0 220.8,267.8 223.8,267.6 248.0,267.5 254.0,267.5 269.1,267.4 272.1,267.3 275.1,267.1 287.1,267.1 290.2,266.6 293.2,266.2 296.2,265.1 299.2,264.9 320.3,264.9 329.4,264.8 335.4,264.7 338.4,264.6 341.4,264.2 344.4,264.1 347.4,264.1 350.5,263.8 353.5,263.6 365.5,263.2 371.6,263.1 383.6,263.0 386.6,262.6 389.6,262.5 392.7,262.3 398.7,262.3 401.7,260.6 404.7,259.0 407.7,258.5 410.8,258.0 413.8,257.9 416.8,257.5 419.8,256.9 422.8,256.5 425.8,256.3 428.8,256.1 434.9,255.9 437.9,255.2 440.9,254.6 443.9,253.9 446.9,253.5 453.0,253.3 459.0,253.3 462.0,252.7 465.0,252.3 468.0,251.2 471.0,250.5 474.1,249.9 477.1,249.2 480.1,248.5 483.1,247.7 486.1,246.9 489.1,246.0 492.1,245.2 495.2,244.5 498.2,244.0 501.2,243.5 504.2,242.8 507.2,242.5 510.2,242.1 513.2,241.7 516.3,241.5 519.3,241.3 525.3,241.3 528.3,239.6 531.3,238.5 534.4,238.3 537.4,238.2 543.4,238.0 546.4,237.8 558.5,237.7 564.5,237.5 573.5,237.4 576.6,235.6 579.6,233.8 582.6,233.3 585.6,231.9 588.6,230.7 591.6,230.0 594.6,229.6 597.7,228.9 600.7,228.5 603.7,228.4 606.7,228.0 609.7,227.9 627.8,226.6 630.8,225.0 633.8,224.7 636.9,224.5 639.9,224.4 661.0,224.3 688.1,222.6 691.1,221.3 694.1,219.8 697.1,217.5 700.2,217.1 703.2,216.4 706.2,215.1 709.2,214.1 712.2,211.9 715.2,208.7 718.2,205.5 721.3,201.8 724.3,197.9 727.3,194.5 730.3,192.4 733.3,189.8 736.3,186.1 739.4,182.9 742.4,180.8 745.4,178.6 748.4,175.6 751.4,173.6 754.4,171.7 757.4,170.0 760.5,168.7 763.5,167.0 766.5,165.9 769.5,164.8 772.5,163.8 775.5,160.9 778.5,158.5 781.6,157.2 784.6,156.8 787.6,156.1 790.6,154.9 793.6,153.8 796.6,151.9 799.6,150.7 802.7,149.5 805.7,149.4 808.7,148.9 811.7,148.0 814.7,145.6 817.7,141.8 820.8,137.9 823.8,133.9 826.8,130.6 829.8,126.8 832.8,122.8 835.8,118.6 838.8,114.8 841.9,112.1 844.9,109.9 847.9,107.4 850.9,104.9 853.9,103.3 856.9,101.4 859.9,99.9 863.0,97.8 866.0,94.9 869.0,91.5 872.0,90.0 872.0,272.0" fill="#e0f2fe" opacity="0.55"/>
<polyline points="52.0,271.9 55.0,271.8 91.2,270.9 94.2,270.7 97.2,270.6 106.3,270.5 124.4,270.5 163.5,270.4 166.6,269.6 169.6,269.6 178.6,269.4 181.6,269.3 184.6,269.2 187.7,269.0 193.7,268.9 196.7,268.5 205.8,268.2 217.8,268.0 220.8,267.8 223.8,267.6 248.0,267.5 254.0,267.5 269.1,267.4 272.1,267.3 275.1,267.1 287.1,267.1 290.2,266.6 293.2,266.2 296.2,265.1 299.2,264.9 320.3,264.9 329.4,264.8 335.4,264.7 338.4,264.6 341.4,264.2 344.4,264.1 347.4,264.1 350.5,263.8 353.5,263.6 365.5,263.2 371.6,263.1 383.6,263.0 386.6,262.6 389.6,262.5 392.7,262.3 398.7,262.3 401.7,260.6 404.7,259.0 407.7,258.5 410.8,258.0 413.8,257.9 416.8,257.5 419.8,256.9 422.8,256.5 425.8,256.3 428.8,256.1 434.9,255.9 437.9,255.2 440.9,254.6 443.9,253.9 446.9,253.5 453.0,253.3 459.0,253.3 462.0,252.7 465.0,252.3 468.0,251.2 471.0,250.5 474.1,249.9 477.1,249.2 480.1,248.5 483.1,247.7 486.1,246.9 489.1,246.0 492.1,245.2 495.2,244.5 498.2,244.0 501.2,243.5 504.2,242.8 507.2,242.5 510.2,242.1 513.2,241.7 516.3,241.5 519.3,241.3 525.3,241.3 528.3,239.6 531.3,238.5 534.4,238.3 537.4,238.2 543.4,238.0 546.4,237.8 558.5,237.7 564.5,237.5 573.5,237.4 576.6,235.6 579.6,233.8 582.6,233.3 585.6,231.9 588.6,230.7 591.6,230.0 594.6,229.6 597.7,228.9 600.7,228.5 603.7,228.4 606.7,228.0 609.7,227.9 627.8,226.6 630.8,225.0 633.8,224.7 636.9,224.5 639.9,224.4 661.0,224.3 688.1,222.6 691.1,221.3 694.1,219.8 697.1,217.5 700.2,217.1 703.2,216.4 706.2,215.1 709.2,214.1 712.2,211.9 715.2,208.7 718.2,205.5 721.3,201.8 724.3,197.9 727.3,194.5 730.3,192.4 733.3,189.8 736.3,186.1 739.4,182.9 742.4,180.8 745.4,178.6 748.4,175.6 751.4,173.6 754.4,171.7 757.4,170.0 760.5,168.7 763.5,167.0 766.5,165.9 769.5,164.8 772.5,163.8 775.5,160.9 778.5,158.5 781.6,157.2 784.6,156.8 787.6,156.1 790.6,154.9 793.6,153.8 796.6,151.9 799.6,150.7 802.7,149.5 805.7,149.4 808.7,148.9 811.7,148.0 814.7,145.6 817.7,141.8 820.8,137.9 823.8,133.9 826.8,130.6 829.8,126.8 832.8,122.8 835.8,118.6 838.8,114.8 841.9,112.1 844.9,109.9 847.9,107.4 850.9,104.9 853.9,103.3 856.9,101.4 859.9,99.9 863.0,97.8 866.0,94.9 869.0,91.5 872.0,90.0" fill="none" stroke="#38bdf8" stroke-width="2.5" stroke-linejoin="round" stroke-linecap="round"/>
<circle cx="872.0" cy="90.0" r="4" fill="#0ea5e9"/>
<text x="866.0" y="80.0" text-anchor="end" font-family="Inter, system-ui, sans-serif" font-size="13" font-weight="700" fill="#334155">2244</text>
<text x="52.0" y="294" text-anchor="middle" font-family="Inter, system-ui, sans-serif" font-size="11" fill="#94a3b8">Jun 10 05:00</text>
<text x="534.4" y="294" text-anchor="middle" font-family="Inter, system-ui, sans-serif" font-size="11" fill="#94a3b8">Jun 16 21:00</text>
<text x="872.0" y="294" text-anchor="middle" font-family="Inter, system-ui, sans-serif" font-size="11" fill="#94a3b8">Jun 21 13:00</text>
</svg>
