<svg xmlns="http://www.w3.org/2000/svg" width="900" height="320" viewBox="0 0 900 320" role="img" aria-labelledby="title desc">
<title id="title">Unsorry proofs over time</title>
<desc id="desc">Cumulative kernel-verified proofs over time, by the hour each proof was merged.</desc>
<rect width="900" height="100%" rx="18" fill="#ffffff"/>
<rect x="0.5" y="0.5" width="899" height="319" rx="18" fill="none" stroke="#e2e8f0"/>
<text x="32" y="44" font-family="Inter, system-ui, sans-serif" font-size="28" font-weight="700" fill="#334155">Unsorry — Proofs Over Time</text>
<text x="32" y="72" font-family="Inter, system-ui, sans-serif" font-size="13" fill="#64748b">2130 cumulative kernel-verified proofs · merged, hourly</text>
<line x1="52" y1="272.0" x2="872" y2="272.0" stroke="#f1f5f9"/>
<text x="44" y="276.0" text-anchor="end" font-family="Inter, system-ui, sans-serif" font-size="11" fill="#94a3b8">0</text>
<line x1="52" y1="226.5" x2="872" y2="226.5" stroke="#f1f5f9"/>
<text x="44" y="230.5" text-anchor="end" font-family="Inter, system-ui, sans-serif" font-size="11" fill="#94a3b8">532</text>
<line x1="52" y1="181.0" x2="872" y2="181.0" stroke="#f1f5f9"/>
<text x="44" y="185.0" text-anchor="end" font-family="Inter, system-ui, sans-serif" font-size="11" fill="#94a3b8">1065</text>
<line x1="52" y1="135.5" x2="872" y2="135.5" stroke="#f1f5f9"/>
<text x="44" y="139.5" text-anchor="end" font-family="Inter, system-ui, sans-serif" font-size="11" fill="#94a3b8">1598</text>
<line x1="52" y1="90.0" x2="872" y2="90.0" stroke="#f1f5f9"/>
<text x="44" y="94.0" text-anchor="end" font-family="Inter, system-ui, sans-serif" font-size="11" fill="#94a3b8">2130</text>
<polygon points="52.0,272.0 52.0,271.9 55.0,271.7 91.6,270.9 94.7,270.6 97.7,270.5 106.9,270.5 125.2,270.4 164.8,270.3 167.8,269.5 170.9,269.4 180.0,269.3 183.1,269.2 186.1,269.1 189.2,268.8 195.3,268.8 198.3,268.3 207.5,268.0 219.7,267.8 222.7,267.6 225.8,267.4 250.1,267.3 256.2,267.2 271.5,267.1 274.5,267.0 277.6,266.9 289.8,266.8 292.8,266.3 295.9,265.8 298.9,264.7 302.0,264.6 323.3,264.5 332.4,264.4 338.5,264.3 341.6,264.2 344.6,263.8 347.7,263.7 350.7,263.6 353.8,263.4 356.8,263.1 369.0,262.7 375.1,262.6 387.3,262.5 390.4,262.1 393.4,262.0 396.5,261.8 402.6,261.7 405.6,260.0 408.7,258.3 411.7,257.7 414.8,257.3 417.8,257.1 420.8,256.7 423.9,256.1 426.9,255.7 430.0,255.4 433.0,255.3 439.1,255.0 442.2,254.3 445.2,253.6 448.3,252.9 451.3,252.5 457.4,252.3 463.5,252.3 466.6,251.7 469.6,251.2 472.7,250.0 475.7,249.4 478.8,248.7 481.8,248.0 484.9,247.2 487.9,246.5 491.0,245.6 494.0,244.7 497.1,243.8 500.1,243.0 503.2,242.5 506.2,241.9 509.2,241.2 512.3,240.9 515.3,240.5 518.4,240.0 521.4,239.9 524.5,239.7 530.6,239.6 533.6,237.9 536.7,236.7 539.7,236.5 542.8,236.4 548.9,236.2 551.9,235.9 564.1,235.9 570.2,235.7 579.4,235.6 582.4,233.6 585.5,231.8 588.5,231.2 591.6,229.7 594.6,228.5 597.7,227.7 600.7,227.3 603.7,226.5 606.8,226.2 609.8,226.0 612.9,225.7 615.9,225.5 634.2,224.2 637.3,222.4 640.3,222.2 643.4,221.9 646.4,221.8 667.8,221.8 695.2,220.0 698.2,218.6 701.3,217.0 704.3,214.6 707.4,214.2 710.4,213.4 713.5,212.0 716.5,211.0 719.6,208.7 722.6,205.3 725.7,201.9 728.7,198.0 731.8,193.9 734.8,190.3 737.9,188.1 740.9,185.4 744.0,181.5 747.0,178.2 750.1,176.0 753.1,173.7 756.2,170.4 759.2,168.4 762.3,166.3 765.3,164.5 768.4,163.1 771.4,161.3 774.5,160.2 777.5,159.0 780.6,158.0 783.6,154.9 786.6,152.5 789.7,151.1 792.7,150.7 795.8,149.9 798.8,148.6 801.9,147.5 804.9,145.5 808.0,144.2 811.0,143.0 814.1,142.8 817.1,142.3 820.2,141.4 823.2,138.9 826.3,134.9 829.3,130.7 832.4,126.5 835.4,123.1 838.5,119.1 841.5,114.8 844.6,110.4 847.6,106.4 850.7,103.5 853.7,101.2 856.8,98.5 859.8,96.0 862.9,94.3 865.9,92.2 869.0,90.7 872.0,90.0 872.0,272.0" fill="#e0f2fe" opacity="0.55"/>
<polyline points="52.0,271.9 55.0,271.7 91.6,270.9 94.7,270.6 97.7,270.5 106.9,270.5 125.2,270.4 164.8,270.3 167.8,269.5 170.9,269.4 180.0,269.3 183.1,269.2 186.1,269.1 189.2,268.8 195.3,268.8 198.3,268.3 207.5,268.0 219.7,267.8 222.7,267.6 225.8,267.4 250.1,267.3 256.2,267.2 271.5,267.1 274.5,267.0 277.6,266.9 289.8,266.8 292.8,266.3 295.9,265.8 298.9,264.7 302.0,264.6 323.3,264.5 332.4,264.4 338.5,264.3 341.6,264.2 344.6,263.8 347.7,263.7 350.7,263.6 353.8,263.4 356.8,263.1 369.0,262.7 375.1,262.6 387.3,262.5 390.4,262.1 393.4,262.0 396.5,261.8 402.6,261.7 405.6,260.0 408.7,258.3 411.7,257.7 414.8,257.3 417.8,257.1 420.8,256.7 423.9,256.1 426.9,255.7 430.0,255.4 433.0,255.3 439.1,255.0 442.2,254.3 445.2,253.6 448.3,252.9 451.3,252.5 457.4,252.3 463.5,252.3 466.6,251.7 469.6,251.2 472.7,250.0 475.7,249.4 478.8,248.7 481.8,248.0 484.9,247.2 487.9,246.5 491.0,245.6 494.0,244.7 497.1,243.8 500.1,243.0 503.2,242.5 506.2,241.9 509.2,241.2 512.3,240.9 515.3,240.5 518.4,240.0 521.4,239.9 524.5,239.7 530.6,239.6 533.6,237.9 536.7,236.7 539.7,236.5 542.8,236.4 548.9,236.2 551.9,235.9 564.1,235.9 570.2,235.7 579.4,235.6 582.4,233.6 585.5,231.8 588.5,231.2 591.6,229.7 594.6,228.5 597.7,227.7 600.7,227.3 603.7,226.5 606.8,226.2 609.8,226.0 612.9,225.7 615.9,225.5 634.2,224.2 637.3,222.4 640.3,222.2 643.4,221.9 646.4,221.8 667.8,221.8 695.2,220.0 698.2,218.6 701.3,217.0 704.3,214.6 707.4,214.2 710.4,213.4 713.5,212.0 716.5,211.0 719.6,208.7 722.6,205.3 725.7,201.9 728.7,198.0 731.8,193.9 734.8,190.3 737.9,188.1 740.9,185.4 744.0,181.5 747.0,178.2 750.1,176.0 753.1,173.7 756.2,170.4 759.2,168.4 762.3,166.3 765.3,164.5 768.4,163.1 771.4,161.3 774.5,160.2 777.5,159.0 780.6,158.0 783.6,154.9 786.6,152.5 789.7,151.1 792.7,150.7 795.8,149.9 798.8,148.6 801.9,147.5 804.9,145.5 808.0,144.2 811.0,143.0 814.1,142.8 817.1,142.3 820.2,141.4 823.2,138.9 826.3,134.9 829.3,130.7 832.4,126.5 835.4,123.1 838.5,119.1 841.5,114.8 844.6,110.4 847.6,106.4 850.7,103.5 853.7,101.2 856.8,98.5 859.8,96.0 862.9,94.3 865.9,92.2 869.0,90.7 872.0,90.0" fill="none" stroke="#38bdf8" stroke-width="2.5" stroke-linejoin="round" stroke-linecap="round"/>
<circle cx="872.0" cy="90.0" r="4" fill="#0ea5e9"/>
<text x="866.0" y="80.0" text-anchor="end" font-family="Inter, system-ui, sans-serif" font-size="13" font-weight="700" fill="#334155">2130</text>
<text x="52.0" y="294" text-anchor="middle" font-family="Inter, system-ui, sans-serif" font-size="11" fill="#94a3b8">Jun 10 05:00</text>
<text x="536.7" y="294" text-anchor="middle" font-family="Inter, system-ui, sans-serif" font-size="11" fill="#94a3b8">Jun 16 20:00</text>
<text x="872.0" y="294" text-anchor="middle" font-family="Inter, system-ui, sans-serif" font-size="11" fill="#94a3b8">Jun 21 10:00</text>
</svg>
