<svg xmlns="http://www.w3.org/2000/svg" width="900" height="320" viewBox="0 0 900 320" role="img" aria-labelledby="title desc">
<title id="title">unsorry proofs over time</title>
<desc id="desc">Cumulative kernel-verified proofs over time, by the hour each proof was merged.</desc>
<rect width="900" height="100%" rx="18" fill="#ffffff"/>
<rect x="0.5" y="0.5" width="899" height="319" rx="18" fill="none" stroke="#e2e8f0"/>
<text x="32" y="44" font-family="Inter, system-ui, sans-serif" font-size="28" font-weight="700" fill="#334155">unsorry — Proofs Over Time</text>
<text x="32" y="72" font-family="Inter, system-ui, sans-serif" font-size="13" fill="#64748b">2664 cumulative kernel-verified proofs · merged, hourly</text>
<line x1="52" y1="272.0" x2="872" y2="272.0" stroke="#f1f5f9"/>
<text x="44" y="276.0" text-anchor="end" font-family="Inter, system-ui, sans-serif" font-size="11" fill="#94a3b8">0</text>
<line x1="52" y1="226.5" x2="872" y2="226.5" stroke="#f1f5f9"/>
<text x="44" y="230.5" text-anchor="end" font-family="Inter, system-ui, sans-serif" font-size="11" fill="#94a3b8">666</text>
<line x1="52" y1="181.0" x2="872" y2="181.0" stroke="#f1f5f9"/>
<text x="44" y="185.0" text-anchor="end" font-family="Inter, system-ui, sans-serif" font-size="11" fill="#94a3b8">1332</text>
<line x1="52" y1="135.5" x2="872" y2="135.5" stroke="#f1f5f9"/>
<text x="44" y="139.5" text-anchor="end" font-family="Inter, system-ui, sans-serif" font-size="11" fill="#94a3b8">1998</text>
<line x1="52" y1="90.0" x2="872" y2="90.0" stroke="#f1f5f9"/>
<text x="44" y="94.0" text-anchor="end" font-family="Inter, system-ui, sans-serif" font-size="11" fill="#94a3b8">2664</text>
<polygon points="52.0,272.0 52.0,271.9 54.7,271.8 87.7,271.1 90.4,270.9 93.1,270.8 101.4,270.8 117.8,270.7 153.5,270.6 156.2,270.0 159.0,270.0 167.2,269.8 169.9,269.7 172.7,269.7 175.4,269.5 180.9,269.4 183.6,269.1 191.9,268.8 202.8,268.7 205.6,268.4 208.3,268.3 230.3,268.2 235.7,268.2 249.5,268.1 252.2,268.0 254.9,267.9 265.9,267.8 268.7,267.4 271.4,267.1 274.1,266.2 276.9,266.1 296.1,266.0 304.3,265.9 309.8,265.9 312.5,265.8 315.3,265.4 318.0,265.4 320.8,265.3 323.5,265.1 326.2,264.9 337.2,264.6 342.7,264.5 353.7,264.4 356.4,264.1 359.2,264.0 361.9,263.9 367.4,263.8 370.1,262.4 372.9,261.1 375.6,260.6 378.4,260.2 381.1,260.1 383.8,259.8 386.6,259.3 389.3,259.0 392.1,258.7 394.8,258.6 400.3,258.4 403.0,257.9 405.8,257.3 408.5,256.8 411.3,256.4 416.7,256.3 422.2,256.2 425.0,255.7 427.7,255.4 430.5,254.4 433.2,253.9 435.9,253.3 438.7,252.8 441.4,252.2 444.2,251.6 446.9,250.9 449.7,250.1 452.4,249.5 455.1,248.8 457.9,248.4 460.6,248.0 463.4,247.4 466.1,247.1 468.9,246.8 471.6,246.4 474.3,246.3 477.1,246.2 482.6,246.1 485.3,244.7 488.1,243.8 490.8,243.6 493.5,243.5 499.0,243.4 501.8,243.2 512.7,243.1 518.2,243.0 526.4,242.9 529.2,241.3 531.9,239.8 534.7,239.4 537.4,238.2 540.2,237.2 542.9,236.6 545.6,236.3 548.4,235.7 551.1,235.4 553.9,235.2 556.6,235.0 559.4,234.8 575.8,233.7 578.6,232.4 581.3,232.2 584.0,232.0 586.8,231.9 606.0,231.8 630.7,230.4 633.4,229.3 636.1,228.0 638.9,226.1 641.6,225.7 644.4,225.1 647.1,224.0 649.9,223.2 652.6,221.4 655.3,218.6 658.1,216.0 660.8,212.8 663.6,209.6 666.3,206.7 669.1,204.9 671.8,202.8 674.5,199.7 677.3,197.0 680.0,195.2 682.8,193.4 685.5,190.8 688.3,189.1 691.0,187.5 693.7,186.1 696.5,185.0 699.2,183.5 702.0,182.6 704.7,181.7 707.5,180.9 710.2,178.4 712.9,176.4 715.7,175.3 718.4,175.0 721.2,174.4 723.9,173.3 726.6,172.5 729.4,170.8 732.1,169.8 734.9,168.8 737.6,168.7 740.4,168.3 743.1,167.5 745.8,165.6 748.6,162.3 751.3,159.0 754.1,155.7 756.8,152.9 759.6,149.7 762.3,146.3 765.0,142.8 767.8,139.6 770.5,137.3 773.3,135.4 776.0,133.3 778.8,131.3 781.5,129.9 784.2,128.3 787.0,127.0 789.7,125.3 792.5,122.9 795.2,120.0 798.0,117.6 800.7,115.5 803.4,114.1 806.2,112.9 808.9,111.7 811.7,110.3 814.4,108.0 817.2,106.0 819.9,103.6 822.6,101.1 825.4,99.1 828.1,97.4 830.9,96.8 833.6,95.8 836.3,94.9 839.1,94.7 841.8,94.6 844.6,94.1 847.3,93.9 850.1,93.8 852.8,93.5 855.5,93.3 863.8,93.3 866.5,93.2 869.3,92.8 872.0,90.0 872.0,272.0" fill="#e0f2fe" opacity="0.55"/>
<polyline points="52.0,271.9 54.7,271.8 87.7,271.1 90.4,270.9 93.1,270.8 101.4,270.8 117.8,270.7 153.5,270.6 156.2,270.0 159.0,270.0 167.2,269.8 169.9,269.7 172.7,269.7 175.4,269.5 180.9,269.4 183.6,269.1 191.9,268.8 202.8,268.7 205.6,268.4 208.3,268.3 230.3,268.2 235.7,268.2 249.5,268.1 252.2,268.0 254.9,267.9 265.9,267.8 268.7,267.4 271.4,267.1 274.1,266.2 276.9,266.1 296.1,266.0 304.3,265.9 309.8,265.9 312.5,265.8 315.3,265.4 318.0,265.4 320.8,265.3 323.5,265.1 326.2,264.9 337.2,264.6 342.7,264.5 353.7,264.4 356.4,264.1 359.2,264.0 361.9,263.9 367.4,263.8 370.1,262.4 372.9,261.1 375.6,260.6 378.4,260.2 381.1,260.1 383.8,259.8 386.6,259.3 389.3,259.0 392.1,258.7 394.8,258.6 400.3,258.4 403.0,257.9 405.8,257.3 408.5,256.8 411.3,256.4 416.7,256.3 422.2,256.2 425.0,255.7 427.7,255.4 430.5,254.4 433.2,253.9 435.9,253.3 438.7,252.8 441.4,252.2 444.2,251.6 446.9,250.9 449.7,250.1 452.4,249.5 455.1,248.8 457.9,248.4 460.6,248.0 463.4,247.4 466.1,247.1 468.9,246.8 471.6,246.4 474.3,246.3 477.1,246.2 482.6,246.1 485.3,244.7 488.1,243.8 490.8,243.6 493.5,243.5 499.0,243.4 501.8,243.2 512.7,243.1 518.2,243.0 526.4,242.9 529.2,241.3 531.9,239.8 534.7,239.4 537.4,238.2 540.2,237.2 542.9,236.6 545.6,236.3 548.4,235.7 551.1,235.4 553.9,235.2 556.6,235.0 559.4,234.8 575.8,233.7 578.6,232.4 581.3,232.2 584.0,232.0 586.8,231.9 606.0,231.8 630.7,230.4 633.4,229.3 636.1,228.0 638.9,226.1 641.6,225.7 644.4,225.1 647.1,224.0 649.9,223.2 652.6,221.4 655.3,218.6 658.1,216.0 660.8,212.8 663.6,209.6 666.3,206.7 669.1,204.9 671.8,202.8 674.5,199.7 677.3,197.0 680.0,195.2 682.8,193.4 685.5,190.8 688.3,189.1 691.0,187.5 693.7,186.1 696.5,185.0 699.2,183.5 702.0,182.6 704.7,181.7 707.5,180.9 710.2,178.4 712.9,176.4 715.7,175.3 718.4,175.0 721.2,174.4 723.9,173.3 726.6,172.5 729.4,170.8 732.1,169.8 734.9,168.8 737.6,168.7 740.4,168.3 743.1,167.5 745.8,165.6 748.6,162.3 751.3,159.0 754.1,155.7 756.8,152.9 759.6,149.7 762.3,146.3 765.0,142.8 767.8,139.6 770.5,137.3 773.3,135.4 776.0,133.3 778.8,131.3 781.5,129.9 784.2,128.3 787.0,127.0 789.7,125.3 792.5,122.9 795.2,120.0 798.0,117.6 800.7,115.5 803.4,114.1 806.2,112.9 808.9,111.7 811.7,110.3 814.4,108.0 817.2,106.0 819.9,103.6 822.6,101.1 825.4,99.1 828.1,97.4 830.9,96.8 833.6,95.8 836.3,94.9 839.1,94.7 841.8,94.6 844.6,94.1 847.3,93.9 850.1,93.8 852.8,93.5 855.5,93.3 863.8,93.3 866.5,93.2 869.3,92.8 872.0,90.0" fill="none" stroke="#38bdf8" stroke-width="2.5" stroke-linejoin="round" stroke-linecap="round"/>
<circle cx="872.0" cy="90.0" r="4" fill="#0ea5e9"/>
<text x="866.0" y="80.0" text-anchor="end" font-family="Inter, system-ui, sans-serif" font-size="13" font-weight="700" fill="#334155">2664</text>
<text x="52.0" y="294" text-anchor="middle" font-family="Inter, system-ui, sans-serif" font-size="11" fill="#94a3b8">Jun 10 05:00</text>
<text x="545.6" y="294" text-anchor="middle" font-family="Inter, system-ui, sans-serif" font-size="11" fill="#94a3b8">Jun 17 17:00</text>
<text x="872.0" y="294" text-anchor="middle" font-family="Inter, system-ui, sans-serif" font-size="11" fill="#94a3b8">Jun 22 16:00</text>
</svg>
