<svg xmlns="http://www.w3.org/2000/svg" width="900" height="320" viewBox="0 0 900 320" role="img" aria-labelledby="title desc">
<title id="title">unsorry proofs over time</title>
<desc id="desc">Cumulative kernel-verified proofs over time, by the hour each proof was merged.</desc>
<rect width="900" height="100%" rx="18" fill="#ffffff"/>
<rect x="0.5" y="0.5" width="899" height="319" rx="18" fill="none" stroke="#e2e8f0"/>
<text x="32" y="44" font-family="Inter, system-ui, sans-serif" font-size="28" font-weight="700" fill="#334155">unsorry — Proofs Over Time</text>
<text x="32" y="72" font-family="Inter, system-ui, sans-serif" font-size="13" fill="#64748b">2866 cumulative kernel-verified proofs · merged, hourly</text>
<line x1="52" y1="272.0" x2="872" y2="272.0" stroke="#f1f5f9"/>
<text x="44" y="276.0" text-anchor="end" font-family="Inter, system-ui, sans-serif" font-size="11" fill="#94a3b8">0</text>
<line x1="52" y1="226.5" x2="872" y2="226.5" stroke="#f1f5f9"/>
<text x="44" y="230.5" text-anchor="end" font-family="Inter, system-ui, sans-serif" font-size="11" fill="#94a3b8">716</text>
<line x1="52" y1="181.0" x2="872" y2="181.0" stroke="#f1f5f9"/>
<text x="44" y="185.0" text-anchor="end" font-family="Inter, system-ui, sans-serif" font-size="11" fill="#94a3b8">1433</text>
<line x1="52" y1="135.5" x2="872" y2="135.5" stroke="#f1f5f9"/>
<text x="44" y="139.5" text-anchor="end" font-family="Inter, system-ui, sans-serif" font-size="11" fill="#94a3b8">2150</text>
<line x1="52" y1="90.0" x2="872" y2="90.0" stroke="#f1f5f9"/>
<text x="44" y="94.0" text-anchor="end" font-family="Inter, system-ui, sans-serif" font-size="11" fill="#94a3b8">2866</text>
<polygon points="52.0,272.0 52.0,271.9 54.7,271.8 86.8,271.2 89.5,271.0 92.2,270.9 100.2,270.9 116.3,270.8 151.2,270.7 153.8,270.2 156.5,270.1 164.5,270.0 167.2,269.9 169.9,269.8 172.6,269.7 177.9,269.6 180.6,269.3 188.7,269.0 199.4,268.9 202.1,268.7 204.7,268.6 226.2,268.5 231.5,268.4 244.9,268.4 247.6,268.3 250.3,268.2 261.0,268.1 263.7,267.7 266.4,267.4 269.1,266.6 271.7,266.5 290.5,266.4 298.5,266.3 303.9,266.3 306.6,266.2 309.3,265.9 311.9,265.8 314.6,265.8 317.3,265.6 320.0,265.4 330.7,265.1 336.1,265.0 346.8,265.0 349.5,264.6 352.1,264.6 354.8,264.4 360.2,264.4 362.8,263.1 365.5,261.8 368.2,261.4 370.9,261.1 373.6,261.0 376.2,260.6 378.9,260.2 381.6,259.9 384.3,259.7 387.0,259.6 392.3,259.4 395.0,258.9 397.7,258.3 400.4,257.8 403.0,257.5 408.4,257.4 413.8,257.3 416.4,256.9 419.1,256.6 421.8,255.7 424.5,255.2 427.2,254.7 429.8,254.2 432.5,253.6 435.2,253.0 437.9,252.4 440.6,251.7 443.2,251.0 445.9,250.5 448.6,250.1 451.3,249.6 454.0,249.1 456.6,248.9 459.3,248.6 462.0,248.2 464.7,248.1 467.4,248.0 472.7,247.9 475.4,246.7 478.1,245.8 480.8,245.6 483.4,245.5 488.8,245.4 491.5,245.2 502.2,245.1 507.6,245.0 515.6,244.9 518.3,243.5 521.0,242.1 523.6,241.7 526.3,240.6 529.0,239.7 531.7,239.1 534.4,238.8 537.0,238.2 539.7,238.0 542.4,237.8 545.1,237.6 547.8,237.5 563.8,236.4 566.5,235.2 569.2,235.0 571.9,234.8 574.5,234.7 593.3,234.7 617.4,233.3 620.1,232.3 622.8,231.1 625.5,229.3 628.1,229.0 630.8,228.4 633.5,227.4 636.2,226.7 638.9,224.9 641.5,222.4 644.2,219.9 646.9,217.0 649.6,214.0 652.3,211.3 654.9,209.6 657.6,207.7 660.3,204.8 663.0,202.3 665.7,200.6 668.3,198.9 671.0,196.5 673.7,195.0 676.4,193.4 679.1,192.1 681.7,191.1 684.4,189.8 687.1,188.9 689.8,188.0 692.5,187.3 695.1,185.0 697.8,183.2 700.5,182.1 703.2,181.8 705.9,181.3 708.5,180.3 711.2,179.5 713.9,178.0 716.6,177.0 719.3,176.1 721.9,176.0 724.6,175.6 727.3,174.9 730.0,173.1 732.7,170.1 735.3,167.0 738.0,163.9 740.7,161.3 743.4,158.3 746.1,155.2 748.7,151.9 751.4,148.9 754.1,146.8 756.8,145.1 759.5,143.1 762.1,141.2 764.8,139.9 767.5,138.4 770.2,137.2 772.8,135.6 775.5,133.4 778.2,130.7 780.9,128.5 783.6,126.5 786.2,125.2 788.9,124.1 791.6,123.0 794.3,121.7 797.0,119.5 799.6,117.7 802.3,115.5 805.0,113.2 807.7,111.3 810.4,109.7 813.0,109.1 815.7,108.2 818.4,107.3 821.1,107.2 823.8,107.1 826.4,106.6 829.1,106.4 831.8,106.4 834.5,106.1 837.2,105.9 845.2,105.9 847.9,105.8 850.6,105.4 853.2,102.8 855.9,100.6 858.6,98.6 861.3,96.4 864.0,94.4 866.6,92.5 869.3,90.4 872.0,90.0 872.0,272.0" fill="#e0f2fe" opacity="0.55"/>
<polyline points="52.0,271.9 54.7,271.8 86.8,271.2 89.5,271.0 92.2,270.9 100.2,270.9 116.3,270.8 151.2,270.7 153.8,270.2 156.5,270.1 164.5,270.0 167.2,269.9 169.9,269.8 172.6,269.7 177.9,269.6 180.6,269.3 188.7,269.0 199.4,268.9 202.1,268.7 204.7,268.6 226.2,268.5 231.5,268.4 244.9,268.4 247.6,268.3 250.3,268.2 261.0,268.1 263.7,267.7 266.4,267.4 269.1,266.6 271.7,266.5 290.5,266.4 298.5,266.3 303.9,266.3 306.6,266.2 309.3,265.9 311.9,265.8 314.6,265.8 317.3,265.6 320.0,265.4 330.7,265.1 336.1,265.0 346.8,265.0 349.5,264.6 352.1,264.6 354.8,264.4 360.2,264.4 362.8,263.1 365.5,261.8 368.2,261.4 370.9,261.1 373.6,261.0 376.2,260.6 378.9,260.2 381.6,259.9 384.3,259.7 387.0,259.6 392.3,259.4 395.0,258.9 397.7,258.3 400.4,257.8 403.0,257.5 408.4,257.4 413.8,257.3 416.4,256.9 419.1,256.6 421.8,255.7 424.5,255.2 427.2,254.7 429.8,254.2 432.5,253.6 435.2,253.0 437.9,252.4 440.6,251.7 443.2,251.0 445.9,250.5 448.6,250.1 451.3,249.6 454.0,249.1 456.6,248.9 459.3,248.6 462.0,248.2 464.7,248.1 467.4,248.0 472.7,247.9 475.4,246.7 478.1,245.8 480.8,245.6 483.4,245.5 488.8,245.4 491.5,245.2 502.2,245.1 507.6,245.0 515.6,244.9 518.3,243.5 521.0,242.1 523.6,241.7 526.3,240.6 529.0,239.7 531.7,239.1 534.4,238.8 537.0,238.2 539.7,238.0 542.4,237.8 545.1,237.6 547.8,237.5 563.8,236.4 566.5,235.2 569.2,235.0 571.9,234.8 574.5,234.7 593.3,234.7 617.4,233.3 620.1,232.3 622.8,231.1 625.5,229.3 628.1,229.0 630.8,228.4 633.5,227.4 636.2,226.7 638.9,224.9 641.5,222.4 644.2,219.9 646.9,217.0 649.6,214.0 652.3,211.3 654.9,209.6 657.6,207.7 660.3,204.8 663.0,202.3 665.7,200.6 668.3,198.9 671.0,196.5 673.7,195.0 676.4,193.4 679.1,192.1 681.7,191.1 684.4,189.8 687.1,188.9 689.8,188.0 692.5,187.3 695.1,185.0 697.8,183.2 700.5,182.1 703.2,181.8 705.9,181.3 708.5,180.3 711.2,179.5 713.9,178.0 716.6,177.0 719.3,176.1 721.9,176.0 724.6,175.6 727.3,174.9 730.0,173.1 732.7,170.1 735.3,167.0 738.0,163.9 740.7,161.3 743.4,158.3 746.1,155.2 748.7,151.9 751.4,148.9 754.1,146.8 756.8,145.1 759.5,143.1 762.1,141.2 764.8,139.9 767.5,138.4 770.2,137.2 772.8,135.6 775.5,133.4 778.2,130.7 780.9,128.5 783.6,126.5 786.2,125.2 788.9,124.1 791.6,123.0 794.3,121.7 797.0,119.5 799.6,117.7 802.3,115.5 805.0,113.2 807.7,111.3 810.4,109.7 813.0,109.1 815.7,108.2 818.4,107.3 821.1,107.2 823.8,107.1 826.4,106.6 829.1,106.4 831.8,106.4 834.5,106.1 837.2,105.9 845.2,105.9 847.9,105.8 850.6,105.4 853.2,102.8 855.9,100.6 858.6,98.6 861.3,96.4 864.0,94.4 866.6,92.5 869.3,90.4 872.0,90.0" fill="none" stroke="#38bdf8" stroke-width="2.5" stroke-linejoin="round" stroke-linecap="round"/>
<circle cx="872.0" cy="90.0" r="4" fill="#0ea5e9"/>
<text x="866.0" y="80.0" text-anchor="end" font-family="Inter, system-ui, sans-serif" font-size="13" font-weight="700" fill="#334155">2866</text>
<text x="52.0" y="294" text-anchor="middle" font-family="Inter, system-ui, sans-serif" font-size="11" fill="#94a3b8">Jun 10 05:00</text>
<text x="542.4" y="294" text-anchor="middle" font-family="Inter, system-ui, sans-serif" font-size="11" fill="#94a3b8">Jun 17 20:00</text>
<text x="872.0" y="294" text-anchor="middle" font-family="Inter, system-ui, sans-serif" font-size="11" fill="#94a3b8">Jun 22 23:00</text>
</svg>
