<svg xmlns="http://www.w3.org/2000/svg" width="900" height="320" viewBox="0 0 900 320" role="img" aria-labelledby="title desc">
<title id="title">unsorry proofs over time</title>
<desc id="desc">Cumulative kernel-verified proofs over time, by the hour each proof was merged.</desc>
<rect width="900" height="100%" rx="18" fill="#ffffff"/>
<rect x="0.5" y="0.5" width="899" height="319" rx="18" fill="none" stroke="#e2e8f0"/>
<text x="32" y="44" font-family="Inter, system-ui, sans-serif" font-size="28" font-weight="700" fill="#334155">unsorry — Proofs Over Time</text>
<text x="32" y="72" font-family="Inter, system-ui, sans-serif" font-size="13" fill="#64748b">4329 cumulative kernel-verified proofs · merged, hourly</text>
<line x1="52" y1="272.0" x2="872" y2="272.0" stroke="#f1f5f9"/>
<text x="44" y="276.0" text-anchor="end" font-family="Inter, system-ui, sans-serif" font-size="11" fill="#94a3b8">0</text>
<line x1="52" y1="226.5" x2="872" y2="226.5" stroke="#f1f5f9"/>
<text x="44" y="230.5" text-anchor="end" font-family="Inter, system-ui, sans-serif" font-size="11" fill="#94a3b8">1082</text>
<line x1="52" y1="181.0" x2="872" y2="181.0" stroke="#f1f5f9"/>
<text x="44" y="185.0" text-anchor="end" font-family="Inter, system-ui, sans-serif" font-size="11" fill="#94a3b8">2164</text>
<line x1="52" y1="135.5" x2="872" y2="135.5" stroke="#f1f5f9"/>
<text x="44" y="139.5" text-anchor="end" font-family="Inter, system-ui, sans-serif" font-size="11" fill="#94a3b8">3247</text>
<line x1="52" y1="90.0" x2="872" y2="90.0" stroke="#f1f5f9"/>
<text x="44" y="94.0" text-anchor="end" font-family="Inter, system-ui, sans-serif" font-size="11" fill="#94a3b8">4329</text>
<polygon points="52.0,272.0 52.0,272.0 54.2,271.9 80.3,271.5 82.5,271.3 84.6,271.3 91.2,271.2 104.2,271.2 132.5,271.2 134.7,270.8 136.8,270.7 143.4,270.7 145.5,270.6 147.7,270.6 149.9,270.4 154.2,270.4 156.4,270.2 162.9,270.0 171.6,269.9 173.8,269.8 176.0,269.7 193.4,269.7 197.7,269.6 208.6,269.6 210.8,269.6 213.0,269.5 221.7,269.4 223.8,269.2 226.0,269.0 228.2,268.4 230.4,268.3 245.6,268.3 252.1,268.3 256.5,268.2 258.6,268.2 260.8,268.0 263.0,267.9 265.2,267.9 267.3,267.8 269.5,267.6 278.2,267.4 282.6,267.4 291.3,267.3 293.4,267.1 295.6,267.1 297.8,267.0 302.1,267.0 304.3,266.1 306.5,265.3 308.7,265.0 310.8,264.8 313.0,264.7 315.2,264.5 317.4,264.2 319.5,264.0 321.7,263.8 323.9,263.8 328.2,263.6 330.4,263.3 332.6,263.0 334.8,262.6 336.9,262.4 341.3,262.3 345.6,262.3 347.8,262.0 350.0,261.8 352.2,261.2 354.3,260.9 356.5,260.5 358.7,260.2 360.9,259.8 363.0,259.4 365.2,259.0 367.4,258.5 369.6,258.1 371.7,257.7 373.9,257.5 376.1,257.2 378.3,256.9 380.4,256.7 382.6,256.5 384.8,256.3 387.0,256.2 389.1,256.1 393.5,256.1 395.7,255.2 397.8,254.6 400.0,254.5 402.2,254.5 406.5,254.4 408.7,254.3 417.4,254.2 421.8,254.1 428.3,254.1 430.5,253.1 432.6,252.2 434.8,251.9 437.0,251.2 439.2,250.6 441.3,250.2 443.5,250.0 445.7,249.6 447.9,249.5 450.0,249.4 452.2,249.2 454.4,249.1 467.4,248.5 469.6,247.6 471.8,247.5 474.0,247.4 476.1,247.3 491.4,247.3 510.9,246.4 513.1,245.7 515.3,244.9 517.5,243.7 519.6,243.5 521.8,243.2 524.0,242.5 526.2,242.0 528.3,240.8 530.5,239.2 532.7,237.5 534.9,235.6 537.0,233.6 539.2,231.8 541.4,230.7 543.6,229.4 545.7,227.5 547.9,225.8 550.1,224.7 552.3,223.6 554.4,222.0 556.6,221.0 558.8,220.0 561.0,219.1 563.1,218.4 565.3,217.6 567.5,217.0 569.7,216.4 571.8,215.9 574.0,214.4 576.2,213.2 578.4,212.5 580.5,212.3 582.7,211.9 584.9,211.3 587.1,210.7 589.2,209.7 591.4,209.1 593.6,208.5 595.8,208.4 597.9,208.2 600.1,207.7 602.3,206.5 604.5,204.5 606.6,202.5 608.8,200.4 611.0,198.7 613.2,196.7 615.3,194.6 617.5,192.5 619.7,190.5 621.9,189.1 624.0,188.0 626.2,186.7 628.4,185.4 630.6,184.6 632.7,183.5 634.9,182.8 637.1,181.7 639.3,180.2 641.4,178.5 643.6,177.0 645.8,175.7 648.0,174.8 650.1,174.1 652.3,173.3 654.5,172.5 656.7,171.1 658.8,169.8 661.0,168.4 663.2,166.9 665.4,165.6 667.5,164.6 669.7,164.2 671.9,163.6 674.1,163.0 676.2,162.9 678.4,162.8 680.6,162.5 682.8,162.4 684.9,162.4 687.1,162.1 689.3,162.1 695.8,162.0 698.0,162.0 700.2,161.7 702.3,160.0 704.5,158.5 706.7,157.2 708.9,155.8 711.0,154.5 713.2,153.1 715.4,151.8 717.6,150.5 719.7,149.1 721.9,147.8 724.1,146.5 726.3,145.3 728.4,144.1 730.6,142.8 732.8,141.6 735.0,140.5 737.1,139.4 739.3,138.2 741.5,137.0 743.7,135.9 745.8,134.8 748.0,134.0 750.2,133.3 752.4,132.5 754.5,131.4 756.7,130.4 758.9,129.5 761.1,128.4 763.2,127.4 765.4,126.5 767.6,125.5 769.8,124.5 771.9,123.5 774.1,122.6 776.3,121.5 778.5,120.7 780.6,119.7 782.8,118.9 785.0,118.1 787.2,117.1 789.3,116.2 791.5,115.4 793.7,114.8 795.9,114.1 798.0,113.8 800.2,113.6 802.4,112.7 804.6,111.9 806.7,111.1 808.9,110.2 811.1,109.5 813.3,108.7 815.4,107.9 817.6,107.1 819.8,106.3 822.0,105.6 824.1,104.9 826.3,104.2 828.5,103.3 830.7,102.7 832.8,101.9 835.0,101.1 837.2,100.4 839.4,99.8 841.5,99.0 843.7,98.4 845.9,97.8 848.1,96.9 850.2,96.1 852.4,95.4 854.6,94.6 856.8,93.8 858.9,93.2 861.1,92.6 863.3,91.7 865.5,91.1 867.6,90.7 869.8,90.0 872.0,90.0 872.0,272.0" fill="#e0f2fe" opacity="0.55"/>
<polyline points="52.0,272.0 54.2,271.9 80.3,271.5 82.5,271.3 84.6,271.3 91.2,271.2 104.2,271.2 132.5,271.2 134.7,270.8 136.8,270.7 143.4,270.7 145.5,270.6 147.7,270.6 149.9,270.4 154.2,270.4 156.4,270.2 162.9,270.0 171.6,269.9 173.8,269.8 176.0,269.7 193.4,269.7 197.7,269.6 208.6,269.6 210.8,269.6 213.0,269.5 221.7,269.4 223.8,269.2 226.0,269.0 228.2,268.4 230.4,268.3 245.6,268.3 252.1,268.3 256.5,268.2 258.6,268.2 260.8,268.0 263.0,267.9 265.2,267.9 267.3,267.8 269.5,267.6 278.2,267.4 282.6,267.4 291.3,267.3 293.4,267.1 295.6,267.1 297.8,267.0 302.1,267.0 304.3,266.1 306.5,265.3 308.7,265.0 310.8,264.8 313.0,264.7 315.2,264.5 317.4,264.2 319.5,264.0 321.7,263.8 323.9,263.8 328.2,263.6 330.4,263.3 332.6,263.0 334.8,262.6 336.9,262.4 341.3,262.3 345.6,262.3 347.8,262.0 350.0,261.8 352.2,261.2 354.3,260.9 356.5,260.5 358.7,260.2 360.9,259.8 363.0,259.4 365.2,259.0 367.4,258.5 369.6,258.1 371.7,257.7 373.9,257.5 376.1,257.2 378.3,256.9 380.4,256.7 382.6,256.5 384.8,256.3 387.0,256.2 389.1,256.1 393.5,256.1 395.7,255.2 397.8,254.6 400.0,254.5 402.2,254.5 406.5,254.4 408.7,254.3 417.4,254.2 421.8,254.1 428.3,254.1 430.5,253.1 432.6,252.2 434.8,251.9 437.0,251.2 439.2,250.6 441.3,250.2 443.5,250.0 445.7,249.6 447.9,249.5 450.0,249.4 452.2,249.2 454.4,249.1 467.4,248.5 469.6,247.6 471.8,247.5 474.0,247.4 476.1,247.3 491.4,247.3 510.9,246.4 513.1,245.7 515.3,244.9 517.5,243.7 519.6,243.5 521.8,243.2 524.0,242.5 526.2,242.0 528.3,240.8 530.5,239.2 532.7,237.5 534.9,235.6 537.0,233.6 539.2,231.8 541.4,230.7 543.6,229.4 545.7,227.5 547.9,225.8 550.1,224.7 552.3,223.6 554.4,222.0 556.6,221.0 558.8,220.0 561.0,219.1 563.1,218.4 565.3,217.6 567.5,217.0 569.7,216.4 571.8,215.9 574.0,214.4 576.2,213.2 578.4,212.5 580.5,212.3 582.7,211.9 584.9,211.3 587.1,210.7 589.2,209.7 591.4,209.1 593.6,208.5 595.8,208.4 597.9,208.2 600.1,207.7 602.3,206.5 604.5,204.5 606.6,202.5 608.8,200.4 611.0,198.7 613.2,196.7 615.3,194.6 617.5,192.5 619.7,190.5 621.9,189.1 624.0,188.0 626.2,186.7 628.4,185.4 630.6,184.6 632.7,183.5 634.9,182.8 637.1,181.7 639.3,180.2 641.4,178.5 643.6,177.0 645.8,175.7 648.0,174.8 650.1,174.1 652.3,173.3 654.5,172.5 656.7,171.1 658.8,169.8 661.0,168.4 663.2,166.9 665.4,165.6 667.5,164.6 669.7,164.2 671.9,163.6 674.1,163.0 676.2,162.9 678.4,162.8 680.6,162.5 682.8,162.4 684.9,162.4 687.1,162.1 689.3,162.1 695.8,162.0 698.0,162.0 700.2,161.7 702.3,160.0 704.5,158.5 706.7,157.2 708.9,155.8 711.0,154.5 713.2,153.1 715.4,151.8 717.6,150.5 719.7,149.1 721.9,147.8 724.1,146.5 726.3,145.3 728.4,144.1 730.6,142.8 732.8,141.6 735.0,140.5 737.1,139.4 739.3,138.2 741.5,137.0 743.7,135.9 745.8,134.8 748.0,134.0 750.2,133.3 752.4,132.5 754.5,131.4 756.7,130.4 758.9,129.5 761.1,128.4 763.2,127.4 765.4,126.5 767.6,125.5 769.8,124.5 771.9,123.5 774.1,122.6 776.3,121.5 778.5,120.7 780.6,119.7 782.8,118.9 785.0,118.1 787.2,117.1 789.3,116.2 791.5,115.4 793.7,114.8 795.9,114.1 798.0,113.8 800.2,113.6 802.4,112.7 804.6,111.9 806.7,111.1 808.9,110.2 811.1,109.5 813.3,108.7 815.4,107.9 817.6,107.1 819.8,106.3 822.0,105.6 824.1,104.9 826.3,104.2 828.5,103.3 830.7,102.7 832.8,101.9 835.0,101.1 837.2,100.4 839.4,99.8 841.5,99.0 843.7,98.4 845.9,97.8 848.1,96.9 850.2,96.1 852.4,95.4 854.6,94.6 856.8,93.8 858.9,93.2 861.1,92.6 863.3,91.7 865.5,91.1 867.6,90.7 869.8,90.0 872.0,90.0" fill="none" stroke="#38bdf8" stroke-width="2.5" stroke-linejoin="round" stroke-linecap="round"/>
<circle cx="872.0" cy="90.0" r="4" fill="#0ea5e9"/>
<text x="866.0" y="80.0" text-anchor="end" font-family="Inter, system-ui, sans-serif" font-size="13" font-weight="700" fill="#334155">4329</text>
<text x="52.0" y="294" text-anchor="middle" font-family="Inter, system-ui, sans-serif" font-size="11" fill="#94a3b8">Jun 10 05:00</text>
<text x="569.7" y="294" text-anchor="middle" font-family="Inter, system-ui, sans-serif" font-size="11" fill="#94a3b8">Jun 20 03:00</text>
<text x="872.0" y="294" text-anchor="middle" font-family="Inter, system-ui, sans-serif" font-size="11" fill="#94a3b8">Jun 25 22:00</text>
</svg>
