<svg xmlns="http://www.w3.org/2000/svg" width="900" height="320" viewBox="0 0 900 320" role="img" aria-labelledby="title desc">
<title id="title">unsorry proofs over time</title>
<desc id="desc">Cumulative kernel-verified proofs over time, by the hour each proof was merged.</desc>
<rect width="900" height="100%" rx="18" fill="#ffffff"/>
<rect x="0.5" y="0.5" width="899" height="319" rx="18" fill="none" stroke="#e2e8f0"/>
<text x="32" y="44" font-family="Inter, system-ui, sans-serif" font-size="28" font-weight="700" fill="#334155">unsorry — Proofs Over Time</text>
<text x="32" y="72" font-family="Inter, system-ui, sans-serif" font-size="13" fill="#64748b">3881 cumulative kernel-verified proofs · merged, hourly</text>
<line x1="52" y1="272.0" x2="872" y2="272.0" stroke="#f1f5f9"/>
<text x="44" y="276.0" text-anchor="end" font-family="Inter, system-ui, sans-serif" font-size="11" fill="#94a3b8">0</text>
<line x1="52" y1="226.5" x2="872" y2="226.5" stroke="#f1f5f9"/>
<text x="44" y="230.5" text-anchor="end" font-family="Inter, system-ui, sans-serif" font-size="11" fill="#94a3b8">970</text>
<line x1="52" y1="181.0" x2="872" y2="181.0" stroke="#f1f5f9"/>
<text x="44" y="185.0" text-anchor="end" font-family="Inter, system-ui, sans-serif" font-size="11" fill="#94a3b8">1940</text>
<line x1="52" y1="135.5" x2="872" y2="135.5" stroke="#f1f5f9"/>
<text x="44" y="139.5" text-anchor="end" font-family="Inter, system-ui, sans-serif" font-size="11" fill="#94a3b8">2911</text>
<line x1="52" y1="90.0" x2="872" y2="90.0" stroke="#f1f5f9"/>
<text x="44" y="94.0" text-anchor="end" font-family="Inter, system-ui, sans-serif" font-size="11" fill="#94a3b8">3881</text>
<polygon points="52.0,272.0 52.0,272.0 54.3,271.9 82.5,271.4 84.8,271.2 87.1,271.2 94.2,271.2 108.2,271.1 138.7,271.1 141.0,270.6 143.4,270.6 150.4,270.5 152.7,270.5 155.1,270.4 157.4,270.3 162.1,270.2 164.5,270.0 171.5,269.8 180.9,269.7 183.2,269.6 185.5,269.5 204.3,269.4 209.0,269.4 220.7,269.3 223.0,269.3 225.4,269.2 234.7,269.1 237.1,268.9 239.4,268.6 241.8,268.0 244.1,267.9 260.5,267.9 267.5,267.8 272.2,267.8 274.6,267.7 276.9,267.5 279.3,267.5 281.6,267.4 283.9,267.3 286.3,267.1 295.7,266.9 300.3,266.8 309.7,266.8 312.1,266.6 314.4,266.5 316.7,266.4 321.4,266.4 323.8,265.4 326.1,264.5 328.5,264.2 330.8,263.9 333.1,263.8 335.5,263.6 337.8,263.3 340.2,263.0 342.5,262.9 344.9,262.8 349.5,262.7 351.9,262.3 354.2,261.9 356.6,261.5 358.9,261.3 363.6,261.2 368.3,261.2 370.6,260.8 373.0,260.6 375.3,259.9 377.7,259.6 380.0,259.2 382.3,258.8 384.7,258.4 387.0,258.0 389.4,257.5 391.7,257.0 394.1,256.5 396.4,256.1 398.7,255.8 401.1,255.5 403.4,255.1 405.8,254.9 408.1,254.7 410.5,254.5 412.8,254.4 415.1,254.3 419.8,254.2 422.2,253.3 424.5,252.6 426.9,252.5 429.2,252.4 433.9,252.4 436.2,252.2 445.6,252.2 450.3,252.1 457.3,252.0 459.7,250.9 462.0,249.9 464.3,249.6 466.7,248.8 469.0,248.1 471.4,247.7 473.7,247.5 476.1,247.1 478.4,246.9 480.7,246.8 483.1,246.6 485.4,246.5 499.5,245.7 501.8,244.8 504.2,244.7 506.5,244.5 508.9,244.5 525.3,244.4 546.3,243.4 548.7,242.7 551.0,241.8 553.4,240.5 555.7,240.3 558.1,239.8 560.4,239.1 562.7,238.5 565.1,237.3 567.4,235.4 569.8,233.5 572.1,231.4 574.5,229.1 576.8,227.2 579.1,225.9 581.5,224.5 583.8,222.3 586.2,220.5 588.5,219.3 590.9,218.0 593.2,216.2 595.5,215.1 597.9,214.0 600.2,213.0 602.6,212.3 604.9,211.3 607.3,210.7 609.6,210.0 611.9,209.4 614.3,207.8 616.6,206.4 619.0,205.6 621.3,205.4 623.7,205.0 626.0,204.3 628.3,203.7 630.7,202.5 633.0,201.8 635.4,201.2 637.7,201.1 640.1,200.8 642.4,200.3 644.7,198.9 647.1,196.7 649.4,194.4 651.8,192.1 654.1,190.3 656.5,188.1 658.8,185.7 661.1,183.3 663.5,181.1 665.8,179.5 668.2,178.3 670.5,176.8 672.9,175.4 675.2,174.5 677.5,173.3 679.9,172.5 682.2,171.3 684.6,169.6 686.9,167.7 689.3,166.0 691.6,164.6 693.9,163.6 696.3,162.8 698.6,161.9 701.0,161.0 703.3,159.4 705.7,158.0 708.0,156.4 710.3,154.7 712.7,153.3 715.0,152.2 717.4,151.7 719.7,151.1 722.1,150.4 724.4,150.3 726.7,150.2 729.1,149.9 731.4,149.7 733.8,149.7 736.1,149.5 738.5,149.4 745.5,149.3 747.8,149.3 750.2,149.0 752.5,147.1 754.9,145.4 757.2,144.0 759.5,142.3 761.9,140.9 764.2,139.4 766.6,137.9 768.9,136.5 771.3,134.9 773.6,133.5 775.9,132.1 778.3,130.7 780.6,129.3 783.0,127.9 785.3,126.5 787.7,125.4 790.0,124.0 792.3,122.7 794.7,121.4 797.0,120.2 799.4,118.9 801.7,118.1 804.1,117.2 806.4,116.4 808.7,115.2 811.1,114.1 813.4,113.1 815.8,111.8 818.1,110.7 820.5,109.7 822.8,108.6 825.1,107.5 827.5,106.4 829.8,105.4 832.2,104.2 834.5,103.2 836.9,102.1 839.2,101.2 841.5,100.3 843.9,99.2 846.2,98.3 848.6,97.4 850.9,96.6 853.3,95.9 855.6,95.5 857.9,95.3 860.3,94.4 862.6,93.5 865.0,92.5 867.3,91.5 869.7,90.8 872.0,90.0 872.0,272.0" fill="#e0f2fe" opacity="0.55"/>
<polyline points="52.0,272.0 54.3,271.9 82.5,271.4 84.8,271.2 87.1,271.2 94.2,271.2 108.2,271.1 138.7,271.1 141.0,270.6 143.4,270.6 150.4,270.5 152.7,270.5 155.1,270.4 157.4,270.3 162.1,270.2 164.5,270.0 171.5,269.8 180.9,269.7 183.2,269.6 185.5,269.5 204.3,269.4 209.0,269.4 220.7,269.3 223.0,269.3 225.4,269.2 234.7,269.1 237.1,268.9 239.4,268.6 241.8,268.0 244.1,267.9 260.5,267.9 267.5,267.8 272.2,267.8 274.6,267.7 276.9,267.5 279.3,267.5 281.6,267.4 283.9,267.3 286.3,267.1 295.7,266.9 300.3,266.8 309.7,266.8 312.1,266.6 314.4,266.5 316.7,266.4 321.4,266.4 323.8,265.4 326.1,264.5 328.5,264.2 330.8,263.9 333.1,263.8 335.5,263.6 337.8,263.3 340.2,263.0 342.5,262.9 344.9,262.8 349.5,262.7 351.9,262.3 354.2,261.9 356.6,261.5 358.9,261.3 363.6,261.2 368.3,261.2 370.6,260.8 373.0,260.6 375.3,259.9 377.7,259.6 380.0,259.2 382.3,258.8 384.7,258.4 387.0,258.0 389.4,257.5 391.7,257.0 394.1,256.5 396.4,256.1 398.7,255.8 401.1,255.5 403.4,255.1 405.8,254.9 408.1,254.7 410.5,254.5 412.8,254.4 415.1,254.3 419.8,254.2 422.2,253.3 424.5,252.6 426.9,252.5 429.2,252.4 433.9,252.4 436.2,252.2 445.6,252.2 450.3,252.1 457.3,252.0 459.7,250.9 462.0,249.9 464.3,249.6 466.7,248.8 469.0,248.1 471.4,247.7 473.7,247.5 476.1,247.1 478.4,246.9 480.7,246.8 483.1,246.6 485.4,246.5 499.5,245.7 501.8,244.8 504.2,244.7 506.5,244.5 508.9,244.5 525.3,244.4 546.3,243.4 548.7,242.7 551.0,241.8 553.4,240.5 555.7,240.3 558.1,239.8 560.4,239.1 562.7,238.5 565.1,237.3 567.4,235.4 569.8,233.5 572.1,231.4 574.5,229.1 576.8,227.2 579.1,225.9 581.5,224.5 583.8,222.3 586.2,220.5 588.5,219.3 590.9,218.0 593.2,216.2 595.5,215.1 597.9,214.0 600.2,213.0 602.6,212.3 604.9,211.3 607.3,210.7 609.6,210.0 611.9,209.4 614.3,207.8 616.6,206.4 619.0,205.6 621.3,205.4 623.7,205.0 626.0,204.3 628.3,203.7 630.7,202.5 633.0,201.8 635.4,201.2 637.7,201.1 640.1,200.8 642.4,200.3 644.7,198.9 647.1,196.7 649.4,194.4 651.8,192.1 654.1,190.3 656.5,188.1 658.8,185.7 661.1,183.3 663.5,181.1 665.8,179.5 668.2,178.3 670.5,176.8 672.9,175.4 675.2,174.5 677.5,173.3 679.9,172.5 682.2,171.3 684.6,169.6 686.9,167.7 689.3,166.0 691.6,164.6 693.9,163.6 696.3,162.8 698.6,161.9 701.0,161.0 703.3,159.4 705.7,158.0 708.0,156.4 710.3,154.7 712.7,153.3 715.0,152.2 717.4,151.7 719.7,151.1 722.1,150.4 724.4,150.3 726.7,150.2 729.1,149.9 731.4,149.7 733.8,149.7 736.1,149.5 738.5,149.4 745.5,149.3 747.8,149.3 750.2,149.0 752.5,147.1 754.9,145.4 757.2,144.0 759.5,142.3 761.9,140.9 764.2,139.4 766.6,137.9 768.9,136.5 771.3,134.9 773.6,133.5 775.9,132.1 778.3,130.7 780.6,129.3 783.0,127.9 785.3,126.5 787.7,125.4 790.0,124.0 792.3,122.7 794.7,121.4 797.0,120.2 799.4,118.9 801.7,118.1 804.1,117.2 806.4,116.4 808.7,115.2 811.1,114.1 813.4,113.1 815.8,111.8 818.1,110.7 820.5,109.7 822.8,108.6 825.1,107.5 827.5,106.4 829.8,105.4 832.2,104.2 834.5,103.2 836.9,102.1 839.2,101.2 841.5,100.3 843.9,99.2 846.2,98.3 848.6,97.4 850.9,96.6 853.3,95.9 855.6,95.5 857.9,95.3 860.3,94.4 862.6,93.5 865.0,92.5 867.3,91.5 869.7,90.8 872.0,90.0" fill="none" stroke="#38bdf8" stroke-width="2.5" stroke-linejoin="round" stroke-linecap="round"/>
<circle cx="872.0" cy="90.0" r="4" fill="#0ea5e9"/>
<text x="866.0" y="80.0" text-anchor="end" font-family="Inter, system-ui, sans-serif" font-size="13" font-weight="700" fill="#334155">3881</text>
<text x="52.0" y="294" text-anchor="middle" font-family="Inter, system-ui, sans-serif" font-size="11" fill="#94a3b8">Jun 10 05:00</text>
<text x="576.8" y="294" text-anchor="middle" font-family="Inter, system-ui, sans-serif" font-size="11" fill="#94a3b8">Jun 19 13:00</text>
<text x="872.0" y="294" text-anchor="middle" font-family="Inter, system-ui, sans-serif" font-size="11" fill="#94a3b8">Jun 24 19:00</text>
</svg>
