<svg xmlns="http://www.w3.org/2000/svg" width="900" height="320" viewBox="0 0 900 320" role="img" aria-labelledby="title desc">
<title id="title">unsorry proofs over time</title>
<desc id="desc">Cumulative kernel-verified proofs over time, by the hour each proof was merged.</desc>
<rect width="900" height="100%" rx="18" fill="#ffffff"/>
<rect x="0.5" y="0.5" width="899" height="319" rx="18" fill="none" stroke="#e2e8f0"/>
<text x="32" y="44" font-family="Inter, system-ui, sans-serif" font-size="28" font-weight="700" fill="#334155">unsorry — Proofs Over Time</text>
<text x="32" y="72" font-family="Inter, system-ui, sans-serif" font-size="13" fill="#64748b">2720 cumulative kernel-verified proofs · merged, hourly</text>
<line x1="52" y1="272.0" x2="872" y2="272.0" stroke="#f1f5f9"/>
<text x="44" y="276.0" text-anchor="end" font-family="Inter, system-ui, sans-serif" font-size="11" fill="#94a3b8">0</text>
<line x1="52" y1="226.5" x2="872" y2="226.5" stroke="#f1f5f9"/>
<text x="44" y="230.5" text-anchor="end" font-family="Inter, system-ui, sans-serif" font-size="11" fill="#94a3b8">680</text>
<line x1="52" y1="181.0" x2="872" y2="181.0" stroke="#f1f5f9"/>
<text x="44" y="185.0" text-anchor="end" font-family="Inter, system-ui, sans-serif" font-size="11" fill="#94a3b8">1360</text>
<line x1="52" y1="135.5" x2="872" y2="135.5" stroke="#f1f5f9"/>
<text x="44" y="139.5" text-anchor="end" font-family="Inter, system-ui, sans-serif" font-size="11" fill="#94a3b8">2040</text>
<line x1="52" y1="90.0" x2="872" y2="90.0" stroke="#f1f5f9"/>
<text x="44" y="94.0" text-anchor="end" font-family="Inter, system-ui, sans-serif" font-size="11" fill="#94a3b8">2720</text>
<polygon points="52.0,272.0 52.0,271.9 54.7,271.8 87.4,271.1 90.1,270.9 92.9,270.9 101.0,270.8 117.4,270.7 152.8,270.7 155.5,270.1 158.2,270.0 166.4,269.9 169.1,269.8 171.9,269.7 174.6,269.5 180.0,269.5 182.8,269.1 190.9,268.9 201.8,268.7 204.6,268.5 207.3,268.4 229.1,268.3 234.5,268.3 248.1,268.2 250.9,268.1 253.6,268.0 264.5,267.9 267.2,267.5 269.9,267.2 272.7,266.3 275.4,266.2 294.5,266.1 302.6,266.0 308.1,266.0 310.8,265.9 313.5,265.6 316.3,265.5 319.0,265.4 321.7,265.2 324.4,265.0 335.3,264.7 340.8,264.6 351.7,264.6 354.4,264.2 357.1,264.2 359.8,264.0 365.3,264.0 368.0,262.6 370.7,261.3 373.5,260.8 376.2,260.5 378.9,260.4 381.6,260.0 384.4,259.6 387.1,259.2 389.8,259.0 392.5,258.9 398.0,258.7 400.7,258.1 403.4,257.6 406.2,257.1 408.9,256.7 414.3,256.6 419.8,256.5 422.5,256.1 425.2,255.7 427.9,254.8 430.7,254.3 433.4,253.7 436.1,253.2 438.8,252.6 441.6,252.0 444.3,251.3 447.0,250.6 449.7,249.9 452.5,249.3 455.2,248.9 457.9,248.4 460.6,247.9 463.4,247.6 466.1,247.3 468.8,247.0 471.5,246.8 474.3,246.7 479.7,246.6 482.4,245.3 485.2,244.4 487.9,244.2 490.6,244.1 496.1,244.0 498.8,243.8 509.7,243.7 515.1,243.6 523.3,243.5 526.0,242.0 528.7,240.5 531.5,240.1 534.2,238.9 536.9,237.9 539.6,237.3 542.4,237.0 545.1,236.4 547.8,236.1 550.5,236.0 553.3,235.7 556.0,235.6 572.3,234.5 575.1,233.2 577.8,233.0 580.5,232.8 583.2,232.7 602.3,232.7 626.8,231.3 629.5,230.2 632.3,228.9 635.0,227.0 637.7,226.7 640.4,226.1 643.2,225.0 645.9,224.2 648.6,222.4 651.3,219.7 654.1,217.1 656.8,214.1 659.5,210.8 662.2,208.0 665.0,206.3 667.7,204.2 670.4,201.1 673.1,198.5 675.9,196.8 678.6,195.0 681.3,192.4 684.0,190.8 686.8,189.2 689.5,187.8 692.2,186.8 694.9,185.3 697.6,184.5 700.4,183.5 703.1,182.7 705.8,180.3 708.5,178.4 711.3,177.3 714.0,177.0 716.7,176.4 719.4,175.4 722.2,174.5 724.9,172.9 727.6,171.9 730.3,171.0 733.1,170.8 735.8,170.4 738.5,169.7 741.2,167.8 744.0,164.6 746.7,161.3 749.4,158.0 752.1,155.4 754.9,152.2 757.6,148.9 760.3,145.5 763.0,142.3 765.8,140.1 768.5,138.2 771.2,136.2 773.9,134.2 776.7,132.8 779.4,131.2 782.1,130.0 784.8,128.3 787.5,125.9 790.3,123.1 793.0,120.8 795.7,118.7 798.4,117.4 801.2,116.2 803.9,115.0 806.6,113.6 809.3,111.3 812.1,109.4 814.8,107.1 817.5,104.7 820.2,102.6 823.0,101.0 825.7,100.4 828.4,99.4 831.1,98.5 833.9,98.4 836.6,98.2 839.3,97.8 842.0,97.6 844.8,97.5 847.5,97.2 850.2,97.0 858.4,97.0 861.1,96.9 863.8,96.5 866.6,93.7 869.3,91.4 872.0,90.0 872.0,272.0" fill="#e0f2fe" opacity="0.55"/>
<polyline points="52.0,271.9 54.7,271.8 87.4,271.1 90.1,270.9 92.9,270.9 101.0,270.8 117.4,270.7 152.8,270.7 155.5,270.1 158.2,270.0 166.4,269.9 169.1,269.8 171.9,269.7 174.6,269.5 180.0,269.5 182.8,269.1 190.9,268.9 201.8,268.7 204.6,268.5 207.3,268.4 229.1,268.3 234.5,268.3 248.1,268.2 250.9,268.1 253.6,268.0 264.5,267.9 267.2,267.5 269.9,267.2 272.7,266.3 275.4,266.2 294.5,266.1 302.6,266.0 308.1,266.0 310.8,265.9 313.5,265.6 316.3,265.5 319.0,265.4 321.7,265.2 324.4,265.0 335.3,264.7 340.8,264.6 351.7,264.6 354.4,264.2 357.1,264.2 359.8,264.0 365.3,264.0 368.0,262.6 370.7,261.3 373.5,260.8 376.2,260.5 378.9,260.4 381.6,260.0 384.4,259.6 387.1,259.2 389.8,259.0 392.5,258.9 398.0,258.7 400.7,258.1 403.4,257.6 406.2,257.1 408.9,256.7 414.3,256.6 419.8,256.5 422.5,256.1 425.2,255.7 427.9,254.8 430.7,254.3 433.4,253.7 436.1,253.2 438.8,252.6 441.6,252.0 444.3,251.3 447.0,250.6 449.7,249.9 452.5,249.3 455.2,248.9 457.9,248.4 460.6,247.9 463.4,247.6 466.1,247.3 468.8,247.0 471.5,246.8 474.3,246.7 479.7,246.6 482.4,245.3 485.2,244.4 487.9,244.2 490.6,244.1 496.1,244.0 498.8,243.8 509.7,243.7 515.1,243.6 523.3,243.5 526.0,242.0 528.7,240.5 531.5,240.1 534.2,238.9 536.9,237.9 539.6,237.3 542.4,237.0 545.1,236.4 547.8,236.1 550.5,236.0 553.3,235.7 556.0,235.6 572.3,234.5 575.1,233.2 577.8,233.0 580.5,232.8 583.2,232.7 602.3,232.7 626.8,231.3 629.5,230.2 632.3,228.9 635.0,227.0 637.7,226.7 640.4,226.1 643.2,225.0 645.9,224.2 648.6,222.4 651.3,219.7 654.1,217.1 656.8,214.1 659.5,210.8 662.2,208.0 665.0,206.3 667.7,204.2 670.4,201.1 673.1,198.5 675.9,196.8 678.6,195.0 681.3,192.4 684.0,190.8 686.8,189.2 689.5,187.8 692.2,186.8 694.9,185.3 697.6,184.5 700.4,183.5 703.1,182.7 705.8,180.3 708.5,178.4 711.3,177.3 714.0,177.0 716.7,176.4 719.4,175.4 722.2,174.5 724.9,172.9 727.6,171.9 730.3,171.0 733.1,170.8 735.8,170.4 738.5,169.7 741.2,167.8 744.0,164.6 746.7,161.3 749.4,158.0 752.1,155.4 754.9,152.2 757.6,148.9 760.3,145.5 763.0,142.3 765.8,140.1 768.5,138.2 771.2,136.2 773.9,134.2 776.7,132.8 779.4,131.2 782.1,130.0 784.8,128.3 787.5,125.9 790.3,123.1 793.0,120.8 795.7,118.7 798.4,117.4 801.2,116.2 803.9,115.0 806.6,113.6 809.3,111.3 812.1,109.4 814.8,107.1 817.5,104.7 820.2,102.6 823.0,101.0 825.7,100.4 828.4,99.4 831.1,98.5 833.9,98.4 836.6,98.2 839.3,97.8 842.0,97.6 844.8,97.5 847.5,97.2 850.2,97.0 858.4,97.0 861.1,96.9 863.8,96.5 866.6,93.7 869.3,91.4 872.0,90.0" fill="none" stroke="#38bdf8" stroke-width="2.5" stroke-linejoin="round" stroke-linecap="round"/>
<circle cx="872.0" cy="90.0" r="4" fill="#0ea5e9"/>
<text x="866.0" y="80.0" text-anchor="end" font-family="Inter, system-ui, sans-serif" font-size="13" font-weight="700" fill="#334155">2720</text>
<text x="52.0" y="294" text-anchor="middle" font-family="Inter, system-ui, sans-serif" font-size="11" fill="#94a3b8">Jun 10 05:00</text>
<text x="545.1" y="294" text-anchor="middle" font-family="Inter, system-ui, sans-serif" font-size="11" fill="#94a3b8">Jun 17 18:00</text>
<text x="872.0" y="294" text-anchor="middle" font-family="Inter, system-ui, sans-serif" font-size="11" fill="#94a3b8">Jun 22 18:00</text>
</svg>
